<?xml version="1.0" encoding="UTF-8" standalone="no"?>
<!-- Generator: flash2svg, http://dissentgraphics.com/tools/flash2svg -->

<svg
   xmlns:dc="http://purl.org/dc/elements/1.1/"
   xmlns:cc="http://creativecommons.org/ns#"
   xmlns:rdf="http://www.w3.org/1999/02/22-rdf-syntax-ns#"
   xmlns:svg="http://www.w3.org/2000/svg"
   xmlns="http://www.w3.org/2000/svg"
   xmlns:sodipodi="http://sodipodi.sourceforge.net/DTD/sodipodi-0.dtd"
   xmlns:inkscape="http://www.inkscape.org/namespaces/inkscape"
   id="Drive-External"
   version="1.1"
   x="0px"
   y="0px"
   width="500"
   height="500"
   viewBox="0 0 500 500"
   enable-background="new 0 0 1024 1024"
   inkscape:version="0.48.5 r10040"
   sodipodi:docname="ac-adapter.svg">
  <metadata
     id="metadata26">
    <rdf:RDF>
      <cc:Work
         rdf:about="">
        <dc:format>image/svg+xml</dc:format>
        <dc:type
           rdf:resource="http://purl.org/dc/dcmitype/StillImage" />
        <dc:title />
      </cc:Work>
    </rdf:RDF>
  </metadata>
  <sodipodi:namedview
     pagecolor="#f7f7f7"
     bordercolor="#666666"
     borderopacity="1"
     objecttolerance="10"
     gridtolerance="10"
     guidetolerance="10"
     inkscape:pageopacity="0"
     inkscape:pageshadow="2"
     inkscape:window-width="1366"
     inkscape:window-height="716"
     id="namedview24"
     showgrid="false"
     inkscape:zoom="0.78135236"
     inkscape:cx="571.61608"
     inkscape:cy="204.89337"
     inkscape:window-x="0"
     inkscape:window-y="0"
     inkscape:window-maximized="1"
     inkscape:current-layer="Drive-External" />
  <defs
     transform="matrix(1 0 0 1 0 0) "
     id="defs3">
    <path
       d="m 38.650563,12.764798 -8.308794,0 0,8.310562 2.882358,0 c -0.257227,4.816849 -3.169536,5.132217 -5.755905,5.400015 -0.16209,0.01762 -0.29775,0.037 -0.45103,0.05286 l 0,-16.420277 4.154401,0 -5.792904,-8.107955 -5.838713,8.107954 4.154401,0 0,21.300551 c -0.186755,-0.02291 -0.366461,-0.04581 -0.569072,-0.06519 -2.491231,-0.257228 -5.280211,-0.560261 -5.717146,-4.882038 1.744213,-0.776966 2.961641,-2.522943 2.961641,-4.554335 0,-2.751982 -2.230481,-4.984224 -4.984224,-4.984224 -2.753745,0 -4.985984,2.232242 -4.985984,4.984224 0,2.607512 1.999678,4.742852 4.552574,4.964844 0.628973,5.415871 4.374629,6.485303 6.915191,6.832384 -1.89397,1.171619 -3.158965,3.261151 -3.158965,5.650197 0,3.67342 2.975735,6.64563 6.647392,6.64563 3.671658,0 6.645632,-2.973973 6.645632,-6.64563 0,-3.097301 -2.121246,-5.688957 -4.985986,-6.428928 l 0,-3.888362 c 0.218468,-0.03172 0.466885,-0.05462 0.706495,-0.07929 2.517658,-0.262512 7.655161,-0.819252 7.986386,-7.882437 l 2.938728,0 0,-8.310562 0.0035,0 0,0 z"
       id="path-main"
       inkscape:connector-curvature="0" />
  </defs>
  <rect
     style="fill:#5d6a7b;fill-opacity:1;stroke:none"
     id="rect2988-3-6-3"
     width="40.178577"
     height="140.625"
     x="388.54468"
     y="334.375" />
  <rect
     style="fill:#ebebeb;fill-opacity:1;stroke:none"
     id="rect2988-3-7-5"
     width="116.51786"
     height="42.85714"
     x="42.339279"
     y="154.91072"
     ry="21.42857" />
  <rect
     style="fill:#333333;fill-opacity:1;stroke:none"
     id="rect2988-3-6"
     width="56.250004"
     height="58.92857"
     x="379.83932"
     y="312.27676" />
  <rect
     style="fill:#ebebeb;fill-opacity:1;stroke:none"
     id="rect2988-3-7"
     width="116.51786"
     height="42.85714"
     x="41"
     y="61.830353"
     ry="21.42857" />
  <rect
     style="fill:#333333;fill-opacity:1;stroke:none"
     id="rect2988-3"
     width="116.51786"
     height="164.73215"
     x="128.50224"
     y="50.204018" />
  <rect
     style="fill:#394050;fill-opacity:1;stroke:none"
     id="rect2988"
     width="218.30357"
     height="300"
     x="230.50894"
     y="25" />
</svg>
