<?xml version="1.0" encoding="UTF-8" standalone="no"?>
<!-- Generator: Adobe Illustrator 19.0.0, SVG Export Plug-In . SVG Version: 6.00 Build 0)  -->

<svg
   xmlns:dc="http://purl.org/dc/elements/1.1/"
   xmlns:cc="http://creativecommons.org/ns#"
   xmlns:rdf="http://www.w3.org/1999/02/22-rdf-syntax-ns#"
   xmlns:svg="http://www.w3.org/2000/svg"
   xmlns="http://www.w3.org/2000/svg"
   xmlns:sodipodi="http://sodipodi.sourceforge.net/DTD/sodipodi-0.dtd"
   xmlns:inkscape="http://www.inkscape.org/namespaces/inkscape"
   version="1.1"
   id="Layer_1"
   x="0px"
   y="0px"
   viewBox="0 0 500 500"
   xml:space="preserve"
   inkscape:version="0.48.5 r10040"
   width="100%"
   height="100%"
   sodipodi:docname="computer.svg"><metadata
     id="metadata57"><rdf:RDF><cc:Work
         rdf:about=""><dc:format>image/svg+xml</dc:format><dc:type
           rdf:resource="http://purl.org/dc/dcmitype/StillImage" /></cc:Work></rdf:RDF></metadata><defs
     id="defs55" /><sodipodi:namedview
     pagecolor="#ffffff"
     bordercolor="#666666"
     borderopacity="1"
     objecttolerance="10"
     gridtolerance="10"
     guidetolerance="10"
     inkscape:pageopacity="0"
     inkscape:pageshadow="2"
     inkscape:window-width="1366"
     inkscape:window-height="716"
     id="namedview53"
     showgrid="false"
     inkscape:zoom="0.7433037"
     inkscape:cx="-134.4217"
     inkscape:cy="347.93025"
     inkscape:window-x="0"
     inkscape:window-y="0"
     inkscape:window-maximized="1"
     inkscape:current-layer="Layer_1" /><polygon
     style="fill:#cccccc"
     points="151.34,441.463 171.063,352.014 289.402,352.014 309.125,441.463 "
     id="polygon3"
     transform="matrix(0.60000001,0,0,0.60000001,36.469788,95.60031)" /><rect
     x="115.45139"
     y="354.37909"
     style="fill:#d8d9dd"
     width="118.3158"
     height="10.9776"
     id="rect5" /><rect
     x="115.45139"
     y="354.37909"
     style="opacity:0.4;fill:#394050;enable-background:new"
     width="118.3158"
     height="10.9776"
     id="rect11" /><g
     id="g23"
     transform="translate(0,39.767)" /><g
     id="g25"
     transform="translate(0,39.767)" /><g
     id="g27"
     transform="translate(0,39.767)" /><g
     id="g29"
     transform="translate(0,39.767)" /><g
     id="g31"
     transform="translate(0,39.767)" /><g
     id="g33"
     transform="translate(0,39.767)" /><g
     id="g35"
     transform="translate(0,39.767)" /><g
     id="g37"
     transform="translate(0,39.767)" /><g
     id="g39"
     transform="translate(0,39.767)" /><g
     id="g41"
     transform="translate(0,39.767)" /><g
     id="g43"
     transform="translate(0,39.767)" /><g
     id="g45"
     transform="translate(0,39.767)" /><g
     id="g47"
     transform="translate(0,39.767)" /><g
     id="g49"
     transform="translate(0,39.767)" /><g
     id="g51"
     transform="translate(0,39.767)" /><path
     inkscape:connector-curvature="0"
     style="fill:#5d6a7b"
     d="m 311.59391,133.76194 c 0.008,0 0.14739,0.0907 0.14739,0.0985 V 300.81499 H 38.258043 V 133.86042 c 0,-0.008 0.09717,-0.0985 0.105,-0.0985 H 311.59391 l 0,0 z"
     id="path9" /><path
     inkscape:connector-curvature="0"
     style="fill:#394050"
     d="m 311.59391,133.76194 c 0.008,0 0.14739,0.0907 0.14739,0.0985 V 300.81499 H 38.258043 V 133.86042 c 0,-0.008 0.09717,-0.0985 0.105,-0.0985 H 311.59391 l 0,0 z M 325,217.28782 v -83.45088 c 0,-7.07412 -6.30782,-13.33304 -13.38261,-13.33304 l 0,0 H 38.339565 C 31.265435,120.5039 25,126.76282 25,133.83694 v 83.45088 0.002 83.45152 c 0,7.07478 6.265435,13.33304 13.339565,13.33304 H 311.61739 l 0,0 c 7.07479,0 13.38261,-6.25891 13.38261,-13.33304 v -83.45152 -0.002 z"
     id="path7" /><rect
     style="fill:#394050;fill-opacity:1;stroke:none"
     id="rect3019"
     width="133.86183"
     height="295.7533"
     x="344.75458"
     y="66.925896"
     rx="40.288898"
     ry="16.871143" /><rect
     style="fill:#333333;fill-opacity:1;stroke:none"
     id="rect3021"
     width="102.74068"
     height="31.155163"
     x="361.01935"
     y="96.885498"
     rx="0"
     ry="0" /><rect
     style="fill:#333333;fill-opacity:1;stroke:none"
     id="rect3021-6"
     width="102.74068"
     height="31.155163"
     x="361.01938"
     y="132.20261"
     rx="0"
     ry="0" /><rect
     style="fill:#333333;fill-opacity:1;stroke:none"
     id="rect3021-7"
     width="102.74068"
     height="31.155163"
     x="360.78156"
     y="166.92517"
     rx="0"
     ry="0" /><path
     sodipodi:type="arc"
     style="fill:#999999;fill-opacity:1;stroke:none"
     id="path3048"
     sodipodi:cx="411.6756"
     sodipodi:cy="265.90994"
     sodipodi:rx="13.453451"
     sodipodi:ry="13.453451"
     d="m 425.12905,265.90994 a 13.453451,13.453451 0 1 1 -1.5e-4,-0.0632"
     sodipodi:start="0"
     sodipodi:end="6.2784904"
     sodipodi:open="true"
     transform="translate(-1.0090088,0.67267255)" /><path
     transform="matrix(0.68180195,0,0,0.68180195,130.69946,116.27164)"
     sodipodi:type="arc"
     style="fill:#999999;fill-opacity:1;stroke:none"
     id="path3048-5"
     sodipodi:cx="411.6756"
     sodipodi:cy="265.90994"
     sodipodi:rx="13.453451"
     sodipodi:ry="13.453451"
     d="m 425.12905,265.90994 a 13.453451,13.453451 0 1 1 -1.5e-4,-0.0632"
     sodipodi:start="0"
     sodipodi:end="6.2784904"
     sodipodi:open="true" /><path
     style="fill:#808080;stroke:none"
     d="m 344.37156,304.02175 67.54249,23.17751 65.63988,-24.11891 -66.14934,46.61383 z"
     id="path3068"
     inkscape:connector-curvature="0"
     sodipodi:nodetypes="ccccc" /></svg>