<?xml version="1.0" encoding="UTF-8" standalone="no"?>
<!-- Created with Inkscape (http://www.inkscape.org/) -->

<svg
   xmlns:dc="http://purl.org/dc/elements/1.1/"
   xmlns:cc="http://creativecommons.org/ns#"
   xmlns:rdf="http://www.w3.org/1999/02/22-rdf-syntax-ns#"
   xmlns:svg="http://www.w3.org/2000/svg"
   xmlns="http://www.w3.org/2000/svg"
   xmlns:sodipodi="http://sodipodi.sourceforge.net/DTD/sodipodi-0.dtd"
   xmlns:inkscape="http://www.inkscape.org/namespaces/inkscape"
   width="512"
   height="512"
   id="svg2"
   version="1.1"
   inkscape:version="0.48.5 r10040"
   sodipodi:docname="input-dialpad.svg">
  <defs
     id="defs4" />
  <sodipodi:namedview
     id="base"
     pagecolor="#ffffff"
     bordercolor="#666666"
     borderopacity="1.0"
     inkscape:pageopacity="0.0"
     inkscape:pageshadow="2"
     inkscape:zoom="0.49497474"
     inkscape:cx="964.29517"
     inkscape:cy="287.7131"
     inkscape:document-units="px"
     inkscape:current-layer="layer1"
     showgrid="false"
     inkscape:window-width="1366"
     inkscape:window-height="716"
     inkscape:window-x="0"
     inkscape:window-y="0"
     inkscape:window-maximized="1" />
  <metadata
     id="metadata7">
    <rdf:RDF>
      <cc:Work
         rdf:about="">
        <dc:format>image/svg+xml</dc:format>
        <dc:type
           rdf:resource="http://purl.org/dc/dcmitype/StillImage" />
        <dc:title />
      </cc:Work>
    </rdf:RDF>
  </metadata>
  <g
     inkscape:label="Layer 1"
     inkscape:groupmode="layer"
     id="layer1"
     transform="translate(0,-540.36218)">
    <rect
       style="fill:#666666;fill-opacity:1;stroke:none"
       id="rect3815-7-56"
       width="93.455994"
       height="91.059692"
       x="324.28052"
       y="690.36005"
       rx="14.581661"
       ry="7.1159863" />
    <rect
       style="fill:#666666;fill-opacity:1;stroke:none"
       id="rect3815-7-5-2"
       width="93.455994"
       height="91.059692"
       x="324.28052"
       y="577.36218"
       rx="14.581661"
       ry="7.1159863" />
    <rect
       style="fill:#666666;fill-opacity:1;stroke:none"
       id="rect3815-7-5-3-9"
       width="93.455994"
       height="91.059692"
       x="324.28052"
       y="811.26093"
       rx="14.581661"
       ry="7.1159863" />
    <rect
       style="fill:#666666;fill-opacity:1;stroke:none"
       id="rect3815-7-56-2"
       width="93.455994"
       height="91.059692"
       x="202.3409"
       y="690.44672"
       rx="14.581661"
       ry="7.1159863" />
    <rect
       style="fill:#666666;fill-opacity:1;stroke:none"
       id="rect3815-7-5-2-7"
       width="93.455994"
       height="91.059692"
       x="202.3409"
       y="577.44867"
       rx="14.581661"
       ry="7.1159863" />
    <rect
       style="fill:#666666;fill-opacity:1;stroke:none"
       id="rect3815-7-5-3-9-0"
       width="93.455994"
       height="91.059692"
       x="202.3409"
       y="811.34753"
       rx="14.581661"
       ry="7.1159863" />
    <rect
       style="fill:#666666;fill-opacity:1;stroke:none"
       id="rect3815-7-5-3-93"
       width="93.455994"
       height="91.059692"
       x="202.6281"
       y="936.30249"
       rx="14.581661"
       ry="7.1159863" />
    <rect
       style="fill:#666666;fill-opacity:1;stroke:none"
       id="rect3815-7-56-6"
       width="93.455994"
       height="91.059692"
       x="83"
       y="690.79364"
       rx="14.581661"
       ry="7.1159863" />
    <rect
       style="fill:#666666;fill-opacity:1;stroke:none"
       id="rect3815-7-5-2-0"
       width="93.455994"
       height="91.059692"
       x="83"
       y="577.79565"
       rx="14.581661"
       ry="7.1159863" />
    <rect
       style="fill:#666666;fill-opacity:1;stroke:none"
       id="rect3815-7-5-3-9-6"
       width="93.455994"
       height="91.059692"
       x="83"
       y="811.69452"
       rx="14.581661"
       ry="7.1159863" />
    <path
       sodipodi:type="arc"
       style="fill:#666666;fill-opacity:1;stroke:#ffffff;stroke-width:0.57945514;stroke-linecap:round;stroke-linejoin:round;stroke-miterlimit:4;stroke-opacity:1;stroke-dasharray:none"
       id="path4282-5-3-1-6"
       sodipodi:cx="854.39966"
       sodipodi:cy="379.7963"
       sodipodi:rx="1.8182108"
       sodipodi:ry="1.844362"
       d="m 856.21787,379.7963 a 1.8182108,1.844362 0 1 1 -2e-5,-0.009"
       transform="matrix(10.107884,0,0,13.72111,-8387.0736,-4229.3318)"
       sodipodi:start="0"
       sodipodi:end="6.2784904"
       sodipodi:open="true" />
    <path
       style="fill:none;stroke:#ffffff;stroke-width:7.11667013;stroke-linecap:butt;stroke-linejoin:bevel;stroke-miterlimit:4;stroke-opacity:1;stroke-dasharray:none"
       d="m 116.46696,845.06615 c 0,0 6.19827,-0.44693 9.31946,-2.11806 3.12118,-1.67132 8.4722,-8.04862 8.4722,-8.04862 l 0,44.90281"
       id="path4418"
       inkscape:connector-curvature="0"
       sodipodi:nodetypes="czcc" />
    <path
       style="fill:none;stroke:#ffffff;stroke-width:7.11667013;stroke-linecap:butt;stroke-linejoin:bevel;stroke-miterlimit:4;stroke-opacity:1;stroke-dasharray:none"
       d="m 267.86195,877.61311 -35.68768,0.42367 23.66356,-21.26722 c 0,0 7.0985,-5.69015 6.29032,-10.78337 -0.80816,-5.09321 -3.50979,-12.41977 -13.77877,-12.28109 -10.26897,0.1386 -12.88017,12.58062 -12.88017,12.58062"
       id="path4420"
       inkscape:connector-curvature="0"
       sodipodi:nodetypes="ccczzc" />
    <path
       style="fill:none;stroke:#ffffff;stroke-width:7.11667013;stroke-linecap:butt;stroke-linejoin:bevel;stroke-miterlimit:4;stroke-opacity:1;stroke-dasharray:none"
       d="m 359.06328,867.94116 c 0,0 5.13496,11.41434 13.55555,11.43749 8.42063,0.0237 12.21377,-6.5599 12.39065,-13.13192 0.17689,-6.57205 -10.69622,-11.86115 -10.69622,-11.86115 0,0 10.20251,-4.30189 10.37852,-9.84896 0.17597,-5.54706 -2.96205,-12.45478 -12.07295,-12.60242 -9.1109,-0.14748 -13.97919,12.28475 -13.97919,12.28475"
       id="path4422"
       inkscape:connector-curvature="0"
       sodipodi:nodetypes="czzczzc" />
    <path
       style="fill:none;stroke:#ffffff;stroke-width:7.11667013;stroke-linecap:butt;stroke-linejoin:bevel;stroke-miterlimit:4;stroke-opacity:1;stroke-dasharray:none"
       d="m 146.19242,744.45849 -34.94797,0 24.5695,-31.34726 0,46.38545"
       id="path4424"
       inkscape:connector-curvature="0" />
    <path
       style="fill:none;stroke:#ffffff;stroke-width:7.11667013;stroke-linecap:butt;stroke-linejoin:bevel;stroke-miterlimit:4;stroke-opacity:1;stroke-dasharray:none"
       d="m 266.84893,716.14293 -27.95831,0 0,14.61461 c 0,0 8.48182,0.69307 13.55554,1.69443 5.07367,1.00136 11.39622,3.4327 11.43754,12.92016 0.0427,9.48742 -4.26294,15.11851 -13.34381,15.03819 -9.08087,-0.0801 -13.34375,-10.48437 -13.34375,-10.48437"
       id="path4426"
       inkscape:connector-curvature="0"
       sodipodi:nodetypes="ccczzzc" />
    <path
       style="fill:none;stroke:#ffffff;stroke-width:7.11667013;stroke-linecap:butt;stroke-linejoin:miter;stroke-miterlimit:4;stroke-opacity:1;stroke-dasharray:none"
       d="m 384.34857,724.46572 c 0,0 -1.42864,-9.68256 -13.34376,-9.95489 -11.91511,-0.27232 -13.97918,13.34376 -13.97918,13.34376 0,0 -0.20637,16.91951 0.21208,21.1806 0.41846,4.26107 4.56681,12.55574 13.97914,12.49653 9.41232,-0.0592 14.48934,-5.40705 14.61459,-13.55559 0.12528,-8.14855 -3.0779,-14.11582 -14.19096,-14.19098 -11.11307,-0.0749 -14.40277,13.76738 -14.40277,13.76738"
       id="path4428"
       inkscape:connector-curvature="0"
       sodipodi:nodetypes="czczzzzc" />
    <path
       style="fill:none;stroke:#ffffff;stroke-width:7.11667013;stroke-linecap:butt;stroke-linejoin:miter;stroke-miterlimit:4;stroke-opacity:1;stroke-dasharray:none"
       d="m 358.91454,636.27371 c 0,0 1.42864,9.68257 13.34375,9.95491 11.91512,0.27232 13.97919,-13.34375 13.97919,-13.34375 0,0 0.20637,-16.91951 -0.21208,-21.1806 -0.41847,-4.26107 -4.56681,-12.55574 -13.97912,-12.49653 -9.41234,0.0594 -14.48936,5.40704 -14.61462,13.55559 -0.12527,8.14854 3.07791,14.11581 14.19098,14.19098 11.11306,0.0749 14.40276,-13.76741 14.40276,-13.76741"
       id="path4428-3"
       inkscape:connector-curvature="0"
       sodipodi:nodetypes="czczzzzc" />
    <path
       d="m 267.04102,636.24425 q 0,3.46213 -1.11551,6.38574 -1.07718,2.88512 -3.34668,5.00085 -2.23118,2.11573 -5.73171,3.30835 -3.50065,1.19242 -8.27071,1.19242 -4.77008,0 -8.27062,-1.19242 -3.46206,-1.19262 -5.77015,-3.26983 -2.2697,-2.11578 -3.38531,-5.00088 -1.07708,-2.92358 -1.07708,-6.34721 0,-2.96207 0.88479,-5.27019 0.92318,-2.30808 2.42347,-3.96223 1.53872,-1.69253 3.46222,-2.69276 1.96177,-1.0386 4.03907,-1.38486 l 0,-0.15377 q -2.26968,-0.53891 -4.07765,-1.73105 -1.76949,-1.19253 -3.00049,-2.84663 -1.19242,-1.69267 -1.8465,-3.7315 -0.61526,-2.0387 -0.61526,-4.30835 0,-2.84666 1.07709,-5.34709 1.11562,-2.53894 3.26983,-4.42376 2.15427,-1.92354 5.34705,-3.00053 3.19291,-1.11565 7.38586,-1.11565 4.42391,0 7.65516,1.11565 3.26982,1.11557 5.38561,3.03891 2.15417,1.88503 3.19278,4.42387 1.03861,2.5389 1.03861,5.38556 0,2.23112 -0.65387,4.26995 -0.61526,2.0388 -1.8465,3.73138 -1.19251,1.65409 -3.00052,2.84666 -1.7696,1.15398 -4.11611,1.61568 l 0,0.15377 q 2.34651,0.38431 4.34691,1.42333 2.00036,1.00017 3.46212,2.69276 1.46176,1.65411 2.30808,3.96219 0.84636,2.30812 0.84636,5.23164 z m -8.53981,-25.54281 q 0,-2.03883 -0.53891,-3.73132 -0.50026,-1.69263 -1.69258,-2.88515 -1.19253,-1.23099 -3.11591,-1.88496 -1.92337,-0.6925 -4.73156,-0.6925 -2.73129,0 -4.6162,0.6925 -1.88487,0.65393 -3.11587,1.88496 -1.19257,1.19252 -1.73111,2.88515 -0.53887,1.69249 -0.53887,3.73132 0,1.61566 0.42274,3.30836 0.42272,1.69252 1.53872,3.07738 1.11564,1.38486 3.07742,2.26965 1.96184,0.88473 5.03943,0.88473 3.26968,0 5.2316,-0.88473 2.00031,-0.88479 3.03896,-2.26965 1.07708,-1.38486 1.3848,-3.07738 0.34588,-1.6927 0.34588,-3.30836 z m 1.34639,24.88884 q 0,-1.96183 -0.53887,-3.76978 -0.53893,-1.84656 -1.8465,-3.23136 -1.3079,-1.4233 -3.53912,-2.26956 -2.1926,-0.88482 -5.50086,-0.88482 -3.03895,0 -5.19321,0.88482 -2.11575,0.84626 -3.46208,2.26956 -1.308,1.42338 -1.92341,3.3082 -0.61529,1.84654 -0.61529,3.84686 0,2.50045 0.61529,4.57771 0.61523,2.03883 1.9618,3.53908 1.34643,1.46177 3.53912,2.26956 2.19269,0.80783 5.30856,0.80783 3.15439,0 5.30861,-0.80783 2.15416,-0.80779 3.46212,-2.26956 1.30794,-1.50025 1.84635,-3.57755 0.57673,-2.11573 0.57673,-4.69316 z"
       inkscape:connector-curvature="0"
       id="path6802"
       style="font-size:10px;font-style:normal;font-weight:normal;line-height:125%;letter-spacing:0px;word-spacing:0px;fill:#ffffff;fill-opacity:1;stroke:none;font-family:Sans" />
    <path
       style="fill:#ffffff;stroke:none"
       d="m 111.69982,598.01478 0,10.26904 21.38494,0.10584 c 0,0 -8.24164,10.80718 -11.01007,18.95003 -2.76842,8.14275 -3.07013,19.69102 -3.07013,19.69102 l 10.37488,0.10585 c 0,0 0.1756,-11.42056 2.96423,-19.69106 2.78887,-8.27053 12.91566,-19.47938 12.91566,-19.47938 l 0,-10.05723 z"
       id="path3993"
       inkscape:connector-curvature="0"
       sodipodi:nodetypes="ccczcczccc" />
  </g>
</svg>
