<?xml version="1.0" encoding="UTF-8" standalone="no"?>
<!-- Created with Inkscape (http://www.inkscape.org/) -->

<svg
   xmlns:dc="http://purl.org/dc/elements/1.1/"
   xmlns:cc="http://creativecommons.org/ns#"
   xmlns:rdf="http://www.w3.org/1999/02/22-rdf-syntax-ns#"
   xmlns:svg="http://www.w3.org/2000/svg"
   xmlns="http://www.w3.org/2000/svg"
   xmlns:sodipodi="http://sodipodi.sourceforge.net/DTD/sodipodi-0.dtd"
   xmlns:inkscape="http://www.inkscape.org/namespaces/inkscape"
   width="500"
   height="500"
   id="svg2"
   version="1.1"
   inkscape:version="0.91 r13725"
   sodipodi:docname="0_outlook.svg">
  <defs
     id="defs4" />
  <sodipodi:namedview
     id="base"
     pagecolor="#ffffff"
     bordercolor="#666666"
     borderopacity="1.0"
     inkscape:pageopacity="0.0"
     inkscape:pageshadow="2"
     inkscape:zoom="0.60666665"
     inkscape:cx="364.53108"
     inkscape:cy="212.91889"
     inkscape:document-units="px"
     inkscape:current-layer="layer1"
     showgrid="false"
     inkscape:window-width="1366"
     inkscape:window-height="711"
     inkscape:window-x="0"
     inkscape:window-y="0"
     inkscape:window-maximized="1" />
  <metadata
     id="metadata7">
    <rdf:RDF>
      <cc:Work
         rdf:about="">
        <dc:format>image/svg+xml</dc:format>
        <dc:type
           rdf:resource="http://purl.org/dc/dcmitype/StillImage" />
        <dc:title />
      </cc:Work>
    </rdf:RDF>
  </metadata>
  <g
     inkscape:label="Layer 1"
     inkscape:groupmode="layer"
     id="layer1"
     transform="translate(0,-552.36218)">
    <g
       id="g3373"
       transform="matrix(0.71866186,0,0,0.71866186,732.52231,-292.72207)">
      <rect
         y="1372.1423"
         x="-947.80225"
         height="309.89011"
         width="570.32971"
         id="rect3371"
         style="opacity:1;fill:#ffffff;fill-opacity:1;stroke:none;stroke-width:0.2;stroke-miterlimit:4;stroke-dasharray:none;stroke-opacity:0.23529412" />
      <path
         inkscape:connector-curvature="0"
         id="path3369"
         d="m -674.84068,1825.6677 c -12.40646,-2.4822 -105.39225,-18.8331 -206.5,-36.3115 -54.175,-9.3651 -101.31338,-17.5318 -104.75197,-18.1482 l -6.25197,-1.1207 0.25197,-249.5938 0.25197,-249.5937 122.5,-21.239 c 67.375,-11.6815 141.85,-24.6451 165.5,-28.8082 l 43,-7.5691 19.24338,0.01 19.24338,0.01 0.25662,71.75 0.25662,71.75 117.5,0 c 112.46876,0 117.72173,0.081 122.67839,1.8788 2.84811,1.0333 6.84152,3.2497 8.87423,4.9252 7.49917,6.1814 6.91147,-6.4588 7.26214,156.196 0.23984,111.2487 0.0273,147.3757 -0.89292,151.7796 -1.73382,8.2975 -5.89189,14.3564 -11.69079,17.035 l -4.73105,2.1854 -119.75,0.3213 -119.75,0.3214 0,67.9286 0,67.9287 -22.75,-0.1167 c -15.05837,-0.077 -25.11665,-0.5902 -29.75,-1.5173 z m 289.5,-280.4493 c 0,-80.3129 -0.34928,-125.9624 -0.96215,-125.75 -0.96805,0.3354 -43.78766,40.3616 -104.03026,97.2437 -17.87082,16.874 -34.82443,32.2861 -37.67469,34.2491 -3.39942,2.3413 -6.75019,3.7459 -9.73976,4.0829 -4.37009,0.4926 -4.85367,0.272 -11.76085,-5.3644 -10.26562,-8.3768 -24.10289,-21.0741 -49.33229,-45.2678 -12.1,-11.6033 -22.3375,-21.0999 -22.75,-21.1035 -0.4125,0 -0.75,42.2933 -0.75,93.9933 l 0,94 118.5,0 118.5,0 0,-126.0833 z m -415,89.015 c 9.33498,-1.5124 20.49723,-5.4546 28,-9.8887 17.81218,-10.5269 34.75079,-32.662 43.285,-56.5641 14.76306,-41.3475 8.09246,-101.7927 -14.78564,-133.9789 -8.31843,-11.7028 -19.68095,-20.9359 -33.82606,-27.4868 -27.2828,-12.6353 -56.93662,-9.9992 -83.06168,7.3838 -25.23185,16.7887 -42.30052,48.0993 -46.66567,85.603 -1.56632,13.4572 -0.63548,37.2793 1.95963,50.1512 2.65001,13.1443 8.17571,29.2523 13.71166,39.9709 16.1491,31.2677 55.59206,50.6086 91.38276,44.8096 z m -27.2023,-45.798 c -12.45808,-4.1242 -21.37417,-11.8821 -27.70405,-24.1053 -4.74888,-9.1702 -6.73066,-15.607 -8.62956,-28.0284 -6.0165,-39.3561 6.8462,-77.1676 30.14191,-88.606 5.36454,-2.634 6.83721,-2.894 16.394,-2.894 9.29907,0 11.154,0.3065 16.21807,2.6801 14.29682,6.7009 23.11163,20.9975 28.37682,46.0238 4.92543,23.4115 0.0755,60.5132 -9.94941,76.112 -10.30722,16.0381 -29.24329,23.9835 -44.84778,18.8178 z m 349.65784,-109.1337 c 30.82864,-28.875 62.80037,-58.7581 71.04827,-66.4068 8.24791,-7.6488 16.00691,-15.5238 17.24223,-17.5 2.15151,-3.442 4.38832,-9.4796 5.68427,-15.3432 l 0.60779,-2.75 -119.51905,0 -119.51905,0 0,39.7656 0,39.7656 26.75,25.0835 c 58.65466,55.0007 57.19485,53.7338 59.56083,51.6916 1.15094,-0.9935 27.31606,-25.4313 58.14471,-54.3063 z"
         style="fill:#0071c5;fill-opacity:1" />
    </g>
  </g>
</svg>
