<?xml version="1.0" encoding="UTF-8" standalone="no"?>
<!-- Created with Inkscape (http://www.inkscape.org/) -->

<svg
   xmlns:dc="http://purl.org/dc/elements/1.1/"
   xmlns:cc="http://creativecommons.org/ns#"
   xmlns:rdf="http://www.w3.org/1999/02/22-rdf-syntax-ns#"
   xmlns:svg="http://www.w3.org/2000/svg"
   xmlns="http://www.w3.org/2000/svg"
   xmlns:sodipodi="http://sodipodi.sourceforge.net/DTD/sodipodi-0.dtd"
   xmlns:inkscape="http://www.inkscape.org/namespaces/inkscape"
   width="500"
   height="500"
   id="svg2"
   version="1.1"
   inkscape:version="0.92.1 r15371"
   sodipodi:docname="0ad.svg">
  <defs
     id="defs4" />
  <sodipodi:namedview
     id="base"
     pagecolor="#ffffff"
     bordercolor="#666666"
     borderopacity="1.0"
     inkscape:pageopacity="0.0"
     inkscape:pageshadow="2"
     inkscape:zoom="0.60666665"
     inkscape:cx="312.68186"
     inkscape:cy="195.67424"
     inkscape:document-units="px"
     inkscape:current-layer="layer1"
     showgrid="false"
     inkscape:window-width="1366"
     inkscape:window-height="714"
     inkscape:window-x="0"
     inkscape:window-y="0"
     inkscape:window-maximized="1"
     inkscape:snap-global="false" />
  <metadata
     id="metadata7">
    <rdf:RDF>
      <cc:Work
         rdf:about="">
        <dc:format>image/svg+xml</dc:format>
        <dc:type
           rdf:resource="http://purl.org/dc/dcmitype/StillImage" />
        <dc:title />
      </cc:Work>
    </rdf:RDF>
  </metadata>
  <g
     inkscape:label="Layer 1"
     inkscape:groupmode="layer"
     id="layer1"
     transform="translate(0,-552.36218)">
    <g
       id="g884"
       transform="matrix(0.95744681,0,0,0.95744681,10.638298,34.143074)">
      <path
         inkscape:connector-curvature="0"
         id="path871"
         d="m 53.983518,785.74129 175.549452,-3.2967 4.12088,-178.84616 29.67033,-2.06044 5.76924,179.67033 178.84616,5.35715 v 31.31868 l -180.08243,5.35714 v 180.08241 l -40.7967,1.6484 1.64835,-179.25828 -176.785721,-3.70879 z"
         style="fill:#faec6d;fill-opacity:1;stroke:none;stroke-width:1px;stroke-linecap:butt;stroke-linejoin:miter;stroke-opacity:1" />
      <path
         inkscape:connector-curvature="0"
         id="path49-3"
         d="M 204.20689,1033.0251 C 84.936025,1009.6017 -1.852067,886.02783 17.776289,767.57439 38.920445,639.9737 160.96543,549.6477 284.5586,570.12774 411.7121,591.19777 502.47989,713.34933 482.14975,836.03784 460.10816,969.05445 333.9077,1058.497 204.20689,1033.0251 Z m 34.23966,-124.17293 -1.40037,-93.76537 -94.23687,-1.40216 -94.23684,-1.40222 3.456484,21.95353 c 5.440135,34.55209 30.557541,83.55296 55.733516,108.72893 24.64224,24.64224 63.17586,46.67264 94.58241,54.07452 40.54014,9.5547 37.66624,16.5748 36.10167,-88.18723 z m 97.24957,73.18639 c 56.44373,-25.88294 102.40565,-86.50684 112.05639,-147.80261 l 3.45654,-21.95353 -94.23686,1.40222 -94.23686,1.40216 -1.40218,94.23685 -1.40222,94.23675 21.95355,-3.4565 c 12.07439,-1.90099 36.28964,-10.03043 53.81164,-18.06534 z m -97.24777,-286.87775 1.40222,-94.23686 -21.95353,3.45649 c -34.87039,5.49021 -83.63417,30.63876 -109.43178,56.43631 -25.797539,25.79759 -50.946079,74.56139 -56.436306,109.43177 l -3.456484,21.95352 94.23684,-1.40221 94.23687,-1.40217 z m 209.28427,74.96999 c -5.47048,-34.75902 -30.65011,-83.54774 -56.41637,-109.31405 -25.7663,-25.76632 -74.55503,-50.9459 -109.31409,-56.4164 l -21.83575,-3.43664 v 92.07626 c 0,50.64188 1.54134,93.61754 3.42524,95.50137 1.88383,1.8839 44.85949,3.42523 95.50138,3.42523 h 92.07624 z"
         style="fill:#faec6d;fill-opacity:1;stroke-width:5.13782787" />
      <path
         inkscape:connector-curvature="0"
         id="path49"
         d="M 206.15553,1023.2097 C 91.96002,1000.783 8.865042,882.46759 27.658149,769.05472 47.902559,646.88385 164.75414,560.40151 283.08802,580.01006 404.83074,600.18349 491.73607,717.13711 472.27104,834.60483 451.16739,961.96116 330.33716,1047.5975 206.15553,1023.2097 Z m 32.78266,-118.88902 -1.34078,-89.77535 -90.22679,-1.3425 -90.226766,-1.34255 3.309399,21.01934 c 5.208644,33.08179 29.257224,79.99751 53.361877,104.10217 23.59364,23.59363 60.48753,44.68662 90.55763,51.77352 38.81503,9.1481 36.06342,15.86949 34.56543,-84.43463 z m 93.11129,70.07206 c 54.04187,-24.78152 98.04796,-82.82568 107.28803,-141.51312 l 3.30945,-21.01934 -90.22678,1.34255 -90.22678,1.3425 -1.34251,90.22677 -1.34255,90.22671 21.01935,-3.3094 c 11.56059,-1.8201 34.7454,-9.6036 51.52179,-17.29667 z m -93.10957,-274.67017 1.34255,-90.22678 -21.01934,3.3094 c -33.38654,5.25659 -80.07527,29.33499 -104.7751,54.03477 -24.699777,24.69982 -48.77817,71.38856 -54.034767,104.7751 l -3.309399,21.01933 90.226766,-1.34255 90.22679,-1.3425 z m 200.37856,71.77978 c -5.2377,-33.27992 -29.34585,-79.99252 -54.01568,-104.66239 -24.66986,-24.66988 -71.38247,-48.77799 -104.66242,-54.0157 l -20.90657,-3.2904 v 88.15812 c 0,48.4869 1.47575,89.63381 3.27948,91.43748 1.80367,1.80373 42.95058,3.27948 91.43749,3.27948 h 88.15811 z"
         style="fill:#502d16;fill-opacity:1;stroke-width:4.91919708" />
    </g>
  </g>
</svg>
