<?xml version="1.0" encoding="UTF-8" standalone="no"?>
<svg
   xmlns:dc="http://purl.org/dc/elements/1.1/"
   xmlns:cc="http://creativecommons.org/ns#"
   xmlns:rdf="http://www.w3.org/1999/02/22-rdf-syntax-ns#"
   xmlns:svg="http://www.w3.org/2000/svg"
   xmlns="http://www.w3.org/2000/svg"
   xmlns:xlink="http://www.w3.org/1999/xlink"
   xmlns:sodipodi="http://sodipodi.sourceforge.net/DTD/sodipodi-0.dtd"
   xmlns:inkscape="http://www.inkscape.org/namespaces/inkscape"
   viewBox="0 0 511.99999 511.99999"
   height="512"
   width="512"
   version="1.1"
   id="svg2"
   inkscape:version="0.92.1 r15371"
   sodipodi:docname="accessories-document-viewer.svg">
  <sodipodi:namedview
     pagecolor="#ffffff"
     bordercolor="#666666"
     borderopacity="1"
     objecttolerance="10"
     gridtolerance="10"
     guidetolerance="10"
     inkscape:pageopacity="0"
     inkscape:pageshadow="2"
     inkscape:window-width="1366"
     inkscape:window-height="714"
     id="namedview18"
     showgrid="false"
     inkscape:zoom="0.203125"
     inkscape:cx="-439.06075"
     inkscape:cy="513.25752"
     inkscape:window-x="0"
     inkscape:window-y="0"
     inkscape:window-maximized="1"
     inkscape:current-layer="svg2" />
  <metadata
     id="metadata8">
    <rdf:RDF>
      <cc:Work
         rdf:about="">
        <dc:format>image/svg+xml</dc:format>
        <dc:type
           rdf:resource="http://purl.org/dc/dcmitype/StillImage" />
        <dc:title />
      </cc:Work>
    </rdf:RDF>
  </metadata>
  <defs
     id="defs6">
    <filter
       height="1.096"
       y="-0.048"
       width="1.096"
       x="-0.048"
       id="filter4329"
       style="color-interpolation-filters:sRGB">
      <feGaussianBlur
         id="feGaussianBlur4331"
         stdDeviation="2.1324205" />
    </filter>
    <filter
       height="1.0327445"
       y="-0.016372267"
       width="1.0399742"
       x="-0.019987123"
       id="filter4376"
       style="color-interpolation-filters:sRGB">
      <feGaussianBlur
         id="feGaussianBlur4378"
         stdDeviation="1.1736058" />
    </filter>
    <filter
       height="1.0570984"
       y="-0.0285492"
       width="1.0632123"
       x="-0.031606145"
       id="filter4436"
       style="color-interpolation-filters:sRGB">
      <feGaussianBlur
         id="feGaussianBlur4438"
         stdDeviation="0.63519096" />
    </filter>
    <linearGradient
       x1="16.541649"
       y1="144.70755"
       x2="-24.629177"
       y2="-0.77768874"
       id="linearGradient3504"
       xlink:href="#linearGradient3526"
       gradientUnits="userSpaceOnUse"
       gradientTransform="matrix(0.6969214,-0.3124156,0.3124156,0.6969214,29.229254,21.999738)" />
    <linearGradient
       id="linearGradient3526">
      <stop
         id="stop3528"
         style="stop-color:#006e29;stop-opacity:1"
         offset="0" />
      <stop
         id="stop3530"
         style="stop-color:#77b753;stop-opacity:1"
         offset="1" />
    </linearGradient>
  </defs>
  <rect
     style="fill:#a05a2c;fill-opacity:1;stroke:none"
     id="rect3003"
     width="381.21548"
     height="450"
     x="60"
     y="36.999992"
     ry="35.583622"
     rx="31.491711" />
  <path
     style="fill:#ffffff;stroke:none"
     d="m 80.407525,52.216648 c -2.691647,3.309991 -2.262269,7.680306 -2.262269,7.680306 l 0.07919,374.090416 0.0054,27.42556 c 0,0 -0.176685,4.28946 1.814739,6.52615 1.991585,2.23668 6.733317,2.44649 6.733317,2.44649 l 328.436238,-0.0162 c 0,0 5.50157,0.3022 7.97608,-1.86521 2.47451,-2.16736 2.25797,-6.98472 2.25797,-6.98472 L 425.32287,71.748593 c 0,0 1.30008,-10.663618 -5.0487,-16.876529 -6.34877,-6.212909 -17.70398,-4.682984 -17.70398,-4.682984 l -315.015,-0.749513 c 0,0 -4.456342,-0.530054 -7.147934,2.779667 z"
     id="path3773"
     inkscape:connector-curvature="0"
     sodipodi:nodetypes="cccczcczcczcczc" />
  <path
     inkscape:connector-curvature="0"
     d="m 287.51901,66.174296 -31.57588,0.7452 c 4.89744,5.092729 7.89229,11.133684 9.91973,19.661093 3.20923,13.498111 2.04067,31.617461 -3.02023,52.591731 -6.49397,25.85261 -17.8929,52.88313 -44.72853,104.96368 -2.4348,-14.33044 -4.0758,-24.02026 -4.87811,-27.39482 l -8.4555,-43.67602 c -2.88742,-14.87107 -6.2788,-33.23762 -10.08433,-54.69682 -1.28279,-8.12205 -2.57088,-16.18221 -4.16049,-24.231301 l -16.11905,11.292151 c -8.42258,27.28351 -42.94849,119.05594 -58.51703,155.81722 -2.53331,-25.65106 -6.63255,-95.91749 -8.02237,-134.48092 5.93172,-3.67908 9.09888,-6.72363 13.61473,-13.63135 -11.11408,2.76374 -18.62361,4.65495 -26.242405,6.57203 l 0.329945,187.96893 17.83124,-10.50072 c 29.63327,-75.7579 37.65731,-96.41548 59.8507,-157.11579 8.13883,36.95884 23.02297,114.3891 26.89922,142.962 l 18.09504,-11.07145 c 6.63763,-18.43209 9.0293,-24.56324 22.90085,-53.46635 39.95319,-82.66841 52.31048,-122.519707 46.36247,-152.308494 z"
     id="text3399"
     style="font-style:normal;font-weight:normal;font-size:169.21452332px;font-family:'URW Chancery L';fill:#00bbf2;fill-opacity:1;stroke:none;stroke-width:0.58371866" />
  <path
     style="fill:#cccccc;fill-opacity:1;fill-rule:nonzero;stroke:none;stroke-width:0.5710305"
     inkscape:connector-curvature="0"
     id="path61"
     d="m 473.00799,389.22503 c -2.67699,-3.18969 -5.63241,-6.19176 -8.61638,-9.15147 -16.0049,-15.88797 -34.37985,-30.05098 -54.51804,-40.33428 -12.85676,-6.57309 -26.62726,-11.86907 -40.88319,-14.42325 -7.25289,-1.27709 -14.34874,-1.93683 -21.83721,-1.96103 -7.25289,0 -14.49864,0.68394 -21.75154,1.96103 -14.27735,2.55418 -27.99788,7.85016 -40.85463,14.42325 -20.13107,10.2833 -38.53457,24.45237 -54.59658,40.33428 -2.95542,2.95365 -5.85372,5.95573 -8.53072,9.15147 -3.655,4.25496 -3.655,9.26648 0,13.52144 8.17378,9.71435 17.93234,18.33926 27.80513,26.26812 21.35892,17.00164 45.81601,31.23121 72.7788,36.9751 8.33796,1.77341 16.70449,2.62681 25.09957,2.62681 8.50216,0 16.81158,-0.8534 25.14955,-2.62681 26.96277,-5.74389 51.44843,-19.9795 72.83589,-36.9751 9.92989,-7.8986 19.65991,-16.54772 27.85511,-26.26812 3.59788,-4.25496 3.59788,-9.26648 0,-13.52144 m 0,0" />
  <path
     style="fill:#00bbf2;fill-opacity:1;fill-rule:nonzero;stroke:none;stroke-width:0.5710305"
     inkscape:connector-curvature="0"
     id="path63"
     d="m 411.46548,396.63741 c 0,35.47208 -28.76884,64.24808 -64.24806,64.24808 -35.47207,0 -64.24807,-28.76886 -64.24807,-64.24808 0,-35.47206 28.76885,-64.24806 64.24807,-64.24806 35.47207,0 64.24806,28.76885 64.24806,64.24806 m 0,0" />
  <path
     style="fill:#394050;fill-opacity:1;fill-rule:nonzero;stroke:none;stroke-width:0.5710305"
     inkscape:connector-curvature="0"
     id="SVGCleanerId_0"
     d="m 382.91079,396.63741 c 0,19.68847 -15.97635,35.66482 -35.69337,35.66482 -19.71702,0 -35.69337,-15.97635 -35.69337,-35.66482 0,-19.71701 15.97635,-35.69336 35.69337,-35.69336 19.71702,0 35.69337,15.97635 35.69337,35.69336 m 0,0" />
  <path
     style="fill:#ffffff;fill-opacity:1;fill-rule:nonzero;stroke:none;stroke-width:0.5710305"
     inkscape:connector-curvature="0"
     id="path66"
     d="m 375.77212,382.36007 c 0,7.88824 -6.38912,14.27734 -14.27736,14.27734 -7.88823,0 -14.27734,-6.3891 -14.27734,-14.27734 0,-7.88823 6.38911,-14.27735 14.27734,-14.27735 7.88824,0 14.27736,6.38912 14.27736,14.27735 m 0,0" />
  <path
     d="m 310.65033,125.86749 c -7.61523,-0.1332 -14.18725,7.44097 -12.57725,15.00809 1.0837,11.56279 8.53935,20.94585 14.3574,30.4938 0.65422,3.55561 -1.22099,7.01676 -1.34655,10.54656 -3.79323,20.72348 -9.58021,41.33548 -18.48333,60.35157 -11.01653,5.07172 -23.49286,10.0801 -29.93521,21.01097 -4.08954,7.58413 1.66868,17.81973 10.12118,18.61944 7.8417,1.07256 13.66211,-5.64732 17.9488,-11.27762 4.47562,-6.05628 7.42103,-13.26784 11.14503,-19.77649 22.5365,-9.07621 46.24645,-15.4194 70.44927,-17.82795 9.78615,7.00386 20.15435,15.26685 32.70344,15.76616 7.29429,-0.10855 13.19684,-7.18927 12.39772,-14.38088 -0.46998,-6.54795 -6.28687,-11.13975 -12.31323,-12.36837 -9.71926,-2.92781 -20.13088,-1.32426 -30.01737,-1.25326 -19.02546,-15.20231 -36.58878,-32.69347 -50.42342,-52.70641 1.02679,-12.16712 3.08858,-25.62566 -3.24698,-36.69441 -2.40561,-3.49108 -6.48342,-5.88496 -10.78008,-5.50827 m 0.3626,11.04998 c 2.14217,0.41306 2.28474,3.60372 2.88439,5.30995 0.56444,3.47758 0.50283,7.02616 0.46176,10.53835 -2.55112,-4.7684 -5.865,-9.74978 -5.27475,-15.4018 0.6724,-0.0264 1.26794,-0.36729 1.9286,-0.44533 m 11.8051,47.44927 c 11.33925,14.09924 23.93468,27.08369 37.68013,38.85359 -18.12484,2.7641 -36.13114,7.39462 -53.37529,13.64159 6.61369,-17.28521 11.64904,-35.14308 14.96703,-53.36942 0.24173,0.2916 0.48347,0.58263 0.7252,0.87424 m 70.73091,47.39646 c 4.39641,0.4242 9.4699,0.16955 12.99031,3.19945 0.33033,2.73477 -3.01523,3.13375 -4.79656,2.14394 -3.71696,-1.24095 -7.39403,-2.80108 -10.5495,-5.17853 0.78623,-0.0487 1.56953,-0.14961 2.35868,-0.16486 m -109.86613,28.76174 c -2.09053,3.8883 -5.13393,7.55422 -8.30758,10.30776 -1.05612,1.70975 -3.95459,-1.45159 -2.62093,-2.78699 2.75354,-4.31015 7.56124,-6.5949 11.81683,-9.16949 -0.29689,0.54976 -0.5926,1.09954 -0.89008,1.64931"
     inkscape:connector-curvature="0"
     id="path70"
     style="fill:#f03916;stroke-width:0.4448072;fill-opacity:1" />
</svg>
