<?xml version="1.0" encoding="UTF-8" standalone="no"?>
<svg
   xmlns:dc="http://purl.org/dc/elements/1.1/"
   xmlns:cc="http://creativecommons.org/ns#"
   xmlns:rdf="http://www.w3.org/1999/02/22-rdf-syntax-ns#"
   xmlns:svg="http://www.w3.org/2000/svg"
   xmlns="http://www.w3.org/2000/svg"
   xmlns:sodipodi="http://sodipodi.sourceforge.net/DTD/sodipodi-0.dtd"
   xmlns:inkscape="http://www.inkscape.org/namespaces/inkscape"
   viewBox="0 0 500 500"
   id="svg2"
   version="1.1"
   inkscape:version="0.92.1 r15371"
   sodipodi:docname="accessories-clipboard.svg"
   width="500"
   height="500">
  <metadata
     id="metadata97">
    <rdf:RDF>
      <cc:Work
         rdf:about="">
        <dc:format>image/svg+xml</dc:format>
        <dc:type
           rdf:resource="http://purl.org/dc/dcmitype/StillImage" />
        <dc:title />
      </cc:Work>
    </rdf:RDF>
  </metadata>
  <sodipodi:namedview
     pagecolor="#ffffff"
     bordercolor="#666666"
     borderopacity="1"
     objecttolerance="10"
     gridtolerance="10"
     guidetolerance="10"
     inkscape:pageopacity="0"
     inkscape:pageshadow="2"
     inkscape:window-width="1366"
     inkscape:window-height="714"
     id="namedview95"
     showgrid="false"
     inkscape:zoom="0.30729167"
     inkscape:cx="-140.5788"
     inkscape:cy="247.55254"
     inkscape:window-x="0"
     inkscape:window-y="0"
     inkscape:window-maximized="1"
     inkscape:current-layer="svg2" />
  <defs
     id="defs4">
    <linearGradient
       id="linearGradient3764"
       x1="1"
       x2="47"
       gradientUnits="userSpaceOnUse"
       gradientTransform="matrix(0,-1,1,0,-1.5e-6,47.999998)">
      <stop
         stop-color="#32a8ce"
         stop-opacity="1"
         id="stop7" />
      <stop
         offset="1"
         stop-color="#41afd2"
         stop-opacity="1"
         id="stop9" />
    </linearGradient>
    <clipPath
       id="clipPath-452468807">
      <g
         transform="translate(0,-1004.3622)"
         id="g12">
        <path
           d="m -24,13 c 0,1.105 -0.672,2 -1.5,2 -0.828,0 -1.5,-0.895 -1.5,-2 0,-1.105 0.672,-2 1.5,-2 0.828,0 1.5,0.895 1.5,2 z"
           transform="matrix(15.333333,0,0,11.5,414.99999,878.8622)"
           id="path14"
           inkscape:connector-curvature="0"
           style="fill:#1890d0" />
      </g>
    </clipPath>
    <clipPath
       id="clipPath-461194074">
      <g
         transform="translate(0,-1004.3622)"
         id="g17">
        <path
           d="m -24,13 c 0,1.105 -0.672,2 -1.5,2 -0.828,0 -1.5,-0.895 -1.5,-2 0,-1.105 0.672,-2 1.5,-2 0.828,0 1.5,0.895 1.5,2 z"
           transform="matrix(15.333333,0,0,11.5,414.99999,878.8622)"
           id="path19"
           inkscape:connector-curvature="0"
           style="fill:#1890d0" />
      </g>
    </clipPath>
  </defs>
  <g
     id="g33"
     transform="translate(0,452)" />
  <rect
     style="fill:#a05a2c;fill-opacity:1;stroke:none;stroke-width:1.16603994"
     id="rect3437"
     width="373.59943"
     height="450.36642"
     x="62.779659"
     y="33.364883"
     ry="40.364876" />
  <g
     id="g841"
     transform="matrix(1.2284188,0,0,1.2284188,-142.91243,-137.78709)">
    <rect
       y="161.57043"
       x="191.13219"
       height="313.42957"
       width="260.53339"
       id="rect3027"
       style="fill:#e6e6e6;fill-opacity:1;stroke:none" />
    <path
       d="m 223.7912,189.59099 h 75.52814 v 26.15137 H 223.7912 m 0,-26.15137"
       id="path79"
       inkscape:connector-curvature="0"
       style="fill:#999999;fill-opacity:1;fill-rule:nonzero;stroke:none" />
    <path
       d="m 342.47827,424.95347 h 75.52815 v 26.15137 h -75.52815 m 0,-26.15137"
       id="path81"
       inkscape:connector-curvature="0"
       style="fill:#999999;fill-opacity:1;fill-rule:nonzero;stroke:none" />
    <path
       d="m 223.7912,254.96946 h 194.21522 v 13.07569 H 223.7912 m 0,-13.07569"
       id="path83"
       inkscape:connector-curvature="0"
       style="fill:#999999;fill-opacity:1;fill-rule:nonzero;stroke:none" />
    <path
       d="m 223.7912,294.19652 h 194.21522 v 13.07569 H 223.7912 m 0,-13.07569"
       id="path85"
       inkscape:connector-curvature="0"
       style="fill:#999999;fill-opacity:1;fill-rule:nonzero;stroke:none" />
    <path
       d="m 223.7912,333.42362 h 194.21522 v 13.07569 H 223.7912 m 0,-13.07569"
       id="path87"
       inkscape:connector-curvature="0"
       style="fill:#999999;fill-opacity:1;fill-rule:nonzero;stroke:none" />
    <path
       d="m 223.7912,372.65068 h 194.21522 v 13.07569 H 223.7912 m 0,-13.07569"
       id="path89"
       inkscape:connector-curvature="0"
       style="fill:#999999;fill-opacity:1;fill-rule:nonzero;stroke:none" />
  </g>
  <rect
     style="fill:#394050;fill-opacity:1;stroke:none;stroke-width:1.16603994"
     id="rect4239"
     width="125.88789"
     height="20.280882"
     x="182.20029"
     y="48.778797" />
  <rect
     style="fill:#808080;fill-opacity:1;stroke:none;stroke-width:1.16603994"
     id="rect4239-7"
     width="67.862961"
     height="43.6819"
     x="213.43381"
     y="15.237296" />
</svg>
