<?xml version="1.0" encoding="UTF-8" standalone="no"?>
<!-- Created with Inkscape (http://www.inkscape.org/) -->

<svg
   xmlns:dc="http://purl.org/dc/elements/1.1/"
   xmlns:cc="http://creativecommons.org/ns#"
   xmlns:rdf="http://www.w3.org/1999/02/22-rdf-syntax-ns#"
   xmlns:svg="http://www.w3.org/2000/svg"
   xmlns="http://www.w3.org/2000/svg"
   xmlns:sodipodi="http://sodipodi.sourceforge.net/DTD/sodipodi-0.dtd"
   xmlns:inkscape="http://www.inkscape.org/namespaces/inkscape"
   id="svg2"
   version="1.1"
   inkscape:version="0.48.5 r10040"
   width="500"
   height="500"
   viewBox="0 0 499.99999 499.99999"
   sodipodi:docname="alevt.svg">
  <metadata
     id="metadata8">
    <rdf:RDF>
      <cc:Work
         rdf:about="">
        <dc:format>image/svg+xml</dc:format>
        <dc:type
           rdf:resource="http://purl.org/dc/dcmitype/StillImage" />
        <dc:title />
      </cc:Work>
    </rdf:RDF>
  </metadata>
  <defs
     id="defs6" />
  <sodipodi:namedview
     pagecolor="#ffffff"
     bordercolor="#666666"
     borderopacity="1"
     objecttolerance="10"
     gridtolerance="10"
     guidetolerance="10"
     inkscape:pageopacity="0"
     inkscape:pageshadow="2"
     inkscape:window-width="1366"
     inkscape:window-height="716"
     id="namedview4"
     inkscape:document-units="px"
     showgrid="false"
     inkscape:zoom="0.5814296"
     inkscape:cx="-114.29969"
     inkscape:cy="239.98825"
     inkscape:window-x="0"
     inkscape:window-y="0"
     inkscape:window-maximized="1"
     inkscape:current-layer="svg2" />
  <path
     style="fill:#45d03f;fill-opacity:1;stroke:#45d03f;stroke-width:4.46611834000000041;stroke-linecap:butt;stroke-linejoin:miter;stroke-miterlimit:4;stroke-opacity:1;stroke-dasharray:none"
     d="m 247.79655,472.76693 c 0,0 57.77596,-27.86402 102.37824,-76.25846 49.55348,-53.76659 86.22123,-131.29963 81.01212,-190.66571 C 425.97781,146.47668 379.82805,29.12466 244.91608,27.2532 110.00411,25.38174 69.696456,154.47661 67.286672,205.84276 64.876889,257.2089 94.724717,333.41881 137.34922,384.6173 c 48.37784,58.10914 110.44733,88.14963 110.44733,88.14963 z"
     id="path3001"
     inkscape:connector-curvature="0"
     sodipodi:nodetypes="cszzzsc" />
  <path
     style="fill:#2d5016;stroke:none;stroke-width:2.23305917000000020px;stroke-linecap:butt;stroke-linejoin:miter;stroke-opacity:1"
     d="m 275.37152,284.33405 c 0,0 19.92818,-59.18165 43.68722,-74.89241 23.75903,-15.71075 67.33124,-17.02667 83.53383,-10.56174 16.20259,6.46493 13.5887,12.77361 12.96215,15.84262 -0.62655,3.069 -3.54978,7.53099 -8.24845,8.25039 -4.69867,0.7194 -14.93658,-7.80776 -14.93658,-7.80776"
     id="path3811-3"
     inkscape:connector-curvature="0"
     sodipodi:nodetypes="czzzzc" />
  <path
     style="fill:none;stroke:#2d5016;stroke-width:20;stroke-linecap:butt;stroke-linejoin:miter;stroke-miterlimit:4;stroke-opacity:1;stroke-dasharray:none"
     d="m 268.34648,293.26545 c 0,0 11.11851,-92.17901 38.88643,-120.98 27.7679,-28.80099 54.38851,-9.55915 73.45212,-20.64343 19.06362,-11.08428 25.84434,-19.45128 25.84434,-19.45128"
     id="path3791-6"
     inkscape:connector-curvature="0"
     sodipodi:nodetypes="czzc" />
  <path
     style="fill:#2d5016;stroke:none;stroke-width:2.23305917000000020px;stroke-linecap:butt;stroke-linejoin:miter;stroke-opacity:1"
     d="m 274.69267,293.50605 c 0,0 44.43199,15.97013 67.55402,10.86296 23.12203,-5.10716 46.5276,-21.38031 59.06732,-39.71766 12.53972,-18.33736 12.0852,-35.42697 12.0852,-35.42697 l -17.33695,-11.33304"
     id="path3869-5"
     inkscape:connector-curvature="0"
     sodipodi:nodetypes="czzcc" />
  <path
     style="fill:#ffffff;stroke:none"
     d="m 275.53467,290.50147 c 0,0 45.42733,17.22883 82.09358,-0.48006 36.66625,-17.7089 37.92628,-76.81273 37.92628,-76.81273 0,0 -54.03039,2.46177 -75.37247,16.3227 -21.34209,13.86094 -44.64739,60.97009 -44.64739,60.97009 z"
     id="path3003"
     inkscape:connector-curvature="0"
     sodipodi:nodetypes="czczc" />
  <path
     style="fill:#2d5016;stroke:none;stroke-width:2.23305917000000020px;stroke-linecap:butt;stroke-linejoin:miter;stroke-opacity:1"
     d="m 223.4366,294.80232 c 0,0 -44.43199,15.97012 -67.55402,10.86296 C 132.76055,300.55812 109.35498,284.28497 96.815263,265.9476 84.275541,247.61023 84.730058,230.52063 84.730058,230.52063 l 17.336962,-11.33304"
     id="path3869"
     inkscape:connector-curvature="0"
     sodipodi:nodetypes="czzcc" />
  <path
     style="fill:#2d5016;stroke:none;stroke-width:2.23305917000000020px;stroke-linecap:butt;stroke-linejoin:miter;stroke-opacity:1"
     d="m 221.96066,285.89371 c 0,0 -19.92818,-59.18165 -43.68722,-74.89241 -23.75903,-15.71075 -67.33124,-17.02667 -83.533828,-10.56174 -16.202587,6.46493 -13.588701,12.77361 -12.96215,15.84261 0.626552,3.06901 3.549783,7.531 8.248452,8.2504 4.698669,0.7194 14.936576,-7.80776 14.936576,-7.80776"
     id="path3811"
     inkscape:connector-curvature="0"
     sodipodi:nodetypes="czzzzc" />
  <path
     style="fill:none;stroke:#2d5016;stroke-width:20;stroke-linecap:butt;stroke-linejoin:miter;stroke-miterlimit:4;stroke-opacity:1;stroke-dasharray:none"
     d="m 230.27587,294.24157 c 0,0 -11.11852,-92.17901 -38.88643,-120.98 -27.76792,-28.80099 -54.38853,-9.55915 -73.45214,-20.64343 -19.063626,-11.08428 -24.62819,-19.6033 -24.62819,-19.6033"
     id="path3791"
     inkscape:connector-curvature="0"
     sodipodi:nodetypes="czzc" />
  <path
     style="fill:#ffffff;stroke:none"
     d="m 222.96305,291.09491 c 0,0 -45.42732,17.22883 -82.09357,-0.48007 -36.66625,-17.70889 -37.92628,-76.81272 -37.92628,-76.81272 0,0 54.03039,2.46177 75.37247,16.3227 21.34208,13.86093 44.64738,60.97009 44.64738,60.97009 z"
     id="path3003-3"
     inkscape:connector-curvature="0"
     sodipodi:nodetypes="czczc" />
  <path
     style="fill:none;stroke:#2d5016;stroke-width:4.9999999;stroke-linecap:butt;stroke-linejoin:miter;stroke-opacity:1;stroke-miterlimit:4;stroke-dasharray:none"
     d="m 219.95193,270.65348 c 0,0 -17.94774,-62.08291 -59.52985,-78.25296 -41.58211,-16.17005 -88.334599,3.36056 -88.334599,3.36056"
     id="path3831"
     inkscape:connector-curvature="0"
     sodipodi:nodetypes="czc" />
  <path
     style="fill:none;stroke:#2d5016;stroke-width:4.9999999;stroke-linecap:butt;stroke-linejoin:miter;stroke-opacity:1;stroke-miterlimit:4;stroke-dasharray:none"
     d="m 276.60134,268.33664 c 0,0 17.94774,-62.08291 59.52985,-78.25296 41.58211,-16.17005 88.3346,3.36055 88.3346,3.36055"
     id="path3831-5"
     inkscape:connector-curvature="0"
     sodipodi:nodetypes="czc" />
  <path
     style="fill:none;stroke:#2d5016;stroke-width:4.99999989999999972;stroke-linecap:butt;stroke-linejoin:miter;stroke-opacity:1;stroke-miterlimit:4;stroke-dasharray:none"
     d="m 206.68962,415.78836 c 0,0 -11.18307,-8.65786 -15.27602,-24.44166 -4.09295,-15.78379 -0.33947,-29.53368 -0.33947,-29.53368"
     id="path3889"
     inkscape:connector-curvature="0"
     sodipodi:nodetypes="czc" />
  <path
     style="fill:none;stroke:#2d5016;stroke-width:4.99999989999999972;stroke-linecap:butt;stroke-linejoin:miter;stroke-opacity:1;stroke-miterlimit:4;stroke-dasharray:none"
     d="m 205.61203,393.69982 c 0,0 -6.644,-12.48505 -3.89781,-28.55799 2.74622,-16.07291 11.8126,-27.07057 11.8126,-27.07057"
     id="path3889-6"
     inkscape:connector-curvature="0"
     sodipodi:nodetypes="czc" />
  <path
     style="fill:none;stroke:#2d5016;stroke-width:4.99999989999999972;stroke-linecap:butt;stroke-linejoin:miter;stroke-opacity:1;stroke-miterlimit:4;stroke-dasharray:none"
     d="m 285.2836,414.51065 c 0,0 11.18305,-8.65786 15.276,-24.44166 4.09295,-15.7838 0.33947,-29.53368 0.33947,-29.53368"
     id="path3889-2"
     inkscape:connector-curvature="0"
     sodipodi:nodetypes="czc" />
  <path
     style="fill:none;stroke:#2d5016;stroke-width:4.99999989999999972;stroke-linecap:butt;stroke-linejoin:miter;stroke-opacity:1;stroke-miterlimit:4;stroke-dasharray:none"
     d="m 285.93119,393.28206 c 0,0 6.644,-12.48505 3.89781,-28.55799 -2.74622,-16.07291 -11.81257,-27.07057 -11.81257,-27.07057"
     id="path3889-6-9"
     inkscape:connector-curvature="0"
     sodipodi:nodetypes="czc" />
  <path
     style="fill:none;stroke:#2d5016;stroke-width:2.23305917000000020px;stroke-linecap:butt;stroke-linejoin:miter;stroke-opacity:1"
     d="m 227.63323,395.47414 c 0,0 9.44546,1.95674 17.85032,2.00268 8.40483,0.046 18.63572,-2.48276 18.63572,-2.48276"
     id="path3930"
     inkscape:connector-curvature="0"
     sodipodi:nodetypes="czc" />
  <path
     style="fill:none;stroke:#2d5016;stroke-width:2.23305917000000020px;stroke-linecap:butt;stroke-linejoin:miter;stroke-opacity:1"
     d="m 254.66986,409.56176 c 0,0 -2.4864,-2.97509 -10.04256,-3.02109 -7.55616,-0.046 -9.47011,3.33144 -9.47011,3.33144"
     id="path3930-1"
     inkscape:connector-curvature="0"
     sodipodi:nodetypes="czc" />
  <path
     sodipodi:type="arc"
     style="fill:#2d5016;fill-opacity:1;stroke:#2d5016;stroke-width:2;stroke-linecap:round;stroke-linejoin:round;stroke-miterlimit:4;stroke-opacity:1;stroke-dasharray:none"
     id="path3950"
     sodipodi:cx="497.10214"
     sodipodi:cy="318.78384"
     sodipodi:rx="2.4323041"
     sodipodi:ry="2.5843232"
     d="m 499.53445,318.78384 a 2.4323041,2.5843232 0 1 1 -4.86461,0 2.4323041,2.5843232 0 1 1 4.86461,0 z"
     transform="matrix(2.2330592,0,0,2.2330592,-980.31489,-368.17755)" />
  <path
     sodipodi:type="arc"
     style="fill:#2d5016;fill-opacity:1;stroke:#2d5016;stroke-width:2;stroke-linecap:round;stroke-linejoin:round;stroke-miterlimit:4;stroke-opacity:1;stroke-dasharray:none"
     id="path3950-2"
     sodipodi:cx="497.10214"
     sodipodi:cy="318.78384"
     sodipodi:rx="2.4323041"
     sodipodi:ry="2.5843232"
     d="m 499.53445,318.78384 a 2.4323041,2.5843232 0 1 1 -4.86461,0 2.4323041,2.5843232 0 1 1 4.86461,0 z"
     transform="matrix(2.2330592,0,0,2.2330592,-968.09408,-350.52525)" />
  <path
     sodipodi:type="arc"
     style="fill:#2d5016;fill-opacity:1;stroke:#2d5016;stroke-width:2;stroke-linecap:round;stroke-linejoin:round;stroke-miterlimit:4;stroke-opacity:1;stroke-dasharray:none"
     id="path3950-7"
     sodipodi:cx="497.10214"
     sodipodi:cy="318.78384"
     sodipodi:rx="2.4323041"
     sodipodi:ry="2.5843232"
     d="m 499.53445,318.78384 a 2.4323041,2.5843232 0 1 1 -4.86461,0 2.4323041,2.5843232 0 1 1 4.86461,0 z"
     transform="matrix(2.2330592,0,0,2.2330592,-954.85485,-332.87295)" />
  <path
     sodipodi:type="arc"
     style="fill:#2d5016;fill-opacity:1;stroke:#2d5016;stroke-width:2;stroke-linecap:round;stroke-linejoin:round;stroke-miterlimit:4;stroke-opacity:1;stroke-dasharray:none"
     id="path3950-0"
     sodipodi:cx="497.10214"
     sodipodi:cy="318.78384"
     sodipodi:rx="2.4323041"
     sodipodi:ry="2.5843232"
     d="m 499.53445,318.78384 a 2.4323041,2.5843232 0 1 1 -4.86461,0 2.4323041,2.5843232 0 1 1 4.86461,0 z"
     transform="matrix(-2.2330592,0,0,2.2330592,1479.9752,-365.46181)" />
  <path
     sodipodi:type="arc"
     style="fill:#2d5016;fill-opacity:1;stroke:#2d5016;stroke-width:2;stroke-linecap:round;stroke-linejoin:round;stroke-miterlimit:4;stroke-opacity:1;stroke-dasharray:none"
     id="path3950-2-9"
     sodipodi:cx="497.10214"
     sodipodi:cy="318.78384"
     sodipodi:rx="2.4323041"
     sodipodi:ry="2.5843232"
     d="m 499.53445,318.78384 a 2.4323041,2.5843232 0 1 1 -4.86461,0 2.4323041,2.5843232 0 1 1 4.86461,0 z"
     transform="matrix(-2.2330592,0,0,2.2330592,1467.7544,-347.80952)" />
  <path
     sodipodi:type="arc"
     style="fill:#2d5016;fill-opacity:1;stroke:#2d5016;stroke-width:2;stroke-linecap:round;stroke-linejoin:round;stroke-miterlimit:4;stroke-opacity:1;stroke-dasharray:none"
     id="path3950-7-3"
     sodipodi:cx="497.10214"
     sodipodi:cy="318.78384"
     sodipodi:rx="2.4323041"
     sodipodi:ry="2.5843232"
     d="m 499.53445,318.78384 a 2.4323041,2.5843232 0 1 1 -4.86461,0 2.4323041,2.5843232 0 1 1 4.86461,0 z"
     transform="matrix(-2.2330592,0,0,2.2330592,1454.5152,-330.15721)" />
  <path
     sodipodi:type="arc"
     style="fill:#2d5016;fill-opacity:1;stroke:#2d5016;stroke-width:2;stroke-linecap:round;stroke-linejoin:round;stroke-miterlimit:4;stroke-opacity:1;stroke-dasharray:none"
     id="path3950-2-0"
     sodipodi:cx="497.10214"
     sodipodi:cy="318.78384"
     sodipodi:rx="2.4323041"
     sodipodi:ry="2.5843232"
     d="m 499.53445,318.78384 a 2.4323041,2.5843232 0 1 1 -4.86461,0 2.4323041,2.5843232 0 1 1 4.86461,0 z"
     transform="matrix(2.2330592,0,0,2.2330592,-934.54304,-656.04527)" />
  <path
     sodipodi:type="arc"
     style="fill:#2d5016;fill-opacity:1;stroke:#2d5016;stroke-width:2;stroke-linecap:round;stroke-linejoin:round;stroke-miterlimit:4;stroke-opacity:1;stroke-dasharray:none"
     id="path3950-7-6"
     sodipodi:cx="497.10214"
     sodipodi:cy="318.78384"
     sodipodi:rx="2.4323041"
     sodipodi:ry="2.5843232"
     d="m 499.53445,318.78384 a 2.4323041,2.5843232 0 1 1 -4.86461,0 2.4323041,2.5843232 0 1 1 4.86461,0 z"
     transform="matrix(1.6638199,0,0,1.6638199,-670.29251,-462.80964)" />
  <path
     sodipodi:type="arc"
     style="fill:#2d5016;fill-opacity:1;stroke:#2d5016;stroke-width:2;stroke-linecap:round;stroke-linejoin:round;stroke-miterlimit:4;stroke-opacity:1;stroke-dasharray:none"
     id="path3950-7-6-2"
     sodipodi:cx="497.10214"
     sodipodi:cy="318.78384"
     sodipodi:rx="2.4323041"
     sodipodi:ry="2.5843232"
     d="m 499.53445,318.78384 a 2.4323041,2.5843232 0 1 1 -4.86461,0 2.4323041,2.5843232 0 1 1 4.86461,0 z"
     transform="matrix(1.6638199,0,0,1.6638199,-632.10061,-482.50228)" />
  <path
     sodipodi:type="arc"
     style="fill:#2d5016;fill-opacity:1;stroke:#2d5016;stroke-width:2;stroke-linecap:round;stroke-linejoin:round;stroke-miterlimit:4;stroke-opacity:1;stroke-dasharray:none"
     id="path3950-7-6-2-6"
     sodipodi:cx="497.10214"
     sodipodi:cy="318.78384"
     sodipodi:rx="2.4323041"
     sodipodi:ry="2.5843232"
     d="m 499.53445,318.78384 a 2.4323041,2.5843232 0 1 1 -4.86461,0 2.4323041,2.5843232 0 1 1 4.86461,0 z"
     transform="matrix(1.1950346,0,0,1.1950346,-381.71231,-339.06209)" />
  <path
     sodipodi:type="arc"
     style="fill:#2d5016;fill-opacity:1;stroke:#2d5016;stroke-width:2;stroke-linecap:round;stroke-linejoin:round;stroke-miterlimit:4;stroke-opacity:1;stroke-dasharray:none"
     id="path3950-7-6-2-6-1"
     sodipodi:cx="497.10214"
     sodipodi:cy="318.78384"
     sodipodi:rx="2.4323041"
     sodipodi:ry="2.5843232"
     d="m 499.53445,318.78384 a 2.4323041,2.5843232 0 1 1 -4.86461,0 2.4323041,2.5843232 0 1 1 4.86461,0 z"
     transform="matrix(1.1950346,0,0,1.1950346,-452.35525,-300.89577)" />
  <path
     sodipodi:type="arc"
     style="fill:#2d5016;fill-opacity:1;stroke:#2d5016;stroke-width:2;stroke-linecap:round;stroke-linejoin:round;stroke-miterlimit:4;stroke-opacity:1;stroke-dasharray:none"
     id="path3950-2-0-8"
     sodipodi:cx="497.10214"
     sodipodi:cy="318.78384"
     sodipodi:rx="2.4323041"
     sodipodi:ry="2.5843232"
     d="m 499.53445,318.78384 a 2.4323041,2.5843232 0 1 1 -4.86461,0 2.4323041,2.5843232 0 1 1 4.86461,0 z"
     transform="matrix(-2.2330592,0,0,2.2330592,1434.2525,-649.44417)" />
  <path
     sodipodi:type="arc"
     style="fill:#2d5016;fill-opacity:1;stroke:#2d5016;stroke-width:2;stroke-linecap:round;stroke-linejoin:round;stroke-miterlimit:4;stroke-opacity:1;stroke-dasharray:none"
     id="path3950-7-6-7"
     sodipodi:cx="497.10214"
     sodipodi:cy="318.78384"
     sodipodi:rx="2.4323041"
     sodipodi:ry="2.5843232"
     d="m 499.53445,318.78384 a 2.4323041,2.5843232 0 1 1 -4.86461,0 2.4323041,2.5843232 0 1 1 4.86461,0 z"
     transform="matrix(-1.6638199,0,0,1.6638199,1170.0019,-456.20856)" />
  <path
     sodipodi:type="arc"
     style="fill:#2d5016;fill-opacity:1;stroke:#2d5016;stroke-width:2;stroke-linecap:round;stroke-linejoin:round;stroke-miterlimit:4;stroke-opacity:1;stroke-dasharray:none"
     id="path3950-7-6-2-9"
     sodipodi:cx="497.10214"
     sodipodi:cy="318.78384"
     sodipodi:rx="2.4323041"
     sodipodi:ry="2.5843232"
     d="m 499.53445,318.78384 a 2.4323041,2.5843232 0 1 1 -4.86461,0 2.4323041,2.5843232 0 1 1 4.86461,0 z"
     transform="matrix(-1.6638199,0,0,1.6638199,1131.81,-475.90119)" />
  <path
     sodipodi:type="arc"
     style="fill:#2d5016;fill-opacity:1;stroke:#2d5016;stroke-width:2;stroke-linecap:round;stroke-linejoin:round;stroke-miterlimit:4;stroke-opacity:1;stroke-dasharray:none"
     id="path3950-7-6-2-6-2"
     sodipodi:cx="497.10214"
     sodipodi:cy="318.78384"
     sodipodi:rx="2.4323041"
     sodipodi:ry="2.5843232"
     d="m 499.53445,318.78384 a 2.4323041,2.5843232 0 1 1 -4.86461,0 2.4323041,2.5843232 0 1 1 4.86461,0 z"
     transform="matrix(-1.1950346,0,0,1.1950346,881.42174,-332.46099)" />
  <path
     sodipodi:type="arc"
     style="fill:#2d5016;fill-opacity:1;stroke:#2d5016;stroke-width:2;stroke-linecap:round;stroke-linejoin:round;stroke-miterlimit:4;stroke-opacity:1;stroke-dasharray:none"
     id="path3950-7-6-2-6-1-0"
     sodipodi:cx="497.10214"
     sodipodi:cy="318.78384"
     sodipodi:rx="2.4323041"
     sodipodi:ry="2.5843232"
     d="m 499.53445,318.78384 a 2.4323041,2.5843232 0 1 1 -4.86461,0 2.4323041,2.5843232 0 1 1 4.86461,0 z"
     transform="matrix(-1.1950346,0,0,1.1950346,952.06468,-294.29468)" />
</svg>
