<?xml version="1.0" encoding="UTF-8" standalone="no"?>
<!-- Created with Inkscape (http://www.inkscape.org/) -->

<svg
   xmlns:osb="http://www.openswatchbook.org/uri/2009/osb"
   xmlns:dc="http://purl.org/dc/elements/1.1/"
   xmlns:cc="http://creativecommons.org/ns#"
   xmlns:rdf="http://www.w3.org/1999/02/22-rdf-syntax-ns#"
   xmlns:svg="http://www.w3.org/2000/svg"
   xmlns="http://www.w3.org/2000/svg"
   xmlns:sodipodi="http://sodipodi.sourceforge.net/DTD/sodipodi-0.dtd"
   xmlns:inkscape="http://www.inkscape.org/namespaces/inkscape"
   width="512"
   height="512"
   id="svg859"
   version="1.1"
   inkscape:version="0.91 r13725"
   sodipodi:docname="application-x-remote-connection.svg"
   viewBox="0 0 512 512">
  <defs
     id="defs861">
    <linearGradient
       id="linearGradient4241"
       osb:paint="solid">
      <stop
         style="stop-color:#ba174e;stop-opacity:1;"
         offset="0"
         id="stop4243" />
    </linearGradient>
  </defs>
  <sodipodi:namedview
     id="base"
     pagecolor="#ffffff"
     bordercolor="#666666"
     borderopacity="1.0"
     inkscape:pageopacity="0.0"
     inkscape:pageshadow="2"
     inkscape:zoom="0.27655885"
     inkscape:cx="279.07116"
     inkscape:cy="599.84917"
     inkscape:document-units="px"
     inkscape:current-layer="layer1"
     showgrid="false"
     width="0px"
     height="0px"
     fit-margin-top="0"
     fit-margin-left="0"
     fit-margin-right="0"
     fit-margin-bottom="0"
     inkscape:window-width="1366"
     inkscape:window-height="715"
     inkscape:window-x="0"
     inkscape:window-y="24"
     inkscape:window-maximized="1" />
  <metadata
     id="metadata864">
    <rdf:RDF>
      <cc:Work
         rdf:about="">
        <dc:format>image/svg+xml</dc:format>
        <dc:type
           rdf:resource="http://purl.org/dc/dcmitype/StillImage" />
        <dc:title />
      </cc:Work>
    </rdf:RDF>
  </metadata>
  <g
     inkscape:label="Capa 1"
     inkscape:groupmode="layer"
     id="layer1"
     transform="translate(0,-540.3622)">
    <g
       id="g4263">
      <ellipse
         ry="9.559226"
         rx="9.7581339"
         cy="678.3952"
         cx="325.30521"
         id="path3317"
         style="fill:none;stroke:none;stroke-width:7.27176142" />
      <rect
         y="666.9483"
         x="366.293"
         height="22.887094"
         width="23.34787"
         id="rect825-5"
         style="fill:#ffffff;fill-opacity:1;stroke:none;stroke-width:3.6536231" />
      <rect
         style="fill:#ffffff;fill-opacity:1;stroke:none;stroke-width:3.6536231"
         id="rect827-8"
         width="23.34787"
         height="22.887094"
         x="409.14362"
         y="666.9483" />
      <ellipse
         ry="19.118452"
         rx="19.516268"
         cy="678.39386"
         cx="451.9808"
         id="path3303-0"
         style="fill:none;stroke:none;stroke-width:7.27176142" />
      <ellipse
         ry="9.559226"
         rx="9.7581339"
         cy="678.39386"
         cx="399.38553"
         style="fill:none;stroke:none;stroke-width:7.27176142"
         id="path3305-6" />
      <ellipse
         ry="9.559226"
         rx="9.7581339"
         cy="678.39386"
         cx="356.53491"
         id="path3307-6"
         style="fill:none;stroke:none;stroke-width:7.27176142" />
      <rect
         style="fill:#ffffff;fill-opacity:1;stroke:none;stroke-width:3.6536231"
         id="rect3309-5"
         width="23.34787"
         height="22.887094"
         x="323.44244"
         y="666.9483" />
      <ellipse
         ry="9.559226"
         rx="9.7581339"
         cy="821.77789"
         cx="481.24185"
         id="path3317-2"
         style="fill:none;stroke:none;stroke-width:7.27176142" />
      <rect
         y="655.68237"
         x="35.623314"
         height="336.67444"
         width="435.69644"
         id="rect907-4"
         style="fill:#f03916;fill-opacity:1;stroke:none;stroke-width:7.45818853" />
      <rect
         style="fill:#394050;fill-opacity:1;stroke:none;stroke-width:7.45818853"
         id="rect920-4"
         width="435.69632"
         height="39.608772"
         x="35.623314"
         y="650.56879" />
      <path
         id="rect825-50"
         d="m 320.97515,658.51808 0,23.70947 23.70945,0 0,-23.70947 -23.70945,0 z m 43.5135,0 0,23.70947 23.70946,0 0,-23.70947 -23.70946,0 z m 43.51353,0 0,23.70947 23.70946,0 0,-23.70947 -23.70946,0 z"
         style="fill:#ffffff;fill-opacity:1;stroke:none;stroke-width:7.45818853"
         inkscape:connector-curvature="0" />
      <path
         inkscape:connector-curvature="0"
         id="path4247"
         d="m 352.94054,759.46976 59.00912,59.00907 29.38967,-28.01209 -59.009,-58.32023 z"
         style="fill:#ffffff;stroke:none" />
      <rect
         ry="8.7959175"
         rx="9.1919699"
         y="712.49988"
         x="164.45551"
         height="107.48026"
         width="134.7562"
         id="rect3356"
         style="fill:#394050;fill-opacity:1;stroke:none" />
      <path
         inkscape:connector-curvature="0"
         id="path3358"
         d="m 179.6565,809.46494 -3.08477,-3.16594 0.0811,-20.61934 2.92244,-1.38003 -0.16234,-16.07333 -2.84125,-1.5424 0.0811,-16.1545 2.92243,-2.76007 21.91819,0 0.56823,-11.85207 11.28381,0.16237 1.21769,-11.6085 35.06907,-0.16237 1.5424,11.85206 10.95909,-0.0811 0.89295,11.77089 21.67462,-0.16237 3.00347,3.00361 0.16243,16.23569 -3.00363,1.29884 0.081,15.94451 3.21447,0.57403 -0.45916,20.66465 -2.64049,3.55892 z"
         style="fill:#ffffff;stroke:none" />
      <rect
         ry="0"
         rx="3.0847759"
         y="779.80835"
         x="199.32375"
         height="29.548944"
         width="6.1695518"
         id="rect4128"
         style="fill:#d4aa00;fill-opacity:1;stroke:none" />
      <rect
         ry="0"
         rx="3.0847759"
         y="779.72455"
         x="211.25412"
         height="29.548944"
         width="6.1695518"
         id="rect4128-1"
         style="fill:#d4aa00;fill-opacity:1;stroke:none" />
      <rect
         ry="0"
         rx="3.0847759"
         y="779.71252"
         x="224.30455"
         height="29.548944"
         width="6.1695518"
         id="rect4128-5"
         style="fill:#d4aa00;fill-opacity:1;stroke:none" />
      <rect
         ry="0"
         rx="3.0847759"
         y="779.66919"
         x="236.23492"
         height="29.548944"
         width="6.1695518"
         id="rect4128-1-9"
         style="fill:#d4aa00;fill-opacity:1;stroke:none" />
      <rect
         transform="matrix(0.70771988,0.70649315,-0.70649315,0.70771988,0,0)"
         ry="0"
         rx="3.0847759"
         y="252.41481"
         x="795.06317"
         height="29.548946"
         width="6.1695518"
         id="rect4128-7"
         style="fill:#d4aa00;fill-opacity:1;stroke:none" />
      <path
         inkscape:connector-curvature="0"
         id="path4192"
         d="m 300.97823,800.75476 75.65819,-75.00887 7.9555,7.95549 -23.86639,23.7041 53.41539,53.74011 24.51584,-23.70409 7.95552,8.28019 -78.28805,78.32211 z"
         style="fill:#e6e6e6;stroke:none" />
      <rect
         transform="matrix(0.70771988,0.70649315,-0.70649315,0.70771988,0,0)"
         ry="0"
         rx="3.0847759"
         y="252.33102"
         x="806.99359"
         height="29.548946"
         width="6.1695518"
         id="rect4128-1-3"
         style="fill:#d4aa00;fill-opacity:1;stroke:none" />
      <path
         sodipodi:nodetypes="czszszszsccccccccccccccccccccccccccccccccccccccccszzzcc"
         inkscape:connector-curvature="0"
         id="path4190"
         d="m 164.55732,783.56903 c 0,0 -18.73932,14.16193 -25.79843,22.97349 -7.05908,8.81156 -13.81346,18.83305 -18.54885,31.04948 -4.32403,11.15515 -5.74027,22.83786 -5.98334,26.74957 -0.24306,3.91172 -0.60749,20.34489 2.32725,30.35956 4.8939,16.70007 14.54197,30.73533 17.805,34.58317 3.26301,3.84783 13.19885,14.51761 21.74071,19.19156 15.40185,8.42742 32.63342,11.06576 38.81839,11.16907 6.18497,0.10353 25.12614,-1.02727 37.196,-7.15784 17.84103,-9.06214 31.15624,-24.2987 31.15624,-24.2987 l 14.44975,14.44976 9.90375,-6.53488 -16.07328,-16.23566 6.16953,-6.12897 17.37217,17.33159 10.02553,-6.53487 -19.11746,-19.03633 6.21008,-6.29134 20.29457,20.3352 10.0255,-6.61603 -22.12104,-21.8776 6.33194,-6.25075 23.17642,23.21705 10.02551,-6.61605 -24.9624,-24.96237 6.33193,-6.33191 25.97716,26.13944 34.98779,-23.05466 7.30618,-9.33551 -82.77303,-82.66748 -9.18435,7.29004 -23.24766,34.9577 26.11782,26.17523 -6.25683,6.142 -25.02714,-24.91239 -6.60123,10.04532 23.30518,23.30513 -6.14203,6.25679 -22.04229,-22.04229 -6.71601,9.93053 20.32023,20.37764 -6.1994,6.429 -19.05739,-19.22961 -6.6012,10.10272 17.50755,17.33535 -6.37161,6.3716 -16.1873,-16.24472 -6.65864,9.9879 14.63748,14.52269 c 0,0 -17.97797,21.9447 -40.62573,24.05826 -20.12511,1.87814 -31.28784,-6.89752 -38.64617,-11.88909 -7.35834,-4.99157 -19.42118,-15.97312 -25.2568,-38.1148 -5.83565,-22.14167 3.68392,-48.20103 11.48035,-60.61632 7.79643,-12.41527 15.19785,-14.63916 15.19785,-14.63916 z"
         style="fill:#b3b3b3;stroke:none" />
      <rect
         ry="0"
         rx="3.0847759"
         y="779.6004"
         x="248.60739"
         height="29.548944"
         width="6.1695518"
         id="rect4128-5-7"
         style="fill:#d4aa00;fill-opacity:1;stroke:none" />
      <rect
         ry="0"
         rx="3.0847759"
         y="779.51654"
         x="260.53778"
         height="29.548944"
         width="6.1695518"
         id="rect4128-1-9-7"
         style="fill:#d4aa00;fill-opacity:1;stroke:none" />
      <rect
         transform="matrix(0.70771988,0.70649315,-0.70649315,0.70771988,0,0)"
         ry="0"
         rx="3.0847759"
         y="252.31902"
         x="820.04395"
         height="29.548946"
         width="6.1695518"
         id="rect4128-5-6"
         style="fill:#d4aa00;fill-opacity:1;stroke:none" />
      <rect
         transform="matrix(0.70771988,0.70649315,-0.70649315,0.70771988,0,0)"
         ry="0"
         rx="3.0847759"
         y="252.20692"
         x="844.34686"
         height="29.548946"
         width="6.1695518"
         id="rect4128-5-7-6"
         style="fill:#d4aa00;fill-opacity:1;stroke:none" />
      <rect
         transform="matrix(0.70771988,0.70649315,-0.70649315,0.70771988,0,0)"
         ry="0"
         rx="3.0847759"
         y="252.27574"
         x="831.9743"
         height="29.548946"
         width="6.1695518"
         id="rect4128-1-9-5"
         style="fill:#d4aa00;fill-opacity:1;stroke:none" />
      <path
         inkscape:connector-curvature="0"
         id="path4194"
         d="m 330.64833,853.78835 -12.98863,-12.66384 29.68155,-28.62502 -6.54383,-10.67674 32.14501,-31.91541 29.04534,29.04534 -32.25982,32.145 -10.10267,-6.3142 z"
         style="fill:#999999;stroke:none" />
      <rect
         transform="matrix(0.70771988,0.70649315,-0.70649315,0.70771988,0,0)"
         ry="0"
         rx="3.0847759"
         y="252.12303"
         x="856.27734"
         height="29.548946"
         width="6.1695518"
         id="rect4128-1-9-7-3"
         style="fill:#d4aa00;fill-opacity:1;stroke:none" />
    </g>
  </g>
</svg>
