<?xml version="1.0" encoding="UTF-8" standalone="no"?>
<svg
   xmlns:dc="http://purl.org/dc/elements/1.1/"
   xmlns:cc="http://creativecommons.org/ns#"
   xmlns:rdf="http://www.w3.org/1999/02/22-rdf-syntax-ns#"
   xmlns:svg="http://www.w3.org/2000/svg"
   xmlns="http://www.w3.org/2000/svg"
   xmlns:sodipodi="http://sodipodi.sourceforge.net/DTD/sodipodi-0.dtd"
   xmlns:inkscape="http://www.inkscape.org/namespaces/inkscape"
   viewBox="0 0 511.99999 511.99999"
   height="512"
   width="512"
   version="1.1"
   id="svg2"
   inkscape:version="0.92.1 r15371"
   sodipodi:docname="artha.svg">
  <sodipodi:namedview
     pagecolor="#ffffff"
     bordercolor="#666666"
     borderopacity="1"
     objecttolerance="10"
     gridtolerance="10"
     guidetolerance="10"
     inkscape:pageopacity="0"
     inkscape:pageshadow="2"
     inkscape:window-width="1366"
     inkscape:window-height="714"
     id="namedview18"
     showgrid="false"
     inkscape:zoom="0.57452426"
     inkscape:cx="321.43458"
     inkscape:cy="189.58226"
     inkscape:window-x="0"
     inkscape:window-y="0"
     inkscape:window-maximized="1"
     inkscape:current-layer="svg2" />
  <metadata
     id="metadata8">
    <rdf:RDF>
      <cc:Work
         rdf:about="">
        <dc:format>image/svg+xml</dc:format>
        <dc:type
           rdf:resource="http://purl.org/dc/dcmitype/StillImage" />
        <dc:title />
      </cc:Work>
    </rdf:RDF>
  </metadata>
  <defs
     id="defs6">
    <filter
       height="1.096"
       y="-0.048"
       width="1.096"
       x="-0.048"
       id="filter4329"
       style="color-interpolation-filters:sRGB">
      <feGaussianBlur
         id="feGaussianBlur4331"
         stdDeviation="2.1324205" />
    </filter>
    <filter
       height="1.0327445"
       y="-0.016372267"
       width="1.0399742"
       x="-0.019987123"
       id="filter4376"
       style="color-interpolation-filters:sRGB">
      <feGaussianBlur
         id="feGaussianBlur4378"
         stdDeviation="1.1736058" />
    </filter>
    <filter
       height="1.0570984"
       y="-0.0285492"
       width="1.0632123"
       x="-0.031606145"
       id="filter4436"
       style="color-interpolation-filters:sRGB">
      <feGaussianBlur
         id="feGaussianBlur4438"
         stdDeviation="0.63519096" />
    </filter>
  </defs>
  <g
     id="g909"
     transform="matrix(1.107228,0,0,1.107228,-4.2891217,-3.9674423)">
    <rect
       rx="28.399258"
       ry="32.089348"
       y="37.000042"
       x="67.83326"
       height="405.81046"
       width="343.78052"
       id="rect3003"
       style="fill:#a05a2c;fill-opacity:1;stroke:none" />
    <path
       sodipodi:nodetypes="cccczcczcccczc"
       inkscape:connector-curvature="0"
       id="path3773"
       d="m 86.236788,50.722439 c -2.42733,2.984953 -2.040117,6.926108 -2.040117,6.926108 l 0.07141,337.355123 0.0049,24.7324 c 0,0 -0.159335,3.86824 1.636533,5.88529 1.796014,2.01704 6.072113,2.20625 6.072113,2.20625 l 296.184133,-0.0146 c 0,0 4.96133,0.27252 7.19284,-1.68205 2.23152,-1.95453 2.03624,-6.29883 2.03624,-6.29883 L 396.66642,148.95175 296.14803,48.586284 92.68256,48.218065 c 0,0 -4.018734,-0.478004 -6.446015,2.506706 z"
       style="fill:#ffffff;stroke:none" />
    <path
       sodipodi:nodetypes="czzczzcc"
       inkscape:connector-curvature="0"
       id="path3775"
       d="m 295.95887,48.472126 c 0,0 7.5823,11.843919 11.21022,23.354691 3.62793,11.510773 4.12935,31.710733 4.1104,42.598883 -0.0194,10.88815 -2.24205,22.42045 -2.24205,22.42045 0,0 19.8073,-2.38706 33.07022,-0.9342 13.26288,1.45286 23.976,3.40782 33.44384,6.16567 9.46789,2.75781 21.67313,7.47344 21.67313,7.47344 z"
       style="fill:#cccccc;stroke:none" />
    <circle
       r="17.002188"
       id="path3777"
       style="fill:#394050;fill-opacity:1;stroke:none;stroke-width:5.14158678"
       cx="109.64014"
       cy="82.73304" />
    <path
       sodipodi:nodetypes="cczcczc"
       inkscape:connector-curvature="0"
       id="path3779"
       d="m 48.597345,93.382725 h 61.656245 c 0,0 9.06775,-0.782829 8.8748,-9.715584 -0.19285,-8.932707 -9.34187,-10.089147 -9.34187,-10.089147 l -61.936543,0.373562 c 0,0 -8.022652,1.736458 -7.847141,10.089196 0.175365,8.352737 8.594509,9.34207 8.594509,9.34207 z"
       style="fill:#cccccc;stroke:none" />
    <circle
       r="17.002188"
       id="path3777-3"
       style="fill:#394050;fill-opacity:1;stroke:none;stroke-width:5.14158678"
       cx="110.03224"
       cy="126.31514" />
    <path
       sodipodi:nodetypes="cczcczc"
       inkscape:connector-curvature="0"
       id="path3779-6"
       d="m 48.989367,136.96482 h 61.656243 c 0,0 9.06776,-0.78283 8.87481,-9.71558 -0.19286,-8.93271 -9.34188,-10.08915 -9.34188,-10.08915 l -61.936541,0.37356 c 0,0 -8.022652,1.73646 -7.847141,10.0892 0.175365,8.35274 8.594509,9.34207 8.594509,9.34207 z"
       style="fill:#cccccc;stroke:none" />
    <circle
       r="17.002188"
       id="path3777-7"
       style="fill:#394050;fill-opacity:1;stroke:none;stroke-width:5.14158678"
       cx="110.36464"
       cy="169.52403" />
    <path
       sodipodi:nodetypes="cczcczc"
       inkscape:connector-curvature="0"
       id="path3779-5"
       d="m 49.321784,180.17374 h 61.656246 c 0,0 9.06775,-0.78283 8.8748,-9.71558 -0.19285,-8.93271 -9.34187,-10.08915 -9.34187,-10.08915 l -61.936544,0.37357 c 0,0 -8.022652,1.73645 -7.847141,10.08919 0.175365,8.35274 8.594509,9.34207 8.594509,9.34207 z"
       style="fill:#cccccc;stroke:none" />
    <circle
       r="17.002188"
       id="path3777-3-3"
       style="fill:#394050;fill-opacity:1;stroke:none;stroke-width:5.14158678"
       cx="110.75674"
       cy="213.10625" />
    <path
       sodipodi:nodetypes="cczcczc"
       inkscape:connector-curvature="0"
       id="path3779-6-5"
       d="m 49.713806,223.75584 h 61.656244 c 0,0 9.06776,-0.78283 8.8748,-9.71558 -0.19285,-8.93271 -9.34187,-10.08915 -9.34187,-10.08915 l -61.936542,0.37356 c 0,0 -8.022652,1.73646 -7.847141,10.0892 0.175365,8.35273 8.594509,9.34207 8.594509,9.34207 z"
       style="fill:#cccccc;stroke:none" />
    <circle
       r="17.002188"
       id="path3777-6"
       style="fill:#394050;fill-opacity:1;stroke:none;stroke-width:5.14158678"
       cx="110.56414"
       cy="256.59085" />
    <path
       sodipodi:nodetypes="cczcczc"
       inkscape:connector-curvature="0"
       id="path3779-2"
       d="m 49.521244,267.24054 h 61.656246 c 0,0 9.06775,-0.78283 8.8748,-9.71559 -0.19285,-8.9327 -9.34187,-10.08914 -9.34187,-10.08914 l -61.936544,0.37356 c 0,0 -8.022652,1.73646 -7.847141,10.08919 0.175365,8.35274 8.594509,9.34208 8.594509,9.34208 z"
       style="fill:#cccccc;stroke:none" />
    <circle
       r="17.002188"
       id="path3777-3-9"
       style="fill:#394050;fill-opacity:1;stroke:none;stroke-width:5.14158678"
       cx="110.95624"
       cy="300.17303" />
    <path
       sodipodi:nodetypes="cczcczc"
       inkscape:connector-curvature="0"
       id="path3779-6-1"
       d="m 49.913265,310.82263 h 61.656245 c 0,0 9.06776,-0.78283 8.8748,-9.71558 -0.19285,-8.93271 -9.34187,-10.08915 -9.34187,-10.08915 l -61.936542,0.37357 c 0,0 -8.022652,1.73645 -7.847141,10.08919 0.175365,8.35274 8.594508,9.34207 8.594508,9.34207 z"
       style="fill:#cccccc;stroke:none" />
    <circle
       r="17.002188"
       id="path3777-7-2"
       style="fill:#394050;fill-opacity:1;stroke:none;stroke-width:5.14158678"
       cx="111.28864"
       cy="343.38193" />
    <path
       sodipodi:nodetypes="cczcczc"
       inkscape:connector-curvature="0"
       id="path3779-5-7"
       d="m 50.245683,354.03156 h 61.656247 c 0,0 9.06775,-0.78283 8.8748,-9.71559 -0.19285,-8.9327 -9.34187,-10.08914 -9.34187,-10.08914 l -61.936545,0.37356 c 0,0 -8.022652,1.73646 -7.847141,10.08919 0.175365,8.35274 8.594509,9.34207 8.594509,9.34207 z"
       style="fill:#cccccc;stroke:none" />
    <circle
       r="17.002188"
       id="path3777-3-3-0"
       style="fill:#394050;fill-opacity:1;stroke:none;stroke-width:5.14158678"
       cx="111.68074"
       cy="386.96405" />
    <path
       sodipodi:nodetypes="cczcczc"
       inkscape:connector-curvature="0"
       id="path3779-6-5-9"
       d="m 50.637704,397.61365 h 61.656246 c 0,0 9.06775,-0.78283 8.8748,-9.71558 -0.19285,-8.93271 -9.34187,-10.08915 -9.34187,-10.08915 l -61.936543,0.37356 c 0,0 -8.022652,1.73646 -7.847141,10.0892 0.175365,8.35274 8.594508,9.34207 8.594508,9.34207 z"
       style="fill:#cccccc;stroke:none" />
    <path
       class="fil1"
       d="m 204.63532,207.39942 v -7.47487 l 15.6159,-2.63631 -9.00916,-24.85727 h -42.7622 l -9.5903,24.85727 15.52911,2.63631 v 7.47487 h -41.08083 v -7.47487 l 12.22664,-2.63631 45.83255,-117.13007 h 16.3689 l 43.13778,117.13007 13.15323,2.63631 v 7.47487 H 204.63709 Z M 191.04801,115.9947 h -0.66618 l -17.41243,44.96265 h 34.30222 z"
       id="path13"
       inkscape:connector-curvature="0"
       style="clip-rule:evenodd;fill:#394050;fill-rule:nonzero;stroke-width:0.0058354;image-rendering:optimizeQuality;shape-rendering:geometricPrecision;text-rendering:geometricPrecision" />
    <path
       class="fil1"
       d="m 329.44441,259.2617 c 3.25046,0 6.46047,0.38214 9.63451,1.10839 3.13583,1.33751 4.70263,2.98283 4.70263,4.93182 -0.61143,3.28869 -10.85964,7.18885 -30.70188,11.66224 -11.96783,2.52439 -21.79343,4.39685 -29.59366,5.58134 -2.37155,12.57933 -3.70903,22.71056 -4.01475,30.47263 13.57285,-5.19942 25.92285,-8.1442 36.97352,-8.71742 -0.30572,-2.83004 -0.91714,-5.23745 -1.79605,-7.18864 -0.7643,-1.94898 -1.10825,-3.21238 -1.10825,-3.7856 0,-2.2568 0.95538,-3.36498 2.90655,-3.36498 2.67726,0 5.58154,1.87246 8.71737,5.58156 1.64323,2.40962 2.7537,5.31396 3.36511,8.75547 12.69392,0.87905 23.36248,4.39686 32.04162,10.51338 12.54107,8.67917 18.81048,19.65363 18.81048,32.92074 0,15.10351 -9.40522,28.82928 -28.21795,41.2558 -16.59402,10.7449 -34.56378,16.32647 -53.98791,16.7849 16.55582,-6.27152 30.31973,-13.38167 41.21755,-21.29654 15.82976,-11.47114 23.8975,-23.74464 24.2032,-36.74416 0.30573,-11.31835 -3.36511,-20.22663 -10.97426,-26.649 -6.15477,-4.01471 -13.76393,-6.49867 -22.86344,-7.37992 -1.64322,8.94677 -5.54333,18.12264 -11.66212,27.5683 -5.96369,9.09955 -13.955,17.81699 -23.97391,26.19032 2.56263,4.32057 5.54335,7.9914 8.9849,10.97423 1.9107,2.40984 3.13582,4.47339 3.55615,6.26956 -0.42033,2.98283 -3.55615,4.7025 -9.40523,5.16115 -3.13582,-0.45865 -6.57736,-3.28868 -10.28416,-8.52636 -0.91712,-1.18469 -2.18045,-3.13586 -3.82366,-5.81089 -12.99962,8.06791 -24.05035,12.00612 -33.14985,11.89156 -13.45819,-0.15281 -20.15022,-7.49447 -20.15022,-21.98454 0,-9.25238 4.62621,-18.81041 13.87856,-28.67645 5.81082,-6.26957 13.45821,-12.08264 22.86344,-17.47291 0.2675,-8.64113 1.9107,-20.30314 4.93188,-34.94603 h -3.82366 c -4.05297,0 -8.67916,-0.64973 -13.87856,-1.98723 -7.18882,-1.79597 -10.78321,-4.12929 -10.78321,-6.95953 0,-0.9171 2.48619,-1.33729 7.41808,-1.33729 6.57739,0 14.49224,-0.84081 23.74464,-2.48635 l 6.73019,-30.89283 c 0,-4.47338 -1.14641,-7.99139 -3.36511,-10.55405 -2.10403,-2.06353 -3.1358,-3.55605 -3.1358,-4.47315 0,-1.94899 2.44797,-2.90655 7.37986,-2.90655 2.25689,0 5.61977,2.44788 10.09308,7.3797 4.47335,4.77923 6.76844,8.60288 6.9213,11.4329 -2.06359,4.20579 -4.16763,8.44985 -6.2694,12.77042 -1.49036,3.44149 -3.13582,8.37332 -4.9319,14.79786 2.86832,-0.76429 7.18879,-1.87245 12.99962,-3.36498 17.16725,-4.32056 27.10748,-6.50107 29.82294,-6.50107 z m -63.66065,71.00239 c -5.65796,3.59433 -10.66856,7.87663 -14.98901,12.77041 -7.91488,8.37333 -11.89141,15.82976 -11.89141,22.40473 0,9.29065 3.74724,13.99336 11.20355,14.14618 6.88308,-0.45866 15.90618,-4.77902 27.10746,-12.99975 -0.5732,-1.22273 -2.06356,-4.70248 -4.47332,-10.55163 -3.86189,-9.09958 -6.19297,-17.70224 -6.9595,-25.76994 z m 50.43173,-16.78512 c -11.20355,0.87885 -22.48129,3.74735 -33.83768,8.52636 -0.61143,0.15281 -1.5668,0.49671 -2.90655,1.10818 0.45858,13.45818 3.13582,24.92934 8.06772,34.48735 0,0.15282 0.0764,0.30563 0.22929,0.45867 14.9126,-12.99973 24.39427,-27.87414 28.44722,-44.58274 z"
       id="path11"
       inkscape:connector-curvature="0"
       style="clip-rule:evenodd;fill:#394050;fill-opacity:1;fill-rule:nonzero;stroke-width:0.0074038;image-rendering:optimizeQuality;shape-rendering:geometricPrecision;text-rendering:geometricPrecision" />
  </g>
</svg>
