<?xml version="1.0" encoding="UTF-8" standalone="no"?>
<!-- Created with Inkscape (http://www.inkscape.org/) -->

<svg
   xmlns:dc="http://purl.org/dc/elements/1.1/"
   xmlns:cc="http://creativecommons.org/ns#"
   xmlns:rdf="http://www.w3.org/1999/02/22-rdf-syntax-ns#"
   xmlns:svg="http://www.w3.org/2000/svg"
   xmlns="http://www.w3.org/2000/svg"
   xmlns:sodipodi="http://sodipodi.sourceforge.net/DTD/sodipodi-0.dtd"
   xmlns:inkscape="http://www.inkscape.org/namespaces/inkscape"
   id="svg2"
   version="1.1"
   inkscape:version="0.48.5 r10040"
   width="512"
   height="512"
   sodipodi:docname="bleachbit.svg">
  <metadata
     id="metadata8">
    <rdf:RDF>
      <cc:Work
         rdf:about="">
        <dc:format>image/svg+xml</dc:format>
        <dc:type
           rdf:resource="http://purl.org/dc/dcmitype/StillImage" />
        <dc:title />
      </cc:Work>
    </rdf:RDF>
  </metadata>
  <defs
     id="defs6">
    <clipPath
       clipPathUnits="userSpaceOnUse"
       id="clipPath4136">
      <rect
         style="opacity:1;fill:none;fill-opacity:1;stroke:#000000;stroke-width:5.53685284;stroke-miterlimit:4;stroke-dasharray:none;stroke-dashoffset:0;stroke-opacity:1"
         id="rect4138"
         width="436.23096"
         height="430.96243"
         x="42.223511"
         y="37.72929"
         ry="55.854221" />
    </clipPath>
    <clipPath
       clipPathUnits="userSpaceOnUse"
       id="clipPath4140">
      <rect
         style="opacity:1;fill:none;fill-opacity:1;stroke:#000000;stroke-width:5.53685284;stroke-miterlimit:4;stroke-dasharray:none;stroke-dashoffset:0;stroke-opacity:1"
         id="rect4142"
         width="436.23096"
         height="430.96243"
         x="42.223511"
         y="37.72929"
         ry="55.854221" />
    </clipPath>
  </defs>
  <sodipodi:namedview
     pagecolor="#ffffff"
     bordercolor="#666666"
     borderopacity="1"
     objecttolerance="10"
     gridtolerance="10"
     guidetolerance="10"
     inkscape:pageopacity="0"
     inkscape:pageshadow="2"
     inkscape:window-width="1366"
     inkscape:window-height="716"
     id="namedview4"
     showgrid="false"
     inkscape:zoom="0.5"
     inkscape:cx="550.45205"
     inkscape:cy="231.61855"
     inkscape:window-x="0"
     inkscape:window-y="0"
     inkscape:window-maximized="1"
     inkscape:current-layer="svg2" />
  <g
     id="Calque.__202"
     transform="matrix(0.46092427,0,0,0.4701465,47.484666,10.419553)">
    <g
       id="shape">
      <path
         id="path"
         d="M 919.15,109.8 Q 918.7,89.9 904.5,75.7 C 894.75,65.95 882.95,61.05 869.15,61.05 l -674.2,0 c -13.8,0 -25.6,4.9 -35.35,14.65 -9.45,9.45 -14.35,20.85 -14.65,34.1 l 0,843.25 c 0,13.8 4.9,25.6 14.65,35.35 9.75,9.75 21.55,14.65 35.35,14.65 l 674.2,0 c 13.8,0 25.6,-4.9 35.35,-14.65 9.75,-9.75 14.65,-21.55 14.65,-35.35 l 0,-843.25 z"
         inkscape:connector-curvature="0"
         style="fill:#000000;fill-opacity:0.09803922" />
    </g>
  </g>
  <path
     id="path1"
     d="M 468.11236,44.766547 C 463.52843,40.182615 457.9807,37.8789 451.49267,37.8789 l -316.97276,0 c -6.48802,0 -12.03576,2.303715 -16.61968,6.887647 -4.44289,4.44288 -6.74661,9.802553 -6.88765,16.031991 l 0,-0.01177 0,340.656412 q 0.21533,9.33616 6.88765,16.00848 c 4.58392,4.58393 10.13166,6.88765 16.61968,6.88765 l 316.97276,0 c 6.48803,0 12.03576,-2.30372 16.61969,-6.88765 4.44289,-4.44287 6.7466,-9.77903 6.88764,-16.00848 l 0,-340.656412 0,0.01177 C 474.85896,54.5691 472.55525,49.209427 468.11236,44.766547 z"
     inkscape:connector-curvature="0"
     style="fill:#ebebeb;fill-opacity:1" />
  <path
     id="path2"
     d="m 117.90023,417.45167 q -6.67232,-6.67231 -6.88765,-16.00848 l 0,55.80639 c 0,6.48803 2.30372,12.03574 6.88765,16.61967 4.58392,4.58394 10.13166,6.88764 16.61968,6.88764 l 316.97276,0 c 6.48803,0 12.03576,-2.3037 16.61969,-6.88764 C 472.69629,469.28532 475,463.73761 475,457.24958 l 0,-55.80639 c -0.14104,6.22945 -2.44475,11.56561 -6.88764,16.00848 -4.58393,4.58394 -10.13166,6.88765 -16.61969,6.88765 l -316.97276,0 c -6.48802,0 -12.03576,-2.30371 -16.61968,-6.88765 z"
     inkscape:connector-curvature="0"
     style="fill:#5d6a7b;fill-opacity:0.98823529" />
  <g
     transform="matrix(0.4701465,0,0,0.4701465,46.147901,10.419553)"
     id="Calque.__204"
     style="fill:#394050">
    <g
       id="Symbole.__2026_1"
       overflow="visible"
       style="fill:#394050;overflow:visible">
      <g
         id="Calque.__208"
         style="fill:#394050">
        <g
           id="shape17"
           style="fill:#394050">
          <path
             inkscape:connector-curvature="0"
             id="path11"
             d="m 518,918 q 0,-8.3 -5.85,-14.15 C 508.25,899.95 503.55,898 498,898 l -302,0 c -5.55,0 -10.25,1.95 -14.15,5.85 -3.9,3.9 -5.85,8.6 -5.85,14.15 l 0,8.2 c 0,5.55 1.95,10.25 5.85,14.15 3.9,3.9 8.6,5.85 14.15,5.85 l 302,0 c 5.55,0 10.25,-1.95 14.15,-5.85 3.9,-3.9 5.85,-8.6 5.85,-14.15 l 0,-8.2 z"
             style="fill:#394050;fill-opacity:1" />
        </g>
      </g>
    </g>
  </g>
  <g
     transform="matrix(0.4701465,0,0,0.4701465,46.147901,10.419553)"
     id="Calque.__205">
    <g
       id="shape6">
      <path
         style="fill:#000000;fill-opacity:0.2"
         inkscape:connector-curvature="0"
         id="path3"
         d="M 849.65,912.15 Q 843.1,905.6 833.8,905.6 c -6.2,0 -11.5,2.2 -15.9,6.55 -4.35,4.4 -6.55,9.7 -6.55,15.9 0,6.2 2.2,11.5 6.55,15.85 4.4,4.4 9.7,6.6 15.9,6.6 6.2,0 11.5,-2.2 15.85,-6.6 4.4,-4.35 6.6,-9.65 6.6,-15.85 0,-6.2 -2.2,-11.5 -6.6,-15.9 z m -64.85,15.9 c 0,-6.2 -2.2,-11.5 -6.6,-15.9 -4.35,-4.35 -9.65,-6.55 -15.85,-6.55 -6.2,0 -11.5,2.2 -15.9,6.55 -4.35,4.4 -6.55,9.7 -6.55,15.9 0,6.2 2.2,11.5 6.55,15.85 4.4,4.4 9.7,6.6 15.9,6.6 6.2,0 11.5,-2.2 15.85,-6.6 4.4,-4.35 6.6,-9.65 6.6,-15.85 z" />
    </g>
  </g>
  <path
     id="path6"
     d="m 376.84896,312.25361 q 37.25909,-37.25911 37.25909,-89.96254 c 0,-35.14345 -12.41185,-65.11528 -37.25909,-89.96252 -24.84724,-24.84724 -54.81909,-37.259118 -89.96254,-37.259118 -35.14344,0 -65.11529,12.411878 -89.96253,37.259118 -24.84725,24.84724 -37.25912,54.81907 -37.25912,89.96252 0,35.14346 12.41187,65.11529 37.25912,89.96254 24.84724,24.84724 54.81909,37.25911 89.96253,37.25911 35.14345,0 65.1153,-12.41187 89.96254,-37.25911 z"
     inkscape:connector-curvature="0"
     style="fill:#ffffff;fill-opacity:0.09803922" />
  <path
     id="path7"
     d="m 435.92286,452.59234 c 2.91491,0 5.40669,-1.03432 7.45182,-3.10296 2.06865,-2.04514 3.10296,-4.53692 3.10296,-7.45183 0,-2.91491 -1.03431,-5.40669 -3.10296,-7.47532 -2.04513,-2.04515 -4.53691,-3.07946 -7.45182,-3.07946 -2.91491,0 -5.40668,1.03431 -7.47533,3.07946 -2.04514,2.06863 -3.07946,4.56041 -3.07946,7.47532 0,2.91491 1.03432,5.40669 3.07946,7.45183 2.06865,2.06864 4.56042,3.10296 7.47533,3.10296 z m -23.03718,-10.55479 c 0,-2.91491 -1.03432,-5.40669 -3.10297,-7.47532 -2.04513,-2.04515 -4.53691,-3.07946 -7.45181,-3.07946 -2.91492,0 -5.40669,1.03431 -7.47534,3.07946 -2.04513,2.06863 -3.07946,4.56041 -3.07946,7.47532 0,2.91491 1.03433,5.40669 3.07946,7.45183 2.06865,2.06864 4.56042,3.10296 7.47534,3.10296 2.9149,0 5.40668,-1.03432 7.45181,-3.10296 2.06865,-2.04514 3.10297,-4.53692 3.10297,-7.45183 z"
     inkscape:connector-curvature="0"
     style="fill:#ffcc00;fill-opacity:1" />
  <g
     id="g3007"
     transform="matrix(1.1103028,0,0,1.1103028,-2.7575697,-26.791692)">
    <path
       sodipodi:nodetypes="cczccc"
       inkscape:connector-curvature="0"
       id="path3924"
       d="m 89.102964,228.60553 -59.03778,-80.95332 c 0,0 -16.31003,-24.44286 9.60476,-38.33301 25.9148,-13.890144 37.80436,12.39217 37.80436,12.39217 l 38.911266,91.68746 z"
       style="fill:#502d16;stroke:none" />
    <path
       sodipodi:nodetypes="czczzzzcczzzzc"
       inkscape:connector-curvature="0"
       id="path3922"
       d="m 143.8874,411.9327 c 0,0 39.46495,-2.86325 66.41412,-14.54786 26.94917,-11.68461 89.18463,-61.35399 89.18463,-61.35399 0,0 -26.0744,-12.37421 -45.54108,-26.56564 -19.46667,-14.19143 -50.47161,-49.30725 -68.31166,-61.35399 -17.84006,-12.04675 -25.34798,-8.55204 -33.52332,-16.44541 -8.17533,-7.89336 -12.29846,-18.22365 -14.54783,-27.19815 -2.24938,-8.97449 0,-24.66809 0,-24.66809 L 50.907644,231.0333 c 0,0 11.06284,5.71062 18.97546,12.65032 7.91262,6.93969 22.38389,19.23114 26.56566,30.36073 4.181766,11.12959 -1.61667,17.35762 0,30.99326 1.61667,13.63563 4.397776,31.75871 12.017776,49.96871 7.62001,18.21001 35.42086,56.92638 35.42086,56.92638 z"
       style="fill:#faec6d;stroke:none" />
    <path
       transform="matrix(1.7890236,0,0,2.5808862,-1319.7531,-328.27936)"
       sodipodi:end="12.560519"
       sodipodi:start="6.2786748"
       d="m 772.99994,178.6703 c 0.0145,2.10557 -2.5761,3.82016 -5.78622,3.82966 -3.21013,0.01 -5.82418,-1.6897 -5.83866,-3.79526 -0.0145,-2.10557 2.5761,-3.82016 5.78622,-3.82966 3.20708,-0.009 5.81985,1.6866 5.83862,3.79015 l -5.8124,0.0223 z"
       sodipodi:ry="3.8125"
       sodipodi:rx="5.8125"
       sodipodi:cy="178.6875"
       sodipodi:cx="767.1875"
       id="path3926"
       style="fill:#ffffff;fill-opacity:1;stroke:none"
       sodipodi:type="arc" />
    <path
       sodipodi:nodetypes="cccczzzzc"
       inkscape:connector-curvature="0"
       id="path3922-6"
       d="m 143.03407,412 c 0,0 39.46495,-2.86324 66.41412,-14.54786 0,0 -119.410326,-188.61276 -118.425576,-190.57366 l -40.9683,24.22213 c 0,0 11.06284,5.71061 18.97546,12.65031 7.91262,6.93969 22.38389,19.23114 26.56566,30.36073 4.18177,11.12959 -1.61667,17.35763 0,30.99326 1.61667,13.63563 4.39778,31.75871 12.017776,49.96872 7.62001,18.21 35.42086,56.92637 35.42086,56.92637 z"
       style="fill:#ffb800;stroke:none" />
    <rect
       transform="matrix(0.82305146,-0.56796681,0.56796681,0.82305146,0,0)"
       ry="12.523165"
       y="254.70369"
       x="-84.1726"
       height="29.370096"
       width="84.254227"
       id="rect3928"
       style="fill:#800000;fill-opacity:1;stroke:none" />
  </g>
</svg>
