<?xml version="1.0" encoding="UTF-8" standalone="no"?>
<svg
   xmlns:dc="http://purl.org/dc/elements/1.1/"
   xmlns:cc="http://creativecommons.org/ns#"
   xmlns:rdf="http://www.w3.org/1999/02/22-rdf-syntax-ns#"
   xmlns:svg="http://www.w3.org/2000/svg"
   xmlns="http://www.w3.org/2000/svg"
   xmlns:sodipodi="http://sodipodi.sourceforge.net/DTD/sodipodi-0.dtd"
   xmlns:inkscape="http://www.inkscape.org/namespaces/inkscape"
   viewBox="0 0 511.99999 511.99999"
   height="512"
   width="512"
   version="1.1"
   id="svg2"
   inkscape:version="0.48.5 r10040"
   sodipodi:docname="blogilo.svg">
  <sodipodi:namedview
     pagecolor="#ffffff"
     bordercolor="#666666"
     borderopacity="1"
     objecttolerance="10"
     gridtolerance="10"
     guidetolerance="10"
     inkscape:pageopacity="0"
     inkscape:pageshadow="2"
     inkscape:window-width="1366"
     inkscape:window-height="716"
     id="namedview18"
     showgrid="false"
     inkscape:zoom="0.40625"
     inkscape:cx="-338.7485"
     inkscape:cy="68.24418"
     inkscape:window-x="0"
     inkscape:window-y="0"
     inkscape:window-maximized="1"
     inkscape:current-layer="svg2" />
  <metadata
     id="metadata8">
    <rdf:RDF>
      <cc:Work
         rdf:about="">
        <dc:format>image/svg+xml</dc:format>
        <dc:type
           rdf:resource="http://purl.org/dc/dcmitype/StillImage" />
        <dc:title />
      </cc:Work>
    </rdf:RDF>
  </metadata>
  <defs
     id="defs6">
    <filter
       height="1.096"
       y="-0.048"
       width="1.096"
       x="-0.048"
       id="filter4329"
       style="color-interpolation-filters:sRGB">
      <feGaussianBlur
         id="feGaussianBlur4331"
         stdDeviation="2.1324205" />
    </filter>
    <filter
       height="1.0327445"
       y="-0.016372267"
       width="1.0399742"
       x="-0.019987123"
       id="filter4376"
       style="color-interpolation-filters:sRGB">
      <feGaussianBlur
         id="feGaussianBlur4378"
         stdDeviation="1.1736058" />
    </filter>
    <filter
       height="1.0570984"
       y="-0.0285492"
       width="1.0632123"
       x="-0.031606145"
       id="filter4436"
       style="color-interpolation-filters:sRGB">
      <feGaussianBlur
         id="feGaussianBlur4438"
         stdDeviation="0.63519096" />
    </filter>
  </defs>
  <rect
     style="fill:#333333;fill-opacity:1;stroke:none"
     id="rect3003"
     width="450"
     height="430.05005"
     x="37"
     y="-465.05005"
     ry="34.213615"
     rx="30.421387"
     transform="matrix(0,1,-1,0,0,0)" />
  <path
     style="fill:#808080;stroke:none"
     d="m 444.98253,112.84226 c -3.12912,-2.24741 -7.26065,-1.88891 -7.26065,-1.88891 l -353.649956,0.0661 -25.927015,0.004 c 0,0 -4.055083,-0.14753 -6.16956,1.51523 -2.114465,1.66291 -2.312815,5.62206 -2.312815,5.62206 l 0.0153,343.74447 c 0,0 -0.285684,4.59361 1.763296,6.65971 2.048936,2.06614 6.603073,1.88533 6.603073,1.88533 l 375.487217,-0.17328 c 0,0 9.22312,0.46902 11.96859,-1.83859 2.74548,-2.3076 2.25908,-9.15656 2.29996,-9.13305 0,0 -0.35061,-338.60992 -0.19201,-340.49532 0,0 0.50109,-3.72087 -2.62777,-5.96825 z"
     id="path3773"
     inkscape:connector-curvature="0"
     sodipodi:nodetypes="cccczcczcczsczc" />
  <path
     style="fill:#e6e6e6;stroke:none"
     d="M 107.08921,97.54991 390.542,98.862193 351.2395,50.115597 147.76993,49.651635 z"
     id="path3009"
     inkscape:connector-curvature="0"
     sodipodi:nodetypes="ccccc" />
  <path
     style="fill:#ffffff"
     d="m 195.3654,399.27695 9.32379,0 9.3238,0 c 0,0 21.19846,0.2013 20.84141,0 l 19.19605,-0.67314 c 10.55782,-0.37025 20.68141,-1.16552 22.49689,-1.76729 12.1671,-4.03302 26.96698,-16.35681 32.01996,-26.66286 7.83086,-15.97178 7.62493,-35.73452 -0.52981,-50.8457 -3.72174,-6.89659 -13.39196,-16.81866 -20.26681,-20.79467 -2.87118,-1.66052 -8.69198,-3.90075 -12.93514,-4.97831 -4.24314,-1.07757 -7.73183,-2.33002 -7.75262,-2.78322 -0.0208,-0.45322 3.05217,-3.62029 6.82879,-7.03793 8.26076,-7.47557 14.229,-16.39053 17.60598,-26.2987 3.78304,-11.0996 3.56575,-27.50776 -0.5117,-38.6388 -8.2923,-22.63718 -27.64588,-37.02801 -53.40929,-39.71375 l -2.7423,-0.28588 -20.84141,0 -9.3238,0 -9.32379,0 -20.84142,0 -39.489,0.54845 -19.03731,0.54846 0,8.77534 0,8.77533 c 12.79736,0.36564 19.50273,0.73128 17.94039,1.09692 l 0,90.49562 0,90.49563 -16.3086,1.53206 0,8.77533 0,8.77534 17.40552,0.11331 39.489,0.54846 z"
     id="path2986"
     inkscape:connector-curvature="0"
     sodipodi:nodetypes="ccccsssssscsssscccccccccccccccccc" />
  <path
     style="fill:#808080"
     d="m 195.60852,380.50685 c -0.43537,-0.43538 -0.79158,-16.45211 -0.79158,-35.59275 0,-30.7222 0.20337,-34.87919 1.73509,-35.46696 2.31907,-0.88992 52.51584,-0.85574 59.05243,0.0402 7.77795,1.06608 17.92112,7.63481 22.78835,14.75775 5.5453,8.11525 8.11019,18.58872 6.44909,26.33417 -2.74156,12.78346 -9.61621,22.00803 -20.37075,27.33399 -5.3919,2.67023 -6.01335,2.72177 -36.77782,3.05065 -17.21128,0.18399 -31.64945,-0.0217 -32.08481,-0.45705 z"
     id="path2984"
     inkscape:connector-curvature="0" />
  <path
     style="fill:#808080"
     d="m 196.17305,276.05722 c -1.08139,-0.68644 -1.32258,-8.94359 -1.09692,-37.5526 l 0.28927,-36.67268 20.84141,0 c 20.76689,0 20.86455,0.0113 27.30666,3.17448 8.20236,4.02742 13.75578,9.58084 17.78321,17.7832 2.79254,5.68737 3.17278,7.65301 3.16038,16.33748 -0.016,11.23201 -2.27214,17.35354 -9.23687,25.06267 -9.28007,10.27192 -17.27704,12.78709 -40.58361,12.76417 -9.39255,-0.009 -17.70113,-0.41275 -18.46353,-0.89672 z"
     id="path2999"
     inkscape:connector-curvature="0" />
  <path
     style="fill:#666666;stroke:none"
     d="m 269.77312,495.52101 40.61317,-35.151 -33.29271,-17.17479 z"
     id="path3868"
     inkscape:connector-curvature="0"
     sodipodi:nodetypes="cccc" />
  <path
     style="fill:#ebebeb;stroke:none"
     d="m 269.73416,495.51669 11.23781,-9.72642 -9.15966,-5.00161 z"
     id="path3868-3"
     inkscape:connector-curvature="0"
     sodipodi:nodetypes="cccc" />
  <path
     style="fill:#394050;fill-opacity:1;stroke:none"
     d="M 277.11845,443.27343 448.26136,147.32326 480.02368,167.12799 309.62814,460.74274 z"
     id="path3888"
     inkscape:connector-curvature="0"
     sodipodi:nodetypes="ccccc" />
  <path
     style="fill:#666666;fill-opacity:1;stroke:none"
     d="m 438.5995,163.9291 22.51386,-39.14243 32.22939,19.80473 -22.32703,38.3017 z"
     id="path3888-6"
     inkscape:connector-curvature="0"
     sodipodi:nodetypes="ccccc" />
  <path
     style="fill:none;stroke:#394050;stroke-width:8;stroke-linecap:butt;stroke-linejoin:miter;stroke-opacity:1;stroke-miterlimit:4;stroke-dasharray:none"
     d="m 429.92092,184.77274 -21.75713,8.70285 -43.51426,75.71482"
     id="path3803"
     inkscape:connector-curvature="0" />
</svg>
