<?xml version="1.0" encoding="UTF-8" standalone="no"?>
<!-- Created with Inkscape (http://www.inkscape.org/) -->

<svg
   xmlns:dc="http://purl.org/dc/elements/1.1/"
   xmlns:cc="http://creativecommons.org/ns#"
   xmlns:rdf="http://www.w3.org/1999/02/22-rdf-syntax-ns#"
   xmlns:svg="http://www.w3.org/2000/svg"
   xmlns="http://www.w3.org/2000/svg"
   xmlns:sodipodi="http://sodipodi.sourceforge.net/DTD/sodipodi-0.dtd"
   xmlns:inkscape="http://www.inkscape.org/namespaces/inkscape"
   width="500"
   height="500"
   id="svg5453"
   version="1.1"
   inkscape:version="0.48.5 r10040"
   sodipodi:docname="bluegriffon.svg">
  <defs
     id="defs5455">
    <linearGradient
       id="linearGradient4085">
      <stop
         style="stop-color:#f1c7c7;stop-opacity:1"
         offset="0"
         id="stop4087" />
      <stop
         style="stop-color:#fef6f6;stop-opacity:1"
         offset="1"
         id="stop4089" />
    </linearGradient>
  </defs>
  <sodipodi:namedview
     id="base"
     pagecolor="#ffffff"
     bordercolor="#666666"
     borderopacity="1.0"
     inkscape:pageopacity="0"
     inkscape:pageshadow="2"
     inkscape:zoom="0.2541165"
     inkscape:cx="1598.6944"
     inkscape:cy="311.42901"
     inkscape:document-units="px"
     inkscape:current-layer="layer1"
     showgrid="false"
     fit-margin-top="0"
     fit-margin-left="0"
     fit-margin-right="0"
     fit-margin-bottom="0"
     inkscape:window-width="1366"
     inkscape:window-height="716"
     inkscape:window-x="0"
     inkscape:window-y="0"
     inkscape:window-maximized="1"
     inkscape:showpageshadow="false"
     borderlayer="true"
     showguides="false"
     inkscape:object-nodes="true"
     inkscape:snap-global="false">
    <inkscape:grid
       type="xygrid"
       id="grid3358"
       empspacing="5"
       visible="true"
       enabled="true"
       snapvisiblegridlinesonly="true" />
  </sodipodi:namedview>
  <metadata
     id="metadata5458">
    <rdf:RDF>
      <cc:Work
         rdf:about="">
        <dc:format>image/svg+xml</dc:format>
        <dc:type
           rdf:resource="http://purl.org/dc/dcmitype/StillImage" />
        <dc:title />
      </cc:Work>
    </rdf:RDF>
  </metadata>
  <g
     inkscape:label="Capa 1"
     inkscape:groupmode="layer"
     id="layer1"
     transform="translate(-384.57143,-47.798)">
    <g
       id="g3818"
       transform="matrix(0.53027367,0,0,0.53027367,-274.32045,-7.4977608)">
      <path
         sodipodi:nodetypes="zzczczccczccczzzczcczczczzczcazcczccczzczczzccczcczcczccczz"
         inkscape:connector-curvature="0"
         id="path2998"
         d="m 1602.3533,804.05864 c -4.6049,-54.12198 20.2984,-129.61715 74.1636,-197.20861 53.8651,-67.59146 151.703,-43.99136 151.703,-43.99136 0,0 11.9443,-51.62987 8.3515,-90.53893 -3.5928,-38.90906 -39.1304,-138.08696 -39.1304,-138.08696 0,0 23.6104,-7.43148 43.1304,3.47827 19.5201,10.90975 38.1739,47.47826 38.1739,47.47826 l 5.1305,-2.08696 -16.3038,-46.51785 c 0,0 12.9601,-7.22208 30.2518,-3.9352 17.2918,3.28688 23.3653,35.17087 23.3653,35.17087 l 4.1812,50.66574 3.9352,21.64362 c 0,0 13.1491,-61.38011 12.0515,-87.80422 -1.0976,-26.42411 -3.6741,-45.33213 -15.2489,-68.37415 -11.5748,-23.04202 -33.4381,-48.87562 -12.3819,-71.93681 21.0562,-23.06118 52.7177,14.38447 52.7177,14.38447 0,0 29.2415,35.4507 32.4655,75.75265 3.2239,40.30195 -19.1842,139.20781 -19.1842,139.20781 l -12.7894,60.01184 c 0,0 27.0048,-72.75423 35.9088,-116.58038 8.9039,-43.82615 1.4757,-99.85578 1.4757,-99.85578 0,0 -9.6401,-43.53062 12.2975,-50.66574 21.9375,-7.13512 39.8439,42.30344 39.8439,42.30344 0,0 15.0653,45.16803 8.3623,86.08256 -6.7029,40.91453 -41.4701,108.09405 -66.4065,148.06201 -24.9365,39.96796 -43.2873,93.95297 -43.2873,93.95297 0,0 56.9711,-89.26432 79.196,-133.7969 22.2248,-44.53258 54.6009,-132.3212 54.6009,-132.3212 0,0 24.1587,36.50515 25.6036,57.40827 2.3221,33.59464 -10.5952,66.68563 -28.0631,97.04845 -17.4678,30.36282 -46.2386,84.11496 -46.2386,84.11496 l 90.0178,-133.7969 c 0,0 20.2666,52.78154 -3.4433,109.69378 -23.71,56.91224 -97.3963,96.90438 -97.3963,96.90438 l 3.9352,7.8704 91.9854,-52.14144 c 0,0 -4.7909,58.47001 -34.6564,85.26244 -29.8656,26.79243 -104.1668,42.75193 -139.9683,47.55066 -35.8015,4.79873 -63.947,20.16792 -63.947,20.16792 0,0 31.6793,4.52616 62.9632,0 31.284,-4.52616 121.4994,-35.90873 121.4994,-35.90873 0,0 -11.0573,39.52313 -37.543,57.1346 -26.4856,17.61147 -75.3605,31.38453 -117.4056,32.21224 -42.0451,0.8277 -64.9309,-15.06988 -64.9309,-15.06988 l -4.919,20.16791 149.0459,-0.9838 c 0,0 -28.0866,24.9387 -62.1832,32.89765 -34.0967,7.95896 -139.0041,-5.35123 -139.0041,-5.35123 l 90.5097,37.38443 c 0,0 -19.3942,24.4588 -53.1253,22.62742 -33.731,-1.83138 -88.542,-41.31964 -88.542,-41.31964 l 33.9411,51.64954 c 0,0 -33.8131,4.73696 -49.19,-5.4109 -15.377,-10.14786 -35.4169,-42.30343 -35.4169,-42.30343 l -4.919,1.9676 17.2165,45.74673 c 0,0 -40.6511,3.66574 -62.0228,-14.30343 -21.3717,-17.96917 -35.7719,-41.59148 -40.3768,-95.71346 z"
         style="fill:#162d50;stroke:none" />
      <path
         sodipodi:nodetypes="cczczcczcczccczccccczczccc"
         inkscape:connector-curvature="0"
         id="path3000"
         d="m 1783.2327,550.47676 -13.7732,-30.98972 c 0,0 -17.7033,20.5981 -36.8925,25.57882 -19.1892,4.98071 -38.3682,-11.31371 -38.3682,-11.31371 0,0 0.088,25.27236 -27.5465,38.36823 -27.6345,13.09586 -74.7688,14.75701 -74.7688,14.75701 l 38.3682,-24.10312 c 0,0 48.8495,-20.04412 -2.9514,-60.50375 -51.8009,-40.45963 -79.1959,8.36231 -79.1959,8.36231 l -9.838,1.4757 c 0,0 -14.5258,-47.73604 11.3137,-63.45515 25.8394,-15.71911 48.2062,12.29751 48.2062,12.29751 l -9.3461,-32.95732 85.0988,-9.83801 c 0,0 -11.6835,-14.90396 8.3623,-35.41683 20.0457,-20.51287 60.9956,-14.26511 60.9956,-14.26511 l 1.4757,9.83801 -37.3844,30.98972 81.6554,-40.33583 -14.757,59.02805 c 0,0 -10.7914,24.82417 -19.1594,32.6095 -8.368,7.78533 -27.5711,13.62913 -27.5711,13.62913 0,0 4.3848,16.47363 26.5626,19.84481 22.1778,3.37118 44.271,23.44242 44.271,23.44242 l 12.2976,29.51403 z"
         style="fill:#162d50;stroke:none" />
      <path
         sodipodi:nodetypes="ccczc"
         inkscape:connector-curvature="0"
         id="path3770"
         d="m 1518.8937,578.29582 129.3698,-35.41683 -2.4595,-21.64361 c 0,0 -35.9165,0.7874 -72.8013,17.21651 -36.8847,16.42911 -54.109,39.84393 -54.109,39.84393 z"
         style="fill:#ff6600;stroke:none" />
      <path
         sodipodi:nodetypes="czczc"
         inkscape:connector-curvature="0"
         id="path3772"
         d="m 1616.2899,456.05858 c 0,0 5.9059,8.95283 17.4625,9.83801 11.5566,0.88518 23.6112,-6.64066 23.6112,-6.64066 0,0 -5.8828,-11.09053 -18.9381,-11.80561 -13.0554,-0.71507 -22.1356,8.60826 -22.1356,8.60826 z"
         style="fill:#ff6600;stroke:none" />
      <path
         sodipodi:nodetypes="zzzczz"
         inkscape:connector-curvature="0"
         id="path3774"
         d="m 1572.3819,836.50374 c 5.5037,0.0277 18.2771,-10.80175 20,-27.65218 1.723,-16.85043 -16.2874,-47.99306 -19.3043,-62.26086 -3.0169,-14.2678 -1.3913,-27.13044 -1.3913,-27.13044 0,0 -28.6524,34.2342 -25.0435,75.13044 3.6089,40.89623 20.2354,41.88537 25.7391,41.91304 z"
         style="fill:#808080;stroke:none" />
      <path
         sodipodi:nodetypes="cczczzczzzzczczczzzzzzcc"
         inkscape:connector-curvature="0"
         id="path3776"
         d="m 1410.9261,647.63433 22.2608,-117.56521 c 0,0 -32.6928,5.1398 -45.913,25.73913 -13.2202,20.59933 -7.6522,93.91304 -7.6522,93.91304 0,0 -21.4996,-52.74428 -39.6522,-54.95652 -18.1525,-2.21224 -30.6277,2.93991 -29.2174,27.13043 1.4104,24.19052 29.2174,18.08696 29.2174,18.08696 0,0 15.7028,37.13645 30.6087,58.43478 14.9059,21.29833 22.9491,78.88199 22.4348,90.43478 -0.5143,11.55279 -9.6468,19.0096 -8.6956,30.08696 0.9511,11.07735 9.2418,23.17592 16.6956,30.95655 7.4538,7.7806 24.5217,14.7826 24.5217,14.7826 0,0 5.2126,-29.10132 4.5218,-47.30437 -0.6908,-18.20305 -10.7826,-60.52174 -10.7826,-60.52174 0,0 33.7392,22.02521 48,38.95653 14.2608,16.93132 45.913,39.65217 45.913,39.65217 0,0 15.5201,8.83721 23.6522,0 8.132,-8.83725 4.1793,-18.07846 -6.2609,-35.47826 -10.4402,-17.3998 -37.3813,-36.67192 -67.4782,-52.86957 -30.097,-16.19765 -38.2467,-30.34097 -39.6522,-55.47826 -1.4055,-25.13728 23.4861,-27.53341 39.6522,-35.65217 16.166,-8.11876 39.5534,-11.63873 37.0434,-30.08696 -2.5099,-18.44823 -48.1739,-20.69565 -48.1739,-20.69565 z"
         style="fill:#502d16;stroke:none" />
      <path
         sodipodi:nodetypes="czczc"
         inkscape:connector-curvature="0"
         id="path3778"
         d="m 1392.3975,863.62408 c 0,0 -17.447,-2.37572 -24.1739,-9.21739 -6.7269,-6.84167 -7.3043,-22.43478 -7.3043,-22.43478 0,0 13.4209,3.5064 19.1304,8.86956 5.7095,5.36316 12.3478,22.78261 12.3478,22.78261 z"
         style="fill:#808080;stroke:none" />
      <path
         sodipodi:nodetypes="czczc"
         inkscape:connector-curvature="0"
         id="path3778-3"
         d="m 1351.6798,555.83872 c 0,0 1.6425,-17.53124 8.1962,-24.53896 6.5537,-7.00773 22.109,-8.23813 22.109,-8.23813 0,0 -2.9409,13.55606 -8.0601,19.48532 -5.1191,5.92925 -22.2451,13.29177 -22.2451,13.29177 z"
         style="fill:#808080;stroke:none" />
      <path
         sodipodi:nodetypes="czczc"
         inkscape:connector-curvature="0"
         id="path3778-3-6"
         d="m 1453.7812,560.25642 c 0,0 27.3283,0.75637 38.9412,10.72163 11.6129,9.96527 15.3349,35.31804 15.3349,35.31804 0,0 -21.3269,-3.32272 -31.1028,-11.05649 -9.7759,-7.73357 -23.1733,-34.98318 -23.1733,-34.98318 z"
         style="fill:#808080;stroke:none" />
      <path
         sodipodi:nodetypes="cczcc"
         inkscape:connector-curvature="0"
         id="path3816"
         d="m 1301.2278,615.68025 4.4271,40.82773 c 0,0 -12.8748,-10.36132 -15.2489,-17.70841 -2.3742,-7.34709 1.9676,-22.87337 1.9676,-22.87337 z"
         style="fill:#808080;stroke:none" />
    </g>
  </g>
</svg>
