<?xml version="1.0" encoding="UTF-8" standalone="no"?>
<!-- Generator: flash2svg, http://dissentgraphics.com/tools/flash2svg -->

<svg
   xmlns:dc="http://purl.org/dc/elements/1.1/"
   xmlns:cc="http://creativecommons.org/ns#"
   xmlns:rdf="http://www.w3.org/1999/02/22-rdf-syntax-ns#"
   xmlns:svg="http://www.w3.org/2000/svg"
   xmlns="http://www.w3.org/2000/svg"
   xmlns:sodipodi="http://sodipodi.sourceforge.net/DTD/sodipodi-0.dtd"
   xmlns:inkscape="http://www.inkscape.org/namespaces/inkscape"
   id="Calibre"
   image-rendering="optimizeSpeed"
   version="1.1"
   x="0px"
   y="0px"
   width="500"
   height="500"
   viewBox="0 0 500 500"
   enable-background="new 0 0 1024 1024"
   inkscape:version="0.48.5 r10040"
   sodipodi:docname="calibre.svg">
  <metadata
     id="metadata53">
    <rdf:RDF>
      <cc:Work
         rdf:about="">
        <dc:format>image/svg+xml</dc:format>
        <dc:type
           rdf:resource="http://purl.org/dc/dcmitype/StillImage" />
      </cc:Work>
    </rdf:RDF>
  </metadata>
  <sodipodi:namedview
     pagecolor="#ffffff"
     bordercolor="#666666"
     borderopacity="1"
     objecttolerance="10"
     gridtolerance="10"
     guidetolerance="10"
     inkscape:pageopacity="0"
     inkscape:pageshadow="2"
     inkscape:window-width="1366"
     inkscape:window-height="716"
     id="namedview51"
     showgrid="false"
     inkscape:zoom="0.32593203"
     inkscape:cx="1012.7067"
     inkscape:cy="492.53533"
     inkscape:window-x="0"
     inkscape:window-y="0"
     inkscape:window-maximized="1"
     inkscape:current-layer="Calibre" />
  <defs
     transform="matrix(1 0 0 1 0 0) "
     id="defs3" />
  <g
     id="Calque.__211"
     transform="matrix(0.58434032,0,0,0.58434032,-47.020754,-52.757732)"
     style="fill:#502d16">
    <g
       id="shape44"
       style="fill:#502d16">
      <path
         id="path31"
         d="m 354,240.1 q 0,-20 -20,-20 l -130.55,0 c -13.35,0 -20,6.65 -20,20 l 0,464.1 c 0,13.35 6.65,20 20,20 l 130.55,0 c 13.35,0 20,-6.65 20,-20 l 0,-464.1 z"
         inkscape:connector-curvature="0"
         style="fill:#502d16;fill-opacity:1" />
    </g>
  </g>
  <g
     id="Symbole.__2039"
     transform="matrix(0.58434032,0,0,0.58434032,-56.528664,-74.942852)">
    <g
       id="shape45">
      <path
         id="path32"
         d="m 307.7,323.4 c -3.9,-3.9 -8.6,-5.85 -14.15,-5.85 l -18,0 c -5.55,0 -10.25,1.95 -14.15,5.85 -3.9,3.9 -5.85,8.6 -5.85,14.15 l 0,18 c 0,5.55 1.95,10.25 5.85,14.15 3.9,3.9 8.6,5.85 14.15,5.85 l 18,0 c 5.55,0 10.25,-1.95 14.15,-5.85 3.9,-3.9 5.85,-8.6 5.85,-14.15 l 0,-18 c 0,-5.55 -1.95,-10.25 -5.85,-14.15 z m 0,116 c -3.9,-3.9 -8.6,-5.85 -14.15,-5.85 l -18,0 c -5.55,0 -10.25,1.95 -14.15,5.85 -3.9,3.9 -5.85,8.6 -5.85,14.15 l 0,18 c 0,5.55 1.95,10.25 5.85,14.15 3.9,3.9 8.6,5.85 14.15,5.85 l 18,0 c 5.55,0 10.25,-1.95 14.15,-5.85 3.9,-3.9 5.85,-8.6 5.85,-14.15 l 0,-18 c 0,-5.55 -1.95,-10.25 -5.85,-14.15 z m 5.85,130.15 c 0,-5.55 -1.95,-10.25 -5.85,-14.15 -3.9,-3.9 -8.6,-5.85 -14.15,-5.85 l -18,0 c -5.55,0 -10.25,1.95 -14.15,5.85 -3.9,3.9 -5.85,8.6 -5.85,14.15 l 0,18 c 0,5.55 1.95,10.25 5.85,14.15 3.9,3.9 8.6,5.85 14.15,5.85 l 18,0 c 5.55,0 10.25,-1.95 14.15,-5.85 3.9,-3.9 5.85,-8.6 5.85,-14.15 l 0,-18 z m 0,116 c 0,-5.55 -1.95,-10.25 -5.85,-14.15 -3.9,-3.9 -8.6,-5.85 -14.15,-5.85 l -18,0 c -5.55,0 -10.25,1.95 -14.15,5.85 -3.9,3.9 -5.85,8.6 -5.85,14.15 l 0,18 c 0,5.55 1.95,10.25 5.85,14.15 3.9,3.9 8.6,5.85 14.15,5.85 l 18,0 c 5.55,0 10.25,-1.95 14.15,-5.85 3.9,-3.9 5.85,-8.6 5.85,-14.15 l 0,-18 z"
         inkscape:connector-curvature="0"
         style="fill:#aa8356;fill-opacity:1" />
    </g>
  </g>
  <g
     id="circle2"
     transform="matrix(0.58434032,0,0,0.58434032,-52.091639,-52.757732)">
    <g
       id="Symbole.__2032_1"
       overflow="visible"
       style="overflow:visible">
      <g
         id="Calque.__212">
        <g
           id="shape46">
          <path
             id="path33"
             d="m 530,332 c 0,-13.35 -6.65,-20 -20,-20 l -126,0 q -20,0 -20,20 l 0,372.2 c 0,13.35 6.65,20 20,20 l 126,0 c 13.35,0 20,-6.65 20,-20 L 530,332 z"
             inkscape:connector-curvature="0"
             style="fill:#5d6a7b;fill-opacity:1" />
        </g>
      </g>
      <g
         id="Calque.__213"
         style="fill:#cccccc">
        <g
           id="shape47"
           style="fill:#cccccc">
          <path
             id="path34"
             d="m 530.5,379.1 0,-26 -166,0 0,26 166,0 z m 0,303 0,-26 -166,0 0,26 166,0 z"
             inkscape:connector-curvature="0"
             style="fill:#cccccc;fill-opacity:1" />
        </g>
      </g>
    </g>
  </g>
  <g
     id="Calque.__205"
     transform="matrix(0.58434032,0,0,0.58434032,-71.741321,-43.883682)">
    <g
       id="Symbole.__2034_1"
       overflow="visible"
       style="overflow:visible">
      <g
         id="Calque.__214">
        <g
           id="shape48">
          <path
             id="path35"
             d="m 809.87,391.327 -6.629,-16.842 c -4.89,-12.423 -13.513,-16.175 -25.936,-11.286 l -83.746,32.964 c -12.422,4.889 -16.174,13.513 -11.285,25.935 l 6.629,16.842 120.967,-47.613 z m 90.571,284.71 c 12.422,-4.889 16.174,-13.513 11.285,-25.935 l -94.531,-240.165 -120.966,47.613 94.53,240.165 c 4.89,12.423 13.513,16.175 25.936,11.286 l 83.746,-32.964 z M 854.042,587.37 c 12.254,5.333 20.868,14.247 25.776,26.716 4.907,12.469 4.681,24.863 -0.651,37.118 -5.332,12.254 -14.247,20.868 -26.716,25.775 -12.469,4.908 -24.863,4.682 -37.117,-0.65 -12.255,-5.332 -20.868,-14.247 -25.776,-26.716 -4.908,-12.469 -4.682,-24.863 0.651,-37.117 5.332,-12.255 14.247,-20.868 26.715,-25.776 12.469,-4.908 24.863,-4.682 37.118,0.65 z"
             inkscape:connector-curvature="0"
             style="fill:#00bbf2;fill-opacity:1" />
          <path
             id="path36"
             d="m 817.195,409.937 -7.325,-18.61 -120.967,47.613 7.326,18.61 120.966,-47.613 z"
             inkscape:connector-curvature="0"
             style="fill:#004455;fill-opacity:1" />
          <path
             id="path37"
             d="m 854.042,587.37 c -12.255,-5.332 -24.649,-5.558 -37.118,-0.65 -12.468,4.908 -21.383,13.521 -26.715,25.776 -5.333,12.254 -5.559,24.648 -0.651,37.117 4.908,12.469 13.521,21.384 25.776,26.716 12.254,5.332 24.648,5.558 37.117,0.65 12.469,-4.907 21.384,-13.521 26.716,-25.775 5.332,-12.255 5.558,-24.649 0.651,-37.118 -4.908,-12.469 -13.522,-21.383 -25.776,-26.716 z"
             inkscape:connector-curvature="0"
             style="fill:#004455;fill-opacity:1" />
        </g>
      </g>
    </g>
  </g>
  <g
     id="Calque.__215"
     transform="matrix(0.58434032,0,0,0.58434032,-56.528664,-52.123872)">
    <g
       id="shape49">
      <path
         id="path38"
         d="m 566.824,253.662 c -4.359,-3.378 -9.267,-4.722 -14.773,-4.024 l -3.968,0.503 q -8.235,1.043 -13.303,7.582 c -3.378,4.359 -4.722,9.267 -4.024,14.773 l 44.774,353.324 43.651,-5.531 -44.774,-353.324 c -0.698,-5.506 -3.224,-9.924 -7.583,-13.303 z"
         inkscape:connector-curvature="0"
         style="fill:#333333;fill-opacity:1" />
      <path
         id="path39"
         d="m 611.917,722.059 c 5.506,-0.697 9.924,-3.223 13.303,-7.582 3.378,-4.359 4.722,-9.267 4.024,-14.773 l -10.063,-79.415 -43.651,5.531 10.063,79.415 c 0.698,5.506 3.224,9.924 7.583,13.303 4.359,3.378 9.267,4.722 14.773,4.024 l 3.968,-0.503 z"
         inkscape:connector-curvature="0"
         style="fill:#8e887b;fill-opacity:1" />
    </g>
  </g>
  <g
     id="Calque.__216"
     transform="matrix(0.58434032,0,0,0.58434032,-64.134992,-48.954572)">
    <g
       id="shape50">
      <path
         id="path40"
         d="m 623.31,255.355 c -4.684,-2.912 -9.705,-3.743 -15.109,-2.482 l -3.896,0.909 q -8.083,1.885 -12.451,8.911 c -2.912,4.685 -3.743,9.705 -2.482,15.11 l 80.919,346.835 42.849,-9.997 -80.918,-346.835 c -1.261,-5.405 -4.228,-9.539 -8.912,-12.451 z"
         inkscape:connector-curvature="0"
         style="fill:#333333;fill-opacity:1" />
      <path
         id="path41"
         d="m 716.395,716.618 c 5.405,-1.261 9.539,-4.227 12.451,-8.911 2.912,-4.685 3.743,-9.705 2.482,-15.11 l -18.188,-77.956 -42.849,9.997 18.187,77.956 c 1.261,5.405 4.228,9.539 8.912,12.451 4.684,2.912 9.705,3.743 15.109,2.482 l 3.896,-0.909 z"
         inkscape:connector-curvature="0"
         style="fill:#8e887b;fill-opacity:1" />
    </g>
  </g>
  <rect
     style="fill:#ae7f3c;fill-opacity:1;stroke:none"
     id="rect3836"
     width="450"
     height="48.406376"
     x="25"
     y="371.59363"
     ry="24.203188" />
</svg>
