<?xml version="1.0" encoding="UTF-8" standalone="no"?>
<!-- Generator: flash2svg, http://dissentgraphics.com/tools/flash2svg -->

<svg
   xmlns:dc="http://purl.org/dc/elements/1.1/"
   xmlns:cc="http://creativecommons.org/ns#"
   xmlns:rdf="http://www.w3.org/1999/02/22-rdf-syntax-ns#"
   xmlns:svg="http://www.w3.org/2000/svg"
   xmlns="http://www.w3.org/2000/svg"
   xmlns:xlink="http://www.w3.org/1999/xlink"
   xmlns:sodipodi="http://sodipodi.sourceforge.net/DTD/sodipodi-0.dtd"
   xmlns:inkscape="http://www.inkscape.org/namespaces/inkscape"
   id="Calibre"
   image-rendering="optimizeSpeed"
   version="1.1"
   x="0px"
   y="0px"
   width="500"
   height="500"
   viewBox="0 0 500 500"
   enable-background="new 0 0 1024 1024"
   inkscape:version="0.48.5 r10040"
   sodipodi:docname="calligraauthor.svg">
  <metadata
     id="metadata53">
    <rdf:RDF>
      <cc:Work
         rdf:about="">
        <dc:format>image/svg+xml</dc:format>
        <dc:type
           rdf:resource="http://purl.org/dc/dcmitype/StillImage" />
      </cc:Work>
    </rdf:RDF>
  </metadata>
  <sodipodi:namedview
     pagecolor="#ffffff"
     bordercolor="#666666"
     borderopacity="1"
     objecttolerance="10"
     gridtolerance="10"
     guidetolerance="10"
     inkscape:pageopacity="0"
     inkscape:pageshadow="2"
     inkscape:window-width="1366"
     inkscape:window-height="716"
     id="namedview51"
     showgrid="false"
     inkscape:zoom="0.65186406"
     inkscape:cx="794.79007"
     inkscape:cy="372.96167"
     inkscape:window-x="0"
     inkscape:window-y="0"
     inkscape:window-maximized="1"
     inkscape:current-layer="Calibre" />
  <defs
     transform="matrix(1 0 0 1 0 0) "
     id="defs3">
    <linearGradient
       id="linearGradient4372-3">
      <stop
         id="stop4374-1"
         offset="0"
         style="stop-color:#ffffff;stop-opacity:0" />
      <stop
         id="stop4376-5"
         offset="1"
         style="stop-color:#ffffff;stop-opacity:0.56640625" />
    </linearGradient>
    <linearGradient
       id="linearGradient4255-0">
      <stop
         style="stop-color:#4587cf;stop-opacity:1;"
         offset="0"
         id="stop4257-7" />
      <stop
         id="stop4277-8"
         offset="0.5"
         style="stop-color:#4ad9ed;stop-opacity:1;" />
      <stop
         style="stop-color:#e7edec;stop-opacity:1;"
         offset="1"
         id="stop4259-9" />
    </linearGradient>
    <linearGradient
       id="linearGradient4330-9">
      <stop
         style="stop-color:#000000;stop-opacity:0.56390977;"
         offset="0"
         id="stop4332-2" />
      <stop
         style="stop-color:#000000;stop-opacity:0;"
         offset="1"
         id="stop4334-6" />
    </linearGradient>
    <linearGradient
       inkscape:collect="always"
       xlink:href="#linearGradient4302-2"
       id="linearGradient4308-8"
       x1="104"
       y1="108"
       x2="110"
       y2="118"
       gradientUnits="userSpaceOnUse"
       gradientTransform="matrix(3.7863226,2.1860344,-2.1860344,3.7863226,394.09069,-201.69839)" />
    <linearGradient
       id="linearGradient4302-2">
      <stop
         style="stop-color:#f28f32;stop-opacity:0.04511278;"
         offset="0"
         id="stop4304-0" />
      <stop
         id="stop4310-0"
         offset="0.5"
         style="stop-color:#df720b;stop-opacity:1;" />
      <stop
         style="stop-color:#473d34;stop-opacity:1;"
         offset="1"
         id="stop4306-3" />
    </linearGradient>
    <linearGradient
       inkscape:collect="always"
       xlink:href="#linearGradient4255-0"
       id="linearGradient3533"
       gradientUnits="userSpaceOnUse"
       gradientTransform="matrix(0.8660254,0.5,-0.5,0.8660254,105.0669,-65.106924)"
       x1="103.69576"
       y1="90.268303"
       x2="60.680538"
       y2="47.283405" />
    <linearGradient
       id="linearGradient4326">
      <stop
         style="stop-color:#4587cf;stop-opacity:1;"
         offset="0"
         id="stop4328" />
      <stop
         id="stop4330"
         offset="0.5"
         style="stop-color:#4ad9ed;stop-opacity:1;" />
      <stop
         style="stop-color:#e7edec;stop-opacity:1;"
         offset="1"
         id="stop4332" />
    </linearGradient>
  </defs>
  <g
     transform="matrix(4.3902439,0,0,4.3902439,404.7561,-74.878057)"
     style="display:inline"
     id="g4272">
    <rect
       ry="6.9531875"
       y="22.750002"
       x="-76.25"
       height="102.5"
       width="83.75"
       id="rect3460"
       style="fill:#333333;fill-opacity:1;stroke:none" />
    <rect
       ry="0"
       y="32.202274"
       x="-66.270187"
       height="74.922836"
       width="62.89035"
       id="rect3460-3"
       style="fill:#ffffff;fill-opacity:1;stroke:none;display:inline" />
    <path
       transform="matrix(0.82781273,0,0,1.170356,-3.5406541,-19.471442)"
       sodipodi:end="12.514349"
       sodipodi:start="6.2321105"
       d="m -3.8985386,116.24778 c 0.2043571,2.82761 -2.8707176,5.23702 -6.8683714,5.38157 -3.997654,0.14454 -7.404057,-2.03051 -7.608414,-4.85812 -0.204357,-2.82761 2.870717,-5.23702 6.868371,-5.38156 3.9949781,-0.14445 7.4000581,2.02769 7.6080608,4.85327 l -7.2380388,0.26657 z"
       sodipodi:ry="5.126524"
       sodipodi:rx="7.2478442"
       sodipodi:cy="116.50951"
       sodipodi:cx="-11.136931"
       id="path3480"
       style="fill:#cccccc;fill-opacity:1;stroke:none"
       sodipodi:type="arc" />
    <path
       transform="matrix(0.55187515,0,0,0.7802373,-6.5760759,25.978821)"
       sodipodi:end="12.514349"
       sodipodi:start="6.2321105"
       d="m -3.8985386,116.24778 c 0.2043571,2.82761 -2.8707176,5.23702 -6.8683714,5.38157 -3.997654,0.14454 -7.404057,-2.03051 -7.608414,-4.85812 -0.204357,-2.82761 2.870717,-5.23702 6.868371,-5.38156 3.9949781,-0.14445 7.4000581,2.02769 7.6080608,4.85327 l -7.2380388,0.26657 z"
       sodipodi:ry="5.126524"
       sodipodi:rx="7.2478442"
       sodipodi:cy="116.50951"
       sodipodi:cx="-11.136931"
       id="path3480-6"
       style="fill:#333333;fill-opacity:1;stroke:none;display:inline"
       sodipodi:type="arc" />
    <rect
       y="51.500004"
       x="1.5"
       height="20.5"
       width="6"
       id="rect3500"
       style="fill:#5d6a7b;fill-opacity:1;stroke:none" />
    <path
       sodipodi:nodetypes="cczzczcczczzccczccccczzc"
       inkscape:connector-curvature="0"
       id="path3502"
       d="m -15.514293,97.768189 -0.363632,-7.763634 c 0,0 -1.206995,2.47055 -2.505885,2.272851 -1.298889,-0.197698 -1.259413,-1.47789 -2.282778,-3.878004 -1.023366,-2.400114 -5.439426,-46.694888 -5.439426,-46.694888 0,0 -8.712122,-1.719686 -11.617182,-0.268963 -2.905059,1.450723 -4.577066,6.393025 -4.577066,6.393025 l 2.230842,-0.152789 c 0,0 2.151064,-3.004791 3.608321,-3.356946 1.457257,-0.352155 3.9139,1.10474 3.9139,1.10474 0,0 -11.334997,31.056383 -15.204997,38.975496 -3.87,7.919113 -3.693787,8.346152 -5.653534,9.492515 -1.959747,1.146361 -2.573108,0.06417 -2.573108,0.06417 l -1.792327,4.101072 4.781792,-0.131384 c 0,0 3.196862,-3.634521 5.530527,-7.607 2.333666,-3.972479 7.663607,-16.550218 7.663607,-16.550218 l 11.876938,-0.02899 -0.220012,-4.439528 -10.273332,0.535519 6.861427,-18.036175 c 0,0 3.628107,37.404847 4.743455,40.21475 1.115348,2.809903 1.336711,5.411746 3.589187,6.590161 2.252477,1.178416 7.703283,-0.835776 7.703283,-0.835776 z"
       style="fill:#ff6600;stroke:none" />
  </g>
  <g
     id="g3863"
     transform="matrix(0.82445471,0,0,0.82445471,-230.53274,18.533723)">
    <path
       sodipodi:nodetypes="sccccccccccscscccccccsccccss"
       inkscape:connector-curvature="0"
       id="path4101-3-22"
       d="m 800.73617,50.201319 c -0.90926,0.131599 -25.3242,10.800234 -38.66548,14.755732 -8.57258,9.014506 -17.66141,17.863223 -25.95916,26.095785 1.89687,8.5853 2.38217,22.943044 0.54651,34.020164 -3.66755,-5.17063 -9.35194,-9.62332 -11.20343,-17.62491 -6.30627,6.1801 -12.80194,15.04372 -14.34585,18.44467 2.28581,6.02261 8.061,21.72372 8.061,21.72372 -0.44608,2.19298 -9.01437,-10.54355 -13.25283,-15.16562 -29.22181,36.95561 -70.24511,103.35671 -91.77575,143.41138 -0.86939,14.33216 -4.79879,13.96972 0.0743,33.80986 -3.17128,-3.75622 -6.42611,-10.56598 -5.53158,-26.28728 -8.72797,17.00529 -2.8234,43.59997 -3.16473,40.43416 -0.39829,-3.69558 -3.78542,-16.19996 -2.17265,-30.34697 -1.26379,2.80713 -6.61324,12.3692 -6.68153,14.36146 -0.32003,9.32916 -0.14034,13.18476 2.68283,24.36628 -3.35783,-4.1257 -6.69468,-9.73965 -5.0552,-17.89815 -2.25822,5.67599 -2.33316,15.73975 -1.09302,21.86034 -1.05091,-3.76693 -3.37725,-10.86114 -2.86917,-13.38946 -5.3229,13.37914 -2.55132,18.02962 0,22.68011 -1.89197,-1.77484 -5.72019,-6.98408 -12.02319,-6.42148 6.6831,2.21646 11.04407,7.01455 10.65692,11.0668 -3.56879,-1.18453 -6.74094,-6.25752 -9.01739,-4.64532 -1.80632,1.27926 -0.0437,1.77047 0.68313,3.5523 -2.01876,-7.76514 6.50674,3.238 7.78775,4.64533 13.94104,-10.59536 19.92842,-9.2304 12.29644,-19.81094 l 57.92992,-89.90066 c 9.4713,-14.70148 128.09912,-186.711037 140.99921,-193.190793 0.93047,-0.467374 1.22291,-0.565264 1.09302,-0.546508 z"
       style="fill:#00bbf2;fill-opacity:1;stroke:none;display:inline" />
    <path
       sodipodi:nodetypes="csczc"
       inkscape:connector-curvature="0"
       id="path3311"
       d="m 556.87372,437.65392 c 1.1715,-19.51735 6.71506,-46.60735 15.4592,-61.75263 C 618.23964,296.38853 790.66336,28.505714 805.44349,50.267118 757.78471,92.284623 721.05907,155.86089 682.11469,214.22385 643.17027,272.58677 566.78935,402.99128 556.87372,437.65392 z"
       style="fill:#999999;fill-opacity:1;stroke:none;display:inline" />
    <path
       inkscape:connector-curvature="0"
       id="path4081"
       d="m 807.15765,45.419368 c -2.11057,0.464839 -6.09222,3.836447 -13.52609,11.886562 -58.87891,63.75963 -186.87249,275.39893 -188.13558,277.48974 -5.21356,8.29657 -10.65946,15.33604 -12.70633,22.95336 12.87172,-1.18518 21.96772,7.19271 8.74414,8.19763 0,0 8.62032,2.12675 7.92437,-2.73254 -1.1342,-7.91939 -8.49353,-5.53688 -12.70632,-8.88077 11.97558,1.11671 14.87968,1.10334 22.27023,6.96799 -0.18975,-4.71668 -13.57576,-8.68079 -19.94757,-11.61331 6.52728,0.69258 22.58952,7.81205 35.38643,1.5029 -6.47096,1.56638 -16.2411,2.09256 -32.92714,-5.32846 10.62487,2.0916 20.22851,4.05968 37.57247,0.27325 5.05747,-5.14396 21.86034,-22.81673 21.86034,-22.81673 -19.99692,15.86374 -45.3408,15.83965 -54.24098,12.02319 34.62805,-3.64325 41.98104,-8.813 63.25837,-25.41265 19.73333,-15.39506 41.08787,-37.83803 57.3834,-60.79908 -18.88921,-2.51084 -65.23769,-1.36291 -67.49381,-0.95639 10.50844,-1.53368 53.73085,-16.13731 81.70304,-21.45047 1.10316,-2.02859 2.02575,-4.01561 3.00579,-6.01159 8.92112,-18.16853 29.41135,-60.19622 36.61608,-75.41819 -24.91511,-6.32384 -38.33482,-5.31923 -50.00554,-4.91857 16.81686,-8.74152 39.28973,-18.46273 64.21476,-23.36325 2.57533,-8.48662 8.43486,-30.396629 11.20343,-39.211987 -19.60379,13.119048 -40.99212,20.920611 -47.54625,23.636497 10.21197,-9.465879 47.07087,-23.208909 51.23518,-36.616076 -5.10985,-1.652118 1.69881,-18.595764 -2.32266,-19.401056 -0.22866,-0.04591 -0.51826,-0.06645 -0.81976,0 z"
       style="fill:#00bbf2;fill-opacity:1;stroke:none;display:inline" />
  </g>
</svg>
