<?xml version="1.0" encoding="UTF-8" standalone="no"?>
<!-- Created with Inkscape (http://www.inkscape.org/) -->

<svg
   xmlns:dc="http://purl.org/dc/elements/1.1/"
   xmlns:cc="http://creativecommons.org/ns#"
   xmlns:rdf="http://www.w3.org/1999/02/22-rdf-syntax-ns#"
   xmlns:svg="http://www.w3.org/2000/svg"
   xmlns="http://www.w3.org/2000/svg"
   xmlns:sodipodi="http://sodipodi.sourceforge.net/DTD/sodipodi-0.dtd"
   xmlns:inkscape="http://www.inkscape.org/namespaces/inkscape"
   id="svg2"
   version="1.1"
   inkscape:version="0.91 r13725"
   width="512"
   height="512"
   sodipodi:docname="cherrytree.svg"
   viewBox="0 0 512 512">
  <metadata
     id="metadata8">
    <rdf:RDF>
      <cc:Work
         rdf:about="">
        <dc:format>image/svg+xml</dc:format>
        <dc:type
           rdf:resource="http://purl.org/dc/dcmitype/StillImage" />
        <dc:title />
      </cc:Work>
    </rdf:RDF>
  </metadata>
  <defs
     id="defs6">
    <clipPath
       clipPathUnits="userSpaceOnUse"
       id="clipPath3947">
      <ellipse
         style="opacity:1;fill:#ffc82d;fill-opacity:1;stroke:none;stroke-width:0;stroke-linecap:butt;stroke-linejoin:miter;stroke-miterlimit:4;stroke-dasharray:none;stroke-dashoffset:0;stroke-opacity:1"
         id="ellipse3949"
         cx="256.52075"
         cy="256.47083"
         rx="203.24309"
         ry="212.23589" />
    </clipPath>
    <clipPath
       clipPathUnits="userSpaceOnUse"
       id="clipPath4806">
      <circle
         style="opacity:1;fill:#f6c439;fill-opacity:1;stroke:none;stroke-width:0;stroke-linecap:butt;stroke-linejoin:miter;stroke-miterlimit:4;stroke-dasharray:none;stroke-dashoffset:0;stroke-opacity:1"
         id="circle4808"
         cx="249.4608"
         cy="248.91539"
         r="211.62711" />
    </clipPath>
    <clipPath
       clipPathUnits="userSpaceOnUse"
       id="clipPath4837">
      <circle
         style="opacity:1;fill:#0fa15f;fill-opacity:1;stroke:none;stroke-width:0;stroke-linecap:butt;stroke-linejoin:miter;stroke-miterlimit:4;stroke-dasharray:none;stroke-dashoffset:0;stroke-opacity:1"
         id="circle4839"
         cx="256"
         cy="256"
         r="207.13615" />
    </clipPath>
    <clipPath
       clipPathUnits="userSpaceOnUse"
       id="clipPath5050">
      <path
         style="opacity:1;fill:#f9f9f9;fill-opacity:1;stroke:none;stroke-width:0;stroke-linecap:butt;stroke-linejoin:miter;stroke-miterlimit:4;stroke-dasharray:none;stroke-dashoffset:0;stroke-opacity:1"
         d="M 255.99999,45.26758 A 210.73167,210.73167 0 0 0 45.267565,256 210.73167,210.73167 0 0 0 255.99999,466.73242 210.73167,210.73167 0 0 0 466.73244,256 210.73167,210.73167 0 0 0 255.99999,45.26758 Z m 0,111.84375 A 98.888542,98.888542 0 0 1 354.88866,256 98.888542,98.888542 0 0 1 255.99999,354.88867 98.888542,98.888542 0 0 1 157.11132,256 98.888542,98.888542 0 0 1 255.99999,157.11133 Z"
         id="path5052"
         inkscape:connector-curvature="0" />
    </clipPath>
    <clipPath
       clipPathUnits="userSpaceOnUse"
       id="clipPath5127">
      <path
         style="opacity:1;fill:#f9f9f9;fill-opacity:1;stroke:none;stroke-width:0;stroke-linecap:butt;stroke-linejoin:miter;stroke-miterlimit:4;stroke-dasharray:none;stroke-dashoffset:0;stroke-opacity:1"
         d="M 255.99999,45.26758 A 210.73167,210.73167 0 0 0 45.26756,256 210.73167,210.73167 0 0 0 255.99999,466.73242 210.73167,210.73167 0 0 0 466.73244,256 210.73167,210.73167 0 0 0 255.99999,45.26758 Z m 0,111.84375 A 98.888542,98.888542 0 0 1 354.88864,256 98.888542,98.888542 0 0 1 255.99999,354.88867 98.888542,98.888542 0 0 1 157.11132,256 98.888542,98.888542 0 0 1 255.99999,157.11133 Z"
         id="path5129"
         inkscape:connector-curvature="0" />
    </clipPath>
  </defs>
  <sodipodi:namedview
     pagecolor="#ffffff"
     bordercolor="#666666"
     borderopacity="1"
     objecttolerance="10"
     gridtolerance="10000"
     guidetolerance="10"
     inkscape:pageopacity="0"
     inkscape:pageshadow="2"
     inkscape:window-width="1366"
     inkscape:window-height="715"
     id="namedview4"
     showgrid="false"
     inkscape:zoom="0.095288835"
     inkscape:cx="-2932.2047"
     inkscape:cy="777.54313"
     inkscape:window-x="0"
     inkscape:window-y="24"
     inkscape:window-maximized="1"
     inkscape:current-layer="svg2"
     inkscape:snap-perpendicular="false" />
  <g
     id="g4167"
     transform="matrix(3.5767684,0,0,3.5767684,434.58052,-573.83413)">
    <path
       sodipodi:nodetypes="czzzczzzczzzczzc"
       inkscape:connector-curvature="0"
       id="path4165"
       d="m 8.1987521,221.27207 c 0,0 3.6383999,-12.75995 4.0993799,-17.38136 0.46098,-4.62141 1.76373,-6.25628 -0.32795,-10.00248 -2.0916803,-3.7462 -10.1170399,-5.92306 -13.1180099,-8.69069 -3.00097,-2.76763 -5.41118,-6.88695 -5.41118,-6.88695 0,0 -5.7595301,-3.96011 -10.8223601,-5.57516 -5.06283,-1.61505 -13.36028,-3.62825 -19.51304,-2.78758 -6.15276,0.84067 -10.22109,5.90656 -16.06956,7.05094 -5.84847,1.14438 -18.20124,-0.49193 -18.20124,-0.49193 0,0 10.81975,9.14308 16.39751,12.46211 5.57776,3.31903 11.94059,7.21523 16.72547,7.54286 4.78488,0.32763 5.48254,-0.8376 10.00248,-2.95155 4.51994,-2.11395 16.23354,-10.82236 16.23354,-10.82236 0,0 -0.81248,6.92307 0.32795,11.15031 1.14043,4.22724 3.9717601,8.64848 7.2149001,13.28198 3.24314,4.6335 12.46211,14.10186 12.46211,14.10186 z"
       style="fill:#23681f;fill-opacity:1;fill-rule:evenodd;stroke:none;stroke-width:1px;stroke-linecap:butt;stroke-linejoin:miter;stroke-opacity:1" />
    <path
       sodipodi:nodetypes="zzzzzzzzzzzzzzz"
       inkscape:connector-curvature="0"
       id="path4160"
       d="m -65.394632,220.5069 c -4.59802,-2.73479 -7.78554,-3.79311 -11.82669,-4.63792 -4.04115,-0.84481 -7.79394,-1.30208 -12.05859,-0.46379 -4.26465,0.83829 -9.20974,2.49762 -12.754268,5.7974 -3.54453,3.29978 -5.50098,7.85834 -7.18877,13.21806 -1.68779,5.35972 -3.06397,12.73845 -2.08706,18.55167 0.97691,5.81322 4.55419,12.10334 7.18877,15.07323 2.63458,2.96989 3.56733,2.29548 6.015698,3.80962 2.44837,1.51414 5.07276,4.18822 8.69068,5.2472 3.61792,1.05898 8.20636,0.99498 12.46211,0.32795 4.25575,-0.66703 8.64278,-1.8153 12.62609,-4.42732 3.98331,-2.61202 7.75156,-6.76018 10.33043,-11.15031 2.57887,-4.39013 4.20423,-9.67875 4.75528,-14.59379 0.55105,-4.91504 1.2912,-9.28471 -1.3118,-14.26584 -2.603,-4.98113 -10.24386,-9.75137 -14.84188,-12.48616 z"
       style="fill:#781c0b;fill-opacity:1;fill-rule:evenodd;stroke:none;stroke-width:1px;stroke-linecap:butt;stroke-linejoin:miter;stroke-opacity:1" />
    <path
       sodipodi:nodetypes="zzzzzzzzzzzzzzz"
       inkscape:connector-curvature="0"
       id="path4158"
       d="m -45.451592,293.32219 c 4.08631,1.4378 7.07228,3.30582 12.05859,2.8987 4.98631,-0.40712 11.16034,-3.24189 16.23271,-6.84093 5.07237,-3.59904 10.0135096,-9.0975 13.2180596,-14.60944 3.20455005,-5.51194 5.75333,-12.06274 5.7974,-17.62408 0.0441,-5.56134 -1.67727995,-9.99937 -4.40602,-14.14565 -2.72874,-4.14628 -7.08661,-7.19172 -11.3628996,-9.73963 -4.27629,-2.54791 -8.91253,-4.25504 -13.91375,-5.3336 -5.00122,-1.07856 -10.87645,-1.45532 -15.76892,-0.92758 -4.89247,0.52774 -9.36385,1.32656 -13.21807,3.71033 -3.85422,2.38377 -6.76812,5.55011 -9.04393,9.97152 -2.27581,4.42141 -3.27907,10.97451 -3.47844,16.00082 -0.19937,5.02631 0.0677,8.38559 1.85517,13.68185 1.78752,5.29626 5.66736,13.38437 9.73962,17.1603 4.07226,3.77593 8.20417,4.35959 12.29048,5.79739 z"
       style="fill:#f03916;fill-opacity:1;fill-rule:evenodd;stroke:none;stroke-width:1px;stroke-linecap:butt;stroke-linejoin:miter;stroke-opacity:1" />
    <path
       sodipodi:nodetypes="cczzzzczzzzcczcczzzzccccczzzcczc"
       inkscape:connector-curvature="0"
       id="path4163"
       d="m -39.286068,237.67967 3.81358,0.31304 c 0,0 2.62466,-5.63248 3.85342,-9.34658 1.22876,-3.7141 1.87174,-8.40646 3.2795,-12.95404 1.40776,-4.54758 3.50241,-10.34261 5.24721,-14.26584 1.7448,-3.92323 3.41095,-6.84612 4.91925,-9.34658 1.5083,-2.50046 3.9354,-5.73913 3.9354,-5.73913 0,0 -4.98147,1.94801 -8.85465,3.77143 -3.87318,1.82342 -9.18736,4.16285 -14.26584,7.37888 -5.07848,3.21603 -11.40906,7.93556 -15.90559,12.13416 -4.49653,4.1986 -9.83451,9.3077 -11.15031,12.70807 -1.3158,3.40037 -0.0906,4.96925 -0.0906,4.96925 l 2.78275,2.0001 c 0,0 -4.74416,1.71811 -9.44976,-0.43481 -4.7056,-2.15292 -4.86981,-6.26118 -4.86981,-6.26118 l 4.2321,0.11594 c 0,0 1.26703,-1.60302 4.0002,-4.52197 2.73317,-2.91895 7.93632,-8.74687 12.63833,-12.75427 4.70201,-4.0074 10.24004,-7.90557 15.53702,-11.131 5.29698,-3.22543 10.64376,-5.69893 16.11677,-8.2323 5.47301,-2.53337 16.6965004,-6.95688 16.6965004,-6.95688 l 0.82269,-2.54194 5.86211993,5.98509 -3.19751993,0.24597 -5.9031,1.9677 c 0,0 -3.5657904,5.99432 -5.5751604,10.00248 -2.00937,4.00816 -4.51277,9.02233 -6.31304,14.10186 -1.80027,5.07953 -3.47797,11.16919 -4.34534,16.31553 -0.86737,5.14634 -1.0618,14.39016 -1.0618,14.39016 l 3.01465,1.50732 c 0,0 -1.94122,3.03713 -7.82649,2.20301 -5.88527,-0.83412 -7.94248,-5.62347 -7.94248,-5.62347 z"
       style="fill:#45d03f;fill-opacity:1;fill-rule:evenodd;stroke:none;stroke-width:1px;stroke-linecap:butt;stroke-linejoin:miter;stroke-opacity:1" />
  </g>
</svg>
