<?xml version="1.0" encoding="UTF-8" standalone="no"?>
<!-- Generator: Adobe Illustrator 19.0.0, SVG Export Plug-In . SVG Version: 6.00 Build 0)  -->

<svg
   xmlns:dc="http://purl.org/dc/elements/1.1/"
   xmlns:cc="http://creativecommons.org/ns#"
   xmlns:rdf="http://www.w3.org/1999/02/22-rdf-syntax-ns#"
   xmlns:svg="http://www.w3.org/2000/svg"
   xmlns="http://www.w3.org/2000/svg"
   xmlns:sodipodi="http://sodipodi.sourceforge.net/DTD/sodipodi-0.dtd"
   xmlns:inkscape="http://www.inkscape.org/namespaces/inkscape"
   version="1.1"
   id="Layer_1"
   x="0px"
   y="0px"
   viewBox="0 0 500 500"
   xml:space="preserve"
   inkscape:version="0.91 r13725"
   width="100%"
   height="100%"
   sodipodi:docname="childsplay.svg"><metadata
     id="metadata65"><rdf:RDF><cc:Work
         rdf:about=""><dc:format>image/svg+xml</dc:format><dc:type
           rdf:resource="http://purl.org/dc/dcmitype/StillImage" /></cc:Work></rdf:RDF></metadata><defs
     id="defs63" /><sodipodi:namedview
     pagecolor="#ffffff"
     bordercolor="#666666"
     borderopacity="1"
     objecttolerance="10"
     gridtolerance="10"
     guidetolerance="10"
     inkscape:pageopacity="0"
     inkscape:pageshadow="2"
     inkscape:window-width="1366"
     inkscape:window-height="715"
     id="namedview61"
     showgrid="false"
     inkscape:zoom="0.32593203"
     inkscape:cx="235.57705"
     inkscape:cy="379.84559"
     inkscape:window-x="0"
     inkscape:window-y="24"
     inkscape:window-maximized="1"
     inkscape:current-layer="Layer_1" /><g
     id="g31"
     transform="translate(0,-12)" /><g
     id="g33"
     transform="translate(0,-12)" /><g
     id="g35"
     transform="translate(0,-12)" /><g
     id="g37"
     transform="translate(0,-12)" /><g
     id="g39"
     transform="translate(0,-12)" /><g
     id="g41"
     transform="translate(0,-12)" /><g
     id="g43"
     transform="translate(0,-12)" /><g
     id="g45"
     transform="translate(0,-12)" /><g
     id="g47"
     transform="translate(0,-12)" /><g
     id="g49"
     transform="translate(0,-12)" /><g
     id="g51"
     transform="translate(0,-12)" /><g
     id="g53"
     transform="translate(0,-12)" /><g
     id="g55"
     transform="translate(0,-12)" /><g
     id="g57"
     transform="translate(0,-12)" /><g
     id="g59"
     transform="translate(0,-12)" /><g
     id="g4211"
     transform="matrix(3.2478554,0,0,3.2478554,-969.32758,-337.19269)"><path
       inkscape:connector-curvature="0"
       id="path4174"
       d="m 392.13559,244.13559 13.08475,2.1017 9.69492,-5.42373 5.8983,-3.11865 13.89831,-26.37288 2.50847,-22.64406 2.23729,-7.52543 -0.47458,-11.38983 6.23729,-14.50847 -4.81356,-4.40678 -6.23729,0.74576 -11.11864,8.67797 -2.0339,6.03389 0.67797,16.1356 -6.30509,6.91525 -3.05085,-7.86441 -10.57627,-14.37288 -7.66101,-8.06779 L 383.52542,128 l -9.01694,-11.86441 -10.84746,-3.72881 -7.93221,3.52542 -3.52542,7.05085 2.71187,7.25424 12.47457,20.94915 0.0678,4.47458 -4.20339,-2.57628 -12.47458,-15.72881 -11.72881,-7.79661 -9.15254,-0.27119 -6.37289,2.30509 -4,6.50847 2.0339,6.98305 6.98305,6.84746 15.66102,11.79661 5.01695,7.11865 -11.11864,-5.89831 -13.96611,-7.18644 -10.16949,0.40678 -6.16949,4.54237 -1.01695,6.1017 3.18644,4.47457 21.89831,11.52543 -4.54238,2.57627 -11.9322,0.27119 -5.9661,0.94915 -3.66102,4.61017 -0.81356,5.55932 5.62712,5.15254 10.30509,1.28814 14.37288,2.50847 10.16949,5.62712 12.88136,16.47458 7.52542,8.74576 z"
       style="fill:#ffcc00;fill-opacity:1;fill-rule:evenodd;stroke:none;stroke-width:1px;stroke-linecap:butt;stroke-linejoin:miter;stroke-opacity:1" /><path
       inkscape:connector-curvature="0"
       id="path4176"
       d="m 390.03531,236.71658 11.50546,0.28764 7.47856,-1.62994 7.28679,-7.09504 2.78049,-16.20353 -3.45164,1.24642 -6.04037,7.67031 -8.6291,5.65686 -11.50547,4.79394 z"
       style="fill:#ffffff;fill-rule:evenodd;stroke:none;stroke-width:1px;stroke-linecap:butt;stroke-linejoin:miter;stroke-opacity:1" /><path
       inkscape:connector-curvature="0"
       id="path4178"
       d="m 365.01092,211.59631 7.86207,-3.45164 11.12195,0.4794 2.87636,-6.99916 0,-7.09504 -10.73843,-9.49201 -8.43734,0.86291 -6.51977,5.4651 -2.49285,7.86207 c 0,0 1.62994,6.328 1.62994,6.71152 0,0.38351 4.69807,5.65685 4.69807,5.65685 z"
       style="fill:#ffffff;fill-rule:evenodd;stroke:none;stroke-width:1px;stroke-linecap:butt;stroke-linejoin:miter;stroke-opacity:1" /><path
       inkscape:connector-curvature="0"
       id="path4195"
       d="m 392.91167,191.84526 -7.19091,-0.57527 -5.56098,-6.8074 0,-4.60219 4.02692,-5.84861 6.04037,-2.10934 6.99915,2.10934 3.54752,6.328 -1.53406,6.61565 z"
       style="fill:#ffffff;fill-rule:evenodd;stroke:none;stroke-width:1px;stroke-linecap:butt;stroke-linejoin:miter;stroke-opacity:1" /><path
       inkscape:connector-curvature="0"
       id="path4197"
       d="m 384.33898,196.94915 -2.23728,3.93221 -2.77967,2.16949 -4.06779,0.40678 -4.20339,-2.1695 -1.69492,-3.79661 0.74577,-5.22033 4.20339,-4 7.05084,0.94915 2.98305,5.42373 z"
       style="fill:#00bbf2;fill-opacity:1;fill-rule:evenodd;stroke:none;stroke-width:1px;stroke-linecap:butt;stroke-linejoin:miter;stroke-opacity:1" /><path
       inkscape:connector-curvature="0"
       id="path4199"
       d="m 390.30509,190.50847 -4.1356,0.54238 -3.9322,-4.0678 1.28813,-5.15254 3.86441,-2.23729 2.30509,0.67797 2.23728,1.8983 1.69492,2.64407 -1.42373,3.45763 z"
       style="fill:#45d03f;fill-opacity:1;fill-rule:evenodd;stroke:none;stroke-width:1px;stroke-linecap:butt;stroke-linejoin:miter;stroke-opacity:1" /><path
       inkscape:connector-curvature="0"
       id="path4201"
       d="m 314.20339,203.01695 5.22034,-2.54237 2.37288,-3.72882 0.13559,-3.52542 -2.06779,-2.77966 -2.77966,-1.11865 -3.11865,-0.77966 -5.11864,0.50848 -0.64407,2.61017 0.33898,1.72881 0.71187,3.72881 1.76271,4.37288 z"
       style="fill:#ffffff;fill-rule:evenodd;stroke:none;stroke-width:1px;stroke-linecap:butt;stroke-linejoin:miter;stroke-opacity:1" /><path
       inkscape:connector-curvature="0"
       id="path4203"
       d="m 310.61017,169.35593 0.98305,3.28814 4,1.59322 5.08475,-1.55932 4.40678,-3.69492 1.25423,-4.33898 -1.79661,-2.74577 -5.35593,-2.94915 -2.44068,0.37288 -1.52542,1.55932 -3.52542,4.1017 z"
       style="fill:#ffffff;fill-rule:evenodd;stroke:none;stroke-width:1px;stroke-linecap:butt;stroke-linejoin:miter;stroke-opacity:1" /><path
       inkscape:connector-curvature="0"
       id="path4205"
       d="m 323.5433,143.95376 -0.76703,-3.6434 2.34903,-4.45837 3.45164,-3.69134 6.08831,-1.72582 3.49958,2.68461 2.58873,3.6434 0,2.97225 -2.20521,3.59545 -5.7048,2.63667 -5.75273,-0.0959 z"
       style="fill:#ffffff;fill-rule:evenodd;stroke:none;stroke-width:1px;stroke-linecap:butt;stroke-linejoin:miter;stroke-opacity:1" /><path
       inkscape:connector-curvature="0"
       id="path4207"
       d="m 355.47097,124.96974 2.63667,3.25988 4.65012,1.24643 5.60892,-0.62322 4.41043,-2.44491 1.19848,-3.02018 -1.72582,-5.17746 -3.64339,-2.44492 -4.60219,-0.28763 -4.41043,1.8217 -2.82843,3.30782 z"
       style="fill:#ffffff;fill-rule:evenodd;stroke:none;stroke-width:1px;stroke-linecap:butt;stroke-linejoin:miter;stroke-opacity:1" /><path
       inkscape:connector-curvature="0"
       id="path4209"
       d="m 436.87214,171.80657 -3.4037,-6.61564 1.8217,-4.93776 1.15055,-2.82843 3.78721,-4.69806 4.60219,2.34903 -3.97897,11.69722 z"
       style="fill:#ffffff;fill-rule:evenodd;stroke:none;stroke-width:1px;stroke-linecap:butt;stroke-linejoin:miter;stroke-opacity:1" /><path
       inkscape:connector-curvature="0"
       id="path4172"
       d="m 395.10176,246.1829 c -3.64955,-1.00097 -10.39955,-2.14277 -15,-2.53735 -9.14637,-0.78448 -15.21873,-2.98091 -18.45397,-6.67497 -1.14923,-1.31221 -4.29923,-5.93498 -7,-10.27283 -8.07345,-12.96714 -17.76415,-18.88216 -32.8553,-20.05424 -10.34873,-0.80375 -14.70837,-2.33671 -17.12213,-6.02057 -2.39211,-3.65082 -0.60877,-9.56336 3.84202,-12.73797 2.74489,-1.95785 4.4529,-2.29801 11.47491,-2.28531 4.5375,0.008 8.25,-0.2581 8.25,-0.59181 0,-0.33371 -3.77535,-2.28897 -8.38966,-4.34503 -9.2277,-4.11171 -13.28994,-7.5973 -14.11843,-12.11426 -1.16781,-6.36691 5.48954,-12.51861 13.40597,-12.38774 6.11505,0.10109 11.15252,2.22005 24.10212,10.13831 l 3.5,2.14014 -2.5,-2.78554 c -1.375,-1.53204 -5.425,-4.83746 -9,-7.34537 -13.03429,-9.14373 -17.65618,-14.91236 -16.57319,-20.68517 1.09832,-5.85458 6.80356,-9.53845 14.77226,-9.53845 8.77539,0 16.96723,5.75287 27.49828,19.31116 2.48252,3.19614 4.72144,5.60338 4.97539,5.34943 0.71239,-0.71239 -3.97206,-9.46607 -9.20071,-17.1931 -5.59066,-8.26201 -6.6135,-13.32652 -3.6449,-18.04753 2.10068,-3.34074 7.57387,-6.43306 11.324,-6.398 7.05354,0.0659 16.15109,7.95281 20.59355,17.853 2.84256,6.33474 10.25532,27.72606 10.25532,29.59422 0,0.66976 2.24353,3.10952 4.98563,5.42169 2.74209,2.31217 6.19187,6.32011 7.66616,8.90654 1.4743,2.58642 3.45404,5.60259 4.39944,6.70259 0.94539,1.1 2.02595,3.0125 2.40122,4.25 0.83983,2.76938 1.71629,2.82601 4.03772,0.26086 1.52067,-1.68032 1.71208,-3.15369 1.23286,-9.49007 -0.71924,-9.50996 0.31703,-13.17944 5.0146,-17.75694 8.91296,-8.68513 21.26237,-9.14812 21.26237,-0.79713 0,1.55312 -1.35,5.99631 -3,9.87376 -2.12277,4.98844 -3,8.66825 -3,12.58447 0,3.04402 -0.63774,7.23118 -1.41719,9.30481 -0.77946,2.07363 -1.64293,8.15001 -1.91883,13.50306 -0.54655,10.6043 -1.06577,12.03835 -10.56223,29.1726 -3.89722,7.03167 -5.637,9.19993 -8.26874,10.30516 -1.83315,0.76986 -4.5203,2.53601 -5.97143,3.92477 -3.4586,3.30996 -8.63735,3.75566 -16.99711,1.46281 z m 15.66396,-4.12076 c 2.0919,-1.66242 4.87183,-3.29074 6.17763,-3.61847 1.47215,-0.36949 3.16141,-2.16558 4.44621,-4.72741 1.13962,-2.27233 4.30734,-8.03409 7.03938,-12.8039 4.88637,-8.53101 4.98069,-8.85703 5.7861,-20 0.48472,-6.70621 1.51145,-12.93831 2.51665,-15.27562 1.98581,-4.61746 1.48028,-9.74071 -1.51207,-15.32378 -1.09028,-2.03423 -1.96472,-4.38027 -1.94319,-5.21341 0.0215,-0.83315 0.74753,0.0602 1.61333,1.98519 1.0813,2.40413 1.74221,3.03034 2.11081,2 0.29513,-0.825 0.86012,-1.725 1.25552,-2 1.45683,-1.01322 6.03336,-11.10659 5.45803,-12.03749 -0.32718,-0.52938 -1.46831,-0.96251 -2.53585,-0.96251 -1.06754,0 -1.94098,-0.49878 -1.94098,-1.10841 0,-3.32521 -11.86217,3.26788 -15.11029,8.39843 -1.79877,2.84123 -1.96447,4.26989 -1.44242,12.43658 l 0.58979,9.2266 -3.6349,4.0234 c -1.9992,2.21287 -4.0152,4.0234 -4.48,4.0234 -0.4648,0 -1.32427,-1.77954 -1.90994,-3.95453 -0.58566,-2.17499 -2.07681,-5.21249 -3.31366,-6.75 -1.23684,-1.53751 -2.88325,-4.04642 -3.65867,-5.57535 -0.77542,-1.52894 -3.85426,-5.0917 -6.84187,-7.91725 -5.10235,-4.82559 -5.67467,-5.87066 -9.43054,-17.22012 -2.1992,-6.64551 -5.44448,-15.24181 -7.21175,-19.10289 -3.19039,-6.97028 -8.79894,-14.47986 -10.81433,-14.47986 -0.57827,0 -0.2504,0.88509 0.72859,1.96686 4.73007,5.22667 -0.0154,12.03314 -8.38941,12.03314 -3.82636,0 -5.33101,-0.52314 -7.37042,-2.56254 -2.20274,-2.20274 -2.42351,-2.96136 -1.57238,-5.40292 1.22447,-3.51252 3.76707,-5.88625 7.50475,-7.00633 l 2.85745,-0.8563 -2.73422,-0.086 c -1.68728,-0.053 -3.96556,1.01425 -5.95,2.78735 -4.84295,4.32717 -4.41646,7.84653 2.12561,17.54057 5.67614,8.41091 14.05861,25.14677 14.05861,28.06846 0,1.3718 0.4872,1.5882 2.25,0.99937 5.67542,-1.89574 12.6967,-1.68591 17.24383,0.51531 2.47839,1.19977 4.50617,2.86441 4.50617,3.69918 0,1.07765 -0.50748,1.29033 -1.75,0.73343 -4.15764,-1.86348 -11.21095,-1.65021 -14.76449,0.44643 -2.44857,1.44469 -4.48551,1.90066 -6.74656,1.51021 -5.51553,-0.95246 -6.08202,-1.26797 -4.87911,-2.71738 0.81331,-0.97998 0.16909,-2.85588 -2.57204,-7.4895 -8.61868,-14.56906 -18.85992,-25.52493 -26.7878,-28.65706 l -4,-1.58031 2.91667,2.44946 c 4.0208,3.37672 4.0208,8.04719 0,11.26567 -3.61694,2.89519 -8.78038,3.95381 -12.04025,2.46851 -6.56837,-2.99276 -2.47103,1.21874 8.52111,8.7585 8.13318,5.57874 19.42683,16.23017 21.85886,20.61585 1.08864,1.96316 1.16698,1.96589 4.25287,0.14826 l 3.1438,-1.85175 -0.71755,4.78497 c -0.53585,3.57333 -1.47592,5.42309 -3.7125,7.30505 -3.44559,2.89926 -5.72301,7.70694 -5.72301,12.08135 0,1.66767 -0.44143,3.03212 -0.98095,3.03212 -2.71698,0 -2.40629,-13.23385 0.41166,-17.53459 1.42684,-2.17764 1.25741,-2.51217 -3.71787,-7.34057 -8.85806,-8.59655 -22.46368,-17.17288 -27.10361,-17.0848 -1.89733,0.036 -1.83986,0.1863 0.5721,1.49595 1.47473,0.80076 2.96216,2.34075 3.3054,3.42219 1.19621,3.76892 -3.48101,9.37123 -8.84637,10.59607 -2.59983,0.59351 -1.7776,1.18004 9.04965,6.45549 12.61013,6.14414 22.0517,13.40874 20.49697,15.7709 -0.6441,0.97862 -2.21095,0.45685 -6.64363,-2.21238 -9.00799,-5.42432 -14.61143,-6.93738 -22.9421,-6.1949 -5.91497,0.52717 -7.47712,1.05932 -9.35125,3.18553 -1.2375,1.40395 -2.25,3.6204 -2.25,4.92544 0,2.40673 2.76822,6.08078 3.80238,5.04662 0.31036,-0.31036 0.0318,-1.09678 -0.61905,-1.74762 -0.65083,-0.65083 -1.13727,-2.55583 -1.08097,-4.23333 l 0.10236,-3.05 0.77008,3.24384 c 1.46289,6.16219 4.46726,7.73611 8.8745,4.64916 4.58399,-3.21075 4.50003,-8.50657 -0.16467,-10.38602 -1.39978,-0.56398 -1.62459,-0.90298 -0.62576,-0.94359 5.45863,-0.22196 7.10516,7.67803 2.43719,11.69352 -3.05292,2.62617 -2.61917,2.87824 6.11735,3.55506 12.25276,0.94922 21.81882,7.21676 30.04959,19.68803 3.08539,4.675 6.77343,9.754 8.19562,11.28667 3.00247,3.23568 9.5586,5.28036 19.64138,6.12561 3.85,0.32275 9.25,1.20617 12,1.96316 8.06242,2.21932 10.79664,1.96497 15.02843,-1.39804 z m -25.02843,-5.50076 c -2.75,-0.76361 -5.13906,-1.40823 -5.30902,-1.43251 -0.16996,-0.0243 -0.0309,0.40587 0.30902,0.95587 0.79336,1.28369 -0.12493,1.2711 -2.56574,-0.0352 -3.06648,-1.64113 -2.2658,-3.54891 2.02956,-4.83583 2.1801,-0.65318 4.70643,-2.18691 5.61406,-3.40829 l 1.65024,-2.2207 -0.52044,2.25 c -0.28624,1.2375 -0.3608,2.25 -0.16568,2.25 0.19511,0 3.96209,-1.13956 8.37105,-2.53234 10.22518,-3.23014 15.49274,-7.26996 19.84587,-15.22029 1.88296,-3.43894 3.83251,-5.99988 4.33232,-5.69098 0.49982,0.3089 0.90876,4.05439 0.90876,8.32331 0,10.48065 -3.37337,17.5479 -9.96189,20.8703 -5.27828,2.66168 -16.3849,2.99058 -24.53811,0.72664 z m 23.95177,-3.87205 c 4.37852,-3.33967 7.49498,-9.50116 7.52627,-14.88007 l 0.022,-3.77548 -5.75,5.86275 c -4.67983,4.77159 -7.23893,6.43777 -13.75,8.95239 -5.81832,2.24707 -7.5158,3.27778 -6.22448,3.77952 1.45515,0.56538 1.55033,0.96121 0.52752,2.19362 -1.09615,1.32079 -0.32751,1.45727 6.3174,1.12171 6.46193,-0.32631 8.11469,-0.80099 11.33133,-3.25444 z m -47.45177,-16.13554 c 0,-0.33029 0.43552,-1.41431 0.96782,-2.40892 0.73716,-1.3774 0.46594,-2.25547 -1.13801,-3.68426 -4.68419,-4.17265 -6.07137,-11.95723 -3.20652,-17.99444 2.92586,-6.16579 11.22799,-10.14486 17.44601,-8.36156 2.83054,0.81179 2.9307,0.72447 2.9307,-2.55488 0,-4.26753 4.73586,-9.96216 8.99296,-10.81358 5.88791,-1.17758 12.51702,3.21961 13.60615,9.02519 1.26165,6.72517 -4.06461,13.32402 -10.75348,13.32278 l -3.34563,-6.2e-4 0.34674,5.00406 c 0.26045,3.75855 -0.18288,5.90173 -1.78116,8.6106 -1.76337,2.9887 -1.90843,3.8746 -0.84675,5.17121 1.04541,1.27674 0.7977,1.25013 -1.34613,-0.1446 -6.95522,-4.5249 -13.74106,-3.83186 -18.79043,1.91906 -1.69525,1.93077 -3.08227,3.24026 -3.08227,2.90996 z m 7.58753,-8.07007 c 2.61207,-1.09139 5.27958,-1.40896 8.38012,-0.99766 3.70376,0.49132 4.75535,0.27188 5.66319,-1.1818 1.26399,-2.02398 2.79076,-8.21952 2.02554,-8.21952 -0.27639,0 -1.85253,1.35 -3.50253,3 -5.04254,5.04253 -12.03419,3.30927 -13.71832,-3.40084 -0.78928,-3.14474 1.43157,-7.81704 4.3189,-9.08629 4.94902,-2.17554 0.93599,-3.48291 -4.43933,-1.44626 -8.80658,3.33672 -11.53119,14.03083 -5.28334,20.73711 2.43875,2.61769 1.84455,2.56373 6.55577,0.59526 z m 11.41247,-7.39898 c 2.0052,-2.00521 2.6284,-6.46357 1.21433,-8.68744 -1.29449,-2.03584 -6.01782,-3.33777 -8.57794,-2.36441 -2.66517,1.01329 -3.63639,2.90342 -3.63639,7.07693 0,5.33265 7.08284,7.89208 11,3.97492 z m -8.42857,-2.57143 c -2.08279,-2.08279 -1.98224,-3.74681 0.35417,-5.86124 2.27528,-2.0591 4.92392,-1.76785 6.46722,0.71114 0.83451,1.34048 0.791,1.97585 -0.17669,2.57995 -0.70881,0.44249 -0.99682,1.54951 -0.64301,2.47153 0.85686,2.23294 -3.79099,2.30932 -6.00169,0.0986 z m 23.35184,-10.01746 c 2.42099,-2.03713 3.07673,-3.38228 3.07673,-6.31144 0,-9.01971 -11.38034,-12.44421 -16.02728,-4.82283 -2.64719,4.34161 -2.47842,5.28453 0.58642,3.27637 3.3619,-2.20281 6.28402,-1.66658 8.71265,1.59883 1.83431,2.46632 1.86421,2.86898 0.42697,5.75 -1.88435,3.77726 -0.85302,3.94008 3.22451,0.50907 z m -4.47997,-0.63362 c 0.85618,-1.22238 1.5567,-2.57238 1.5567,-3 0,-1.26172 -3.89241,-4.78023 -5.25,-4.74569 -0.7481,0.019 -0.52898,0.57863 0.54573,1.39369 1.2963,0.9831 1.6138,2.08677 1.1416,3.96819 -0.74017,2.94907 -2.56361,3.36402 -4.50472,1.02512 -1.08442,-1.30664 -1.07778,-1.95779 0.0382,-3.75 1.23078,-1.97655 1.20328,-2.04714 -0.31017,-0.79635 -2.09068,1.72784 -2.12864,4.51671 -0.0892,6.55612 2.21843,2.21843 5.04989,1.95016 6.87187,-0.65108 z m 42.6423,-25.77749 c -0.0302,-0.825 0.38124,-2.175 0.9144,-3 1.18132,-1.82797 1.18132,-0.24908 0,2.5 -0.56668,1.31874 -0.87815,1.48905 -0.9144,0.5 z m -109.99868,6.61667 c 2.84567,-4.67933 0.45307,-7.62413 -7.33704,-9.03038 -3.17648,-0.57341 -4.13251,-0.29457 -6.25,1.82292 -2.55766,2.55766 -3.43793,7.89301 -1.49988,9.09079 0.56851,0.35136 1,-0.50134 1,-1.97617 0,-3.05755 2.42115,-7.08773 4.8083,-8.00376 1.04538,-0.40115 0.64172,0.44455 -1.05999,2.22075 -3.52846,3.68292 -3.81306,8.92975 -0.54985,10.13689 3.37431,1.24824 8.83845,-0.89007 10.88846,-4.26104 z m 13.53577,-26.10511 c 3.19367,-2.09257 3.07906,-5.9567 -0.26871,-9.05931 -3.09661,-2.86984 -4.38549,-3.00444 -8.48242,-0.88583 -3.21209,1.66103 -6.24245,7.30348 -5.27561,9.82302 1.37924,3.59424 8.63126,3.65738 14.02674,0.12212 z m -10.93426,-9.54286 c 3.77941,-3.31837 3.60052,-3.68661 -0.70845,-1.45835 -3.49246,1.80602 -5.01619,4.35935 -4.87789,8.17391 l 0.10209,2.81574 1.05155,-3.2813 c 0.57835,-1.80472 2.57307,-4.61722 4.4327,-6.25 z m 42.84369,-5.41767 c 2.80387,-1.17154 3.46151,-1.9853 3.43461,-4.25 -0.0721,-6.07063 -6.03477,-9.04967 -12.35209,-6.17131 -2.75848,1.25685 -5.16382,5.99677 -4.25069,8.37634 1.27908,3.33322 7.69886,4.33019 13.16817,2.04497 z"
       style="fill:#000000" /></g></svg>