<?xml version="1.0" encoding="UTF-8" standalone="no"?>
<!-- Generator: flash2svg, http://dissentgraphics.com/tools/flash2svg -->

<svg
   xmlns:dc="http://purl.org/dc/elements/1.1/"
   xmlns:cc="http://creativecommons.org/ns#"
   xmlns:rdf="http://www.w3.org/1999/02/22-rdf-syntax-ns#"
   xmlns:svg="http://www.w3.org/2000/svg"
   xmlns="http://www.w3.org/2000/svg"
   xmlns:sodipodi="http://sodipodi.sourceforge.net/DTD/sodipodi-0.dtd"
   xmlns:inkscape="http://www.inkscape.org/namespaces/inkscape"
   id="ClamXav"
   image-rendering="optimizeSpeed"
   version="1.1"
   x="0px"
   y="0px"
   width="500"
   height="500"
   viewBox="0 0 500 500"
   enable-background="new 0 0 1024 1024"
   inkscape:version="0.48.5 r10040"
   sodipodi:docname="clamtk.svg">
  <metadata
     id="metadata41">
    <rdf:RDF>
      <cc:Work
         rdf:about="">
        <dc:format>image/svg+xml</dc:format>
        <dc:type
           rdf:resource="http://purl.org/dc/dcmitype/StillImage" />
      </cc:Work>
    </rdf:RDF>
  </metadata>
  <sodipodi:namedview
     pagecolor="#ffffff"
     bordercolor="#666666"
     borderopacity="1"
     objecttolerance="10"
     gridtolerance="10"
     guidetolerance="10"
     inkscape:pageopacity="0"
     inkscape:pageshadow="2"
     inkscape:window-width="1366"
     inkscape:window-height="716"
     id="namedview39"
     showgrid="false"
     inkscape:zoom="0.23046875"
     inkscape:cx="512"
     inkscape:cy="512"
     inkscape:window-x="0"
     inkscape:window-y="0"
     inkscape:window-maximized="1"
     inkscape:current-layer="shape6" />
  <defs
     transform="matrix(1 0 0 1 0 0) "
     id="defs3" />
  <g
     id="Calque.__209"
     transform="translate(0,-524)">
    <g
       id="shape6">
      <path
         id="path3"
         d="M 461.43591,551.49669 Q 461.43591,549 458.97648,549 l -107.24577,24.03528 c -1.67688,0 -2.49669,0.8198 -2.49669,2.49668 l 0,83.17324 c 0,1.67688 0.81981,2.49669 2.49669,2.49669 l 83.2105,0 c 1.60235,0 2.42216,-0.81981 2.42216,-2.49669 l 24.07254,-107.20851 z"
         inkscape:connector-curvature="0"
         style="fill:#502d16;fill-opacity:1" />
      <path
         id="path4"
         d="m 437.36337,889.2948 c 0,-1.71414 -0.81981,-2.53395 -2.42216,-2.53395 l -83.2105,0 c -1.67688,0 -2.49669,0.81981 -2.49669,2.53395 l 0,83.13597 c 0,1.67688 0.81981,2.49669 2.49669,2.49669 L 458.97648,999 c 1.63962,0 2.45943,-0.81981 2.45943,-2.49669 L 437.36337,889.2948 z"
         inkscape:connector-curvature="0"
         style="fill:#28170b;fill-opacity:1" />
      <path
         id="path5"
         d="m 147.37496,575.53196 c 0,-1.67688 -0.81981,-2.49668 -2.49669,-2.49668 L 37.595231,549 c -1.60235,0 -2.42216,0.81981 -2.42216,2.49669 l 24.03528,107.20851 c 0,1.67688 0.81981,2.49669 2.45942,2.49669 l 83.210499,0 c 1.67688,0 2.49669,-0.81981 2.49669,-2.49669 l 0,-83.17324 z"
         inkscape:connector-curvature="0"
         style="fill:#502d16;fill-opacity:1" />
      <path
         id="path6"
         d="m 61.667771,886.76085 c -1.63961,0 -2.45942,0.81981 -2.45942,2.53395 l -24.03528,107.20851 c 0,1.67688 0.81981,2.49669 2.42216,2.49669 L 144.87827,974.92746 c 1.67688,0 2.49669,-0.81981 2.49669,-2.49669 l 0,-83.13597 c 0,-1.71414 -0.81981,-2.53395 -2.49669,-2.53395 l -83.210499,0 z"
         inkscape:connector-curvature="0"
         style="fill:#28170b;fill-opacity:1" />
    </g>
  </g>
  <g
     id="Calque.__210"
     transform="matrix(0.74527989,0,0,0.74527989,-136.01772,-122.60268)">
    <g
       id="shape11">
      <path
         id="path7"
         d="M 727.45,711.75 Q 815.2,624 815.2,499.95 C 815.2,417.2 785.95,346.6 727.45,288.1 690.3,250.9 648.15,225.55 601.1,212 c -48.55,14.25 -91.6,45.55 -129.25,93.8 -53.45,68.6 -80.2,151.4 -80.2,248.35 0,93.9 25.1,174.5 75.25,241.75 15.75,2.4 32,3.6 48.75,3.6 0.05,0 0.05,0 0.1,0 82.7,-0.05 153.25,-29.3 211.7,-87.75 z"
         inkscape:connector-curvature="0"
         style="fill:#784421;fill-opacity:1" />
      <path
         id="path8"
         d="m 515.75,200.35 c -0.05,0 -0.05,0 -0.1,0 -82.75,0 -153.35,29.25 -211.85,87.75 -58.5,58.5 -87.75,129.1 -87.75,211.85 0,82.7 29.25,153.3 87.75,211.8 46.65,46.65 101.05,74.7 163.1,84.15 -50.15,-67.25 -75.25,-147.85 -75.25,-241.75 0,-96.95 26.75,-179.75 80.2,-248.35 37.65,-48.25 80.7,-79.55 129.25,-93.8 -26.85,-7.75 -55.3,-11.65 -85.35,-11.65 z"
         inkscape:connector-curvature="0"
         style="fill:#784421;fill-opacity:1" />
    </g>
  </g>
  <g
     id="Calque.__211"
     transform="matrix(0.74527989,0,0,0.74527989,-136.01772,-122.60268)">
    <g
       id="shape15">
      <path
         id="path9"
         d="m 746.9,523.2 q 0,-29.15 -13.15,-52.85 l -205.85,66.3 c 2.75,24.65 13.25,46.05 31.4,64.2 21.45,21.45 47.35,32.2 77.7,32.2 30.35,0 56.25,-10.75 77.7,-32.2 21.45,-21.45 32.2,-47.3 32.2,-77.65 z M 298.95,470.35 c -8.75,15.8 -13.15,33.4 -13.15,52.85 0,30.35 10.7,56.2 32.15,77.65 21.45,21.45 47.35,32.2 77.7,32.2 30.35,0 56.25,-10.75 77.7,-32.2 18.65,-18.65 29.25,-40.65 31.7,-66.1 l -206.1,-64.4 z"
         inkscape:connector-curvature="0"
         style="fill:#000000;fill-opacity:0.2" />
    </g>
  </g>
  <g
     id="Calque.__212"
     transform="matrix(0.74527989,0,0,0.74527989,-136.01772,-122.60268)">
    <g
       id="shape19">
      <path
         id="path12"
         d="m 746.9,499.95 q 0,-29.15 -13.15,-52.85 L 527.9,513.45 c 2.75,24.6 13.25,46 31.4,64.15 21.45,21.45 47.35,32.2 77.7,32.2 30.35,0 56.25,-10.75 77.7,-32.2 21.45,-21.45 32.2,-47.3 32.2,-77.65 z m -461.1,0 c 0,30.35 10.7,56.2 32.15,77.65 21.45,21.45 47.35,32.2 77.7,32.2 30.35,0 56.25,-10.75 77.7,-32.2 18.65,-18.65 29.25,-40.65 31.7,-66.1 l -206.1,-64.4 c -8.75,15.8 -13.15,33.4 -13.15,52.85 z"
         inkscape:connector-curvature="0"
         style="fill:#ffffff;fill-opacity:1" />
    </g>
  </g>
  <mask
     id="Calque.__214">
    <g
       id="g">
      <g
         id="shape28">
        <path
           id="path19"
           d="m 746.9,499.95 q 0,-29.15 -13.15,-52.85 L 527.9,513.45 c 2.75,24.6 13.25,46 31.4,64.15 21.45,21.45 47.35,32.2 77.7,32.2 30.35,0 56.25,-10.75 77.7,-32.2 21.45,-21.45 32.2,-47.3 32.2,-77.65 z m -461.1,0 c 0,30.35 10.7,56.2 32.15,77.65 21.45,21.45 47.35,32.2 77.7,32.2 30.35,0 56.25,-10.75 77.7,-32.2 18.65,-18.65 29.25,-40.65 31.7,-66.1 l -206.1,-64.4 c -8.75,15.8 -13.15,33.4 -13.15,52.85 z"
           inkscape:connector-curvature="0"
           style="fill:#ffffff;fill-opacity:1" />
      </g>
    </g>
  </mask>
  <g
     id="masked"
     mask="url(#Calque.__214)"
     transform="matrix(0.74527989,0,0,0.74527989,-136.01772,-122.60268)">
    <g
       id="Calque.__213">
      <g
         id="shape23">
        <path
           id="path15"
           d="m 602.15,453.45 q -9.3,0 -16.1,11.1 c -0.3,0.45 -0.55,0.9 -0.8,1.35 -4.65,8.35 -7,18.4 -7,30.15 0,11.75 2.35,21.8 7,30.1 2.65,4.75 5.65,8.2 9,10.25 2.45,1.5 5.1,2.25 7.9,2.25 6.6,0 12.2,-4.15 16.85,-12.5 4.7,-8.3 7.05,-18.35 7.05,-30.1 0,-11.75 -2.35,-21.8 -7.05,-30.15 -4.65,-8.3 -10.25,-12.45 -16.85,-12.45 z M 438.85,465.9 C 434.2,457.6 428.6,453.45 422,453.45 c -6.2,0 -11.55,3.7 -16.05,11.1 -0.3,0.45 -0.6,0.9 -0.85,1.35 -4.65,8.35 -6.95,18.4 -6.95,30.15 0,3.25 0.2,6.4 0.55,9.45 0.15,1.1 0.3,2.2 0.45,3.35 1.05,6.4 3.05,12.15 5.95,17.3 2.65,4.75 5.7,8.2 9.05,10.25 2.45,1.5 5.05,2.25 7.85,2.25 6.6,0 12.2,-4.15 16.85,-12.5 4.7,-8.3 7.05,-18.35 7.05,-30.1 0,-11.75 -2.35,-21.8 -7.05,-30.15 z"
           inkscape:connector-curvature="0"
           style="fill:#333333;fill-opacity:1" />
        <path
           id="path18"
           d="m 373.35,529.5 c -0.15,-1.15 -0.3,-2.25 -0.45,-3.35 -2.05,1.75 -3.95,4.35 -5.65,7.8 -3.55,7.2 -5.3,15.9 -5.3,26.05 0,10.15 1.75,18.8 5.3,26 3.55,7.2 7.8,10.8 12.8,10.8 1.5,0 2.95,-0.35 4.4,-1 -3.35,-2.05 -6.4,-5.5 -9.05,-10.25 -4.65,-8.3 -6.95,-18.35 -6.95,-30.1 0,-9.85 1.65,-18.5 4.9,-25.95 z"
           inkscape:connector-curvature="0"
           style="fill:#ffffff;fill-opacity:1" />
      </g>
    </g>
  </g>
</svg>
