<?xml version="1.0" encoding="UTF-8" standalone="no"?>
<!-- Created with Inkscape (http://www.inkscape.org/) -->

<svg
   xmlns:dc="http://purl.org/dc/elements/1.1/"
   xmlns:cc="http://creativecommons.org/ns#"
   xmlns:rdf="http://www.w3.org/1999/02/22-rdf-syntax-ns#"
   xmlns:svg="http://www.w3.org/2000/svg"
   xmlns="http://www.w3.org/2000/svg"
   xmlns:sodipodi="http://sodipodi.sourceforge.net/DTD/sodipodi-0.dtd"
   xmlns:inkscape="http://www.inkscape.org/namespaces/inkscape"
   width="512"
   height="512"
   id="svg2"
   version="1.1"
   inkscape:version="0.91 r13725"
   sodipodi:docname="cs-login.svg">
  <defs
     id="defs4">
    <radialGradient
       id="polygon413_1_"
       cx="7976.3457"
       cy="-10508.842"
       r="13293.867"
       gradientTransform="matrix(0.0222,0,0,-0.0248,721.1671,674.6745)"
       gradientUnits="userSpaceOnUse">
      <stop
         offset="0"
         style="stop-color:#80FF80"
         id="stop388" />
      <stop
         offset="1"
         style="stop-color:#0f0"
         id="stop390" />
    </radialGradient>
  </defs>
  <sodipodi:namedview
     id="base"
     pagecolor="#ffffff"
     bordercolor="#666666"
     borderopacity="1.0"
     inkscape:pageopacity="0.0"
     inkscape:pageshadow="2"
     inkscape:zoom="0.9899495"
     inkscape:cx="235.4253"
     inkscape:cy="144.40827"
     inkscape:document-units="px"
     inkscape:current-layer="layer1"
     showgrid="false"
     inkscape:window-width="1366"
     inkscape:window-height="715"
     inkscape:window-x="0"
     inkscape:window-y="24"
     inkscape:window-maximized="1" />
  <metadata
     id="metadata7">
    <rdf:RDF>
      <cc:Work
         rdf:about="">
        <dc:format>image/svg+xml</dc:format>
        <dc:type
           rdf:resource="http://purl.org/dc/dcmitype/StillImage" />
        <dc:title />
      </cc:Work>
    </rdf:RDF>
  </metadata>
  <g
     inkscape:label="Layer 1"
     inkscape:groupmode="layer"
     id="layer1"
     transform="translate(0,-540.36218)">
    <path
       style="fill:#999999;stroke:none"
       d="m 62.040772,828.23366 c 0,0 -1.490772,-111.22738 0,-122.55639 1.490751,-11.32897 14.982691,-102.96024 116.781488,-102.02337 101.7987,0.93684 113.4641,86.94119 115.49815,98.17343 2.03405,11.23227 1.92491,125.12302 1.92491,125.12302 l -48.76589,1.28331 -0.64164,-109.08158 c 0,0 -7.13222,-63.61446 -70.5822,-62.24069 -63.45001,1.37376 -64.80729,62.88235 -64.80729,62.88235 L 110.80665,827.592 z"
       id="path3767"
       inkscape:connector-curvature="0"
       sodipodi:nodetypes="czzzccczccc" />
    <path
       style="fill:#502d16;stroke:none"
       d="m 25,1001.9083 309.43684,0.4539 -0.45376,-189.20131 -308.98308,0 z"
       id="path2997"
       inkscape:connector-curvature="0"
       sodipodi:nodetypes="ccccc" />
    <path
       sodipodi:type="arc"
       style="fill:#cccccc;fill-opacity:1;stroke:none"
       id="path3769"
       sodipodi:cx="744.28571"
       sodipodi:cy="341.28571"
       sodipodi:rx="70"
       sodipodi:ry="69.285713"
       d="m 814.28571,341.28571 a 70,69.285713 0 0 1 -69.91784,69.28566 70,69.285713 0 0 1 -70.08197,-69.12302 70,69.285713 0 0 1 69.75332,-69.44793 70,69.285713 0 0 1 70.24571,68.96"
       transform="matrix(0.8983192,0,0,0.8983192,-489.14228,606.99052)"
       sodipodi:start="0"
       sodipodi:end="6.2784904"
       sodipodi:open="true" />
    <path
       sodipodi:type="arc"
       style="fill:#394050;fill-opacity:1;stroke:none"
       id="path3771"
       sodipodi:cx="743.57141"
       sodipodi:cy="319.67856"
       sodipodi:rx="10"
       sodipodi:ry="10.178572"
       d="m 753.57141,319.67856 a 10,10.178572 0 0 1 -9.98826,10.17856 10,10.178572 0 0 1 -10.01171,-10.15467 10,10.178572 0 0 1 9.96476,-10.2024 10,10.178572 0 0 1 10.0351,10.13072"
       transform="matrix(1.190273,0,0,1.129991,-705.05543,536.34683)"
       sodipodi:start="0"
       sodipodi:end="6.2784904"
       sodipodi:open="true" />
    <path
       style="fill:#394050;stroke:#394050;stroke-width:8.98319149;stroke-linecap:round;stroke-linejoin:miter;stroke-miterlimit:4;stroke-opacity:1;stroke-dasharray:none"
       d="m 180.47876,900.38802 0.32078,46.84081"
       id="path3773"
       inkscape:connector-curvature="0" />
    <g
       id="g4149">
      <path
         id="path3002"
         transform="translate(0,540.36218)"
         d="M 311.08594 204.34961 C 309.79017 204.37702 309.03711 204.50781 309.03711 204.50781 L 300.24805 237.14648 L 306.74609 250.06445 L 320.81641 255.07617 L 314.76562 273.92969 L 320.00977 284.09766 L 339.70508 288.61133 L 332.68359 311.16602 L 350.06445 315.28906 L 358.59766 330.49805 L 343.64844 338.88281 C 343.64844 338.88281 341.23953 340.0884 340.62109 342.04297 C 340.00264 343.99754 341.96484 346.13281 341.96484 346.13281 L 359.17383 355.92773 C 359.17383 355.92773 335.1254 392.68615 353.36719 424.07812 C 371.6089 455.47015 411.16936 461.82134 442.30078 442.81641 C 473.43212 423.81155 484.12547 388.58299 466.56055 357.96875 C 448.99563 327.35451 406.35938 329.41211 406.35938 329.41211 L 409.29492 312.37891 C 409.29492 312.37891 409.50816 308.28316 405.94531 307.06641 C 402.38246 305.84967 400.48437 307.42773 400.48438 307.42773 L 390.35938 313.3418 L 331.67969 212.87109 C 331.67969 212.87109 327.88941 208.7097 321.13672 206.14648 C 316.91628 204.54448 313.24555 204.30393 311.08594 204.34961 z M 426.37891 396.61719 A 16.836451 16.836451 0 0 1 440.17773 404.99609 A 16.836451 16.836451 0 0 1 434.06641 427.99414 A 16.836451 16.836451 0 0 1 411.06055 421.91016 A 16.836451 16.836451 0 0 1 417.11914 398.89844 L 417.1875 398.85742 A 16.836451 16.836451 0 0 1 426.37891 396.61719 z "
         style="fill:#999999;stroke:none" />
      <path
         sodipodi:nodetypes="ccccc"
         inkscape:connector-curvature="0"
         id="path3772"
         d="m 373.37075,875.28958 12.11429,11.20378 -78.36976,-134.93005 -1.82484,7.15879 z"
         style="fill:#666666;stroke:none" />
    </g>
  </g>
</svg>
