<?xml version="1.0" encoding="UTF-8" standalone="no"?>
<!-- Created with Inkscape (http://www.inkscape.org/) -->

<svg
   xmlns:dc="http://purl.org/dc/elements/1.1/"
   xmlns:cc="http://creativecommons.org/ns#"
   xmlns:rdf="http://www.w3.org/1999/02/22-rdf-syntax-ns#"
   xmlns:svg="http://www.w3.org/2000/svg"
   xmlns="http://www.w3.org/2000/svg"
   xmlns:sodipodi="http://sodipodi.sourceforge.net/DTD/sodipodi-0.dtd"
   xmlns:inkscape="http://www.inkscape.org/namespaces/inkscape"
   width="512"
   height="512"
   id="svg2"
   version="1.1"
   inkscape:version="0.48.5 r10040"
   sodipodi:docname="cs-login.svg">
  <defs
     id="defs4">
    <radialGradient
       id="polygon413_1_"
       cx="7976.3457"
       cy="-10508.842"
       r="13293.867"
       gradientTransform="matrix(0.0222,0,0,-0.0248,721.1671,674.6745)"
       gradientUnits="userSpaceOnUse">
      <stop
         offset="0"
         style="stop-color:#80FF80"
         id="stop388" />
      <stop
         offset="1"
         style="stop-color:#0f0"
         id="stop390" />
    </radialGradient>
  </defs>
  <sodipodi:namedview
     id="base"
     pagecolor="#ffffff"
     bordercolor="#666666"
     borderopacity="1.0"
     inkscape:pageopacity="0.0"
     inkscape:pageshadow="2"
     inkscape:zoom="0.49497475"
     inkscape:cx="185.03021"
     inkscape:cy="246.97465"
     inkscape:document-units="px"
     inkscape:current-layer="layer1"
     showgrid="false"
     inkscape:window-width="1366"
     inkscape:window-height="716"
     inkscape:window-x="0"
     inkscape:window-y="0"
     inkscape:window-maximized="1" />
  <metadata
     id="metadata7">
    <rdf:RDF>
      <cc:Work
         rdf:about="">
        <dc:format>image/svg+xml</dc:format>
        <dc:type
           rdf:resource="http://purl.org/dc/dcmitype/StillImage" />
        <dc:title />
      </cc:Work>
    </rdf:RDF>
  </metadata>
  <g
     inkscape:label="Layer 1"
     inkscape:groupmode="layer"
     id="layer1"
     transform="translate(0,-540.36218)">
    <path
       style="fill:#999999;stroke:none"
       d="m 62.040772,828.23366 c 0,0 -1.490772,-111.22738 0,-122.55639 1.490751,-11.32897 14.982691,-102.96024 116.781488,-102.02337 101.7987,0.93684 113.4641,86.94119 115.49815,98.17343 2.03405,11.23227 1.92491,125.12302 1.92491,125.12302 l -48.76589,1.28331 -0.64164,-109.08158 c 0,0 -7.13222,-63.61446 -70.5822,-62.24069 -63.45001,1.37376 -64.80729,62.88235 -64.80729,62.88235 L 110.80665,827.592 z"
       id="path3767"
       inkscape:connector-curvature="0"
       sodipodi:nodetypes="czzzccczccc" />
    <path
       style="fill:#502d16;stroke:none"
       d="m 25,1001.9083 309.43684,0.4539 -0.45376,-189.20131 -308.98308,0 z"
       id="path2997"
       inkscape:connector-curvature="0"
       sodipodi:nodetypes="ccccc" />
    <path
       sodipodi:type="arc"
       style="fill:#cccccc;fill-opacity:1;stroke:none"
       id="path3769"
       sodipodi:cx="744.28571"
       sodipodi:cy="341.28571"
       sodipodi:rx="70"
       sodipodi:ry="69.285713"
       d="m 814.28571,341.28571 a 70,69.285713 0 1 1 -7.8e-4,-0.32529"
       transform="matrix(0.8983192,0,0,0.8983192,-489.14228,606.99052)"
       sodipodi:start="0"
       sodipodi:end="6.2784904"
       sodipodi:open="true" />
    <path
       sodipodi:type="arc"
       style="fill:#394050;fill-opacity:1;stroke:none"
       id="path3771"
       sodipodi:cx="743.57141"
       sodipodi:cy="319.67856"
       sodipodi:rx="10"
       sodipodi:ry="10.178572"
       d="m 753.57141,319.67856 a 10,10.178572 0 1 1 -1.1e-4,-0.0478"
       transform="matrix(1.190273,0,0,1.129991,-705.05543,536.34683)"
       sodipodi:start="0"
       sodipodi:end="6.2784904"
       sodipodi:open="true" />
    <path
       style="fill:#394050;stroke:#394050;stroke-width:8.98319149;stroke-linecap:round;stroke-linejoin:miter;stroke-miterlimit:4;stroke-opacity:1;stroke-dasharray:none"
       d="m 180.47876,900.38802 0.32078,46.84081"
       id="path3773"
       inkscape:connector-curvature="0" />
    <g
       id="g3776"
       transform="matrix(-0.42886503,-0.73430404,-0.73430404,0.42886503,1494.3048,985.93933)">
      <path
         sodipodi:nodetypes="cczccczccccccccccczcczzzc"
         inkscape:connector-curvature="0"
         id="path3002"
         d="m 763.18647,1035.8662 15.55635,-13.0815 c 0,0 4.03316,-2.6463 7.38173,0.25 3.34857,2.8963 2.87132,5.7604 2.87132,5.7604 l 0,13.7886 136.82516,0 c 0,0 6.47383,1.3806 13.08148,6.7175 6.60765,5.3369 8.83883,11.3137 8.83883,11.3137 l -27.93071,28.2843 -16.97057,1.0607 -13.43503,-11.3138 -15.55635,17.3242 -13.43502,0.7071 -16.26346,-17.3241 -18.73833,20.5061 -14.49569,-15.2028 -20.5061,0.3535 0.35356,20.1526 c 0,0 0.20378,3.1625 -1.41422,4.9497 -1.618,1.7872 -4.94974,1.0607 -4.94974,1.0607 l -20.15255,-11.6673 c 0,0 -23.06512,46.2216 -65.76093,46.3155 -42.69581,0.094 -72.60688,-36.3122 -71.77134,-79.196 0.83554,-42.8837 30.26672,-74.63331 71.77134,-74.95329 41.50462,-0.31998 64.70027,44.19419 64.70027,44.19419 z"
         style="fill:#999999;stroke:none" />
      <path
         sodipodi:nodetypes="ccccc"
         inkscape:connector-curvature="0"
         id="path3772"
         d="m 777.15184,1072.6358 -18.56156,-5.6569 183.49421,-0.4419 -6.18718,6.0987 z"
         style="fill:#666666;stroke:none" />
      <path
         sodipodi:open="true"
         sodipodi:end="6.2784904"
         sodipodi:start="0"
         transform="matrix(1,0,0,1.0769231,-10.960155,490.39816)"
         d="m 697.20732,534.62744 c 0,10.15363 -8.86431,18.38478 -19.79899,18.38478 -10.93469,0 -19.799,-8.23115 -19.799,-18.38478 0,-10.15363 8.86431,-18.38478 19.799,-18.38478 10.89839,0 19.7476,8.17864 19.79877,18.29847"
         sodipodi:ry="18.384777"
         sodipodi:rx="19.79899"
         sodipodi:cy="534.62744"
         sodipodi:cx="677.40833"
         id="path3774"
         style="fill:#ffffff;fill-opacity:1;stroke:none"
         sodipodi:type="arc" />
    </g>
  </g>
</svg>
