<?xml version="1.0" encoding="UTF-8" standalone="no"?>
<!-- Generator: Adobe Illustrator 19.0.0, SVG Export Plug-In . SVG Version: 6.00 Build 0)  -->

<svg
   xmlns:dc="http://purl.org/dc/elements/1.1/"
   xmlns:cc="http://creativecommons.org/ns#"
   xmlns:rdf="http://www.w3.org/1999/02/22-rdf-syntax-ns#"
   xmlns:svg="http://www.w3.org/2000/svg"
   xmlns="http://www.w3.org/2000/svg"
   xmlns:sodipodi="http://sodipodi.sourceforge.net/DTD/sodipodi-0.dtd"
   xmlns:inkscape="http://www.inkscape.org/namespaces/inkscape"
   version="1.1"
   id="Layer_1"
   x="0px"
   y="0px"
   viewBox="0 0 500 500"
   xml:space="preserve"
   inkscape:version="0.48.5 r10040"
   width="100%"
   height="100%"
   sodipodi:docname="dbeaver.svg"><metadata
     id="metadata63"><rdf:RDF><cc:Work
         rdf:about=""><dc:format>image/svg+xml</dc:format><dc:type
           rdf:resource="http://purl.org/dc/dcmitype/StillImage" /></cc:Work></rdf:RDF></metadata><defs
     id="defs61" /><sodipodi:namedview
     pagecolor="#ffffff"
     bordercolor="#666666"
     borderopacity="1"
     objecttolerance="10"
     gridtolerance="10"
     guidetolerance="10"
     inkscape:pageopacity="0"
     inkscape:pageshadow="2"
     inkscape:window-width="1366"
     inkscape:window-height="716"
     id="namedview59"
     showgrid="false"
     inkscape:zoom="0.4609366"
     inkscape:cx="256.0005"
     inkscape:cy="256.0005"
     inkscape:window-x="0"
     inkscape:window-y="0"
     inkscape:window-maximized="1"
     inkscape:current-layer="Layer_1" /><path
     style="fill:#502d16"
     d="M 426.20244,205.83513 C 430.99949,112.89555 382.97975,71.662707 366.13646,62.399072 l -7.25798,14.515959 c 0,0 -14.52387,-22.881356 -50.80673,-29.031918 v 14.515959 c 0,0 -21.78273,-22.881356 -58.06472,-29.031918 h -0.008 -0.008 C 213.70922,39.518595 191.9265,62.399072 191.9265,62.399072 V 47.882234 c -36.28199,6.151441 -50.80674,29.031918 -50.80674,29.031918 L 133.86178,62.398193 C 117.01849,71.661829 68.998754,112.89555 73.795805,205.83425 43.278542,242.71214 25,286.77857 25,328.55809 25,426.76669 125.73545,475 250,475 374.26455,475 475,426.76669 475,328.55809 474.998,286.77857 456.72058,242.71214 426.20244,205.83513 z"
     id="path3"
     inkscape:connector-curvature="0" /><path
     style="fill:#28170b"
     d="m 358.87057,224.59795 c 0,58.1236 -48.74307,105.24158 -108.87057,105.24158 -60.1275,0 -108.87057,-47.11798 -108.87057,-105.24158 0,-58.1236 32.70925,-105.24158 108.87057,-105.24158 76.16132,0 108.87057,47.11798 108.87057,105.24158 z"
     id="path5"
     inkscape:connector-curvature="0" /><path
     style="fill:#c0c0c6"
     d="m 337.08784,387.90337 c -3.0243,33.34205 -9.56949,65.32357 -87.09663,65.32357 -77.52714,0 -84.07233,-31.98064 -87.09663,-65.32357 v -23.03429 h 174.20117 l -0.008,23.03429 z"
     id="path7"
     inkscape:connector-curvature="0" /><ellipse
     style="fill:#878791"
     cx="256.00101"
     cy="399.888"
     rx="74.322998"
     ry="33.032001"
     id="ellipse9"
     sodipodi:cx="256.00101"
     sodipodi:cy="399.888"
     sodipodi:rx="74.322998"
     sodipodi:ry="33.032001"
     transform="matrix(0.87890282,0,0,0.87890282,25,29.183577)" /><g
     id="g11"
     transform="matrix(0.87890282,0,0,0.87890282,25,29.183577)"><path
       style="fill:#ffffff"
       d="m 235.355,408.145 0,0 c -11.355,0 -20.645,-9.29 -20.645,-20.645 v -74.323 c 0,-11.355 9.29,-20.645 20.645,-20.645 l 0,0 c 11.355,0 20.645,9.29 20.645,20.645 V 387.5 c 10e-4,11.355 -9.29,20.645 -20.645,20.645 z"
       id="path13"
       inkscape:connector-curvature="0" /><path
       style="fill:#ffffff"
       d="m 276.646,408.145 0,0 c -11.355,0 -20.645,-9.29 -20.645,-20.645 v -74.323 c 0,-11.355 9.29,-20.645 20.645,-20.645 l 0,0 c 11.355,0 20.645,9.29 20.645,20.645 V 387.5 c 0,11.355 -9.29,20.645 -20.645,20.645 z"
       id="path15"
       inkscape:connector-curvature="0" /></g><path
     style="fill:#d3d3d7"
     d="M 250.00615,162.90425 H 250 249.994 c -68.14134,0.004 -123.38038,68.69328 -123.38038,153.42303 0,27.27939 1.75868,49.67647 5.02117,68.10178 1.98017,11.18932 12.41011,19.04671 23.69434,17.70814 52.99345,-6.28855 63.82593,-39.62709 63.82593,-52.13036 0,-34.68327 15.42298,-44.90579 30.84685,-44.90579 15.42386,0 30.84685,10.22077 30.84685,44.90579 0,12.50327 10.8316,45.84181 63.82592,52.13124 11.28336,1.33945 21.7133,-6.5197 23.69346,-17.70814 3.26161,-18.42444 5.02118,-40.8224 5.02118,-68.10178 -0.003,-84.73063 -55.24168,-153.41864 -123.38302,-153.42391 z"
     id="path17"
     inkscape:connector-curvature="0" /><ellipse
     style="fill:#878791"
     cx="256.00101"
     cy="234.726"
     rx="74.322998"
     ry="41.290001"
     id="ellipse19"
     sodipodi:cx="256.00101"
     sodipodi:cy="234.726"
     sodipodi:rx="74.322998"
     sodipodi:ry="41.290001"
     transform="matrix(0.87890282,0,0,0.87890282,25,29.183577)" /><g
     id="g21"
     transform="matrix(0.87890282,0,0,0.87890282,25,29.183577)"
     style="fill:#394050"><ellipse
       style="fill:#394050"
       cx="90.838997"
       cy="185.17799"
       rx="16.516001"
       ry="24.774"
       id="ellipse23"
       sodipodi:cx="90.838997"
       sodipodi:cy="185.17799"
       sodipodi:rx="16.516001"
       sodipodi:ry="24.774"
       d="m 107.355,185.17799 c 0,13.68231 -7.394468,24.774 -16.516003,24.774 -9.121535,0 -16.516001,-11.09169 -16.516001,-24.774 0,-13.6823 7.394466,-24.774 16.516001,-24.774 9.121535,0 16.516003,11.0917 16.516003,24.774 z" /><ellipse
       style="fill:#394050"
       cx="421.16199"
       cy="185.17799"
       rx="16.516001"
       ry="24.774"
       id="ellipse25"
       sodipodi:cx="421.16199"
       sodipodi:cy="185.17799"
       sodipodi:rx="16.516001"
       sodipodi:ry="24.774"
       d="m 437.67799,185.17799 c 0,13.68231 -7.39447,24.774 -16.516,24.774 -9.12154,0 -16.516,-11.09169 -16.516,-24.774 0,-13.6823 7.39446,-24.774 16.516,-24.774 9.12153,0 16.516,11.0917 16.516,24.774 z" /><path
       style="fill:#394050"
       d="m 181.687,244.135 0,0 c 0,7.861 5.207,14.682 12.728,16.961 13.242,4.013 34.057,12.376 48.755,28.072 6.953,7.425 18.709,7.426 25.662,0.002 14.701,-15.698 35.524,-24.06 48.77,-28.074 7.522,-2.279 12.729,-9.1 12.729,-16.961 l 0,0 c 0,-9.758 -7.91,-17.667 -17.667,-17.667 h -113.31 c -9.758,0 -17.667,7.909 -17.667,17.667 z"
       id="path27"
       inkscape:connector-curvature="0" /></g><g
     id="g29"
     transform="translate(0,-12.001001)" /><g
     id="g31"
     transform="translate(0,-12.001001)" /><g
     id="g33"
     transform="translate(0,-12.001001)" /><g
     id="g35"
     transform="translate(0,-12.001001)" /><g
     id="g37"
     transform="translate(0,-12.001001)" /><g
     id="g39"
     transform="translate(0,-12.001001)" /><g
     id="g41"
     transform="translate(0,-12.001001)" /><g
     id="g43"
     transform="translate(0,-12.001001)" /><g
     id="g45"
     transform="translate(0,-12.001001)" /><g
     id="g47"
     transform="translate(0,-12.001001)" /><g
     id="g49"
     transform="translate(0,-12.001001)" /><g
     id="g51"
     transform="translate(0,-12.001001)" /><g
     id="g53"
     transform="translate(0,-12.001001)" /><g
     id="g55"
     transform="translate(0,-12.001001)" /><g
     id="g57"
     transform="translate(0,-12.001001)" /></svg>