<?xml version="1.0" encoding="UTF-8" standalone="no"?>
<!-- Created with Inkscape (http://www.inkscape.org/) -->

<svg
   xmlns:dc="http://purl.org/dc/elements/1.1/"
   xmlns:cc="http://creativecommons.org/ns#"
   xmlns:rdf="http://www.w3.org/1999/02/22-rdf-syntax-ns#"
   xmlns:svg="http://www.w3.org/2000/svg"
   xmlns="http://www.w3.org/2000/svg"
   xmlns:sodipodi="http://sodipodi.sourceforge.net/DTD/sodipodi-0.dtd"
   xmlns:inkscape="http://www.inkscape.org/namespaces/inkscape"
   width="500"
   height="500"
   id="svg2"
   version="1.1"
   inkscape:version="0.91 r13725"
   sodipodi:docname="DC++.svg">
  <defs
     id="defs4" />
  <sodipodi:namedview
     id="base"
     pagecolor="#ffffff"
     bordercolor="#666666"
     borderopacity="1.0"
     inkscape:pageopacity="0.0"
     inkscape:pageshadow="2"
     inkscape:zoom="0.42897809"
     inkscape:cx="-260.75912"
     inkscape:cy="372.88909"
     inkscape:document-units="px"
     inkscape:current-layer="layer1"
     showgrid="false"
     inkscape:window-width="1366"
     inkscape:window-height="708"
     inkscape:window-x="0"
     inkscape:window-y="0"
     inkscape:window-maximized="1" />
  <metadata
     id="metadata7">
    <rdf:RDF>
      <cc:Work
         rdf:about="">
        <dc:format>image/svg+xml</dc:format>
        <dc:type
           rdf:resource="http://purl.org/dc/dcmitype/StillImage" />
        <dc:title />
      </cc:Work>
    </rdf:RDF>
  </metadata>
  <g
     inkscape:label="Layer 1"
     inkscape:groupmode="layer"
     id="layer1"
     transform="translate(0,-552.36218)">
    <path
       sodipodi:type="arc"
       style="fill:#ccff00;fill-opacity:1;stroke:none"
       id="path2996-3"
       sodipodi:cx="142.26416"
       sodipodi:cy="707.71594"
       sodipodi:rx="117.8175"
       sodipodi:ry="117.8175"
       d="M 260.08166,707.71594 A 117.8175,117.8175 0 0 1 142.40245,825.53336 117.8175,117.8175 0 0 1 24.446988,707.99251 117.8175,117.8175 0 0 1 141.8493,589.89918 117.8175,117.8175 0 0 1 260.08036,707.1628"
       sodipodi:start="0"
       sodipodi:end="6.2784904"
       sodipodi:open="true" />
    <path
       sodipodi:type="arc"
       style="fill:#aad400;fill-opacity:1;stroke:none"
       id="path2996-3-6"
       sodipodi:cx="187.57852"
       sodipodi:cy="922.08093"
       sodipodi:rx="117.8175"
       sodipodi:ry="117.8175"
       d="M 305.39602,922.08093 A 117.8175,117.8175 0 0 1 187.71681,1039.8983 117.8175,117.8175 0 0 1 69.761349,922.3575 117.8175,117.8175 0 0 1 187.16367,804.26417 117.8175,117.8175 0 0 1 305.39472,921.52779"
       sodipodi:start="0"
       sodipodi:end="6.2784904"
       sodipodi:open="true" />
    <path
       sodipodi:type="arc"
       style="fill:#1a1a1a;fill-opacity:1;stroke:none"
       id="path2996-3-6-7"
       sodipodi:cx="356.25916"
       sodipodi:cy="786.69257"
       sodipodi:rx="117.8175"
       sodipodi:ry="117.8175"
       d="M 474.07665,786.69257 A 117.8175,117.8175 0 0 1 356.39744,904.50998 117.8175,117.8175 0 0 1 238.44198,786.96914 117.8175,117.8175 0 0 1 355.8443,668.8758 117.8175,117.8175 0 0 1 474.07535,786.13943"
       sodipodi:start="0"
       sodipodi:end="6.2784904"
       sodipodi:open="true" />
  </g>
</svg>
