<?xml version="1.0" encoding="UTF-8" standalone="no"?>
<!-- Created with Inkscape (http://www.inkscape.org/) -->

<svg
   xmlns:dc="http://purl.org/dc/elements/1.1/"
   xmlns:cc="http://creativecommons.org/ns#"
   xmlns:rdf="http://www.w3.org/1999/02/22-rdf-syntax-ns#"
   xmlns:svg="http://www.w3.org/2000/svg"
   xmlns="http://www.w3.org/2000/svg"
   xmlns:sodipodi="http://sodipodi.sourceforge.net/DTD/sodipodi-0.dtd"
   xmlns:inkscape="http://www.inkscape.org/namespaces/inkscape"
   width="512"
   height="512"
   id="svg2"
   version="1.1"
   inkscape:version="0.48.5 r10040"
   sodipodi:docname="preferences-desktop-effects.svg">
  <defs
     id="defs4">
    <filter
       color-interpolation-filters="sRGB"
       inkscape:collect="always"
       id="filter4111"
       x="-0.67749912"
       width="2.3549981"
       y="-0.65025973"
       height="2.3005195">
      <feGaussianBlur
         inkscape:collect="always"
         stdDeviation="2.9760431"
         id="feGaussianBlur4113" />
    </filter>
  </defs>
  <sodipodi:namedview
     id="base"
     pagecolor="#ffffff"
     bordercolor="#666666"
     borderopacity="1.0"
     inkscape:pageopacity="0.0"
     inkscape:pageshadow="2"
     inkscape:zoom="0.7"
     inkscape:cx="378.61826"
     inkscape:cy="375.14896"
     inkscape:document-units="px"
     inkscape:current-layer="layer1"
     showgrid="false"
     inkscape:window-width="1366"
     inkscape:window-height="716"
     inkscape:window-x="0"
     inkscape:window-y="0"
     inkscape:window-maximized="1" />
  <metadata
     id="metadata7">
    <rdf:RDF>
      <cc:Work
         rdf:about="">
        <dc:format>image/svg+xml</dc:format>
        <dc:type
           rdf:resource="http://purl.org/dc/dcmitype/StillImage" />
        <dc:title />
      </cc:Work>
    </rdf:RDF>
  </metadata>
  <g
     inkscape:label="Layer 1"
     inkscape:groupmode="layer"
     id="layer1"
     transform="translate(0,-540.36218)">
    <path
       inkscape:connector-curvature="0"
       style="fill:#ff6600"
       d="m 484.35176,651.298 c 0.013,0 0.24565,0.15109 0.24565,0.16413 V 929.71974 H 28.791984 V 651.46213 c 0,-0.013 0.161957,-0.16413 0.175,-0.16413 H 484.35176 l 0,0 z"
       id="path9" />
    <path
       style="fill:#803300;stroke:#000000;stroke-width:0.55641943px;stroke-linecap:butt;stroke-linejoin:miter;stroke-opacity:1"
       d="m 28.148123,799.99316 -0.729455,111.16364 458.586212,-0.28073 -1.21237,-91.98143 c 0,0 -64.75371,17.72766 -120.75773,12.24132 C 308.03077,825.64961 222.64849,770.64951 163.051,768.57513 103.45359,766.50077 28.148123,799.99316 28.148123,799.99316 z"
       id="path3787"
       inkscape:connector-curvature="0"
       sodipodi:nodetypes="cccczzc" />
    <path
       inkscape:connector-curvature="0"
       style="fill:#394050"
       d="m 484.35176,651.298 c 0.013,0 0.24565,0.15109 0.24565,0.16413 V 929.71974 H 28.791984 V 651.46213 c 0,-0.013 0.161957,-0.16413 0.175,-0.16413 H 484.35176 l 0,0 z m 22.34348,139.20978 V 651.423 c 0,-11.79022 -10.51304,-22.22174 -22.30435,-22.22174 l 0,0 H 28.927854 c -11.790218,0 -22.2326089,10.43152 -22.2326089,22.22174 v 139.08478 0.003 139.08587 c 0,11.79131 10.4423909,22.22174 22.2326089,22.22174 H 484.39089 l 0,0 c 11.79131,0 22.30435,-10.43152 22.30435,-22.22174 v -139.08587 -0.003 z"
       id="path7" />
    <rect
       style="fill:#394050;fill-opacity:0.58823528999999997;stroke:none;stroke-width:5;stroke-linecap:round;stroke-linejoin:round;stroke-miterlimit:4;stroke-opacity:1;stroke-dasharray:none"
       id="rect3062"
       width="467.14285"
       height="20"
       x="23.571428"
       y="370.57144"
       transform="translate(0,540.36218)" />
    <path
       style="fill:#ffb800;stroke:none"
       d="m 44.572799,665.37905 17.854009,0.0134 0.299956,0.1343 0.147739,0.28653 0,15.02011 1.687803,1.7281 0.01342,7.78091 -0.425309,0.291 -19.586585,0.14326 z"
       id="path2996"
       inkscape:connector-curvature="0" />
    <path
       style="fill:#faec6d;stroke:none"
       d="m 44.572813,665.37972 6.812524,5.58424 0.02533,15.5751 -0.531833,0.81041 0.01268,7.86352 -0.430533,0.24059 -5.898636,-4.68351 z"
       id="path3766"
       inkscape:connector-curvature="0"
       sodipodi:nodetypes="cccccccc" />
    <path
       style="fill:none;stroke:#ffb800;stroke-width:0.14182203px;stroke-linecap:round;stroke-linejoin:miter;stroke-opacity:1"
       d="m 45.22643,690.40958 0.03581,-23.42331"
       id="path3768"
       inkscape:connector-curvature="0" />
    <path
       style="fill:none;stroke:#ffb800;stroke-width:0.14182203px;stroke-linecap:round;stroke-linejoin:miter;stroke-opacity:1"
       d="m 45.700877,690.75044 0.03581,-23.42332"
       id="path3768-3"
       inkscape:connector-curvature="0" />
    <path
       inkscape:connector-curvature="0"
       id="path3340"
       d="m 52.797183,718.12203 c -3.723844,-0.18566 -7.164971,-1.217 -8.650964,-2.59277 -0.377103,-0.3491 -0.677719,-0.84714 -0.676672,-1.12096 0.0017,-0.46347 0.571684,-1.15605 1.371203,-1.66633 3.421691,-2.18382 10.502453,-2.76536 15.693043,-1.28886 1.792942,0.51001 3.147674,1.20492 3.896035,1.99849 0.505971,0.53651 0.601375,0.87699 0.381485,1.36133 -0.51665,1.13798 -2.817278,2.29661 -5.712027,2.87668 -1.165172,0.23349 -2.274442,0.36607 -3.648769,0.43603 -1.202965,0.0613 -1.35537,0.0611 -2.653334,-0.004 z"
       style="fill:#cccccc;fill-opacity:0.58823529;stroke-width:0.78468841" />
    <path
       inkscape:connector-curvature="0"
       id="path3340-3"
       d="m 53.172022,737.36011 c -2.857136,-0.14245 -5.497354,-0.93372 -6.637488,-1.98929 -0.289336,-0.26789 -0.519985,-0.64998 -0.51918,-0.86007 0.0014,-0.35559 0.438627,-0.887 1.052061,-1.27849 2.625306,-1.67557 8.058051,-2.12173 12.040554,-0.98892 1.375643,0.39133 2.415066,0.9245 2.98925,1.53338 0.388208,0.41163 0.461407,0.67287 0.292696,1.04448 -0.396403,0.87313 -2.161569,1.76206 -4.382577,2.20715 -0.893984,0.17913 -1.745076,0.28082 -2.799534,0.33455 -0.92298,0.047 -1.039913,0.0469 -2.035782,-0.004 z"
       style="fill:#cccccc;fill-opacity:0.58823529;stroke-width:0.78468841" />
    <path
       inkscape:connector-curvature="0"
       id="path3348"
       d="m 52.981916,737.36775 c -3.060022,-0.20979 -5.551292,-1.04546 -6.627704,-2.22321 -0.383271,-0.41936 -0.487005,-0.64393 -0.600585,-1.30026 -0.313457,-1.81133 -3.393373,-18.38205 -3.473911,-18.69057 -0.551437,-2.11221 1.6986,-4.02531 5.966928,-5.07338 0.977505,-0.24002 2.462804,-0.47771 3.641445,-0.58274 1.05824,-0.0943 3.514424,-0.0943 4.572662,0 5.163581,0.46013 9.028921,2.24 9.611365,4.42577 0.112468,0.42206 0.102882,0.74467 -0.03947,1.32827 -0.15398,0.63129 -3.475016,18.63202 -3.475016,18.83533 0,0.0825 -0.08412,0.31835 -0.186927,0.52411 -0.521732,1.04405 -2.271097,1.96932 -4.633684,2.45078 -1.314995,0.26798 -3.37511,0.40052 -4.755108,0.3059 z"
       style="fill:#969696;fill-opacity:0.58823529;stroke-width:0.78468841" />
    <g
       transform="matrix(0.29299353,0,0,0.29299353,35.567633,702.92397)"
       id="g20"
       style="fill:#006680;stroke:#006680;stroke-opacity:1">
      <linearGradient
         id="SVGID_2_"
         gradientUnits="userSpaceOnUse"
         x1="64.779297"
         y1="89.454102"
         x2="81.225601"
         y2="89.454102">
        <stop
           offset="0"
           style="stop-color:#80C11B"
           id="stop23" />
        <stop
           offset="1"
           style="stop-color:#80E21B"
           id="stop25" />
      </linearGradient>
      <path
         inkscape:connector-curvature="0"
         d="m 68.818,87.321 -4.039,7.105 4.105,7.037 -0.016,-3.096 3.416,-0.063 c 2.135,-0.059 3.303,-1.699 3.303,-1.699 l 5.166,-8.844 c 1.104,-2.484 -0.076,-4.172 -0.076,-4.172 l -3.594,-6.146 -7.104,4.107 4.563,7.889 c 0.168,0.416 -0.1,0.754 -0.596,0.746 l -5.107,0.035 -0.021,-2.899 0,0 z"
         id="path27"
         style="fill:#006680;stroke:#006680;stroke-opacity:1" />
      <linearGradient
         id="SVGID_3_"
         gradientUnits="userSpaceOnUse"
         x1="46.181198"
         y1="88.808601"
         x2="62.918499"
         y2="88.808601">
        <stop
           offset="0"
           style="stop-color:#80C11B"
           id="stop30" />
        <stop
           offset="1"
           style="stop-color:#80E21B"
           id="stop32" />
      </linearGradient>
      <path
         inkscape:connector-curvature="0"
         d="m 58.476,86.259 -4.15,-7.043 -8.145,0.055 2.689,1.529 -1.651,2.99 c -1.013,1.881 -0.17,3.711 -0.17,3.711 l 5.096,8.885 c 1.604,2.197 3.656,2.011 3.656,2.011 l 7.118,-0.05 -0.024,-8.207 -9.112,0.027 C 53.34,90.104 53.179,89.706 53.432,89.278 l 2.515,-4.447 2.529,1.428 0,0 z"
         id="path34"
         style="fill:#006680;stroke:#006680;stroke-opacity:1" />
      <linearGradient
         id="SVGID_4_"
         gradientUnits="userSpaceOnUse"
         x1="51.8843"
         y1="73.499001"
         x2="76.783203"
         y2="73.499001">
        <stop
           offset="0"
           style="stop-color:#80C11B"
           id="stop37" />
        <stop
           offset="1"
           style="stop-color:#80E21B"
           id="stop39" />
      </linearGradient>
      <path
         inkscape:connector-curvature="0"
         d="m 64.572,77.841 8.174,-0.063 4.037,-7.074 -2.672,1.561 -1.762,-2.928 C 71.232,67.519 69.224,67.329 69.224,67.329 L 58.981,67.282 c -2.707,0.287 -3.573,2.154 -3.573,2.154 l -3.524,6.188 7.111,4.092 4.546,-7.896 c 0.276,-0.354 0.701,-0.291 0.944,0.145 l 2.588,4.402 -2.501,1.474 0,0 z"
         id="path41"
         style="fill:#006680;stroke:#006680;stroke-opacity:1" />
    </g>
    <path
       sodipodi:type="arc"
       style="fill:#ffffff;fill-opacity:0.58823529;stroke:none"
       id="path3832"
       sodipodi:cx="43.436558"
       sodipodi:cy="382.57422"
       sodipodi:rx="7.8286819"
       sodipodi:ry="8.207489"
       d="m 51.265163,382.53787 c 0.01915,4.53283 -3.470319,8.22368 -7.793938,8.24376 -4.32362,0.0201 -7.844126,-3.63824 -7.863272,-8.17107 -0.01915,-4.53282 3.470319,-8.22368 7.793938,-8.24375 4.323367,-0.0201 7.843768,3.63783 7.863269,8.17039"
       transform="matrix(1.0967742,0,0,1,-2.8436758,538.08934)"
       sodipodi:start="6.2787571"
       sodipodi:end="12.56186"
       sodipodi:open="true" />
    <rect
       style="fill:#71c837;fill-opacity:0.58823529;stroke:none"
       id="rect3852"
       width="6.4285712"
       height="11.785714"
       x="472.61642"
       y="914.50507" />
    <rect
       style="fill:#ffffff;fill-opacity:0.58823529;stroke:none"
       id="rect3852-6"
       width="1.9460193"
       height="11.785714"
       x="463.60245"
       y="914.39185" />
    <rect
       style="fill:#ffffff;fill-opacity:0.58823529;stroke:none"
       id="rect3852-6-7"
       width="1.9460193"
       height="9.8285437"
       x="460.35104"
       y="916.53845" />
    <rect
       style="fill:#ffffff;fill-opacity:0.58823529;stroke:none"
       id="rect3852-6-7-5"
       width="1.9460193"
       height="7.7451038"
       x="457.00491"
       y="918.52716" />
    <rect
       style="fill:#ffffff;fill-opacity:0.58823529;stroke:none"
       id="rect3852-6-7-5-3"
       width="1.9460193"
       height="5.5985298"
       x="453.91132"
       y="920.8316" />
    <path
       sodipodi:type="arc"
       style="fill:#faec6d;fill-opacity:1;stroke:none"
       id="path3767"
       sodipodi:cx="942.85712"
       sodipodi:cy="126.28571"
       sodipodi:rx="71.428574"
       sodipodi:ry="74.285713"
       d="m 1014.2857,126.28571 c 0,41.02687 -31.97967,74.28572 -71.42858,74.28572 -39.44892,0 -71.42858,-33.25885 -71.42858,-74.28572 C 871.42854,85.258847 903.4082,52 942.85712,52 c 39.31801,0 71.24318,33.046669 71.42778,73.93695"
       transform="matrix(0.28253758,-0.14367359,0.13554112,0.26654488,135.70383,803.64205)"
       sodipodi:start="0"
       sodipodi:end="6.2784904"
       sodipodi:open="true" />
    <g
       style="display:inline"
       id="g4149"
       transform="matrix(4.4593383,0,0,4.4593383,63.687159,610.78554)">
      <g
         id="g4115">
        <path
           inkscape:transform-center-y="0.050457451"
           inkscape:transform-center-x="0.50344417"
           d="m 38.142264,31.007588 -3.797901,-0.541377 -2.599061,2.821706 -0.658737,-3.779313 -3.486755,-1.5999 3.390779,-1.794367 0.444129,-3.810498 2.754353,2.670333 3.761242,-0.755118 -1.688496,3.444724 z"
           inkscape:randomized="0"
           inkscape:rounded="0"
           inkscape:flatsided="false"
           sodipodi:arg2="1.2283687"
           sodipodi:arg1="0.60005021"
           sodipodi:r2="2.88849"
           sodipodi:r1="5.7769794"
           sodipodi:cy="27.74542"
           sodipodi:cx="33.374481"
           sodipodi:sides="5"
           id="path3097"
           style="fill:#f0dc8b;fill-opacity:1;fill-rule:evenodd;stroke:none;filter:url(#filter4111)"
           sodipodi:type="star" />
        <path
           sodipodi:type="star"
           style="fill:#ffcc00;fill-opacity:1;fill-rule:evenodd;stroke:none"
           id="path3095"
           sodipodi:sides="5"
           sodipodi:cx="33.374481"
           sodipodi:cy="27.74542"
           sodipodi:r1="5.7769794"
           sodipodi:r2="2.88849"
           sodipodi:arg1="0.60005021"
           sodipodi:arg2="1.2283687"
           inkscape:flatsided="false"
           inkscape:rounded="0"
           inkscape:randomized="0"
           d="m 38.142264,31.007588 -3.797901,-0.541377 -2.599061,2.821706 -0.658737,-3.779313 -3.486755,-1.5999 3.390779,-1.794367 0.444129,-3.810498 2.754353,2.670333 3.761242,-0.755118 -1.688496,3.444724 z"
           inkscape:transform-center-x="0.50344417"
           inkscape:transform-center-y="0.050457451" />
      </g>
      <g
         transform="matrix(0.66462195,0.44142051,-0.44142051,0.66462195,36.342565,-14.472453)"
         id="g4119">
        <path
           sodipodi:type="star"
           style="fill:#f0dc8b;fill-opacity:1;fill-rule:evenodd;stroke:none;filter:url(#filter4111)"
           id="path4121"
           sodipodi:sides="5"
           sodipodi:cx="33.374481"
           sodipodi:cy="27.74542"
           sodipodi:r1="5.7769794"
           sodipodi:r2="2.88849"
           sodipodi:arg1="0.60005021"
           sodipodi:arg2="1.2283687"
           inkscape:flatsided="false"
           inkscape:rounded="0"
           inkscape:randomized="0"
           d="m 38.142264,31.007588 -3.797901,-0.541377 -2.599061,2.821706 -0.658737,-3.779313 -3.486755,-1.5999 3.390779,-1.794367 0.444129,-3.810498 2.754353,2.670333 3.761242,-0.755118 -1.688496,3.444724 z"
           inkscape:transform-center-x="0.50344417"
           inkscape:transform-center-y="0.050457451" />
        <path
           inkscape:transform-center-y="0.050457451"
           inkscape:transform-center-x="0.50344417"
           d="m 38.142264,31.007588 -3.797901,-0.541377 -2.599061,2.821706 -0.658737,-3.779313 -3.486755,-1.5999 3.390779,-1.794367 0.444129,-3.810498 2.754353,2.670333 3.761242,-0.755118 -1.688496,3.444724 z"
           inkscape:randomized="0"
           inkscape:rounded="0"
           inkscape:flatsided="false"
           sodipodi:arg2="1.2283687"
           sodipodi:arg1="0.60005021"
           sodipodi:r2="2.88849"
           sodipodi:r1="5.7769794"
           sodipodi:cy="27.74542"
           sodipodi:cx="33.374481"
           sodipodi:sides="5"
           id="path4123"
           style="fill:#ffcc00;fill-opacity:1;fill-rule:evenodd;stroke:none"
           sodipodi:type="star" />
      </g>
      <g
         id="g4125"
         transform="matrix(0.73438885,0.84102948,-0.84102948,0.73438885,52.297537,-14.643002)">
        <path
           inkscape:transform-center-y="0.050457451"
           inkscape:transform-center-x="0.50344417"
           d="m 38.142264,31.007588 -3.797901,-0.541377 -2.599061,2.821706 -0.658737,-3.779313 -3.486755,-1.5999 3.390779,-1.794367 0.444129,-3.810498 2.754353,2.670333 3.761242,-0.755118 -1.688496,3.444724 z"
           inkscape:randomized="0"
           inkscape:rounded="0"
           inkscape:flatsided="false"
           sodipodi:arg2="1.2283687"
           sodipodi:arg1="0.60005021"
           sodipodi:r2="2.88849"
           sodipodi:r1="5.7769794"
           sodipodi:cy="27.74542"
           sodipodi:cx="33.374481"
           sodipodi:sides="5"
           id="path4127"
           style="fill:#f0dc8b;fill-opacity:1;fill-rule:evenodd;stroke:none;filter:url(#filter4111)"
           sodipodi:type="star" />
        <path
           sodipodi:type="star"
           style="fill:#ffcc00;fill-opacity:1;fill-rule:evenodd;stroke:none"
           id="path4129"
           sodipodi:sides="5"
           sodipodi:cx="33.374481"
           sodipodi:cy="27.74542"
           sodipodi:r1="5.7769794"
           sodipodi:r2="2.88849"
           sodipodi:arg1="0.60005021"
           sodipodi:arg2="1.2283687"
           inkscape:flatsided="false"
           inkscape:rounded="0"
           inkscape:randomized="0"
           d="m 38.142264,31.007588 -3.797901,-0.541377 -2.599061,2.821706 -0.658737,-3.779313 -3.486755,-1.5999 3.390779,-1.794367 0.444129,-3.810498 2.754353,2.670333 3.761242,-0.755118 -1.688496,3.444724 z"
           inkscape:transform-center-x="0.50344417"
           inkscape:transform-center-y="0.050457451" />
      </g>
      <g
         transform="matrix(0.64838386,0.18336087,-0.18336087,0.64838386,21.637339,20.982094)"
         id="g4131">
        <path
           sodipodi:type="star"
           style="fill:#f0dc8b;fill-opacity:1;fill-rule:evenodd;stroke:none;filter:url(#filter4111)"
           id="path4133"
           sodipodi:sides="5"
           sodipodi:cx="33.374481"
           sodipodi:cy="27.74542"
           sodipodi:r1="5.7769794"
           sodipodi:r2="2.88849"
           sodipodi:arg1="0.60005021"
           sodipodi:arg2="1.2283687"
           inkscape:flatsided="false"
           inkscape:rounded="0"
           inkscape:randomized="0"
           d="m 38.142264,31.007588 -3.797901,-0.541377 -2.599061,2.821706 -0.658737,-3.779313 -3.486755,-1.5999 3.390779,-1.794367 0.444129,-3.810498 2.754353,2.670333 3.761242,-0.755118 -1.688496,3.444724 z"
           inkscape:transform-center-x="0.50344417"
           inkscape:transform-center-y="0.050457451" />
        <path
           inkscape:transform-center-y="0.050457451"
           inkscape:transform-center-x="0.50344417"
           d="m 38.142264,31.007588 -3.797901,-0.541377 -2.599061,2.821706 -0.658737,-3.779313 -3.486755,-1.5999 3.390779,-1.794367 0.444129,-3.810498 2.754353,2.670333 3.761242,-0.755118 -1.688496,3.444724 z"
           inkscape:randomized="0"
           inkscape:rounded="0"
           inkscape:flatsided="false"
           sodipodi:arg2="1.2283687"
           sodipodi:arg1="0.60005021"
           sodipodi:r2="2.88849"
           sodipodi:r1="5.7769794"
           sodipodi:cy="27.74542"
           sodipodi:cx="33.374481"
           sodipodi:sides="5"
           id="path4135"
           style="fill:#ffcc00;fill-opacity:1;fill-rule:evenodd;stroke:none"
           sodipodi:type="star" />
      </g>
      <g
         id="g4137"
         transform="matrix(0.39668607,0.32385097,-0.32385097,0.39668607,45.436347,32.577156)">
        <path
           inkscape:transform-center-y="0.050457451"
           inkscape:transform-center-x="0.50344417"
           d="m 38.142264,31.007588 -3.797901,-0.541377 -2.599061,2.821706 -0.658737,-3.779313 -3.486755,-1.5999 3.390779,-1.794367 0.444129,-3.810498 2.754353,2.670333 3.761242,-0.755118 -1.688496,3.444724 z"
           inkscape:randomized="0"
           inkscape:rounded="0"
           inkscape:flatsided="false"
           sodipodi:arg2="1.2283687"
           sodipodi:arg1="0.60005021"
           sodipodi:r2="2.88849"
           sodipodi:r1="5.7769794"
           sodipodi:cy="27.74542"
           sodipodi:cx="33.374481"
           sodipodi:sides="5"
           id="path4139"
           style="fill:#f0dc8b;fill-opacity:1;fill-rule:evenodd;stroke:none;filter:url(#filter4111)"
           sodipodi:type="star" />
        <path
           sodipodi:type="star"
           style="fill:#ffcc00;fill-opacity:1;fill-rule:evenodd;stroke:none"
           id="path4141"
           sodipodi:sides="5"
           sodipodi:cx="33.374481"
           sodipodi:cy="27.74542"
           sodipodi:r1="5.7769794"
           sodipodi:r2="2.88849"
           sodipodi:arg1="0.60005021"
           sodipodi:arg2="1.2283687"
           inkscape:flatsided="false"
           inkscape:rounded="0"
           inkscape:randomized="0"
           d="m 38.142264,31.007588 -3.797901,-0.541377 -2.599061,2.821706 -0.658737,-3.779313 -3.486755,-1.5999 3.390779,-1.794367 0.444129,-3.810498 2.754353,2.670333 3.761242,-0.755118 -1.688496,3.444724 z"
           inkscape:transform-center-x="0.50344417"
           inkscape:transform-center-y="0.050457451" />
      </g>
      <g
         transform="matrix(0.41092277,0.00284616,-0.00284616,0.41092277,24.500537,50.343952)"
         id="g4143">
        <path
           sodipodi:type="star"
           style="fill:#f0dc8b;fill-opacity:1;fill-rule:evenodd;stroke:none;filter:url(#filter4111)"
           id="path4145"
           sodipodi:sides="5"
           sodipodi:cx="33.374481"
           sodipodi:cy="27.74542"
           sodipodi:r1="5.7769794"
           sodipodi:r2="2.88849"
           sodipodi:arg1="0.60005021"
           sodipodi:arg2="1.2283687"
           inkscape:flatsided="false"
           inkscape:rounded="0"
           inkscape:randomized="0"
           d="m 38.142264,31.007588 -3.797901,-0.541377 -2.599061,2.821706 -0.658737,-3.779313 -3.486755,-1.5999 3.390779,-1.794367 0.444129,-3.810498 2.754353,2.670333 3.761242,-0.755118 -1.688496,3.444724 z"
           inkscape:transform-center-x="0.50344417"
           inkscape:transform-center-y="0.050457451" />
        <path
           inkscape:transform-center-y="0.050457451"
           inkscape:transform-center-x="0.50344417"
           d="m 38.142264,31.007588 -3.797901,-0.541377 -2.599061,2.821706 -0.658737,-3.779313 -3.486755,-1.5999 3.390779,-1.794367 0.444129,-3.810498 2.754353,2.670333 3.761242,-0.755118 -1.688496,3.444724 z"
           inkscape:randomized="0"
           inkscape:rounded="0"
           inkscape:flatsided="false"
           sodipodi:arg2="1.2283687"
           sodipodi:arg1="0.60005021"
           sodipodi:r2="2.88849"
           sodipodi:r1="5.7769794"
           sodipodi:cy="27.74542"
           sodipodi:cx="33.374481"
           sodipodi:sides="5"
           id="path4147"
           style="fill:#ffcc00;fill-opacity:1;fill-rule:evenodd;stroke:none"
           sodipodi:type="star" />
      </g>
    </g>
  </g>
</svg>
