<?xml version="1.0" encoding="UTF-8" standalone="no"?>
<svg
   xmlns:dc="http://purl.org/dc/elements/1.1/"
   xmlns:cc="http://creativecommons.org/ns#"
   xmlns:rdf="http://www.w3.org/1999/02/22-rdf-syntax-ns#"
   xmlns:svg="http://www.w3.org/2000/svg"
   xmlns="http://www.w3.org/2000/svg"
   xmlns:sodipodi="http://sodipodi.sourceforge.net/DTD/sodipodi-0.dtd"
   xmlns:inkscape="http://www.inkscape.org/namespaces/inkscape"
   viewBox="0 0 500 500"
   id="svg2"
   version="1.1"
   inkscape:version="0.92.1 r15371"
   width="100%"
   height="100%"
   sodipodi:docname="deskbar-applet.svg">
  <metadata
     id="metadata73">
    <rdf:RDF>
      <cc:Work
         rdf:about="">
        <dc:format>image/svg+xml</dc:format>
        <dc:type
           rdf:resource="http://purl.org/dc/dcmitype/StillImage" />
      </cc:Work>
    </rdf:RDF>
  </metadata>
  <sodipodi:namedview
     pagecolor="#ffffff"
     bordercolor="#666666"
     borderopacity="1"
     objecttolerance="10"
     gridtolerance="10"
     guidetolerance="10"
     inkscape:pageopacity="0"
     inkscape:pageshadow="2"
     inkscape:window-width="1366"
     inkscape:window-height="709"
     id="namedview71"
     showgrid="false"
     inkscape:zoom="0.25"
     inkscape:cx="1268.7099"
     inkscape:cy="5.4272511"
     inkscape:window-x="0"
     inkscape:window-y="0"
     inkscape:window-maximized="1"
     inkscape:current-layer="svg2" />
  <defs
     id="defs4">
    <linearGradient
       id="linearGradient3764"
       x1="1"
       x2="47"
       gradientUnits="userSpaceOnUse"
       gradientTransform="matrix(0,-1,1,0,-1.5e-6,47.999998)">
      <stop
         stop-color="#ed6d17"
         stop-opacity="1"
         id="stop7" />
      <stop
         offset="1"
         stop-color="#ef772a"
         stop-opacity="1"
         id="stop9" />
    </linearGradient>
    <clipPath
       id="clipPath-290788785">
      <g
         transform="translate(0,-1004.3622)"
         id="g12">
        <path
           d="m -24,13 c 0,1.105 -0.672,2 -1.5,2 -0.828,0 -1.5,-0.895 -1.5,-2 0,-1.105 0.672,-2 1.5,-2 0.828,0 1.5,0.895 1.5,2 z"
           transform="matrix(15.333333,0,0,11.5,414.99999,878.8622)"
           id="path14"
           inkscape:connector-curvature="0"
           style="fill:#1890d0" />
      </g>
    </clipPath>
    <clipPath
       id="clipPath-297324635">
      <g
         transform="translate(0,-1004.3622)"
         id="g17">
        <path
           d="m -24,13 c 0,1.105 -0.672,2 -1.5,2 -0.828,0 -1.5,-0.895 -1.5,-2 0,-1.105 0.672,-2 1.5,-2 0.828,0 1.5,0.895 1.5,2 z"
           transform="matrix(15.333333,0,0,11.5,414.99999,878.8622)"
           id="path19"
           inkscape:connector-curvature="0"
           style="fill:#1890d0" />
      </g>
    </clipPath>
  </defs>
  <g
     id="g33"
     transform="translate(0,452)" />
  <g
     id="g851">
    <circle
       r="142.41983"
       transform="matrix(-0.70563715,0.70857337,0.70857337,0.70563715,0,0)"
       id="path2996"
       style="fill:#ff7f2a;stroke:#4b4b4b;stroke-width:26;stroke-miterlimit:4;stroke-dasharray:none;stroke-opacity:1"
       cx="-104.61297"
       cy="358.95398" />
    <path
       inkscape:connector-curvature="0"
       id="path3766"
       d="m 226.49644,282.21111 -93.3381,92.63099"
       style="fill:none;stroke:#4b4b4b;stroke-width:38;stroke-linecap:butt;stroke-linejoin:miter;stroke-miterlimit:4;stroke-dasharray:none;stroke-opacity:1" />
    <path
       sodipodi:nodetypes="cc"
       inkscape:connector-curvature="0"
       id="path3766-3"
       d="M 136.69388,371.66012 52.548174,457.22004"
       style="fill:none;stroke:#323232;stroke-width:55;stroke-linecap:butt;stroke-linejoin:miter;stroke-miterlimit:4;stroke-dasharray:none;stroke-opacity:1" />
    <path
       sodipodi:nodetypes="cccccccccccccccccc"
       inkscape:connector-curvature="0"
       id="path40"
       d="m 83.34061,247.82804 -71.76958,-60.70733 74.87242,-53.55739 -0.40474,39.79704 43.16968,0.67453 -21.85466,-11.87167 23.52606,-41.56902 39.30167,-38.920098 121.69697,-25.933659 -58.35641,65.616897 -17.5522,57.99858 -14.66775,-12.2422 -38.752,-50.71679 -22.89418,22.51261 28.23615,39.68324 -45.02521,32.81499 -41.97266,-6.48668 z"
       style="fill:#ff7f2a;fill-opacity:1;stroke:none;stroke-width:3.05255699px;stroke-linecap:butt;stroke-linejoin:miter;stroke-opacity:1" />
  </g>
</svg>
