<?xml version="1.0" encoding="UTF-8" standalone="no"?>
<svg
   xmlns:dc="http://purl.org/dc/elements/1.1/"
   xmlns:cc="http://creativecommons.org/ns#"
   xmlns:rdf="http://www.w3.org/1999/02/22-rdf-syntax-ns#"
   xmlns:svg="http://www.w3.org/2000/svg"
   xmlns="http://www.w3.org/2000/svg"
   xmlns:sodipodi="http://sodipodi.sourceforge.net/DTD/sodipodi-0.dtd"
   xmlns:inkscape="http://www.inkscape.org/namespaces/inkscape"
   viewBox="0 0 512 512"
   id="svg2"
   version="1.1"
   inkscape:version="0.92.1 r15371"
   width="512"
   height="512"
   sodipodi:docname="distributor-logo.svg">
  <metadata
     id="metadata126">
    <rdf:RDF>
      <cc:Work
         rdf:about="">
        <dc:format>image/svg+xml</dc:format>
        <dc:type
           rdf:resource="http://purl.org/dc/dcmitype/StillImage" />
        <dc:title />
      </cc:Work>
    </rdf:RDF>
  </metadata>
  <sodipodi:namedview
     pagecolor="#ffffff"
     bordercolor="#666666"
     borderopacity="1"
     objecttolerance="10"
     gridtolerance="10"
     guidetolerance="10"
     inkscape:pageopacity="0"
     inkscape:pageshadow="2"
     inkscape:window-width="1366"
     inkscape:window-height="709"
     id="namedview124"
     showgrid="false"
     inkscape:zoom="0.70710679"
     inkscape:cx="274.39164"
     inkscape:cy="257.42828"
     inkscape:window-x="0"
     inkscape:window-y="0"
     inkscape:window-maximized="1"
     inkscape:current-layer="svg2">
    <inkscape:grid
       type="xygrid"
       id="grid3103"
       empspacing="5"
       visible="true"
       enabled="true"
       snapvisiblegridlinesonly="true" />
  </sodipodi:namedview>
  <defs
     id="defs4">
    <linearGradient
       id="linearGradient3764"
       x1="1"
       x2="47"
       gradientUnits="userSpaceOnUse"
       gradientTransform="rotate(-90,23.999998,24)">
      <stop
         stop-color="#e4e4e4"
         stop-opacity="1"
         id="stop7" />
      <stop
         offset="1"
         stop-color="#eee"
         stop-opacity="1"
         id="stop9" />
    </linearGradient>
    <clipPath
       id="clipPath-417599645">
      <g
         transform="translate(0,-1004.3622)"
         id="g17">
        <path
           d="m -24,13 c 0,1.105 -0.672,2 -1.5,2 -0.828,0 -1.5,-0.895 -1.5,-2 0,-1.105 0.672,-2 1.5,-2 0.828,0 1.5,0.895 1.5,2 z"
           transform="matrix(15.333333,0,0,11.5,414.99999,878.8622)"
           id="path19"
           inkscape:connector-curvature="0"
           style="fill:#1890d0" />
      </g>
    </clipPath>
  </defs>
  <g
     id="g4158"
     transform="matrix(7.2062004,0,0,7.2062004,-197.67966,-190.13451)">
    <g
       transform="translate(0,80)"
       id="g33" />
    <path
       d="m 87.089166,73.166229 c -0.908391,3.504199 -5.490578,10.814436 -7.939784,14.036919 -2.437706,3.233983 -2.144489,6.143133 -6.649066,5.007644 -4.493077,-1.12399 -5.749307,-0.91989 -10.409112,-0.672669 -4.605194,0.25872 -3.616309,-0.123607 -6.502462,1.100992 -2.874653,1.213099 -12.542103,-14.833199 -13.329754,-17.83146 -0.764653,-2.986762 -1.135489,-2.627431 0.876769,-5.849914 1.986385,-3.233983 2.291094,-6.433469 4.930025,-10.342994 2.638931,-3.929648 5.703311,-5.930404 5.479088,-8.92579 -0.876769,-11.127774 -1.549439,-16.698847 3.716917,-19.268785 5.007644,-2.449202 9.207512,-0.98888 10.857559,-0.158106 0.718665,0.359332 2.178986,1.066495 3.25698,2.291097 1.077994,1.201603 2.055372,3.009759 2.604434,5.300855 1.123991,4.593692 -0.471444,3.075877 0.807775,8.342237 1.259096,5.254862 3.817534,7.839173 6.939409,11.993043 3.133365,4.153871 6.390346,11.015663 5.355473,14.979806 m 0,0"
       id="SVGCleanerId_0"
       inkscape:connector-curvature="0"
       style="fill:#000000;fill-opacity:1;fill-rule:nonzero;stroke:none;stroke-width:2.87465072" />
    <path
       d="m 57.350905,45.911665 c 0.819273,-0.301838 0.684168,-0.347833 1.236097,-1.471821 0.436947,-0.86527 0.819274,-1.2361 0.807775,-2.549816 0,-1.279219 -0.425448,-1.719041 -1.066495,-2.561313 -0.618049,-0.796279 -1.595426,-0.842273 -2.222099,-0.741661 -0.359337,0.0575 -0.819274,0.482942 -1.13549,1.112491 -0.212724,0.425448 -0.370827,0.965882 -0.393825,1.526439 -0.03446,1.52644 0.08911,2.098496 0.471444,3.13337 0.436947,1.213102 1.503442,1.842651 2.302593,1.549436 m 0,0"
       id="path88"
       inkscape:connector-curvature="0"
       style="fill:#f9f9f9;fill-opacity:1;fill-rule:nonzero;stroke:none;stroke-width:2.87465072" />
    <path
       d="m 56.589126,40.653929 c 0.405325,0 0.919882,0.24722 1.178602,0.595052 0.27022,0.347833 0.448447,0.842273 0.448447,1.40283 0,0.819276 -0.08912,1.73054 -0.618049,2.009381 -0.169603,0.06612 -0.52894,0.169604 -0.730165,0.169604 -0.459945,0 -0.505933,-0.293214 -0.94288,-0.718663 -0.158112,-0.146607 -0.606558,-0.899765 -0.606558,-1.514941 0,-0.382328 -0.08911,-0.931386 0.270219,-1.425826 0.247221,-0.359332 0.560562,-0.528936 1.000384,-0.528936 m 0,0.0115"
       id="SVGCleanerId_1"
       inkscape:connector-curvature="0"
       style="fill:#000000;fill-opacity:1;fill-rule:nonzero;stroke:none;stroke-width:2.87465072" />
    <path
       d="m 65.85125,46.015152 c 2.066871,-0.201225 2.785536,-0.954384 3.156364,-2.2566 0.324832,-1.15561 0.336331,-2.437704 -0.572053,-3.952645 -0.86527,-1.437326 -1.359712,-1.661548 -2.604434,-1.762161 -1.920266,-0.146608 -2.828657,1.11249 -3.25698,2.00938 -0.448446,0.977382 -0.359337,0.842273 -0.32484,2.078373 0.03446,1.302217 0.807783,1.661548 1.279219,2.480824 0.482944,0.78478 2.089877,1.425827 2.3141,1.414328 m 0.01152,-0.0115"
       id="path91"
       inkscape:connector-curvature="0"
       style="fill:#f9f9f9;fill-opacity:1;fill-rule:nonzero;stroke:none;stroke-width:2.87465072" />
    <path
       d="m 65.684514,40.596435 c 1.032006,0 1.627057,0.86527 1.831157,1.966262 0.07759,0.505939 -0.03446,1.077994 -0.359329,1.483319 -0.370835,0.471443 -1.032006,0.741661 -1.560937,0.741661 -0.51744,0 -1.077994,0.07762 -1.391335,-0.301839 -0.301833,-0.405325 -0.359328,-1.27922 -0.359328,-1.920266 0,-0.707164 0.224223,-1.213103 0.59505,-1.606931 0.293218,-0.293214 0.807775,-0.359331 1.247597,-0.359331 m 0,0"
       id="SVGCleanerId_2"
       inkscape:connector-curvature="0"
       style="fill:#000000;fill-opacity:1;fill-rule:nonzero;stroke:none;stroke-width:2.87465072" />
    <path
       d="m 59.552889,52.000175 c -1.785161,0.06612 -4.605194,-4.625313 -4.682812,-2.673425 -0.04598,1.65005 0.04598,1.618428 0.04598,3.210985 0,1.066496 -0.517433,1.15561 -1.638548,2.762539 -0.583552,0.842273 -1.031998,1.762162 -1.379836,2.696423 -0.224223,0.549058 -0.425448,1.123988 -0.59505,1.696044 -0.06615,0.281716 -0.189726,0.583554 -0.27022,0.86527 -0.549054,1.943263 -2.561313,4.346472 -3.021258,6.289736 -0.471444,1.931765 -1.020499,3.167865 -0.94288,5.749301 0.06615,2.592935 0.08911,1.842652 0.919882,2.492323 0.830781,0.641047 1.673053,1.247598 2.97527,2.325592 1.379828,1.144111 4.222859,3.075875 4.605186,3.693924 0.405324,0.618048 0.405324,1.997884 0.158111,2.449205 -0.247221,0.436947 -2.39171,0.684168 -2.39171,0.684168 0,0 1.87427,2.457822 2.256597,2.797035 0.359328,0.336331 1.897268,1.966262 8.141009,0.86527 3.527199,-0.641047 6.243741,-2.480827 8.218627,-4.254481 2.549814,-2.345722 1.259096,-3.009759 1.583936,-4.176871 0.482943,-1.696044 2.043872,-2.325593 2.39171,-4.23436 0.04598,-0.270218 0.135105,-0.471443 0.405325,-0.899767 0.393825,-0.540433 0.301841,-1.684544 0.301841,-2.696421 0,-2.696423 -0.324839,-5.401469 -0.988884,-7.410851 -0.60655,-1.88577 -1.560938,-3.199485 -2.380212,-4.89553 -1.638547,-3.380589 -1.560937,-4.907028 -3.032757,-7.063017 -1.661545,-2.492322 -0.842272,-4.15387 -3.064379,-4.053257 -2.762538,0.146607 -4.996136,3.705425 -7.61207,3.806037 m 0,0"
       id="path100"
       inkscape:connector-curvature="0"
       style="fill:#f9f9f9;fill-opacity:1;fill-rule:nonzero;stroke:none;stroke-width:2.87465072" />
    <path
       sodipodi:nodetypes="ccccccscccccccscccccccccccccscscccsccccccccsccccccs"
       inkscape:connector-curvature="0"
       id="path102"
       d="m 60.496094,43.146484 c -0.707158,0.07762 -1.145909,0.0111 -1.830078,0.335938 -0.730164,0.347833 -1.81098,1.167448 -2.394532,1.65039 -1.121116,0.922764 -1.919026,1.302013 -1.873046,2.4375 0.03161,1.077994 0.965829,1.9203 1.986328,2.705079 1.009008,0.787655 1.874138,1.765571 2.492187,1.966797 0.641047,0.2271 1.754505,0.18164 2.550781,0.18164 1.773661,10e-7 4.074517,-2.099873 5.365235,-2.470703 1.606933,-0.482941 2.169354,-1.289721 2.292969,-3.109375 0.112108,-1.517816 -2.257809,-1.788833 -4.042969,-2.337891 -0.537556,-0.155231 -0.953551,-0.377878 -1.53711,-0.783203 -0.629548,-0.436946 -2.009381,-0.662893 -3.009765,-0.550781 z M 44.341797,73.570312 c -1.123982,-0.023 -1.751827,0.542176 -2.458985,1.214844 -0.707166,0.672668 -1.560776,2.380164 -2.796874,3.210938 h -0.0039 c -1.224606,0.830774 -4.358021,0.763774 -5.154297,1.738281 -0.776161,0.977378 0.03467,2.392107 0.01172,5.019531 0,1.123991 -0.200831,1.966223 -0.335937,2.650391 -0.201225,0.86527 -0.324554,1.471795 0.06641,2.089844 0.707166,1.089493 1.818478,1.372685 8.251953,2.628906 3.435208,0.672669 6.691888,2.401851 8.859375,2.580078 2.178986,0.146612 2.651347,-0.540555 3.976562,-1.638672 1.313716,-1.112492 1.740387,-0.775887 1.697266,-3.199219 -0.04598,-2.426208 -1.696042,-3.145293 -3.570312,-5.939453 -1.874278,-2.797035 -2.18106,-3.31186 -3.425782,-5.166015 -1.247605,-1.831153 -3.714354,-5.154957 -5.117187,-5.189454 z M 75.240234,74.875 c -0.876769,0 -1.043493,0.02203 -1.785156,0.458984 -0.402483,0.235721 -0.4375,1.762158 -0.4375,3.570313 0,1.425823 0.01011,3.031775 -0.125,4.333984 -0.31334,3.032757 -0.973755,4.795237 -1.03125,6.75 -0.06901,1.951889 0.63803,3.265763 1.267578,3.783203 0.618048,0.526057 1.551611,0.931641 3.583985,0.931641 2.04388,0 3.30999,-0.427592 4.658203,-1.695313 0.86527,-0.810649 1.785116,-1.573707 4.435547,-3.28125 2.112866,-1.34533 5.288412,-2.828769 5.917968,-3.423828 0.313333,-0.290335 0.875895,-0.570442 0.921875,-1.648437 0.03446,-0.931389 -0.765609,-1.23766 -1.326172,-1.5625 -0.784777,-0.425448 -2.819336,-1.965527 -3.839843,-3.480469 -0.618081,-0.919888 0.258068,-2.438141 -0.595703,-3.59375 v 0.01563 c -0.505942,-0.695666 -1.415448,-0.394531 -1.539063,-0.394531 -0.146604,0 -0.932761,1.277607 -1.246094,1.648437 -0.339205,0.393827 -1.223967,1.054952 -1.853515,1.425782 -0.626682,0.382328 -1.122489,0.585208 -2.470703,0.496093 -1.336722,-0.100614 -1.719084,-0.5289 -2.144532,-0.865234 -0.416824,-0.347833 -0.841257,-0.618665 -0.763671,-1.460938 0.09194,-0.842273 0.203832,-1.438326 -0.06641,-1.685546 C 76.507564,74.918427 76.117003,74.875 75.240234,74.875 Z"
       style="fill:#f9de69;fill-opacity:1;fill-rule:nonzero;stroke:none;stroke-width:2.87465072" />
  </g>
</svg>
