<?xml version="1.0" encoding="UTF-8" standalone="no"?>
<!-- Created with Inkscape (http://www.inkscape.org/) -->

<svg
   xmlns:dc="http://purl.org/dc/elements/1.1/"
   xmlns:cc="http://creativecommons.org/ns#"
   xmlns:rdf="http://www.w3.org/1999/02/22-rdf-syntax-ns#"
   xmlns:svg="http://www.w3.org/2000/svg"
   xmlns="http://www.w3.org/2000/svg"
   xmlns:sodipodi="http://sodipodi.sourceforge.net/DTD/sodipodi-0.dtd"
   xmlns:inkscape="http://www.inkscape.org/namespaces/inkscape"
   id="svg2"
   version="1.1"
   inkscape:version="0.92.1 r15371"
   width="512"
   height="512"
   viewBox="0 0 511.99999 511.99999"
   sodipodi:docname="ebook-speaker.svg">
  <metadata
     id="metadata8">
    <rdf:RDF>
      <cc:Work
         rdf:about="">
        <dc:format>image/svg+xml</dc:format>
        <dc:type
           rdf:resource="http://purl.org/dc/dcmitype/StillImage" />
        <dc:title />
      </cc:Work>
    </rdf:RDF>
  </metadata>
  <defs
     id="defs6" />
  <sodipodi:namedview
     pagecolor="#ffffff"
     bordercolor="#666666"
     borderopacity="1"
     objecttolerance="10"
     gridtolerance="10"
     guidetolerance="10"
     inkscape:pageopacity="0"
     inkscape:pageshadow="2"
     inkscape:window-width="1366"
     inkscape:window-height="709"
     id="namedview4"
     inkscape:document-units="px"
     showgrid="false"
     inkscape:zoom="0.5814296"
     inkscape:cx="492.28108"
     inkscape:cy="351.11333"
     inkscape:window-x="0"
     inkscape:window-y="0"
     inkscape:window-maximized="1"
     inkscape:current-layer="svg2" />
  <g
     id="g50">
    <rect
       ry="0"
       rx="0"
       y="127.02596"
       x="130.01299"
       height="347.11783"
       width="285.59167"
       id="rect2998-3-6"
       style="fill:#2b0000;fill-opacity:1;stroke:none" />
    <rect
       ry="0"
       rx="0"
       y="51.625179"
       x="128.75406"
       height="347.11783"
       width="285.59167"
       id="rect2998-3"
       style="fill:#2b0000;fill-opacity:1;stroke:none" />
    <path
       sodipodi:nodetypes="cszcczsccc"
       inkscape:connector-curvature="0"
       id="path3804"
       d="m 130.45358,37.115801 c 0,0 -1.72552,-0.407775 -4.20752,0.307105 -7.07894,2.038932 -21.53985,7.886978 -29.233318,16.938023 -7.693467,9.051044 -12.012748,22.077456 -12.012748,22.077456 l 0,352.559615 c 0,0 2.381081,22.98434 13.63608,31.49283 11.254996,8.5085 20.677626,10.95107 28.648456,13.17432 2.86787,0.79991 6.09107,0.46176 6.09107,0.46176 l 0.32467,-87.95479 z"
       style="fill:#2b0000;stroke:none" />
    <rect
       ry="0"
       rx="0"
       y="37.032444"
       x="128.63553"
       height="347.11783"
       width="285.59167"
       id="rect2998"
       style="fill:#f03916;fill-opacity:1;stroke:none" />
    <path
       sodipodi:nodetypes="czcczcc"
       inkscape:connector-curvature="0"
       id="path3806"
       d="m 415.47184,460.67726 c 0,0 -24.8508,-5.65989 -25.97348,-28.57082 -1.12268,-22.91094 25.81117,-31.81751 25.81117,-31.81751 l -282.94861,0.32467 c 0,0 -28.90886,3.00969 -29.22016,29.22016 -0.3113,26.21048 26.94749,29.54484 26.94749,29.54484 z"
       style="fill:#ffffff;stroke:none" />
    <path
       inkscape:connector-curvature="0"
       id="path3855"
       d="m 129.32424,486.99999 0,-61.06701 61.06704,0 -0.22957,61.06701 -30.30395,-15.61112 z"
       style="fill:#f03916;stroke:none" />
    <g
       id="g35">
      <circle
         style="opacity:1;fill:#ffffff;fill-opacity:1;stroke:none;stroke-width:0.45875439;stroke-linecap:round;stroke-miterlimit:4;stroke-dasharray:none;stroke-opacity:1"
         id="path881"
         cx="272.33688"
         cy="212.58394"
         r="114.81474" />
      <path
         style="fill:#333333;stroke:none;stroke-width:0.41567063"
         d="M 263.34196,280.84312 V 147.03867 c 0,0 0.57481,-3.45968 -2.71224,-4.82178 -3.28702,-1.36208 -6.93135,2.41089 -6.93135,2.41089 l -37.06737,38.57424 0.30134,59.97089 38.87557,38.57426 c 0,0 2.50859,2.82464 5.27387,1.88347 2.76523,-0.9411 2.26018,-2.78752 2.26018,-2.78752 z"
         id="path4041"
         inkscape:connector-curvature="0"
         sodipodi:nodetypes="cczcccczc" />
      <path
         style="fill:#5d6a7b;stroke:none;stroke-width:0.41567063"
         d="m 214.28507,243.2221 -0.21311,-60.09268 -24.29277,-0.21308 c 0,0 -4.8725,0.38657 -7.03211,3.19639 -2.15966,2.80984 -2.13094,5.75355 -2.13094,5.75355 v 40.70109 c 0,0 -0.123,5.20222 2.34399,7.67139 2.46705,2.46918 6.17975,2.98334 6.17975,2.98334 z"
         id="path4043"
         inkscape:connector-curvature="0"
         sodipodi:nodetypes="ccczcczcc" />
      <path
         sodipodi:open="true"
         sodipodi:end="0.78539819"
         sodipodi:start="5.4977871"
         d="m 330.47287,140.99421 a 103.67358,103.67358 0 0 1 30.36529,73.30829 103.67358,103.67358 0 0 1 -30.36529,73.3083"
         sodipodi:ry="103.67358"
         sodipodi:rx="103.67358"
         sodipodi:cy="214.30251"
         sodipodi:cx="257.16458"
         id="path3000"
         style="color:#000000;display:inline;overflow:visible;visibility:visible;fill:none;stroke:#394050;stroke-width:13.65745068;stroke-linecap:butt;stroke-linejoin:round;stroke-miterlimit:4;stroke-dasharray:none;stroke-dashoffset:0;stroke-opacity:1;marker:none;enable-background:accumulate"
         sodipodi:type="arc" />
      <path
         sodipodi:open="true"
         sodipodi:end="0.78539819"
         sodipodi:start="5.4977871"
         sodipodi:type="arc"
         style="color:#000000;display:inline;overflow:visible;visibility:visible;fill:none;stroke:#333333;stroke-width:13.65745068;stroke-linecap:butt;stroke-linejoin:round;stroke-miterlimit:4;stroke-dasharray:none;stroke-dashoffset:0;stroke-opacity:1;marker:none;enable-background:accumulate"
         id="path3770"
         sodipodi:cx="257.16458"
         sodipodi:cy="214.30246"
         sodipodi:rx="70.04969"
         sodipodi:ry="70.04969"
         d="m 306.69719,164.76985 a 70.04969,70.04969 0 0 1 20.51708,49.53261 70.04969,70.04969 0 0 1 -20.51708,49.53261" />
      <path
         sodipodi:open="true"
         sodipodi:end="0.78539819"
         sodipodi:start="5.4977871"
         d="m 282.92153,188.54551 a 36.425831,36.425831 0 0 1 10.66888,25.75695 36.425831,36.425831 0 0 1 -10.66888,25.75695"
         sodipodi:ry="36.425831"
         sodipodi:rx="36.425831"
         sodipodi:cy="214.30246"
         sodipodi:cx="257.16458"
         id="path3772"
         style="color:#000000;display:inline;overflow:visible;visibility:visible;fill:none;stroke:#5d6a7b;stroke-width:13.65745068;stroke-linecap:butt;stroke-linejoin:round;stroke-miterlimit:4;stroke-dasharray:none;stroke-dashoffset:0;stroke-opacity:1;marker:none;enable-background:accumulate"
         sodipodi:type="arc" />
    </g>
  </g>
</svg>
