<?xml version="1.0" encoding="UTF-8" standalone="no"?>
<!-- Created with Inkscape (http://www.inkscape.org/) -->

<svg
   xmlns:dc="http://purl.org/dc/elements/1.1/"
   xmlns:cc="http://creativecommons.org/ns#"
   xmlns:rdf="http://www.w3.org/1999/02/22-rdf-syntax-ns#"
   xmlns:svg="http://www.w3.org/2000/svg"
   xmlns="http://www.w3.org/2000/svg"
   xmlns:sodipodi="http://sodipodi.sourceforge.net/DTD/sodipodi-0.dtd"
   xmlns:inkscape="http://www.inkscape.org/namespaces/inkscape"
   id="svg2"
   version="1.1"
   inkscape:version="0.92.1 r15371"
   width="512"
   height="512"
   sodipodi:docname="expoblending.svg">
  <sodipodi:namedview
     pagecolor="#ffffff"
     bordercolor="#666666"
     borderopacity="1"
     objecttolerance="10"
     gridtolerance="10"
     guidetolerance="10"
     inkscape:pageopacity="0"
     inkscape:pageshadow="2"
     inkscape:window-width="1366"
     inkscape:window-height="709"
     id="namedview4"
     showgrid="false"
     inkscape:zoom="0.5"
     inkscape:cx="432.44023"
     inkscape:cy="134.12521"
     inkscape:window-x="0"
     inkscape:window-y="0"
     inkscape:window-maximized="1"
     inkscape:current-layer="svg2" />
  <metadata
     id="metadata8">
    <rdf:RDF>
      <cc:Work
         rdf:about="">
        <dc:format>image/svg+xml</dc:format>
        <dc:type
           rdf:resource="http://purl.org/dc/dcmitype/StillImage" />
        <dc:title />
      </cc:Work>
    </rdf:RDF>
  </metadata>
  <defs
     id="defs6">
    <clipPath
       id="clipPath3919"
       clipPathUnits="userSpaceOnUse">
      <g
         clip-path="none"
         transform="translate(-892.82097,-182.60403)"
         id="g3921">
        <path
           sodipodi:type="arc"
           style="fill:none;stroke:#6d6555;stroke-width:45.84608078;stroke-miterlimit:4;stroke-opacity:1;stroke-dasharray:none"
           id="path3923"
           sodipodi:cx="322.71185"
           sodipodi:cy="171.93221"
           sodipodi:rx="138.30508"
           sodipodi:ry="138.30508"
           d="M 461.01694,171.93221 A 138.30508,138.30508 0 0 1 322.71185,310.23729 138.30508,138.30508 0 0 1 184.40677,171.93221 138.30508,138.30508 0 0 1 322.71185,33.627121 138.30508,138.30508 0 0 1 461.01694,171.93221 Z"
           transform="matrix(0.89019607,0,0,0.89019607,32.689264,13.794084)" />
        <rect
           style="fill:#6d6555;fill-opacity:1;fill-rule:evenodd;stroke:none"
           id="rect3925"
           width="45.559322"
           height="208.27118"
           x="154.5797"
           y="411.63419"
           ry="20.9"
           transform="matrix(0.85401398,-0.52025005,0.52025005,0.85401398,0,0)" />
      </g>
    </clipPath>
  </defs>
  <g
     id="g836">
    <rect
       transform="matrix(0.99991031,-0.01339323,0.01339323,0.99991031,0,0)"
       y="122.85979"
       x="57.357178"
       height="287.51987"
       width="346.08871"
       id="rect2997-3"
       style="fill:#00bbf2;fill-opacity:1;stroke:#ffffff;stroke-width:11.18132782;stroke-linecap:round;stroke-linejoin:round;stroke-miterlimit:4;stroke-opacity:1;stroke-dasharray:none" />
    <rect
       transform="matrix(0.89137186,-0.45327278,0.45327278,0.89137186,0,0)"
       y="201.16292"
       x="-67.975014"
       height="287.5199"
       width="346.08871"
       id="rect2997"
       style="fill:#ff6600;fill-opacity:1;stroke:#ffffff;stroke-width:11.18132782;stroke-linecap:round;stroke-linejoin:round;stroke-miterlimit:4;stroke-opacity:1;stroke-dasharray:none" />
    <path
       sodipodi:open="true"
       sodipodi:end="6.2784904"
       sodipodi:start="0"
       transform="matrix(0.44019686,-0.22384514,0.21117465,0.41528005,-307.2575,409.99628)"
       d="m 1014.2857,126.28571 a 71.428574,74.285713 0 1 1 -8e-4,-0.34876"
       sodipodi:ry="74.285713"
       sodipodi:rx="71.428574"
       sodipodi:cy="126.28571"
       sodipodi:cx="942.85712"
       id="path3767"
       style="fill:#faec6d;fill-opacity:1;stroke:none"
       sodipodi:type="arc" />
    <path
       sodipodi:nodetypes="cccczzc"
       inkscape:connector-curvature="0"
       id="path3787"
       d="m 115.22312,364.259 47.79051,95.01937 299.30696,-152.72892 -40.72958,-78.01912 c 0,0 -34.58295,36.64635 -73.53231,50.59127 -38.94934,13.94493 -118.57958,-4.55609 -158.39379,13.49272 -39.81417,18.04883 -74.44179,71.64468 -74.44179,71.64468 z"
       style="fill:#803300;stroke:#000000;stroke-width:0.46588865px;stroke-linecap:butt;stroke-linejoin:miter;stroke-opacity:1" />
    <polygon
       style="fill:#45d03f;fill-opacity:1"
       transform="matrix(0,10.27761,-10.27761,0,501.74356,3.514521)"
       points="16,30 30,16 16,2.001 16,10 2,10 2,22 16,22 "
       id="polygon3780" />
  </g>
</svg>
