<?xml version="1.0" encoding="UTF-8" standalone="no"?>
<!-- Created with Inkscape (http://www.inkscape.org/) -->

<svg
   xmlns:dc="http://purl.org/dc/elements/1.1/"
   xmlns:cc="http://creativecommons.org/ns#"
   xmlns:rdf="http://www.w3.org/1999/02/22-rdf-syntax-ns#"
   xmlns:svg="http://www.w3.org/2000/svg"
   xmlns="http://www.w3.org/2000/svg"
   xmlns:sodipodi="http://sodipodi.sourceforge.net/DTD/sodipodi-0.dtd"
   xmlns:inkscape="http://www.inkscape.org/namespaces/inkscape"
   id="svg2"
   version="1.1"
   inkscape:version="0.92.2 (5c3e80d, 2017-08-06)"
   width="512"
   height="512"
   sodipodi:docname="fotowall.svg">
  <sodipodi:namedview
     pagecolor="#ffffff"
     bordercolor="#666666"
     borderopacity="1"
     objecttolerance="10"
     gridtolerance="10"
     guidetolerance="10"
     inkscape:pageopacity="0"
     inkscape:pageshadow="2"
     inkscape:window-width="1230"
     inkscape:window-height="716"
     id="namedview4"
     showgrid="false"
     inkscape:zoom="0.5"
     inkscape:cx="318.47455"
     inkscape:cy="247.51107"
     inkscape:window-x="39"
     inkscape:window-y="20"
     inkscape:window-maximized="0"
     inkscape:current-layer="svg2" />
  <metadata
     id="metadata8">
    <rdf:RDF>
      <cc:Work
         rdf:about="">
        <dc:format>image/svg+xml</dc:format>
        <dc:type
           rdf:resource="http://purl.org/dc/dcmitype/StillImage" />
        <dc:title />
      </cc:Work>
    </rdf:RDF>
  </metadata>
  <defs
     id="defs6">
    <clipPath
       id="clipPath3919"
       clipPathUnits="userSpaceOnUse">
      <g
         clip-path="none"
         transform="translate(-892.82097,-182.60403)"
         id="g3921">
        <path
           sodipodi:type="arc"
           style="fill:none;stroke:#6d6555;stroke-width:45.84608078;stroke-miterlimit:4;stroke-opacity:1;stroke-dasharray:none"
           id="path3923"
           sodipodi:cx="322.71185"
           sodipodi:cy="171.93221"
           sodipodi:rx="138.30508"
           sodipodi:ry="138.30508"
           d="M 461.01694,171.93221 A 138.30508,138.30508 0 0 1 322.71185,310.23729 138.30508,138.30508 0 0 1 184.40677,171.93221 138.30508,138.30508 0 0 1 322.71185,33.627121 138.30508,138.30508 0 0 1 461.01694,171.93221 Z"
           transform="matrix(0.89019607,0,0,0.89019607,32.689264,13.794084)" />
        <rect
           style="fill:#6d6555;fill-opacity:1;fill-rule:evenodd;stroke:none"
           id="rect3925"
           width="45.559322"
           height="208.27118"
           x="154.5797"
           y="411.63419"
           ry="20.9"
           transform="matrix(0.85401398,-0.52025005,0.52025005,0.85401398,0,0)" />
      </g>
    </clipPath>
  </defs>
  <g
     id="g828"
     transform="matrix(0.53549344,0.41497631,-0.41497631,0.53549344,318.14386,93.802024)">
    <rect
       transform="rotate(-26.953857)"
       y="201.16292"
       x="-67.975014"
       height="287.5199"
       width="346.08871"
       id="rect2997"
       style="fill:#ff6600;fill-opacity:1;stroke:#ffffff;stroke-width:11.18132782;stroke-linecap:round;stroke-linejoin:round;stroke-miterlimit:4;stroke-dasharray:none;stroke-opacity:1" />
    <path
       sodipodi:open="true"
       sodipodi:end="6.2784904"
       sodipodi:start="0"
       transform="matrix(0.44019686,-0.22384514,0.21117465,0.41528005,-307.2575,409.99628)"
       d="m 1014.2857,126.28571 a 71.428574,74.285713 0 0 1 -71.34475,74.28567 71.428574,74.285713 0 0 1 -71.51221,-74.11128 71.428574,74.285713 0 0 1 71.17686,-74.459639 71.428574,74.285713 0 0 1 71.6793,73.936489"
       sodipodi:ry="74.285713"
       sodipodi:rx="71.428574"
       sodipodi:cy="126.28571"
       sodipodi:cx="942.85712"
       id="path3767"
       style="fill:#faec6d;fill-opacity:1;stroke:none"
       sodipodi:type="arc" />
    <path
       sodipodi:nodetypes="cccczzc"
       inkscape:connector-curvature="0"
       id="path3787"
       d="m 115.22312,364.259 47.79051,95.01937 299.30696,-152.72892 -40.72958,-78.01912 c 0,0 -34.58295,36.64635 -73.53231,50.59127 -38.94934,13.94493 -118.57958,-4.55609 -158.39379,13.49272 -39.81417,18.04883 -74.44179,71.64468 -74.44179,71.64468 z"
       style="fill:#803300;stroke:#000000;stroke-width:0.46588865px;stroke-linecap:butt;stroke-linejoin:miter;stroke-opacity:1" />
  </g>
  <g
     id="g867"
     transform="matrix(0.82885333,-0.2362875,0.2362875,0.82885333,212.44659,230.91691)">
    <rect
       transform="rotate(10.819748)"
       y="13.7188"
       x="-211.14761"
       height="226.00082"
       width="272.03799"
       id="rect2997-6"
       style="fill:#45d03f;fill-opacity:1;stroke:#ffffff;stroke-width:8.7889204;stroke-linecap:round;stroke-linejoin:round;stroke-miterlimit:4;stroke-dasharray:none;stroke-opacity:1" />
    <path
       sodipodi:open="true"
       sodipodi:end="6.2784904"
       sodipodi:start="0"
       transform="rotate(10.819747)"
       d="m -125.35102,79.635605 a 27.726952,27.2038 0 0 1 -27.69441,27.203785 27.726952,27.2038 0 0 1 -27.75942,-27.139926 27.726952,27.2038 0 0 1 27.62925,-27.267491 27.726952,27.2038 0 0 1 27.82427,27.075913"
       sodipodi:ry="27.2038"
       sodipodi:rx="27.726952"
       sodipodi:cy="79.635605"
       sodipodi:cx="-153.07797"
       id="path3767-7"
       style="fill:#faec6d;fill-opacity:1;stroke:none;stroke-width:0.37703115"
       sodipodi:type="arc" />
    <path
       sodipodi:nodetypes="cccczzc"
       inkscape:connector-curvature="0"
       id="path3787-5"
       d="m -231.59998,110.3542 -16.05717,82.04685 259.498922,49.21819 12.258918,-68.08469 c 0,0 -39.131294,6.11779 -70.045195,-3.97143 -30.913893,-10.08919 -71.481215,-59.9245 -104.908395,-67.88033 -33.42717,-7.955796 -80.74708,8.67141 -80.74708,8.67141 z"
       style="fill:#30902b;fill-opacity:1;stroke:none;stroke-width:0.36620498px;stroke-linecap:butt;stroke-linejoin:miter;stroke-opacity:1" />
  </g>
  <g
     id="g908"
     transform="matrix(0.86187565,0,0,0.86187565,-460.7323,-2.9445601)">
    <rect
       transform="rotate(10.819748)"
       y="-35.811352"
       x="613.03607"
       height="226.00082"
       width="272.03799"
       id="rect2997-5"
       style="fill:#00bbf2;fill-opacity:1;stroke:#ffffff;stroke-width:8.7889204;stroke-linecap:round;stroke-linejoin:round;stroke-miterlimit:4;stroke-dasharray:none;stroke-opacity:1" />
    <path
       sodipodi:open="true"
       sodipodi:end="6.2784904"
       sodipodi:start="0"
       transform="rotate(10.819747)"
       d="M 698.83266,30.105469 A 27.726952,27.2038 0 0 1 671.13826,57.30925 27.726952,27.2038 0 0 1 643.37884,30.169328 27.726952,27.2038 0 0 1 671.00808,2.9018372 27.726952,27.2038 0 0 1 698.83236,29.97775"
       sodipodi:ry="27.2038"
       sodipodi:rx="27.726952"
       sodipodi:cy="30.105469"
       sodipodi:cx="671.10571"
       id="path3767-6"
       style="fill:#faec6d;fill-opacity:1;stroke:none;stroke-width:0.37703115"
       sodipodi:type="arc" />
    <path
       sodipodi:nodetypes="cccczzc"
       inkscape:connector-curvature="0"
       id="path3787-2"
       d="m 587.22967,216.42022 -16.05717,82.04685 259.49892,49.21819 12.25892,-68.08469 c 0,0 -39.13129,6.11779 -70.0452,-3.97142 -30.91389,-10.0892 -71.48121,-59.92451 -104.90839,-67.88034 -33.42717,-7.9558 -80.74708,8.67141 -80.74708,8.67141 z"
       style="fill:#007ea2;fill-opacity:1;stroke:none;stroke-width:0.36620498px;stroke-linecap:butt;stroke-linejoin:miter;stroke-opacity:1" />
  </g>
  <g
     id="g952"
     transform="matrix(1.034437,0,0,1.034437,-13.494596,26.477327)">
    <rect
       transform="rotate(-21.242823)"
       y="167.10304"
       x="161.62582"
       height="188.30013"
       width="226.65753"
       id="rect2997-6-1"
       style="fill:#ff5599;fill-opacity:1;stroke:#ffffff;stroke-width:7.32278204;stroke-linecap:round;stroke-linejoin:round;stroke-miterlimit:4;stroke-dasharray:none;stroke-opacity:1" />
    <path
       sodipodi:open="true"
       sodipodi:end="6.2784904"
       sodipodi:start="0"
       transform="rotate(-21.242824)"
       d="m 233.11012,222.02382 a 23.101633,22.665752 0 0 1 -23.07452,22.66574 23.101633,22.665752 0 0 1 -23.12869,-22.61253 23.101633,22.665752 0 0 1 23.02023,-22.71882 23.101633,22.665752 0 0 1 23.18272,22.5592"
       sodipodi:ry="22.665752"
       sodipodi:rx="23.101633"
       sodipodi:cy="222.02382"
       sodipodi:cx="210.00848"
       id="path3767-7-2"
       style="fill:#faec6d;fill-opacity:1;stroke:none;stroke-width:0.31413606"
       sodipodi:type="arc" />
    <path
       sodipodi:nodetypes="cccczzc"
       inkscape:connector-curvature="0"
       id="path3787-5-7"
       d="m 256.29526,203.14899 24.95069,65.03497 205.00017,-80.02129 -21.45728,-53.49641 c 0,0 -24.92464,21.62719 -51.21523,28.17617 -26.29056,6.549 -76.97675,-10.69699 -104.09837,-1.53003 -27.1216,9.16698 -53.17998,41.83659 -53.17998,41.83659 z"
       style="fill:#ff2a7f;fill-opacity:1;stroke:none;stroke-width:0.30511588px;stroke-linecap:butt;stroke-linejoin:miter;stroke-opacity:1" />
  </g>
</svg>
