<?xml version="1.0" encoding="UTF-8" standalone="no"?>
<!-- Generator: flash2svg, http://dissentgraphics.com/tools/flash2svg -->

<svg
   xmlns:dc="http://purl.org/dc/elements/1.1/"
   xmlns:cc="http://creativecommons.org/ns#"
   xmlns:rdf="http://www.w3.org/1999/02/22-rdf-syntax-ns#"
   xmlns:svg="http://www.w3.org/2000/svg"
   xmlns="http://www.w3.org/2000/svg"
   xmlns:sodipodi="http://sodipodi.sourceforge.net/DTD/sodipodi-0.dtd"
   xmlns:inkscape="http://www.inkscape.org/namespaces/inkscape"
   id="Android-Studio"
   image-rendering="optimizeSpeed"
   version="1.1"
   x="0px"
   y="0px"
   width="500"
   height="500"
   viewBox="0 0 500 500"
   enable-background="new 0 0 1024 1024"
   inkscape:version="0.48.5 r10040"
   sodipodi:docname="dalvik.svg">
  <metadata
     id="metadata78">
    <rdf:RDF>
      <cc:Work
         rdf:about="">
        <dc:format>image/svg+xml</dc:format>
        <dc:type
           rdf:resource="http://purl.org/dc/dcmitype/StillImage" />
      </cc:Work>
    </rdf:RDF>
  </metadata>
  <sodipodi:namedview
     pagecolor="#ffffff"
     bordercolor="#666666"
     borderopacity="1"
     objecttolerance="10"
     gridtolerance="10"
     guidetolerance="10"
     inkscape:pageopacity="0"
     inkscape:pageshadow="2"
     inkscape:window-width="1366"
     inkscape:window-height="716"
     id="namedview76"
     showgrid="false"
     inkscape:zoom="0.23046875"
     inkscape:cx="51.618224"
     inkscape:cy="443.39224"
     inkscape:window-x="0"
     inkscape:window-y="0"
     inkscape:window-maximized="1"
     inkscape:current-layer="Android-Studio"
     showguides="true"
     inkscape:guide-bbox="true" />
  <defs
     transform="matrix(1 0 0 1 0 0) "
     id="defs3" />
  <mask
     id="bg2">
    <g
       id="g">
      <g
         id="shape16">
        <path
           id="path10"
           d="m 929.85,289.65 c -2.35,-4.35 -4.95,-9 -7.65,-13.6 -20.3,-34.5 -45.8,-67.2 -76.35,-97.75 C 773.25,105.7 688.7,61.65 592.2,46.25 c -16.25,-2.6 -32.8,-4.4 -50.05,-5.35 -9.7,-0.55 -19.85,-0.85 -30.1,-0.85 -9.35,0 -18.6,0.25 -27.9,0.75 -118.35,6.1 -220.3,51.95 -305.85,137.5 -20.5,20.5 -38.75,41.95 -54.7,64.4 -15.35,21.55 -28.55,44 -39.6,67.2 l -0.025,-0.025 Q 40.05,401.873 40.05,512.05 c 0,130.35 46.1,241.65 138.25,333.8 56.7,56.65 120.55,95.9 191.1,117.55 36.75,11.25 74.8,17.85 114.75,19.95 0.15,0 0.25,0 0.4,0 8.5,0.45 16.6,0.7 24.5,0.7 1.2,0 2.1,0 3,0 10.3,0 20.5,-0.3 30.1,-0.8 2.5,-0.15 4.75,-0.3 6.95,-0.45 20.2,-1.45 39.9,-4.05 58.7,-7.7 7.95,-1.55 15.8,-3.3 23.4,-5.15 80.8,-20.3 152.15,-61.6 214.65,-124.1 48.6,-48.6 84.4,-102.5 107.35,-161.8 18.45,-47.65 28.65,-98.8 30.55,-153.5 0.2,-6.05 0.3,-12.25 0.3,-18.5 0,-0.65 0,-1.35 0,-2 0,-0.35 0,-0.65 0,-1 -0.2,-40.65 -4.95,-79.5 -14.3,-117 -1.1,-4.35 -2.35,-9 -3.65,-13.6 -1,-3.4 -2,-6.85 -3.15,-10.5 -1.6,-5.15 -3.4,-10.5 -5.3,-15.85 -5.05,-14.25 -10.85,-28.25 -17.45,-42.15 -1.85,-3.8 -3.75,-7.65 -5.7,-11.5 -1.45,-2.85 -2.95,-5.7 -4.65,-8.8 z"
           inkscape:connector-curvature="0"
           style="fill:#ffffff;fill-opacity:1" />
      </g>
    </g>
  </mask>
  <g
     id="g3926"
     transform="matrix(0.50897967,0,0,0.50897967,-9.4158942,-71.565802)">
    <g
       style="fill:#45d03f;fill-opacity:1"
       transform="matrix(1.0310232,0,0,1.0310232,-21.242479,-13.954344)"
       id="Calque.__2030">
      <g
         style="fill:#45d03f;fill-opacity:1"
         id="shape83">
        <path
           style="fill:#45d03f;fill-opacity:1"
           inkscape:connector-curvature="0"
           d="m 738.55,197.55 q -16.1,0 -27.45,11.4 l -86.1,86.1 c -7.6,7.55 -11.4,16.7 -11.4,27.45 0,10.75 3.8,19.9 11.4,27.5 0.3,0.3 0.6,0.6 0.85,0.85 L 766.9,209.8 c -0.25,-0.25 -0.55,-0.55 -0.85,-0.85 -7.6,-7.6 -16.75,-11.4 -27.5,-11.4 z m -491.9,38.85 c 0,10.75 3.8,19.9 11.4,27.5 l 86.1,86.1 c 7.55,7.55 16.7,11.35 27.45,11.35 10.75,0 19.9,-3.8 27.5,-11.35 7.55,-7.6 11.35,-16.75 11.35,-27.5 0,-10.75 -3.8,-19.9 -11.35,-27.45 L 313,208.95 c -7.6,-7.6 -16.75,-11.4 -27.5,-11.4 -10.75,0 -19.9,3.8 -27.45,11.4 -7.6,7.55 -11.4,16.7 -11.4,27.45 z"
           id="path70" />
        <path
           style="fill:#45d03f;fill-opacity:1"
           inkscape:connector-curvature="0"
           d="m 766.05,263.9 c 7.55,-7.6 11.35,-16.75 11.35,-27.5 0,-10.35 -3.5,-19.2 -10.5,-26.6 L 625.85,350.85 c 7.4,7 16.25,10.5 26.6,10.5 10.75,0 19.9,-3.8 27.5,-11.35 l 86.1,-86.1 z"
           id="path71" />
      </g>
    </g>
    <path
       id="path3"
       d="m 818.06196,588.21476 0,-6.18614 C 817.598,496.91765 787.18281,424.23052 726.86795,363.91566 695.11244,332.16014 659.903,308.70437 621.29118,293.54833 c -3.81479,-0.15466 -7.62957,-0.20621 -11.49591,-0.20621 -85.98733,0 -159.39619,30.41519 -220.175,91.194 -56.86093,56.86093 -87.12146,124.75381 -90.7816,203.67864 l 519.22329,0 z"
       inkscape:connector-curvature="0"
       style="fill:#45d03f;fill-opacity:1" />
    <path
       id="path4"
       d="m 818.06196,633.57978 0,-45.36502 -519.22329,0 c -0.15465,3.40237 -0.3093,6.8563 -0.36085,10.31023 l 0,35.05479 519.58414,0 z"
       inkscape:connector-curvature="0"
       style="fill:#394050;fill-opacity:1" />
    <path
       id="path5"
       d="m 609.79527,293.34212 c 3.86634,0 7.68112,0.0515 11.49591,0.20621 -35.31255,-13.86727 -73.51195,-20.82667 -114.59823,-20.82667 -85.98733,0 -159.39619,30.41518 -220.175,91.194 -59.33539,59.33538 -89.69902,130.63064 -91.14245,213.98886 l 0,4.63961 c -0.0516,0.51551 -0.0516,1.03102 -0.0516,1.54653 0,0.51551 0,1.03103 0.0516,1.54654 l 0,2.57756 103.46317,0 c 3.66014,-78.92483 33.92067,-146.81771 90.7816,-203.67864 60.77881,-60.77881 134.18767,-91.194 220.175,-91.194 z"
       inkscape:connector-curvature="0"
       style="fill:#45d03f;fill-opacity:1" />
    <path
       id="path6"
       d="m 298.83867,588.21476 -103.46317,0 0,45.36502 103.10232,0 0,-35.05479 c 0.0515,-3.45393 0.2062,-6.90786 0.36085,-10.31023 z"
       inkscape:connector-curvature="0"
       style="fill:#394050;fill-opacity:1" />
    <path
       id="path7"
       d="m 298.47782,633.57978 -103.10232,0 0,439.21592 103.10232,0 0,-439.21592 z"
       inkscape:connector-curvature="0"
       style="fill:#5d6a7b;fill-opacity:1" />
    <path
       id="path8"
       d="m 298.47782,633.57978 0,439.21592 519.58414,0 0,-439.21592 -519.58414,0 z"
       inkscape:connector-curvature="0"
       style="fill:#5d6a7b;fill-opacity:1" />
    <g
       style="fill:#394050"
       transform="matrix(1.0310232,0,0,0.90127665,-22.656561,66.17368)"
       id="shape14">
      <path
         style="fill:#394050;fill-opacity:1"
         inkscape:connector-curvature="0"
         d="m 688.4,730.7 q -14.65,-14.65 -35.35,-14.65 l -282,0 c -13.8,0 -25.6,4.9 -35.35,14.65 -9.75,9.75 -14.65,21.55 -14.65,35.35 l 0,302 c 0,13.8 4.9,25.6 14.65,35.35 9.75,9.75 21.55,14.65 35.35,14.65 l 282,0 c 13.8,0 25.6,-4.9 35.35,-14.65 9.75,-9.75 14.65,-21.55 14.65,-35.35 l 0,-302 c 0,-13.8 -4.9,-25.6 -14.65,-35.35 z"
         id="path9" />
    </g>
    <path
       style="fill:#000000;fill-opacity:0.29803922"
       inkscape:connector-curvature="0"
       d="m 713.98016,464.64663 q 0,-24.79611 -17.52739,-42.32351 c -11.65056,-11.65056 -25.72403,-17.47584 -42.27195,-17.47584 -16.54792,0 -30.62139,5.82528 -42.3235,17.47584 -11.65057,11.70212 -17.47585,25.77558 -17.47585,42.32351 0,16.54792 5.82528,30.62138 17.47585,42.27195 11.70211,11.70211 25.77558,17.52739 42.3235,17.52739 16.54792,0 30.62139,-5.82528 42.27195,-17.52739 11.70211,-11.65057 17.52739,-25.72403 17.52739,-42.27195 z m -294.97573,-2.2167 c 0,-16.54793 -5.82528,-30.62139 -17.5274,-42.32351 -11.65056,-11.65056 -25.72403,-17.47584 -42.27195,-17.47584 -16.54792,0 -30.62139,5.82528 -42.3235,17.47584 -11.65056,11.70212 -17.47584,25.77558 -17.47584,42.32351 0,16.54792 5.82528,30.62138 17.47584,42.27195 11.70211,11.70211 25.77558,17.52739 42.3235,17.52739 16.54792,0 30.62139,-5.82528 42.27195,-17.52739 11.70212,-11.65057 17.5274,-25.72403 17.5274,-42.27195 z"
       id="path11" />
    <path
       style="fill:#ffffff;fill-opacity:1"
       inkscape:connector-curvature="0"
       d="m 681.50293,439.74742 q -2.11566,-3.5591 -5.25821,-6.70166 c -6.39235,-6.39234 -14.12502,-9.58851 -23.14648,-9.58851 -9.02145,0 -16.75412,3.19617 -23.19802,9.58851 -2.11359,2.1136 -3.81478,4.3303 -5.20666,6.70166 -2.93842,4.89736 -4.38185,10.41333 -4.38185,16.49637 0,9.02145 3.19617,16.75412 9.58851,23.14647 6.4439,6.44389 14.17657,9.64006 23.19802,9.64006 9.02146,0 16.75413,-3.19617 23.14648,-9.64006 6.44389,-6.39235 9.64006,-14.12502 9.64006,-23.14647 0,-6.08304 -1.44343,-11.59901 -4.38185,-16.49637 z m -295.69745,-1.03103 c -1.39188,-2.37135 -3.14462,-4.58805 -5.25822,-6.70165 -6.39234,-6.39234 -14.12502,-9.58851 -23.14647,-9.58851 -9.02145,0 -16.75413,3.19617 -23.19802,9.58851 -2.1136,2.1136 -3.81479,4.3303 -5.20667,6.70165 -2.93841,4.89736 -4.38185,10.41334 -4.38185,16.49637 0,9.02146 3.19618,16.75413 9.58852,23.14647 6.44389,6.4439 14.17657,9.64007 23.19802,9.64007 9.02145,0 16.75413,-3.19617 23.14647,-9.64007 6.4439,-6.39234 9.64007,-14.12501 9.64007,-23.14647 0,-6.08303 -1.44343,-11.59901 -4.38185,-16.49637 z"
       id="path14" />
    <path
       style="fill:#ffffff;fill-opacity:1"
       inkscape:connector-curvature="0"
       d="m 771.66591,652.65371 q -7.26871,0 -12.42383,5.10356 c -3.40237,3.45393 -5.10356,7.57802 -5.10356,12.42383 0,4.84581 1.70119,8.9699 5.10356,12.37228 3.45393,3.45393 7.57802,5.15511 12.42383,5.15511 4.84581,0 8.9699,-1.70118 12.37228,-5.15511 3.45393,-3.40238 5.15512,-7.52647 5.15512,-12.37228 0,-4.84581 -1.70119,-8.9699 -5.15512,-12.42383 -3.40238,-3.40238 -7.52647,-5.10356 -12.37228,-5.10356 z M 654.38702,670.1811 c 0,-4.84581 -1.70118,-8.9699 -5.15511,-12.42383 -3.40238,-3.40238 -7.52647,-5.10356 -12.37228,-5.10356 -4.84581,0 -8.9699,1.70118 -12.42383,5.10356 -3.40238,3.45393 -5.10356,7.57802 -5.10356,12.42383 0,4.84581 1.70118,8.9699 5.10356,12.37228 3.45393,3.45393 7.57802,5.15511 12.42383,5.15511 4.84581,0 8.9699,-1.70118 12.37228,-5.15511 3.45393,-3.40238 5.15511,-7.52647 5.15511,-12.37228 z m -421.94624,17.52739 c 4.84581,0 8.9699,-1.70118 12.37228,-5.15511 3.45393,-3.40238 5.15511,-7.52647 5.15511,-12.37228 0,-4.84581 -1.70118,-8.9699 -5.15511,-12.42383 -3.40238,-3.40238 -7.52647,-5.10356 -12.37228,-5.10356 -4.84581,0 -8.9699,1.70118 -12.42383,5.10356 -3.40238,3.45393 -5.10357,7.57802 -5.10357,12.42383 0,4.84581 1.70119,8.9699 5.10357,12.37228 3.45393,3.45393 7.57802,5.15511 12.42383,5.15511 z m 134.80628,-35.05478 c -4.84581,0 -8.9699,1.70118 -12.42383,5.10356 -3.40237,3.45393 -5.10356,7.57802 -5.10356,12.42383 0,4.84581 1.70119,8.9699 5.10356,12.37228 3.45393,3.45393 7.57802,5.15511 12.42383,5.15511 4.84581,0 8.9699,-1.70118 12.37228,-5.15511 3.45393,-3.40238 5.15512,-7.52647 5.15512,-12.37228 0,-4.84581 -1.70119,-8.9699 -5.15512,-12.42383 -3.40238,-3.40238 -7.52647,-5.10356 -12.37228,-5.10356 z m 152.33368,17.52739 c 0,-4.84581 -1.70119,-8.9699 -5.15512,-12.42383 -3.40237,-3.40238 -7.52646,-5.10356 -12.37227,-5.10356 -4.84581,0 -8.96991,1.70118 -12.42383,5.10356 -3.40238,3.45393 -5.10357,7.57802 -5.10357,12.42383 0,4.84581 1.70119,8.9699 5.10357,12.37228 3.45392,3.45393 7.57802,5.15511 12.42383,5.15511 4.84581,0 8.9699,-1.70118 12.37227,-5.15511 3.45393,-3.40238 5.15512,-7.52647 5.15512,-12.37228 z"
       id="path26" />
  </g>
  <mask
     id="bg3">
    <g
       id="g1">
      <g
         id="shape46">
        <path
           id="path35"
           d="m 929.85,289.65 c -2.35,-4.35 -4.95,-9 -7.65,-13.6 -20.3,-34.5 -45.8,-67.2 -76.35,-97.75 C 773.25,105.7 688.7,61.65 592.2,46.25 c -16.25,-2.6 -32.8,-4.4 -50.05,-5.35 -9.7,-0.55 -19.85,-0.85 -30.1,-0.85 -9.35,0 -18.6,0.25 -27.9,0.75 -118.35,6.1 -220.3,51.95 -305.85,137.5 -20.5,20.5 -38.75,41.95 -54.7,64.4 -15.35,21.55 -28.55,44 -39.6,67.2 l -0.025,-0.025 Q 40.05,401.873 40.05,512.05 c 0,130.35 46.1,241.65 138.25,333.8 56.7,56.65 120.55,95.9 191.1,117.55 36.75,11.25 74.8,17.85 114.75,19.95 0.15,0 0.25,0 0.4,0 8.5,0.45 16.6,0.7 24.5,0.7 1.2,0 2.1,0 3,0 10.3,0 20.5,-0.3 30.1,-0.8 2.5,-0.15 4.75,-0.3 6.95,-0.45 20.2,-1.45 39.9,-4.05 58.7,-7.7 7.95,-1.55 15.8,-3.3 23.4,-5.15 80.8,-20.3 152.15,-61.6 214.65,-124.1 48.6,-48.6 84.4,-102.5 107.35,-161.8 18.45,-47.65 28.65,-98.8 30.55,-153.5 0.2,-6.05 0.3,-12.25 0.3,-18.5 0,-0.65 0,-1.35 0,-2 0,-0.35 0,-0.65 0,-1 -0.2,-40.65 -4.95,-79.5 -14.3,-117 -1.1,-4.35 -2.35,-9 -3.65,-13.6 -1,-3.4 -2,-6.85 -3.15,-10.5 -1.6,-5.15 -3.4,-10.5 -5.3,-15.85 -5.05,-14.25 -10.85,-28.25 -17.45,-42.15 -1.85,-3.8 -3.75,-7.65 -5.7,-11.5 -1.45,-2.85 -2.95,-5.7 -4.65,-8.8 z"
           inkscape:connector-curvature="0"
           style="fill:#ffffff;fill-opacity:1" />
      </g>
    </g>
  </mask>
</svg>
