<?xml version="1.0" encoding="UTF-8" standalone="no"?>
<!-- Created with Inkscape (http://www.inkscape.org/) -->

<svg
   xmlns:dc="http://purl.org/dc/elements/1.1/"
   xmlns:cc="http://creativecommons.org/ns#"
   xmlns:rdf="http://www.w3.org/1999/02/22-rdf-syntax-ns#"
   xmlns:svg="http://www.w3.org/2000/svg"
   xmlns="http://www.w3.org/2000/svg"
   xmlns:sodipodi="http://sodipodi.sourceforge.net/DTD/sodipodi-0.dtd"
   xmlns:inkscape="http://www.inkscape.org/namespaces/inkscape"
   id="svg2"
   version="1.1"
   inkscape:version="0.92.2 (5c3e80d, 2017-08-06)"
   width="512"
   height="512"
   sodipodi:docname="gcompris.svg">
  <metadata
     id="metadata8">
    <rdf:RDF>
      <cc:Work
         rdf:about="">
        <dc:format>image/svg+xml</dc:format>
        <dc:type
           rdf:resource="http://purl.org/dc/dcmitype/StillImage" />
        <dc:title />
      </cc:Work>
    </rdf:RDF>
  </metadata>
  <defs
     id="defs6" />
  <sodipodi:namedview
     pagecolor="#ffffff"
     bordercolor="#666666"
     borderopacity="1"
     objecttolerance="10"
     gridtolerance="10"
     guidetolerance="10"
     inkscape:pageopacity="0"
     inkscape:pageshadow="2"
     inkscape:window-width="1366"
     inkscape:window-height="715"
     id="namedview4"
     showgrid="false"
     inkscape:zoom="0.32593203"
     inkscape:cx="1415.1555"
     inkscape:cy="-137.55696"
     inkscape:window-x="0"
     inkscape:window-y="24"
     inkscape:window-maximized="1"
     inkscape:current-layer="svg2" />
  <g
     id="g940"
     transform="matrix(4.9568937,0,0,4.9568937,-5460.3119,-2749.4303)">
    <circle
       r="32"
       cy="595.53131"
       cx="1152.2236"
       id="path825"
       style="fill:#de6f2a;fill-opacity:1;stroke:none;stroke-width:2.01360345;stroke-miterlimit:4;stroke-dasharray:none;stroke-opacity:1" />
    <path
       sodipodi:nodetypes="ccccccccccccczcccccccc"
       inkscape:connector-curvature="0"
       id="path827"
       d="m 1133.2633,571.25033 -10.4508,-10.54668 c 0,0 -8.9981,10.03936 -12.1766,18.69639 -4.7081,13.72553 -3.549,27.517 3.2599,39.31034 6.0516,9.45452 14.597,16.16553 25.4263,20.20488 4.5829,1.65021 10.3051,1.69491 10.3051,1.69491 l -0.068,1.28814 c -7.323,0.66008 -16.1374,0.31315 -22.3051,4.27118 -2.1657,1.43818 -3.7966,4.27119 -3.7966,4.27119 l 58.2373,0.20339 c 0,0 -1.6591,-3.51781 -4.4068,-5.22034 -6.8221,-2.88113 -14.276,-3.44787 -21.6271,-3.59322 v -1.35593 c 0,0 5.3645,-0.24522 7.8999,-0.8626 2.5354,-0.61738 7.191,-2.78049 7.191,-2.78049 l -4.7859,-5.64505 c -7.5819,2.06209 -16.2125,2.70397 -22.9152,0.81356 -9.4024,-3.01511 -17.7478,-9.13574 -22.5085,-16.81356 -5.6253,-9.15428 -6.0947,-20.44959 -4.4746,-27.66101 2.2363,-10.34875 7.4577,-15.32204 7.4577,-15.32204 l 5.0169,4.33898 z"
       style="fill:#de6f2a;fill-opacity:1;stroke:none;stroke-width:1px;stroke-linecap:butt;stroke-linejoin:miter;stroke-opacity:1" />
    <g
       id="flowRoot829"
       style="font-style:normal;font-weight:normal;font-size:40px;line-height:1.25;font-family:sans-serif;letter-spacing:0px;word-spacing:0px;fill:#ffffff;fill-opacity:1;stroke:none"
       transform="rotate(-34.977024,1141.8717,604.33313)"
       aria-label="G">
      <path
         id="path837"
         style="font-style:normal;font-variant:normal;font-weight:bold;font-stretch:normal;font-size:46.66666794px;font-family:sans-serif;-inkscape-font-specification:'sans-serif Bold';fill:#ffffff"
         d="m 1168.9648,617.4707 q -3.2812,1.59506 -6.8131,2.39258 -3.5319,0.79753 -7.2917,0.79753 -8.4993,0 -13.4668,-4.73959 -4.9674,-4.76236 -4.9674,-12.89713 0,-8.22591 5.0586,-12.94271 5.0586,-4.7168 13.8541,-4.7168 3.3952,0 6.4942,0.63802 3.1217,0.63803 5.8789,1.89128 v 7.04102 q -2.8483,-1.61784 -5.6738,-2.41537 -2.8028,-0.79752 -5.6283,-0.79752 -5.2409,0 -8.0892,2.93945 -2.8255,2.91667 -2.8255,8.36263 0,5.40039 2.7344,8.33984 2.7343,2.93946 7.7701,2.93946 1.3672,0 2.5293,-0.15951 1.1849,-0.18229 2.1192,-0.54687 v -6.60808 h -5.3548 v -5.8789 h 13.6718 z"
         inkscape:connector-curvature="0" />
    </g>
    <path
       inkscape:connector-curvature="0"
       id="path840"
       d="m 1177.356,624.54237 21.1525,-1.62711 -11.3898,-13.69492 -21.5593,0.67797 z"
       style="fill:#3f8cdf;fill-opacity:1;stroke:none;stroke-width:1px;stroke-linecap:butt;stroke-linejoin:miter;stroke-opacity:1" />
    <path
       inkscape:connector-curvature="0"
       id="path842"
       d="m 1177.356,624.54237 -8.5424,20.47458 -11.5254,-15.18644 8.2712,-19.9322 z"
       style="fill:#377cc6;fill-opacity:1;stroke:none;stroke-width:1px;stroke-linecap:butt;stroke-linejoin:miter;stroke-opacity:1" />
    <path
       inkscape:connector-curvature="0"
       id="path844"
       d="m 1168.8136,645.01695 21.1525,-2.30508 8.5424,-19.79661 -21.1525,1.62711 z"
       style="fill:#245284;fill-opacity:1;stroke:none;stroke-width:1px;stroke-linecap:butt;stroke-linejoin:miter;stroke-opacity:1" />
    <ellipse
       transform="matrix(0.91237582,-0.4093536,0.79315998,0.60901334,0,0)"
       ry="3.6456764"
       rx="2.2450416"
       cy="1188.0054"
       cx="263.31418"
       id="path846"
       style="fill:#ffffff;fill-opacity:1;stroke:none;stroke-width:4.5636282;stroke-miterlimit:4;stroke-dasharray:none;stroke-opacity:1" />
    <ellipse
       transform="matrix(-0.4093536,-0.91237582,0.60901334,-0.79315998,0,0)"
       ry="2.9324877"
       rx="1.8058536"
       cy="920.71503"
       cx="-1479.0449"
       id="path846-3"
       style="fill:#ffffff;fill-opacity:1;stroke:none;stroke-width:3.67086482;stroke-miterlimit:4;stroke-dasharray:none;stroke-opacity:1" />
    <ellipse
       transform="matrix(-0.4093536,-0.91237582,0.60901334,-0.79315998,0,0)"
       ry="2.9324877"
       rx="1.8058536"
       cy="913.09198"
       cx="-1481.7299"
       id="path846-3-6"
       style="fill:#ffffff;fill-opacity:1;stroke:none;stroke-width:3.67086482;stroke-miterlimit:4;stroke-dasharray:none;stroke-opacity:1" />
    <ellipse
       transform="matrix(-0.4093536,-0.91237582,0.60901334,-0.79315998,0,0)"
       ry="2.9324877"
       rx="1.8058536"
       cy="922.68402"
       cx="-1487.7861"
       id="path846-3-6-7"
       style="fill:#ffffff;fill-opacity:1;stroke:none;stroke-width:3.67086482;stroke-miterlimit:4;stroke-dasharray:none;stroke-opacity:1" />
    <ellipse
       transform="matrix(-0.4093536,-0.91237582,0.60901334,-0.79315998,0,0)"
       ry="2.9324877"
       rx="1.8058536"
       cy="914.70569"
       cx="-1490.0526"
       id="path846-3-6-7-5"
       style="fill:#ffffff;fill-opacity:1;stroke:none;stroke-width:3.67086482;stroke-miterlimit:4;stroke-dasharray:none;stroke-opacity:1" />
    <ellipse
       transform="matrix(-0.25133253,-0.9679008,0.73285234,-0.68038771,0,0)"
       ry="2.9324877"
       rx="1.8058536"
       cy="1119.752"
       cx="-1438.6338"
       id="path846-3-3"
       style="fill:#ffffff;fill-opacity:1;stroke:none;stroke-width:3.67086482;stroke-miterlimit:4;stroke-dasharray:none;stroke-opacity:1" />
    <ellipse
       transform="matrix(-0.25133253,-0.9679008,0.73285234,-0.68038771,0,0)"
       ry="2.9324877"
       rx="1.8058536"
       cy="1121.7209"
       cx="-1447.375"
       id="path846-3-6-7-56"
       style="fill:#ffffff;fill-opacity:1;stroke:none;stroke-width:3.67086482;stroke-miterlimit:4;stroke-dasharray:none;stroke-opacity:1" />
  </g>
</svg>
