<?xml version="1.0" encoding="UTF-8" standalone="no"?>
<!-- Generator: Adobe Illustrator 19.0.0, SVG Export Plug-In . SVG Version: 6.00 Build 0)  -->

<svg
   xmlns:dc="http://purl.org/dc/elements/1.1/"
   xmlns:cc="http://creativecommons.org/ns#"
   xmlns:rdf="http://www.w3.org/1999/02/22-rdf-syntax-ns#"
   xmlns:svg="http://www.w3.org/2000/svg"
   xmlns="http://www.w3.org/2000/svg"
   xmlns:sodipodi="http://sodipodi.sourceforge.net/DTD/sodipodi-0.dtd"
   xmlns:inkscape="http://www.inkscape.org/namespaces/inkscape"
   version="1.1"
   id="Layer_1"
   x="0px"
   y="0px"
   viewBox="0 0 500 500"
   xml:space="preserve"
   inkscape:version="0.92.2 (5c3e80d, 2017-08-06)"
   width="100%"
   height="100%"
   sodipodi:docname="gmysqlcc.svg"><metadata
     id="metadata57"><rdf:RDF><cc:Work
         rdf:about=""><dc:format>image/svg+xml</dc:format><dc:type
           rdf:resource="http://purl.org/dc/dcmitype/StillImage" /></cc:Work></rdf:RDF></metadata><defs
     id="defs55" /><sodipodi:namedview
     pagecolor="#ffffff"
     bordercolor="#666666"
     borderopacity="1"
     objecttolerance="10"
     gridtolerance="10"
     guidetolerance="10"
     inkscape:pageopacity="0"
     inkscape:pageshadow="2"
     inkscape:window-width="1366"
     inkscape:window-height="715"
     id="namedview53"
     showgrid="false"
     inkscape:zoom="0.092912963"
     inkscape:cx="4468.8994"
     inkscape:cy="-335.51066"
     inkscape:window-x="0"
     inkscape:window-y="24"
     inkscape:window-maximized="1"
     inkscape:current-layer="Layer_1" /><g
     id="g23"
     transform="translate(0,39.767)" /><g
     id="g25"
     transform="translate(0,39.767)" /><g
     id="g27"
     transform="translate(0,39.767)" /><g
     id="g29"
     transform="translate(0,39.767)" /><g
     id="g31"
     transform="translate(0,39.767)" /><g
     id="g33"
     transform="translate(0,39.767)" /><g
     id="g35"
     transform="translate(0,39.767)" /><g
     id="g37"
     transform="translate(0,39.767)" /><g
     id="g39"
     transform="translate(0,39.767)" /><g
     id="g41"
     transform="translate(0,39.767)" /><g
     id="g43"
     transform="translate(0,39.767)" /><g
     id="g45"
     transform="translate(0,39.767)" /><g
     id="g47"
     transform="translate(0,39.767)" /><g
     id="g49"
     transform="translate(0,39.767)" /><g
     id="g51"
     transform="translate(0,39.767)" /><g
     id="g884"
     transform="matrix(1.0755005,0,0,1.0755005,-29.254481,1.8797262)"><path
       inkscape:connector-curvature="0"
       id="path850"
       d="M 86.321764,128.97389 245.8914,243.66455 437.87357,138.94694 270.82412,25.502922 Z"
       style="fill:#00bbf2;fill-opacity:1;stroke:none;stroke-width:7.41304302px;stroke-linecap:butt;stroke-linejoin:miter;stroke-opacity:1" /><path
       sodipodi:nodetypes="ccccc"
       inkscape:connector-curvature="0"
       id="path852"
       d="M 86.321764,128.97389 85.07512,326.91875 237.16491,446.59594 245.8914,243.66455 Z"
       style="fill:#f03916;fill-opacity:1;stroke:none;stroke-width:7.41304302px;stroke-linecap:butt;stroke-linejoin:miter;stroke-opacity:1" /><path
       sodipodi:nodetypes="ccccc"
       inkscape:connector-curvature="0"
       id="path854"
       d="M 237.16491,446.59594 419.81503,325.62495 437.87357,138.94694 245.8914,243.66455 Z"
       style="fill:#45d03f;fill-opacity:1;stroke:none;stroke-width:7.41304302px;stroke-linecap:butt;stroke-linejoin:miter;stroke-opacity:1" /><path
       sodipodi:nodetypes="ccccccccccccccc"
       inkscape:connector-curvature="0"
       id="path878"
       d="m 258.78897,145.67307 23.86168,-15.61205 39.13399,31.6635 c 0,0 -28.07392,23.59895 -40.24672,30.1155 -14.88846,7.62478 -46.9759,9.26076 -62.86349,-0.1312 -11.73691,-7.87583 -27.40471,-21.48227 -33.66205,-33.43325 -17.14309,-28.6645 -2.95563,-55.5344 20.87785,-75.543024 25.91611,-18.927033 64.7537,-20.547071 90.25405,-10.857364 25.78906,12.039331 40.52387,22.701358 58.32968,49.386348 l -23.91407,13.87368 c -13.14512,-23.49098 -31.99855,-34.07582 -45.34252,-38.698205 -24.84438,-6.130886 -53.65809,-0.205051 -68.23178,20.664375 -13.73064,23.34395 -2.97194,36.36699 17.02724,51.32135 8.82228,5.98506 26.96479,4.29105 44.41019,-5.37871 z"
       style="fill:#394050;fill-opacity:1;stroke:none;stroke-width:8.06873226px;stroke-linecap:butt;stroke-linejoin:miter;stroke-opacity:1" /></g></svg>