<?xml version="1.0" encoding="UTF-8" standalone="no"?>
<!-- Generator: flash2svg, http://dissentgraphics.com/tools/flash2svg -->

<svg
   xmlns:dc="http://purl.org/dc/elements/1.1/"
   xmlns:cc="http://creativecommons.org/ns#"
   xmlns:rdf="http://www.w3.org/1999/02/22-rdf-syntax-ns#"
   xmlns:svg="http://www.w3.org/2000/svg"
   xmlns="http://www.w3.org/2000/svg"
   xmlns:sodipodi="http://sodipodi.sourceforge.net/DTD/sodipodi-0.dtd"
   xmlns:inkscape="http://www.inkscape.org/namespaces/inkscape"
   id="Mplayer"
   image-rendering="optimizeSpeed"
   version="1.1"
   x="0px"
   y="0px"
   width="500"
   height="500"
   viewBox="0 0 500 500"
   enable-background="new 0 0 1024 1024"
   inkscape:version="0.48.5 r10040"
   sodipodi:docname="mpv.svg">
  <metadata
     id="metadata26">
    <rdf:RDF>
      <cc:Work
         rdf:about="">
        <dc:format>image/svg+xml</dc:format>
        <dc:type
           rdf:resource="http://purl.org/dc/dcmitype/StillImage" />
      </cc:Work>
    </rdf:RDF>
  </metadata>
  <sodipodi:namedview
     pagecolor="#ffffff"
     bordercolor="#666666"
     borderopacity="1"
     objecttolerance="10"
     gridtolerance="10"
     guidetolerance="10"
     inkscape:pageopacity="0"
     inkscape:pageshadow="2"
     inkscape:window-width="1366"
     inkscape:window-height="716"
     id="namedview24"
     showgrid="false"
     inkscape:zoom="0.4609375"
     inkscape:cx="31.104726"
     inkscape:cy="443.9027"
     inkscape:window-x="0"
     inkscape:window-y="0"
     inkscape:window-maximized="1"
     inkscape:current-layer="Mplayer" />
  <defs
     transform="matrix(1 0 0 1 0 0) "
     id="defs3" />
  <path
     sodipodi:type="arc"
     style="fill:#672178;fill-opacity:1;stroke:none"
     id="path2989-3"
     sodipodi:cx="302.21024"
     sodipodi:cy="279.09503"
     sodipodi:rx="237.77963"
     sodipodi:ry="217.83682"
     d="m 539.98987,279.09503 a 237.77963,217.83682 0 1 1 -475.559267,0 237.77963,217.83682 0 1 1 475.559267,0 z"
     transform="matrix(0.9462543,0,0,1.0328832,-35.967735,-38.272564)" />
  <path
     sodipodi:type="arc"
     style="fill:#441650;fill-opacity:1;stroke:none"
     id="path2989"
     sodipodi:cx="302.21024"
     sodipodi:cy="279.09503"
     sodipodi:rx="237.77963"
     sodipodi:ry="217.83682"
     d="m 539.98987,279.09503 a 237.77963,217.83682 0 1 1 -475.559267,0 237.77963,217.83682 0 1 1 475.559267,0 z"
     transform="matrix(0.73597557,0,0,0.80335362,47.692497,-6.5963786)" />
  <path
     sodipodi:type="arc"
     style="fill:#e6e6e6;fill-opacity:1;stroke:none"
     id="path2989-6"
     sodipodi:cx="302.21024"
     sodipodi:cy="279.09503"
     sodipodi:rx="237.77963"
     sodipodi:ry="217.83682"
     d="m 539.98987,279.09503 a 237.77963,217.83682 0 1 1 -475.559267,0 237.77963,217.83682 0 1 1 475.559267,0 z"
     transform="matrix(0.45803056,0,0,0.49996294,95.638596,103.80916)" />
  <g
     id="Calque.__209"
     transform="matrix(0.51018852,0,0,0.51018852,-21.547283,-14.671764)"
     style="fill:#441650">
    <g
       id="shape14"
       style="fill:#441650">
      <path
         id="path8"
         d="m 455.9,395.95 q -7.55,-5.25 -16.6,-4.1 c -6.05,0.75 -11.05,3.4 -15.1,7.95 -4.05,4.55 -6.1,9.9 -6.1,16 l 0,192.5 c 0,6.1 2.05,11.45 6.1,16 4.05,4.55 9.05,7.2 15.1,7.95 6.05,0.75 11.55,-0.65 16.6,-4.1 L 595.55,531.9 c 4.45,-3.05 7.5,-7.15 9.2,-12.2 1.7,-5.1 1.7,-10.2 0,-15.25 -1.7,-5.05 -4.75,-9.15 -9.15,-12.25 L 455.9,395.95 z"
         inkscape:connector-curvature="0"
         style="fill:#441650;fill-opacity:1" />
    </g>
  </g>
</svg>
