<?xml version="1.0" encoding="UTF-8" standalone="no"?>
<svg
   xmlns:dc="http://purl.org/dc/elements/1.1/"
   xmlns:cc="http://creativecommons.org/ns#"
   xmlns:rdf="http://www.w3.org/1999/02/22-rdf-syntax-ns#"
   xmlns:svg="http://www.w3.org/2000/svg"
   xmlns="http://www.w3.org/2000/svg"
   xmlns:sodipodi="http://sodipodi.sourceforge.net/DTD/sodipodi-0.dtd"
   xmlns:inkscape="http://www.inkscape.org/namespaces/inkscape"
   viewBox="0 0 300000 300000"
   id="svg2"
   version="1.1"
   inkscape:version="0.91 r13725"
   width="600"
   height="600"
   sodipodi:docname="gnome-panel.svg">
  <metadata
     id="metadata65">
    <rdf:RDF>
      <cc:Work
         rdf:about="">
        <dc:format>image/svg+xml</dc:format>
        <dc:type
           rdf:resource="http://purl.org/dc/dcmitype/StillImage" />
        <dc:title />
      </cc:Work>
    </rdf:RDF>
  </metadata>
  <sodipodi:namedview
     pagecolor="#ffffff"
     bordercolor="#666666"
     borderopacity="1"
     objecttolerance="10"
     gridtolerance="10"
     guidetolerance="10"
     inkscape:pageopacity="0"
     inkscape:pageshadow="2"
     inkscape:window-width="1366"
     inkscape:window-height="708"
     id="namedview63"
     showgrid="false"
     inkscape:zoom="0.30729167"
     inkscape:cx="256.98235"
     inkscape:cy="396.74552"
     inkscape:window-x="0"
     inkscape:window-y="0"
     inkscape:window-maximized="1"
     inkscape:current-layer="svg2"
     units="px"
     scale-x="500" />
  <defs
     id="defs4">
    <linearGradient
       id="linearGradient3764"
       x1="1"
       x2="47"
       gradientUnits="userSpaceOnUse"
       gradientTransform="rotate(-90,23.999998,24)">
      <stop
         stop-color="#3d3d3d"
         stop-opacity="1"
         id="stop7" />
      <stop
         offset="1"
         stop-color="#474747"
         stop-opacity="1"
         id="stop9" />
    </linearGradient>
    <clipPath
       id="clipPath-156864852">
      <g
         transform="translate(0,-1004.3622)"
         id="g12">
        <path
           d="m -24,13 c 0,1.105 -0.672,2 -1.5,2 -0.828,0 -1.5,-0.895 -1.5,-2 0,-1.105 0.672,-2 1.5,-2 0.828,0 1.5,0.895 1.5,2 z"
           transform="matrix(15.333333,0,0,11.5,414.99999,878.8622)"
           id="path14"
           inkscape:connector-curvature="0"
           style="fill:#1890d0" />
      </g>
    </clipPath>
    <clipPath
       id="clipPath-165128749">
      <g
         transform="translate(0,-1004.3622)"
         id="g17">
        <path
           d="m -24,13 c 0,1.105 -0.672,2 -1.5,2 -0.828,0 -1.5,-0.895 -1.5,-2 0,-1.105 0.672,-2 1.5,-2 0.828,0 1.5,0.895 1.5,2 z"
           transform="matrix(15.333333,0,0,11.5,414.99999,878.8622)"
           id="path19"
           inkscape:connector-curvature="0"
           style="fill:#1890d0" />
      </g>
    </clipPath>
    <clipPath
       clipPathUnits="userSpaceOnUse"
       id="clipPath3899">
      <g
         id="g3901"
         transform="translate(-82.695539,14.381833)"
         mask="none">
        <g
           transform="translate(-297.63665,-823.35994)"
           id="g3903">
          <path
             inkscape:connector-curvature="0"
             id="path3905"
             d="m 1002.1873,-66.957497 h 492.6712 c 21.3869,0 38.6045,17.2176 38.6045,38.604485 V 234.63608 c 0,21.38688 -17.2176,38.60448 -38.6045,38.60448 h -492.6712 c -21.38688,0 -38.60448,-17.2176 -38.60448,-38.60448 V -28.353012 c 0,-21.386885 17.2176,-38.604485 38.60448,-38.604485 z"
             style="fill:#db4c00;fill-opacity:1;fill-rule:evenodd;stroke:none" />
          <path
             inkscape:connector-curvature="0"
             id="path3907"
             d="m 963.737,230.71581 h 569.8801 v 81.64752 H 963.737 Z"
             style="fill:#db4c00;fill-opacity:1;fill-rule:evenodd;stroke:none" />
        </g>
      </g>
    </clipPath>
  </defs>
  <g
     id="g33"
     transform="translate(0,299952)" />
  <g
     id="g4156">
    <path
       mask="none"
       inkscape:connector-curvature="0"
       clip-path="none"
       id="path3805-0"
       d="m 294973.03,150006.32 c 0,80074.29 -64912.68,144989.06 -144986.51,144989.06 -80073.848,0 -144986.5196,-64914.77 -144986.5196,-144989.06 0,-80074.289 64912.6716,-144983.9605 144986.5196,-144983.9605 80073.83,0 144986.51,64909.6715 144986.51,144983.9605 z"
       style="fill:#00bbf2;fill-opacity:1;stroke:none;stroke-width:509.73513794" />
    <path
       transform="matrix(460.27469,0,0,460.27469,-219315.35,459344.18)"
       mask="none"
       inkscape:connector-curvature="0"
       clip-path="url(#clipPath3899)"
       id="path3805"
       d="m 1117.4096,-672.17837 c 0,173.96979 -141.03037,315.0001 -315.00005,315.0001 -173.96969,0 -314.99999,-141.03031 -314.99999,-315.0001 0,-173.9696 141.0303,-314.9999 314.99999,-314.9999 173.96968,0 315.00005,141.0303 315.00005,314.9999 z"
       style="fill:#394050;fill-opacity:1;stroke:none" />
    <path
       style="fill:#ffffff;fill-opacity:1;stroke:none"
       d="m 181527.31,84985.223 c -4698.36,209.501 -10081.21,2392.697 -14423.85,5948.673 -5320.96,4368.462 -9643.13,15441.204 -8484.91,21632.144 597.69,3182.65 3001.16,7065.36 5302.87,8278.15 4286.49,2242.46 12098.99,-1506.27 19302.97,-9128.64 7782.05,-8259.34 11355.81,-17340.295 8696.79,-22481.901 -1634.23,-3166.39 -5695.39,-4546.843 -10393.87,-4248.426 z m -38393.26,4878.33 c -6536.62,0 -9994.97,4612.799 -9969.82,13379.387 9.14,5995.87 2126.07,11391.67 4878.69,12720.31 2046.78,990.74 2098,888.49 4666.76,0 4255.13,-1502.75 8252.64,-11409.23 7424.08,-18039.448 -677.53,-5418.039 -3012.31,-8062.198 -6999.71,-8060.249 z m -25878.87,8910.311 c -1223.02,117.236 -2449.57,968.272 -3605.73,2114.496 -2330.76,2354.03 -2361.76,3615.72 -2333.31,8058.49 21.31,5254.45 1315.89,8136.62 4878.75,11897.34 2664.86,2788.38 4586.55,2969.74 6999.83,279.55 2614.26,-2763.47 3425.77,-7109.41 2545.25,-11874.82 -1342.88,-7267.07 -4815.29,-11132.792 -8484.79,-10602.401 z M 99013.126,114675.6 c -1268.943,137.03 -2412.612,940.81 -3605.854,2138.93 -3131.553,3114.74 -941.354,11748.56 4029.911,16094.07 5934.057,5222.23 10725.657,293.84 8697.157,-8691.25 -1443.37,-6496.18 -5314.2,-10159.28 -9121.214,-9541.75 z m 54514.674,11462.15 c -4202.09,-52.37 -8911.17,183.01 -13787.85,1260.18 -12562.51,2561.88 -22614.55,7306.28 -29060.3,13790.22 -3712.24,3751.65 -5836,7199.71 -7636.31,12501.61 -4357.133,12897.65 3712.37,31186.85 19090.66,43709.59 5729.61,4652.63 9225.79,6735.7 15060.57,8690.28 3025.47,1001.46 5424.68,1239.71 11030.17,1062.06 6426.01,-142.21 7732.9,-336.61 11878.58,-2541.85 6075.48,-3012.67 12961.73,-9914.7 15908.99,-15903.26 1797.93,-3655.86 2086.13,-5226.93 1909.02,-8282.29 -303.29,-5228.7 -2325.88,-6623.9 -8908.85,-6583.28 -9398.07,55.43 -13343.14,2285.21 -15272.63,8912.88 -1457.24,5014.81 -3068.34,6797.27 -6363.4,6797.27 -5222.61,0 -10606.3,-4147.39 -10606.3,-8498.62 0,-2993.24 4855.49,-7488.62 16969.7,-15679.14 17065.21,-11556.42 22932.46,-18563.13 22060.4,-26291.96 -901.03,-8018.4 -9666.46,-12719.82 -22272.45,-12943.69 z"
       id="path4909-2"
       inkscape:connector-curvature="0" />
  </g>
</svg>
