<?xml version="1.0" encoding="UTF-8" standalone="no"?>
<!-- Generator: Adobe Illustrator 19.0.0, SVG Export Plug-In . SVG Version: 6.00 Build 0)  -->

<svg
   xmlns:dc="http://purl.org/dc/elements/1.1/"
   xmlns:cc="http://creativecommons.org/ns#"
   xmlns:rdf="http://www.w3.org/1999/02/22-rdf-syntax-ns#"
   xmlns:svg="http://www.w3.org/2000/svg"
   xmlns="http://www.w3.org/2000/svg"
   xmlns:sodipodi="http://sodipodi.sourceforge.net/DTD/sodipodi-0.dtd"
   xmlns:inkscape="http://www.inkscape.org/namespaces/inkscape"
   version="1.1"
   id="Layer_1"
   x="0px"
   y="0px"
   viewBox="0 0 500 500"
   xml:space="preserve"
   inkscape:version="0.91 r13725"
   width="100%"
   height="100%"
   sodipodi:docname="gnome-log-out.svg"><metadata
     id="metadata57"><rdf:RDF><cc:Work
         rdf:about=""><dc:format>image/svg+xml</dc:format><dc:type
           rdf:resource="http://purl.org/dc/dcmitype/StillImage" /></cc:Work></rdf:RDF></metadata><defs
     id="defs55" /><sodipodi:namedview
     pagecolor="#ffffff"
     bordercolor="#666666"
     borderopacity="1"
     objecttolerance="10"
     gridtolerance="10"
     guidetolerance="10"
     inkscape:pageopacity="0"
     inkscape:pageshadow="2"
     inkscape:window-width="1366"
     inkscape:window-height="708"
     id="namedview53"
     showgrid="false"
     inkscape:zoom="0.1827871"
     inkscape:cx="1092.259"
     inkscape:cy="447.88658"
     inkscape:window-x="0"
     inkscape:window-y="0"
     inkscape:window-maximized="1"
     inkscape:current-layer="Layer_1" /><g
     id="g23"
     transform="translate(0,39.767)" /><g
     id="g25"
     transform="translate(0,39.767)" /><g
     id="g27"
     transform="translate(0,39.767)" /><g
     id="g29"
     transform="translate(0,39.767)" /><g
     id="g31"
     transform="translate(0,39.767)" /><g
     id="g33"
     transform="translate(0,39.767)" /><g
     id="g35"
     transform="translate(0,39.767)" /><g
     id="g37"
     transform="translate(0,39.767)" /><g
     id="g39"
     transform="translate(0,39.767)" /><g
     id="g41"
     transform="translate(0,39.767)" /><g
     id="g43"
     transform="translate(0,39.767)" /><g
     id="g45"
     transform="translate(0,39.767)" /><g
     id="g47"
     transform="translate(0,39.767)" /><g
     id="g49"
     transform="translate(0,39.767)" /><g
     id="g51"
     transform="translate(0,39.767)" /><g
     id="system-log-out"
     transform="matrix(-22.727273,0,0,22.727273,499.99996,7.9030421e-4)"><path
       id="path3811"
       d="M 11,2 C 9.562253,2 8.208176,2.3384519 7,2.9375 l 0,1.125 C 8.1742029,3.3821208 9.5449893,3 11,3 c 4.418278,0 8,3.5817218 8,8 0,4.418278 -3.581722,8 -8,8 -1.4550107,0 -2.8257971,-0.382121 -4,-1.0625 l 0,1.125 C 8.208176,19.661548 9.562253,20 11,20 c 4.970563,0 9,-4.029437 9,-9 0,-4.9705632 -4.029437,-9 -9,-9 z"
       style="fill:#f7f7f7;fill-opacity:1;stroke:none"
       inkscape:connector-curvature="0" /><path
       inkscape:connector-curvature="0"
       id="path4017"
       d="m 5.3909236,6.5077004 a 0.50005,0.50005 0 0 0 -0.28125,0.1875 l -3,4.0000006 a 0.50005,0.50005 0 0 0 0,0.625 l 3,4 a 0.51253811,0.51253811 0 1 0 0.8125,-0.625 l -2.78125,-3.6875 2.78125,-3.6875006 a 0.50005,0.50005 0 0 0 -0.53125,-0.8125 z"
       style="color:#000000;font-style:normal;font-variant:normal;font-weight:normal;font-stretch:normal;font-size:medium;line-height:normal;font-family:Sans;-inkscape-font-specification:Sans;text-indent:0;text-align:start;text-decoration:none;text-decoration-line:none;letter-spacing:normal;word-spacing:normal;text-transform:none;direction:ltr;block-progression:tb;writing-mode:lr-tb;baseline-shift:baseline;text-anchor:start;display:inline;overflow:visible;visibility:visible;fill:#f7f7f7;fill-opacity:1;stroke:none;stroke-width:1px;marker:none;enable-background:accumulate" /><path
       sodipodi:nodetypes="ccccc"
       inkscape:connector-curvature="0"
       id="path4027"
       d="m 3,10.5 0,1 5,0 0,-1 z"
       style="color:#000000;font-style:normal;font-variant:normal;font-weight:normal;font-stretch:normal;font-size:medium;line-height:normal;font-family:Sans;-inkscape-font-specification:Sans;text-indent:0;text-align:start;text-decoration:none;text-decoration-line:none;letter-spacing:normal;word-spacing:normal;text-transform:none;direction:ltr;block-progression:tb;writing-mode:lr-tb;baseline-shift:baseline;text-anchor:start;display:inline;overflow:visible;visibility:visible;fill:#f7f7f7;fill-opacity:1;stroke:none;stroke-width:1px;marker:none;enable-background:accumulate" /><path
       id="path4031"
       d="m 11,7.5 c -1.9329967,0 -3.5,1.5670033 -3.5,3.5 0,1.932997 1.5670033,3.5 3.5,3.5 1.932997,0 3.5,-1.567003 3.5,-3.5 0,-1.9329967 -1.567003,-3.5 -3.5,-3.5 z m 0,1 c 1.380712,0 2.5,1.1192881 2.5,2.5 0,1.380712 -1.119288,2.5 -2.5,2.5 C 9.6192881,13.5 8.5,12.380712 8.5,11 8.5,9.6192881 9.6192881,8.5 11,8.5 Z"
       style="fill:#f7f7f7;fill-opacity:1;stroke:none"
       inkscape:connector-curvature="0" /><rect
       y="-3.5037385e-05"
       x="-2e-06"
       height="22"
       width="22"
       id="rect4036"
       style="fill:#566060;fill-opacity:0;stroke:none" /></g></svg>