<?xml version="1.0" encoding="UTF-8" standalone="no"?>
<!-- Generator: Adobe Illustrator 19.0.0, SVG Export Plug-In . SVG Version: 6.00 Build 0)  -->

<svg
   xmlns:dc="http://purl.org/dc/elements/1.1/"
   xmlns:cc="http://creativecommons.org/ns#"
   xmlns:rdf="http://www.w3.org/1999/02/22-rdf-syntax-ns#"
   xmlns:svg="http://www.w3.org/2000/svg"
   xmlns="http://www.w3.org/2000/svg"
   xmlns:sodipodi="http://sodipodi.sourceforge.net/DTD/sodipodi-0.dtd"
   xmlns:inkscape="http://www.inkscape.org/namespaces/inkscape"
   version="1.1"
   id="Layer_1"
   x="0px"
   y="0px"
   viewBox="0 0 500 500"
   xml:space="preserve"
   inkscape:version="0.91 r13725"
   width="100%"
   height="100%"
   sodipodi:docname="gnome-session-hibernate.svg"><metadata
     id="metadata57"><rdf:RDF><cc:Work
         rdf:about=""><dc:format>image/svg+xml</dc:format><dc:type
           rdf:resource="http://purl.org/dc/dcmitype/StillImage" /></cc:Work></rdf:RDF></metadata><defs
     id="defs55" /><sodipodi:namedview
     pagecolor="#ffffff"
     bordercolor="#666666"
     borderopacity="1"
     objecttolerance="10"
     gridtolerance="10"
     guidetolerance="10"
     inkscape:pageopacity="0"
     inkscape:pageshadow="2"
     inkscape:window-width="1366"
     inkscape:window-height="708"
     id="namedview53"
     showgrid="false"
     inkscape:zoom="0.1827871"
     inkscape:cx="1086.7882"
     inkscape:cy="447.88658"
     inkscape:window-x="0"
     inkscape:window-y="0"
     inkscape:window-maximized="1"
     inkscape:current-layer="Layer_1" /><g
     id="g23"
     transform="translate(0,39.767)" /><g
     id="g25"
     transform="translate(0,39.767)" /><g
     id="g27"
     transform="translate(0,39.767)" /><g
     id="g29"
     transform="translate(0,39.767)" /><g
     id="g31"
     transform="translate(0,39.767)" /><g
     id="g33"
     transform="translate(0,39.767)" /><g
     id="g35"
     transform="translate(0,39.767)" /><g
     id="g37"
     transform="translate(0,39.767)" /><g
     id="g39"
     transform="translate(0,39.767)" /><g
     id="g41"
     transform="translate(0,39.767)" /><g
     id="g43"
     transform="translate(0,39.767)" /><g
     id="g45"
     transform="translate(0,39.767)" /><g
     id="g47"
     transform="translate(0,39.767)" /><g
     id="g49"
     transform="translate(0,39.767)" /><g
     id="g51"
     transform="translate(0,39.767)" /><g
     id="system-suspend-hibernate"
     transform="matrix(22.727273,0,0,22.727273,4.5454546e-5,7.9030421e-4)"><path
       id="path4082"
       d="m 10.499979,0.999965 0,8 1,0 0,-8 z M 9,2.75 C 4.994572,3.661331 2,7.2186328 2,11.5 c 0,4.970563 4.029437,9 9,9 2.308412,0 4.408775,-0.882902 6,-2.3125 L 16.1875,17.59375 C 14.788066,18.778151 12.977035,19.5 11,19.5 6.581722,19.5 3,15.918278 3,11.5 3,7.7705308 5.547024,4.636356 9,3.75 Z m 4,0 0,1 c 0.817657,0.2098871 1.586982,0.5599704 2.28125,1 0.163649,-0.2397122 0.411095,-0.5920207 0.5625,-0.8125 C 14.984597,3.3902091 14.024675,2.9831382 13,2.75 Z m 3.625,1.75 c -0.151641,0.2208572 -0.398705,0.5725526 -0.5625,0.8125 0.6215,0.5111214 1.178702,1.1065108 1.625,1.78125 l 0.84375,-0.5 C 18.008662,5.7991799 17.365995,5.0923153 16.625,4.5 Z M 19.03125,7.4375 18.15625,8 c 0.383085,0.777735 0.661777,1.6105049 0.78125,2.5 l 1,0 C 19.818912,9.4031371 19.513823,8.3788564 19.03125,7.4375 Z M 19,11.5 c 0,0.793523 -0.128588,1.557599 -0.34375,2.28125 L 19.5625,14.25 C 19.839084,13.384971 20,12.456801 20,11.5 Z m -0.65625,3.21875 c -0.354379,0.809564 -0.84792,1.545928 -1.4375,2.1875 l 0.78125,0.5625 c 0.614899,-0.690157 1.149988,-1.456724 1.53125,-2.3125 z"
       style="fill:#f7f7f7;fill-opacity:1;stroke:none"
       inkscape:connector-curvature="0"
       sodipodi:nodetypes="ccccccssccssccccccccccccccccccccccccccc" /><rect
       y="-3.5037385e-05"
       x="-2e-06"
       height="22"
       width="22"
       id="rect4123"
       style="fill:#ff0000;fill-opacity:0;stroke:none" /></g></svg>