<?xml version="1.0" encoding="UTF-8" standalone="no"?>
<!-- Generator: Adobe Illustrator 19.0.0, SVG Export Plug-In . SVG Version: 6.00 Build 0)  -->

<svg
   xmlns:i="http://ns.adobe.com/AdobeIllustrator/10.0/"
   xmlns:dc="http://purl.org/dc/elements/1.1/"
   xmlns:cc="http://creativecommons.org/ns#"
   xmlns:rdf="http://www.w3.org/1999/02/22-rdf-syntax-ns#"
   xmlns:svg="http://www.w3.org/2000/svg"
   xmlns="http://www.w3.org/2000/svg"
   xmlns:sodipodi="http://sodipodi.sourceforge.net/DTD/sodipodi-0.dtd"
   xmlns:inkscape="http://www.inkscape.org/namespaces/inkscape"
   version="1.1"
   id="Layer_1"
   x="0px"
   y="0px"
   viewBox="0 0 500 500"
   xml:space="preserve"
   inkscape:version="0.91 r13725"
   width="100%"
   height="100%"
   sodipodi:docname="gnome-session-switch.svg"><metadata
     id="metadata57"><rdf:RDF><cc:Work
         rdf:about=""><dc:format>image/svg+xml</dc:format><dc:type
           rdf:resource="http://purl.org/dc/dcmitype/StillImage" /></cc:Work></rdf:RDF></metadata><defs
     id="defs55" /><sodipodi:namedview
     pagecolor="#ffffff"
     bordercolor="#666666"
     borderopacity="1"
     objecttolerance="10"
     gridtolerance="10"
     guidetolerance="10"
     inkscape:pageopacity="0"
     inkscape:pageshadow="2"
     inkscape:window-width="1366"
     inkscape:window-height="708"
     id="namedview53"
     showgrid="false"
     inkscape:zoom="0.1827871"
     inkscape:cx="-1287.5588"
     inkscape:cy="447.88658"
     inkscape:window-x="0"
     inkscape:window-y="0"
     inkscape:window-maximized="1"
     inkscape:current-layer="Layer_1" /><g
     id="g23"
     transform="translate(0,39.767)" /><g
     id="g25"
     transform="translate(0,39.767)" /><g
     id="g27"
     transform="translate(0,39.767)" /><g
     id="g29"
     transform="translate(0,39.767)" /><g
     id="g31"
     transform="translate(0,39.767)" /><g
     id="g33"
     transform="translate(0,39.767)" /><g
     id="g35"
     transform="translate(0,39.767)" /><g
     id="g37"
     transform="translate(0,39.767)" /><g
     id="g39"
     transform="translate(0,39.767)" /><g
     id="g41"
     transform="translate(0,39.767)" /><g
     id="g43"
     transform="translate(0,39.767)" /><g
     id="g45"
     transform="translate(0,39.767)" /><g
     id="g47"
     transform="translate(0,39.767)" /><g
     id="g49"
     transform="translate(0,39.767)" /><g
     id="g51"
     transform="translate(0,39.767)" /><g
     id="system-switch-user"
     transform="matrix(22.727273,0,0,22.727273,4.5454546e-5,7.9030421e-4)"><path
       sodipodi:nodetypes="ccssssccssssc"
       inkscape:connector-curvature="0"
       id="rect3930"
       d="m 12,2 0,1 6,0 c 0.55399,0 1,0.4460099 1,1 l 0,14 c 0,0.55399 -0.44601,1 -1,1 l -6,0 0,1 6,0 c 1.10799,0 2,-0.89201 2,-2 L 20,4 C 20,2.8920099 19.10799,2 18,2 Z"
       style="fill:#f7f7f7;fill-opacity:1;stroke:none" /><g
       transform="matrix(-0.1499985,0,0,0.1499985,12.812642,3.500133)"
       i:extraneous="self"
       id="g7"><path
         style="fill:#f7f7f7;fill-opacity:1"
         inkscape:connector-curvature="0"
         d="m 32.13,17.648 c 4.883,-0.007 8.825,-3.961 8.817,-8.84 0,-4.867 -3.956,-8.812 -8.835,-8.809 -4.874,0.007 -8.818,3.961 -8.811,8.831 0.005,4.877 3.959,8.825 8.829,8.818 z M 49.146,69.91 45.34,53.835 C 45.405,53.24 45.244,52.66 45.155,52.036 l -2.68,-19.163 6.569,2.688 5.272,15.187 4.813,-1.262 -3.808,-19.43 -17.296,-7.069 c -1.359,-0.737 -2.949,-1.069 -4.593,-0.838 -0.884,0.122 -1.706,0.404 -2.456,0.8 L 30.957,22.917 17.187,31.288 1.86,26.491 0,31.172 l 17.892,8.429 9.625,-5.859 2.856,20.366 c 0.038,0.28 0.121,0.543 0.19,0.814 L 22.634,71.651 17.158,98.072 23.544,100 31.47,74.647 37.548,61.889 41.169,76.555 69.607,87.534 72.085,82.029 49.146,69.91 Z"
         id="path9" /></g><rect
       ry="0.99998212"
       y="-3.5037385e-05"
       x="-2e-06"
       height="22"
       width="22"
       id="rect3966"
       style="fill:#566060;fill-opacity:0;stroke:none" /></g></svg>