<?xml version="1.0" encoding="UTF-8" standalone="no"?>
<!-- Generator: Adobe Illustrator 19.0.0, SVG Export Plug-In . SVG Version: 6.00 Build 0)  -->

<svg
   xmlns:dc="http://purl.org/dc/elements/1.1/"
   xmlns:cc="http://creativecommons.org/ns#"
   xmlns:rdf="http://www.w3.org/1999/02/22-rdf-syntax-ns#"
   xmlns:svg="http://www.w3.org/2000/svg"
   xmlns="http://www.w3.org/2000/svg"
   xmlns:sodipodi="http://sodipodi.sourceforge.net/DTD/sodipodi-0.dtd"
   xmlns:inkscape="http://www.inkscape.org/namespaces/inkscape"
   version="1.1"
   id="Capa_1"
   x="0px"
   y="0px"
   viewBox="0 0 500 500"
   xml:space="preserve"
   inkscape:version="0.48.5 r10040"
   width="100%"
   height="100%"
   sodipodi:docname="gnome-documents.svg"><metadata
     id="metadata69"><rdf:RDF><cc:Work
         rdf:about=""><dc:format>image/svg+xml</dc:format><dc:type
           rdf:resource="http://purl.org/dc/dcmitype/StillImage" /></cc:Work></rdf:RDF></metadata><defs
     id="defs67" /><sodipodi:namedview
     pagecolor="#ffffff"
     bordercolor="#666666"
     borderopacity="1"
     objecttolerance="10"
     gridtolerance="10"
     guidetolerance="10"
     inkscape:pageopacity="0"
     inkscape:pageshadow="2"
     inkscape:window-width="1366"
     inkscape:window-height="716"
     id="namedview65"
     showgrid="false"
     inkscape:zoom="0.73191755"
     inkscape:cx="587.24008"
     inkscape:cy="119.03034"
     inkscape:window-x="0"
     inkscape:window-y="0"
     inkscape:window-maximized="1"
     inkscape:current-layer="Capa_1" /><g
     id="g35"
     transform="translate(0,443)" /><g
     id="g37"
     transform="translate(0,443)" /><g
     id="g39"
     transform="translate(0,443)" /><g
     id="g41"
     transform="translate(0,443)" /><g
     id="g43"
     transform="translate(0,443)" /><g
     id="g45"
     transform="translate(0,443)" /><g
     id="g47"
     transform="translate(0,443)" /><g
     id="g49"
     transform="translate(0,443)" /><g
     id="g51"
     transform="translate(0,443)" /><g
     id="g53"
     transform="translate(0,443)" /><g
     id="g55"
     transform="translate(0,443)" /><g
     id="g57"
     transform="translate(0,443)" /><g
     id="g59"
     transform="translate(0,443)" /><g
     id="g61"
     transform="translate(0,443)" /><g
     id="g63"
     transform="translate(0,443)" /><path
     style="fill:#999999;stroke:none"
     d="m 81.999539,25 280.805451,0 c 0,0 39.17092,40.80155 39.31275,40.832384 l 0,379.157866 -320.118201,0 z"
     id="path3851"
     inkscape:connector-curvature="0"
     sodipodi:nodetypes="cccccc" /><path
     style="fill:#ebebeb;stroke:none"
     d="m 80,39.166341 288.04175,0 c 0,0 40.18036,40.80155 40.32584,40.832385 l 0,379.157864 -328.36759,0 z"
     id="path3851-7"
     inkscape:connector-curvature="0"
     sodipodi:nodetypes="cccccc" /><path
     style="fill:#e6e6e6;stroke:none"
     d="m 83.375147,55.00975 291.659893,0 c 0,0 40.68508,40.80155 40.83239,40.832384 l 0,379.157866 -332.492283,0 z"
     id="path3851-3"
     inkscape:connector-curvature="0"
     sodipodi:nodetypes="cccccc" /><path
     style="fill:#ebebeb;stroke:none"
     d="m 415.86743,95.821228 -40.83239,-40.832384 0,40.832384 z"
     id="path3853-6"
     inkscape:connector-curvature="0"
     sodipodi:nodetypes="cccc" /><path
     sodipodi:type="arc"
     style="fill:#d45500;fill-opacity:1;stroke:none"
     id="path3003"
     sodipodi:cx="272.92374"
     sodipodi:cy="262.82202"
     sodipodi:rx="99.025421"
     sodipodi:ry="100.95763"
     d="M 371.94916,262.82202 A 99.025421,100.95763 0 1 1 272.54495,161.86513 l 0.37879,100.95689 z"
     sodipodi:start="0"
     sodipodi:end="4.7085638"
     transform="matrix(1.0098417,0,0,0.99051819,-17.169083,5.3814911)" /><path
     style="fill:#00bbf2;stroke:none;stroke-width:1px;stroke-linecap:butt;stroke-linejoin:miter;stroke-opacity:1;fill-opacity:1"
     d="m 258.19068,265.72034 -26.08475,96.12712 c 0,0 -15.89129,-2.07963 -38.88559,-20.52966 -22.9943,-18.45003 -28.25848,-40.09322 -28.25848,-40.09322 z"
     id="path3795"
     inkscape:connector-curvature="0"
     sodipodi:nodetypes="cczcc" /><path
     style="fill:#45d03f;fill-opacity:1;stroke:none"
     d="m 258.16504,266.33288 -93.15291,35.26151 c 0,0 -19.52657,-41.78843 7.67963,-89.28833 27.2062,-47.4999 85.35748,-46.57368 85.35748,-46.57368 z"
     id="path3795-6"
     inkscape:connector-curvature="0"
     sodipodi:nodetypes="cczcc" /></svg>