<?xml version="1.0" encoding="UTF-8" standalone="no"?>
<!-- Creator: CorelDRAW X5 -->

<svg
   xmlns:dc="http://purl.org/dc/elements/1.1/"
   xmlns:cc="http://creativecommons.org/ns#"
   xmlns:rdf="http://www.w3.org/1999/02/22-rdf-syntax-ns#"
   xmlns:svg="http://www.w3.org/2000/svg"
   xmlns="http://www.w3.org/2000/svg"
   xmlns:sodipodi="http://sodipodi.sourceforge.net/DTD/sodipodi-0.dtd"
   xmlns:inkscape="http://www.inkscape.org/namespaces/inkscape"
   style="clip-rule:evenodd;fill-rule:evenodd;image-rendering:optimizeQuality;shape-rendering:geometricPrecision;text-rendering:geometricPrecision"
   xml:space="preserve"
   height="512mm"
   width="512mm"
   viewBox="0 0 56363.757 56362.64"
   id="svg2"
   version="1.1"
   inkscape:version="0.91 r13725"
   sodipodi:docname="google-translate.svg"><metadata
     id="metadata17"><rdf:RDF><cc:Work
         rdf:about=""><dc:format>image/svg+xml</dc:format><dc:type
           rdf:resource="http://purl.org/dc/dcmitype/StillImage" /><dc:title /></cc:Work></rdf:RDF></metadata><sodipodi:namedview
     pagecolor="#ffffff"
     bordercolor="#666666"
     borderopacity="1"
     objecttolerance="10"
     gridtolerance="10"
     guidetolerance="10"
     inkscape:pageopacity="0"
     inkscape:pageshadow="2"
     inkscape:window-width="1366"
     inkscape:window-height="715"
     id="namedview15"
     showgrid="false"
     inkscape:zoom="0.125"
     inkscape:cx="1247.4905"
     inkscape:cy="1194.6162"
     inkscape:window-x="0"
     inkscape:window-y="24"
     inkscape:window-maximized="1"
     inkscape:current-layer="svg2"
     inkscape:snap-bbox="true" /><defs
     id="defs4"><style
       type="text/css"
       id="style6">
    .fil0 {fill:red}
    .fil1 {fill:black;fill-rule:nonzero}
   </style></defs><g
     id="g4194"
     transform="matrix(1.0261136,0,0,1.0261136,-56198.458,-2394.8139)"><path
       id="rect4148-3"
       d="m 101779.06,53635.688 c 2065.03,0 3727.51,-1662.469 3727.51,-3727.507 l 0,-30987.852 c 0,-2065.043 -1662.48,-3727.513 -3727.51,-3727.513 l -28616.738,0 c -535.603,0 -1043.836,112.506 -1503.3,314.191 l 12393.328,38128.681 17726.71,0 z"
       style="clip-rule:evenodd;fill:#d9d9d9;fill-opacity:1;fill-rule:evenodd;stroke:none;image-rendering:optimizeQuality;shape-rendering:geometricPrecision;text-rendering:geometricPrecision"
       inkscape:connector-curvature="0" /><path
       class="fil1"
       d="m 97139.134,24895.806 c 389.692,0 774.533,45.815 1155.062,132.884 375.948,160.351 563.788,357.606 563.788,591.266 -73.304,394.274 -1301.939,861.855 -3680.782,1398.159 -1434.8,302.643 -2612.767,527.13 -3547.921,669.135 -284.319,1508.109 -444.667,2722.722 -481.319,3653.3 1627.22,-623.348 3107.833,-976.393 4432.675,-1045.115 -36.651,-339.286 -109.953,-627.907 -215.326,-861.829 -91.629,-233.66 -132.863,-385.126 -132.863,-453.848 0,-270.564 114.537,-403.42 348.46,-403.42 320.97,0 669.158,224.486 1045.105,669.161 197.003,288.884 330.136,637.08 403.435,1049.674 1521.847,105.39 2800.879,527.13 3841.412,1260.426 1503.51,1040.528 2255.14,2356.231 2255.14,3946.797 0,1810.727 -1127.58,3456.28 -3382.988,4946.069 -1989.424,1288.183 -4143.78,1957.344 -6472.497,2012.306 1984.84,-751.879 3634.967,-1604.3 4941.484,-2553.197 1897.791,-1375.252 2865.021,-2846.694 2901.671,-4405.178 36.66,-1356.932 -403.44,-2424.926 -1315.682,-3194.891 -737.884,-481.315 -1650.129,-779.111 -2741.05,-884.762 -197,1072.607 -664.577,2172.683 -1398.146,3305.101 -714.974,1090.93 -1673.034,2136.043 -2874.18,3139.903 307.229,517.984 664.58,958.072 1077.179,1315.678 229.07,288.91 375.947,536.303 426.34,751.643 -50.393,357.606 -426.34,563.772 -1127.572,618.759 -375.947,-54.987 -788.546,-394.273 -1232.946,-1022.206 -109.953,-142.031 -261.41,-375.953 -458.41,-696.655 -1558.499,967.245 -2883.344,1439.387 -3974.265,1425.654 -1613.475,-18.321 -2415.766,-898.497 -2415.766,-2635.679 0,-1109.251 554.626,-2255.141 1663.871,-3437.961 696.648,-751.642 1613.475,-1448.56 2741.048,-2094.788 32.07,-1035.967 229.07,-2434.099 591.273,-4189.603 l -458.41,0 c -485.903,0 -1040.529,-77.895 -1663.872,-238.246 -861.85,-215.314 -1292.775,-495.051 -1292.775,-834.362 0,-109.949 298.063,-160.325 889.339,-160.325 788.547,0 1737.442,-100.802 2846.692,-298.083 l 806.869,-3703.674 c 0,-536.304 -137.441,-958.072 -403.436,-1265.303 -252.248,-247.394 -375.946,-426.327 -375.946,-536.278 0,-233.659 293.483,-348.458 884.756,-348.458 270.573,0 673.743,293.471 1210.039,884.736 536.298,572.972 811.453,1031.381 829.779,1370.665 -247.399,504.224 -499.647,1013.034 -751.625,1531.018 -178.676,412.593 -375.947,1003.86 -591.275,1774.085 343.876,-91.63 861.849,-224.486 1558.496,-403.421 2058.146,-517.984 3249.859,-779.399 3575.409,-779.399 z m -7632.135,8512.325 c -678.323,430.915 -1279.031,944.312 -1797.002,1531.017 -948.897,1003.861 -1425.637,1897.796 -1425.637,2686.054 0,1113.836 449.25,1677.634 1343.17,1695.955 825.2,-54.988 1906.957,-572.946 3249.857,-1558.511 -68.721,-146.591 -247.398,-563.772 -536.296,-1265.013 -462.997,-1090.929 -742.463,-2122.283 -834.362,-3089.502 z m 6046.15,-2012.333 c -1343.169,105.364 -2695.234,449.262 -4056.728,1022.208 -73.303,18.32 -187.84,59.547 -348.459,132.857 54.977,1613.473 375.947,2988.725 967.222,4134.614 0,18.321 9.162,36.641 27.488,54.989 1787.838,-1558.51 2924.576,-3341.77 3410.477,-5344.929 z"
       id="path11"
       inkscape:connector-curvature="0"
       style="fill:#394050;fill-opacity:1;fill-rule:nonzero" /><path
       inkscape:connector-curvature="0"
       id="path4173"
       d="m 79797.919,40546.628 4245.535,13062.457 7917.732,-9416.487 -12163.267,-3645.97 z"
       style="fill:#4455b6;fill-opacity:1;fill-rule:evenodd;stroke:none;stroke-width:31.06856537px;stroke-linecap:butt;stroke-linejoin:miter;stroke-opacity:1" /><path
       inkscape:connector-curvature="0"
       id="rect4148"
       d="m 61849.887,6045.7895 c -2065.041,0 -3727.51,1662.4695 -3727.51,3727.5101 l 0,30987.8514 c 0,2065.04 1662.469,3727.511 3727.51,3727.511 l 28616.731,0 c 535.599,0 1043.837,-112.505 1503.302,-314.188 L 79576.588,6045.7895 l -17726.701,0 z"
       style="fill:#5290f5;fill-opacity:1;stroke:none" /><g
       transform="matrix(33.983288,0,0,33.983288,61776.167,15852.668)"
       id="g4151"><path
         style="fill:#ffffff;fill-opacity:1;fill-rule:evenodd"
         inkscape:connector-curvature="0"
         id="path6"
         d="m 482.56,261.36 c 0,-16.73 -1.5,-32.83 -4.29,-48.27 l -222.27,0 0,91.29 127.01,0 c -5.47,29.5 -22.1,54.49 -47.09,71.23 l 0,59.21 76.27,0 c 44.63,-41.09 70.37,-101.59 70.37,-173.46 z" /><path
         style="fill:#ffffff;fill-opacity:1;fill-rule:evenodd"
         inkscape:connector-curvature="0"
         id="path8"
         d="m 256,492 c 63.72,0 117.14,-21.13 156.19,-57.18 l -76.27,-59.21 c -21.13,14.16 -48.17,22.53 -79.92,22.53 -61.47,0 -113.49,-41.51 -132.05,-97.3 l -78.85,0 0,61.15 C 83.93,439.12 163.74,492 256,492 Z" /><path
         style="fill:#ffffff;fill-opacity:1;fill-rule:evenodd"
         inkscape:connector-curvature="0"
         id="path10"
         d="m 123.95,300.84 c -4.72,-14.16 -7.4,-29.29 -7.4,-44.84 0,-15.55 2.68,-30.68 7.4,-44.84 l 0,-61.15 -78.85,0 C 29.12,181.87 20,217.92 20,256 c 0,38.08 9.12,74.13 25.1,105.99 l 78.85,-61.15 z" /><path
         style="fill:#ffffff;fill-opacity:1;fill-rule:evenodd"
         inkscape:connector-curvature="0"
         id="path12"
         d="m 256,113.86 c 34.65,0 65.76,11.91 90.22,35.29 L 413.91,81.46 C 373.03,43.39 319.61,20 256,20 163.75,20 83.93,72.89 45.1,150.01 l 78.85,61.15 c 18.56,-55.78 70.59,-97.3 132.05,-97.3 z" /><path
         style="fill:none"
         inkscape:connector-curvature="0"
         id="path14"
         d="m 20,20 472,0 0,472 -472,0 0,-472 z" /></g></g></svg>