<?xml version="1.0" encoding="UTF-8" standalone="no"?>
<!-- Generator: Adobe Illustrator 19.0.0, SVG Export Plug-In . SVG Version: 6.00 Build 0)  -->

<svg
   xmlns:dc="http://purl.org/dc/elements/1.1/"
   xmlns:cc="http://creativecommons.org/ns#"
   xmlns:rdf="http://www.w3.org/1999/02/22-rdf-syntax-ns#"
   xmlns:svg="http://www.w3.org/2000/svg"
   xmlns="http://www.w3.org/2000/svg"
   xmlns:sodipodi="http://sodipodi.sourceforge.net/DTD/sodipodi-0.dtd"
   xmlns:inkscape="http://www.inkscape.org/namespaces/inkscape"
   version="1.1"
   id="Layer_1"
   x="0px"
   y="0px"
   viewBox="0 0 500 500"
   xml:space="preserve"
   inkscape:version="0.91 r13725"
   width="100%"
   height="100%"
   sodipodi:docname="grandr.svg"><metadata
     id="metadata57"><rdf:RDF><cc:Work
         rdf:about=""><dc:format>image/svg+xml</dc:format><dc:type
           rdf:resource="http://purl.org/dc/dcmitype/StillImage" /></cc:Work></rdf:RDF></metadata><defs
     id="defs55" /><sodipodi:namedview
     pagecolor="#ffffff"
     bordercolor="#666666"
     borderopacity="1"
     objecttolerance="10"
     gridtolerance="10"
     guidetolerance="10"
     inkscape:pageopacity="0"
     inkscape:pageshadow="2"
     inkscape:window-width="1366"
     inkscape:window-height="715"
     id="namedview53"
     showgrid="false"
     inkscape:zoom="0.7433037"
     inkscape:cx="460.23557"
     inkscape:cy="383.95737"
     inkscape:window-x="0"
     inkscape:window-y="24"
     inkscape:window-maximized="1"
     inkscape:current-layer="Layer_1" /><g
     id="g23"
     transform="translate(0,39.767)" /><g
     id="g25"
     transform="translate(0,39.767)" /><g
     id="g27"
     transform="translate(0,39.767)" /><g
     id="g29"
     transform="translate(0,39.767)" /><g
     id="g31"
     transform="translate(0,39.767)" /><g
     id="g33"
     transform="translate(0,39.767)" /><g
     id="g35"
     transform="translate(0,39.767)" /><g
     id="g37"
     transform="translate(0,39.767)" /><g
     id="g39"
     transform="translate(0,39.767)" /><g
     id="g41"
     transform="translate(0,39.767)" /><g
     id="g43"
     transform="translate(0,39.767)" /><g
     id="g45"
     transform="translate(0,39.767)" /><g
     id="g47"
     transform="translate(0,39.767)" /><g
     id="g49"
     transform="translate(0,39.767)" /><g
     id="g51"
     transform="translate(0,39.767)" /><g
     id="g3382"><polygon
       transform="matrix(0.90000001,0,0,0.90000001,42.204682,65.365406)"
       id="polygon3"
       points="309.125,441.463 151.34,441.463 171.063,352.014 289.402,352.014 "
       style="fill:#cccccc" /><rect
       id="rect5"
       height="16.4664"
       width="177.47369"
       style="fill:#d8d9dd"
       y="453.5336"
       x="160.67709" /><rect
       id="rect11"
       height="16.4664"
       width="177.47369"
       style="opacity:0.4;fill:#394050;enable-background:new"
       y="453.5336"
       x="160.67709" /><path
       id="path9"
       d="m 454.89087,122.60785 c 0.0117,0 0.22108,0.13599 0.22108,0.14772 l 0,250.43185 -410.224885,0 0,-250.43185 c 0,-0.0117 0.145761,-0.14772 0.1575,-0.14772 l 409.846305,0 0,0 z"
       style="fill:#666666;fill-opacity:1"
       inkscape:connector-curvature="0" /><path
       id="path7"
       d="m 454.89087,122.60785 c 0.0117,0 0.22108,0.13599 0.22108,0.14772 l 0,250.43185 -410.224885,0 0,-250.43185 c 0,-0.0117 0.145761,-0.14772 0.1575,-0.14772 l 409.846305,0 0,0 z M 475,247.89666 475,122.72035 c 0,-10.61119 -9.46173,-19.99956 -20.07391,-19.99956 l 0,0 -409.916742,0 C 34.398152,102.72079 25,112.10916 25,122.72035 l 0,125.17631 0,0.003 0,125.17728 c 0,10.61218 9.398152,19.99957 20.009348,19.99957 l 409.916742,0 0,0 c 10.61218,0 20.07391,-9.38837 20.07391,-19.99957 l 0,-125.17728 0,-0.003 z"
       style="fill:#394050"
       inkscape:connector-curvature="0" /><g
       transform="matrix(0.49241214,0,0,0.49241214,129.77193,79.732919)"
       id="g3378"><path
         style="fill:#999999;stroke:none"
         d="m 373.33291,187.2816 26.66466,16.99871 49.66296,-28.66452 c 0,0 2.31785,32.1284 -14.99891,54.66256 -17.31672,22.53417 -35.33068,34.33079 -35.33068,34.33079 l -32.6642,-70.99468 z"
         id="path3773"
         inkscape:connector-curvature="0"
         sodipodi:nodetypes="ccczccc" /><path
         style="fill:#ebebeb;stroke:none"
         d="m 271.63637,267.78046 c 0,0 10.67421,-8.85316 16.9987,-24.66482 6.3245,-15.81167 2.62928,-47.60519 7.56153,-62.84333 4.93224,-15.23816 1.3464,-25.54444 38.10169,-49.14828 36.7553,-23.60384 93.82133,-0.91906 93.82133,-0.91906 l -50.49128,26.5838 -3.99969,32.33093 44.32998,82.99377 c 0,0 -31.12422,0.40077 -44.32998,3.33308 -13.20576,2.93232 -24.77458,7.78797 -34.33074,12.99904 -9.55617,5.21106 -22.99826,16.99872 -22.99826,16.99872 z"
         id="path3771"
         inkscape:connector-curvature="0"
         sodipodi:nodetypes="czzzcccczzcc" /><path
         style="fill:#00bbf2;fill-opacity:1;stroke:none"
         d="m 55.021921,555.72277 c -25.33234,-23.82867 -10.18639,-45.89636 -7.5419,-51.8504 2.6445,-5.95404 72.627309,-85.07125 100.872929,-115.01406 28.24564,-29.9428 44.95748,-44.2097 66.93439,-65.99169 21.97692,-21.78199 64.93105,-64.69543 64.93105,-64.69543 0,0 18.55119,8.95364 26.27883,15.67304 7.72764,6.71941 19.32611,24.03982 19.32611,24.03982 0,0 -52.52359,66.06589 -76.59743,96.6307 -24.07386,30.56479 -45.53025,59.56534 -67.87712,86.73194 -22.34688,27.16656 -60.22957,72.16082 -65.99164,76.36169 -5.76209,4.20073 -35.002889,21.94322 -60.335219,-1.88561 z"
         id="path3769"
         inkscape:connector-curvature="0"
         sodipodi:nodetypes="zzzzczczzzz" /><path
         style="fill:#ffffff;stroke:none"
         d="m 317.29959,240.78248 18.99856,35.3307 38.99706,-18.9986 -18.33196,-37.33052 z"
         id="path3775"
         inkscape:connector-curvature="0" /><path
         style="fill:#808080;stroke:none"
         d="m 324.69355,236.21346 0.70706,4.7137 4.00663,1.64979 -1.41411,6.36348 5.65644,2.59253 -0.47137,6.83487 6.83483,3.29957 -0.94274,7.7776 4.47802,3.29958 27.57507,-12.96266 1.41411,-5.42074 -4.00663,-2.59253 0,-7.77759 -5.18505,-1.41411 -0.23571,-7.30621 -4.71368,-2.59254 -0.47137,-8.24896 -5.55062,-2.28631 z"
         id="path3777"
         inkscape:connector-curvature="0"
         sodipodi:nodetypes="ccccccccccccccccccc" /><path
         sodipodi:type="arc"
         style="fill:#ffffff;fill-opacity:1;stroke:none"
         id="path3779"
         sodipodi:cx="87.629601"
         sodipodi:cy="524.25287"
         sodipodi:rx="16.456923"
         sodipodi:ry="17.204977"
         d="M 104.08652,524.25287 A 16.456923,17.204977 0 0 1 87.648916,541.45783 16.456923,17.204977 0 0 1 71.172723,524.29326 16.456923,17.204977 0 0 1 87.571653,507.048 16.456923,17.204977 0 0 1 104.08634,524.17209"
         sodipodi:start="0"
         sodipodi:end="6.2784904"
         sodipodi:open="true" /><path
         style="fill:#394050;fill-opacity:0.39215686;stroke:none"
         d="m 119.64018,484.28193 c -17.73641,-14.30273 -4.13324,-32.96014 -4.13324,-32.96014 0,0 68.97242,-76.39339 93.47984,-100.71241 24.5074,-24.319 51.48294,-47.05134 51.48294,-47.05134 0,0 7.00557,-7.92812 16.02987,0.32962 9.02431,8.25775 4.47933,16.12879 4.47933,16.12879 0,0 -26.42164,39.07343 -47.87102,66.3696 -21.44937,27.29617 -82.16003,96.13416 -82.16003,96.13416 0,0 -13.57127,16.06448 -31.30769,1.76172 z"
         id="path2994"
         inkscape:connector-curvature="0"
         sodipodi:nodetypes="zczczczcz" /><path
         style="fill:#ebebeb;stroke:none"
         d="m 216.45617,339.29236 -149.988639,-147.9889 -23.33153,-13.99895 -28.66457,-37.33053 18.66529,-19.99852 41.99683,27.99791 9.33264,22.66497 149.988639,150.65537"
         id="path3767"
         inkscape:connector-curvature="0" /><path
         style="fill:#f03916;stroke:none"
         d="m 189.26453,357.59491 26.66468,26.33135 13.33226,1.66656 c 0,0 10.98033,5.61164 21.99828,17.33203 11.0181,11.72038 27.04926,40.56154 38.99715,56.3291 11.94774,15.76756 13.59558,20.34038 31.99755,38.66379 18.40182,18.32339 81.66045,66.995 81.66045,66.995 0,0 21.41625,7.77448 42.66346,-14.66569 21.2472,-22.43997 17.66534,-44.99653 17.66534,-44.99653 0,0 -40.12121,-54.24513 -58.32891,-72.99453 -18.2077,-18.74941 -32.67148,-29.45146 -48.32964,-40.99693 -15.65832,-11.54548 -33.07733,-18.57205 -44.99666,-28.66452 -11.91932,-10.09247 -26.99799,-29.99775 -26.99799,-29.99775 l -1.99973,-11.33249 -26.66468,-28.33121 -14.66551,-0.66661 -51.32947,50.99617 z"
         id="path2997"
         inkscape:connector-curvature="0"
         sodipodi:nodetypes="ccczzzczczzzcccccc" /><path
         style="fill:#394050;fill-opacity:0.39215686;stroke:none"
         d="m 210.23239,332.79859 19.64063,-20.44243 32.8683,30.46321 -20.84326,20.84325 z"
         id="path3764"
         inkscape:connector-curvature="0"
         sodipodi:nodetypes="ccccc" /><path
         style="fill:#394050;fill-opacity:0.39215686;stroke:none"
         d="m 290.6245,399.38472 c 3.55996,12.33503 23.64231,40.79464 38.50734,59.22382 14.86503,18.42921 36.86728,39.89818 50.2781,50.7241 13.41099,10.82593 18.64021,14.56749 26.9599,17.22243 8.31953,2.65496 15.69086,5.25604 20.38202,1.00625 4.69116,-4.24979 3.65551,-10.9255 1.43325,-19.25192 -2.22209,-8.32644 -7.51132,-15.5944 -18.44641,-28.72075 -10.9351,-13.12633 -31.51583,-31.99463 -49.90749,-46.73292 -18.39165,-14.7383 -48.06854,-35.14337 -60.9067,-39.45419 -7.51037,-2.60022 -10.38529,-1.22399 -8.30001,5.98318 z"
         id="path3770"
         inkscape:connector-curvature="0"
         sodipodi:nodetypes="czzzzzzzcc" /></g></g></svg>