<?xml version="1.0" encoding="UTF-8" standalone="no"?>
<!-- Created with Inkscape (http://www.inkscape.org/) -->

<svg
   xmlns:dc="http://purl.org/dc/elements/1.1/"
   xmlns:cc="http://creativecommons.org/ns#"
   xmlns:rdf="http://www.w3.org/1999/02/22-rdf-syntax-ns#"
   xmlns:svg="http://www.w3.org/2000/svg"
   xmlns="http://www.w3.org/2000/svg"
   xmlns:sodipodi="http://sodipodi.sourceforge.net/DTD/sodipodi-0.dtd"
   xmlns:inkscape="http://www.inkscape.org/namespaces/inkscape"
   id="svg2"
   version="1.1"
   inkscape:version="0.91 r13725"
   width="1024"
   height="1024"
   sodipodi:docname="hotot.svg">
  <metadata
     id="metadata8">
    <rdf:RDF>
      <cc:Work
         rdf:about="">
        <dc:format>image/svg+xml</dc:format>
        <dc:type
           rdf:resource="http://purl.org/dc/dcmitype/StillImage" />
        <dc:title />
      </cc:Work>
    </rdf:RDF>
  </metadata>
  <defs
     id="defs6" />
  <sodipodi:namedview
     pagecolor="#ffffff"
     bordercolor="#666666"
     borderopacity="1"
     objecttolerance="10"
     gridtolerance="10"
     guidetolerance="10"
     inkscape:pageopacity="0"
     inkscape:pageshadow="2"
     inkscape:window-width="1366"
     inkscape:window-height="715"
     id="namedview4"
     showgrid="false"
     inkscape:zoom="0.23046875"
     inkscape:cx="990.67884"
     inkscape:cy="153.45311"
     inkscape:window-x="0"
     inkscape:window-y="24"
     inkscape:window-maximized="1"
     inkscape:current-layer="svg2" />
  <g
     id="g4235">
    <path
       inkscape:connector-curvature="0"
       id="path4151-3"
       d="m 711.6321,373.09664 68.84686,-240.28918 -18.89908,-9.44952 -95.84572,205.19072 z"
       style="fill:#cccccc;fill-rule:evenodd;stroke:none;stroke-width:1px;stroke-linecap:butt;stroke-linejoin:miter;stroke-opacity:1" />
    <ellipse
       transform="scale(-1,1)"
       ry="51.297684"
       rx="51.972645"
       cy="99.058838"
       cx="-775.75378"
       id="path4153-6"
       style="fill:#e6e6e6;fill-opacity:1;stroke:none;stroke-width:1;stroke-miterlimit:4;stroke-dasharray:none;stroke-opacity:1" />
    <path
       sodipodi:nodetypes="cczzzzcccccc"
       inkscape:connector-curvature="0"
       id="path4147"
       d="m 157.27905,572.87074 26.6055,4.3438 c 0,0 17.11533,-38.45497 74.07529,-68.75477 56.95995,-30.29981 186.21156,-28.51147 284.82713,-31.69451 98.61558,-3.18304 239.15238,21.23957 280.17198,21.71878 41.01961,0.4791 45.12998,3.10308 56.46875,9.77344 11.33877,6.67036 13.57421,16.83201 13.57421,16.83201 L 840.33393,585.90203 558.1023,713.39888 303.16813,699.57713 172.6296,632.00424 Z"
       style="fill:#394050;fill-opacity:1;fill-rule:evenodd;stroke:none;stroke-width:1px;stroke-linecap:butt;stroke-linejoin:miter;stroke-opacity:1" />
    <path
       inkscape:connector-curvature="0"
       id="path4151"
       d="M 332.47656,404.82269 254.1534,131.45953 275.65388,120.70932 384.692,354.14302 Z"
       style="fill:#cccccc;fill-rule:evenodd;stroke:none;stroke-width:1px;stroke-linecap:butt;stroke-linejoin:miter;stroke-opacity:1" />
    <ellipse
       ry="297.54697"
       rx="305.14853"
       cy="585.35913"
       cx="531.92761"
       id="path4149"
       style="fill:#e6e6e6;fill-opacity:1;stroke:none;stroke-width:1;stroke-miterlimit:4;stroke-dasharray:none;stroke-opacity:1" />
    <path
       sodipodi:nodetypes="ccccccccc"
       inkscape:connector-curvature="0"
       id="path4173"
       d="m 322.36254,679.02149 -2.1719,-112.94524 c 0,0 -7.57611,-74.20758 -0.38396,-95.21638 28.51504,-63.98166 153.14552,-53.45684 213.469,-52.98335 45.58358,0.45474 114.42727,3.22517 145.51209,10.36631 34.81871,5.97153 53.15403,20.7974 61.42993,54.1351 3.12437,12.88054 0,37.62584 0,37.62584 l -1.90981,151.7033 z"
       style="fill:#394050;fill-opacity:1;fill-rule:evenodd;stroke:none;stroke-width:1px;stroke-linecap:butt;stroke-linejoin:miter;stroke-opacity:1" />
    <ellipse
       ry="89.841255"
       rx="64.501411"
       cy="565.12189"
       cx="464.70523"
       id="path4175"
       style="fill:#f9f9f9;fill-opacity:1;stroke:none;stroke-width:1;stroke-miterlimit:4;stroke-dasharray:none;stroke-opacity:1" />
    <ellipse
       ry="73.057724"
       rx="52.451694"
       cy="561.3927"
       cx="610.57391"
       id="path4175-7"
       style="fill:#f9f9f9;fill-opacity:1;stroke:none;stroke-width:1;stroke-miterlimit:4;stroke-dasharray:none;stroke-opacity:1" />
    <path
       sodipodi:nodetypes="cccccccccccccccccccc"
       inkscape:connector-curvature="0"
       id="path4145"
       d="m 157.27208,570.57431 36.85799,49.14396 36.85792,-47.60819 73.71591,64.50141 75.25167,-12.28598 33.78645,23.03619 26.10772,-13.82169 87.53759,33.78644 62.9657,-58.35845 78.32315,-30.71496 35.32216,16.89322 86.00194,0 38.39369,-46.07242 49.1439,-10.75021 15.35751,-13.82174 c 0,0 3.57312,92.17349 -4.60724,138.21732 -30.14,161.31721 -146.5003,298.37456 -307.14961,328.65007 -27.43854,5.06556 -52.18361,5.87725 -81.39463,3.07148 C 317.73638,973.56385 192.34818,819.89269 163.4151,647.3617 c -4.82029,-29.07925 -6.14302,-76.78739 -6.14302,-76.78739 z"
       style="fill:#00bbf2;fill-opacity:1;fill-rule:evenodd;stroke:none;stroke-width:1px;stroke-linecap:butt;stroke-linejoin:miter;stroke-opacity:1" />
    <ellipse
       ry="58.358425"
       rx="59.126293"
       cy="93.065674"
       cx="259.52884"
       id="path4153"
       style="fill:#e6e6e6;fill-opacity:1;stroke:none;stroke-width:1;stroke-miterlimit:4;stroke-dasharray:none;stroke-opacity:1" />
    <path
       sodipodi:nodetypes="zczcczcczz"
       inkscape:connector-curvature="0"
       id="path4154"
       d="m 399.55593,814.73866 c 10.29265,-9.38185 27.64657,-48.38149 27.64657,-48.38149 0,0 7.31192,-12.37971 4.60775,-27.07058 -2.70416,-14.69088 -22.46284,-27.07062 -22.46284,-27.07062 l -72.57219,-48.3814 c 0,0 -23.43261,-9.84705 -37.43806,5.18372 -14.00539,15.03079 -2.87982,33.98219 -2.87982,33.98219 l 39.74189,79.48387 c 0,0 16.55201,37.84895 30.52642,40.89384 13.97437,3.04491 22.53762,0.74232 32.83028,-8.63953 z"
       style="fill:#80e5ff;fill-opacity:1;fill-rule:evenodd;stroke:none;stroke-width:1px;stroke-linecap:butt;stroke-linejoin:miter;stroke-opacity:1" />
    <path
       sodipodi:nodetypes="cccc"
       inkscape:connector-curvature="0"
       id="path4156"
       d="m 593.02177,847.31026 c 41.15785,11.61708 46.20854,-35.64204 40.04463,-63.46695 -15.08949,-53.23062 -83.10979,-121.93994 -129.95612,-85.37814 -50.66209,61.56988 43.00638,136.43402 89.91149,148.84509 z"
       style="fill:#80e5ff;fill-opacity:1;fill-rule:evenodd;stroke:none;stroke-width:1px;stroke-linecap:butt;stroke-linejoin:miter;stroke-opacity:1" />
    <path
       sodipodi:nodetypes="zzzzzzzz"
       inkscape:connector-curvature="0"
       id="path4158"
       d="m 754.63787,741.78909 c -17.74534,13.76931 -45.0317,9.19094 -64.53805,0 -19.5063,-9.19094 -39.44273,-30.08454 -41.28108,-50.00241 -1.83834,-19.91787 15.0526,-36.6437 26.74549,-48.25818 11.69289,-11.61447 23.60342,-18.23586 38.37399,-20.93125 14.77056,-2.6954 34.3218,-3.81744 45.93245,6.39567 11.61073,10.21312 12.06172,25.33152 12.20992,44.7696 0.14797,19.43808 0.30261,54.25726 -17.44272,68.02657 z"
       style="fill:#80e5ff;fill-opacity:1;fill-rule:evenodd;stroke:none;stroke-width:6.064147px;stroke-linecap:butt;stroke-linejoin:miter;stroke-opacity:1" />
    <path
       id="path4160"
       d="M 892.89453 524.50195 L 877.53711 538.32422 L 828.39453 549.07422 L 790 595.14648 L 761.58008 595.14648 C 769.36737 612.99068 793.14629 610.5639 808.45117 615.93945 C 828.08284 622.83471 851.01712 611.43986 869.04688 614.40625 C 879.41675 616.11238 884.37322 627.40801 891.7207 633.26758 C 895.26754 585.6937 892.89453 524.50195 892.89453 524.50195 z "
       style="fill:#80e5ff;fill-opacity:1;fill-rule:evenodd;stroke:none;stroke-width:1px;stroke-linecap:butt;stroke-linejoin:miter;stroke-opacity:1" />
    <path
       id="path4197"
       d="M 843.20703 713.67969 C 836.66293 713.53721 829.918 715.65077 822.66016 717.00781 C 808.14453 719.7219 788.40285 728.87636 781.39453 741.76758 C 774.38628 754.65881 787.96114 767.31072 782.76953 781.6582 C 777.57785 796.00568 750.70803 805.48992 748.38086 820.17383 C 746.05377 834.85774 754.74285 842.74412 763.51172 854.5625 C 768.71572 861.57628 772.3219 872.96199 779.72656 880.42578 C 818.22851 839.29452 848.42191 789.62815 868.37695 735.21289 C 867.02606 730.78575 865.11843 726.93301 862.55078 723.88477 C 856.09441 716.21994 849.75113 713.82217 843.20703 713.67969 z "
       style="fill:#80e5ff;fill-opacity:1;fill-rule:evenodd;stroke:none;stroke-width:7.17331028px;stroke-linecap:butt;stroke-linejoin:miter;stroke-opacity:1" />
    <path
       id="path4202"
       d="M 662.54688 854.06836 C 657.05564 854.12883 651.80889 854.64528 647.08594 855.52539 C 625.49529 859.54875 611.88696 876.82705 600.32812 890.2168 C 588.76931 903.60654 578.41788 915.30253 577.70312 932.44922 C 576.98842 949.59589 587.29196 969.18631 599.57422 982.97852 C 600.63948 984.17474 601.69335 985.38051 602.75 986.58398 C 651.01757 974.31005 694.886 952.23359 733.14062 922.78711 C 733.20785 904.79003 727.96652 887.09677 717.97656 875.13477 C 704.88518 859.45923 682.15843 853.85239 662.54688 854.06836 z "
       style="fill:#80e5ff;fill-opacity:1;fill-rule:evenodd;stroke:none;stroke-width:5.56188917px;stroke-linecap:butt;stroke-linejoin:miter;stroke-opacity:1" />
    <path
       id="path4207"
       d="M 401.75977 868.26367 C 385.50491 868.3932 370.19313 871.65587 361.67773 880.41016 C 344.64701 897.91873 351.83581 919.27068 359.47656 940.92383 C 360.41811 943.59207 361.44089 946.30598 362.56445 949.03516 C 403.4007 972.71762 449.40155 988.66693 499.74414 994.44141 C 506.58032 995.09803 513.16476 995.54856 519.60352 995.80078 C 522.48018 993.60683 524.89167 991.09741 526.71875 988.23633 C 544.03218 961.12483 515.47536 936.18488 501.41211 916.71875 C 487.34886 897.25261 472.07038 882.45032 447.49805 874.9082 C 435.21186 871.13714 418.01462 868.13414 401.75977 868.26367 z "
       style="fill:#80e5ff;fill-opacity:1;fill-rule:evenodd;stroke:none;stroke-width:5.73780584px;stroke-linecap:butt;stroke-linejoin:miter;stroke-opacity:1" />
    <path
       id="path4212"
       d="M 199.22852 658.16016 C 188.70521 658.1106 176.34828 658.83242 165.66211 659.64453 C 172.32596 693.77094 182.7622 727.04162 196.66992 758.56445 C 208.79622 746.49419 225.64615 729.34633 233.66602 719.42773 C 246.9286 703.02512 269.1488 691.94364 263.42188 675.27344 C 257.69495 658.60322 234.07091 661.81085 213.50781 658.95508 C 209.65224 658.41962 204.71183 658.18598 199.22852 658.16016 z "
       style="fill:#80e5ff;fill-opacity:1;fill-rule:evenodd;stroke:none;stroke-width:1px;stroke-linecap:butt;stroke-linejoin:miter;stroke-opacity:1" />
    <path
       id="path4212-3"
       d="M 272.58203 812.97461 C 261.9059 812.98319 248.77132 817.99532 236.01758 820.38281 C 234.40582 820.68453 232.59808 821.12095 230.69141 821.62695 C 243.19234 840.89514 257.16672 859.08322 272.50977 875.92969 C 273.18523 874.28794 273.80741 872.72991 274.33008 871.32812 C 281.69937 851.56363 299.25215 834.00149 288.5293 820.01172 C 284.50822 814.76555 278.98771 812.96946 272.58203 812.97461 z "
       style="fill:#80e5ff;fill-opacity:1;fill-rule:evenodd;stroke:none;stroke-width:1px;stroke-linecap:butt;stroke-linejoin:miter;stroke-opacity:1" />
  </g>
</svg>
