<?xml version="1.0" encoding="UTF-8" standalone="no"?>
<!-- Generator: Adobe Illustrator 19.0.0, SVG Export Plug-In . SVG Version: 6.00 Build 0)  -->

<svg
   xmlns:dc="http://purl.org/dc/elements/1.1/"
   xmlns:cc="http://creativecommons.org/ns#"
   xmlns:rdf="http://www.w3.org/1999/02/22-rdf-syntax-ns#"
   xmlns:svg="http://www.w3.org/2000/svg"
   xmlns="http://www.w3.org/2000/svg"
   xmlns:sodipodi="http://sodipodi.sourceforge.net/DTD/sodipodi-0.dtd"
   xmlns:inkscape="http://www.inkscape.org/namespaces/inkscape"
   version="1.1"
   id="Layer_1"
   x="0px"
   y="0px"
   viewBox="0 0 500 500"
   xml:space="preserve"
   inkscape:version="0.91 r13725"
   width="100%"
   height="100%"
   sodipodi:docname="instagram.svg"><metadata
     id="metadata57"><rdf:RDF><cc:Work
         rdf:about=""><dc:format>image/svg+xml</dc:format><dc:type
           rdf:resource="http://purl.org/dc/dcmitype/StillImage" /></cc:Work></rdf:RDF></metadata><defs
     id="defs55" /><sodipodi:namedview
     pagecolor="#ffffff"
     bordercolor="#666666"
     borderopacity="1"
     objecttolerance="10"
     gridtolerance="10"
     guidetolerance="10"
     inkscape:pageopacity="0"
     inkscape:pageshadow="2"
     inkscape:window-width="1366"
     inkscape:window-height="715"
     id="namedview53"
     showgrid="false"
     inkscape:zoom="0.37165185"
     inkscape:cx="937.0019"
     inkscape:cy="365.4196"
     inkscape:window-x="0"
     inkscape:window-y="24"
     inkscape:window-maximized="1"
     inkscape:current-layer="Layer_1" /><g
     id="g23"
     transform="translate(0,39.767)" /><g
     id="g25"
     transform="translate(0,39.767)" /><g
     id="g27"
     transform="translate(0,39.767)" /><g
     id="g29"
     transform="translate(0,39.767)" /><g
     id="g31"
     transform="translate(0,39.767)" /><g
     id="g33"
     transform="translate(0,39.767)" /><g
     id="g35"
     transform="translate(0,39.767)" /><g
     id="g37"
     transform="translate(0,39.767)" /><g
     id="g39"
     transform="translate(0,39.767)" /><g
     id="g41"
     transform="translate(0,39.767)" /><g
     id="g43"
     transform="translate(0,39.767)" /><g
     id="g45"
     transform="translate(0,39.767)" /><g
     id="g47"
     transform="translate(0,39.767)" /><g
     id="g49"
     transform="translate(0,39.767)" /><g
     id="g51"
     transform="translate(0,39.767)" /><g
     id="g4226"
     transform="matrix(2.5027231,0,0,2.5027231,-634.20758,-429.81934)"><path
       sodipodi:nodetypes="sssssssssssssssssssssssssssssssssssssssss"
       inkscape:connector-curvature="0"
       id="path3371-3"
       d="m 311.37001,360.64563 c -24.89626,-2.58462 -40.29308,-15.47848 -46.1992,-38.6889 -1.51349,-5.94782 -1.73334,-12.32918 -1.73334,-50.3118 0,-47.53761 0.27455,-50.34401 6.1449,-62.8118 3.42386,-7.27179 13.03512,-16.85666 20.50813,-20.45183 12.34666,-5.93982 15.08186,-6.20582 63.81376,-6.20582 48.73189,0 51.46708,0.266 63.81375,6.20582 7.47301,3.59517 17.08426,13.18004 20.50812,20.45183 5.87035,12.46779 6.1449,15.27419 6.1449,62.8118 0,47.53761 -0.27455,50.34401 -6.1449,62.8118 -3.42136,7.26647 -13.03547,16.85686 -20.49693,20.44635 -11.63515,5.59733 -14.86093,5.9443 -58.32495,6.27359 -21.99999,0.16667 -43.61541,-0.0723 -48.03424,-0.53104 z m 81.91524,-16.01317 c 15.5493,-1.51207 24.8913,-6.78593 30.09137,-16.98753 4.54378,-8.91408 4.98615,-13.88241 4.98615,-56 0,-42.11759 -0.44237,-47.08592 -4.98615,-56 -5.20007,-10.2016 -14.54207,-15.47546 -30.09137,-16.98753 -12.78267,-1.24304 -65.97933,-1.24304 -78.76199,0 -19.88092,1.93329 -29.814,10.02772 -33.73135,27.48753 -1.92146,8.56406 -1.92146,82.43594 0,91 3.79536,16.91612 14.11347,25.66629 32.34309,27.42823 11.90417,1.15057 68.4977,1.19244 80.15025,0.0593 z M 341.81608,316.2004 c -12.71452,-3.50741 -24.62694,-13.44554 -30.03299,-25.05547 -14.22258,-30.54418 8.24939,-65.47626 42.12117,-65.47626 22.92369,0 42.42367,16.63694 45.97668,39.22626 3.59234,22.83939 -11.3929,45.24842 -34.34508,51.35987 -6.28601,1.67377 -17.54874,1.64794 -23.71978,-0.0544 z m 25.71152,-17.85199 c 10.15755,-5.17224 16.37665,-15.31299 16.37665,-26.70348 0,-11.35907 -6.14948,-21.41628 -16.37665,-26.7833 -4.39322,-2.30548 -6.33469,-2.68864 -13.62334,-2.68864 -7.28867,0 -9.23013,0.38316 -13.62335,2.68864 -6.37372,3.3448 -12.73026,10.43801 -14.80155,16.51691 -5.64674,16.57226 3.25561,33.74099 20.4249,39.39069 4.92313,1.62 16.15783,0.36223 21.62334,-2.42082 z m 30.75495,-65.12842 c -6.92321,-3.03972 -8.57857,-11.08098 -3.46033,-16.80928 4.23266,-4.73718 10.9314,-4.73718 15.16406,0 7.65437,8.56673 -1.27327,21.38891 -11.70373,16.80928 z"
       style="fill:#f03916;fill-opacity:1" /><path
       id="path3403"
       d="m 264.19922,228.43555 c -0.69186,8.22511 -0.76172,20.65538 -0.76172,43.20898 0,37.98262 0.21893,44.36468 1.73242,50.3125 5.90612,23.21042 21.30296,36.10483 46.19922,38.68945 4.41883,0.45874 26.03517,0.69597 48.03516,0.5293 42.81744,-0.32439 46.59997,-0.67579 57.82617,-6.03711 l -14.58203,-12.07422 c -2.84105,0.70877 -5.94382,1.23584 -9.36328,1.56836 -11.65255,1.13314 -68.24622,1.09003 -80.15039,-0.0605 -18.22962,-1.76194 -28.54839,-10.51162 -32.34375,-27.42774 -1.47123,-6.55735 -1.81106,-51.32378 -1.0293,-75.82422 l -15.5625,-12.88476 z m 43.8164,36.27929 c -1.36027,8.5537 -0.3111,17.67038 3.76758,26.42969 5.40605,11.60993 17.31869,21.54923 30.03321,25.05664 6.17104,1.70234 17.43274,1.72651 23.71875,0.0527 1.16916,-0.31132 2.31303,-0.67457 3.43945,-1.06836 l -16.55859,-13.70899 c -2.56703,0.0439 -4.8861,-0.1721 -6.51172,-0.70703 -11.16228,-3.67304 -18.82385,-12.21752 -21.27149,-22.29883 L 308.01562,264.7148 Z"
       style="fill:#ffcc00;fill-opacity:1;fill-rule:evenodd;stroke:none;stroke-width:1px;stroke-linecap:butt;stroke-linejoin:miter;stroke-opacity:1"
       inkscape:connector-curvature="0" /><path
       id="path3403-6"
       d="m 353.9043,182.17578 c -41.89467,0 -49.79639,0.20788 -59.03321,4.03711 l 15.64258,12.94922 c 1.29306,-0.19628 2.62097,-0.36885 4.00977,-0.50391 12.78266,-1.24304 65.97905,-1.24304 78.76172,0 15.5493,1.51207 24.89172,6.78473 30.09179,16.98633 4.54378,8.91408 4.98633,13.88241 4.98633,56 0,10.39363 -0.0298,18.49198 -0.13867,24.97852 l 15.72266,13.01562 c 0.38092,-8.14113 0.42382,-19.76284 0.42382,-37.99414 0,-47.53761 -0.27418,-50.34276 -6.14453,-62.81055 -3.42386,-7.27179 -13.0348,-16.85795 -20.50781,-20.45312 -12.34667,-5.93982 -15.08256,-6.20508 -63.81445,-6.20508 z m 48.5,30.68164 c -2.73285,0 -5.4657,1.18415 -7.58203,3.55274 -5.11824,5.7283 -3.46228,13.77082 3.46093,16.81054 10.43046,4.57963 19.3575,-8.24381 11.70313,-16.81054 -2.11633,-2.36859 -4.84918,-3.55274 -7.58203,-3.55274 z m -48.5,12.81055 c -3.48772,0 -6.84608,0.39008 -10.06446,1.08789 l 19.79688,16.39062 c 1.21729,0.39892 2.41578,0.94088 3.89062,1.71485 5.32959,2.79686 9.53772,6.87549 12.35938,11.74023 l 20.48242,16.95703 c 0.12258,-2.85938 -0.0312,-5.75806 -0.48828,-8.66406 -3.55301,-22.58932 -23.05287,-39.22656 -45.97656,-39.22656 z"
       style="fill:#ab37c8;fill-opacity:1;fill-rule:evenodd;stroke:none;stroke-width:1px;stroke-linecap:butt;stroke-linejoin:miter;stroke-opacity:1"
       inkscape:connector-curvature="0" /></g></svg>