<?xml version="1.0" encoding="UTF-8" standalone="no"?>
<!-- Generator: Adobe Illustrator 19.0.0, SVG Export Plug-In . SVG Version: 6.00 Build 0)  -->

<svg
   xmlns:dc="http://purl.org/dc/elements/1.1/"
   xmlns:cc="http://creativecommons.org/ns#"
   xmlns:rdf="http://www.w3.org/1999/02/22-rdf-syntax-ns#"
   xmlns:svg="http://www.w3.org/2000/svg"
   xmlns="http://www.w3.org/2000/svg"
   xmlns:sodipodi="http://sodipodi.sourceforge.net/DTD/sodipodi-0.dtd"
   xmlns:inkscape="http://www.inkscape.org/namespaces/inkscape"
   version="1.1"
   id="Layer_1"
   x="0px"
   y="0px"
   viewBox="0 0 500 500"
   xml:space="preserve"
   inkscape:version="0.91 r13725"
   width="100%"
   height="100%"
   sodipodi:docname="josm.svg"><metadata
     id="metadata57"><rdf:RDF><cc:Work
         rdf:about=""><dc:format>image/svg+xml</dc:format><dc:type
           rdf:resource="http://purl.org/dc/dcmitype/StillImage" /></cc:Work></rdf:RDF></metadata><defs
     id="defs55" /><sodipodi:namedview
     pagecolor="#ffffff"
     bordercolor="#666666"
     borderopacity="1"
     objecttolerance="10"
     gridtolerance="10"
     guidetolerance="10"
     inkscape:pageopacity="0"
     inkscape:pageshadow="2"
     inkscape:window-width="1366"
     inkscape:window-height="715"
     id="namedview53"
     showgrid="false"
     inkscape:zoom="0.26279755"
     inkscape:cx="55.847908"
     inkscape:cy="382.1618"
     inkscape:window-x="0"
     inkscape:window-y="24"
     inkscape:window-maximized="1"
     inkscape:current-layer="Layer_1" /><g
     id="g23"
     transform="translate(0,39.767)" /><g
     id="g25"
     transform="translate(0,39.767)" /><g
     id="g27"
     transform="translate(0,39.767)" /><g
     id="g29"
     transform="translate(0,39.767)" /><g
     id="g31"
     transform="translate(0,39.767)" /><g
     id="g33"
     transform="translate(0,39.767)" /><g
     id="g35"
     transform="translate(0,39.767)" /><g
     id="g37"
     transform="translate(0,39.767)" /><g
     id="g39"
     transform="translate(0,39.767)" /><g
     id="g41"
     transform="translate(0,39.767)" /><g
     id="g43"
     transform="translate(0,39.767)" /><g
     id="g45"
     transform="translate(0,39.767)" /><g
     id="g47"
     transform="translate(0,39.767)" /><g
     id="g49"
     transform="translate(0,39.767)" /><g
     id="g51"
     transform="translate(0,39.767)" /><g
     id="g4252"
     transform="matrix(1.8189991,0,0,1.8189991,-43.028929,-486.87692)"><path
       inkscape:connector-curvature="0"
       id="path3371"
       d="m 43.680861,290.82485 78.534519,22.53453 77.35735,-22.1982 77.35734,22.7027 -0.5045,221.47744 -77.52552,-21.86185 -77.021,21.69369 -77.525516,-21.86186 z"
       style="fill:#e6e6e6;fill-rule:evenodd;stroke:none;stroke-width:1px;stroke-linecap:butt;stroke-linejoin:miter;stroke-opacity:1" /><path
       id="path4173"
       d="m 43.681641,290.82422 0.21875,72.64844 c 2.103066,-1.04971 4.619968,-2.12217 6.99414,-2.60157 5.390364,-1.08842 15.502722,1.93336 20.214844,0.47657 4.712122,-1.45679 3.143953,-2.56679 7.611328,-5.47071 4.467375,-2.90392 15.093683,-5.43382 19.501953,-11.41406 4.408274,-5.98024 4.653164,-15.87812 4.994144,-21.4043 0.34098,-5.52618 -2.27289,-7.05748 -1.18946,-11.17773 0.28534,-1.08511 1.00765,-2.40898 1.90235,-3.76758 L 43.681641,290.82422 Z"
       style="fill:#45d03f;fill-opacity:1;fill-rule:evenodd;stroke:none;stroke-width:1px;stroke-linecap:butt;stroke-linejoin:miter;stroke-opacity:1"
       inkscape:connector-curvature="0" /><path
       id="path4178"
       d="m 199.10156,291.29688 -76.38867,21.91992 -1.56445,221.75195 0.73047,0.20508 76.9082,-21.66406 0.31445,-222.21289 z"
       style="fill:#b3b3b3;fill-rule:evenodd;stroke:none;stroke-width:1px;stroke-linecap:butt;stroke-linejoin:miter;stroke-opacity:1"
       inkscape:connector-curvature="0" /><path
       id="path4183"
       d="m 183.42969,295.79492 -29.32031,8.41211 c -3.25882,5.96315 -6.29278,12.57705 -6.89844,17.44531 -1.40845,11.32098 3.9234,20.19747 6.89648,31.86914 2.97308,11.67167 7.12139,19.77893 11.17774,38.05274 4.05635,18.27381 2.70634,54.37341 10.9414,71.82226 8.23506,17.44885 23.44379,20.78274 28.77539,32.10743 2.79549,5.9378 3.95148,14.29088 4.4336,20.94531 l 66.99023,18.89258 0.0645,-28.41797 c -3.84506,-10.9102 -9.32763,-23.04329 -16.3125,-32.34961 -12.19616,-16.24961 -41.34662,-24.03293 -50.17968,-40.42969 -8.83306,-16.39676 1.36915,-28.7612 -4.51953,-47.08984 -5.88868,-18.32864 -33.52456,-39.20601 -34.2461,-58.98047 -0.39101,-10.71612 6.1343,-23.12932 12.19727,-32.2793 z"
       style="fill:#00bbf2;fill-opacity:1;fill-rule:evenodd;stroke:none;stroke-width:1px;stroke-linecap:butt;stroke-linejoin:miter;stroke-opacity:1"
       inkscape:connector-curvature="0" /><path
       id="path4188"
       d="m 97.888672,493.77734 c -0.709413,0.0124 -1.393881,0.10017 -2.044922,0.27735 -6.944427,1.88986 -7.890963,10.90634 -13.318359,13.08008 -5.427396,2.17374 -11.069719,-1.99178 -16.410157,-0.23829 -3.998827,1.31299 -9.739319,6.52577 -12.373046,9.0625 l 68.136722,19.21485 50.41406,-14.20117 c -7.35573,-5.98858 -31.95139,-25.5095 -41.01367,-26.20508 -10.69518,-0.82092 -5.46191,4.68305 -11.65235,5.23242 -5.61008,0.49787 -14.88062,-6.34244 -21.738278,-6.22266 z"
       style="fill:#00bbf2;fill-opacity:1;fill-rule:evenodd;stroke:none;stroke-width:1px;stroke-linecap:butt;stroke-linejoin:miter;stroke-opacity:1"
       inkscape:connector-curvature="0" /><path
       sodipodi:nodetypes="cccc"
       inkscape:connector-curvature="0"
       id="path4193"
       d="m 46.469565,489.47995 24.080149,-16.76525 50.181206,-2.14044 25.20952,-15.22084"
       style="fill:none;fill-rule:evenodd;stroke:#394050;stroke-width:7;stroke-linecap:butt;stroke-linejoin:miter;stroke-miterlimit:4;stroke-dasharray:none;stroke-opacity:1" /><path
       inkscape:connector-curvature="0"
       id="path4195"
       d="m 70.311888,472.47687 0.713477,-46.61383 -9.750852,-55.88903"
       style="fill:none;fill-rule:evenodd;stroke:#394050;stroke-width:7;stroke-linecap:butt;stroke-linejoin:miter;stroke-miterlimit:4;stroke-dasharray:none;stroke-opacity:1" /><path
       inkscape:connector-curvature="0"
       id="path4200"
       d="m 82.575506,429.27673 0,25.8979 39.351334,-3.02703 17.65766,-11.26727 0.33634,-26.57056 -18.33033,11.26726 z"
       style="fill:#2c89a0;fill-opacity:1;fill-rule:evenodd;stroke:none;stroke-width:1px;stroke-linecap:butt;stroke-linejoin:miter;stroke-opacity:1" /><path
       inkscape:connector-curvature="0"
       id="path4202"
       d="m 80.628595,425.96177 -11.771769,-60.03602 29.765766,-6.55856 6.726718,35.31531 16.48048,-4.37237 11.43543,-8.57658 4.03604,21.18919 -14.96697,12.44444 z"
       style="fill:#de87cd;fill-rule:evenodd;stroke:none;stroke-width:1px;stroke-linecap:butt;stroke-linejoin:miter;stroke-opacity:1" /><rect
       transform="matrix(0.81532768,0.5789998,-0.55757714,0.83012513,0,0)"
       ry="0"
       y="196.93532"
       x="420.35626"
       height="13.140409"
       width="28.972303"
       id="rect4204"
       style="fill:#ffcc00;fill-opacity:1;stroke:none;stroke-width:7;stroke-miterlimit:4;stroke-dasharray:none;stroke-opacity:1" /><rect
       transform="matrix(0.81532768,0.5789998,-0.55757714,0.83012513,0,0)"
       ry="0"
       y="179.08086"
       x="420.83099"
       height="13.140409"
       width="28.972303"
       id="rect4204-3"
       style="fill:#ffcc00;fill-opacity:1;stroke:none;stroke-width:7;stroke-miterlimit:4;stroke-dasharray:none;stroke-opacity:1" /><rect
       transform="matrix(0.81532768,0.5789998,-0.55757714,0.83012513,0,0)"
       ry="0"
       y="162.20241"
       x="420.6326"
       height="13.140409"
       width="28.972303"
       id="rect4204-3-6"
       style="fill:#ffcc00;fill-opacity:1;stroke:none;stroke-width:7;stroke-miterlimit:4;stroke-dasharray:none;stroke-opacity:1" /><path
       inkscape:connector-curvature="0"
       id="path4236"
       d="m 266.83,372.33862 -0.23783,-25.44735 -23.78257,-7.37259 -0.47565,26.39865 z"
       style="fill:#ff2a2a;fill-rule:evenodd;stroke:none;stroke-width:1px;stroke-linecap:butt;stroke-linejoin:miter;stroke-opacity:1" /><g
       transform="translate(0,1.3453451)"
       id="g4247"><path
         style="fill:#ffccaa;fill-rule:evenodd;stroke:none;stroke-width:1px;stroke-linecap:butt;stroke-linejoin:miter;stroke-opacity:1"
         d="m 143.912,456.89882 38.65554,-28.20211 -11.69095,-26.2324 -23.93121,5.85646 z"
         id="path4240"
         inkscape:connector-curvature="0"
         sodipodi:nodetypes="ccccc" /><path
         style="fill:#502d16;fill-rule:evenodd;stroke:none;stroke-width:1px;stroke-linecap:butt;stroke-linejoin:miter;stroke-opacity:1"
         d="m 146.91565,408.3505 74.91509,-133.89585 36.1495,21.64214 -75.39074,132.70671 -4.33127,-7.33802 -8.91291,-2.85886 -6.22222,-6.8949 -7.73574,-0.16816 -1.84985,-4.37238 z"
         id="path4238"
         inkscape:connector-curvature="0" /><path
         style="fill:#333333;fill-rule:evenodd;stroke:none;stroke-width:1px;stroke-linecap:butt;stroke-linejoin:miter;stroke-opacity:1"
         d="m 150.34271,442.65486 -5.5625,0.32617 -0.86914,13.91797 12.40429,-9.05078 -5.97265,-5.19336 z"
         id="path4242"
         inkscape:connector-curvature="0" /></g></g></svg>