<?xml version="1.0" encoding="UTF-8" standalone="no"?>
<svg
   xmlns:dc="http://purl.org/dc/elements/1.1/"
   xmlns:cc="http://creativecommons.org/ns#"
   xmlns:rdf="http://www.w3.org/1999/02/22-rdf-syntax-ns#"
   xmlns:svg="http://www.w3.org/2000/svg"
   xmlns="http://www.w3.org/2000/svg"
   xmlns:sodipodi="http://sodipodi.sourceforge.net/DTD/sodipodi-0.dtd"
   xmlns:inkscape="http://www.inkscape.org/namespaces/inkscape"
   viewBox="0 0 511.99999 511.99999"
   height="512"
   width="512"
   version="1.1"
   id="svg2"
   inkscape:version="0.91 r13725"
   sodipodi:docname="kabikaboo.svg">
  <sodipodi:namedview
     pagecolor="#ffffff"
     bordercolor="#666666"
     borderopacity="1"
     objecttolerance="10"
     gridtolerance="10"
     guidetolerance="10"
     inkscape:pageopacity="0"
     inkscape:pageshadow="2"
     inkscape:window-width="1366"
     inkscape:window-height="715"
     id="namedview18"
     showgrid="false"
     inkscape:zoom="0.203125"
     inkscape:cx="1595.134"
     inkscape:cy="-145.97804"
     inkscape:window-x="0"
     inkscape:window-y="24"
     inkscape:window-maximized="1"
     inkscape:current-layer="svg2" />
  <metadata
     id="metadata8">
    <rdf:RDF>
      <cc:Work
         rdf:about="">
        <dc:format>image/svg+xml</dc:format>
        <dc:type
           rdf:resource="http://purl.org/dc/dcmitype/StillImage" />
        <dc:title />
      </cc:Work>
    </rdf:RDF>
  </metadata>
  <defs
     id="defs6">
    <filter
       height="1.096"
       y="-0.048"
       width="1.096"
       x="-0.048"
       id="filter4329"
       style="color-interpolation-filters:sRGB">
      <feGaussianBlur
         id="feGaussianBlur4331"
         stdDeviation="2.1324205" />
    </filter>
    <filter
       height="1.0327445"
       y="-0.016372267"
       width="1.0399742"
       x="-0.019987123"
       id="filter4376"
       style="color-interpolation-filters:sRGB">
      <feGaussianBlur
         id="feGaussianBlur4378"
         stdDeviation="1.1736058" />
    </filter>
    <filter
       height="1.0570984"
       y="-0.0285492"
       width="1.0632123"
       x="-0.031606145"
       id="filter4436"
       style="color-interpolation-filters:sRGB">
      <feGaussianBlur
         id="feGaussianBlur4438"
         stdDeviation="0.63519096" />
    </filter>
  </defs>
  <g
     id="g3546">
    <rect
       rx="39.074844"
       ry="37.636742"
       y="17.307734"
       x="18.602489"
       height="475.96432"
       width="473.01129"
       id="rect3003"
       style="fill:#a05a2c;fill-opacity:1;stroke:none" />
    <g
       transform="matrix(1.1033851,0,0,1.1033851,-5.2528998,-48.546351)"
       id="g3537">
      <path
         style="fill:#ececec;stroke:none"
         d="m 32.320332,424.58897 c 1.754021,2.01059 4.493145,2.2103 4.493145,2.2103 l 230.566993,39.69811 16.90344,2.9106 c 0,0 2.6249,0.56465 4.215,-0.42506 1.59011,-0.9898 2.22323,-3.88992 2.22323,-3.88992 l 34.88619,-202.42282 c 0,0 0.77079,-3.35861 -0.3021,-5.11398 -1.07287,-1.75537 -4.06491,-2.13375 -4.06491,-2.13375 l -185.21357,-31.41708 -80.435757,56.8723 -24.223789,139.011 c 0,0 -0.800166,2.6902 0.953694,4.70074 z"
         id="path3773-62"
         inkscape:connector-curvature="0"
         sodipodi:nodetypes="cccczcczcccczc" />
      <path
         style="fill:#cccccc;stroke:none"
         d="m 55.491687,280.99349 c 0,0 8.987829,-3.78653 17.282073,-4.90977 8.294247,-1.12324 22.158581,0.91402 29.59764,2.2098 7.439,1.29609 15.05864,4.17384 15.05864,4.17384 0,0 0.7023,-13.81814 3.25785,-22.71124 2.55555,-8.89308 5.15384,-15.98441 8.15413,-22.13009 3.00027,-6.14571 7.66108,-13.93155 7.66108,-13.93155 z"
         id="path3775-6"
         inkscape:connector-curvature="0"
         sodipodi:nodetypes="czzczzcc" />
      <path
         style="fill:none;stroke:#969696;stroke-width:3.63687372px;stroke-linecap:butt;stroke-linejoin:miter;stroke-opacity:1"
         d="M 62.027089,414.21756 82.207145,292.8463"
         id="path3933-1"
         inkscape:connector-curvature="0"
         sodipodi:nodetypes="cc" />
      <path
         style="fill:none;stroke:#969696;stroke-width:3.63687372px;stroke-linecap:butt;stroke-linejoin:miter;stroke-opacity:1"
         d="M 82.898885,416.08176 103.07894,294.7105"
         id="path3933-6-8"
         inkscape:connector-curvature="0"
         sodipodi:nodetypes="cc" />
      <path
         style="fill:none;stroke:#969696;stroke-width:3.63687372px;stroke-linecap:butt;stroke-linejoin:miter;stroke-opacity:1"
         d="M 103.26451,418.72565 131.2829,251.88687"
         id="path3933-2-7"
         inkscape:connector-curvature="0"
         sodipodi:nodetypes="cc" />
      <path
         style="fill:none;stroke:#969696;stroke-width:3.63687372px;stroke-linecap:butt;stroke-linejoin:miter;stroke-opacity:1"
         d="M 126.66395,421.02552 154.68234,254.18673"
         id="path3933-2-6-9"
         inkscape:connector-curvature="0"
         sodipodi:nodetypes="cc" />
      <path
         style="fill:none;stroke:#969696;stroke-width:3.63687372px;stroke-linecap:butt;stroke-linejoin:miter;stroke-opacity:1"
         d="m 148.47385,423.91841 28.01838,-166.8388"
         id="path3933-2-1-20"
         inkscape:connector-curvature="0"
         sodipodi:nodetypes="cc" />
    </g>
    <g
       transform="matrix(1.1033851,0,0,1.1033851,-27.4289,21.677647)"
       id="g3485">
      <path
         style="fill:#f2f2f2;stroke:none"
         d="m 291.70569,26.530819 c -2.36379,1.23756 -3.19591,3.854862 -3.19591,3.854862 l -92.30169,214.982499 -6.7671,15.76085 c 0,0 -1.16042,2.42123 -0.56823,4.19809 0.59228,1.7769 3.26522,3.068 3.26522,3.068 l 188.73276,81.0678 c 0,0 3.08676,1.53175 5.04373,0.89715 1.95695,-0.63457 3.02172,-3.45622 3.02172,-3.45622 L 462.62252,174.09926 426.04605,82.630517 296.49848,26.699488 c 0,0 -2.42989,-1.404668 -4.79358,-0.167249 z"
         id="path3773-6-1"
         inkscape:connector-curvature="0"
         sodipodi:nodetypes="cccczcczcccczc" />
      <path
         style="fill:#cccccc;stroke:none"
         d="m 425.95677,82.505995 c 0,0 1.5893,9.622525 0.75007,17.950305 -0.83922,8.32777 -6.04923,21.33646 -9.04182,28.26921 -2.99287,6.93263 -7.56598,13.6726 -7.56598,13.6726 0,0 13.27466,3.90099 21.3281,8.45733 8.05341,4.55633 14.34467,8.73462 19.62265,13.08364 5.27803,4.34901 11.76437,10.69486 11.76437,10.69486 z"
         id="path3775-7-2"
         inkscape:connector-curvature="0"
         sodipodi:nodetypes="czzczzcc" />
      <path
         style="fill:none;stroke:#969696;stroke-width:3.63687372px;stroke-linecap:butt;stroke-linejoin:miter;stroke-opacity:1"
         d="M 294.87373,57.836104 408.20828,105.72659"
         id="path3933-5-7"
         inkscape:connector-curvature="0"
         sodipodi:nodetypes="cc" />
      <path
         style="fill:none;stroke:#969696;stroke-width:3.63687372px;stroke-linecap:butt;stroke-linejoin:miter;stroke-opacity:1"
         d="M 288.20011,77.699887 401.53466,125.59037"
         id="path3933-6-3-0"
         inkscape:connector-curvature="0"
         sodipodi:nodetypes="cc" />
      <path
         style="fill:none;stroke:#969696;stroke-width:3.63687372px;stroke-linecap:butt;stroke-linejoin:miter;stroke-opacity:1"
         d="M 280.88611,96.889837 436.61262,162.99175"
         id="path3933-2-5-9"
         inkscape:connector-curvature="0"
         sodipodi:nodetypes="cc" />
      <path
         style="fill:none;stroke:#969696;stroke-width:3.63687372px;stroke-linecap:butt;stroke-linejoin:miter;stroke-opacity:1"
         d="m 273.20015,119.11031 155.72652,66.1019"
         id="path3933-2-6-6-3"
         inkscape:connector-curvature="0"
         sodipodi:nodetypes="cc" />
      <path
         style="fill:none;stroke:#969696;stroke-width:3.63687372px;stroke-linecap:butt;stroke-linejoin:miter;stroke-opacity:1"
         d="m 265.30765,139.64683 155.72653,66.10191"
         id="path3933-2-1-2-6"
         inkscape:connector-curvature="0"
         sodipodi:nodetypes="cc" />
    </g>
    <g
       transform="matrix(0.66892006,-0.37160753,0.37160753,0.66892006,-48.912603,130.8187)"
       id="g3397">
      <path
         style="fill:#ffffff;stroke:none"
         d="m 86.236788,50.722439 c -2.42733,2.984953 -2.040117,6.926108 -2.040117,6.926108 l 0.07141,337.355123 0.0049,24.7324 c 0,0 -0.159335,3.86824 1.636533,5.88529 1.796014,2.01704 6.072113,2.20625 6.072113,2.20625 l 296.184133,-0.0146 c 0,0 4.96133,0.27252 7.19284,-1.68205 2.23152,-1.95453 2.03624,-6.29883 2.03624,-6.29883 L 396.66642,148.95175 296.14803,48.586284 92.68256,48.218065 c 0,0 -4.018734,-0.478004 -6.446015,2.506706 z"
         id="path3773"
         inkscape:connector-curvature="0"
         sodipodi:nodetypes="cccczcczcccczc" />
      <path
         style="fill:#cccccc;stroke:none"
         d="m 295.95887,48.472126 c 0,0 7.5823,11.843919 11.21022,23.354691 3.62793,11.510773 4.12935,31.710733 4.1104,42.598883 -0.0194,10.88815 -2.24205,22.42045 -2.24205,22.42045 0,0 19.8073,-2.38706 33.07022,-0.9342 13.26288,1.45286 23.976,3.40782 33.44384,6.16567 9.46789,2.75781 21.67313,7.47344 21.67313,7.47344 z"
         id="path3775"
         inkscape:connector-curvature="0"
         sodipodi:nodetypes="czzczzcc" />
      <path
         style="fill:none;stroke:#969696;stroke-width:5.24414539px;stroke-linecap:butt;stroke-linejoin:miter;stroke-opacity:1"
         d="M 108.25151,90.394393 285.66073,89.337731"
         id="path3933"
         inkscape:connector-curvature="0"
         sodipodi:nodetypes="cc" />
      <path
         style="fill:none;stroke:#969696;stroke-width:5.24414539px;stroke-linecap:butt;stroke-linejoin:miter;stroke-opacity:1"
         d="m 110.71545,120.5094 177.40922,-1.05666"
         id="path3933-6"
         inkscape:connector-curvature="0"
         sodipodi:nodetypes="cc" />
      <path
         style="fill:none;stroke:#969696;stroke-width:5.24414539px;stroke-linecap:butt;stroke-linejoin:miter;stroke-opacity:1"
         d="M 111.94746,150.09615 355.88512,149.0395"
         id="path3933-2"
         inkscape:connector-curvature="0"
         sodipodi:nodetypes="cc" />
      <path
         style="fill:none;stroke:#969696;stroke-width:5.24414539px;stroke-linecap:butt;stroke-linejoin:miter;stroke-opacity:1"
         d="m 114.41152,183.90961 243.93766,-1.05666"
         id="path3933-2-6"
         inkscape:connector-curvature="0"
         sodipodi:nodetypes="cc" />
      <path
         style="fill:none;stroke:#969696;stroke-width:5.24414539px;stroke-linecap:butt;stroke-linejoin:miter;stroke-opacity:1"
         d="m 115.64351,215.60963 243.93768,-1.05666"
         id="path3933-2-1"
         inkscape:connector-curvature="0"
         sodipodi:nodetypes="cc" />
    </g>
  </g>
</svg>
