<?xml version="1.0" encoding="UTF-8" standalone="no"?>
<!-- Created with Inkscape (http://www.inkscape.org/) -->

<svg
   xmlns:dc="http://purl.org/dc/elements/1.1/"
   xmlns:cc="http://creativecommons.org/ns#"
   xmlns:rdf="http://www.w3.org/1999/02/22-rdf-syntax-ns#"
   xmlns:svg="http://www.w3.org/2000/svg"
   xmlns="http://www.w3.org/2000/svg"
   xmlns:sodipodi="http://sodipodi.sourceforge.net/DTD/sodipodi-0.dtd"
   xmlns:inkscape="http://www.inkscape.org/namespaces/inkscape"
   id="svg2"
   version="1.1"
   inkscape:version="0.91 r13725"
   width="512"
   height="512"
   sodipodi:docname="kayali.svg"
   viewBox="0 0 512 512">
  <metadata
     id="metadata8">
    <rdf:RDF>
      <cc:Work
         rdf:about="">
        <dc:format>image/svg+xml</dc:format>
        <dc:type
           rdf:resource="http://purl.org/dc/dcmitype/StillImage" />
        <dc:title />
      </cc:Work>
    </rdf:RDF>
  </metadata>
  <defs
     id="defs6" />
  <sodipodi:namedview
     pagecolor="#ffffff"
     bordercolor="#666666"
     borderopacity="1"
     objecttolerance="10"
     gridtolerance="10"
     guidetolerance="10"
     inkscape:pageopacity="0"
     inkscape:pageshadow="2"
     inkscape:window-width="1366"
     inkscape:window-height="715"
     id="namedview4"
     showgrid="false"
     inkscape:zoom="0.75682524"
     inkscape:cx="426.10838"
     inkscape:cy="180.03609"
     inkscape:window-x="0"
     inkscape:window-y="24"
     inkscape:window-maximized="1"
     inkscape:current-layer="svg2"
     showguides="true"
     inkscape:guide-bbox="true"
     inkscape:document-units="px" />
  <path
     style="fill:#cccccc;fill-opacity:1;fill-rule:evenodd;stroke:none;stroke-width:1.02230215"
     d=""
     id="path3783"
     inkscape:connector-curvature="0" />
  <rect
     style="fill:#394050"
     id="rect3374"
     width="475"
     height="475"
     x="15"
     y="22"
     rx="89.375351" />
  <g
     id="g4239"
     transform="translate(-16.817518,-1.8686131)">
    <path
       inkscape:connector-curvature="0"
       id="path3392-6-2"
       d="m 439.33524,68.70083 1.32131,215.37337"
       style="fill:none;fill-rule:evenodd;stroke:#ffffff;stroke-width:15;stroke-linecap:butt;stroke-linejoin:miter;stroke-miterlimit:4;stroke-dasharray:none;stroke-opacity:1" />
    <path
       inkscape:connector-curvature="0"
       id="path3392-6"
       d="M 241.13889,79.271302 242.4602,294.64467"
       style="fill:none;fill-rule:evenodd;stroke:#ffffff;stroke-width:15;stroke-linecap:butt;stroke-linejoin:miter;stroke-miterlimit:4;stroke-dasharray:none;stroke-opacity:1" />
    <path
       inkscape:connector-curvature="0"
       id="path3351"
       d="m 100.41948,440.00811 144.02268,-153.27185 211.40944,0"
       style="fill:none;fill-rule:evenodd;stroke:#ffffff;stroke-width:15;stroke-linecap:butt;stroke-linejoin:miter;stroke-miterlimit:4;stroke-dasharray:none;stroke-opacity:1" />
    <path
       inkscape:connector-curvature="0"
       id="path3351-7"
       d="m 449.66936,293.10169 -144.02268,153.27185 -211.409437,0"
       style="fill:none;fill-rule:evenodd;stroke:#ffffff;stroke-width:15;stroke-linecap:butt;stroke-linejoin:miter;stroke-miterlimit:4;stroke-dasharray:none;stroke-opacity:1" />
    <path
       inkscape:connector-curvature="0"
       id="path3392"
       d="m 89.849012,231.88249 1.321309,215.37337"
       style="fill:none;fill-rule:evenodd;stroke:#ffffff;stroke-width:15;stroke-linecap:butt;stroke-linejoin:miter;stroke-miterlimit:4;stroke-dasharray:none;stroke-opacity:1" />
    <path
       sodipodi:open="true"
       d="m 119.52902,447.0264 a 25,25 0 0 1 -24.970655,24.99998 25,25 0 0 1 -25.029274,-24.9413 25,25 0 0 1 24.911902,-25.05853 25,25 0 0 1 25.087757,24.88248"
       sodipodi:end="6.2784904"
       sodipodi:start="0"
       sodipodi:ry="25"
       sodipodi:rx="25"
       sodipodi:cy="447.0264"
       sodipodi:cx="94.529022"
       sodipodi:type="arc"
       id="path4153"
       style="fill:#5fd35f;fill-opacity:1;stroke:none;stroke-width:15;stroke-miterlimit:4;stroke-dasharray:none;stroke-opacity:1" />
    <path
       sodipodi:open="true"
       d="m 270.76347,292.02148 a 25,25 0 0 1 -24.97065,24.99999 25,25 0 0 1 -25.02928,-24.9413 25,25 0 0 1 24.9119,-25.05853 25,25 0 0 1 25.08776,24.88247"
       sodipodi:end="6.2784904"
       sodipodi:start="0"
       sodipodi:ry="25"
       sodipodi:rx="25"
       sodipodi:cy="292.02148"
       sodipodi:cx="245.76347"
       sodipodi:type="arc"
       id="path4153-3"
       style="fill:#5fd35f;fill-opacity:1;stroke:none;stroke-width:15;stroke-miterlimit:4;stroke-dasharray:none;stroke-opacity:1" />
    <path
       sodipodi:open="true"
       d="m 468.95984,289.37891 a 25,25 0 0 1 -24.97066,24.99998 25,25 0 0 1 -25.02927,-24.9413 25,25 0 0 1 24.9119,-25.05853 25,25 0 0 1 25.08775,24.88247"
       sodipodi:end="6.2784904"
       sodipodi:start="0"
       sodipodi:ry="25"
       sodipodi:rx="25"
       sodipodi:cy="289.37891"
       sodipodi:cx="443.95984"
       sodipodi:type="arc"
       id="path4153-3-6"
       style="fill:#5fd35f;fill-opacity:1;stroke:none;stroke-width:15;stroke-miterlimit:4;stroke-dasharray:none;stroke-opacity:1" />
    <path
       inkscape:connector-curvature="0"
       id="path3392-6-2-9"
       d="m 301.9191,225.9366 1.32131,215.37337"
       style="fill:none;fill-rule:evenodd;stroke:#ffffff;stroke-width:15;stroke-linecap:butt;stroke-linejoin:miter;stroke-miterlimit:4;stroke-dasharray:none;stroke-opacity:1" />
    <path
       sodipodi:open="true"
       d="m 328.64963,444.72992 a 25,25 0 0 1 -24.97066,24.99998 25,25 0 0 1 -25.02927,-24.94129 25,25 0 0 1 24.9119,-25.05854 25,25 0 0 1 25.08775,24.88248"
       sodipodi:end="6.2784904"
       sodipodi:start="0"
       sodipodi:ry="25"
       sodipodi:rx="25"
       sodipodi:cy="444.72992"
       sodipodi:cx="303.64963"
       sodipodi:type="arc"
       id="path4153-5"
       style="fill:#5fd35f;fill-opacity:1;stroke:none;stroke-width:15;stroke-miterlimit:4;stroke-dasharray:none;stroke-opacity:1" />
    <path
       inkscape:connector-curvature="0"
       id="path3351-3"
       d="M 95.436849,221.76678 239.45953,68.494943 l 211.40944,0"
       style="fill:none;fill-rule:evenodd;stroke:#ffffff;stroke-width:15;stroke-linecap:butt;stroke-linejoin:miter;stroke-miterlimit:4;stroke-dasharray:none;stroke-opacity:1" />
    <path
       inkscape:connector-curvature="0"
       id="path3351-7-6"
       d="m 444.68673,74.860373 -144.02268,153.271837 -211.409438,0"
       style="fill:none;fill-rule:evenodd;stroke:#ffffff;stroke-width:15;stroke-linecap:butt;stroke-linejoin:miter;stroke-miterlimit:4;stroke-dasharray:none;stroke-opacity:1" />
    <path
       sodipodi:open="true"
       d="M 114.54639,228.78508 A 25,25 0 0 1 89.575738,253.78506 25,25 0 0 1 64.546463,228.84377 25,25 0 0 1 89.458365,203.78523 25,25 0 0 1 114.54612,228.66771"
       sodipodi:end="6.2784904"
       sodipodi:start="0"
       sodipodi:ry="25"
       sodipodi:rx="25"
       sodipodi:cy="228.78508"
       sodipodi:cx="89.546394"
       sodipodi:type="arc"
       id="path4153-7"
       style="fill:#5fd35f;fill-opacity:1;stroke:none;stroke-width:15;stroke-miterlimit:4;stroke-dasharray:none;stroke-opacity:1" />
    <path
       sodipodi:open="true"
       d="m 265.78084,73.780167 a 25,25 0 0 1 -24.97066,24.999982 25,25 0 0 1 -25.02927,-24.941296 25,25 0 0 1 24.9119,-25.058531 25,25 0 0 1 25.08775,24.882472"
       sodipodi:end="6.2784904"
       sodipodi:start="0"
       sodipodi:ry="25"
       sodipodi:rx="25"
       sodipodi:cy="73.780167"
       sodipodi:cx="240.78084"
       sodipodi:type="arc"
       id="path4153-3-5"
       style="fill:#5fd35f;fill-opacity:1;stroke:none;stroke-width:15;stroke-miterlimit:4;stroke-dasharray:none;stroke-opacity:1" />
    <path
       sodipodi:open="true"
       d="M 463.97723,71.137589 A 25,25 0 0 1 439.00658,96.137571 25,25 0 0 1 413.9773,71.196275 25,25 0 0 1 438.8892,46.137743 25,25 0 0 1 463.97696,71.020216"
       sodipodi:end="6.2784904"
       sodipodi:start="0"
       sodipodi:ry="25"
       sodipodi:rx="25"
       sodipodi:cy="71.137589"
       sodipodi:cx="438.97723"
       sodipodi:type="arc"
       id="path4153-3-6-3"
       style="fill:#5fd35f;fill-opacity:1;stroke:none;stroke-width:15;stroke-miterlimit:4;stroke-dasharray:none;stroke-opacity:1" />
    <path
       sodipodi:open="true"
       d="m 323.66702,226.4886 a 25,25 0 0 1 -24.97065,24.99998 25,25 0 0 1 -25.02928,-24.94129 25,25 0 0 1 24.9119,-25.05853 25,25 0 0 1 25.08776,24.88247"
       sodipodi:end="6.2784904"
       sodipodi:start="0"
       sodipodi:ry="25"
       sodipodi:rx="25"
       sodipodi:cy="226.4886"
       sodipodi:cx="298.66702"
       sodipodi:type="arc"
       id="path4153-5-5"
       style="fill:#5fd35f;fill-opacity:1;stroke:none;stroke-width:15;stroke-miterlimit:4;stroke-dasharray:none;stroke-opacity:1" />
  </g>
</svg>
