<?xml version="1.0" encoding="UTF-8" standalone="no"?>
<svg
   xmlns:dc="http://purl.org/dc/elements/1.1/"
   xmlns:cc="http://creativecommons.org/ns#"
   xmlns:rdf="http://www.w3.org/1999/02/22-rdf-syntax-ns#"
   xmlns:svg="http://www.w3.org/2000/svg"
   xmlns="http://www.w3.org/2000/svg"
   xmlns:sodipodi="http://sodipodi.sourceforge.net/DTD/sodipodi-0.dtd"
   xmlns:inkscape="http://www.inkscape.org/namespaces/inkscape"
   viewBox="0 0 511.99999 511.99999"
   height="512"
   width="512"
   version="1.1"
   id="svg2"
   inkscape:version="0.91 r13725"
   sodipodi:docname="khangman.svg">
  <sodipodi:namedview
     pagecolor="#ffffff"
     bordercolor="#666666"
     borderopacity="1"
     objecttolerance="10"
     gridtolerance="10"
     guidetolerance="10"
     inkscape:pageopacity="0"
     inkscape:pageshadow="2"
     inkscape:window-width="1366"
     inkscape:window-height="715"
     id="namedview18"
     showgrid="false"
     inkscape:zoom="0.28726213"
     inkscape:cx="693.14447"
     inkscape:cy="9.4076613"
     inkscape:window-x="0"
     inkscape:window-y="24"
     inkscape:window-maximized="1"
     inkscape:current-layer="svg2" />
  <metadata
     id="metadata8">
    <rdf:RDF>
      <cc:Work
         rdf:about="">
        <dc:format>image/svg+xml</dc:format>
        <dc:type
           rdf:resource="http://purl.org/dc/dcmitype/StillImage" />
        <dc:title />
      </cc:Work>
    </rdf:RDF>
  </metadata>
  <defs
     id="defs6">
    <filter
       height="1.096"
       y="-0.048"
       width="1.096"
       x="-0.048"
       id="filter4329"
       style="color-interpolation-filters:sRGB">
      <feGaussianBlur
         id="feGaussianBlur4331"
         stdDeviation="2.1324205" />
    </filter>
    <filter
       height="1.0327445"
       y="-0.016372267"
       width="1.0399742"
       x="-0.019987123"
       id="filter4376"
       style="color-interpolation-filters:sRGB">
      <feGaussianBlur
         id="feGaussianBlur4378"
         stdDeviation="1.1736058" />
    </filter>
    <filter
       height="1.0570984"
       y="-0.0285492"
       width="1.0632123"
       x="-0.031606145"
       id="filter4436"
       style="color-interpolation-filters:sRGB">
      <feGaussianBlur
         id="feGaussianBlur4438"
         stdDeviation="0.63519096" />
    </filter>
  </defs>
  <g
     id="g4309">
    <g
       transform="matrix(1.1715649,0,0,1.1715649,-56.892639,-27.234754)"
       id="g4291">
      <rect
         style="fill:#a05a2c;fill-opacity:1;stroke:none"
         id="rect3003"
         width="343.78052"
         height="405.81046"
         x="67.83326"
         y="37.000042"
         ry="32.089348"
         rx="28.399258" />
      <path
         style="fill:#ffffff;stroke:none"
         d="m 86.236788,50.722439 c -2.42733,2.984953 -2.040117,6.926108 -2.040117,6.926108 l 0.07141,337.355123 0.0049,24.7324 c 0,0 -0.159335,3.86824 1.636533,5.88529 1.796014,2.01704 6.072113,2.20625 6.072113,2.20625 l 296.184133,-0.0146 c 0,0 4.96133,0.27252 7.19284,-1.68205 2.23152,-1.95453 2.03624,-6.29883 2.03624,-6.29883 L 396.66642,148.95175 296.14803,48.586284 92.68256,48.218065 c 0,0 -4.018734,-0.478004 -6.446015,2.506706 z"
         id="path3773"
         inkscape:connector-curvature="0"
         sodipodi:nodetypes="cccczcczcccczc" />
      <path
         style="fill:#cccccc;stroke:none"
         d="m 295.95887,48.472126 c 0,0 7.5823,11.843919 11.21022,23.354691 3.62793,11.510773 4.12935,31.710733 4.1104,42.598883 -0.0194,10.88815 -2.24205,22.42045 -2.24205,22.42045 0,0 19.8073,-2.38706 33.07022,-0.9342 13.26288,1.45286 23.976,3.40782 33.44384,6.16567 9.46789,2.75781 21.67313,7.47344 21.67313,7.47344 z"
         id="path3775"
         inkscape:connector-curvature="0"
         sodipodi:nodetypes="czzczzcc" />
      <g
         id="g4214">
        <path
           sodipodi:nodetypes="cccc"
           inkscape:connector-curvature="0"
           id="path4204"
           d="m 129.31202,340.75591 -0.5098,-201.23801 174.05705,-0.87028 0,50.47654"
           style="fill:none;fill-rule:evenodd;stroke:#969696;stroke-width:10;stroke-linecap:butt;stroke-linejoin:miter;stroke-miterlimit:4;stroke-dasharray:none;stroke-opacity:1" />
        <ellipse
           ry="34.46154"
           rx="35.384617"
           cy="225.23079"
           cx="302.46152"
           id="path4206"
           style="fill:none;fill-opacity:1;stroke:#969696;stroke-width:5;stroke-miterlimit:4;stroke-dasharray:none;stroke-opacity:1" />
        <path
           inkscape:connector-curvature="0"
           id="path4208"
           d="m 301.98899,260.63687 0.87028,72.23368"
           style="fill:none;fill-rule:evenodd;stroke:#969696;stroke-width:5;stroke-linecap:butt;stroke-linejoin:miter;stroke-miterlimit:4;stroke-dasharray:none;stroke-opacity:1" />
        <path
           sodipodi:nodetypes="ccc"
           inkscape:connector-curvature="0"
           id="path4210"
           d="m 255.6463,295.40776 46.56026,-24.69434 46.56026,24.25919"
           style="fill:none;fill-rule:evenodd;stroke:#969696;stroke-width:5;stroke-linecap:butt;stroke-linejoin:miter;stroke-miterlimit:4;stroke-dasharray:none;stroke-opacity:1" />
      </g>
      <path
         style="fill:none;fill-rule:evenodd;stroke:#969696;stroke-width:5;stroke-linecap:butt;stroke-linejoin:miter;stroke-miterlimit:4;stroke-dasharray:none;stroke-opacity:1"
         d="m 117.48851,399.7332 51.34683,0"
         id="path4212"
         inkscape:connector-curvature="0" />
      <path
         style="fill:none;fill-rule:evenodd;stroke:#969696;stroke-width:5;stroke-linecap:butt;stroke-linejoin:miter;stroke-miterlimit:4;stroke-dasharray:none;stroke-opacity:1"
         d="m 176.66791,399.29806 51.34683,0"
         id="path4212-3"
         inkscape:connector-curvature="0" />
      <path
         style="fill:none;fill-rule:evenodd;stroke:#969696;stroke-width:5;stroke-linecap:butt;stroke-linejoin:miter;stroke-miterlimit:4;stroke-dasharray:none;stroke-opacity:1"
         d="m 233.96765,399.29449 51.34683,0"
         id="path4212-6"
         inkscape:connector-curvature="0" />
      <path
         style="fill:none;fill-rule:evenodd;stroke:#969696;stroke-width:5;stroke-linecap:butt;stroke-linejoin:miter;stroke-miterlimit:4;stroke-dasharray:none;stroke-opacity:1"
         d="m 293.14705,398.85935 51.34683,0"
         id="path4212-3-7"
         inkscape:connector-curvature="0" />
      <g
         transform="translate(2.7692308,2)"
         style="font-style:normal;font-weight:normal;font-size:40px;line-height:125%;font-family:sans-serif;letter-spacing:0px;word-spacing:0px;fill:#969696;fill-opacity:1;stroke:none;stroke-width:1px;stroke-linecap:butt;stroke-linejoin:miter;stroke-opacity:1"
         id="flowRoot4253">
        <path
           inkscape:connector-curvature="0"
           d="m 130.58203,364.95004 0,22.67579 4.76563,0 q 6.03515,0 8.82812,-2.73438 2.8125,-2.73437 2.8125,-8.63281 0,-5.85938 -2.8125,-8.57422 -2.79297,-2.73438 -8.82812,-2.73438 l -4.76563,0 z m -3.94531,-3.24218 8.10547,0 q 8.47656,0 12.4414,3.53515 3.96485,3.51563 3.96485,11.01563 0,7.53906 -3.98438,11.07422 -3.98437,3.53515 -12.42187,3.53515 l -8.10547,0 0,-29.16015 z"
           id="path4286" />
      </g>
      <g
         transform="translate(121.32272,0.81784805)"
         style="font-style:normal;font-weight:normal;font-size:40px;line-height:125%;font-family:sans-serif;letter-spacing:0px;word-spacing:0px;fill:#969696;fill-opacity:1;stroke:none;stroke-width:1px;stroke-linecap:butt;stroke-linejoin:miter;stroke-opacity:1"
         id="flowRoot4253-5">
        <path
           inkscape:connector-curvature="0"
           d="m 130.58203,364.95004 0,22.67579 4.76563,0 q 6.03515,0 8.82812,-2.73438 2.8125,-2.73437 2.8125,-8.63281 0,-5.85938 -2.8125,-8.57422 -2.79297,-2.73438 -8.82812,-2.73438 l -4.76563,0 z m -3.94531,-3.24218 8.10547,0 q 8.47656,0 12.4414,3.53515 3.96485,3.51563 3.96485,11.01563 0,7.53906 -3.98438,11.07422 -3.98437,3.53515 -12.42187,3.53515 l -8.10547,0 0,-29.16015 z"
           id="path4289" />
      </g>
    </g>
    <g
       transform="translate(24.344191,-57.016495)"
       id="g4197">
      <path
         style="fill:#e9ddaf;stroke:none"
         d="m 231.48379,487.00003 40.61317,-35.151 -33.29271,-17.17479 z"
         id="path3868"
         inkscape:connector-curvature="0"
         sodipodi:nodetypes="cccc" />
      <path
         style="fill:#394050;stroke:none"
         d="m 231.44483,486.99571 11.23781,-9.72642 -9.15966,-5.00161 z"
         id="path3868-3"
         inkscape:connector-curvature="0"
         sodipodi:nodetypes="cccc" />
      <path
         style="fill:#45d03f;fill-opacity:1;stroke:none"
         d="M 238.82912,434.75245 409.97203,138.80227 441.73435,158.607 271.33881,452.22176 Z"
         id="path3888"
         inkscape:connector-curvature="0"
         sodipodi:nodetypes="ccccc" />
      <path
         style="fill:#c83737;fill-opacity:1;stroke:none"
         d="m 412.27174,134.75721 20.29805,-35.290038 c 0,0 1.11006,-2.433827 2.37899,-2.764543 1.26892,-0.330717 3.96432,1.448462 3.96432,1.448462 l 24.09972,14.809099 c 0,0 2.27276,1.28982 2.64236,2.45931 0.3696,1.16949 -0.77814,3.66764 -0.77814,3.66764 l -20.18907,34.63407 z"
         id="path3888-6-0"
         inkscape:connector-curvature="0"
         sodipodi:nodetypes="cczcczccc" />
      <path
         style="fill:#ebebeb;fill-opacity:1;stroke:none"
         d="m 400.31017,155.40811 22.51386,-39.14243 32.22939,19.80473 -22.32703,38.3017 z"
         id="path3888-6"
         inkscape:connector-curvature="0"
         sodipodi:nodetypes="ccccc" />
    </g>
  </g>
</svg>
