<?xml version="1.0" encoding="UTF-8" standalone="no"?>
<!-- Created with Inkscape (http://www.inkscape.org/) -->

<svg
   xmlns:dc="http://purl.org/dc/elements/1.1/"
   xmlns:cc="http://creativecommons.org/ns#"
   xmlns:rdf="http://www.w3.org/1999/02/22-rdf-syntax-ns#"
   xmlns:svg="http://www.w3.org/2000/svg"
   xmlns="http://www.w3.org/2000/svg"
   xmlns:sodipodi="http://sodipodi.sourceforge.net/DTD/sodipodi-0.dtd"
   xmlns:inkscape="http://www.inkscape.org/namespaces/inkscape"
   width="500"
   height="500"
   id="svg2"
   version="1.1"
   inkscape:version="0.91 r13725"
   sodipodi:docname="kscope.svg">
  <defs
     id="defs4" />
  <sodipodi:namedview
     id="base"
     pagecolor="#ffffff"
     bordercolor="#666666"
     borderopacity="1.0"
     inkscape:pageopacity="0.0"
     inkscape:pageshadow="2"
     inkscape:zoom="0.42897809"
     inkscape:cx="639.48431"
     inkscape:cy="221.37216"
     inkscape:document-units="px"
     inkscape:current-layer="layer1"
     showgrid="false"
     inkscape:window-width="1366"
     inkscape:window-height="715"
     inkscape:window-x="0"
     inkscape:window-y="24"
     inkscape:window-maximized="1"
     showguides="false" />
  <metadata
     id="metadata7">
    <rdf:RDF>
      <cc:Work
         rdf:about="">
        <dc:format>image/svg+xml</dc:format>
        <dc:type
           rdf:resource="http://purl.org/dc/dcmitype/StillImage" />
        <dc:title />
      </cc:Work>
    </rdf:RDF>
  </metadata>
  <g
     inkscape:label="Layer 1"
     inkscape:groupmode="layer"
     id="layer1"
     transform="translate(0,-552.36218)">
    <g
       id="g4267">
      <path
         inkscape:connector-curvature="0"
         id="path3364"
         d="m 97.04097,1029.8357 336.88842,-1.1739 1.1737,-363.88657 -88.03698,-89.21086 -250.02514,0 z"
         style="fill:#f2f2f2;fill-rule:evenodd;stroke:#afafaf;stroke-width:5.03546047;stroke-linecap:butt;stroke-linejoin:miter;stroke-miterlimit:4;stroke-dasharray:none;stroke-opacity:1" />
      <g
         id="flowRoot4140"
         style="font-style:normal;font-weight:normal;line-height:0.01%;font-family:sans-serif;letter-spacing:0px;word-spacing:0px;fill:#afafaf;fill-opacity:0.62352943;stroke:none;stroke-width:1px;stroke-linecap:butt;stroke-linejoin:miter;stroke-opacity:1"
         transform="translate(4.5794085,536.04433)"
         aria-label="0  1  0  0  1  0 0  1  1  0  0  0 1  0  0  1  0  0 1  0  1  0  1  1 0  1  1  0  0  1 ">
        <path
           id="path870"
           style="font-style:normal;font-variant:normal;font-weight:bold;font-stretch:normal;font-size:40px;line-height:1.25;font-family:sans-serif;-inkscape-font-specification:'sans-serif Bold';fill:#afafaf;fill-opacity:0.62352943"
           d="m 126.79492,270.18555 q 0,-5.46875 -1.03515,-7.69532 -1.01563,-2.24609 -3.4375,-2.24609 -2.42188,0 -3.45704,2.24609 -1.03515,2.22657 -1.03515,7.69532 0,5.52734 1.03515,7.79297 1.03516,2.26562 3.45704,2.26562 2.40234,0 3.4375,-2.26562 1.03515,-2.26563 1.03515,-7.79297 z m 7.51953,0.0586 q 0,7.24609 -3.125,11.19141 -3.125,3.92578 -8.86718,3.92578 -5.76172,0 -8.88672,-3.92578 -3.125,-3.94532 -3.125,-11.19141 0,-7.26562 3.125,-11.19141 3.125,-3.94531 8.88672,-3.94531 5.74218,0 8.86718,3.94531 3.125,3.92579 3.125,11.19141 z"
           inkscape:connector-curvature="0" />
        <path
           id="path872"
           style="font-style:normal;font-variant:normal;font-weight:bold;font-stretch:normal;font-size:40px;line-height:1.25;font-family:sans-serif;-inkscape-font-specification:'sans-serif Bold';fill:#afafaf;fill-opacity:0.62352943"
           d="m 168.70898,279.59961 6.64063,0 0,-18.84766 -6.81641,1.40625 0,-5.11718 6.77735,-1.40625 7.14843,0 0,23.96484 6.64063,0 0,5.19531 -20.39063,0 z"
           inkscape:connector-curvature="0" />
        <path
           id="path874"
           style="font-style:normal;font-variant:normal;font-weight:bold;font-stretch:normal;font-size:40px;line-height:1.25;font-family:sans-serif;-inkscape-font-specification:'sans-serif Bold';fill:#afafaf;fill-opacity:0.62352943"
           d="m 238.04492,270.18555 q 0,-5.46875 -1.03515,-7.69532 -1.01563,-2.24609 -3.4375,-2.24609 -2.42188,0 -3.45704,2.24609 -1.03515,2.22657 -1.03515,7.69532 0,5.52734 1.03515,7.79297 1.03516,2.26562 3.45704,2.26562 2.40234,0 3.4375,-2.26562 1.03515,-2.26563 1.03515,-7.79297 z m 7.51953,0.0586 q 0,7.24609 -3.125,11.19141 -3.125,3.92578 -8.86718,3.92578 -5.76172,0 -8.88672,-3.92578 -3.125,-3.94532 -3.125,-11.19141 0,-7.26562 3.125,-11.19141 3.125,-3.94531 8.88672,-3.94531 5.74218,0 8.86718,3.94531 3.125,3.92579 3.125,11.19141 z"
           inkscape:connector-curvature="0" />
        <path
           id="path876"
           style="font-style:normal;font-variant:normal;font-weight:bold;font-stretch:normal;font-size:40px;line-height:1.25;font-family:sans-serif;-inkscape-font-specification:'sans-serif Bold';fill:#afafaf;fill-opacity:0.62352943"
           d="m 293.66992,270.18555 q 0,-5.46875 -1.03515,-7.69532 -1.01563,-2.24609 -3.4375,-2.24609 -2.42188,0 -3.45704,2.24609 -1.03515,2.22657 -1.03515,7.69532 0,5.52734 1.03515,7.79297 1.03516,2.26562 3.45704,2.26562 2.40234,0 3.4375,-2.26562 1.03515,-2.26563 1.03515,-7.79297 z m 7.51953,0.0586 q 0,7.24609 -3.125,11.19141 -3.125,3.92578 -8.86718,3.92578 -5.76172,0 -8.88672,-3.92578 -3.125,-3.94532 -3.125,-11.19141 0,-7.26562 3.125,-11.19141 3.125,-3.94531 8.88672,-3.94531 5.74218,0 8.86718,3.94531 3.125,3.92579 3.125,11.19141 z"
           inkscape:connector-curvature="0" />
        <path
           id="path878"
           style="font-style:normal;font-variant:normal;font-weight:bold;font-stretch:normal;font-size:40px;line-height:1.25;font-family:sans-serif;-inkscape-font-specification:'sans-serif Bold';fill:#afafaf;fill-opacity:0.62352943"
           d="m 335.58398,279.59961 6.64063,0 0,-18.84766 -6.81641,1.40625 0,-5.11718 6.77735,-1.40625 7.14843,0 0,23.96484 6.64063,0 0,5.19531 -20.39063,0 z"
           inkscape:connector-curvature="0" />
        <path
           id="path880"
           style="font-style:normal;font-variant:normal;font-weight:bold;font-stretch:normal;font-size:40px;line-height:1.25;font-family:sans-serif;-inkscape-font-specification:'sans-serif Bold';fill:#afafaf;fill-opacity:0.62352943"
           d="m 404.91992,270.18555 q 0,-5.46875 -1.03515,-7.69532 -1.01563,-2.24609 -3.4375,-2.24609 -2.42188,0 -3.45704,2.24609 -1.03515,2.22657 -1.03515,7.69532 0,5.52734 1.03515,7.79297 1.03516,2.26562 3.45704,2.26562 2.40234,0 3.4375,-2.26562 1.03515,-2.26563 1.03515,-7.79297 z m 7.51953,0.0586 q 0,7.24609 -3.125,11.19141 -3.125,3.92578 -8.86718,3.92578 -5.76172,0 -8.88672,-3.92578 -3.125,-3.94532 -3.125,-11.19141 0,-7.26562 3.125,-11.19141 3.125,-3.94531 8.88672,-3.94531 5.74218,0 8.86718,3.94531 3.125,3.92579 3.125,11.19141 z"
           inkscape:connector-curvature="0" />
        <path
           id="path882"
           style="font-style:normal;font-variant:normal;font-weight:bold;font-stretch:normal;font-size:40px;line-height:1.25;font-family:sans-serif;-inkscape-font-specification:'sans-serif Bold';fill:#afafaf;fill-opacity:0.62352943"
           d="m 126.79492,320.18555 q 0,-5.46875 -1.03515,-7.69532 -1.01563,-2.24609 -3.4375,-2.24609 -2.42188,0 -3.45704,2.24609 -1.03515,2.22657 -1.03515,7.69532 0,5.52734 1.03515,7.79297 1.03516,2.26562 3.45704,2.26562 2.40234,0 3.4375,-2.26562 1.03515,-2.26563 1.03515,-7.79297 z m 7.51953,0.0586 q 0,7.24609 -3.125,11.19141 -3.125,3.92578 -8.86718,3.92578 -5.76172,0 -8.88672,-3.92578 -3.125,-3.94532 -3.125,-11.19141 0,-7.26562 3.125,-11.19141 3.125,-3.94531 8.88672,-3.94531 5.74218,0 8.86718,3.94531 3.125,3.92579 3.125,11.19141 z"
           inkscape:connector-curvature="0" />
        <path
           id="path884"
           style="font-style:normal;font-variant:normal;font-weight:bold;font-stretch:normal;font-size:40px;line-height:1.25;font-family:sans-serif;-inkscape-font-specification:'sans-serif Bold';fill:#afafaf;fill-opacity:0.62352943"
           d="m 168.70898,329.59961 6.64063,0 0,-18.84766 -6.81641,1.40625 0,-5.11718 6.77735,-1.40625 7.14843,0 0,23.96484 6.64063,0 0,5.19531 -20.39063,0 z"
           inkscape:connector-curvature="0" />
        <path
           id="path886"
           style="font-style:normal;font-variant:normal;font-weight:bold;font-stretch:normal;font-size:40px;line-height:1.25;font-family:sans-serif;-inkscape-font-specification:'sans-serif Bold';fill:#afafaf;fill-opacity:0.62352943"
           d="m 224.33398,329.59961 6.64063,0 0,-18.84766 -6.81641,1.40625 0,-5.11718 6.77735,-1.40625 7.14843,0 0,23.96484 6.64063,0 0,5.19531 -20.39063,0 z"
           inkscape:connector-curvature="0" />
        <path
           id="path888"
           style="font-style:normal;font-variant:normal;font-weight:bold;font-stretch:normal;font-size:40px;line-height:1.25;font-family:sans-serif;-inkscape-font-specification:'sans-serif Bold';fill:#afafaf;fill-opacity:0.62352943"
           d="m 293.66992,320.18555 q 0,-5.46875 -1.03515,-7.69532 -1.01563,-2.24609 -3.4375,-2.24609 -2.42188,0 -3.45704,2.24609 -1.03515,2.22657 -1.03515,7.69532 0,5.52734 1.03515,7.79297 1.03516,2.26562 3.45704,2.26562 2.40234,0 3.4375,-2.26562 1.03515,-2.26563 1.03515,-7.79297 z m 7.51953,0.0586 q 0,7.24609 -3.125,11.19141 -3.125,3.92578 -8.86718,3.92578 -5.76172,0 -8.88672,-3.92578 -3.125,-3.94532 -3.125,-11.19141 0,-7.26562 3.125,-11.19141 3.125,-3.94531 8.88672,-3.94531 5.74218,0 8.86718,3.94531 3.125,3.92579 3.125,11.19141 z"
           inkscape:connector-curvature="0" />
        <path
           id="path890"
           style="font-style:normal;font-variant:normal;font-weight:bold;font-stretch:normal;font-size:40px;line-height:1.25;font-family:sans-serif;-inkscape-font-specification:'sans-serif Bold';fill:#afafaf;fill-opacity:0.62352943"
           d="m 349.29492,320.18555 q 0,-5.46875 -1.03515,-7.69532 -1.01563,-2.24609 -3.4375,-2.24609 -2.42188,0 -3.45704,2.24609 -1.03515,2.22657 -1.03515,7.69532 0,5.52734 1.03515,7.79297 1.03516,2.26562 3.45704,2.26562 2.40234,0 3.4375,-2.26562 1.03515,-2.26563 1.03515,-7.79297 z m 7.51953,0.0586 q 0,7.24609 -3.125,11.19141 -3.125,3.92578 -8.86718,3.92578 -5.76172,0 -8.88672,-3.92578 -3.125,-3.94532 -3.125,-11.19141 0,-7.26562 3.125,-11.19141 3.125,-3.94531 8.88672,-3.94531 5.74218,0 8.86718,3.94531 3.125,3.92579 3.125,11.19141 z"
           inkscape:connector-curvature="0" />
        <path
           id="path892"
           style="font-style:normal;font-variant:normal;font-weight:bold;font-stretch:normal;font-size:40px;line-height:1.25;font-family:sans-serif;-inkscape-font-specification:'sans-serif Bold';fill:#afafaf;fill-opacity:0.62352943"
           d="m 404.91992,320.18555 q 0,-5.46875 -1.03515,-7.69532 -1.01563,-2.24609 -3.4375,-2.24609 -2.42188,0 -3.45704,2.24609 -1.03515,2.22657 -1.03515,7.69532 0,5.52734 1.03515,7.79297 1.03516,2.26562 3.45704,2.26562 2.40234,0 3.4375,-2.26562 1.03515,-2.26563 1.03515,-7.79297 z m 7.51953,0.0586 q 0,7.24609 -3.125,11.19141 -3.125,3.92578 -8.86718,3.92578 -5.76172,0 -8.88672,-3.92578 -3.125,-3.94532 -3.125,-11.19141 0,-7.26562 3.125,-11.19141 3.125,-3.94531 8.88672,-3.94531 5.74218,0 8.86718,3.94531 3.125,3.92579 3.125,11.19141 z"
           inkscape:connector-curvature="0" />
        <path
           id="path894"
           style="font-style:normal;font-variant:normal;font-weight:bold;font-stretch:normal;font-size:40px;line-height:1.25;font-family:sans-serif;-inkscape-font-specification:'sans-serif Bold';fill:#afafaf;fill-opacity:0.62352943"
           d="m 113.08398,379.59961 6.64063,0 0,-18.84766 -6.81641,1.40625 0,-5.11718 6.77735,-1.40625 7.14843,0 0,23.96484 6.64063,0 0,5.19531 -20.39063,0 z"
           inkscape:connector-curvature="0" />
        <path
           id="path896"
           style="font-style:normal;font-variant:normal;font-weight:bold;font-stretch:normal;font-size:40px;line-height:1.25;font-family:sans-serif;-inkscape-font-specification:'sans-serif Bold';fill:#afafaf;fill-opacity:0.62352943"
           d="m 182.41992,370.18555 q 0,-5.46875 -1.03515,-7.69532 -1.01563,-2.24609 -3.4375,-2.24609 -2.42188,0 -3.45704,2.24609 -1.03515,2.22657 -1.03515,7.69532 0,5.52734 1.03515,7.79297 1.03516,2.26562 3.45704,2.26562 2.40234,0 3.4375,-2.26562 1.03515,-2.26563 1.03515,-7.79297 z m 7.51953,0.0586 q 0,7.24609 -3.125,11.19141 -3.125,3.92578 -8.86718,3.92578 -5.76172,0 -8.88672,-3.92578 -3.125,-3.94532 -3.125,-11.19141 0,-7.26562 3.125,-11.19141 3.125,-3.94531 8.88672,-3.94531 5.74218,0 8.86718,3.94531 3.125,3.92579 3.125,11.19141 z"
           inkscape:connector-curvature="0" />
        <path
           id="path898"
           style="font-style:normal;font-variant:normal;font-weight:bold;font-stretch:normal;font-size:40px;line-height:1.25;font-family:sans-serif;-inkscape-font-specification:'sans-serif Bold';fill:#afafaf;fill-opacity:0.62352943"
           d="m 238.04492,370.18555 q 0,-5.46875 -1.03515,-7.69532 -1.01563,-2.24609 -3.4375,-2.24609 -2.42188,0 -3.45704,2.24609 -1.03515,2.22657 -1.03515,7.69532 0,5.52734 1.03515,7.79297 1.03516,2.26562 3.45704,2.26562 2.40234,0 3.4375,-2.26562 1.03515,-2.26563 1.03515,-7.79297 z m 7.51953,0.0586 q 0,7.24609 -3.125,11.19141 -3.125,3.92578 -8.86718,3.92578 -5.76172,0 -8.88672,-3.92578 -3.125,-3.94532 -3.125,-11.19141 0,-7.26562 3.125,-11.19141 3.125,-3.94531 8.88672,-3.94531 5.74218,0 8.86718,3.94531 3.125,3.92579 3.125,11.19141 z"
           inkscape:connector-curvature="0" />
        <path
           id="path900"
           style="font-style:normal;font-variant:normal;font-weight:bold;font-stretch:normal;font-size:40px;line-height:1.25;font-family:sans-serif;-inkscape-font-specification:'sans-serif Bold';fill:#afafaf;fill-opacity:0.62352943"
           d="m 279.95898,379.59961 6.64063,0 0,-18.84766 -6.81641,1.40625 0,-5.11718 6.77735,-1.40625 7.14843,0 0,23.96484 6.64063,0 0,5.19531 -20.39063,0 z"
           inkscape:connector-curvature="0" />
        <path
           id="path902"
           style="font-style:normal;font-variant:normal;font-weight:bold;font-stretch:normal;font-size:40px;line-height:1.25;font-family:sans-serif;-inkscape-font-specification:'sans-serif Bold';fill:#afafaf;fill-opacity:0.62352943"
           d="m 349.29492,370.18555 q 0,-5.46875 -1.03515,-7.69532 -1.01563,-2.24609 -3.4375,-2.24609 -2.42188,0 -3.45704,2.24609 -1.03515,2.22657 -1.03515,7.69532 0,5.52734 1.03515,7.79297 1.03516,2.26562 3.45704,2.26562 2.40234,0 3.4375,-2.26562 1.03515,-2.26563 1.03515,-7.79297 z m 7.51953,0.0586 q 0,7.24609 -3.125,11.19141 -3.125,3.92578 -8.86718,3.92578 -5.76172,0 -8.88672,-3.92578 -3.125,-3.94532 -3.125,-11.19141 0,-7.26562 3.125,-11.19141 3.125,-3.94531 8.88672,-3.94531 5.74218,0 8.86718,3.94531 3.125,3.92579 3.125,11.19141 z"
           inkscape:connector-curvature="0" />
        <path
           id="path904"
           style="font-style:normal;font-variant:normal;font-weight:bold;font-stretch:normal;font-size:40px;line-height:1.25;font-family:sans-serif;-inkscape-font-specification:'sans-serif Bold';fill:#afafaf;fill-opacity:0.62352943"
           d="m 404.91992,370.18555 q 0,-5.46875 -1.03515,-7.69532 -1.01563,-2.24609 -3.4375,-2.24609 -2.42188,0 -3.45704,2.24609 -1.03515,2.22657 -1.03515,7.69532 0,5.52734 1.03515,7.79297 1.03516,2.26562 3.45704,2.26562 2.40234,0 3.4375,-2.26562 1.03515,-2.26563 1.03515,-7.79297 z m 7.51953,0.0586 q 0,7.24609 -3.125,11.19141 -3.125,3.92578 -8.86718,3.92578 -5.76172,0 -8.88672,-3.92578 -3.125,-3.94532 -3.125,-11.19141 0,-7.26562 3.125,-11.19141 3.125,-3.94531 8.88672,-3.94531 5.74218,0 8.86718,3.94531 3.125,3.92579 3.125,11.19141 z"
           inkscape:connector-curvature="0" />
        <path
           id="path906"
           style="font-style:normal;font-variant:normal;font-weight:bold;font-stretch:normal;font-size:40px;line-height:1.25;font-family:sans-serif;-inkscape-font-specification:'sans-serif Bold';fill:#afafaf;fill-opacity:0.62352943"
           d="m 113.08398,429.59961 6.64063,0 0,-18.84766 -6.81641,1.40625 0,-5.11718 6.77735,-1.40625 7.14843,0 0,23.96484 6.64063,0 0,5.19531 -20.39063,0 z"
           inkscape:connector-curvature="0" />
        <path
           id="path908"
           style="font-style:normal;font-variant:normal;font-weight:bold;font-stretch:normal;font-size:40px;line-height:1.25;font-family:sans-serif;-inkscape-font-specification:'sans-serif Bold';fill:#afafaf;fill-opacity:0.62352943"
           d="m 182.41992,420.18555 q 0,-5.46875 -1.03515,-7.69532 -1.01563,-2.24609 -3.4375,-2.24609 -2.42188,0 -3.45704,2.24609 -1.03515,2.22657 -1.03515,7.69532 0,5.52734 1.03515,7.79297 1.03516,2.26562 3.45704,2.26562 2.40234,0 3.4375,-2.26562 1.03515,-2.26563 1.03515,-7.79297 z m 7.51953,0.0586 q 0,7.24609 -3.125,11.19141 -3.125,3.92578 -8.86718,3.92578 -5.76172,0 -8.88672,-3.92578 -3.125,-3.94532 -3.125,-11.19141 0,-7.26562 3.125,-11.19141 3.125,-3.94531 8.88672,-3.94531 5.74218,0 8.86718,3.94531 3.125,3.92579 3.125,11.19141 z"
           inkscape:connector-curvature="0" />
        <path
           id="path910"
           style="font-style:normal;font-variant:normal;font-weight:bold;font-stretch:normal;font-size:40px;line-height:1.25;font-family:sans-serif;-inkscape-font-specification:'sans-serif Bold';fill:#afafaf;fill-opacity:0.62352943"
           d="m 224.33398,429.59961 6.64063,0 0,-18.84766 -6.81641,1.40625 0,-5.11718 6.77735,-1.40625 7.14843,0 0,23.96484 6.64063,0 0,5.19531 -20.39063,0 z"
           inkscape:connector-curvature="0" />
        <path
           id="path912"
           style="font-style:normal;font-variant:normal;font-weight:bold;font-stretch:normal;font-size:40px;line-height:1.25;font-family:sans-serif;-inkscape-font-specification:'sans-serif Bold';fill:#afafaf;fill-opacity:0.62352943"
           d="m 293.66992,420.18555 q 0,-5.46875 -1.03515,-7.69532 -1.01563,-2.24609 -3.4375,-2.24609 -2.42188,0 -3.45704,2.24609 -1.03515,2.22657 -1.03515,7.69532 0,5.52734 1.03515,7.79297 1.03516,2.26562 3.45704,2.26562 2.40234,0 3.4375,-2.26562 1.03515,-2.26563 1.03515,-7.79297 z m 7.51953,0.0586 q 0,7.24609 -3.125,11.19141 -3.125,3.92578 -8.86718,3.92578 -5.76172,0 -8.88672,-3.92578 -3.125,-3.94532 -3.125,-11.19141 0,-7.26562 3.125,-11.19141 3.125,-3.94531 8.88672,-3.94531 5.74218,0 8.86718,3.94531 3.125,3.92579 3.125,11.19141 z"
           inkscape:connector-curvature="0" />
        <path
           id="path914"
           style="font-style:normal;font-variant:normal;font-weight:bold;font-stretch:normal;font-size:40px;line-height:1.25;font-family:sans-serif;-inkscape-font-specification:'sans-serif Bold';fill:#afafaf;fill-opacity:0.62352943"
           d="m 335.58398,429.59961 6.64063,0 0,-18.84766 -6.81641,1.40625 0,-5.11718 6.77735,-1.40625 7.14843,0 0,23.96484 6.64063,0 0,5.19531 -20.39063,0 z"
           inkscape:connector-curvature="0" />
        <path
           id="path916"
           style="font-style:normal;font-variant:normal;font-weight:bold;font-stretch:normal;font-size:40px;line-height:1.25;font-family:sans-serif;-inkscape-font-specification:'sans-serif Bold';fill:#afafaf;fill-opacity:0.62352943"
           d="m 391.20898,429.59961 6.64063,0 0,-18.84766 -6.81641,1.40625 0,-5.11718 6.77735,-1.40625 7.14843,0 0,23.96484 6.64063,0 0,5.19531 -20.39063,0 z"
           inkscape:connector-curvature="0" />
        <path
           id="path918"
           style="font-style:normal;font-variant:normal;font-weight:bold;font-stretch:normal;font-size:40px;line-height:1.25;font-family:sans-serif;-inkscape-font-specification:'sans-serif Bold';fill:#afafaf;fill-opacity:0.62352943"
           d="m 126.79492,470.18555 q 0,-5.46875 -1.03515,-7.69532 -1.01563,-2.24609 -3.4375,-2.24609 -2.42188,0 -3.45704,2.24609 -1.03515,2.22657 -1.03515,7.69532 0,5.52734 1.03515,7.79297 1.03516,2.26562 3.45704,2.26562 2.40234,0 3.4375,-2.26562 1.03515,-2.26563 1.03515,-7.79297 z m 7.51953,0.0586 q 0,7.24609 -3.125,11.19141 -3.125,3.92578 -8.86718,3.92578 -5.76172,0 -8.88672,-3.92578 -3.125,-3.94532 -3.125,-11.19141 0,-7.26562 3.125,-11.19141 3.125,-3.94531 8.88672,-3.94531 5.74218,0 8.86718,3.94531 3.125,3.92579 3.125,11.19141 z"
           inkscape:connector-curvature="0" />
        <path
           id="path920"
           style="font-style:normal;font-variant:normal;font-weight:bold;font-stretch:normal;font-size:40px;line-height:1.25;font-family:sans-serif;-inkscape-font-specification:'sans-serif Bold';fill:#afafaf;fill-opacity:0.62352943"
           d="m 168.70898,479.59961 6.64063,0 0,-18.84766 -6.81641,1.40625 0,-5.11718 6.77735,-1.40625 7.14843,0 0,23.96484 6.64063,0 0,5.19531 -20.39063,0 z"
           inkscape:connector-curvature="0" />
        <path
           id="path922"
           style="font-style:normal;font-variant:normal;font-weight:bold;font-stretch:normal;font-size:40px;line-height:1.25;font-family:sans-serif;-inkscape-font-specification:'sans-serif Bold';fill:#afafaf;fill-opacity:0.62352943"
           d="m 224.33398,479.59961 6.64063,0 0,-18.84766 -6.81641,1.40625 0,-5.11718 6.77735,-1.40625 7.14843,0 0,23.96484 6.64063,0 0,5.19531 -20.39063,0 z"
           inkscape:connector-curvature="0" />
        <path
           id="path924"
           style="font-style:normal;font-variant:normal;font-weight:bold;font-stretch:normal;font-size:40px;line-height:1.25;font-family:sans-serif;-inkscape-font-specification:'sans-serif Bold';fill:#afafaf;fill-opacity:0.62352943"
           d="m 293.66992,470.18555 q 0,-5.46875 -1.03515,-7.69532 -1.01563,-2.24609 -3.4375,-2.24609 -2.42188,0 -3.45704,2.24609 -1.03515,2.22657 -1.03515,7.69532 0,5.52734 1.03515,7.79297 1.03516,2.26562 3.45704,2.26562 2.40234,0 3.4375,-2.26562 1.03515,-2.26563 1.03515,-7.79297 z m 7.51953,0.0586 q 0,7.24609 -3.125,11.19141 -3.125,3.92578 -8.86718,3.92578 -5.76172,0 -8.88672,-3.92578 -3.125,-3.94532 -3.125,-11.19141 0,-7.26562 3.125,-11.19141 3.125,-3.94531 8.88672,-3.94531 5.74218,0 8.86718,3.94531 3.125,3.92579 3.125,11.19141 z"
           inkscape:connector-curvature="0" />
        <path
           id="path926"
           style="font-style:normal;font-variant:normal;font-weight:bold;font-stretch:normal;font-size:40px;line-height:1.25;font-family:sans-serif;-inkscape-font-specification:'sans-serif Bold';fill:#afafaf;fill-opacity:0.62352943"
           d="m 349.29492,470.18555 q 0,-5.46875 -1.03515,-7.69532 -1.01563,-2.24609 -3.4375,-2.24609 -2.42188,0 -3.45704,2.24609 -1.03515,2.22657 -1.03515,7.69532 0,5.52734 1.03515,7.79297 1.03516,2.26562 3.45704,2.26562 2.40234,0 3.4375,-2.26562 1.03515,-2.26563 1.03515,-7.79297 z m 7.51953,0.0586 q 0,7.24609 -3.125,11.19141 -3.125,3.92578 -8.86718,3.92578 -5.76172,0 -8.88672,-3.92578 -3.125,-3.94532 -3.125,-11.19141 0,-7.26562 3.125,-11.19141 3.125,-3.94531 8.88672,-3.94531 5.74218,0 8.86718,3.94531 3.125,3.92579 3.125,11.19141 z"
           inkscape:connector-curvature="0" />
        <path
           id="path928"
           style="font-style:normal;font-variant:normal;font-weight:bold;font-stretch:normal;font-size:40px;line-height:1.25;font-family:sans-serif;-inkscape-font-specification:'sans-serif Bold';fill:#afafaf;fill-opacity:0.62352943"
           d="m 391.20898,479.59961 6.64063,0 0,-18.84766 -6.81641,1.40625 0,-5.11718 6.77735,-1.40625 7.14843,0 0,23.96484 6.64063,0 0,5.19531 -20.39063,0 z"
           inkscape:connector-curvature="0" />
      </g>
      <path
         inkscape:connector-curvature="0"
         d="m 130.80455,607.80783 q 0,-5.46875 -1.03515,-7.69532 -1.01563,-2.24609 -3.4375,-2.24609 -2.42188,0 -3.45704,2.24609 -1.03515,2.22657 -1.03515,7.69532 0,5.52734 1.03515,7.79297 1.03516,2.26562 3.45704,2.26562 2.40234,0 3.4375,-2.26562 1.03515,-2.26563 1.03515,-7.79297 z m 7.51953,0.0586 q 0,7.24609 -3.125,11.19141 -3.125,3.92578 -8.86718,3.92578 -5.76172,0 -8.88672,-3.92578 -3.125,-3.94532 -3.125,-11.19141 0,-7.26562 3.125,-11.19141 3.125,-3.94531 8.88672,-3.94531 5.74218,0 8.86718,3.94531 3.125,3.92579 3.125,11.19141 z"
         style="font-style:normal;font-variant:normal;font-weight:bold;font-stretch:normal;font-size:40px;line-height:1.25;font-family:sans-serif;-inkscape-font-specification:'sans-serif Bold';letter-spacing:0px;word-spacing:0px;fill:#afafaf;fill-opacity:0.62352943;stroke:none;stroke-width:1px;stroke-linecap:butt;stroke-linejoin:miter;stroke-opacity:1"
         id="path870-5" />
      <path
         inkscape:connector-curvature="0"
         d="m 172.71861,617.22189 6.64063,0 0,-18.84766 -6.81641,1.40625 0,-5.11718 6.77735,-1.40625 7.14843,0 0,23.96484 6.64063,0 0,5.19531 -20.39063,0 z"
         style="font-style:normal;font-variant:normal;font-weight:bold;font-stretch:normal;font-size:40px;line-height:1.25;font-family:sans-serif;-inkscape-font-specification:'sans-serif Bold';letter-spacing:0px;word-spacing:0px;fill:#afafaf;fill-opacity:0.62352943;stroke:none;stroke-width:1px;stroke-linecap:butt;stroke-linejoin:miter;stroke-opacity:1"
         id="path872-3" />
      <path
         inkscape:connector-curvature="0"
         d="m 242.05455,607.80783 q 0,-5.46875 -1.03515,-7.69532 -1.01563,-2.24609 -3.4375,-2.24609 -2.42188,0 -3.45704,2.24609 -1.03515,2.22657 -1.03515,7.69532 0,5.52734 1.03515,7.79297 1.03516,2.26562 3.45704,2.26562 2.40234,0 3.4375,-2.26562 1.03515,-2.26563 1.03515,-7.79297 z m 7.51953,0.0586 q 0,7.24609 -3.125,11.19141 -3.125,3.92578 -8.86718,3.92578 -5.76172,0 -8.88672,-3.92578 -3.125,-3.94532 -3.125,-11.19141 0,-7.26562 3.125,-11.19141 3.125,-3.94531 8.88672,-3.94531 5.74218,0 8.86718,3.94531 3.125,3.92579 3.125,11.19141 z"
         style="font-style:normal;font-variant:normal;font-weight:bold;font-stretch:normal;font-size:40px;line-height:1.25;font-family:sans-serif;-inkscape-font-specification:'sans-serif Bold';letter-spacing:0px;word-spacing:0px;fill:#afafaf;fill-opacity:0.62352943;stroke:none;stroke-width:1px;stroke-linecap:butt;stroke-linejoin:miter;stroke-opacity:1"
         id="path874-5" />
      <path
         inkscape:connector-curvature="0"
         d="m 297.67955,607.80783 q 0,-5.46875 -1.03515,-7.69532 -1.01563,-2.24609 -3.4375,-2.24609 -2.42188,0 -3.45704,2.24609 -1.03515,2.22657 -1.03515,7.69532 0,5.52734 1.03515,7.79297 1.03516,2.26562 3.45704,2.26562 2.40234,0 3.4375,-2.26562 1.03515,-2.26563 1.03515,-7.79297 z m 7.51953,0.0586 q 0,7.24609 -3.125,11.19141 -3.125,3.92578 -8.86718,3.92578 -5.76172,0 -8.88672,-3.92578 -3.125,-3.94532 -3.125,-11.19141 0,-7.26562 3.125,-11.19141 3.125,-3.94531 8.88672,-3.94531 5.74218,0 8.86718,3.94531 3.125,3.92579 3.125,11.19141 z"
         style="font-style:normal;font-variant:normal;font-weight:bold;font-stretch:normal;font-size:40px;line-height:1.25;font-family:sans-serif;-inkscape-font-specification:'sans-serif Bold';letter-spacing:0px;word-spacing:0px;fill:#afafaf;fill-opacity:0.62352943;stroke:none;stroke-width:1px;stroke-linecap:butt;stroke-linejoin:miter;stroke-opacity:1"
         id="path876-6" />
      <path
         inkscape:connector-curvature="0"
         d="m 339.59361,617.22189 6.64063,0 0,-18.84766 -6.81641,1.40625 0,-5.11718 6.77735,-1.40625 7.14843,0 0,23.96484 6.64063,0 0,5.19531 -20.39063,0 z"
         style="font-style:normal;font-variant:normal;font-weight:bold;font-stretch:normal;font-size:40px;line-height:1.25;font-family:sans-serif;-inkscape-font-specification:'sans-serif Bold';letter-spacing:0px;word-spacing:0px;fill:#afafaf;fill-opacity:0.62352943;stroke:none;stroke-width:1px;stroke-linecap:butt;stroke-linejoin:miter;stroke-opacity:1"
         id="path878-2" />
      <path
         inkscape:connector-curvature="0"
         d="m 408.92955,607.80783 q 0,-5.46875 -1.03515,-7.69532 -1.01563,-2.24609 -3.4375,-2.24609 -2.42188,0 -3.45704,2.24609 -1.03515,2.22657 -1.03515,7.69532 0,5.52734 1.03515,7.79297 1.03516,2.26562 3.45704,2.26562 2.40234,0 3.4375,-2.26562 1.03515,-2.26563 1.03515,-7.79297 z m 7.51953,0.0586 q 0,7.24609 -3.125,11.19141 -3.125,3.92578 -8.86718,3.92578 -5.76172,0 -8.88672,-3.92578 -3.125,-3.94532 -3.125,-11.19141 0,-7.26562 3.125,-11.19141 3.125,-3.94531 8.88672,-3.94531 5.74218,0 8.86718,3.94531 3.125,3.92579 3.125,11.19141 z"
         style="font-style:normal;font-variant:normal;font-weight:bold;font-stretch:normal;font-size:40px;line-height:1.25;font-family:sans-serif;-inkscape-font-specification:'sans-serif Bold';letter-spacing:0px;word-spacing:0px;fill:#afafaf;fill-opacity:0.62352943;stroke:none;stroke-width:1px;stroke-linecap:butt;stroke-linejoin:miter;stroke-opacity:1"
         id="path880-9" />
      <path
         inkscape:connector-curvature="0"
         d="m 130.80455,657.80783 q 0,-5.46875 -1.03515,-7.69532 -1.01563,-2.24609 -3.4375,-2.24609 -2.42188,0 -3.45704,2.24609 -1.03515,2.22657 -1.03515,7.69532 0,5.52734 1.03515,7.79297 1.03516,2.26562 3.45704,2.26562 2.40234,0 3.4375,-2.26562 1.03515,-2.26563 1.03515,-7.79297 z m 7.51953,0.0586 q 0,7.24609 -3.125,11.19141 -3.125,3.92578 -8.86718,3.92578 -5.76172,0 -8.88672,-3.92578 -3.125,-3.94532 -3.125,-11.19141 0,-7.26562 3.125,-11.19141 3.125,-3.94531 8.88672,-3.94531 5.74218,0 8.86718,3.94531 3.125,3.92579 3.125,11.19141 z"
         style="font-style:normal;font-variant:normal;font-weight:bold;font-stretch:normal;font-size:40px;line-height:1.25;font-family:sans-serif;-inkscape-font-specification:'sans-serif Bold';letter-spacing:0px;word-spacing:0px;fill:#afafaf;fill-opacity:0.62352943;stroke:none;stroke-width:1px;stroke-linecap:butt;stroke-linejoin:miter;stroke-opacity:1"
         id="path882-1" />
      <path
         inkscape:connector-curvature="0"
         d="m 172.71861,667.22189 6.64063,0 0,-18.84766 -6.81641,1.40625 0,-5.11718 6.77735,-1.40625 7.14843,0 0,23.96484 6.64063,0 0,5.19531 -20.39063,0 z"
         style="font-style:normal;font-variant:normal;font-weight:bold;font-stretch:normal;font-size:40px;line-height:1.25;font-family:sans-serif;-inkscape-font-specification:'sans-serif Bold';letter-spacing:0px;word-spacing:0px;fill:#afafaf;fill-opacity:0.62352943;stroke:none;stroke-width:1px;stroke-linecap:butt;stroke-linejoin:miter;stroke-opacity:1"
         id="path884-2" />
      <path
         inkscape:connector-curvature="0"
         d="m 228.34361,667.22189 6.64063,0 0,-18.84766 -6.81641,1.40625 0,-5.11718 6.77735,-1.40625 7.14843,0 0,23.96484 6.64063,0 0,5.19531 -20.39063,0 z"
         style="font-style:normal;font-variant:normal;font-weight:bold;font-stretch:normal;font-size:40px;line-height:1.25;font-family:sans-serif;-inkscape-font-specification:'sans-serif Bold';letter-spacing:0px;word-spacing:0px;fill:#afafaf;fill-opacity:0.62352943;stroke:none;stroke-width:1px;stroke-linecap:butt;stroke-linejoin:miter;stroke-opacity:1"
         id="path886-7" />
      <path
         inkscape:connector-curvature="0"
         d="m 297.67955,657.80783 q 0,-5.46875 -1.03515,-7.69532 -1.01563,-2.24609 -3.4375,-2.24609 -2.42188,0 -3.45704,2.24609 -1.03515,2.22657 -1.03515,7.69532 0,5.52734 1.03515,7.79297 1.03516,2.26562 3.45704,2.26562 2.40234,0 3.4375,-2.26562 1.03515,-2.26563 1.03515,-7.79297 z m 7.51953,0.0586 q 0,7.24609 -3.125,11.19141 -3.125,3.92578 -8.86718,3.92578 -5.76172,0 -8.88672,-3.92578 -3.125,-3.94532 -3.125,-11.19141 0,-7.26562 3.125,-11.19141 3.125,-3.94531 8.88672,-3.94531 5.74218,0 8.86718,3.94531 3.125,3.92579 3.125,11.19141 z"
         style="font-style:normal;font-variant:normal;font-weight:bold;font-stretch:normal;font-size:40px;line-height:1.25;font-family:sans-serif;-inkscape-font-specification:'sans-serif Bold';letter-spacing:0px;word-spacing:0px;fill:#afafaf;fill-opacity:0.62352943;stroke:none;stroke-width:1px;stroke-linecap:butt;stroke-linejoin:miter;stroke-opacity:1"
         id="path888-0" />
      <path
         inkscape:connector-curvature="0"
         d="m 353.30455,657.80783 q 0,-5.46875 -1.03515,-7.69532 -1.01563,-2.24609 -3.4375,-2.24609 -2.42188,0 -3.45704,2.24609 -1.03515,2.22657 -1.03515,7.69532 0,5.52734 1.03515,7.79297 1.03516,2.26562 3.45704,2.26562 2.40234,0 3.4375,-2.26562 1.03515,-2.26563 1.03515,-7.79297 z m 7.51953,0.0586 q 0,7.24609 -3.125,11.19141 -3.125,3.92578 -8.86718,3.92578 -5.76172,0 -8.88672,-3.92578 -3.125,-3.94532 -3.125,-11.19141 0,-7.26562 3.125,-11.19141 3.125,-3.94531 8.88672,-3.94531 5.74218,0 8.86718,3.94531 3.125,3.92579 3.125,11.19141 z"
         style="font-style:normal;font-variant:normal;font-weight:bold;font-stretch:normal;font-size:40px;line-height:1.25;font-family:sans-serif;-inkscape-font-specification:'sans-serif Bold';letter-spacing:0px;word-spacing:0px;fill:#afafaf;fill-opacity:0.62352943;stroke:none;stroke-width:1px;stroke-linecap:butt;stroke-linejoin:miter;stroke-opacity:1"
         id="path890-9" />
      <path
         inkscape:connector-curvature="0"
         d="m 408.92955,657.80783 q 0,-5.46875 -1.03515,-7.69532 -1.01563,-2.24609 -3.4375,-2.24609 -2.42188,0 -3.45704,2.24609 -1.03515,2.22657 -1.03515,7.69532 0,5.52734 1.03515,7.79297 1.03516,2.26562 3.45704,2.26562 2.40234,0 3.4375,-2.26562 1.03515,-2.26563 1.03515,-7.79297 z m 7.51953,0.0586 q 0,7.24609 -3.125,11.19141 -3.125,3.92578 -8.86718,3.92578 -5.76172,0 -8.88672,-3.92578 -3.125,-3.94532 -3.125,-11.19141 0,-7.26562 3.125,-11.19141 3.125,-3.94531 8.88672,-3.94531 5.74218,0 8.86718,3.94531 3.125,3.92579 3.125,11.19141 z"
         style="font-style:normal;font-variant:normal;font-weight:bold;font-stretch:normal;font-size:40px;line-height:1.25;font-family:sans-serif;-inkscape-font-specification:'sans-serif Bold';letter-spacing:0px;word-spacing:0px;fill:#afafaf;fill-opacity:0.62352943;stroke:none;stroke-width:1px;stroke-linecap:butt;stroke-linejoin:miter;stroke-opacity:1"
         id="path892-3" />
      <path
         inkscape:connector-curvature="0"
         d="m 117.09361,717.22189 6.64063,0 0,-18.84766 -6.81641,1.40625 0,-5.11718 6.77735,-1.40625 7.14843,0 0,23.96484 6.64063,0 0,5.19531 -20.39063,0 z"
         style="font-style:normal;font-variant:normal;font-weight:bold;font-stretch:normal;font-size:40px;line-height:1.25;font-family:sans-serif;-inkscape-font-specification:'sans-serif Bold';letter-spacing:0px;word-spacing:0px;fill:#afafaf;fill-opacity:0.62352943;stroke:none;stroke-width:1px;stroke-linecap:butt;stroke-linejoin:miter;stroke-opacity:1"
         id="path894-6" />
      <path
         inkscape:connector-curvature="0"
         d="m 186.42955,707.80783 q 0,-5.46875 -1.03515,-7.69532 -1.01563,-2.24609 -3.4375,-2.24609 -2.42188,0 -3.45704,2.24609 -1.03515,2.22657 -1.03515,7.69532 0,5.52734 1.03515,7.79297 1.03516,2.26562 3.45704,2.26562 2.40234,0 3.4375,-2.26562 1.03515,-2.26563 1.03515,-7.79297 z m 7.51953,0.0586 q 0,7.24609 -3.125,11.19141 -3.125,3.92578 -8.86718,3.92578 -5.76172,0 -8.88672,-3.92578 -3.125,-3.94532 -3.125,-11.19141 0,-7.26562 3.125,-11.19141 3.125,-3.94531 8.88672,-3.94531 5.74218,0 8.86718,3.94531 3.125,3.92579 3.125,11.19141 z"
         style="font-style:normal;font-variant:normal;font-weight:bold;font-stretch:normal;font-size:40px;line-height:1.25;font-family:sans-serif;-inkscape-font-specification:'sans-serif Bold';letter-spacing:0px;word-spacing:0px;fill:#afafaf;fill-opacity:0.62352943;stroke:none;stroke-width:1px;stroke-linecap:butt;stroke-linejoin:miter;stroke-opacity:1"
         id="path896-0" />
      <path
         inkscape:connector-curvature="0"
         d="m 242.05455,707.80783 q 0,-5.46875 -1.03515,-7.69532 -1.01563,-2.24609 -3.4375,-2.24609 -2.42188,0 -3.45704,2.24609 -1.03515,2.22657 -1.03515,7.69532 0,5.52734 1.03515,7.79297 1.03516,2.26562 3.45704,2.26562 2.40234,0 3.4375,-2.26562 1.03515,-2.26563 1.03515,-7.79297 z m 7.51953,0.0586 q 0,7.24609 -3.125,11.19141 -3.125,3.92578 -8.86718,3.92578 -5.76172,0 -8.88672,-3.92578 -3.125,-3.94532 -3.125,-11.19141 0,-7.26562 3.125,-11.19141 3.125,-3.94531 8.88672,-3.94531 5.74218,0 8.86718,3.94531 3.125,3.92579 3.125,11.19141 z"
         style="font-style:normal;font-variant:normal;font-weight:bold;font-stretch:normal;font-size:40px;line-height:1.25;font-family:sans-serif;-inkscape-font-specification:'sans-serif Bold';letter-spacing:0px;word-spacing:0px;fill:#afafaf;fill-opacity:0.62352943;stroke:none;stroke-width:1px;stroke-linecap:butt;stroke-linejoin:miter;stroke-opacity:1"
         id="path898-6" />
      <path
         inkscape:connector-curvature="0"
         d="m 283.96861,717.22189 6.64063,0 0,-18.84766 -6.81641,1.40625 0,-5.11718 6.77735,-1.40625 7.14843,0 0,23.96484 6.64063,0 0,5.19531 -20.39063,0 z"
         style="font-style:normal;font-variant:normal;font-weight:bold;font-stretch:normal;font-size:40px;line-height:1.25;font-family:sans-serif;-inkscape-font-specification:'sans-serif Bold';letter-spacing:0px;word-spacing:0px;fill:#afafaf;fill-opacity:0.62352943;stroke:none;stroke-width:1px;stroke-linecap:butt;stroke-linejoin:miter;stroke-opacity:1"
         id="path900-2" />
      <path
         inkscape:connector-curvature="0"
         d="m 353.30455,707.80783 q 0,-5.46875 -1.03515,-7.69532 -1.01563,-2.24609 -3.4375,-2.24609 -2.42188,0 -3.45704,2.24609 -1.03515,2.22657 -1.03515,7.69532 0,5.52734 1.03515,7.79297 1.03516,2.26562 3.45704,2.26562 2.40234,0 3.4375,-2.26562 1.03515,-2.26563 1.03515,-7.79297 z m 7.51953,0.0586 q 0,7.24609 -3.125,11.19141 -3.125,3.92578 -8.86718,3.92578 -5.76172,0 -8.88672,-3.92578 -3.125,-3.94532 -3.125,-11.19141 0,-7.26562 3.125,-11.19141 3.125,-3.94531 8.88672,-3.94531 5.74218,0 8.86718,3.94531 3.125,3.92579 3.125,11.19141 z"
         style="font-style:normal;font-variant:normal;font-weight:bold;font-stretch:normal;font-size:40px;line-height:1.25;font-family:sans-serif;-inkscape-font-specification:'sans-serif Bold';letter-spacing:0px;word-spacing:0px;fill:#afafaf;fill-opacity:0.62352943;stroke:none;stroke-width:1px;stroke-linecap:butt;stroke-linejoin:miter;stroke-opacity:1"
         id="path902-6" />
      <path
         inkscape:connector-curvature="0"
         d="m 408.92955,707.80783 q 0,-5.46875 -1.03515,-7.69532 -1.01563,-2.24609 -3.4375,-2.24609 -2.42188,0 -3.45704,2.24609 -1.03515,2.22657 -1.03515,7.69532 0,5.52734 1.03515,7.79297 1.03516,2.26562 3.45704,2.26562 2.40234,0 3.4375,-2.26562 1.03515,-2.26563 1.03515,-7.79297 z m 7.51953,0.0586 q 0,7.24609 -3.125,11.19141 -3.125,3.92578 -8.86718,3.92578 -5.76172,0 -8.88672,-3.92578 -3.125,-3.94532 -3.125,-11.19141 0,-7.26562 3.125,-11.19141 3.125,-3.94531 8.88672,-3.94531 5.74218,0 8.86718,3.94531 3.125,3.92579 3.125,11.19141 z"
         style="font-style:normal;font-variant:normal;font-weight:bold;font-stretch:normal;font-size:40px;line-height:1.25;font-family:sans-serif;-inkscape-font-specification:'sans-serif Bold';letter-spacing:0px;word-spacing:0px;fill:#afafaf;fill-opacity:0.62352943;stroke:none;stroke-width:1px;stroke-linecap:butt;stroke-linejoin:miter;stroke-opacity:1"
         id="path904-1" />
      <path
         inkscape:connector-curvature="0"
         d="m 117.09361,767.22189 6.64063,0 0,-18.84766 -6.81641,1.40625 0,-5.11718 6.77735,-1.40625 7.14843,0 0,23.96484 6.64063,0 0,5.19531 -20.39063,0 z"
         style="font-style:normal;font-variant:normal;font-weight:bold;font-stretch:normal;font-size:40px;line-height:1.25;font-family:sans-serif;-inkscape-font-specification:'sans-serif Bold';letter-spacing:0px;word-spacing:0px;fill:#afafaf;fill-opacity:0.62352943;stroke:none;stroke-width:1px;stroke-linecap:butt;stroke-linejoin:miter;stroke-opacity:1"
         id="path906-8" />
      <path
         inkscape:connector-curvature="0"
         d="m 186.42955,757.80783 q 0,-5.46875 -1.03515,-7.69532 -1.01563,-2.24609 -3.4375,-2.24609 -2.42188,0 -3.45704,2.24609 -1.03515,2.22657 -1.03515,7.69532 0,5.52734 1.03515,7.79297 1.03516,2.26562 3.45704,2.26562 2.40234,0 3.4375,-2.26562 1.03515,-2.26563 1.03515,-7.79297 z m 7.51953,0.0586 q 0,7.24609 -3.125,11.19141 -3.125,3.92578 -8.86718,3.92578 -5.76172,0 -8.88672,-3.92578 -3.125,-3.94532 -3.125,-11.19141 0,-7.26562 3.125,-11.19141 3.125,-3.94531 8.88672,-3.94531 5.74218,0 8.86718,3.94531 3.125,3.92579 3.125,11.19141 z"
         style="font-style:normal;font-variant:normal;font-weight:bold;font-stretch:normal;font-size:40px;line-height:1.25;font-family:sans-serif;-inkscape-font-specification:'sans-serif Bold';letter-spacing:0px;word-spacing:0px;fill:#afafaf;fill-opacity:0.62352943;stroke:none;stroke-width:1px;stroke-linecap:butt;stroke-linejoin:miter;stroke-opacity:1"
         id="path908-7" />
      <path
         inkscape:connector-curvature="0"
         d="m 228.34361,767.22189 6.64063,0 0,-18.84766 -6.81641,1.40625 0,-5.11718 6.77735,-1.40625 7.14843,0 0,23.96484 6.64063,0 0,5.19531 -20.39063,0 z"
         style="font-style:normal;font-variant:normal;font-weight:bold;font-stretch:normal;font-size:40px;line-height:1.25;font-family:sans-serif;-inkscape-font-specification:'sans-serif Bold';letter-spacing:0px;word-spacing:0px;fill:#afafaf;fill-opacity:0.62352943;stroke:none;stroke-width:1px;stroke-linecap:butt;stroke-linejoin:miter;stroke-opacity:1"
         id="path910-9" />
      <path
         inkscape:connector-curvature="0"
         d="m 297.67955,757.80783 q 0,-5.46875 -1.03515,-7.69532 -1.01563,-2.24609 -3.4375,-2.24609 -2.42188,0 -3.45704,2.24609 -1.03515,2.22657 -1.03515,7.69532 0,5.52734 1.03515,7.79297 1.03516,2.26562 3.45704,2.26562 2.40234,0 3.4375,-2.26562 1.03515,-2.26563 1.03515,-7.79297 z m 7.51953,0.0586 q 0,7.24609 -3.125,11.19141 -3.125,3.92578 -8.86718,3.92578 -5.76172,0 -8.88672,-3.92578 -3.125,-3.94532 -3.125,-11.19141 0,-7.26562 3.125,-11.19141 3.125,-3.94531 8.88672,-3.94531 5.74218,0 8.86718,3.94531 3.125,3.92579 3.125,11.19141 z"
         style="font-style:normal;font-variant:normal;font-weight:bold;font-stretch:normal;font-size:40px;line-height:1.25;font-family:sans-serif;-inkscape-font-specification:'sans-serif Bold';letter-spacing:0px;word-spacing:0px;fill:#afafaf;fill-opacity:0.62352943;stroke:none;stroke-width:1px;stroke-linecap:butt;stroke-linejoin:miter;stroke-opacity:1"
         id="path912-2" />
      <path
         inkscape:connector-curvature="0"
         d="m 339.59361,767.22189 6.64063,0 0,-18.84766 -6.81641,1.40625 0,-5.11718 6.77735,-1.40625 7.14843,0 0,23.96484 6.64063,0 0,5.19531 -20.39063,0 z"
         style="font-style:normal;font-variant:normal;font-weight:bold;font-stretch:normal;font-size:40px;line-height:1.25;font-family:sans-serif;-inkscape-font-specification:'sans-serif Bold';letter-spacing:0px;word-spacing:0px;fill:#afafaf;fill-opacity:0.62352943;stroke:none;stroke-width:1px;stroke-linecap:butt;stroke-linejoin:miter;stroke-opacity:1"
         id="path914-0" />
      <path
         inkscape:connector-curvature="0"
         d="m 395.21861,767.22189 6.64063,0 0,-18.84766 -6.81641,1.40625 0,-5.11718 6.77735,-1.40625 7.14843,0 0,23.96484 6.64063,0 0,5.19531 -20.39063,0 z"
         style="font-style:normal;font-variant:normal;font-weight:bold;font-stretch:normal;font-size:40px;line-height:1.25;font-family:sans-serif;-inkscape-font-specification:'sans-serif Bold';letter-spacing:0px;word-spacing:0px;fill:#afafaf;fill-opacity:0.62352943;stroke:none;stroke-width:1px;stroke-linecap:butt;stroke-linejoin:miter;stroke-opacity:1"
         id="path916-2" />
      <path
         inkscape:connector-curvature="0"
         d="m 228.34361,817.22189 6.64063,0 0,-18.84766 -6.81641,1.40625 0,-5.11718 6.77735,-1.40625 7.14843,0 0,23.96484 6.64063,0 0,5.19531 -20.39063,0 z"
         style="font-style:normal;font-variant:normal;font-weight:bold;font-stretch:normal;font-size:40px;line-height:1.25;font-family:sans-serif;-inkscape-font-specification:'sans-serif Bold';letter-spacing:0px;word-spacing:0px;fill:#afafaf;fill-opacity:0.62352943;stroke:none;stroke-width:1px;stroke-linecap:butt;stroke-linejoin:miter;stroke-opacity:1"
         id="path922-5" />
      <path
         inkscape:connector-curvature="0"
         d="m 297.67955,807.80783 q 0,-5.46875 -1.03515,-7.69532 -1.01563,-2.24609 -3.4375,-2.24609 -2.42188,0 -3.45704,2.24609 -1.03515,2.22657 -1.03515,7.69532 0,5.52734 1.03515,7.79297 1.03516,2.26562 3.45704,2.26562 2.40234,0 3.4375,-2.26562 1.03515,-2.26563 1.03515,-7.79297 z m 7.51953,0.0586 q 0,7.24609 -3.125,11.19141 -3.125,3.92578 -8.86718,3.92578 -5.76172,0 -8.88672,-3.92578 -3.125,-3.94532 -3.125,-11.19141 0,-7.26562 3.125,-11.19141 3.125,-3.94531 8.88672,-3.94531 5.74218,0 8.86718,3.94531 3.125,3.92579 3.125,11.19141 z"
         style="font-style:normal;font-variant:normal;font-weight:bold;font-stretch:normal;font-size:40px;line-height:1.25;font-family:sans-serif;-inkscape-font-specification:'sans-serif Bold';letter-spacing:0px;word-spacing:0px;fill:#afafaf;fill-opacity:0.62352943;stroke:none;stroke-width:1px;stroke-linecap:butt;stroke-linejoin:miter;stroke-opacity:1"
         id="path924-9" />
      <g
         id="g4260">
        <rect
           style="fill:#ffdd55;fill-opacity:1;stroke:none;stroke-width:1;stroke-miterlimit:4;stroke-dasharray:none;stroke-opacity:1"
           id="rect4234-3-6"
           width="186.8907"
           height="66.978172"
           x="-687.59314"
           y="699.01715"
           transform="matrix(0.68185872,-0.73148389,0.73148389,0.68185872,0,0)" />
        <rect
           style="fill:#ffd42a;fill-opacity:1;stroke:none;stroke-width:1;stroke-miterlimit:4;stroke-dasharray:none;stroke-opacity:1"
           id="rect4234-3"
           width="186.8907"
           height="87.503738"
           x="-511.50531"
           y="688.75439"
           transform="matrix(0.68185872,-0.73148389,0.73148389,0.68185872,0,0)" />
        <rect
           style="fill:#ffcc00;fill-opacity:1;stroke:none;stroke-width:1;stroke-miterlimit:4;stroke-dasharray:none;stroke-opacity:1"
           id="rect4234"
           width="186.8907"
           height="103.70814"
           x="-334.87741"
           y="680.11206"
           transform="matrix(0.68185872,-0.73148389,0.73148389,0.68185872,0,0)" />
        <rect
           style="fill:#ffd42a;fill-opacity:1;stroke:none;stroke-width:1;stroke-miterlimit:4;stroke-dasharray:none;stroke-opacity:1"
           id="rect4234-8"
           width="15.368724"
           height="118.90972"
           x="-168.4735"
           y="671.8147"
           transform="matrix(0.67918471,-0.73396739,0.74590438,0.66605304,0,0)" />
        <rect
           style="fill:#ffd42a;fill-opacity:1;stroke:none;stroke-width:1;stroke-miterlimit:4;stroke-dasharray:none;stroke-opacity:1"
           id="rect4234-8-9"
           width="10.449483"
           height="80.848946"
           x="-708.76715"
           y="689.96332"
           transform="matrix(0.67918471,-0.73396739,0.74590438,0.66605304,0,0)" />
      </g>
    </g>
  </g>
</svg>
