<?xml version="1.0" encoding="UTF-8" standalone="no"?>
<!-- Created with Inkscape (http://www.inkscape.org/) -->

<svg
   xmlns:dc="http://purl.org/dc/elements/1.1/"
   xmlns:cc="http://creativecommons.org/ns#"
   xmlns:rdf="http://www.w3.org/1999/02/22-rdf-syntax-ns#"
   xmlns:svg="http://www.w3.org/2000/svg"
   xmlns="http://www.w3.org/2000/svg"
   xmlns:sodipodi="http://sodipodi.sourceforge.net/DTD/sodipodi-0.dtd"
   xmlns:inkscape="http://www.inkscape.org/namespaces/inkscape"
   id="svg2"
   version="1.1"
   inkscape:version="0.48.5 r10040"
   width="512"
   height="512"
   sodipodi:docname="libreoffice3-calc.svg"
   viewBox="0 0 512 512">
  <metadata
     id="metadata8">
    <rdf:RDF>
      <cc:Work
         rdf:about="">
        <dc:format>image/svg+xml</dc:format>
        <dc:type
           rdf:resource="http://purl.org/dc/dcmitype/StillImage" />
        <dc:title />
      </cc:Work>
    </rdf:RDF>
  </metadata>
  <defs
     id="defs6" />
  <sodipodi:namedview
     pagecolor="#ffffff"
     bordercolor="#666666"
     borderopacity="1"
     objecttolerance="10"
     gridtolerance="10"
     guidetolerance="10"
     inkscape:pageopacity="0"
     inkscape:pageshadow="2"
     inkscape:window-width="1366"
     inkscape:window-height="716"
     id="namedview4"
     showgrid="false"
     inkscape:zoom="0.70710678"
     inkscape:cx="207.03431"
     inkscape:cy="283.08202"
     inkscape:window-x="0"
     inkscape:window-y="0"
     inkscape:window-maximized="1"
     inkscape:current-layer="svg2" />
  <path
     inkscape:connector-curvature="0"
     id="path4306"
     d="M 108.63515,480.36629 C 105.33731,479.48008 98.641923,476.28521 95.1003,473.90778 88.161564,469.2499 81.397437,460.60659 78.117231,452.20655 L 76.508407,448.08664 76.38643,257.34815 76.264453,66.609693 l 1.181368,-3.81565 c 3.758232,-12.138521 12.246918,-21.93893 23.775459,-27.449381 8.09833,-3.870871 0.42584,-3.558694 87.2339,-3.549294 l 77.21905,0.0084 34.1487,34.333082 c 18.78178,18.883191 50.37495,50.63158 70.20704,70.55197 19.83208,19.92039 36.05832,36.32524 36.05832,36.45523 0,0.12996 6.167,6.39948 13.70443,13.93225 l 13.70441,13.69592 0.10099,55.13515 c 0.0555,30.32433 0.1061,86.67776 0.11235,125.22985 l 0.0112,70.09469 -2.09053,4.34869 c -2.64912,5.5107 -4.2224,7.78456 -8.44552,12.20651 -5.48679,5.74507 -11.13166,9.24954 -19.31531,11.99132 l -3.98056,1.3336 -144.39174,-0.0409 c -125.88851,-0.0355 -144.70835,-0.12578 -146.86296,-0.70478 z"
     style="fill:#45d03f;fill-opacity:1;stroke:none;stroke-width:0.44932496999999999;stroke-opacity:1"
     sodipodi:nodetypes="csscccssscsssscsscssscscc" />
  <path
     style="fill:#45d03f;stroke:none;stroke-width:1px;stroke-linecap:butt;stroke-linejoin:miter;stroke-opacity:1;fill-opacity:1"
     d="M 428.94185,138.7564 C 398.76997,104.22802 330.03003,37.884033 330.03003,37.884033 c 0,0 -3.23022,-2.311031 -3.17669,-4.619121 0.0535,-2.308089 2.24711,-2.369487 2.24711,-2.369487 l 63.45263,-0.05439 c 0,0 16.38843,-0.504035 30.06234,13.466661 13.67391,13.970696 12.92307,32 12.92307,32 l -0.0151,60.925707 c 0,0 0.004,2.20437 -1.97175,3.15479 -1.97535,0.95043 -4.60979,-1.63179 -4.60979,-1.63179 z"
     id="path2983"
     inkscape:connector-curvature="0"
     sodipodi:nodetypes="cczcczcczc" />
  <path
     inkscape:connector-curvature="0"
     id="path4306-3"
     d="m 122.20088,460.23037 c -2.94726,-0.792 -8.93089,-3.64723 -12.09601,-5.77192 -6.20111,-4.16272 -12.246166,-11.88719 -15.177665,-19.39425 L 93.489409,431.38226 93.380399,260.9205 93.271389,90.458761 94.32717,87.048739 c 3.358708,-10.848117 10.94499,-19.606681 21.24798,-24.531334 7.23742,-3.459372 0.38057,-3.180388 77.96037,-3.171987 l 69.01017,0.0071 30.51848,30.683262 c 16.78515,16.87578 45.01977,45.24912 62.74358,63.05184 17.7238,17.80273 32.22509,32.46363 32.22509,32.57981 0,0.11614 5.5114,5.71917 12.24756,12.45116 l 12.24754,12.23995 0.0903,49.27393 c 0.0496,27.10066 0.0948,77.46336 0.10041,111.91711 l 0.01,62.64318 -1.86829,3.8864 c -2.3675,4.92487 -3.77353,6.95701 -7.54771,10.90887 -4.90351,5.13434 -9.94829,8.26626 -17.26197,10.71657 l -3.5574,1.19183 -129.04197,-0.0365 c -112.50575,-0.0314 -129.32492,-0.11205 -131.25048,-0.6295 z"
     style="fill:#ffffff;fill-opacity:1;stroke:none"
     sodipodi:nodetypes="csscccssscsssscsscssscscc" />
  <rect
     style="fill:#45d03f;fill-opacity:1;stroke:none"
     id="rect3932"
     width="235"
     height="188"
     x="129.25"
     y="222.125" />
  <rect
     style="fill:#8dd35f;fill-opacity:1;stroke:none"
     id="rect3771"
     width="49.310349"
     height="22.821951"
     x="135.7563"
     y="227.4696" />
  <rect
     style="fill:#8dd35f;fill-opacity:1;stroke:none"
     id="rect3771-7"
     width="49.310349"
     height="22.821951"
     x="192.65285"
     y="227.4696" />
  <rect
     style="fill:#8dd35f;fill-opacity:1;stroke:none"
     id="rect3771-7-5"
     width="49.310349"
     height="22.821951"
     x="249.54941"
     y="227.4696" />
  <rect
     style="fill:#8dd35f;fill-opacity:1;stroke:none"
     id="rect3771-7-5-3"
     width="49.310349"
     height="22.821951"
     x="306.44595"
     y="227.4696" />
  <rect
     style="fill:#aade87;fill-opacity:1;stroke:none"
     id="rect3771-5"
     width="49.310349"
     height="22.821951"
     x="135.7563"
     y="257.92126" />
  <rect
     style="fill:#aade87;fill-opacity:1;stroke:none"
     id="rect3771-7-6"
     width="49.310349"
     height="22.821951"
     x="192.65285"
     y="257.92126" />
  <rect
     style="fill:#aade87;fill-opacity:1;stroke:none"
     id="rect3771-7-5-2"
     width="49.310349"
     height="22.821951"
     x="249.54941"
     y="257.92126" />
  <rect
     style="fill:#aade87;fill-opacity:1;stroke:none"
     id="rect3771-7-5-3-9"
     width="49.310349"
     height="22.821951"
     x="306.44598"
     y="257.92126" />
  <rect
     style="fill:#aade87;fill-opacity:1;stroke:none"
     id="rect3771-1"
     width="49.310349"
     height="22.821951"
     x="135.7563"
     y="288.15155" />
  <rect
     style="fill:#aade87;fill-opacity:1;stroke:none"
     id="rect3771-7-2"
     width="49.310349"
     height="22.821951"
     x="192.65286"
     y="288.15155" />
  <rect
     style="fill:#aade87;fill-opacity:1;stroke:none"
     id="rect3771-7-5-7"
     width="49.310349"
     height="22.821951"
     x="249.54941"
     y="288.15155" />
  <rect
     style="fill:#aade87;fill-opacity:1;stroke:none"
     id="rect3771-7-5-3-0"
     width="49.310349"
     height="22.821951"
     x="306.44595"
     y="288.15155" />
  <rect
     style="fill:#aade87;fill-opacity:1;stroke:none"
     id="rect3771-5-9"
     width="49.310349"
     height="22.821951"
     x="135.7563"
     y="318.60324" />
  <rect
     style="fill:#aade87;fill-opacity:1;stroke:none"
     id="rect3771-7-6-3"
     width="49.310349"
     height="22.821951"
     x="192.65286"
     y="318.60324" />
  <rect
     style="fill:#aade87;fill-opacity:1;stroke:none"
     id="rect3771-7-5-2-6"
     width="49.310349"
     height="22.821951"
     x="249.54944"
     y="318.60324" />
  <rect
     style="fill:#aade87;fill-opacity:1;stroke:none"
     id="rect3771-7-5-3-9-0"
     width="49.310349"
     height="22.821951"
     x="306.44598"
     y="318.60324" />
  <rect
     style="fill:#aade87;fill-opacity:1;stroke:none"
     id="rect3771-6"
     width="49.310349"
     height="22.821951"
     x="136.24365"
     y="349.25674" />
  <rect
     style="fill:#aade87;fill-opacity:1;stroke:none"
     id="rect3771-7-26"
     width="49.310349"
     height="22.821951"
     x="193.1402"
     y="349.25674" />
  <rect
     style="fill:#aade87;fill-opacity:1;stroke:none"
     id="rect3771-7-5-1"
     width="49.310349"
     height="22.821951"
     x="250.03674"
     y="349.25674" />
  <rect
     style="fill:#aade87;fill-opacity:1;stroke:none"
     id="rect3771-7-5-3-8"
     width="49.310349"
     height="22.821951"
     x="306.93332"
     y="349.25674" />
  <rect
     style="fill:#aade87;fill-opacity:1;stroke:none"
     id="rect3771-5-7"
     width="49.310349"
     height="22.821951"
     x="136.24365"
     y="379.70844" />
  <rect
     style="fill:#aade87;fill-opacity:1;stroke:none"
     id="rect3771-7-6-9"
     width="49.310349"
     height="22.821951"
     x="193.1402"
     y="379.70844" />
  <rect
     style="fill:#aade87;fill-opacity:1;stroke:none"
     id="rect3771-7-5-2-2"
     width="49.310349"
     height="22.821951"
     x="250.03677"
     y="379.70844" />
  <rect
     style="fill:#aade87;fill-opacity:1;stroke:none"
     id="rect3771-7-5-3-9-02"
     width="49.310349"
     height="22.821951"
     x="306.93335"
     y="379.70844" />
  <g
     id="g3961"
     transform="matrix(0.36771085,0,0,0.36771085,48.981354,250.92488)">
    <rect
       transform="matrix(0,1,-1,0,0,0)"
       rx="21.248234"
       ry="30.048391"
       y="-902"
       x="222.39226"
       height="380"
       width="257.21548"
       id="rect3003"
       style="fill:#394050;fill-opacity:1;stroke:none" />
    <path
       sodipodi:nodetypes="cccczcczcczcczc"
       inkscape:connector-curvature="0"
       id="path3773"
       d="m 888.29277,234.78694 c -2.79892,-1.83146 -6.49446,-1.5393 -6.49446,-1.5393 l -316.32985,0.0539 -23.19098,0.003 c 0,0 -3.62715,-0.12022 -5.51849,1.23479 -1.89134,1.35512 -2.06875,4.5815 -2.06875,4.5815 l 0.0137,223.47507 c 0,0 -0.25554,3.74338 1.57722,5.42709 1.83271,1.68371 5.90625,1.53638 5.90625,1.53638 l 329.58919,-0.0853 c 0,0 9.01713,0.88461 14.27075,-3.43524 5.25362,-4.31984 3.95992,-12.04617 3.95992,-12.04617 l 0.63379,-214.34297 c 0,0 0.44821,-3.03219 -2.35048,-4.86361 z"
       style="fill:#ffffff;stroke:none" />
    <path
       inkscape:connector-curvature="0"
       id="path17"
       d="m 725.57105,429.05271 h -28.24922 c -3.90017,0 -7.06271,-3.16254 -7.06271,-7.06271 V 308.99229 c 0,-3.90017 3.16254,-7.0627 7.06271,-7.0627 h 28.24922 c 3.90017,0 7.06271,3.16253 7.06271,7.0627 V 421.99 c 0,3.90017 -3.16254,7.06271 -7.06271,7.06271 z"
       style="fill:#ffcc00" />
    <path
       inkscape:connector-curvature="0"
       id="path21"
       d="m 662.00989,429.05271 h -28.24922 c -3.90017,0 -7.06271,-3.16254 -7.06271,-7.06271 v -77.68577 c 0,-3.90017 3.16254,-7.06271 7.06271,-7.06271 h 28.24922 c 3.90017,0 7.06271,3.16254 7.06271,7.06271 V 421.99 c 0,3.90017 -3.16254,7.06271 -7.06271,7.06271 z"
       style="fill:#f03916;fill-opacity:1" />
    <path
       inkscape:connector-curvature="0"
       id="path25"
       d="m 598.44874,429.05271 h -28.24922 c -3.90017,0 -7.06271,-3.16254 -7.06271,-7.06271 v -42.37464 c 0,-3.90017 3.16254,-7.06271 7.06271,-7.06271 h 28.24922 c 3.90016,0 7.0627,3.16254 7.0627,7.06271 V 421.99 c -7.9e-4,3.90017 -3.16254,7.06271 -7.0627,7.06271 z"
       style="fill:#004455" />
    <path
       inkscape:connector-curvature="0"
       id="path29"
       d="m 789.1322,429.05271 h -28.24921 c -3.90017,0 -7.06271,-3.16254 -7.06271,-7.06271 v -77.68577 c 0,-3.90017 3.16254,-7.06271 7.06271,-7.06271 h 28.24921 c 3.90017,0 7.06271,3.16254 7.06271,7.06271 V 421.99 c 0,3.90017 -3.16254,7.06271 -7.06271,7.06271 z"
       style="fill:#45d03f;fill-opacity:1" />
    <path
       inkscape:connector-curvature="0"
       id="path33"
       d="m 852.69415,429.05271 h -28.24922 c -3.90016,0 -7.0627,-3.16254 -7.0627,-7.06271 V 266.61766 c 0,-3.90017 3.16254,-7.0627 7.0627,-7.0627 h 28.24922 c 3.90017,0 7.06271,3.16253 7.06271,7.0627 V 421.99 c -8e-4,3.90017 -3.16254,7.06271 -7.06271,7.06271 z"
       style="fill:#00bbf2;fill-opacity:1" />
    <path
       inkscape:connector-curvature="0"
       id="path37"
       d="M 873.88067,436.11381 H 549.0122 c -3.90017,0 -7.06271,-3.16254 -7.06271,-7.06271 l 0,0 c 0,-3.90017 3.16254,-7.0627 7.06271,-7.0627 h 324.86927 c 3.90017,0 7.06271,3.16253 7.06271,7.0627 l 0,0 c -8e-4,3.90177 -3.16254,7.06271 -7.06351,7.06271 z"
       style="fill:#394050" />
  </g>
</svg>
