<?xml version="1.0" encoding="UTF-8" standalone="no"?>
<!-- Created with Inkscape (http://www.inkscape.org/) -->

<svg
   xmlns:dc="http://purl.org/dc/elements/1.1/"
   xmlns:cc="http://creativecommons.org/ns#"
   xmlns:rdf="http://www.w3.org/1999/02/22-rdf-syntax-ns#"
   xmlns:svg="http://www.w3.org/2000/svg"
   xmlns="http://www.w3.org/2000/svg"
   xmlns:sodipodi="http://sodipodi.sourceforge.net/DTD/sodipodi-0.dtd"
   xmlns:inkscape="http://www.inkscape.org/namespaces/inkscape"
   id="svg2"
   version="1.1"
   inkscape:version="0.91 r13725"
   width="512"
   height="512"
   sodipodi:docname="lunch.svg"
   viewBox="0 0 512 512">
  <metadata
     id="metadata8">
    <rdf:RDF>
      <cc:Work
         rdf:about="">
        <dc:format>image/svg+xml</dc:format>
        <dc:type
           rdf:resource="http://purl.org/dc/dcmitype/StillImage" />
        <dc:title />
      </cc:Work>
    </rdf:RDF>
  </metadata>
  <defs
     id="defs6">
    <clipPath
       clipPathUnits="userSpaceOnUse"
       id="clipPath3947">
      <ellipse
         style="opacity:1;fill:#ffc82d;fill-opacity:1;stroke:none;stroke-width:0;stroke-linecap:butt;stroke-linejoin:miter;stroke-miterlimit:4;stroke-dasharray:none;stroke-dashoffset:0;stroke-opacity:1"
         id="ellipse3949"
         cx="256.52075"
         cy="256.47083"
         rx="203.24309"
         ry="212.23589" />
    </clipPath>
    <clipPath
       clipPathUnits="userSpaceOnUse"
       id="clipPath4806">
      <circle
         style="opacity:1;fill:#f6c439;fill-opacity:1;stroke:none;stroke-width:0;stroke-linecap:butt;stroke-linejoin:miter;stroke-miterlimit:4;stroke-dasharray:none;stroke-dashoffset:0;stroke-opacity:1"
         id="circle4808"
         cx="249.4608"
         cy="248.91539"
         r="211.62711" />
    </clipPath>
    <clipPath
       clipPathUnits="userSpaceOnUse"
       id="clipPath4837">
      <circle
         style="opacity:1;fill:#0fa15f;fill-opacity:1;stroke:none;stroke-width:0;stroke-linecap:butt;stroke-linejoin:miter;stroke-miterlimit:4;stroke-dasharray:none;stroke-dashoffset:0;stroke-opacity:1"
         id="circle4839"
         cx="256"
         cy="256"
         r="207.13615" />
    </clipPath>
    <clipPath
       clipPathUnits="userSpaceOnUse"
       id="clipPath5050">
      <path
         style="opacity:1;fill:#f9f9f9;fill-opacity:1;stroke:none;stroke-width:0;stroke-linecap:butt;stroke-linejoin:miter;stroke-miterlimit:4;stroke-dasharray:none;stroke-dashoffset:0;stroke-opacity:1"
         d="M 255.99999,45.26758 A 210.73167,210.73167 0 0 0 45.267565,256 210.73167,210.73167 0 0 0 255.99999,466.73242 210.73167,210.73167 0 0 0 466.73244,256 210.73167,210.73167 0 0 0 255.99999,45.26758 Z m 0,111.84375 A 98.888542,98.888542 0 0 1 354.88866,256 98.888542,98.888542 0 0 1 255.99999,354.88867 98.888542,98.888542 0 0 1 157.11132,256 98.888542,98.888542 0 0 1 255.99999,157.11133 Z"
         id="path5052"
         inkscape:connector-curvature="0" />
    </clipPath>
    <clipPath
       clipPathUnits="userSpaceOnUse"
       id="clipPath5127">
      <path
         style="opacity:1;fill:#f9f9f9;fill-opacity:1;stroke:none;stroke-width:0;stroke-linecap:butt;stroke-linejoin:miter;stroke-miterlimit:4;stroke-dasharray:none;stroke-dashoffset:0;stroke-opacity:1"
         d="M 255.99999,45.26758 A 210.73167,210.73167 0 0 0 45.26756,256 210.73167,210.73167 0 0 0 255.99999,466.73242 210.73167,210.73167 0 0 0 466.73244,256 210.73167,210.73167 0 0 0 255.99999,45.26758 Z m 0,111.84375 A 98.888542,98.888542 0 0 1 354.88864,256 98.888542,98.888542 0 0 1 255.99999,354.88867 98.888542,98.888542 0 0 1 157.11132,256 98.888542,98.888542 0 0 1 255.99999,157.11133 Z"
         id="path5129"
         inkscape:connector-curvature="0" />
    </clipPath>
  </defs>
  <sodipodi:namedview
     pagecolor="#ffffff"
     bordercolor="#666666"
     borderopacity="1"
     objecttolerance="10"
     gridtolerance="10000"
     guidetolerance="10"
     inkscape:pageopacity="0"
     inkscape:pageshadow="2"
     inkscape:window-width="1366"
     inkscape:window-height="715"
     id="namedview4"
     showgrid="false"
     inkscape:zoom="0.19057767"
     inkscape:cx="-223.19625"
     inkscape:cy="533.95359"
     inkscape:window-x="0"
     inkscape:window-y="24"
     inkscape:window-maximized="1"
     inkscape:current-layer="svg2"
     inkscape:snap-perpendicular="false" />
  <g
     id="g4151"
     transform="matrix(1.1086005,0.31331991,-0.31331991,1.1086005,-13.584495,-148.99239)">
    <path
       sodipodi:nodetypes="zzzzzzzzzzzzzzz"
       inkscape:connector-curvature="0"
       id="path4158"
       d="m 272.0107,475.31141 c 14.61579,5.14268 25.29591,11.82415 43.13079,10.36798 17.83487,-1.45618 39.91795,-11.59549 58.06064,-24.46842 18.14269,-12.87294 35.816,-32.53965 47.27794,-52.25459 11.46193,-19.71493 20.57833,-43.14562 20.73595,-63.03725 0.15774,-19.89162 -5.99924,-35.76543 -15.75931,-50.59571 -9.76007,-14.83029 -25.34716,-25.72312 -40.64246,-34.8364 -15.2953,-9.11329 -31.87805,-15.2193 -49.76626,-19.07706 -17.88821,-3.85776 -38.90254,-5.20534 -56.40177,-3.31773 -17.49924,1.8876 -33.49233,4.74479 -47.27798,13.27099 -13.78565,8.52619 -24.208,19.85145 -32.34804,35.66581 -8.14005,15.81436 -11.72848,39.25328 -12.44158,57.23123 -0.7131,17.97795 0.24215,29.99331 6.63552,48.93681 6.39354,18.9435 20.27083,47.87279 34.83636,61.37842 14.56553,13.50563 29.34442,15.59324 43.9602,20.73592 z"
       style="fill:#c83737;fill-opacity:1;fill-rule:evenodd;stroke:none;stroke-width:1px;stroke-linecap:butt;stroke-linejoin:miter;stroke-opacity:1" />
    <path
       sodipodi:nodetypes="cczzzccccccczzzcczc"
       inkscape:connector-curvature="0"
       id="path4163"
       d="m 294.06335,276.291 13.6403,1.11967 c 0,0 9.3878,-20.14607 13.78279,-33.43055 4.39499,-13.28447 6.69478,-30.06796 11.73001,-46.3336 5.03523,-16.26564 12.52731,-36.99312 18.76805,-51.0256 6.24075,-14.03249 12.20018,-24.48699 17.59502,-33.43056 7.51905,-11.96317 16.04684,-23.257044 24.31469,-34.707703 l 4.23202,-12.552297 -3.08672,-13.961744 39.05533,27.204677 -11.43679,0.879778 -21.11402,7.038007 c 0,0 -12.75401,21.440292 -19.94106,35.776552 -7.18705,14.33626 -16.14113,32.27079 -22.58028,50.43909 -6.43915,18.1683 -12.43989,39.94961 -15.54228,58.35687 -3.10238,18.40727 -3.79781,51.47027 -3.79781,51.47027 l 10.78271,5.39134 c 0,0 -6.9433,10.86311 -27.99355,7.87965 C 301.42152,293.4214 294.06335,276.291 294.06335,276.291 Z"
       style="fill:#45d03f;fill-opacity:1;fill-rule:evenodd;stroke:none;stroke-width:1px;stroke-linecap:butt;stroke-linejoin:miter;stroke-opacity:1" />
  </g>
</svg>
