<?xml version="1.0" encoding="UTF-8" standalone="no"?>
<!-- Created with Inkscape (http://www.inkscape.org/) -->

<svg
   xmlns:dc="http://purl.org/dc/elements/1.1/"
   xmlns:cc="http://creativecommons.org/ns#"
   xmlns:rdf="http://www.w3.org/1999/02/22-rdf-syntax-ns#"
   xmlns:svg="http://www.w3.org/2000/svg"
   xmlns="http://www.w3.org/2000/svg"
   xmlns:sodipodi="http://sodipodi.sourceforge.net/DTD/sodipodi-0.dtd"
   xmlns:inkscape="http://www.inkscape.org/namespaces/inkscape"
   id="svg2"
   version="1.1"
   inkscape:version="0.92.1 r15371"
   width="512"
   height="512"
   sodipodi:docname="mate-system-log-symbolic.svg"
   viewBox="0 0 512 512">
  <metadata
     id="metadata8">
    <rdf:RDF>
      <cc:Work
         rdf:about="">
        <dc:format>image/svg+xml</dc:format>
        <dc:type
           rdf:resource="http://purl.org/dc/dcmitype/StillImage" />
        <dc:title />
      </cc:Work>
    </rdf:RDF>
  </metadata>
  <defs
     id="defs6" />
  <sodipodi:namedview
     pagecolor="#ffffff"
     bordercolor="#666666"
     borderopacity="1"
     objecttolerance="10"
     gridtolerance="10"
     guidetolerance="10"
     inkscape:pageopacity="0"
     inkscape:pageshadow="2"
     inkscape:window-width="1360"
     inkscape:window-height="715"
     id="namedview4"
     showgrid="false"
     inkscape:zoom="0.23046875"
     inkscape:cx="-294.29636"
     inkscape:cy="387.34493"
     inkscape:window-x="-8"
     inkscape:window-y="-8"
     inkscape:window-maximized="1"
     inkscape:current-layer="svg2"
     inkscape:document-units="px" />
  <path
     inkscape:connector-curvature="0"
     style="fill:#394050;fill-opacity:1;stroke:none;stroke-width:1.19986641"
     d="M 19.648425,24.675363 V 258.4416 H 356.19682 V 24.675363 Z M 44.889559,42.207831 H 70.130693 V 59.740298 H 44.889559 Z m 260.825011,0 H 330.9557 V 59.740298 H 305.71457 Z M 44.889559,86.038999 H 70.130693 V 103.57147 H 44.889559 Z m 260.825011,0 H 330.9557 V 103.57147 H 305.71457 Z M 44.889559,132.79226 h 25.241134 v 17.53246 H 44.889559 Z m 260.825011,0 h 25.24113 v 17.53246 H 305.71457 Z M 44.889559,179.5455 h 25.241134 v 17.53247 H 44.889559 Z m 260.825011,0 h 25.24113 v 17.53247 H 305.71457 Z M 44.889559,223.37667 h 25.241134 v 17.53247 H 44.889559 Z m 260.825011,0 h 25.24113 v 17.53247 h -25.24113 z"
     id="rect4197" />
  <rect
     style="fill:#00bbf2;fill-opacity:1;stroke:none;stroke-width:1.19986641"
     id="rect4323"
     width="185.10153"
     height="90.584404"
     x="95.371803"
     y="42.207829" />
  <rect
     style="fill:#00bbf2;fill-opacity:1;stroke:none;stroke-width:1.19986641"
     id="rect4325"
     width="185.10153"
     height="90.584419"
     x="95.371803"
     y="150.32472" />
  <path
     inkscape:connector-curvature="0"
     style="fill:#394050;fill-opacity:1;stroke:none;stroke-width:1.19986641"
     d="M 19.648425,240.90914 V 474.67537 H 356.19682 V 240.90914 Z m 25.241134,17.53246 h 25.241134 v 17.53247 H 44.889559 Z m 260.825011,0 h 25.24113 v 17.53247 H 305.71457 Z M 44.889559,302.27277 h 25.241134 v 17.53247 H 44.889559 Z m 260.825011,0 h 25.24113 v 17.53247 H 305.71457 Z M 44.889559,349.02602 h 25.241134 v 17.53247 H 44.889559 Z m 260.825011,0 h 25.24113 v 17.53247 H 305.71457 Z M 44.889559,395.77927 h 25.241134 v 17.53246 H 44.889559 Z m 260.825011,0 h 25.24113 v 17.53246 H 305.71457 Z M 44.889559,439.61043 H 70.130693 V 457.1429 H 44.889559 Z m 260.825011,0 h 25.24113 v 17.53247 h -25.24113 z"
     id="rect4197-3" />
  <rect
     style="fill:#00bbf2;fill-opacity:1;stroke:none;stroke-width:1.19986641"
     id="rect4323-6"
     width="185.10153"
     height="90.584404"
     x="95.371803"
     y="258.44159" />
  <rect
     style="fill:#00bbf2;fill-opacity:1;stroke:none;stroke-width:1.19986641"
     id="rect4325-7"
     width="185.10153"
     height="90.584419"
     x="95.371803"
     y="366.5585" />
  <circle
     r="106.70422"
     cy="-8.4767179"
     cx="368.1394"
     style="fill:#00bbf2;fill-opacity:0.58823529;stroke:#4b4b4b;stroke-width:19.47979927;stroke-miterlimit:4;stroke-dasharray:none;stroke-opacity:1"
     id="path2996"
     transform="rotate(45.118959)" />
  <path
     style="fill:none;stroke:#4b4b4b;stroke-width:28.47047615;stroke-linecap:butt;stroke-linejoin:miter;stroke-miterlimit:4;stroke-dasharray:none;stroke-opacity:1"
     d="m 341.9509,332.07658 69.93105,69.40127"
     id="path3766"
     inkscape:connector-curvature="0" />
  <path
     style="fill:none;stroke:#323232;stroke-width:41.20726776;stroke-linecap:butt;stroke-linejoin:miter;stroke-miterlimit:4;stroke-dasharray:none;stroke-opacity:1"
     d="m 409.23305,399.09384 63.0439,64.10346"
     id="path3766-3"
     inkscape:connector-curvature="0"
     sodipodi:nodetypes="cc" />
</svg>
