<?xml version="1.0" encoding="UTF-8" standalone="no"?>
<svg
   xmlns:dc="http://purl.org/dc/elements/1.1/"
   xmlns:cc="http://creativecommons.org/ns#"
   xmlns:rdf="http://www.w3.org/1999/02/22-rdf-syntax-ns#"
   xmlns:svg="http://www.w3.org/2000/svg"
   xmlns="http://www.w3.org/2000/svg"
   xmlns:sodipodi="http://sodipodi.sourceforge.net/DTD/sodipodi-0.dtd"
   xmlns:inkscape="http://www.inkscape.org/namespaces/inkscape"
   viewBox="0 0 500 500"
   id="svg2"
   version="1.1"
   inkscape:version="0.92.1 r15371"
   width="100%"
   height="100%"
   sodipodi:docname="mate-notification-properties.svg">
  <metadata
     id="metadata65">
    <rdf:RDF>
      <cc:Work
         rdf:about="">
        <dc:format>image/svg+xml</dc:format>
        <dc:type
           rdf:resource="http://purl.org/dc/dcmitype/StillImage" />
        <dc:title />
      </cc:Work>
    </rdf:RDF>
  </metadata>
  <sodipodi:namedview
     pagecolor="#ffffff"
     bordercolor="#666666"
     borderopacity="1"
     objecttolerance="10"
     gridtolerance="10"
     guidetolerance="10"
     inkscape:pageopacity="0"
     inkscape:pageshadow="2"
     inkscape:window-width="1360"
     inkscape:window-height="715"
     id="namedview63"
     showgrid="false"
     inkscape:zoom="0.30729167"
     inkscape:cx="72.89157"
     inkscape:cy="507.15426"
     inkscape:window-x="-8"
     inkscape:window-y="-8"
     inkscape:window-maximized="1"
     inkscape:current-layer="svg2" />
  <defs
     id="defs4">
    <linearGradient
       id="linearGradient3764"
       x1="1"
       x2="47"
       gradientUnits="userSpaceOnUse"
       gradientTransform="matrix(0,-1,1,0,-1.5e-6,47.999998)">
      <stop
         stop-color="#3d3d3d"
         stop-opacity="1"
         id="stop7" />
      <stop
         offset="1"
         stop-color="#474747"
         stop-opacity="1"
         id="stop9" />
    </linearGradient>
    <clipPath
       id="clipPath-156864852">
      <g
         transform="translate(0,-1004.3622)"
         id="g12">
        <path
           d="m -24,13 c 0,1.105 -0.672,2 -1.5,2 -0.828,0 -1.5,-0.895 -1.5,-2 0,-1.105 0.672,-2 1.5,-2 0.828,0 1.5,0.895 1.5,2 z"
           transform="matrix(15.333333,0,0,11.5,414.99999,878.8622)"
           id="path14"
           inkscape:connector-curvature="0"
           style="fill:#1890d0" />
      </g>
    </clipPath>
    <clipPath
       id="clipPath-165128749">
      <g
         transform="translate(0,-1004.3622)"
         id="g17">
        <path
           d="m -24,13 c 0,1.105 -0.672,2 -1.5,2 -0.828,0 -1.5,-0.895 -1.5,-2 0,-1.105 0.672,-2 1.5,-2 0.828,0 1.5,0.895 1.5,2 z"
           transform="matrix(15.333333,0,0,11.5,414.99999,878.8622)"
           id="path19"
           inkscape:connector-curvature="0"
           style="fill:#1890d0" />
      </g>
    </clipPath>
  </defs>
  <g
     id="g33"
     transform="translate(0,452)" />
  <rect
     style="fill:#394050;fill-opacity:1;stroke:none"
     id="rect2998"
     width="450"
     height="294.10715"
     x="25"
     y="49.689491"
     ry="51.428574" />
  <path
     style="fill:#394050;stroke:none;fill-opacity:1"
     d="M 99.254238,331.59322 48.813559,465.83051 224.54237,335.66102 z"
     id="path3768"
     inkscape:connector-curvature="0"
     sodipodi:nodetypes="cccc" />
  <rect
     style="fill:#5fbcd3;fill-opacity:1;stroke:none"
     id="rect2998-3"
     width="389.90823"
     height="242.04951"
     x="55.388878"
     y="78.045143"
     ry="42.3256" />
  <rect
     style="fill:#5fd38d;fill-opacity:1;stroke:none;stroke-width:0.79601324"
     id="rect2998-3-5"
     width="389.90823"
     height="153.37155"
     x="55.388901"
     y="166.72311"
     ry="43.090248" />
  <rect
     style="fill:#d7eef4;fill-opacity:1;stroke:none;stroke-width:0.86941057"
     id="rect2998-3-3"
     width="294.7218"
     height="242.04951"
     x="55.388878"
     y="78.045135"
     ry="42.3256" />
</svg>
