<?xml version="1.0" encoding="UTF-8" standalone="no"?>
<!-- Created with Inkscape (http://www.inkscape.org/) -->

<svg
   xmlns:dc="http://purl.org/dc/elements/1.1/"
   xmlns:cc="http://creativecommons.org/ns#"
   xmlns:rdf="http://www.w3.org/1999/02/22-rdf-syntax-ns#"
   xmlns:svg="http://www.w3.org/2000/svg"
   xmlns="http://www.w3.org/2000/svg"
   xmlns:sodipodi="http://sodipodi.sourceforge.net/DTD/sodipodi-0.dtd"
   xmlns:inkscape="http://www.inkscape.org/namespaces/inkscape"
   width="512"
   height="512"
   id="svg2"
   version="1.1"
   inkscape:version="0.48.5 r10040"
   sodipodi:docname="multimedia-audio-player.svg"
   viewBox="0 0 512 512">
  <defs
     id="defs4" />
  <sodipodi:namedview
     id="base"
     pagecolor="#ffffff"
     bordercolor="#666666"
     borderopacity="1.0"
     inkscape:pageopacity="0.0"
     inkscape:pageshadow="2"
     inkscape:zoom="0.65186406"
     inkscape:cx="418.31282"
     inkscape:cy="379.19676"
     inkscape:document-units="px"
     inkscape:current-layer="layer1"
     showgrid="true"
     inkscape:snap-page="true"
     inkscape:snap-global="false"
     inkscape:snap-center="true"
     inkscape:snap-object-midpoints="false"
     showguides="true"
     inkscape:guide-bbox="true"
     inkscape:snap-bbox="true"
     inkscape:object-paths="true"
     inkscape:object-nodes="true"
     inkscape:window-width="1366"
     inkscape:window-height="716"
     inkscape:window-x="0"
     inkscape:window-y="0"
     inkscape:window-maximized="1"
     inkscape:snap-midpoints="false"
     inkscape:snap-grids="true"
     inkscape:snap-to-guides="false"
     borderlayer="false"
     showborder="true">
    <inkscape:grid
       type="xygrid"
       id="grid3002"
       empspacing="5"
       visible="true"
       enabled="true"
       snapvisiblegridlinesonly="true" />
  </sodipodi:namedview>
  <metadata
     id="metadata7">
    <rdf:RDF>
      <cc:Work
         rdf:about="">
        <dc:format>image/svg+xml</dc:format>
        <dc:type
           rdf:resource="http://purl.org/dc/dcmitype/StillImage" />
        <dc:title />
      </cc:Work>
    </rdf:RDF>
  </metadata>
  <g
     inkscape:label="Layer 1"
     inkscape:groupmode="layer"
     id="layer1"
     transform="translate(0,-540.36218)">
    <g
       id="g3068"
       transform="matrix(1.7261968,8.286144e-4,-8.286144e-4,1.7261968,-281.50532,-785.09019)">
      <rect
         ry="9.164629"
         y="837.27625"
         x="178.03693"
         height="163.24495"
         width="260.61914"
         id="rect2996"
         style="fill:#808080;fill-opacity:1;stroke:none" />
      <rect
         ry="9.164629"
         y="883.09943"
         x="192.92943"
         height="101.9565"
         width="229.68852"
         id="rect2998"
         style="fill:#cccccc;fill-opacity:1;stroke:none" />
      <rect
         ry="9.164629"
         y="911.73883"
         x="227.86963"
         height="45.250355"
         width="155.22592"
         id="rect3000"
         style="fill:#394050;fill-opacity:1;stroke:none" />
      <path
         transform="matrix(2.5418876,0,0,2.4494555,-181.11984,776.6933)"
         d="m 177.28177,64.486656 c 0,3.835507 -2.99623,6.944799 -6.69226,6.944799 -3.69604,0 -6.69226,-3.109292 -6.69226,-6.944799 0,-3.835506 2.99622,-6.944799 6.69226,-6.944799 3.69603,0 6.69226,3.109293 6.69226,6.944799 z"
         sodipodi:ry="6.9447989"
         sodipodi:rx="6.6922607"
         sodipodi:cy="64.486656"
         sodipodi:cx="170.58951"
         id="path3002-7-6"
         style="fill:#ffffff;fill-opacity:1;stroke:none"
         sodipodi:type="arc" />
      <rect
         ry="0"
         y="918.03949"
         x="279.99341"
         height="33.221783"
         width="53.269405"
         id="rect3042"
         style="fill:#ffffff;fill-opacity:1;stroke:none" />
      <path
         sodipodi:nodetypes="cczcccccc"
         inkscape:connector-curvature="0"
         id="path3046"
         d="m 333.99472,951.64039 -14.58083,-0.30442 c 0,0 -4.79748,-6.03323 -4.65779,-15.99834 0.13972,-9.96511 5.67032,-17.41599 5.67032,-17.41599 l 13.7708,0 -0.0159,9.10898 c 0,0 -3.44642,2.08085 -3.5762,8.12903 -0.12974,4.61623 3.3054,8.68464 3.3054,8.68464 z"
         style="fill:#552200;stroke:none" />
      <path
         sodipodi:nodetypes="cczcccccc"
         inkscape:connector-curvature="0"
         id="path3046-4"
         d="m 279.63851,951.79639 14.58086,-0.30432 c 0,0 4.79745,-6.03344 4.65776,-15.99855 -0.13972,-9.96511 -5.67033,-17.41599 -5.67033,-17.41599 l -13.77079,0 0.0159,9.10898 c 0,0 3.44644,2.08085 3.57622,8.12903 0.12973,4.61623 -3.3054,8.68464 -3.3054,8.68464 z"
         style="fill:#552200;stroke:none" />
      <path
         sodipodi:nodetypes="ccccc"
         inkscape:connector-curvature="0"
         id="path3834"
         d="m 219.84764,837.84916 11.34065,40.82634 154.23285,0 11.34065,-40.8264 z"
         style="fill:#333333;stroke:none" />
      <path
         transform="matrix(2.3429575,0,0,2.2453341,157.91782,775.5583)"
         d="m 41.921332,34.30835 c 0,1.673675 -1.30025,3.030457 -2.904189,3.030457 -1.603939,0 -2.904188,-1.356782 -2.904188,-3.030457 0,-1.673676 1.300249,-3.030458 2.904188,-3.030458 1.603939,0 2.904189,1.356782 2.904189,3.030458 z"
         sodipodi:ry="3.0304577"
         sodipodi:rx="2.9041886"
         sodipodi:cy="34.30835"
         sodipodi:cx="39.017143"
         id="path3836"
         style="fill:#ffffff;fill-opacity:1;stroke:none"
         sodipodi:type="arc" />
      <path
         transform="matrix(2.3429575,0,0,2.2453341,275.86058,775.5583)"
         d="m 41.921332,34.30835 c 0,1.673675 -1.30025,3.030457 -2.904189,3.030457 -1.603939,0 -2.904188,-1.356782 -2.904188,-3.030457 0,-1.673676 1.300249,-3.030458 2.904188,-3.030458 1.603939,0 2.904189,1.356782 2.904189,3.030458 z"
         sodipodi:ry="3.0304577"
         sodipodi:rx="2.9041886"
         sodipodi:cy="34.30835"
         sodipodi:cx="39.017143"
         id="path3836-1"
         style="fill:#ffffff;fill-opacity:1;stroke:none"
         sodipodi:type="arc" />
      <path
         transform="matrix(1.9524645,0,0,1.8711117,194.70098,796.33571)"
         d="m 41.921332,34.30835 c 0,1.673675 -1.30025,3.030457 -2.904189,3.030457 -1.603939,0 -2.904188,-1.356782 -2.904188,-3.030457 0,-1.673676 1.300249,-3.030458 2.904188,-3.030458 1.603939,0 2.904189,1.356782 2.904189,3.030458 z"
         sodipodi:ry="3.0304577"
         sodipodi:rx="2.9041886"
         sodipodi:cy="34.30835"
         sodipodi:cx="39.017143"
         id="path3836-6"
         style="fill:#ffffff;fill-opacity:1;stroke:none"
         sodipodi:type="arc" />
      <path
         transform="matrix(1.9524645,0,0,1.8711117,269.54929,796.33571)"
         d="m 41.921332,34.30835 c 0,1.673675 -1.30025,3.030457 -2.904189,3.030457 -1.603939,0 -2.904188,-1.356782 -2.904188,-3.030457 0,-1.673676 1.300249,-3.030458 2.904188,-3.030458 1.603939,0 2.904189,1.356782 2.904189,3.030458 z"
         sodipodi:ry="3.0304577"
         sodipodi:rx="2.9041886"
         sodipodi:cy="34.30835"
         sodipodi:cx="39.017143"
         id="path3836-6-9"
         style="fill:#ffffff;fill-opacity:1;stroke:none"
         sodipodi:type="arc" />
      <path
         transform="matrix(1.9524645,0,0,1.8711117,112.16753,782.81897)"
         d="m 41.921332,34.30835 c 0,1.673675 -1.30025,3.030457 -2.904189,3.030457 -1.603939,0 -2.904188,-1.356782 -2.904188,-3.030457 0,-1.673676 1.300249,-3.030458 2.904188,-3.030458 1.603939,0 2.904189,1.356782 2.904189,3.030458 z"
         sodipodi:ry="3.0304577"
         sodipodi:rx="2.9041886"
         sodipodi:cy="34.30835"
         sodipodi:cx="39.017143"
         id="path3836-6-9-5"
         style="fill:#000000;fill-opacity:1;stroke:none"
         sodipodi:type="arc" />
      <path
         transform="matrix(1.9524645,0,0,1.8711117,110.44918,926.01627)"
         d="m 41.921332,34.30835 c 0,1.673675 -1.30025,3.030457 -2.904189,3.030457 -1.603939,0 -2.904188,-1.356782 -2.904188,-3.030457 0,-1.673676 1.300249,-3.030458 2.904188,-3.030458 1.603939,0 2.904189,1.356782 2.904189,3.030458 z"
         sodipodi:ry="3.0304577"
         sodipodi:rx="2.9041886"
         sodipodi:cy="34.30835"
         sodipodi:cx="39.017143"
         id="path3836-6-9-5-6"
         style="fill:#000000;fill-opacity:1;stroke:none"
         sodipodi:type="arc" />
      <path
         transform="matrix(1.9524645,0,0,1.8711117,352.73906,926.01638)"
         d="m 41.921332,34.30835 c 0,1.673675 -1.30025,3.030457 -2.904189,3.030457 -1.603939,0 -2.904188,-1.356782 -2.904188,-3.030457 0,-1.673676 1.300249,-3.030458 2.904188,-3.030458 1.603939,0 2.904189,1.356782 2.904189,3.030458 z"
         sodipodi:ry="3.0304577"
         sodipodi:rx="2.9041886"
         sodipodi:cy="34.30835"
         sodipodi:cx="39.017143"
         id="path3836-6-9-5-9"
         style="fill:#000000;fill-opacity:1;stroke:none"
         sodipodi:type="arc" />
      <path
         transform="matrix(1.9524645,0,0,1.8711117,352.73906,781.67341)"
         d="m 41.921332,34.30835 c 0,1.673675 -1.30025,3.030457 -2.904189,3.030457 -1.603939,0 -2.904188,-1.356782 -2.904188,-3.030457 0,-1.673676 1.300249,-3.030458 2.904188,-3.030458 1.603939,0 2.904189,1.356782 2.904189,3.030458 z"
         sodipodi:ry="3.0304577"
         sodipodi:rx="2.9041886"
         sodipodi:cy="34.30835"
         sodipodi:cx="39.017143"
         id="path3836-6-9-5-8"
         style="fill:#000000;fill-opacity:1;stroke:none"
         sodipodi:type="arc" />
      <path
         transform="matrix(1.9524645,0,0,1.8711117,230.16215,805.73056)"
         d="m 41.921332,34.30835 c 0,1.673675 -1.30025,3.030457 -2.904189,3.030457 -1.603939,0 -2.904188,-1.356782 -2.904188,-3.030457 0,-1.673676 1.300249,-3.030458 2.904188,-3.030458 1.603939,0 2.904189,1.356782 2.904189,3.030458 z"
         sodipodi:ry="3.0304577"
         sodipodi:rx="2.9041886"
         sodipodi:cy="34.30835"
         sodipodi:cx="39.017143"
         id="path3836-6-9-5-82"
         style="fill:#000000;fill-opacity:1;stroke:none"
         sodipodi:type="arc" />
      <rect
         y="945.53339"
         x="248.20361"
         height="5.4414988"
         width="5.7278934"
         id="rect3956"
         style="fill:#cccccc;fill-opacity:1;stroke:none" />
      <rect
         inkscape:transform-center-x="-1.6117121"
         inkscape:transform-center-y="4.8967158"
         transform="matrix(0.77468818,-0.63234343,0.63234343,0.77468818,0,0)"
         y="881.18817"
         x="-384.51184"
         height="5.4414988"
         width="5.7278934"
         id="rect3956-6"
         style="fill:#cccccc;fill-opacity:1;stroke:none" />
      <rect
         transform="matrix(0.97762873,-0.21033798,0.21033798,0.97762873,0,0)"
         y="962.97937"
         x="33.873444"
         height="5.4414988"
         width="5.7278934"
         id="rect3956-51"
         style="fill:#cccccc;fill-opacity:1;stroke:none" />
      <rect
         transform="matrix(0.45545103,0.89026084,-0.89026084,0.45545103,0,0)"
         y="197.28146"
         x="930.52313"
         height="5.4414988"
         width="5.7278934"
         id="rect3956-8"
         style="fill:#cccccc;fill-opacity:1;stroke:none" />
      <rect
         transform="matrix(0.83726045,0.54680429,-0.54680429,0.83726045,0,0)"
         y="640.45526"
         x="733.13129"
         height="5.4414988"
         width="5.7278934"
         id="rect3956-8-5"
         style="fill:#cccccc;fill-opacity:1;stroke:none" />
      <path
         transform="matrix(2.5418876,0,0,2.4494555,-74.294632,776.40691)"
         d="m 177.28177,64.486656 c 0,3.835507 -2.99623,6.944799 -6.69226,6.944799 -3.69604,0 -6.69226,-3.109292 -6.69226,-6.944799 0,-3.835506 2.99622,-6.944799 6.69226,-6.944799 3.69603,0 6.69226,3.109293 6.69226,6.944799 z"
         sodipodi:ry="6.9447989"
         sodipodi:rx="6.6922607"
         sodipodi:cy="64.486656"
         sodipodi:cx="170.58951"
         id="path3002-7-6-3"
         style="fill:#ffffff;fill-opacity:1;stroke:none"
         sodipodi:type="arc" />
      <rect
         y="945.24707"
         x="355.02887"
         height="5.4414988"
         width="5.7278934"
         id="rect3956-3"
         style="fill:#cccccc;fill-opacity:1;stroke:none" />
      <rect
         inkscape:transform-center-x="-1.6117386"
         inkscape:transform-center-y="4.8967489"
         transform="matrix(0.77468818,-0.63234343,0.63234343,0.77468818,0,0)"
         y="948.51654"
         x="-301.57449"
         height="5.4414988"
         width="5.7278934"
         id="rect3956-6-6"
         style="fill:#cccccc;fill-opacity:1;stroke:none" />
      <rect
         transform="matrix(0.97762873,-0.21033798,0.21033798,0.97762873,0,0)"
         y="985.16901"
         x="138.36909"
         height="5.4414988"
         width="5.7278934"
         id="rect3956-51-0"
         style="fill:#cccccc;fill-opacity:1;stroke:none" />
      <rect
         transform="matrix(0.45545103,0.89026084,-0.89026084,0.45545103,0,0)"
         y="102.04866"
         x="978.92175"
         height="5.4414988"
         width="5.7278934"
         id="rect3956-8-54"
         style="fill:#cccccc;fill-opacity:1;stroke:none" />
      <rect
         transform="matrix(0.83726045,0.54680429,-0.54680429,0.83726045,0,0)"
         y="581.80298"
         x="822.41516"
         height="5.4414988"
         width="5.7278934"
         id="rect3956-8-5-9"
         style="fill:#cccccc;fill-opacity:1;stroke:none" />
      <path
         inkscape:connector-curvature="0"
         id="path4048"
         d="m 216.20244,964.56353 181.04539,0"
         style="fill:none;stroke:#000000;stroke-width:2.26813006px;stroke-linecap:butt;stroke-linejoin:miter;stroke-opacity:1" />
      <path
         inkscape:connector-curvature="0"
         id="path4048-7"
         d="m 216.80995,975.63807 181.0454,0"
         style="fill:none;stroke:#000000;stroke-width:2.26813006px;stroke-linecap:butt;stroke-linejoin:miter;stroke-opacity:1" />
    </g>
  </g>
</svg>
