<?xml version="1.0" encoding="UTF-8" standalone="no"?>
<!-- Created with Inkscape (http://www.inkscape.org/) -->

<svg
   xmlns:dc="http://purl.org/dc/elements/1.1/"
   xmlns:cc="http://creativecommons.org/ns#"
   xmlns:rdf="http://www.w3.org/1999/02/22-rdf-syntax-ns#"
   xmlns:svg="http://www.w3.org/2000/svg"
   xmlns="http://www.w3.org/2000/svg"
   xmlns:sodipodi="http://sodipodi.sourceforge.net/DTD/sodipodi-0.dtd"
   xmlns:inkscape="http://www.inkscape.org/namespaces/inkscape"
   width="512"
   height="512"
   id="svg2"
   version="1.1"
   inkscape:version="0.48.5 r10040"
   sodipodi:docname="network-workgroup.svg">
  <defs
     id="defs4" />
  <sodipodi:namedview
     id="base"
     pagecolor="#ffffff"
     bordercolor="#666666"
     borderopacity="1.0"
     inkscape:pageopacity="0.0"
     inkscape:pageshadow="2"
     inkscape:zoom="0.7"
     inkscape:cx="408.29145"
     inkscape:cy="120.13779"
     inkscape:document-units="px"
     inkscape:current-layer="layer1"
     showgrid="false"
     inkscape:window-width="1366"
     inkscape:window-height="716"
     inkscape:window-x="0"
     inkscape:window-y="0"
     inkscape:window-maximized="1" />
  <metadata
     id="metadata7">
    <rdf:RDF>
      <cc:Work
         rdf:about="">
        <dc:format>image/svg+xml</dc:format>
        <dc:type
           rdf:resource="http://purl.org/dc/dcmitype/StillImage" />
        <dc:title />
      </cc:Work>
    </rdf:RDF>
  </metadata>
  <g
     inkscape:label="Layer 1"
     inkscape:groupmode="layer"
     id="layer1"
     transform="translate(0,-540.36218)">
    <path
       style="fill:#ffb800;stroke:none"
       d="m 101.80608,553.25212 290.12324,0.21824 4.8742,2.18248 2.40071,4.65595 0,244.07306 27.42639,28.08115 0.21825,126.43787 -6.91116,4.72868 -318.27714,2.32798 z"
       id="path2996"
       inkscape:connector-curvature="0" />
    <path
       style="fill:#faec6d;stroke:none"
       d="m 101.80633,553.26299 110.70179,90.74256 0.41153,253.09145 -8.64215,13.16899 0.2058,127.78031 -6.99604,3.9095 -95.85137,-76.10605 z"
       id="path3766"
       inkscape:connector-curvature="0"
       sodipodi:nodetypes="cccccccc" />
    <path
       style="fill:none;stroke:#ffb800;stroke-width:2.30457258px;stroke-linecap:round;stroke-linejoin:miter;stroke-opacity:1"
       d="m 112.42744,959.9921 0.582,-380.62306"
       id="path3768"
       inkscape:connector-curvature="0" />
    <path
       style="fill:none;stroke:#ffb800;stroke-width:2.30457258px;stroke-linecap:round;stroke-linejoin:miter;stroke-opacity:1"
       d="m 120.13709,965.53087 0.582,-380.62308"
       id="path3768-3"
       inkscape:connector-curvature="0" />
    <path
       inkscape:connector-curvature="0"
       id="path3783"
       style="color:#000000;fill:none;stroke:#323232;stroke-width:12.55108260999999992;stroke-miterlimit:4;stroke-opacity:1;stroke-dasharray:none"
       d="m 278.97128,922.69822 a 128.33139,128.33139 0 1 1 181.48909,0" />
    <path
       inkscape:connector-curvature="0"
       id="path3785"
       style="color:#000000;fill:none;stroke:#646464;stroke-width:12.55108261000000169;stroke-miterlimit:4;stroke-opacity:1;stroke-dasharray:none"
       d="m 317.26282,884.39722 a 74.172646,74.172646 0 1 1 104.89659,1e-5" />
    <path
       inkscape:connector-curvature="0"
       id="path3781"
       style="color:#000000;fill:#5d6a7b;fill-opacity:1;stroke:none"
       d="m 405.03104,831.94821 a 35.320167,35.320167 0 0 1 -70.64033,0 35.320167,35.320167 0 1 1 70.64033,0 z" />
    <path
       inkscape:connector-curvature="0"
       id="rect3787"
       style="color:#000000;fill:#394050;fill-opacity:1;stroke:none"
       d="m 350.8738,890.22743 -6.56599,129.66967 49.79683,0 -5.55584,-129.66967 c -5.91969,2.98666 -12.28205,4.60904 -18.83749,4.60904 -6.55546,0 -12.91782,-1.62238 -18.83751,-4.60904 z"
       sodipodi:nodetypes="ccccsc" />
  </g>
</svg>
