<?xml version="1.0" encoding="UTF-8" standalone="no"?>
<!-- Created with Inkscape (http://www.inkscape.org/) -->

<svg
   xmlns:dc="http://purl.org/dc/elements/1.1/"
   xmlns:cc="http://creativecommons.org/ns#"
   xmlns:rdf="http://www.w3.org/1999/02/22-rdf-syntax-ns#"
   xmlns:svg="http://www.w3.org/2000/svg"
   xmlns="http://www.w3.org/2000/svg"
   xmlns:sodipodi="http://sodipodi.sourceforge.net/DTD/sodipodi-0.dtd"
   xmlns:inkscape="http://www.inkscape.org/namespaces/inkscape"
   id="svg2"
   version="1.1"
   inkscape:version="0.91 r13725"
   width="512"
   height="512"
   sodipodi:docname="nut.svg"
   viewBox="0 0 512 512">
  <metadata
     id="metadata8">
    <rdf:RDF>
      <cc:Work
         rdf:about="">
        <dc:format>image/svg+xml</dc:format>
        <dc:type
           rdf:resource="http://purl.org/dc/dcmitype/StillImage" />
        <dc:title />
      </cc:Work>
    </rdf:RDF>
  </metadata>
  <defs
     id="defs6" />
  <sodipodi:namedview
     pagecolor="#ffffff"
     bordercolor="#666666"
     borderopacity="1"
     objecttolerance="10"
     gridtolerance="10"
     guidetolerance="10"
     inkscape:pageopacity="0"
     inkscape:pageshadow="2"
     inkscape:window-width="1366"
     inkscape:window-height="715"
     id="namedview4"
     showgrid="false"
     inkscape:zoom="0.46093749"
     inkscape:cx="916.96174"
     inkscape:cy="59.947483"
     inkscape:window-x="0"
     inkscape:window-y="24"
     inkscape:window-maximized="1"
     inkscape:current-layer="svg2"
     inkscape:document-units="px" />
  <g
     id="g4157"
     transform="matrix(7.6993441,0,0,7.6993441,-2015.8678,-2174.055)">
    <path
       sodipodi:nodetypes="ccccczzzc"
       inkscape:connector-curvature="0"
       id="path3349"
       d="m 270.72104,304.26719 c 8.07508,-14.30633 19.27733,-14.96021 33.08475,-17.35594 4.24721,-0.79864 8.40678,-1.62711 8.40678,-1.62711 0,0 1.00072,3.22651 2.30508,6.23728 5.41432,9.17096 10.31584,24.03248 6.37289,33.89831 -2.75698,6.33512 -7.86872,10.8048 -14.37289,12.74576 -6.50417,1.94096 -15.24357,0.17849 -21.28813,-3.11864 -6.04456,-3.29713 -10.66699,-9.44336 -13.01695,-14.91526 -2.34996,-5.4719 -3.77135,-10.0716 -1.49153,-15.8644 z"
       style="fill:#d38d5f;fill-opacity:1;fill-rule:evenodd;stroke:none;stroke-width:1px;stroke-linecap:butt;stroke-linejoin:miter;stroke-opacity:1" />
    <path
       inkscape:connector-curvature="0"
       id="path4155"
       d="m 286.86963,332.70648 24.35324,-21.28511 -11.12196,-2.10934 9.97141,-20.32632 -26.27082,23.01093 10.16317,1.72582 z"
       style="fill:#ffffff;fill-rule:evenodd;stroke:none;stroke-width:1px;stroke-linecap:butt;stroke-linejoin:miter;stroke-opacity:1" />
    <path
       sodipodi:nodetypes="cccccccccccccc"
       inkscape:connector-curvature="0"
       id="path4151"
       d="m 279.82906,340.04054 c -12.36814,-10.39371 -11.84394,-24.13405 -9.08475,-39.18644 l 2.98305,13.69491 7.32204,-6.64407 -1.89831,14.50848 9.49153,-3.66102 0,12.33899 18.98305,-11.38984 -4.0678,13.28814 12.0678,-12.33898 -2.98305,10.30508 10.16949,-6.50847 c 0,0 -9.89038,13.42969 -14.50847,16.40678 -8.00255,4.90328 -21.26188,4.07709 -28.47458,-0.81356 z"
       style="fill:#ffcc00;fill-opacity:1;fill-rule:evenodd;stroke:none;stroke-width:1px;stroke-linecap:butt;stroke-linejoin:miter;stroke-opacity:1" />
    <path
       inkscape:connector-curvature="0"
       id="path4153"
       d="m 276.99411,344.59546 -2.87637,-3.54752 5.4651,-3.164 2.97224,1.8217 z"
       style="fill:#ffcc00;fill-opacity:1;fill-rule:evenodd;stroke:none;stroke-width:1px;stroke-linecap:butt;stroke-linejoin:miter;stroke-opacity:1" />
  </g>
</svg>
