<?xml version="1.0" encoding="UTF-8" standalone="no"?>
<!-- Created with Inkscape (http://www.inkscape.org/) -->

<svg
   xmlns:dc="http://purl.org/dc/elements/1.1/"
   xmlns:cc="http://creativecommons.org/ns#"
   xmlns:rdf="http://www.w3.org/1999/02/22-rdf-syntax-ns#"
   xmlns:svg="http://www.w3.org/2000/svg"
   xmlns="http://www.w3.org/2000/svg"
   xmlns:sodipodi="http://sodipodi.sourceforge.net/DTD/sodipodi-0.dtd"
   xmlns:inkscape="http://www.inkscape.org/namespaces/inkscape"
   id="svg2"
   version="1.1"
   inkscape:version="0.91 r13725"
   width="512"
   height="512"
   sodipodi:docname="ooo-printeradmin.svg">
  <metadata
     id="metadata8">
    <rdf:RDF>
      <cc:Work
         rdf:about="">
        <dc:format>image/svg+xml</dc:format>
        <dc:type
           rdf:resource="http://purl.org/dc/dcmitype/StillImage" />
        <dc:title />
      </cc:Work>
    </rdf:RDF>
  </metadata>
  <defs
     id="defs6" />
  <sodipodi:namedview
     pagecolor="#ffffff"
     bordercolor="#666666"
     borderopacity="1"
     objecttolerance="10"
     gridtolerance="10"
     guidetolerance="10"
     inkscape:pageopacity="0"
     inkscape:pageshadow="2"
     inkscape:window-width="1366"
     inkscape:window-height="708"
     id="namedview4"
     showgrid="false"
     inkscape:zoom="0.32593205"
     inkscape:cx="688.61574"
     inkscape:cy="302.54735"
     inkscape:window-x="0"
     inkscape:window-y="0"
     inkscape:window-maximized="1"
     inkscape:current-layer="svg2" />
  <g
     id="g4169">
    <rect
       y="268.77185"
       x="66.594528"
       height="96.2145"
       width="401.3519"
       id="rect2997"
       style="fill:#999999;fill-opacity:1;stroke:none" />
    <rect
       y="108.64327"
       x="108.51653"
       height="125.07886"
       width="313.3844"
       id="rect2997-3-6"
       style="fill:#5d6a7b;fill-opacity:1;stroke:none" />
    <path
       sodipodi:nodetypes="cccccc"
       inkscape:connector-curvature="0"
       id="path3841"
       d="m 133.27956,156.34083 0,-71.92158 61.23053,-49.567585 201.18607,-0.97191 0.9719,123.432975 z"
       style="fill:#e6e6e6;stroke:none" />
    <rect
       y="147.81628"
       x="65.907211"
       height="125.07886"
       width="401.3519"
       id="rect2997-3"
       style="fill:#666666;fill-opacity:1;stroke:none" />
    <rect
       y="329.93655"
       x="115.38902"
       height="153.94321"
       width="313.3844"
       id="rect2997-3-6-5"
       style="fill:#e6e6e6;fill-opacity:1;stroke:none" />
    <rect
       y="301.07236"
       x="115.38902"
       height="31.613338"
       width="313.3844"
       id="rect2997-3-6-7"
       style="fill:#5d6a7b;fill-opacity:1;stroke:none" />
    <path
       sodipodi:nodetypes="czczczczc"
       inkscape:connector-curvature="0"
       id="path4170"
       d="m 330.16333,273.8066 c 0,0 -32.67777,-22.61971 -78.00681,-20.6718 -45.32905,1.94792 -102.969,39.39345 -102.969,39.39345 0,0 35.97276,-59.16329 84.24735,-67.86594 48.27459,-8.70264 81.12708,-0.78007 81.12708,-0.78007 0,0 13.95096,-21.51042 45.24395,-35.8831 31.29302,-14.37268 109.20953,-12.48111 109.20953,-12.48111 0,0 -86.64999,26.81722 -108.42946,46.80409 -21.77947,19.98688 -30.42264,51.48448 -30.42264,51.48448 z"
       style="fill:#e6e6e6;fill-rule:evenodd;stroke:none;stroke-width:1px;stroke-linecap:butt;stroke-linejoin:miter;stroke-opacity:1" />
    <path
       sodipodi:open="true"
       sodipodi:end="6.2784904"
       sodipodi:start="0"
       d="m 442.22684,185.95857 a 15.66089,16.150291 0 0 1 -15.64251,16.15028 15.66089,16.150291 0 0 1 -15.67923,-16.11237 15.66089,16.150291 0 0 1 15.6057,-16.1881 15.66089,16.150291 0 0 1 15.71587,16.07437"
       sodipodi:ry="16.150291"
       sodipodi:rx="15.66089"
       sodipodi:cy="185.95857"
       sodipodi:cx="426.56595"
       id="path3053"
       style="fill:#8dd35f;fill-opacity:1;stroke:none"
       sodipodi:type="arc" />
    <path
       sodipodi:nodetypes="cccc"
       inkscape:connector-curvature="0"
       id="path3843"
       d="m 132.91509,84.78372 61.595,0 0.12132,-50.175025 z"
       style="fill:#cccccc;stroke:none" />
    <rect
       y="349.49554"
       x="135.0092"
       height="15.090812"
       width="274.84592"
       id="rect2997-3-6-7-3"
       style="fill:#cccccc;fill-opacity:1;stroke:none" />
    <rect
       y="423.84692"
       x="132.89647"
       height="15.090812"
       width="274.84592"
       id="rect2997-3-6-7-3-5"
       style="fill:#cccccc;fill-opacity:1;stroke:none" />
    <rect
       y="384.9704"
       x="132.89635"
       height="15.090812"
       width="274.84592"
       id="rect2997-3-6-7-3-6"
       style="fill:#cccccc;fill-opacity:1;stroke:none" />
    <path
       sodipodi:nodetypes="czczczczc"
       inkscape:connector-curvature="0"
       id="path4170-6"
       d="m 184.18206,223.44206 c 0,0 -21.7737,-15.07189 -51.97712,-13.77396 -30.2035,1.29793 -68.609878,26.24848 -68.609878,26.24848 0,0 23.96922,-39.42139 56.135318,-45.2201 32.16614,-5.79876 54.05626,-0.51977 54.05626,-0.51977 0,0 9.29572,-14.33278 30.14675,-23.90951 20.85104,-9.57669 72.76802,-8.31635 72.76802,-8.31635 0,0 -57.73624,17.86876 -72.24825,31.18629 -14.51197,13.31757 -20.2711,34.30492 -20.2711,34.30492 z"
       style="fill:#e6e6e6;fill-rule:evenodd;stroke:none;stroke-width:1px;stroke-linecap:butt;stroke-linejoin:miter;stroke-opacity:1" />
  </g>
</svg>
