<?xml version="1.0" encoding="UTF-8" standalone="no"?>
<!-- Created with Inkscape (http://www.inkscape.org/) -->

<svg
   xmlns:dc="http://purl.org/dc/elements/1.1/"
   xmlns:cc="http://creativecommons.org/ns#"
   xmlns:rdf="http://www.w3.org/1999/02/22-rdf-syntax-ns#"
   xmlns:svg="http://www.w3.org/2000/svg"
   xmlns="http://www.w3.org/2000/svg"
   xmlns:sodipodi="http://sodipodi.sourceforge.net/DTD/sodipodi-0.dtd"
   xmlns:inkscape="http://www.inkscape.org/namespaces/inkscape"
   id="svg2"
   version="1.1"
   inkscape:version="0.91 r13725"
   width="512"
   height="512"
   sodipodi:docname="openofficeorg-base.svg">
  <metadata
     id="metadata8">
    <rdf:RDF>
      <cc:Work
         rdf:about="">
        <dc:format>image/svg+xml</dc:format>
        <dc:type
           rdf:resource="http://purl.org/dc/dcmitype/StillImage" />
        <dc:title />
      </cc:Work>
    </rdf:RDF>
  </metadata>
  <defs
     id="defs6" />
  <sodipodi:namedview
     pagecolor="#ffffff"
     bordercolor="#666666"
     borderopacity="1"
     objecttolerance="10"
     gridtolerance="10"
     guidetolerance="10"
     inkscape:pageopacity="0"
     inkscape:pageshadow="2"
     inkscape:window-width="1149"
     inkscape:window-height="685"
     id="namedview4"
     showgrid="false"
     inkscape:zoom="0.4609375"
     inkscape:cx="177.05917"
     inkscape:cy="213.82402"
     inkscape:window-x="90"
     inkscape:window-y="23"
     inkscape:window-maximized="0"
     inkscape:current-layer="svg2" />
  <g
     id="g4187"
     transform="matrix(4.0679866,0,0,4.0679866,-903.19602,-968.39776)">
    <path
       sodipodi:nodetypes="cccczzccc"
       inkscape:connector-curvature="0"
       id="path4145"
       d="m 237.16428,255.27151 0.81356,99.25424 c 1.09053,3.57498 2.25332,3.96682 5.55453,5.12225 l 95.05564,0 c 0,0 -5.99459,-18.00719 -5.9661,-31.42734 0.0285,-13.42015 9.99391,-36.08122 10.0339,-49.08474 0.04,-13.00352 -5.42373,-28.47492 -5.42373,-28.47492 l -95.72881,0 c -2.8749,0.92188 -3.29358,1.9808 -4.33899,4.61051 z"
       style="fill:#aa0044;fill-rule:evenodd;stroke:none;stroke-width:1px;stroke-linecap:butt;stroke-linejoin:miter;stroke-opacity:1" />
    <path
       sodipodi:nodetypes="cccczzccc"
       inkscape:connector-curvature="0"
       id="path4145-3"
       d="m 237.08464,255.26544 0.81356,99.25424 c 1.09053,3.57498 2.25332,3.96682 5.55453,5.12225 l 27.8014,0 c 0,0 -5.99459,-18.00719 -5.9661,-31.42734 0.0285,-13.42015 9.99391,-36.08122 10.0339,-49.08474 0.04,-13.00352 -5.42373,-28.47492 -5.42373,-28.47492 l -28.47457,0 c -2.8749,0.92188 -3.29358,1.9808 -4.33899,4.61051 z"
       style="fill:#0088aa;fill-opacity:1;fill-rule:evenodd;stroke:none;stroke-width:1px;stroke-linecap:butt;stroke-linejoin:miter;stroke-opacity:1" />
    <path
       style="fill:#ffffff;fill-opacity:1"
       d="m 297.4865,349.35729 c -2.33722,-0.32877 -4.94846,-0.92646 -6.57445,-1.50483 -3.40163,-1.20996 -6.19065,-3.17879 -7.10647,-5.01662 -0.45494,-0.91294 -0.47241,-1.06822 -0.47241,-4.19936 0,-1.81824 0.0729,-3.25137 0.16527,-3.25137 0.0909,0 0.3773,0.36181 0.63645,0.80402 2.39351,4.08421 10.90924,6.79822 20.19999,6.43786 8.5973,-0.33347 15.41406,-2.92069 17.27638,-6.55704 0.24433,-0.4771 0.52133,-0.86746 0.61553,-0.86746 0.31042,0 0.41619,1.26166 0.33386,3.9826 -0.0737,2.43393 -0.12475,2.768 -0.5503,3.59665 -1.4852,2.89205 -5.76125,5.1282 -12.09342,6.32426 -2.64959,0.50046 -9.65266,0.64203 -12.43043,0.25129 z m 1.00442,-8.88057 c -5.64082,-0.56669 -10.86699,-2.49126 -13.33034,-4.90898 -1.6253,-1.5952 -1.72642,-1.917 -1.79328,-5.70699 -0.0385,-2.17962 0.006,-3.24157 0.13468,-3.24157 0.10552,0 0.39637,0.32398 0.64634,0.71995 1.58655,2.51327 5.72262,4.6169 11.12848,5.66002 10.7782,2.07978 23.39009,-0.69004 26.25483,-5.76606 0.30393,-0.53854 0.6219,-0.97916 0.7066,-0.97916 0.27808,0 0.40692,1.6358 0.32322,4.10367 -0.0738,2.17663 -0.13346,2.53104 -0.57921,3.44212 -2.29862,4.69821 -12.9768,7.7333 -23.49132,6.677 z m 0.54788,-8.94758 c -7.23669,-0.63931 -13.39503,-3.33698 -15.11782,-6.62239 -0.46074,-0.87865 -0.49454,-1.10999 -0.55504,-3.79986 -0.0787,-3.50081 0.0386,-3.83491 0.88407,-2.51734 1.53774,2.39635 5.1542,4.23809 10.39109,5.2918 11.49066,2.31205 24.34463,-0.52381 27.11628,-5.98244 0.16574,-0.32644 0.36865,-0.59353 0.45089,-0.59353 0.23235,0 0.4001,4.92738 0.20794,6.10807 -0.87329,5.36564 -11.75297,9.14264 -23.37741,8.11569 z m 0.89366,-8.94632 c -7.529,-0.4787 -14.3957,-3.4106 -15.98595,-6.82558 -2.17897,-4.67922 4.40065,-9.24797 14.88794,-10.33788 2.9518,-0.30676 8.67357,-0.12356 11.2651,0.36071 3.04355,0.56873 5.06586,1.20572 7.33462,2.31029 3.32432,1.61847 4.98044,3.55008 4.98044,5.8089 0,5.38623 -10.50805,9.44487 -22.48215,8.68356 z"
       id="path3026"
       inkscape:connector-curvature="0" />
    <path
       sodipodi:nodetypes="czczczczc"
       inkscape:connector-curvature="0"
       id="path4170"
       d="m 270.37846,287.25989 c 0,0 -8.03291,-5.56042 -19.17578,-5.08158 -11.14287,0.47884 -25.31203,9.68377 -25.31203,9.68377 0,0 8.84289,-14.54363 20.70984,-16.68293 11.86695,-2.1393 19.94281,-0.19176 19.94281,-0.19176 0,0 3.42945,-5.28773 11.12195,-8.82085 7.69251,-3.53312 26.84609,-3.06813 26.84609,-3.06813 0,0 -21.30046,6.59226 -26.65433,11.50547 -5.35387,4.91321 -7.47855,12.65601 -7.47855,12.65601 z"
       style="fill:#e6e6e6;fill-rule:evenodd;stroke:none;stroke-width:1px;stroke-linecap:butt;stroke-linejoin:miter;stroke-opacity:1" />
    <path
       sodipodi:nodetypes="czczczczc"
       inkscape:connector-curvature="0"
       id="path4170-6"
       d="m 271.44946,257.53231 c 0,0 -5.35245,-3.705 -12.77711,-3.38594 -7.42468,0.31906 -16.86581,6.45245 -16.86581,6.45245 0,0 5.89216,-9.69064 13.79929,-11.11609 7.90714,-1.42546 13.28821,-0.12777 13.28821,-0.12777 0,0 2.28509,-3.52331 7.41073,-5.87748 5.12564,-2.35416 17.88797,-2.04434 17.88797,-2.04434 0,0 -14.19283,4.39253 -17.7602,7.66627 -3.56736,3.27375 -4.98308,8.4329 -4.98308,8.4329 z"
       style="fill:#e6e6e6;fill-rule:evenodd;stroke:none;stroke-width:1px;stroke-linecap:butt;stroke-linejoin:miter;stroke-opacity:1" />
  </g>
</svg>
