<?xml version="1.0" encoding="UTF-8" standalone="no"?>
<!-- Generator: Adobe Illustrator 19.0.0, SVG Export Plug-In . SVG Version: 6.00 Build 0)  -->

<svg
   xmlns:dc="http://purl.org/dc/elements/1.1/"
   xmlns:cc="http://creativecommons.org/ns#"
   xmlns:rdf="http://www.w3.org/1999/02/22-rdf-syntax-ns#"
   xmlns:svg="http://www.w3.org/2000/svg"
   xmlns="http://www.w3.org/2000/svg"
   xmlns:sodipodi="http://sodipodi.sourceforge.net/DTD/sodipodi-0.dtd"
   xmlns:inkscape="http://www.inkscape.org/namespaces/inkscape"
   version="1.1"
   id="Capa_1"
   x="0px"
   y="0px"
   viewBox="0 0 500 500"
   xml:space="preserve"
   inkscape:version="0.48.5 r10040"
   width="100%"
   height="100%"
   sodipodi:docname="chess.svg"><metadata
     id="metadata69"><rdf:RDF><cc:Work
         rdf:about=""><dc:format>image/svg+xml</dc:format><dc:type
           rdf:resource="http://purl.org/dc/dcmitype/StillImage" /></cc:Work></rdf:RDF></metadata><defs
     id="defs67" /><sodipodi:namedview
     pagecolor="#ffffff"
     bordercolor="#666666"
     borderopacity="1"
     objecttolerance="10"
     gridtolerance="10"
     guidetolerance="10"
     inkscape:pageopacity="0"
     inkscape:pageshadow="2"
     inkscape:window-width="1366"
     inkscape:window-height="716"
     id="namedview65"
     showgrid="false"
     inkscape:zoom="0.73191755"
     inkscape:cx="538.86981"
     inkscape:cy="329.91285"
     inkscape:window-x="0"
     inkscape:window-y="0"
     inkscape:window-maximized="1"
     inkscape:current-layer="Capa_1" /><g
     id="g3054"
     transform="matrix(1.1146419,0,0,1.1146419,54.751936,-127.1915)"><polygon
       transform="matrix(6.7307692,0,0,6.7307692,-14.326923,116.34615)"
       id="polygon3"
       points="19.5,25 9.5,25 8.682,34 20.318,34 "
       style="fill:#333333" /><polygon
       transform="matrix(6.7307692,0,0,6.7307692,-14.326923,116.34615)"
       id="polygon5"
       points="7.5,47 21.5,47 20.864,40 8.136,40 "
       style="fill:#333333" /><polygon
       transform="matrix(6.7307692,0,0,6.7307692,-14.326923,116.34615)"
       id="polygon7"
       points="8.5,36 8.318,38 20.682,38 20.5,36 "
       style="fill:#394050" /><polygon
       transform="matrix(6.7307692,0,0,6.7307692,-14.326923,116.34615)"
       id="polygon9"
       points="8.136,40 20.864,40 20.682,38 8.318,38 "
       style="fill:#5d6a7b" /><polygon
       transform="matrix(6.7307692,0,0,6.7307692,-14.326923,116.34615)"
       id="polygon11"
       points="20.318,34 8.682,34 8.5,36 20.5,36 "
       style="fill:#5d6a7b" /><path
       sodipodi:nodetypes="csczcccczc"
       inkscape:connector-curvature="0"
       id="path15"
       d="m 114.41923,136.53846 c 0,0 -0.7439,26.4878 -32.026776,27.02599 -31.198513,0.53678 -30.273223,-27.02599 -30.273223,-27.02599 0,0 -9.603455,8.06185 -9.234616,19.63614 0.36884,11.57437 11.276145,15.4387 19.785898,20.9267 l 0.40641,13.28332 40.384617,0 -0.40641,-13.28332 c 8.53154,-3.98629 19.41135,-9.58656 19.78589,-19.1917 0.37454,-9.60515 -0.0733,-15.47216 -8.42179,-21.37114 z"
       style="fill:#394050" /><path
       inkscape:connector-curvature="0"
       id="path17"
       d="M 123.65385,250.96154 H 42.884615 L 32.135577,202.5875 c -1.393269,-6.26635 3.372115,-12.20288 9.786538,-12.20288 h 82.694235 c 6.41442,0 11.1798,5.93653 9.78653,12.20288 l -10.74903,48.37404 z"
       style="fill:#333333" /><path
       inkscape:connector-curvature="0"
       id="path27"
       d="M 127.01923,284.61538 H 39.519231 c -9.295193,0 -16.826923,-7.53173 -16.826923,-16.82692 v 0 c 0,-9.29519 7.53173,-16.82692 16.826923,-16.82692 h 87.499999 c 9.29519,0 16.82692,7.53173 16.82692,16.82692 v 0 c 0,9.29519 -7.53173,16.82692 -16.82692,16.82692 z"
       style="fill:#394050" /><path
       inkscape:connector-curvature="0"
       id="path29"
       d="M 123.65385,473.07692 H 42.884615 c -11.152885,0 -20.192307,-9.03942 -20.192307,-20.1923 v 0 c 0,-11.15289 9.039422,-20.19231 20.192307,-20.19231 h 80.769235 c 11.15288,0 20.1923,9.03942 20.1923,20.19231 v 0 c 0,11.15288 -9.03942,20.1923 -20.1923,20.1923 z"
       style="fill:#394050" /><path
       inkscape:connector-curvature="0"
       id="path31"
       d="M 150.57692,500 H 15.961538 C 8.5240385,500 2.5,493.97596 2.5,486.53846 v 0 c 0,-7.4375 6.0240385,-13.46154 13.461538,-13.46154 H 150.57692 c 7.4375,0 13.46154,6.02404 13.46154,13.46154 v 0 c 0,7.4375 -6.02404,13.46154 -13.46154,13.46154 z"
       style="fill:#333333" /></g><path
     style="fill:#666666"
     d="m 330.0134,424.56544 -1.86052,-90.00956 c -0.17054,-8.25087 6.44063,-15.14112 14.69151,-15.31167 v 0 c 8.25088,-0.17054 15.14113,6.44063 15.31168,14.6915 l 1.86052,90.00955 c 0.17055,8.25087 -6.44063,15.14112 -14.69151,15.31167 v 0 c -8.25087,0.17055 -15.14113,-6.44062 -15.31168,-14.69149 z"
     id="path13"
     inkscape:connector-curvature="0" /><polygon
     style="fill:#666666"
     points="46.5,25 48.5,47 34.5,47 36.5,25 "
     id="polygon19"
     transform="matrix(0.15504347,7.5007954,-7.5007954,0.15504347,472.66476,65.176778)" /><path
     style="fill:#5d6a7b"
     d="m 82.487159,429.68187 -1.860522,-90.00955 c -0.256907,-12.42882 9.608435,-22.7106 22.037253,-22.96751 v 0 c 12.42882,-0.25691 22.71061,9.60843 22.96751,22.03725 l 1.86053,90.00955 c 0.2569,12.42881 -9.60844,22.7106 -22.03726,22.96751 v 0 c -12.428816,0.25691 -22.710604,-9.60843 -22.967511,-22.03725 z"
     id="path21"
     inkscape:connector-curvature="0" /><path
     style="fill:#666666"
     d="m 53.104148,460.30523 -3.10087,-150.01592 c -0.171323,-8.28838 6.403127,-15.14035 14.691506,-15.31167 v 0 c 8.288379,-0.17133 15.140356,6.40311 15.311679,14.69149 l 3.10087,150.01593 c 0.171323,8.28838 -6.403127,15.14034 -14.691506,15.31167 v 0 c -8.288379,0.17132 -15.140356,-6.40312 -15.311679,-14.6915 z"
     id="path23"
     inkscape:connector-curvature="0" /><path
     style="fill:#5d6a7b"
     d="m 292.58696,429.09105 -2.01557,-97.51034 c -0.21411,-10.3586 8.00578,-18.92548 18.36438,-19.1396 v 0 c 10.35859,-0.21411 18.92548,8.00577 19.13959,18.36438 l 2.01557,97.51034 c 0.21411,10.35861 -8.00578,18.92548 -18.36438,19.13959 v 0 c -10.3586,0.21412 -18.92548,-8.00576 -19.13959,-18.36437 z"
     id="path25"
     inkscape:connector-curvature="0" /><path
     style="fill:#5d6a7b"
     d="m 442.99047,444.74216 -36.00237,-20.6047 c -1.22251,-0.69511 -1.98457,-1.98505 -2.01357,-3.38771 l -0.47257,-22.86241 c -0.0521,-2.52027 2.21893,-4.46572 4.70442,-4.02184 l 32.85383,5.87189 -0.93026,-45.00477 -32.58328,7.21699 c -2.46503,0.54622 -4.81434,-1.29623 -4.86644,-3.81649 l -0.47257,-22.86242 c -0.029,-1.40266 0.67911,-2.72299 1.87185,-3.46802 l 35.12018,-22.07483 -0.62018,-30.00318 -81.73353,39.20946 2.4807,120.01272 83.28396,35.7985 -0.62017,-30.00319 z"
     id="path33"
     inkscape:connector-curvature="0" /><g
     id="g35"
     transform="translate(0,443)" /><g
     id="g37"
     transform="translate(0,443)" /><g
     id="g39"
     transform="translate(0,443)" /><g
     id="g41"
     transform="translate(0,443)" /><g
     id="g43"
     transform="translate(0,443)" /><g
     id="g45"
     transform="translate(0,443)" /><g
     id="g47"
     transform="translate(0,443)" /><g
     id="g49"
     transform="translate(0,443)" /><g
     id="g51"
     transform="translate(0,443)" /><g
     id="g53"
     transform="translate(0,443)" /><g
     id="g55"
     transform="translate(0,443)" /><g
     id="g57"
     transform="translate(0,443)" /><g
     id="g59"
     transform="translate(0,443)" /><g
     id="g61"
     transform="translate(0,443)" /><g
     id="g63"
     transform="translate(0,443)" /></svg>