<?xml version="1.0" encoding="UTF-8" standalone="no"?>
<!-- Generator: flash2svg, http://dissentgraphics.com/tools/flash2svg -->

<svg
   xmlns:dc="http://purl.org/dc/elements/1.1/"
   xmlns:cc="http://creativecommons.org/ns#"
   xmlns:rdf="http://www.w3.org/1999/02/22-rdf-syntax-ns#"
   xmlns:svg="http://www.w3.org/2000/svg"
   xmlns="http://www.w3.org/2000/svg"
   xmlns:sodipodi="http://sodipodi.sourceforge.net/DTD/sodipodi-0.dtd"
   xmlns:inkscape="http://www.inkscape.org/namespaces/inkscape"
   id="Imovie"
   image-rendering="optimizeSpeed"
   version="1.1"
   x="0px"
   y="0px"
   width="500"
   height="500"
   viewBox="0 0 500 500"
   enable-background="new 0 0 1024 1024"
   inkscape:version="0.48.5 r10040"
   sodipodi:docname="pitivi.svg">
  <metadata
     id="metadata77">
    <rdf:RDF>
      <cc:Work
         rdf:about="">
        <dc:format>image/svg+xml</dc:format>
        <dc:type
           rdf:resource="http://purl.org/dc/dcmitype/StillImage" />
      </cc:Work>
    </rdf:RDF>
  </metadata>
  <sodipodi:namedview
     pagecolor="#ffffff"
     bordercolor="#666666"
     borderopacity="1"
     objecttolerance="10"
     gridtolerance="10"
     guidetolerance="10"
     inkscape:pageopacity="0"
     inkscape:pageshadow="2"
     inkscape:window-width="1366"
     inkscape:window-height="716"
     id="namedview75"
     showgrid="false"
     inkscape:zoom="0.23046875"
     inkscape:cx="512"
     inkscape:cy="512"
     inkscape:window-x="0"
     inkscape:window-y="0"
     inkscape:window-maximized="1"
     inkscape:current-layer="Imovie" />
  <defs
     transform="matrix(1 0 0 1 0 0) "
     id="defs3" />
  <g
     id="ico"
     transform="matrix(0.68092832,0,0,0.68092832,-90.65487,-85.993681)">
    <g
       id="Symbole.__203_1"
       overflow="visible"
       style="overflow:visible">
      <g
         id="Calque.__204">
        <g
           id="shape32">
          <path
             id="path31"
             d="m 623.9,548.4 c -3.8,-8.5 -13.4,-13.55 -23,-11.4 l -121.1,26.9 c -11,2.45 -17.95,13.35 -15.5,24.35 l 5.55,24.9 -69.7,-21.5 20.55,92.45 56.25,-38.9 3.3,14.85 c 2.4,11.05 13.35,18 24.35,15.55 l 121.1,-26.9 q 8.25,-1.85 12.8,-8.95 4.55,-7.15 2.7,-15.45 l -14.45,-65.15 19.8,2.65 -5.7,-25.65 -16.95,12.25 z"
             inkscape:connector-curvature="0"
             style="fill:#000000;fill-opacity:0.2" />
        </g>
        <g
           id="group4">
          <g
             id="drawingObject25">
            <path
               id="path32"
               d="m 654,185.6 c -2.4,-3.25 -6.5,-4.7 -10.3,-3.8 l 10.3,3.8 -10.3,-3.8 c 3.8,-0.9 7.9,0.55 10.3,3.8 z"
               inkscape:connector-curvature="0"
               style="fill:#757777;fill-opacity:1" />
          </g>
          <g
             id="drawingObject26">
            <path
               id="path33"
               d="m 236.8,486.9 c 1.75,0 3.45,-0.45 5,-1.35 l 76.75,-44.3 -76.35,-28.35 -31.75,18.35 c -4.8,2.75 -6.45,8.85 -3.65,13.65 l 21.35,37 c 1.3,2.3 3.5,3.95 6.05,4.65 0.85,0.2 1.7,0.35 2.6,0.35 z"
               inkscape:connector-curvature="0"
               style="fill:#1d1d1b;fill-opacity:1" />
          </g>
          <g
             id="drawingObject27">
            <path
               id="path34"
               d="m 530.75,246.45 76.4,28.3 55.45,-32 -76.4,-28.3 -55.45,32 z"
               inkscape:connector-curvature="0"
               style="fill:#1d1d1b;fill-opacity:1" />
          </g>
          <g
             id="drawingObject28">
            <path
               id="path35"
               d="m 434.2,374.55 -76.4,-28.35 -58.65,33.85 76.35,28.35 58.7,-33.85 z"
               inkscape:connector-curvature="0"
               style="fill:#1d1d1b;fill-opacity:1" />
          </g>
          <g
             id="drawingObject29">
            <path
               id="path36"
               d="m 550.2,307.6 -76.4,-28.3 -59.05,34.05 76.4,28.35 59.05,-34.1 z"
               inkscape:connector-curvature="0"
               style="fill:#1d1d1b;fill-opacity:1" />
          </g>
          <g
             id="drawingObject30">
            <path
               id="path37"
               d="M 299.15,380.05 242.2,412.9 318.55,441.25 375.5,408.4 299.15,380.05 z"
               inkscape:connector-curvature="0"
               style="fill:#757777;fill-opacity:1" />
          </g>
          <g
             id="drawingObject31">
            <path
               id="path38"
               d="m 643.7,181.8 c -0.95,0.2 -1.85,0.55 -2.75,1.05 l -54.75,31.6 76.4,28.3 9.7,-5.55 c 2.3,-1.35 3.95,-3.5 4.65,-6.1 0.7,-2.55 0.3,-5.25 -1,-7.55 L 654,185.6 643.7,181.8 z"
               inkscape:connector-curvature="0"
               style="fill:#757777;fill-opacity:1" />
          </g>
          <g
             id="drawingObject32">
            <path
               id="path39"
               d="m 473.8,279.3 76.4,28.3 56.95,-32.85 -76.4,-28.3 -56.95,32.85 z"
               inkscape:connector-curvature="0"
               style="fill:#757777;fill-opacity:1" />
          </g>
          <g
             id="drawingObject33">
            <path
               id="path40"
               d="m 357.8,346.2 76.4,28.35 56.95,-32.85 -76.4,-28.35 -56.95,32.85 z"
               inkscape:connector-curvature="0"
               style="fill:#757777;fill-opacity:1" />
          </g>
        </g>
        <g
           id="group5">
          <g
             id="drawingObject34">
            <path
               id="path41"
               d="m 558.7,398.1 -61.45,14.95 -19.05,51.7 61.45,-15 19.05,-51.65 z"
               inkscape:connector-curvature="0"
               style="fill:#1d1d1b;fill-opacity:1" />
          </g>
          <g
             id="drawingObject35">
            <path
               id="path42"
               d="m 661.3,420.1 18.55,-51.55 -61.85,15.1 -19.05,51.7 62.35,-15.25 z"
               inkscape:connector-curvature="0"
               style="fill:#1d1d1b;fill-opacity:1" />
          </g>
          <g
             id="drawingObject36">
            <path
               id="path43"
               d="M 418.95,479.2 438,427.5 380.25,441.6 361.2,493.25 418.95,479.2 z"
               inkscape:connector-curvature="0"
               style="fill:#1d1d1b;fill-opacity:1" />
          </g>
          <g
             id="drawingObject37">
            <path
               id="path44"
               d="m 438,427.5 -19.05,51.7 59.25,-14.45 19.05,-51.7 L 438,427.5 z"
               inkscape:connector-curvature="0"
               style="fill:#757777;fill-opacity:1" />
          </g>
          <g
             id="drawingObject38">
            <path
               id="path45"
               d="m 618,383.65 -59.3,14.45 -19.05,51.65 59.3,-14.4 19.05,-51.7 z"
               inkscape:connector-curvature="0"
               style="fill:#757777;fill-opacity:1" />
          </g>
          <g
             id="drawingObject39">
            <path
               id="path46"
               d="M 752.8,691.8 685.15,414.3 298.85,508.45 366.5,785.95 752.8,691.8 z"
               inkscape:connector-curvature="0"
               style="fill:#757777;fill-opacity:1" />
          </g>
        </g>
        <g
           id="group6">
          <g
             id="drawingObject40">
            <path
               id="path47"
               d="m 380.25,441.6 -62.9,15.3 -18.35,51.55 62.2,-15.2 19.05,-51.65 z"
               inkscape:connector-curvature="0"
               style="fill:#757777;fill-opacity:1" />
          </g>
        </g>
        <g
           id="group7">
          <g
             id="drawingObject41">
            <path
               id="path48"
               d="m 685.15,414.3 0.05,0.15 35,-8.5 14.5,-40.35 0,-0.1 q -1,-4 -4.5,-6.2 c -2.3,-1.35 -5,-1.8 -7.6,-1.15 l -42.75,10.4 -18.55,51.55 23.85,-5.8 z"
               inkscape:connector-curvature="0"
               style="fill:#757777;fill-opacity:1" />
          </g>
          <g
             id="drawingObject42">
            <path
               id="path49"
               d="m 731.7,413.45 4.05,-11.25 -15.55,3.75 -4.05,11.3 15.55,-3.8 z"
               inkscape:connector-curvature="0"
               style="fill:#1d1d1b;fill-opacity:1" />
          </g>
          <g
             id="drawingObject43">
            <path
               id="path50"
               d="m 734.7,365.6 -14.5,40.35 -35,8.5 67.6,277.35 -386.3,94.15 -67.55,-277.15 -0.1,0.05 0.05,-0.15 -0.05,-0.25 0.15,0 18.35,-51.55 -77.6,18.95 c -2.55,0.6 -4.8,2.25 -6.15,4.5 -1.4,2.25 -1.8,5 -1.2,7.55 l 84.55,346.85 c 0.65,2.6 2.25,4.8 4.5,6.2 1.6,0.95 3.4,1.45 5.2,1.45 0.8,0 1.6,-0.1 2.4,-0.3 L 811.9,724.4 c 5.35,-1.3 8.65,-6.7 7.35,-12.05 L 734.7,365.6 z"
               inkscape:connector-curvature="0"
               style="fill:#1d1d1b;fill-opacity:1" />
          </g>
        </g>
        <g
           id="drawingObject44">
          <path
             id="path51"
             d="m 261.85,474.55 c 0,-6.25 -5.05,-11.35 -11.35,-11.35 -6.25,0 -11.3,5.1 -11.3,11.35 0,6.25 5.05,11.35 11.3,11.35 q 4.7,0 8.05,-3.35 3.3,-3.3 3.3,-8 z"
             inkscape:connector-curvature="0"
             style="fill:#797a7a;fill-opacity:1" />
        </g>
        <g
           id="FlashAICB.__2Fimovie.__2F.__3CPath.__3E_3_2"
           overflow="visible"
           style="overflow:visible">
          <g
             id="Calque.__205">
            <g
               id="drawingObject45">
              <path
                 id="path52"
                 d="m 731.7,414.45 0,-11.5 -448.7,109.35 8.65,7 440.05,-104.85 z"
                 inkscape:connector-curvature="0"
                 style="fill:#1d1d1b;fill-opacity:0.3" />
            </g>
          </g>
        </g>
        <g
           id="drawingObject46">
          <path
             id="path53"
             d="M 615.25,542.55 C 612.8,531.5 601.9,524.55 590.9,527 l -121.1,26.9 c -11,2.45 -17.95,13.35 -15.5,24.35 l 15.95,71.8 c 2.4,11.05 13.35,18 24.35,15.55 l 121.1,-26.9 q 8.25,-1.85 12.8,-8.95 4.55,-7.15 2.7,-15.45 l -15.95,-71.75 z"
             inkscape:connector-curvature="0"
             style="fill:#1d1d1b;fill-opacity:1" />
        </g>
        <g
           id="drawingObject47">
          <path
             id="path54"
             d="m 463.5,604.25 -73.35,-22.6 20.55,92.45 61.75,-42.75 -8.95,-27.1 z"
             inkscape:connector-curvature="0"
             style="fill:#1d1d1b;fill-opacity:1" />
          <path
             id="path55"
             d="m 463.5,604.25 -73.35,-22.6 20.55,92.45 61.75,-42.75 -8.95,-27.1 z"
             inkscape:connector-curvature="0"
             style="fill:none;stroke:#1d1d1b;stroke-width:14.39999962;stroke-linecap:round;stroke-linejoin:round;stroke-opacity:1" />
        </g>
        <g
           id="drawingObject48">
          <path
             id="path56"
             d="m 609.2,541.75 1.45,6.6 25.9,3.45 -5.7,-25.65 -21.65,15.6 z"
             inkscape:connector-curvature="0"
             style="fill:#1d1d1b;fill-opacity:1" />
          <path
             id="path57"
             d="m 609.2,541.75 1.45,6.6 25.9,3.45 -5.7,-25.65 -21.65,15.6 z"
             inkscape:connector-curvature="0"
             style="fill:none;stroke:#1d1d1b;stroke-width:14.39999962;stroke-linecap:round;stroke-linejoin:round;stroke-opacity:1" />
        </g>
      </g>
    </g>
  </g>
</svg>
