<?xml version="1.0" encoding="UTF-8" standalone="no"?>
<!-- Generator: Adobe Illustrator 19.0.0, SVG Export Plug-In . SVG Version: 6.00 Build 0)  -->

<svg
   xmlns:dc="http://purl.org/dc/elements/1.1/"
   xmlns:cc="http://creativecommons.org/ns#"
   xmlns:rdf="http://www.w3.org/1999/02/22-rdf-syntax-ns#"
   xmlns:svg="http://www.w3.org/2000/svg"
   xmlns="http://www.w3.org/2000/svg"
   xmlns:sodipodi="http://sodipodi.sourceforge.net/DTD/sodipodi-0.dtd"
   xmlns:inkscape="http://www.inkscape.org/namespaces/inkscape"
   version="1.1"
   id="Layer_1"
   x="0px"
   y="0px"
   viewBox="0 0 500 500"
   xml:space="preserve"
   inkscape:version="0.91 r13725"
   width="100%"
   height="100%"
   sodipodi:docname="pspp.svg"><metadata
     id="metadata57"><rdf:RDF><cc:Work
         rdf:about=""><dc:format>image/svg+xml</dc:format><dc:type
           rdf:resource="http://purl.org/dc/dcmitype/StillImage" /></cc:Work></rdf:RDF></metadata><defs
     id="defs55" /><sodipodi:namedview
     pagecolor="#ffffff"
     bordercolor="#666666"
     borderopacity="1"
     objecttolerance="10"
     gridtolerance="10"
     guidetolerance="10"
     inkscape:pageopacity="0"
     inkscape:pageshadow="2"
     inkscape:window-width="1366"
     inkscape:window-height="715"
     id="namedview53"
     showgrid="false"
     inkscape:zoom="0.52559509"
     inkscape:cx="816.91331"
     inkscape:cy="258.51215"
     inkscape:window-x="0"
     inkscape:window-y="24"
     inkscape:window-maximized="1"
     inkscape:current-layer="Layer_1" /><g
     id="g23"
     transform="translate(0,39.767)" /><g
     id="g25"
     transform="translate(0,39.767)" /><g
     id="g27"
     transform="translate(0,39.767)" /><g
     id="g29"
     transform="translate(0,39.767)" /><g
     id="g31"
     transform="translate(0,39.767)" /><g
     id="g33"
     transform="translate(0,39.767)" /><g
     id="g35"
     transform="translate(0,39.767)" /><g
     id="g37"
     transform="translate(0,39.767)" /><g
     id="g39"
     transform="translate(0,39.767)" /><g
     id="g41"
     transform="translate(0,39.767)" /><g
     id="g43"
     transform="translate(0,39.767)" /><g
     id="g45"
     transform="translate(0,39.767)" /><g
     id="g47"
     transform="translate(0,39.767)" /><g
     id="g49"
     transform="translate(0,39.767)" /><g
     id="g51"
     transform="translate(0,39.767)" /><g
     id="g4240"
     transform="translate(-30.441684,30.441685)"><path
       inkscape:connector-curvature="0"
       id="path3371"
       d="M 370.41511,411.92566 A 225,225 0 0 1 72.234315,307.03251 225,225 0 0 1 173.18487,7.4939577"
       style="fill:#00bbf2;fill-opacity:1;stroke:none;stroke-width:10;stroke-linecap:round;stroke-miterlimit:4;stroke-dasharray:none;stroke-opacity:1" /><path
       inkscape:connector-curvature="0"
       id="path3388"
       d="M 269.65217,434.53036 A 225,225 0 0 1 49.168758,208.03218 225,225 0 0 1 272.73872,-15.419899"
       inkscape:transform-center-y="1.2119498"
       inkscape:transform-center-x="110.87622"
       style="fill:#00bbf2;fill-opacity:1;stroke:none;stroke-width:10;stroke-linecap:round;stroke-miterlimit:4;stroke-dasharray:none;stroke-opacity:1" /><path
       inkscape:connector-curvature="0"
       id="path3388-6"
       d="M 281.16175,-14.986297 A 225,225 0 0 1 478.69167,104.94862 225,225 0 0 1 466.34013,335.70801 L 279.72611,210.00913 Z"
       inkscape:transform-center-y="-107.01822"
       inkscape:transform-center-x="-24.857908"
       style="fill:#b3b3b3;fill-opacity:1;stroke:none;stroke-width:10;stroke-linecap:round;stroke-miterlimit:4;stroke-dasharray:none;stroke-opacity:1" /><path
       sodipodi:nodetypes="cczcc"
       inkscape:connector-curvature="0"
       id="path3438"
       d="m 310.54472,249.34377 187.67564,126.46244 c 0,0 -13.80046,22.03965 -41.03302,46.4144 -27.23256,24.37475 -48.43243,30.94294 -48.43243,30.94294 z"
       style="fill:#00bbf2;fill-opacity:1;fill-rule:evenodd;stroke:none;stroke-width:1px;stroke-linecap:butt;stroke-linejoin:miter;stroke-opacity:1" /></g></svg>