<?xml version="1.0" encoding="UTF-8" standalone="no"?>
<!-- Created with Inkscape (http://www.inkscape.org/) -->

<svg
   xmlns:dc="http://purl.org/dc/elements/1.1/"
   xmlns:cc="http://creativecommons.org/ns#"
   xmlns:rdf="http://www.w3.org/1999/02/22-rdf-syntax-ns#"
   xmlns:svg="http://www.w3.org/2000/svg"
   xmlns="http://www.w3.org/2000/svg"
   xmlns:sodipodi="http://sodipodi.sourceforge.net/DTD/sodipodi-0.dtd"
   xmlns:inkscape="http://www.inkscape.org/namespaces/inkscape"
   width="500"
   height="500"
   id="svg2"
   version="1.1"
   inkscape:version="0.91 r13725"
   sodipodi:docname="pyroom.svg">
  <defs
     id="defs4" />
  <sodipodi:namedview
     id="base"
     pagecolor="#ffffff"
     bordercolor="#666666"
     borderopacity="1.0"
     inkscape:pageopacity="0.0"
     inkscape:pageshadow="2"
     inkscape:zoom="0.42897809"
     inkscape:cx="391.08037"
     inkscape:cy="297.59319"
     inkscape:document-units="px"
     inkscape:current-layer="layer1"
     showgrid="false"
     inkscape:window-width="1366"
     inkscape:window-height="715"
     inkscape:window-x="0"
     inkscape:window-y="24"
     inkscape:window-maximized="1" />
  <metadata
     id="metadata7">
    <rdf:RDF>
      <cc:Work
         rdf:about="">
        <dc:format>image/svg+xml</dc:format>
        <dc:type
           rdf:resource="http://purl.org/dc/dcmitype/StillImage" />
        <dc:title />
      </cc:Work>
    </rdf:RDF>
  </metadata>
  <g
     inkscape:label="Layer 1"
     inkscape:groupmode="layer"
     id="layer1"
     transform="translate(0,-552.36218)">
    <g
       id="g4153">
      <path
         sodipodi:open="true"
         sodipodi:end="6.2784904"
         sodipodi:start="0"
         d="M 475,802.36218 A 225,225 0 0 1 250.26409,1027.362 225,225 0 0 1 25.00062,802.89036 225,225 0 0 1 249.20774,577.36358 225,225 0 0 1 474.99752,801.30583"
         sodipodi:ry="225"
         sodipodi:rx="225"
         sodipodi:cy="802.36218"
         sodipodi:cx="250"
         id="path2996"
         style="fill:#394050;fill-opacity:1;stroke:none"
         sodipodi:type="arc" />
      <path
         sodipodi:open="true"
         sodipodi:end="6.2784904"
         sodipodi:start="0"
         d="M 428.68993,803.61499 A 178.57718,178.57716 0 0 1 250.32235,982.19203 178.57718,178.57716 0 0 1 71.53606,804.03419 178.57718,178.57716 0 0 1 249.48395,625.03893 178.57718,178.57716 0 0 1 428.68796,802.77659"
         sodipodi:ry="178.57716"
         sodipodi:rx="178.57718"
         sodipodi:cy="803.61499"
         sodipodi:cx="250.11275"
         id="path2996-3"
         style="fill:#394050;fill-opacity:1;stroke:#45d03f;stroke-width:21.05696487;stroke-miterlimit:4;stroke-dasharray:none;stroke-opacity:1"
         sodipodi:type="arc" />
      <g
         id="flowRoot4140"
         style="font-style:normal;font-weight:normal;font-size:40px;line-height:125%;font-family:sans-serif;letter-spacing:0px;word-spacing:0px;fill:#45d03f;fill-opacity:1;stroke:none;stroke-width:1px;stroke-linecap:butt;stroke-linejoin:miter;stroke-opacity:1"
         transform="matrix(4.7179385,0,0,4.7179385,-459.6131,-272.82169)">
        <path
           id="path4149"
           style="font-style:normal;font-variant:normal;font-weight:normal;font-stretch:normal;font-family:'Noto Sans Tamil';-inkscape-font-specification:'Noto Sans Tamil';fill:#45d03f;fill-opacity:1"
           d="m 133.12695,233.54379 0,11.60157 -3.61328,0 0,-30.19532 3.61328,0 0,3.32032 q 1.13282,-1.95313 2.85157,-2.89063 1.73828,-0.95703 4.14062,-0.95703 3.98438,0 6.46484,3.16406 2.5,3.16407 2.5,8.32032 0,5.15625 -2.5,8.32031 -2.48046,3.16406 -6.46484,3.16406 -2.40234,0 -4.14062,-0.9375 -1.71875,-0.95703 -2.85157,-2.91016 z m 12.22657,-7.63671 q 0,-3.96485 -1.64063,-6.21094 -1.62109,-2.26563 -4.47266,-2.26563 -2.85156,0 -4.49218,2.26563 -1.6211,2.24609 -1.6211,6.21094 0,3.96484 1.6211,6.23046 1.64062,2.2461 4.49218,2.2461 2.85157,0 4.47266,-2.2461 1.64063,-2.26562 1.64063,-6.23046 z" />
        <path
           id="path4151"
           style="font-style:normal;font-variant:normal;font-weight:normal;font-stretch:normal;font-family:'Noto Sans Tamil';-inkscape-font-specification:'Noto Sans Tamil';fill:#45d03f;fill-opacity:1"
           d="m 164.14258,238.85629 q -1.52344,3.90625 -2.96875,5.09766 -1.44531,1.19141 -3.86719,1.19141 l -2.87109,0 0,-3.00782 2.10937,0 q 1.48438,0 2.30469,-0.70312 0.82031,-0.70313 1.81641,-3.32031 l 0.64453,-1.64063 -8.84766,-21.52344 3.80859,0 6.83594,17.10938 6.83594,-17.10938 3.80859,0 -9.60937,23.90625 z" />
      </g>
    </g>
  </g>
</svg>
