<?xml version="1.0" encoding="UTF-8" standalone="no"?>
<!-- Created with Inkscape (http://www.inkscape.org/) -->

<svg
   xmlns:dc="http://purl.org/dc/elements/1.1/"
   xmlns:cc="http://creativecommons.org/ns#"
   xmlns:rdf="http://www.w3.org/1999/02/22-rdf-syntax-ns#"
   xmlns:svg="http://www.w3.org/2000/svg"
   xmlns="http://www.w3.org/2000/svg"
   xmlns:sodipodi="http://sodipodi.sourceforge.net/DTD/sodipodi-0.dtd"
   xmlns:inkscape="http://www.inkscape.org/namespaces/inkscape"
   id="svg2"
   version="1.1"
   inkscape:version="0.48.5 r10040"
   width="500"
   height="500"
   sodipodi:docname="redshift.svg">
  <metadata
     id="metadata8">
    <rdf:RDF>
      <cc:Work
         rdf:about="">
        <dc:format>image/svg+xml</dc:format>
        <dc:type
           rdf:resource="http://purl.org/dc/dcmitype/StillImage" />
        <dc:title />
      </cc:Work>
    </rdf:RDF>
  </metadata>
  <defs
     id="defs6" />
  <sodipodi:namedview
     pagecolor="#ffffff"
     bordercolor="#666666"
     borderopacity="1"
     objecttolerance="10"
     gridtolerance="10"
     guidetolerance="10"
     inkscape:pageopacity="0"
     inkscape:pageshadow="2"
     inkscape:window-width="1204"
     inkscape:window-height="680"
     id="namedview4"
     showgrid="false"
     inkscape:zoom="0.65186406"
     inkscape:cx="-35.978364"
     inkscape:cy="100.88444"
     inkscape:window-x="15"
     inkscape:window-y="35"
     inkscape:window-maximized="0"
     inkscape:current-layer="svg2" />
  <g
     transform="matrix(0.60252386,0,0,0.60252386,27.863662,12.863659)"
     id="g4210">
    <circle
       d="M 491.8575,256 C 491.8575,386.2605 386.2605,491.8575 256,491.8575 125.7395,491.8575 20.142502,386.2605 20.142502,256 20.142502,125.7395 125.7395,20.142502 256,20.142502 386.2605,20.142502 491.8575,125.7395 491.8575,256 z"
       sodipodi:ry="235.8575"
       sodipodi:rx="235.8575"
       sodipodi:cy="256"
       sodipodi:cx="256"
       style="fill:#dbe7f7;fill-opacity:1;stroke:none"
       id="circle4198"
       cx="256"
       cy="256"
       r="235.8575" />
    <path
       id="circle4205"
       d="M 256,20.142578 A 235.8575,235.8575 0 0 0 235.70703,21.169922 236.33015,236.33015 0 0 1 256,20.142578 z m 18.41602,0.921875 a 236.33015,236.33015 0 0 1 13.36328,1.5 235.8575,235.8575 0 0 0 -13.36328,-1.5 z m -49.72461,1.443359 a 235.8575,235.8575 0 0 0 -12.43164,1.886719 236.33015,236.33015 0 0 1 12.43164,-1.886719 z m 72.64062,1.5 a 236.33015,236.33015 0 0 1 14.32617,3.082032 235.8575,235.8575 0 0 0 -14.32617,-3.082032 z m -95.68555,2.769532 a 235.8575,235.8575 0 0 0 -12.35546,3.162109 236.33015,236.33015 0 0 1 12.35546,-3.162109 z m 118.25977,2.419922 a 236.33015,236.33015 0 0 1 14.92383,4.8125 235.8575,235.8575 0 0 0 -14.92383,-4.8125 z M 179.04492,33.34375 a 235.8575,235.8575 0 0 0 -11.98633,4.384766 236.33015,236.33015 0 0 1 11.98633,-4.384766 z m 162.91406,3.267578 a 236.33015,236.33015 0 0 1 15.04883,6.574219 235.8575,235.8575 0 0 0 -15.04883,-6.574219 z m -189.53515,7.666016 a 235.8575,235.8575 0 0 0 -4.11914,1.933594 236.33015,236.33015 0 0 1 4.11914,-1.933594 z m 210.83203,1.927734 a 236.33015,236.33015 0 0 1 14.78711,8.306641 235.8575,235.8575 0 0 0 -14.78711,-8.306641 z m -215.71289,0.44336 A 235.8575,235.8575 0 0 0 21.9375,228.36914 c 18.708622,-3.81618 138.38337,207.32506 157.1582,178.44922 4.41407,-6.79639 4.80113,-23.3304 2.78125,-45.80469 -1.82387,-20.32972 78.68565,35.42065 74.12305,8.17578 -0.66536,-3.97439 -5.35931,-47.21279 -11.49023,-99.89648 -1.49713,-12.86795 -3.0831,-26.30615 -4.71094,-39.86914 -1.33666,-11.13914 -10.39695,-41.39655 7.29492,-43.66602 21.11986,-2.71491 57.39543,-65.25499 53.48633,-44.10547 -13.05807,70.60131 103.37832,37.14903 94.02734,43.79688 -61.27416,43.5466 20.6559,115.97212 36.48828,71.02344 1.57437,-4.47349 32.66862,73.94671 51.98242,28.57031 21.89204,-51.36473 -20.60982,-38.0949 -32.67578,-54.95508 -3.58831,-5.00812 1.64152,-24.23179 -1.97656,-32.67969 -8.13893,-18.97517 -41.90713,-18.56484 -39.42383,-35.19922 9.60639,-64.565412 -109.90187,-65.800784 -104.66797,-47.72265 4.94874,17.16911 -11.13284,-30.053861 -25.2246,-38.371096 -15.72549,-9.285508 -75.84066,4.970704 -75.84766,4.970704 -5.97054,0.231706 -6.24269,-20.150858 -15.74805,-17.839844 -11.82831,2.875384 -28.70014,34.651483 -30.19726,46.533206 -2.39419,18.96331 32.68613,66.24265 30.08398,81.58789 -3.94474,23.2764 -8.38233,37.39715 -14.10937,27.24414 -11.59655,-20.57318 -20.19329,-38.21787 -21.91016,-49.10156 -9.16527,-58.10856 -14.2186,-107.863054 -3.83789,-122.861332 z m 236.02539,11.251953 a 236.33015,236.33015 0 0 1 14.08789,9.884765 235.8575,235.8575 0 0 0 -14.08789,-9.884765 z m 19.1543,13.736328 a 236.33015,236.33015 0 0 1 13.02929,11.24414 235.8575,235.8575 0 0 0 -13.02929,-11.24414 z m 17.73046,15.623047 a 236.33015,236.33015 0 0 1 11.67969,12.314453 235.8575,235.8575 0 0 0 -11.67969,-12.314453 z m -7.35156,10.199218 c -9.15319,-0.133464 -13.30782,5.403576 5.61914,28.166016 32.65169,39.2663 29.7361,4.16592 29.11524,-6.33008 a 235.8575,235.8575 0 0 0 -13.11133,-16.76953 c -4.75935,-1.56497 -14.62222,-4.964326 -21.62305,-5.066406 z m 38.8711,27.619136 a 236.33015,236.33015 0 0 1 7.16796,11.63477 235.8575,235.8575 0 0 0 -7.16796,-11.63477 z m 12.71093,21.30079 a 236.33015,236.33015 0 0 1 4.22852,8.70312 235.8575,235.8575 0 0 0 -4.22852,-8.70312 z m 10.44336,22.58789 a 236.33015,236.33015 0 0 1 1.88867,5.14258 235.8575,235.8575 0 0 0 -1.88867,-5.14258 z m 8.02149,23.60156 a 236.33015,236.33015 0 0 1 0.28515,1.10352 235.8575,235.8575 0 0 0 -0.28515,-1.10352 z M 258.26367,465.15039 c -56.41942,-0.22358 -30.73629,18.8311 -22.39453,25.69922 A 235.8575,235.8575 0 0 0 256,491.85742 a 235.8575,235.8575 0 0 0 28.32812,-2.0039 c 9.23111,-6.65031 34.40681,-23.23583 -20.07031,-24.61329 -2.09442,-0.053 -4.09086,-0.0823 -5.99414,-0.0898 z"
       style="fill:#c1d1e0;fill-opacity:1;stroke:none"
       inkscape:connector-curvature="0" />
  </g>
  <path
     style="fill:#ff0000;fill-opacity:1;fill-rule:evenodd;stroke:none"
     d=""
     id="path2986"
     inkscape:connector-curvature="0" />
  <path
     style="fill:#f03916;fill-opacity:1;fill-rule:evenodd;stroke:none"
     d="m 277.55573,377.72055 c -2.78809,-2.04567 -4.06544,-7.01958 -5.36761,-20.90154 -2.93063,-31.24193 -3.5153,-32.39893 -31.04471,-61.43749 -13.59531,-14.34059 -28.15953,-31.87009 -32.36491,-38.95444 -25.383,-42.75985 -23.0035,-99.84732 5.99822,-143.90557 36.86122,-55.998125 113.66736,-74.718527 175.36664,-42.743177 21.70973,11.250976 44.86431,35.043267 55.81176,57.348887 11.41827,23.26486 15.08718,41.70481 13.89803,69.85154 -1.67021,39.53334 -11.00227,58.69951 -46.61458,95.73718 -13.52159,14.0627 -23.53583,26.38988 -26.04321,32.05825 -2.24065,5.06533 -5.36788,18.43037 -6.9494,29.70014 -1.58154,11.26975 -3.82668,21.44339 -4.9892,22.60812 -3.41051,3.41699 -93.11506,4.00286 -97.70103,0.6381 l 0,0 z m 61.1266,-79.14105 c 5.40261,-7.9967 19.97874,-25.92824 32.39145,-39.84792 25.93026,-29.07839 32.63699,-40.79585 34.1518,-59.66752 2.82851,-35.23726 -12.44511,-64.58168 -42.18747,-81.0526 -10.53559,-5.83446 -11.93918,-6.06934 -36.26826,-6.06934 -22.49445,0 -26.38604,0.53056 -34.99902,4.77162 -14.16528,6.97499 -30.12859,22.48305 -36.46631,35.42637 -10.77932,22.0142 -11.38435,52.64645 -1.42549,72.16749 2.31879,4.54518 14.66699,20.12851 27.44043,34.62957 12.77343,14.50108 27.81491,33.16845 33.4255,41.48298 5.61059,8.31451 11.08162,14.57314 12.1578,13.90802 1.07619,-0.66512 6.37702,-7.75205 11.77957,-15.74867 l 0,0 z"
     id="path2984"
     inkscape:connector-curvature="0" />
  <path
     style="fill:#f03916;fill-opacity:1;fill-rule:evenodd;stroke:none"
     d="m 302.06482,412.60741 c -13.03098,-0.55682 -24.58313,-1.92345 -25.67142,-3.03704 -4.53119,-4.63637 -4.59794,-12.25413 -0.14283,-16.28605 4.06665,-3.68024 7.55218,-3.96077 49.21324,-3.96077 49.56991,0 53.94767,0.8893 53.94767,10.95908 0,3.16519 -1.50546,7.00532 -3.34547,8.53366 -4.09949,3.40506 -39.99642,5.24404 -74.00129,3.79112 z"
     id="path2989"
     inkscape:connector-curvature="0" />
  <path
     style="fill:#f03916;fill-opacity:1;fill-rule:evenodd;stroke:none"
     d="m 288.75139,441.85048 c -5.06727,-3.54927 -6.12967,-13.22187 -1.84298,-16.77948 6.04755,-5.01902 70.24405,-5.31313 78.26075,-0.35855 3.8874,2.40252 3.05699,14.57856 -1.20684,17.69637 -5.60382,4.09759 -69.23808,3.62522 -75.21093,-0.55834 z"
     id="path2991"
     inkscape:connector-curvature="0" />
  <path
     style="fill:#f03916;fill-opacity:1;fill-rule:evenodd;stroke:none"
     d="m 300.57577,472.06712 c -3.62237,-3.06472 -4.38183,-11.4168 -1.31747,-14.48872 4.32315,-4.33382 50.21444,-4.58778 55.94521,-0.30958 2.77894,2.07452 2.18531,12.58823 -0.86272,15.28039 -4.00591,3.5382 -49.49527,3.1303 -53.76502,-0.48209 z"
     id="path2991-3"
     inkscape:connector-curvature="0" />
</svg>
