<?xml version="1.0" encoding="UTF-8" standalone="no"?>
<!-- Generator: Adobe Illustrator 18.1.1, SVG Export Plug-In . SVG Version: 6.00 Build 0)  -->

<svg
   xmlns:ns="&amp;#38;ns_sfw;"
   xmlns:dc="http://purl.org/dc/elements/1.1/"
   xmlns:cc="http://creativecommons.org/ns#"
   xmlns:rdf="http://www.w3.org/1999/02/22-rdf-syntax-ns#"
   xmlns:svg="http://www.w3.org/2000/svg"
   xmlns="http://www.w3.org/2000/svg"
   xmlns:sodipodi="http://sodipodi.sourceforge.net/DTD/sodipodi-0.dtd"
   xmlns:inkscape="http://www.inkscape.org/namespaces/inkscape"
   version="1.1"
   id="图层_1"
   x="0px"
   y="0px"
   viewBox="0 0 500 500"
   enable-background="new 0 0 48 48"
   xml:space="preserve"
   inkscape:version="0.48.5 r10040"
   width="100%"
   height="100%"
   sodipodi:docname="scantailor.svg"><defs
     id="defs99" /><sodipodi:namedview
     pagecolor="#ffffff"
     bordercolor="#666666"
     borderopacity="1"
     objecttolerance="10"
     gridtolerance="10"
     guidetolerance="10"
     inkscape:pageopacity="0"
     inkscape:pageshadow="2"
     inkscape:window-width="1366"
     inkscape:window-height="716"
     id="namedview97"
     showgrid="false"
     inkscape:zoom="0.61458333"
     inkscape:cx="-70.453372"
     inkscape:cy="154.28922"
     inkscape:window-x="0"
     inkscape:window-y="0"
     inkscape:window-maximized="1"
     inkscape:current-layer="图层_1" /><metadata
     id="metadata3"><ns:sfw><ns:slices /><ns:sliceSourceBounds
         height="172.8"
         width="306"
         y="-49.8"
         x="-17"
         bottomLeftOrigin="true" /></ns:sfw><rdf:RDF><cc:Work
         rdf:about=""><dc:format>image/svg+xml</dc:format><dc:type
           rdf:resource="http://purl.org/dc/dcmitype/StillImage" /></cc:Work></rdf:RDF></metadata><g
     id="g13"
     style="fill:#f03916"
     transform="matrix(10.714286,0,0,10.714286,-7.142857,-20.959237)"><path
       style="fill:#f03916"
       inkscape:connector-curvature="0"
       id="path15"
       d="M 24,34 H 4 C 3.448,34 3,33.552 3,33 V 6 C 3,5.448 3.448,5 4,5 h 20 v 29 z" /></g><g
     id="g17"
     style="fill:#f03916"
     transform="matrix(10.714286,0,0,10.714286,-7.142857,-20.959237)"><path
       style="fill:#f03916"
       inkscape:connector-curvature="0"
       id="path19"
       d="M 44,34 H 24 V 5 h 20 c 0.552,0 1,0.448 1,1 v 27 c 0,0.552 -0.448,1 -1,1 z" /></g><path
     style="fill:#363323"
     inkscape:connector-curvature="0"
     id="path21"
     d="m 25,300.46933 v 32.14286 c 0,5.91428 4.8,10.71428 10.714286,10.71428 H 67.857143 L 25,300.46933 z" /><path
     style="fill:#363323"
     inkscape:connector-curvature="0"
     id="path23"
     d="M 475,75.469333 V 43.326478 c 0,-5.914286 -4.8,-10.714286 -10.71429,-10.714286 H 432.14286 L 475,75.469333 z" /><path
     style="fill:#363323"
     inkscape:connector-curvature="0"
     id="path25"
     d="m 475,300.46933 v 32.14286 c 0,5.91428 -4.8,10.71428 -10.71429,10.71428 H 432.14286 L 475,300.46933 z" /><g
     id="g27"
     transform="matrix(10.714286,0,0,10.714286,-7.142857,-20.959237)"><rect
       style="fill:#9fa0a0"
       id="rect29"
       height="27"
       width="20"
       y="6"
       x="24" /></g><g
     id="g47"
     transform="matrix(10.714286,0,0,10.714286,-7.142857,-20.959237)"><rect
       style="fill:#ffffff"
       id="rect49"
       height="27"
       width="15"
       y="6"
       x="24" /></g><path
     style="fill:#363323"
     inkscape:connector-curvature="0"
     id="path51"
     d="M 25,75.469333 V 43.326478 C 25,37.412192 29.8,32.612192 35.714286,32.612192 H 67.857143 L 25,75.469333 z" /><path
     style="fill:#231815"
     inkscape:connector-curvature="0"
     id="path53"
     d="m 395.58571,96.394333 -12.075,-0.11786 c 0,0 -0.6,11.346427 -6.78214,11.346427 h -80.64643 c -6.03214,0 -7.74643,-10.714277 -7.74643,-10.714277 h -11.925 l -2.88214,53.571427 h 13.39286 l 0.95357,-4.26429 c 5.90357,-24.92143 4.76786,-27.88929 28.15714,-27.88929 H 325 v 117.55715 c 0,16.85357 0.33214,18.225 -16.73571,19.26428 l -4.69286,0.31072 v 12.86785 h 64.28571 V 255.4479 l -4.28571,-0.28928 c -17.89286,-1.05 -17.14286,-2.41072 -17.14286,-19.26429 V 118.32647 h 11.51786 c 14.41071,0 20.44286,1.31786 25.07143,27.62143 l 0.77143,4.48929 13.5,-0.12857 -1.70358,-53.914287 z" /><g
     id="_43312824_10_"
     transform="matrix(10.714286,0,0,10.714286,-7.142857,-20.959237)"><path
       style="fill:#898989"
       inkscape:connector-curvature="0"
       d="m 24.899,38.986 c -0.186,0.698 -0.483,1.477 -0.769,2.23 -0.09,0.236 -0.179,0.47 -0.206,0.543 l -0.001,0.003 c -0.276,0.738 -0.593,1.368 -0.936,1.914 -0.348,0.553 -0.714,1.011 -1.088,1.4 -0.65,0.677 -1.134,0.549 -1.541,-0.082 l 0.001,-10e-4 c -0.261,-0.406 -0.354,-0.98 -0.46,-1.628 -0.043,-0.266 -0.089,-0.547 -0.137,-0.774 l 0,-10e-4 h 0 c -0.293,-1.373 0.141,-2.216 0.651,-3.206 0.12,-0.233 0.246,-0.477 0.352,-0.716 0.212,-0.476 0.509,-1.026 0.83,-1.527 0.508,-1.165 1.263,-1.588 1.695,-2.237 0.481,-0.724 0.288,-1.252 0.614,-2.399 l 5.368,-17.836 c 0.041,-0.091 0.624,2.206 0.437,3.496 L 26.76,28.817 c -0.581,1.935 -1.636,2.787 -2.18,4.537 l 0.125,1.887 c 0,0 0.513,1.815 0.433,2.82 -0.031,0.377 -0.125,0.673 -0.239,0.925 l 0,0 z m -1.38,-2.58 c -0.508,-0.108 -1.592,1.55 -2.118,2.735 -0.527,1.184 -1.203,1.963 -0.935,3.222 0.268,1.258 0.278,2.701 0.962,1.989 0.683,-0.712 1.33,-1.657 1.834,-3.003 0.504,-1.346 1.163,-2.937 1.096,-3.666 -0.067,-0.729 -0.33,-1.169 -0.839,-1.277 l 0,0 z"
       id="_43523648_26_" /><path
       style="fill:#3e3a39"
       inkscape:connector-curvature="0"
       d="m 24.95,38.957 c -0.19,0.712 -0.493,1.507 -0.785,2.276 -0.092,0.24 -0.183,0.48 -0.211,0.555 l -0.001,0.003 c -0.282,0.753 -0.606,1.397 -0.956,1.954 -0.355,0.565 -0.729,1.032 -1.11,1.429 -0.663,0.691 -1.157,0.561 -1.573,-0.084 l 0.001,-0.001 c -0.266,-0.414 -0.362,-1 -0.469,-1.662 -0.044,-0.271 -0.091,-0.558 -0.14,-0.79 l 0,-10e-4 h 0 c -0.299,-1.401 0.144,-2.262 0.664,-3.272 0.123,-0.238 0.251,-0.487 0.359,-0.731 0.216,-0.486 0.52,-1.047 0.847,-1.559 1.658,-2.919 3.049,-1.723 3.049,-1.723 0,0 1.28,1.005 0.325,3.606 l 0,0 z m -1.519,-2.239 c -0.47,-0.1 -1.47,1.432 -1.956,2.526 -0.487,1.094 -1.111,1.814 -0.864,2.976 0.248,1.162 0.257,2.495 0.889,1.837 0.631,-0.658 1.229,-1.531 1.694,-2.774 0.465,-1.243 1.074,-2.713 1.012,-3.386 -0.062,-0.673 -0.305,-1.079 -0.775,-1.179 l 0,0 z"
       id="_43523648_25_" /><g
       id="g58"><path
         style="fill:#898989"
         inkscape:connector-curvature="0"
         d="m 31.276,36.789 c 0.466,-0.268 1.383,0.42 2.047,1.536 0.665,1.116 0.826,2.238 0.36,2.506 -0.466,0.268 -1.383,-0.42 -2.048,-1.536 -0.663,-1.117 -0.824,-2.239 -0.359,-2.506 l 0,0 z m -0.514,1.564 c 0.144,0.375 0.331,0.759 0.551,1.128 0.92,1.544 2.188,2.495 2.833,2.125 0.644,-0.37 0.421,-1.923 -0.498,-3.467 C 32.864,36.822 31.48,36.052 31.099,35.936 30.718,35.82 29.262,34.85 28.735,34.2 28.207,33.55 26.697,30.896 26.245,30.069 25.793,29.241 18.021,13.695 18.021,13.695 l -0.138,3.182 6.795,14.637 c 0,0 0.879,0.297 1.649,1.059 0.77,0.762 2.083,1.964 2.439,2.563 0.355,0.597 1.593,2.144 1.996,3.217 l 0,0 z"
         id="_42864552_26_" /><path
         style="fill:#3e3a39"
         inkscape:connector-curvature="0"
         d="m 31.347,36.904 c 0.439,-0.253 1.304,0.396 1.931,1.448 0.627,1.052 0.802,2.192 0.363,2.444 -0.439,0.253 -1.327,-0.477 -1.954,-1.529 -0.627,-1.052 -0.779,-2.11 -0.34,-2.363 l 0,0 z m -0.684,1.422 c 0.152,0.397 0.351,0.803 0.584,1.195 0.974,1.635 2.317,2.643 3,2.25 0.683,-0.392 0.446,-2.037 -0.528,-3.671 -0.831,-1.395 -2.296,-2.211 -2.699,-2.334 -0.405,-0.123 -1.297,0.069 -0.357,2.56 l 0,0 z"
         id="_42864552_25_" /><polygon
         style="fill:#b5b5b6"
         points="18.02,13.693 17.951,15.284 23.224,26.376 24.781,27.185 "
         id="_43258800_13_" /></g><path
       style="fill:#595757"
       inkscape:connector-curvature="0"
       d="m 24.922,29.217 c 0.361,-0.022 0.753,0.316 0.876,0.755 0.123,0.439 -0.069,0.812 -0.43,0.834 -0.361,0.022 -0.753,-0.316 -0.876,-0.755 -0.123,-0.439 0.069,-0.812 0.43,-0.834 l 0,0 z"
       id="_42345728_13_" /><path
       style="fill:#6e6d6d"
       inkscape:connector-curvature="0"
       d="m 25.709,30.631 c -0.061,0.077 -0.142,0.132 -0.24,0.158 L 24.58,29.391 c 0.061,-0.077 0.142,-0.132 0.24,-0.158 l 0.889,1.398 0,0 z"
       id="_43258848_13_" /><polygon
       style="fill:#b5b5b6"
       id="polygon65"
       points="29.249,14.184 29.488,15.69 26.18,27.11 25.208,28.033 " /></g><g
     id="g69"
     transform="matrix(10.714286,0,0,10.714286,-7.142857,-20.959237)"><rect
       x="4"
       y="6"
       width="20"
       height="27"
       id="rect71"
       style="fill:#a88905" /></g><g
     id="g89"
     transform="matrix(10.714286,0,0,10.714286,-7.142857,-20.959237)"><rect
       x="9"
       y="6"
       width="15"
       height="27"
       id="rect91"
       style="fill:#ffea9c" /></g><g
     id="g93"
     transform="matrix(10.714286,0,0,10.714286,-7.142857,-20.959237)"><path
       style="fill:#666666;stroke:#4c4c4c;stroke-width:0.1698;stroke-dasharray:0.3397, 0.1698"
       inkscape:connector-curvature="0"
       id="path95"
       d="m 11.892,22.25 c 0.974,2.198 2.862,4.167 5.039,3.885 1.5,-0.195 2.746,-1.228 2.491,-3.191 -0.245,-1.892 -1.58,-2.663 -3.422,-3.15 -2.358,-0.565 -4.511,-1.484 -4.802,-3.733 -0.287,-2.213 1.449,-4.507 4.559,-4.874 1.285,-0.167 2.18,0.008 2.858,0.21 0.356,0.789 0.909,2.532 1.145,3.517 l -0.471,0.28 c -0.838,-1.707 -2.396,-3.356 -4.216,-3.121 -1.748,0.227 -2.484,1.556 -2.299,2.984 0.227,1.749 2.087,2.379 3.588,2.766 2.624,0.64 4.54,1.698 4.84,4.019 0.37,2.856 -2.027,4.799 -4.776,5.156 -1.855,0.24 -3.438,-0.208 -4.007,-0.68 -0.324,-0.537 -0.786,-2.692 -1.04,-3.821 l 0.513,-0.247 z" /></g></svg>