<?xml version="1.0" encoding="UTF-8" standalone="no"?>
<!-- Created with Inkscape (http://www.inkscape.org/) -->

<svg
   xmlns:dc="http://purl.org/dc/elements/1.1/"
   xmlns:cc="http://creativecommons.org/ns#"
   xmlns:rdf="http://www.w3.org/1999/02/22-rdf-syntax-ns#"
   xmlns:svg="http://www.w3.org/2000/svg"
   xmlns="http://www.w3.org/2000/svg"
   xmlns:sodipodi="http://sodipodi.sourceforge.net/DTD/sodipodi-0.dtd"
   xmlns:inkscape="http://www.inkscape.org/namespaces/inkscape"
   id="svg2"
   version="1.1"
   inkscape:version="0.91 r13725"
   width="512"
   height="512"
   sodipodi:docname="stellarium.svg">
  <metadata
     id="metadata8">
    <rdf:RDF>
      <cc:Work
         rdf:about="">
        <dc:format>image/svg+xml</dc:format>
        <dc:type
           rdf:resource="http://purl.org/dc/dcmitype/StillImage" />
        <dc:title />
      </cc:Work>
    </rdf:RDF>
  </metadata>
  <defs
     id="defs6" />
  <sodipodi:namedview
     pagecolor="#ffffff"
     bordercolor="#666666"
     borderopacity="1"
     objecttolerance="10"
     gridtolerance="10"
     guidetolerance="10"
     inkscape:pageopacity="0"
     inkscape:pageshadow="2"
     inkscape:window-width="1193"
     inkscape:window-height="665"
     id="namedview4"
     showgrid="false"
     inkscape:zoom="0.32593203"
     inkscape:cx="-201.26673"
     inkscape:cy="332.11977"
     inkscape:window-x="15"
     inkscape:window-y="39"
     inkscape:window-maximized="0"
     inkscape:current-layer="svg2" />
  <g
     transform="matrix(5.3558575,0,0,5.3558575,-7.135145,-0.47380893)"
     id="g4452">
    <rect
       width="84"
       height="84"
       rx="6"
       ry="6"
       x="6"
       y="-91"
       transform="scale(1,-1)"
       id="rect3716"
       style="display:inline;opacity:1;fill:#11002b;fill-opacity:1;fill-rule:nonzero;stroke:none" />
    <path
       d="M 18.374685,66.515041 57.260645,70.788223 35.894733,83.82143 Z"
       inkscape:connector-curvature="0"
       id="path4042"
       style="fill:#373748;fill-opacity:1;stroke:none" />
    <path
       d="m 29.484959,70.574564 c 14.52882,-1.709273 37.817665,-1.709273 37.817665,-1.709273 L 43.372802,84.248748 Z"
       inkscape:connector-curvature="0"
       id="path4040"
       style="fill:#53536c;fill-opacity:1;stroke:none" />
    <path
       d="M 6,63.625 6,84 c 0,3.324 2.676,6 6,6 l 42.90625,0 1.5,-12.8125 c 0,0 -19.973225,-9.121523 -50.40625,-13.5625 z"
       inkscape:connector-curvature="0"
       id="path3968"
       style="fill:#1c1c24;fill-opacity:1;stroke:none" />
    <path
       d="m 80.375,57.548199 c 0.07544,0.32117 -0.425109,0.40444 -0.40625,0.71875 -0.233442,0.316913 -0.158,0.704496 -0.28125,1.0625 -0.08532,0.288356 -0.163396,0.605425 -0.1875,0.90625 -0.03794,0.416811 -0.275357,0.779272 -0.34375,1.1875 -0.0084,0.05302 0.0022,0.102352 0,0.15625 -0.09921,-0.310561 -0.206965,-0.609704 -0.34375,-0.90625 -0.0706,-0.21219 -0.1677,-0.46166 -0.40625,-0.53125 -0.31874,0.30895 -0.10531,0.78966 -0.28125,1.15625 -0.02855,0.30187 -0.287917,0.467279 -0.46875,0.6875 -0.02199,-0.08352 -0.02956,-0.168743 -0.0625,-0.25 -0.14525,-0.40411 -0.2806,-0.81425 -0.25,-1.25 -0.0565,-0.36182 -0.35271,-0.66583 -0.40625,-1.03125 -0.0288,-0.12457 -0.0251,-0.25254 -0.0625,-0.375 -0.16451,0.39346 -0.22418,0.84741 -0.5,1.1875 -0.13772,0.40207 -0.38029,0.75853 -0.4375,1.1875 -0.14877,0.39623 -0.29854,0.79611 -0.34375,1.21875 -0.01434,0.06466 -0.04239,0.124926 -0.0625,0.1875 -0.12272,-0.332178 -0.244905,-0.65194 -0.3125,-1 -0.012,-0.37262 0.30972,-0.71966 0.125,-1.09375 -0.14918,-0.33407 -0.26679,-0.699 -0.3125,-1.0625 -0.10376,-0.37909 -0.23146,-0.74049 -0.3125,-1.125 -0.0369,-0.10016 -0.07692,-0.20853 -0.15625,-0.28125 -0.004,0.29473 0.30661,0.67424 0,0.90625 -0.2259,0.14732 -0.14885,0.48295 -0.15625,0.71875 0.0155,0.25671 -0.09229,0.4988 -0.125,0.75 -0.0607,0.2994 -0.20232,0.58408 -0.4375,0.78125 -0.25739,0.37975 -0.34094,0.86419 -0.34375,1.3125 0.03096,0.225872 0.04172,0.460962 0.03125,0.6875 -0.04521,-0.200142 -0.07706,-0.4176 -0.0625,-0.625 -0.0565,-0.36182 -0.32146,-0.63458 -0.375,-1 -0.0288,-0.12457 -0.05635,-0.25254 -0.09375,-0.375 -0.16451,0.39346 -0.22418,0.84741 -0.5,1.1875 -0.127126,0.371142 -0.327676,0.706711 -0.40625,1.09375 -0.03016,-0.199426 -0.122083,-0.400055 -0.1875,-0.59375 0.115663,-0.268609 -0.09688,-0.463609 -0.15625,-0.71875 0.09419,-0.305718 -0.198685,-0.555253 -0.3125,-0.84375 -0.159255,-0.204413 -0.178737,-0.486407 -0.34375,-0.6875 0.08421,0.32117 -0.45855,0.37319 -0.4375,0.6875 -0.260565,0.316913 -0.20618,0.735746 -0.34375,1.09375 -0.09524,0.288356 -0.191846,0.574175 -0.21875,0.875 -0.02019,0.198737 -0.109878,0.377659 -0.1875,0.5625 0.0421,-0.268342 -0.09469,-0.487275 -0.25,-0.6875 -0.075,-0.235773 -0.20436,-0.405718 -0.3125,-0.625 -0.0198,-0.018 -0.0982,-0.318552 -0.0625,-0.1875 -0.29368,0.06755 -0.01692,0.482776 -0.28125,0.59375 -0.17119,0.165629 0.1334,0.458747 -0.15625,0.53125 -0.19652,0.04238 -0.34107,0.252781 -0.125,0.375 0.14077,0.213172 -0.12552,0.47781 0.09375,0.65625 -0.05403,0.170039 -0.08485,0.352398 -0.125,0.53125 -0.02582,-0.08119 -0.0427,-0.168258 -0.0625,-0.25 0.03774,-0.276456 -0.04928,-0.530958 -0.125,-0.78125 0.09158,-0.2374 -0.07799,-0.399503 -0.125,-0.625 0.07458,-0.270197 -0.15988,-0.495022 -0.25,-0.75 -0.126101,-0.180663 -0.11934,-0.416021 -0.25,-0.59375 0.06668,0.283855 -0.391668,0.315958 -0.375,0.59375 -0.206319,0.280091 -0.17232,0.652342 -0.28125,0.96875 -0.07541,0.254853 -0.134947,0.515377 -0.15625,0.78125 -0.0021,0.02295 -0.02785,0.0399 -0.03125,0.0625 -0.160293,-0.260454 -0.316127,-0.515293 -0.40625,-0.8125 -0.20534,-0.5702 -0.3393,-1.16711 -0.59375,-1.71875 -0.0706,-0.21219 -0.1677,-0.46166 -0.40625,-0.53125 -0.31874,0.30895 -0.10531,0.78966 -0.28125,1.15625 -0.0439,0.4641 -0.70975,0.62873 -0.65625,1.125 0.01208,0.42617 -0.235316,0.779694 -0.3125,1.1875 -0.02864,-0.114833 -0.07884,-0.225166 -0.09375,-0.34375 -0.10376,-0.37909 -0.23146,-0.74049 -0.3125,-1.125 -0.0369,-0.10016 -0.07692,-0.20853 -0.15625,-0.28125 -0.004,0.29473 0.30661,0.67424 0,0.90625 -0.2259,0.14732 -0.14885,0.48295 -0.15625,0.71875 0.0155,0.25671 -0.09229,0.4988 -0.125,0.75 -0.0607,0.2994 -0.20232,0.58408 -0.4375,0.78125 -0.06435,0.09494 -0.113571,0.176007 -0.15625,0.28125 -0.0088,-0.09737 -0.007,-0.213466 0,-0.3125 -0.0565,-0.36182 -0.32146,-0.63458 -0.375,-1 -0.0288,-0.12457 -0.05635,-0.25254 -0.09375,-0.375 -0.16451,0.39346 -0.22418,0.84741 -0.5,1.1875 -0.13772,0.40207 -0.38029,0.75853 -0.4375,1.1875 -0.01506,0.04011 -0.01665,0.08478 -0.03125,0.125 -0.01793,-0.05531 -0.0456,-0.100376 -0.0625,-0.15625 0.10362,-0.268609 -0.07181,-0.463609 -0.125,-0.71875 0.08439,-0.305718 -0.179283,-0.586503 -0.28125,-0.875 -0.142678,-0.204413 -0.164663,-0.455157 -0.3125,-0.65625 0.07544,0.32117 -0.425109,0.37319 -0.40625,0.6875 -0.233442,0.316913 -0.18925,0.735746 -0.3125,1.09375 -0.08532,0.288356 -0.163396,0.574175 -0.1875,0.875 -0.0075,0.08214 -0.04217,0.140078 -0.0625,0.21875 -0.05091,-0.111325 -0.07568,-0.220421 -0.09375,-0.34375 -0.0288,-0.12457 -0.05635,-0.25254 -0.09375,-0.375 -0.16451,0.39346 -0.22418,0.84741 -0.5,1.1875 -0.13772,0.40207 -0.38029,0.75853 -0.4375,1.1875 -0.257383,-0.181876 -0.540587,-0.380627 -0.59375,-0.59375 0.08614,-0.259965 -0.454504,-0.451254 -0.59375,-0.6875 0.282169,0.378014 0.101003,0.782801 -0.15625,1.15625 -0.06654,0.27503 -0.117857,0.56909 -0.21875,0.84375 -0.01372,0.02408 -0.02316,0.03856 -0.03125,0.0625 -0.02432,-0.101671 -0.02259,-0.182804 -0.0625,-0.28125 -0.14525,-0.40411 -0.31185,-0.8455 -0.28125,-1.28125 -0.0565,-0.36182 -0.32146,-0.63458 -0.375,-1 -0.0288,-0.12457 -0.05635,-0.25254 -0.09375,-0.375 -0.16451,0.39346 -0.19293,0.84741 -0.46875,1.1875 -0.13772,0.40207 -0.41154,0.75853 -0.46875,1.1875 -0.14877,0.39623 -0.26729,0.79611 -0.3125,1.21875 -0.04591,0.207 -0.135697,0.400039 -0.21875,0.59375 -0.0078,-0.0507 -0.0057,-0.104538 -0.03125,-0.15625 -0.14918,-0.33407 -0.26679,-0.66775 -0.3125,-1.03125 -0.10376,-0.37909 -0.23146,-0.77174 -0.3125,-1.15625 -0.0369,-0.10016 -0.10817,-0.17728 -0.1875,-0.25 -0.004,0.29473 0.30661,0.67424 0,0.90625 -0.2259,0.14732 -0.1176,0.48295 -0.125,0.71875 0.0155,0.25671 -0.09229,0.4988 -0.125,0.75 -0.03458,0.17056 -0.09683,0.321358 -0.1875,0.46875 -0.12791,-0.365243 -0.24619,-0.734252 -0.21875,-1.125 -0.0565,-0.36182 -0.32146,-0.63458 -0.375,-1 -0.0288,-0.12457 -0.05635,-0.25254 -0.09375,-0.375 -0.16451,0.39346 -0.22418,0.84741 -0.5,1.1875 -0.13772,0.40207 -0.38029,0.75853 -0.4375,1.1875 -0.02717,0.07236 -0.037,0.145989 -0.0625,0.21875 -0.08135,-0.162605 -0.16073,-0.31729 -0.1875,-0.5 -0.0288,-0.12457 -0.05635,-0.25254 -0.09375,-0.375 -0.16451,0.39346 -0.22418,0.84741 -0.5,1.1875 -0.13772,0.40207 -0.38029,0.75853 -0.4375,1.1875 -0.08348,0.03116 -0.166483,0.06278 -0.25,0.09375 -0.02989,-0.09049 -0.06535,-0.18739 -0.09375,-0.28125 0.09158,-0.2374 -0.07799,-0.430753 -0.125,-0.65625 0.07458,-0.270197 -0.15988,-0.495022 -0.25,-0.75 -0.126101,-0.180663 -0.11934,-0.416021 -0.25,-0.59375 0.06668,0.283855 -0.391668,0.315958 -0.375,0.59375 -0.206319,0.280091 -0.14107,0.652342 -0.25,0.96875 -0.07541,0.254853 -0.166197,0.515377 -0.1875,0.78125 -0.01676,0.184191 -0.06015,0.360049 -0.125,0.53125 -0.0086,-0.09652 -0.03814,-0.183098 -0.03125,-0.28125 -0.0565,-0.36182 -0.32146,-0.66583 -0.375,-1.03125 -0.0288,-0.12457 -0.05635,-0.25254 -0.09375,-0.375 -0.16451,0.39346 -0.19293,0.84741 -0.46875,1.1875 -0.07039,-0.252453 -0.143553,-0.485807 -0.125,-0.75 -0.0565,-0.36182 -0.32146,-0.66583 -0.375,-1.03125 -0.0288,-0.12457 -0.05635,-0.22129 -0.09375,-0.34375 -0.16451,0.39346 -0.22418,0.81616 -0.5,1.15625 -0.13772,0.40207 -0.38029,0.78978 -0.4375,1.21875 -0.0894,0.238119 -0.157312,0.473628 -0.21875,0.71875 4.45e-4,-0.03218 -0.0023,-0.06139 0,-0.09375 -0.0565,-0.36182 -0.32146,-0.66583 -0.375,-1.03125 -0.0288,-0.12457 -0.05635,-0.25254 -0.09375,-0.375 -0.16451,0.39346 -0.19293,0.84741 -0.46875,1.1875 -0.13772,0.40207 -0.41154,0.75853 -0.46875,1.1875 -0.0315,0.0095 -0.06224,0.02177 -0.09375,0.03125 -0.01614,-0.156334 -0.01604,-0.316646 -0.03125,-0.46875 -0.107539,-0.377714 -0.153601,-0.774594 -0.03125,-1.15625 -0.06664,0.225804 -0.284302,0.437031 -0.25,0.6875 -0.0396,0.38409 -0.41167,0.63328 -0.40625,1.03125 -0.0062,0.04257 -0.02332,0.08282 -0.03125,0.125 -3.438504,0.997186 -6.930974,1.772953 -10.5625,2.15625 C 25.532409,78.849575 14.213258,77.172094 6,75.641949 l 0,9.375 c 0,3.324 2.676,6 6,6 l 72,0 c 3.324,0 6,-2.676 6,-6 0.04536,-8.261012 0,-16.47959 0,-24.6875 -0.337259,0.04133 -0.665333,0.109719 -1,0.15625 -0.08367,-0.313337 -0.295328,-0.57576 -0.34375,-0.90625 -0.0288,-0.12457 -0.05635,-0.25254 -0.09375,-0.375 -0.16451,0.39346 -0.19293,0.81616 -0.46875,1.15625 -0.02983,0.0871 -0.08607,0.164917 -0.125,0.25 -0.05295,0.0082 -0.103367,0.02288 -0.15625,0.03125 -0.119636,-0.390841 -0.234523,-0.783951 -0.40625,-1.15625 -0.0706,-0.21219 -0.1677,-0.46166 -0.40625,-0.53125 -0.31874,0.30895 -0.10531,0.78966 -0.28125,1.15625 -0.0271,0.286469 -0.256723,0.451456 -0.4375,0.65625 -0.14525,-0.40411 -0.2806,-0.81425 -0.25,-1.25 -0.0565,-0.36182 -0.32146,-0.66583 -0.375,-1.03125 -0.0288,-0.12457 -0.05635,-0.25254 -0.09375,-0.375 -0.16451,0.39346 -0.22418,0.84741 -0.5,1.1875 -0.13772,0.40207 -0.38029,0.75853 -0.4375,1.1875 -0.01536,0.04092 -0.01636,0.08397 -0.03125,0.125 -0.0073,-0.02079 -0.02481,-0.04126 -0.03125,-0.0625 -0.20534,-0.5702 -0.3393,-1.16711 -0.59375,-1.71875 -0.0706,-0.21219 -0.1677,-0.46166 -0.40625,-0.53125 -0.31874,0.30895 -0.10531,0.78966 -0.28125,1.15625 -0.0439,0.4641 -0.6785,0.62873 -0.625,1.125 0.0024,0.08448 -0.01445,0.17018 -0.03125,0.25 -0.07486,-0.261236 -0.14423,-0.507407 -0.125,-0.78125 -0.0565,-0.36182 -0.32146,-0.66583 -0.375,-1.03125 -0.0288,-0.12457 -0.05635,-0.25254 -0.09375,-0.375 -0.16451,0.39346 -0.22418,0.84741 -0.5,1.1875 -0.07986,0.233159 -0.18525,0.460434 -0.28125,0.6875 -0.0068,-0.246304 -0.08579,-0.454619 -0.15625,-0.6875 0.10362,-0.268609 -0.07181,-0.463609 -0.125,-0.71875 0.08439,-0.305718 -0.179283,-0.586503 -0.28125,-0.875 -0.142678,-0.204413 -0.164663,-0.486407 -0.3125,-0.6875 z m -22.9375,10.90625 c -0.04641,-0.07875 -0.05029,-0.162323 0.03125,-0.25 -0.08351,0.06236 -0.11553,0.1179 -0.09375,0.1875 0.02131,0.02339 0.04486,0.03887 0.0625,0.0625 z"
       inkscape:connector-curvature="0"
       id="path3839"
       style="fill:#373748;fill-opacity:1;stroke:none" />
    <path
       sodipodi:nodetypes="cssscsssc"
       inkscape:connector-curvature="0"
       id="path3351"
       d="m 26.81356,41.881755 c 0,0 4.252188,3.185071 9.012287,3.302598 4.07184,0.101098 7.373568,-1.376517 10.303122,-5.326775 2.380155,-3.209398 2.609047,-6.594453 1.22576,-9.57322 -2.309595,-4.973247 -9.070009,-7.717592 -9.070009,-7.717592 0,0 10.812173,-1.698925 16.369151,4.308684 4.101206,4.43395 5.69927,14.503499 0.331506,20.573505 -6.353092,7.183982 -13.460115,6.776903 -19.210244,3.83905 -5.691021,-2.907682 -8.961573,-9.40625 -8.961573,-9.40625 z"
       style="fill:#ffffff;fill-rule:evenodd;stroke:none;stroke-width:1px;stroke-linecap:butt;stroke-linejoin:miter;stroke-opacity:1" />
    <circle
       r="1.5"
       cy="25.957626"
       cx="18.991526"
       id="path4318"
       style="opacity:1;fill:#dbdee3;fill-opacity:1;stroke:none;stroke-width:15;stroke-miterlimit:4;stroke-dasharray:none;stroke-opacity:1" />
    <circle
       r="1.5"
       cy="19.099203"
       cx="66.727821"
       id="path4318-3"
       style="opacity:1;fill:#dbdee3;fill-opacity:1;stroke:none;stroke-width:15;stroke-miterlimit:4;stroke-dasharray:none;stroke-opacity:1" />
    <circle
       r="1.5"
       cy="48.928436"
       cx="80.176842"
       id="path4318-6"
       style="opacity:1;fill:#dbdee3;fill-opacity:1;stroke:none;stroke-width:15;stroke-miterlimit:4;stroke-dasharray:none;stroke-opacity:1" />
    <circle
       r="1.5"
       cy="59.10141"
       cx="32.588005"
       id="path4318-7"
       style="opacity:1;fill:#dbdee3;fill-opacity:1;stroke:none;stroke-width:15;stroke-miterlimit:4;stroke-dasharray:none;stroke-opacity:1" />
    <circle
       r="1.5"
       cy="52.032055"
       cx="16.725061"
       id="path4318-5"
       style="opacity:1;fill:#dbdee3;fill-opacity:1;stroke:none;stroke-width:15;stroke-miterlimit:4;stroke-dasharray:none;stroke-opacity:1" />
    <circle
       r="0.5"
       cy="38.548496"
       cx="68.141747"
       id="path4318-5-3"
       style="opacity:1;fill:#dbdee3;fill-opacity:1;stroke:none;stroke-width:15;stroke-miterlimit:4;stroke-dasharray:none;stroke-opacity:1" />
    <circle
       r="0.5"
       cy="28.582485"
       cx="32.415585"
       id="path4318-5-3-5"
       style="opacity:1;fill:#dbdee3;fill-opacity:1;stroke:none;stroke-width:15;stroke-miterlimit:4;stroke-dasharray:none;stroke-opacity:1" />
    <circle
       r="0.5"
       cy="36.858803"
       cx="14.311135"
       id="path4318-5-3-6"
       style="opacity:1;fill:#dbdee3;fill-opacity:1;stroke:none;stroke-width:15;stroke-miterlimit:4;stroke-dasharray:none;stroke-opacity:1" />
    <circle
       r="0.5"
       cy="60.653221"
       cx="51.209724"
       id="path4318-5-3-2"
       style="opacity:1;fill:#dbdee3;fill-opacity:1;stroke:none;stroke-width:15;stroke-miterlimit:4;stroke-dasharray:none;stroke-opacity:1" />
    <circle
       r="0.5"
       cy="17.547392"
       cx="80.349266"
       id="path4318-5-3-9"
       style="opacity:1;fill:#dbdee3;fill-opacity:1;stroke:none;stroke-width:15;stroke-miterlimit:4;stroke-dasharray:none;stroke-opacity:1" />
    <circle
       r="0.5"
       cy="14.27135"
       cx="33.450123"
       id="path4318-5-3-1"
       style="opacity:1;fill:#dbdee3;fill-opacity:1;stroke:none;stroke-width:15;stroke-miterlimit:4;stroke-dasharray:none;stroke-opacity:1" />
    <circle
       r="1"
       cy="28.082485"
       cx="78.952606"
       id="path4318-5-3-27"
       style="opacity:1;fill:#dbdee3;fill-opacity:1;stroke:none;stroke-width:15;stroke-miterlimit:4;stroke-dasharray:none;stroke-opacity:1" />
    <circle
       r="1"
       cy="37.893345"
       cx="27.760153"
       id="path4318-5-3-27-0"
       style="opacity:1;fill:#dbdee3;fill-opacity:1;stroke:none;stroke-width:15;stroke-miterlimit:4;stroke-dasharray:none;stroke-opacity:1" />
    <circle
       r="1"
       cy="17.030123"
       cx="14.655982"
       id="path4318-5-3-27-9"
       style="opacity:1;fill:#dbdee3;fill-opacity:1;stroke:none;stroke-width:15;stroke-miterlimit:4;stroke-dasharray:none;stroke-opacity:1" />
    <circle
       r="1"
       cy="15.82316"
       cx="47.588833"
       id="path4318-5-3-27-3"
       style="opacity:1;fill:#dbdee3;fill-opacity:1;stroke:none;stroke-width:15;stroke-miterlimit:4;stroke-dasharray:none;stroke-opacity:1" />
    <circle
       r="1"
       cy="52.376904"
       cx="63.624203"
       id="path4318-5-3-27-6"
       style="opacity:1;fill:#dbdee3;fill-opacity:1;stroke:none;stroke-width:15;stroke-miterlimit:4;stroke-dasharray:none;stroke-opacity:1" />
    <circle
       r="1"
       cy="53.928711"
       cx="85.694389"
       id="path4318-5-3-27-06"
       style="opacity:1;fill:#dbdee3;fill-opacity:1;stroke:none;stroke-width:15;stroke-miterlimit:4;stroke-dasharray:none;stroke-opacity:1" />
  </g>
</svg>
