<?xml version="1.0" encoding="UTF-8" standalone="no"?>
<svg
   xmlns:dc="http://purl.org/dc/elements/1.1/"
   xmlns:cc="http://creativecommons.org/ns#"
   xmlns:rdf="http://www.w3.org/1999/02/22-rdf-syntax-ns#"
   xmlns:svg="http://www.w3.org/2000/svg"
   xmlns="http://www.w3.org/2000/svg"
   xmlns:sodipodi="http://sodipodi.sourceforge.net/DTD/sodipodi-0.dtd"
   xmlns:inkscape="http://www.inkscape.org/namespaces/inkscape"
   viewBox="0 0 511.99999 511.99999"
   height="512"
   width="512"
   version="1.1"
   id="svg2"
   inkscape:version="0.91 r13725"
   sodipodi:docname="taskcoach.svg">
  <sodipodi:namedview
     pagecolor="#ffffff"
     bordercolor="#666666"
     borderopacity="1"
     objecttolerance="10"
     gridtolerance="10"
     guidetolerance="10"
     inkscape:pageopacity="0"
     inkscape:pageshadow="2"
     inkscape:window-width="1366"
     inkscape:window-height="715"
     id="namedview18"
     showgrid="false"
     inkscape:zoom="0.40624999"
     inkscape:cx="730.11468"
     inkscape:cy="47.966528"
     inkscape:window-x="0"
     inkscape:window-y="24"
     inkscape:window-maximized="1"
     inkscape:current-layer="svg2" />
  <metadata
     id="metadata8">
    <rdf:RDF>
      <cc:Work
         rdf:about="">
        <dc:format>image/svg+xml</dc:format>
        <dc:type
           rdf:resource="http://purl.org/dc/dcmitype/StillImage" />
        <dc:title />
      </cc:Work>
    </rdf:RDF>
  </metadata>
  <defs
     id="defs6">
    <filter
       height="1.096"
       y="-0.048"
       width="1.096"
       x="-0.048"
       id="filter4329"
       style="color-interpolation-filters:sRGB">
      <feGaussianBlur
         id="feGaussianBlur4331"
         stdDeviation="2.1324205" />
    </filter>
    <filter
       height="1.0327445"
       y="-0.016372267"
       width="1.0399742"
       x="-0.019987123"
       id="filter4376"
       style="color-interpolation-filters:sRGB">
      <feGaussianBlur
         id="feGaussianBlur4378"
         stdDeviation="1.1736058" />
    </filter>
    <filter
       height="1.0570984"
       y="-0.0285492"
       width="1.0632123"
       x="-0.031606145"
       id="filter4436"
       style="color-interpolation-filters:sRGB">
      <feGaussianBlur
         id="feGaussianBlur4438"
         stdDeviation="0.63519096" />
    </filter>
  </defs>
  <g
     id="g3423">
    <rect
       rx="28.399258"
       ry="32.089348"
       y="37.000042"
       x="67.83326"
       height="405.81046"
       width="343.78052"
       id="rect3003"
       style="fill:#ffb800;fill-opacity:1;stroke:none" />
    <path
       sodipodi:nodetypes="cczcczcccc"
       inkscape:connector-curvature="0"
       id="path3064"
       d="m 156.15384,442.76923 -60.461532,0.15385 c 0,0 -9.835596,-0.32006 -18.615385,-8.46154 C 68.297134,426.32005 67.692308,412 67.692308,412 L 68,68.307691 c 0,0 -0.158223,-12.325608 7.846154,-21.538461 8.004377,-9.212852 21.846154,-9.846154 21.846154,-9.846154 l 58.307692,0 0,0 z"
       style="fill:#666666;stroke:none;stroke-width:1px;stroke-linecap:butt;stroke-linejoin:miter;stroke-opacity:1" />
    <path
       transform="matrix(5.2625817,0,0,5.0233736,-1484.5174,-1450.1687)"
       d="m 306.15387,305.15384 a 3.2307694,3.3846154 0 1 1 -6.46154,0 3.2307694,3.3846154 0 1 1 6.46154,0 z"
       sodipodi:ry="3.3846154"
       sodipodi:rx="3.2307694"
       sodipodi:cy="305.15384"
       sodipodi:cx="302.9231"
       id="path3777"
       style="fill:#394050;fill-opacity:1;stroke:none"
       sodipodi:type="arc" />
    <path
       sodipodi:nodetypes="cczcczc"
       inkscape:connector-curvature="0"
       id="path3779"
       d="m 48.597345,93.382725 61.656245,0 c 0,0 9.06775,-0.782829 8.8748,-9.715584 -0.19285,-8.932707 -9.34187,-10.089147 -9.34187,-10.089147 l -61.936543,0.373562 c 0,0 -8.022652,1.736458 -7.847141,10.089196 0.175365,8.352737 8.594509,9.34207 8.594509,9.34207 z"
       style="fill:#cccccc;stroke:none" />
    <path
       transform="matrix(5.2625817,0,0,5.0233736,-1484.1253,-1406.5866)"
       d="m 306.15387,305.15384 a 3.2307694,3.3846154 0 1 1 -6.46154,0 3.2307694,3.3846154 0 1 1 6.46154,0 z"
       sodipodi:ry="3.3846154"
       sodipodi:rx="3.2307694"
       sodipodi:cy="305.15384"
       sodipodi:cx="302.9231"
       id="path3777-3"
       style="fill:#394050;fill-opacity:1;stroke:none"
       sodipodi:type="arc" />
    <path
       sodipodi:nodetypes="cczcczc"
       inkscape:connector-curvature="0"
       id="path3779-6"
       d="m 48.989367,136.96482 61.656243,0 c 0,0 9.06776,-0.78283 8.87481,-9.71558 -0.19286,-8.93271 -9.34188,-10.08915 -9.34188,-10.08915 l -61.936541,0.37356 c 0,0 -8.022652,1.73646 -7.847141,10.0892 0.175365,8.35274 8.594509,9.34207 8.594509,9.34207 z"
       style="fill:#cccccc;stroke:none" />
    <path
       transform="matrix(5.2625817,0,0,5.0233736,-1483.7929,-1363.3777)"
       d="m 306.15387,305.15384 a 3.2307694,3.3846154 0 1 1 -6.46154,0 3.2307694,3.3846154 0 1 1 6.46154,0 z"
       sodipodi:ry="3.3846154"
       sodipodi:rx="3.2307694"
       sodipodi:cy="305.15384"
       sodipodi:cx="302.9231"
       id="path3777-7"
       style="fill:#394050;fill-opacity:1;stroke:none"
       sodipodi:type="arc" />
    <path
       sodipodi:nodetypes="cczcczc"
       inkscape:connector-curvature="0"
       id="path3779-5"
       d="m 49.321784,180.17374 61.656246,0 c 0,0 9.06775,-0.78283 8.8748,-9.71558 -0.19285,-8.93271 -9.34187,-10.08915 -9.34187,-10.08915 l -61.936544,0.37357 c 0,0 -8.022652,1.73645 -7.847141,10.08919 0.175365,8.35274 8.594509,9.34207 8.594509,9.34207 z"
       style="fill:#cccccc;stroke:none" />
    <path
       transform="matrix(5.2625817,0,0,5.0233736,-1483.4008,-1319.7955)"
       d="m 306.15387,305.15384 a 3.2307694,3.3846154 0 1 1 -6.46154,0 3.2307694,3.3846154 0 1 1 6.46154,0 z"
       sodipodi:ry="3.3846154"
       sodipodi:rx="3.2307694"
       sodipodi:cy="305.15384"
       sodipodi:cx="302.9231"
       id="path3777-3-3"
       style="fill:#394050;fill-opacity:1;stroke:none"
       sodipodi:type="arc" />
    <path
       sodipodi:nodetypes="cczcczc"
       inkscape:connector-curvature="0"
       id="path3779-6-5"
       d="m 49.713806,223.75584 61.656244,0 c 0,0 9.06776,-0.78283 8.8748,-9.71558 -0.19285,-8.93271 -9.34187,-10.08915 -9.34187,-10.08915 l -61.936542,0.37356 c 0,0 -8.022652,1.73646 -7.847141,10.0892 0.175365,8.35273 8.594509,9.34207 8.594509,9.34207 z"
       style="fill:#cccccc;stroke:none" />
    <path
       transform="matrix(5.2625817,0,0,5.0233736,-1483.5934,-1276.3109)"
       d="m 306.15387,305.15384 a 3.2307694,3.3846154 0 1 1 -6.46154,0 3.2307694,3.3846154 0 1 1 6.46154,0 z"
       sodipodi:ry="3.3846154"
       sodipodi:rx="3.2307694"
       sodipodi:cy="305.15384"
       sodipodi:cx="302.9231"
       id="path3777-6"
       style="fill:#394050;fill-opacity:1;stroke:none"
       sodipodi:type="arc" />
    <path
       sodipodi:nodetypes="cczcczc"
       inkscape:connector-curvature="0"
       id="path3779-2"
       d="m 49.521244,267.24054 61.656246,0 c 0,0 9.06775,-0.78283 8.8748,-9.71559 -0.19285,-8.9327 -9.34187,-10.08914 -9.34187,-10.08914 l -61.936544,0.37356 c 0,0 -8.022652,1.73646 -7.847141,10.08919 0.175365,8.35274 8.594509,9.34208 8.594509,9.34208 z"
       style="fill:#cccccc;stroke:none" />
    <path
       transform="matrix(5.2625817,0,0,5.0233736,-1483.2013,-1232.7287)"
       d="m 306.15387,305.15384 a 3.2307694,3.3846154 0 1 1 -6.46154,0 3.2307694,3.3846154 0 1 1 6.46154,0 z"
       sodipodi:ry="3.3846154"
       sodipodi:rx="3.2307694"
       sodipodi:cy="305.15384"
       sodipodi:cx="302.9231"
       id="path3777-3-9"
       style="fill:#394050;fill-opacity:1;stroke:none"
       sodipodi:type="arc" />
    <path
       sodipodi:nodetypes="cczcczc"
       inkscape:connector-curvature="0"
       id="path3779-6-1"
       d="m 49.913265,310.82263 61.656245,0 c 0,0 9.06776,-0.78283 8.8748,-9.71558 -0.19285,-8.93271 -9.34187,-10.08915 -9.34187,-10.08915 l -61.936542,0.37357 c 0,0 -8.022652,1.73645 -7.847141,10.08919 0.175365,8.35274 8.594508,9.34207 8.594508,9.34207 z"
       style="fill:#cccccc;stroke:none" />
    <path
       transform="matrix(5.2625817,0,0,5.0233736,-1482.8689,-1189.5198)"
       d="m 306.15387,305.15384 a 3.2307694,3.3846154 0 1 1 -6.46154,0 3.2307694,3.3846154 0 1 1 6.46154,0 z"
       sodipodi:ry="3.3846154"
       sodipodi:rx="3.2307694"
       sodipodi:cy="305.15384"
       sodipodi:cx="302.9231"
       id="path3777-7-2"
       style="fill:#394050;fill-opacity:1;stroke:none"
       sodipodi:type="arc" />
    <path
       sodipodi:nodetypes="cczcczc"
       inkscape:connector-curvature="0"
       id="path3779-5-7"
       d="m 50.245683,354.03156 61.656247,0 c 0,0 9.06775,-0.78283 8.8748,-9.71559 -0.19285,-8.9327 -9.34187,-10.08914 -9.34187,-10.08914 l -61.936545,0.37356 c 0,0 -8.022652,1.73646 -7.847141,10.08919 0.175365,8.35274 8.594509,9.34207 8.594509,9.34207 z"
       style="fill:#cccccc;stroke:none" />
    <path
       transform="matrix(5.2625817,0,0,5.0233736,-1482.4768,-1145.9377)"
       d="m 306.15387,305.15384 a 3.2307694,3.3846154 0 1 1 -6.46154,0 3.2307694,3.3846154 0 1 1 6.46154,0 z"
       sodipodi:ry="3.3846154"
       sodipodi:rx="3.2307694"
       sodipodi:cy="305.15384"
       sodipodi:cx="302.9231"
       id="path3777-3-3-0"
       style="fill:#394050;fill-opacity:1;stroke:none"
       sodipodi:type="arc" />
    <path
       sodipodi:nodetypes="cczcczc"
       inkscape:connector-curvature="0"
       id="path3779-6-5-9"
       d="m 50.637704,397.61365 61.656246,0 c 0,0 9.06775,-0.78283 8.8748,-9.71558 -0.19285,-8.93271 -9.34187,-10.08915 -9.34187,-10.08915 l -61.936543,0.37356 c 0,0 -8.022652,1.73646 -7.847141,10.0892 0.175365,8.35274 8.594508,9.34207 8.594508,9.34207 z"
       style="fill:#cccccc;stroke:none" />
    <g
       id="g3409">
      <circle
         id="path3359"
         style="fill:#666666;fill-opacity:1;stroke:none"
         cx="199.64014"
         cy="82.73304"
         r="17.002188" />
      <rect
         style="fill:#666666;fill-opacity:1;stroke:none;stroke-width:7;stroke-linecap:round;stroke-miterlimit:4;stroke-dasharray:none;stroke-opacity:1"
         id="rect3361"
         width="172.30769"
         height="13.538462"
         x="208.61539"
         y="75.437401"
         rx="0"
         ry="0" />
      <circle
         r="17.002188"
         cy="142.73303"
         cx="199.64014"
         style="fill:#666666;fill-opacity:1;stroke:none"
         id="circle3369" />
      <rect
         ry="0"
         rx="0"
         y="135.43741"
         x="208.61539"
         height="13.538462"
         width="172.30769"
         id="rect3371"
         style="fill:#666666;fill-opacity:1;stroke:none;stroke-width:7;stroke-linecap:round;stroke-miterlimit:4;stroke-dasharray:none;stroke-opacity:1" />
      <circle
         r="17.002188"
         cy="202.73303"
         cx="199.64014"
         style="fill:#666666;fill-opacity:1;stroke:none"
         id="circle3375" />
      <rect
         ry="0"
         rx="0"
         y="195.43741"
         x="208.61539"
         height="13.538462"
         width="172.30769"
         id="rect3377"
         style="fill:#666666;fill-opacity:1;stroke:none;stroke-width:7;stroke-linecap:round;stroke-miterlimit:4;stroke-dasharray:none;stroke-opacity:1" />
      <circle
         id="circle3381"
         style="fill:#666666;fill-opacity:1;stroke:none"
         cx="199.64014"
         cy="262.73303"
         r="17.002188" />
      <rect
         style="fill:#666666;fill-opacity:1;stroke:none;stroke-width:7;stroke-linecap:round;stroke-miterlimit:4;stroke-dasharray:none;stroke-opacity:1"
         id="rect3383"
         width="172.30769"
         height="13.538462"
         x="208.61539"
         y="255.43741"
         rx="0"
         ry="0" />
      <circle
         id="circle3387"
         style="fill:#666666;fill-opacity:1;stroke:none"
         cx="199.64014"
         cy="320.73303"
         r="17.002188" />
      <rect
         style="fill:#666666;fill-opacity:1;stroke:none;stroke-width:7;stroke-linecap:round;stroke-miterlimit:4;stroke-dasharray:none;stroke-opacity:1"
         id="rect3389"
         width="172.30769"
         height="13.538462"
         x="208.61539"
         y="313.43741"
         rx="0"
         ry="0" />
      <circle
         r="17.002188"
         cy="380.73303"
         cx="199.64014"
         style="fill:#666666;fill-opacity:1;stroke:none"
         id="circle3393" />
      <rect
         ry="0"
         rx="0"
         y="373.43741"
         x="208.61539"
         height="13.538462"
         width="172.30769"
         id="rect3395"
         style="fill:#666666;fill-opacity:1;stroke:none;stroke-width:7;stroke-linecap:round;stroke-miterlimit:4;stroke-dasharray:none;stroke-opacity:1" />
    </g>
  </g>
</svg>
