<?xml version="1.0" encoding="UTF-8" standalone="no"?>
<!-- Generator: flash2svg, http://dissentgraphics.com/tools/flash2svg -->

<svg
   xmlns:dc="http://purl.org/dc/elements/1.1/"
   xmlns:cc="http://creativecommons.org/ns#"
   xmlns:rdf="http://www.w3.org/1999/02/22-rdf-syntax-ns#"
   xmlns:svg="http://www.w3.org/2000/svg"
   xmlns="http://www.w3.org/2000/svg"
   xmlns:sodipodi="http://sodipodi.sourceforge.net/DTD/sodipodi-0.dtd"
   xmlns:inkscape="http://www.inkscape.org/namespaces/inkscape"
   id="Calibre"
   image-rendering="optimizeSpeed"
   version="1.1"
   x="0px"
   y="0px"
   width="500"
   height="500"
   viewBox="0 0 500 500"
   enable-background="new 0 0 1024 1024"
   inkscape:version="0.91 r13725"
   sodipodi:docname="tellico.svg">
  <metadata
     id="metadata53">
    <rdf:RDF>
      <cc:Work
         rdf:about="">
        <dc:format>image/svg+xml</dc:format>
        <dc:type
           rdf:resource="http://purl.org/dc/dcmitype/StillImage" />
      </cc:Work>
    </rdf:RDF>
  </metadata>
  <sodipodi:namedview
     pagecolor="#ffffff"
     bordercolor="#666666"
     borderopacity="1"
     objecttolerance="10"
     gridtolerance="10"
     guidetolerance="10"
     inkscape:pageopacity="0"
     inkscape:pageshadow="2"
     inkscape:window-width="1366"
     inkscape:window-height="715"
     id="namedview51"
     showgrid="false"
     inkscape:zoom="0.65186406"
     inkscape:cx="605.48033"
     inkscape:cy="234.19451"
     inkscape:window-x="0"
     inkscape:window-y="24"
     inkscape:window-maximized="1"
     inkscape:current-layer="Calibre" />
  <defs
     transform="matrix(1 0 0 1 0 0) "
     id="defs3" />
  <g
     id="g3406"
     transform="matrix(1.0960133,0,0,1.0960133,-44.886469,-45.864819)">
    <g
       style="fill:#502d16"
       transform="matrix(0,-0.79238219,0.79238219,0,-106.34075,623.05467)"
       id="Calque.__211">
      <g
         style="fill:#502d16"
         id="shape44">
        <path
           style="fill:#502d16;fill-opacity:1"
           inkscape:connector-curvature="0"
           d="m 354,240.1 q 0,-20 -20,-20 l -130.55,0 c -13.35,0 -20,6.65 -20,20 l 0,464.1 c 0,13.35 6.65,20 20,20 l 130.55,0 c 13.35,0 20,-6.65 20,-20 l 0,-464.1 z"
           id="path31" />
      </g>
    </g>
    <g
       transform="matrix(0,-0.79238219,0.79238219,0,-136.4244,635.94767)"
       id="Symbole.__2039">
      <g
         id="shape45">
        <path
           style="fill:#aa8356;fill-opacity:1"
           inkscape:connector-curvature="0"
           d="m 307.7,323.4 c -3.9,-3.9 -8.6,-5.85 -14.15,-5.85 l -18,0 c -5.55,0 -10.25,1.95 -14.15,5.85 -3.9,3.9 -5.85,8.6 -5.85,14.15 l 0,18 c 0,5.55 1.95,10.25 5.85,14.15 3.9,3.9 8.6,5.85 14.15,5.85 l 18,0 c 5.55,0 10.25,-1.95 14.15,-5.85 3.9,-3.9 5.85,-8.6 5.85,-14.15 l 0,-18 c 0,-5.55 -1.95,-10.25 -5.85,-14.15 z m 0,116 c -3.9,-3.9 -8.6,-5.85 -14.15,-5.85 l -18,0 c -5.55,0 -10.25,1.95 -14.15,5.85 -3.9,3.9 -5.85,8.6 -5.85,14.15 l 0,18 c 0,5.55 1.95,10.25 5.85,14.15 3.9,3.9 8.6,5.85 14.15,5.85 l 18,0 c 5.55,0 10.25,-1.95 14.15,-5.85 3.9,-3.9 5.85,-8.6 5.85,-14.15 l 0,-18 c 0,-5.55 -1.95,-10.25 -5.85,-14.15 z m 5.85,130.15 c 0,-5.55 -1.95,-10.25 -5.85,-14.15 -3.9,-3.9 -8.6,-5.85 -14.15,-5.85 l -18,0 c -5.55,0 -10.25,1.95 -14.15,5.85 -3.9,3.9 -5.85,8.6 -5.85,14.15 l 0,18 c 0,5.55 1.95,10.25 5.85,14.15 3.9,3.9 8.6,5.85 14.15,5.85 l 18,0 c 5.55,0 10.25,-1.95 14.15,-5.85 3.9,-3.9 5.85,-8.6 5.85,-14.15 l 0,-18 z m 0,116 c 0,-5.55 -1.95,-10.25 -5.85,-14.15 -3.9,-3.9 -8.6,-5.85 -14.15,-5.85 l -18,0 c -5.55,0 -10.25,1.95 -14.15,5.85 -3.9,3.9 -5.85,8.6 -5.85,14.15 l 0,18 c 0,5.55 1.95,10.25 5.85,14.15 3.9,3.9 8.6,5.85 14.15,5.85 l 18,0 c 5.55,0 10.25,-1.95 14.15,-5.85 3.9,-3.9 5.85,-8.6 5.85,-14.15 l 0,-18 z"
           id="path32" />
      </g>
    </g>
    <g
       transform="matrix(0,-0.79238219,0.79238219,0,-106.34075,629.93093)"
       id="circle2">
      <g
         style="overflow:visible"
         overflow="visible"
         id="Symbole.__2032_1">
        <g
           id="Calque.__212">
          <g
             id="shape46">
            <path
               style="fill:#5d6a7b;fill-opacity:1"
               inkscape:connector-curvature="0"
               d="m 530,332 c 0,-13.35 -6.65,-20 -20,-20 l -126,0 q -20,0 -20,20 l 0,372.2 c 0,13.35 6.65,20 20,20 l 126,0 c 13.35,0 20,-6.65 20,-20 L 530,332 Z"
               id="path33" />
          </g>
        </g>
        <g
           style="fill:#cccccc"
           id="Calque.__213">
          <g
             style="fill:#cccccc"
             id="shape47">
            <path
               style="fill:#cccccc;fill-opacity:1"
               inkscape:connector-curvature="0"
               d="m 530.5,379.1 0,-26 -166,0 0,26 166,0 z m 0,303 0,-26 -166,0 0,26 166,0 z"
               id="path34" />
          </g>
        </g>
      </g>
    </g>
    <g
       transform="matrix(0.28914333,-0.73774363,0.73774363,0.28914333,-295.46278,590.42351)"
       id="Calque.__205">
      <g
         style="overflow:visible"
         overflow="visible"
         id="Symbole.__2034_1">
        <g
           id="Calque.__214">
          <g
             id="shape48">
            <path
               style="fill:#00bbf2;fill-opacity:1"
               inkscape:connector-curvature="0"
               d="m 809.87,391.327 -6.629,-16.842 c -4.89,-12.423 -13.513,-16.175 -25.936,-11.286 l -83.746,32.964 c -12.422,4.889 -16.174,13.513 -11.285,25.935 l 6.629,16.842 120.967,-47.613 z m 90.571,284.71 c 12.422,-4.889 16.174,-13.513 11.285,-25.935 l -94.531,-240.165 -120.966,47.613 94.53,240.165 c 4.89,12.423 13.513,16.175 25.936,11.286 l 83.746,-32.964 z M 854.042,587.37 c 12.254,5.333 20.868,14.247 25.776,26.716 4.907,12.469 4.681,24.863 -0.651,37.118 -5.332,12.254 -14.247,20.868 -26.716,25.775 -12.469,4.908 -24.863,4.682 -37.117,-0.65 -12.255,-5.332 -20.868,-14.247 -25.776,-26.716 -4.908,-12.469 -4.682,-24.863 0.651,-37.117 5.332,-12.255 14.247,-20.868 26.715,-25.776 12.469,-4.908 24.863,-4.682 37.118,0.65 z"
               id="path35" />
            <path
               style="fill:#004455;fill-opacity:1"
               inkscape:connector-curvature="0"
               d="m 817.195,409.937 -7.325,-18.61 -120.967,47.613 7.326,18.61 120.966,-47.613 z"
               id="path36" />
            <path
               style="fill:#004455;fill-opacity:1"
               inkscape:connector-curvature="0"
               d="m 854.042,587.37 c -12.255,-5.332 -24.649,-5.558 -37.118,-0.65 -12.468,4.908 -21.383,13.521 -26.715,25.776 -5.333,12.254 -5.559,24.648 -0.651,37.117 4.908,12.469 13.521,21.384 25.776,26.716 12.254,5.332 24.648,5.558 37.117,0.65 12.469,-4.907 21.384,-13.521 26.716,-25.775 5.332,-12.255 5.558,-24.649 0.651,-37.118 -4.908,-12.469 -13.522,-21.383 -25.776,-26.716 z"
               id="path37" />
          </g>
        </g>
      </g>
    </g>
  </g>
</svg>
