<?xml version="1.0" encoding="UTF-8" standalone="no"?>
<svg
   xmlns:dc="http://purl.org/dc/elements/1.1/"
   xmlns:cc="http://creativecommons.org/ns#"
   xmlns:rdf="http://www.w3.org/1999/02/22-rdf-syntax-ns#"
   xmlns:svg="http://www.w3.org/2000/svg"
   xmlns="http://www.w3.org/2000/svg"
   xmlns:xlink="http://www.w3.org/1999/xlink"
   xmlns:sodipodi="http://sodipodi.sourceforge.net/DTD/sodipodi-0.dtd"
   xmlns:inkscape="http://www.inkscape.org/namespaces/inkscape"
   version="1.1"
   width="500"
   height="500"
   viewBox="0 0 500 500"
   id="svg2"
   inkscape:version="0.48.5 r10040"
   sodipodi:docname="mozilla-thunderbird.svg">
  <metadata
     id="metadata259">
    <rdf:RDF>
      <cc:Work
         rdf:about="">
        <dc:format>image/svg+xml</dc:format>
        <dc:type
           rdf:resource="http://purl.org/dc/dcmitype/StillImage" />
      </cc:Work>
    </rdf:RDF>
  </metadata>
  <defs
     id="defs257">
    <radialGradient
       inkscape:collect="always"
       xlink:href="#SVGID_24_"
       id="radialGradient4031"
       gradientUnits="userSpaceOnUse"
       gradientTransform="matrix(0.205,0,0,-0.205,-254.2424,82.5027)"
       cx="1311.9355"
       cy="-1874.3018"
       r="8.5094995" />
    <radialGradient
       inkscape:collect="always"
       xlink:href="#SVGID_25_"
       id="radialGradient4033"
       gradientUnits="userSpaceOnUse"
       gradientTransform="matrix(0.205,0,0,-0.205,-254.2424,82.5027)"
       cx="1312.9648"
       cy="-1872.2422"
       r="3.7997" />
    <radialGradient
       inkscape:collect="always"
       xlink:href="#SVGID_26_"
       id="radialGradient4035"
       gradientUnits="userSpaceOnUse"
       gradientTransform="matrix(0.205,0,0,-0.205,-254.2424,82.5027)"
       cx="1304.8555"
       cy="-1894.6313"
       r="12.9691" />
    <radialGradient
       inkscape:collect="always"
       xlink:href="#SVGID_27_"
       id="radialGradient4037"
       gradientUnits="userSpaceOnUse"
       gradientTransform="matrix(0.205,0,0,-0.205,-254.2424,82.5027)"
       cx="1300.6055"
       cy="-1889.6313"
       r="3.7781999" />
  </defs>
  <sodipodi:namedview
     pagecolor="#ffffff"
     bordercolor="#666666"
     borderopacity="1"
     objecttolerance="10"
     gridtolerance="10"
     guidetolerance="10"
     inkscape:pageopacity="0"
     inkscape:pageshadow="2"
     inkscape:window-width="1366"
     inkscape:window-height="716"
     id="namedview255"
     showgrid="false"
     inkscape:zoom="0.61458333"
     inkscape:cx="755.18203"
     inkscape:cy="252.52722"
     inkscape:window-x="0"
     inkscape:window-y="0"
     inkscape:window-maximized="1"
     inkscape:current-layer="svg2" />
  <title
     id="title4">Mozilla Thunderbird Logo</title>
  <radialGradient
     id="SVGID_1_"
     cx="1364.6104"
     cy="-1930.6328"
     r="90.997101"
     gradientTransform="matrix(0.205,0,0,-0.205,-254.2424,-369.4973)"
     gradientUnits="userSpaceOnUse">
    <stop
       offset="0"
       stop-color="#000"
       id="stop7" />
    <stop
       offset="0.5"
       stop-color="#000"
       id="stop9" />
    <stop
       offset="1"
       stop-color="#000"
       stop-opacity="0"
       id="stop11" />
  </radialGradient>
  <radialGradient
     id="SVGID_2_"
     cx="1405.1074"
     cy="-1982.8042"
     r="126.3021"
     gradientTransform="matrix(0.205,0,0,-0.205,-254.2424,-369.4973)"
     gradientUnits="userSpaceOnUse">
    <stop
       offset="0"
       stop-color="#F2BE7F"
       id="stop18" />
    <stop
       offset="1"
       stop-color="#FFFFDC"
       id="stop20" />
  </radialGradient>
  <linearGradient
     id="SVGID_3_"
     gradientUnits="userSpaceOnUse"
     x1="1353.4873"
     y1="-1886.2114"
     x2="1347.8073"
     y2="-1852.7512"
     gradientTransform="matrix(0.205,0,0,-0.205,-254.2424,-369.4973)">
    <stop
       offset="0"
       stop-color="#C3AD7B"
       id="stop25" />
    <stop
       offset="1"
       stop-color="#A25F00"
       id="stop27" />
  </linearGradient>
  <radialGradient
     id="SVGID_4_"
     cx="1403.1055"
     cy="-1894.1328"
     r="90.871101"
     gradientTransform="matrix(0.205,0,0,-0.205,-254.2424,-369.4973)"
     gradientUnits="userSpaceOnUse">
    <stop
       offset="0"
       stop-color="#F2BE7F"
       id="stop34" />
    <stop
       offset="1"
       stop-color="#FFFFDC"
       id="stop36" />
  </radialGradient>
  <linearGradient
     id="SVGID_5_"
     gradientUnits="userSpaceOnUse"
     x1="1333.5117"
     y1="-1978.5034"
     x2="1335.8235"
     y2="-1971.3778"
     gradientTransform="matrix(0.205,0,0,-0.205,-254.2424,-369.4973)">
    <stop
       offset="0"
       stop-color="#AA944B"
       id="stop41" />
    <stop
       offset="1"
       stop-color="#AA944B"
       stop-opacity="0"
       id="stop43" />
  </linearGradient>
  <linearGradient
     id="SVGID_6_"
     gradientUnits="userSpaceOnUse"
     x1="1288.2754"
     y1="-1891.1548"
     x2="1288.2754"
     y2="-1865.1934"
     gradientTransform="matrix(0.205,0,0,-0.205,-254.2424,-369.4973)">
    <stop
       offset="0.01"
       stop-color="#D2B170"
       id="stop52" />
    <stop
       offset="1"
       stop-color="#A25F00"
       id="stop54" />
  </linearGradient>
  <linearGradient
     id="SVGID_7_"
     gradientUnits="userSpaceOnUse"
     x1="1338.873"
     y1="-1931.3857"
     x2="1338.873"
     y2="-1878.4302"
     gradientTransform="matrix(0.205,0,0,-0.205,-254.2424,-369.4973)">
    <stop
       offset="0"
       stop-color="#A25F00"
       stop-opacity="0"
       id="stop59" />
    <stop
       offset="1"
       stop-color="#A25F00"
       id="stop61" />
  </linearGradient>
  <linearGradient
     id="SVGID_8_"
     gradientUnits="userSpaceOnUse"
     x1="1282.5801"
     y1="-1994.7744"
     x2="1282.5801"
     y2="-1972.9629"
     gradientTransform="matrix(0.205,0,0,-0.205,-254.2424,-369.4973)">
    <stop
       offset="0"
       stop-color="#A4D8E5"
       id="stop68" />
    <stop
       offset="0.5"
       stop-color="#0C418F"
       id="stop70" />
    <stop
       offset="1"
       stop-color="#000060"
       id="stop72" />
  </linearGradient>
  <linearGradient
     id="SVGID_9_"
     gradientUnits="userSpaceOnUse"
     x1="1269.082"
     y1="-1977.5093"
     x2="1269.082"
     y2="-1948.7203"
     gradientTransform="matrix(0.205,0,0,-0.205,-254.2424,-369.4973)">
    <stop
       offset="0"
       stop-color="#A4D8E5"
       id="stop77" />
    <stop
       offset="0.5"
       stop-color="#0C418F"
       id="stop79" />
    <stop
       offset="1"
       stop-color="#000060"
       id="stop81" />
  </linearGradient>
  <radialGradient
     id="SVGID_10_"
     cx="1295.1045"
     cy="-1874.1318"
     r="77.830002"
     gradientTransform="matrix(0.205,0,0,-0.205,-254.2424,-369.4973)"
     gradientUnits="userSpaceOnUse">
    <stop
       offset="0"
       stop-color="#000060"
       id="stop86" />
    <stop
       offset="0.5"
       stop-color="#0C418F"
       id="stop88" />
    <stop
       offset="1"
       stop-color="#A4D8E5"
       id="stop90" />
  </radialGradient>
  <radialGradient
     id="SVGID_11_"
     cx="1310.8545"
     cy="-1861.3813"
     r="71.419899"
     gradientTransform="matrix(0.205,0,0,-0.205,-254.2424,-369.4973)"
     gradientUnits="userSpaceOnUse">
    <stop
       offset="0"
       stop-color="#000060"
       id="stop97" />
    <stop
       offset="0.5"
       stop-color="#0C418F"
       id="stop99" />
    <stop
       offset="1"
       stop-color="#A4D8E5"
       id="stop101" />
  </radialGradient>
  <linearGradient
     id="SVGID_12_"
     gradientUnits="userSpaceOnUse"
     x1="1300.1016"
     y1="-1832.4663"
     x2="1262.5785"
     y2="-1897.4489"
     gradientTransform="matrix(0.205,0,0,-0.205,-254.2424,-369.4973)">
    <stop
       offset="0.01"
       stop-color="#1B609D"
       id="stop106" />
    <stop
       offset="0.5"
       stop-color="#9FD2E5"
       id="stop108" />
    <stop
       offset="1"
       stop-color="#4187B8"
       id="stop110" />
  </linearGradient>
  <linearGradient
     id="SVGID_13_"
     gradientUnits="userSpaceOnUse"
     x1="1319.8086"
     y1="-1831.4575"
     x2="1376.8387"
     y2="-1888.4877"
     gradientTransform="matrix(0.205,0,0,-0.205,-254.2424,-369.4973)">
    <stop
       offset="0"
       stop-color="#A4D8E5"
       id="stop117" />
    <stop
       offset="0.67"
       stop-color="#0C418F"
       id="stop119" />
    <stop
       offset="1"
       stop-color="#000040"
       id="stop121" />
  </linearGradient>
  <linearGradient
     id="SVGID_14_"
     gradientUnits="userSpaceOnUse"
     x1="1324.9297"
     y1="-1843.6299"
     x2="1314.8765"
     y2="-1816.001"
     gradientTransform="matrix(0.205,0,0,-0.205,-254.2424,-369.4973)">
    <stop
       offset="0"
       stop-color="#A4D8E5"
       id="stop128" />
    <stop
       offset="1"
       stop-color="#0C418F"
       id="stop130" />
  </linearGradient>
  <linearGradient
     id="SVGID_15_"
     gradientUnits="userSpaceOnUse"
     x1="1368.5625"
     y1="-2029.248"
     x2="1423.7561"
     y2="-1933.6617"
     gradientTransform="matrix(0.205,0,0,-0.205,-254.2424,-369.4973)">
    <stop
       offset="0.01"
       stop-color="#B4B4DC"
       id="stop137" />
    <stop
       offset="1"
       stop-color="#000"
       id="stop139" />
  </linearGradient>
  <linearGradient
     id="SVGID_16_"
     gradientUnits="userSpaceOnUse"
     x1="1392.5898"
     y1="-2031.2383"
     x2="1421.574"
     y2="-1981.0312"
     gradientTransform="matrix(0.205,0,0,-0.205,-254.2424,-369.4973)">
    <stop
       offset="0.01"
       stop-color="#B4B4DC"
       id="stop144" />
    <stop
       offset="1"
       stop-color="#000"
       id="stop146" />
  </linearGradient>
  <linearGradient
     id="SVGID_17_"
     gradientUnits="userSpaceOnUse"
     x1="1439.1709"
     y1="-1978.9556"
     x2="1439.1709"
     y2="-1879.3838"
     gradientTransform="matrix(0.205,0,0,-0.205,-254.2424,-369.4973)">
    <stop
       offset="0"
       stop-color="#6498C1"
       id="stop155" />
    <stop
       offset="0.2"
       stop-color="#0C418F"
       id="stop157" />
    <stop
       offset="1"
       stop-color="#000040"
       id="stop159" />
  </linearGradient>
  <linearGradient
     id="SVGID_18_"
     gradientUnits="userSpaceOnUse"
     x1="1438.6904"
     y1="-1956.8853"
     x2="1438.6904"
     y2="-1867.8124"
     gradientTransform="matrix(0.205,0,0,-0.205,-254.2424,-369.4973)">
    <stop
       offset="0"
       stop-color="#A4D8E5"
       id="stop168" />
    <stop
       offset="0.2"
       stop-color="#0C418F"
       id="stop170" />
    <stop
       offset="0.5"
       stop-color="#000040"
       id="stop172" />
  </linearGradient>
  <linearGradient
     id="SVGID_19_"
     gradientUnits="userSpaceOnUse"
     x1="1404.6113"
     y1="-1941.8643"
     x2="1404.6113"
     y2="-1890.613"
     gradientTransform="matrix(0.205,0,0,-0.205,-254.2424,-369.4973)">
    <stop
       offset="0"
       stop-color="#A4D8E5"
       id="stop177" />
    <stop
       offset="0.5"
       stop-color="#0C418F"
       id="stop179" />
    <stop
       offset="1"
       stop-color="#000060"
       id="stop181" />
  </linearGradient>
  <linearGradient
     id="SVGID_20_"
     gradientUnits="userSpaceOnUse"
     x1="1385.6338"
     y1="-1840.5557"
     x2="1424.6338"
     y2="-1895.0557"
     gradientTransform="matrix(0.205,0,0,-0.205,-254.2424,-369.4973)">
    <stop
       offset="0"
       stop-color="#4187B8"
       id="stop186" />
    <stop
       offset="1"
       stop-color="#074E92"
       id="stop188" />
  </linearGradient>
  <linearGradient
     id="SVGID_21_"
     gradientUnits="userSpaceOnUse"
     x1="1415.5928"
     y1="-1878.2056"
     x2="1388.0631"
     y2="-1830.5262"
     gradientTransform="matrix(0.205,0,0,-0.205,-254.2424,-369.4973)">
    <stop
       offset="0.01"
       stop-color="#1B609D"
       id="stop193" />
    <stop
       offset="0.5"
       stop-color="#9FD2E5"
       id="stop195" />
    <stop
       offset="1"
       stop-color="#4187B8"
       id="stop197" />
  </linearGradient>
  <linearGradient
     id="SVGID_22_"
     gradientUnits="userSpaceOnUse"
     x1="1303.6699"
     y1="-1882.04"
     x2="1347.9393"
     y2="-1837.7706"
     gradientTransform="matrix(0.205,0,0,-0.205,-254.2424,-369.4973)">
    <stop
       offset="0"
       stop-color="#A5B4D3"
       id="stop206" />
    <stop
       offset="1"
       stop-color="#A5B4D3"
       stop-opacity="0.33"
       id="stop208" />
  </linearGradient>
  <linearGradient
     id="SVGID_23_"
     gradientUnits="userSpaceOnUse"
     x1="1301.4932"
     y1="-1879.8628"
     x2="1345.7626"
     y2="-1835.5934"
     gradientTransform="matrix(0.205,0,0,-0.205,-254.2424,-369.4973)">
    <stop
       offset="0"
       stop-color="#264B92"
       id="stop213" />
    <stop
       offset="1"
       stop-color="#264B92"
       stop-opacity="0.33"
       id="stop215" />
  </linearGradient>
  <radialGradient
     id="SVGID_24_"
     cx="1311.9355"
     cy="-1874.3018"
     r="8.5094995"
     gradientTransform="matrix(0.205,0,0,-0.205,-254.2424,82.5027)"
     gradientUnits="userSpaceOnUse">
    <stop
       offset="0"
       stop-color="#600000"
       id="stop222" />
    <stop
       offset="0.5"
       stop-color="#C00000"
       id="stop224" />
    <stop
       offset="1"
       stop-color="#F6AA00"
       id="stop226" />
  </radialGradient>
  <radialGradient
     id="SVGID_25_"
     cx="1312.9648"
     cy="-1872.2422"
     r="3.7997"
     gradientTransform="matrix(0.205,0,0,-0.205,-254.2424,82.5027)"
     gradientUnits="userSpaceOnUse">
    <stop
       offset="0.01"
       stop-color="#FFF"
       id="stop231" />
    <stop
       offset="1"
       stop-color="#000"
       id="stop233" />
  </radialGradient>
  <radialGradient
     id="SVGID_26_"
     cx="1304.8555"
     cy="-1894.6313"
     r="12.9691"
     gradientTransform="matrix(0.205,0,0,-0.205,-254.2424,82.5027)"
     gradientUnits="userSpaceOnUse">
    <stop
       offset="0"
       stop-color="#769EB8"
       id="stop238" />
    <stop
       offset="1"
       stop-color="#FFF"
       id="stop240" />
  </radialGradient>
  <radialGradient
     id="SVGID_27_"
     cx="1300.6055"
     cy="-1889.6313"
     r="3.7781999"
     gradientTransform="matrix(0.205,0,0,-0.205,-254.2424,82.5027)"
     gradientUnits="userSpaceOnUse">
    <stop
       offset="0.01"
       stop-color="#FFF"
       id="stop247" />
    <stop
       offset="1"
       stop-color="#000"
       id="stop249" />
  </radialGradient>
  <g
     id="g4004"
     transform="matrix(9.9982225,0,0,9.9982225,7.4664713,-4504.6147)">
    <path
       inkscape:connector-curvature="0"
       style="fill:#e6e6e6;stroke:none"
       id="path22"
       d="m 36.719,472.388 -19.566,7.362 -8.993,-14.302 -3.924,5.023 2.696,13.728 25.046,8.109 5.885,-9.996 -1.144,-9.924 z" />
    <path
       inkscape:connector-curvature="0"
       style="fill:#cccccc;stroke:none"
       id="path38"
       d="m 36.719,472.388 -0.388,-3.362 -27.779,-4.079 -0.147,0.187 -0.245,0.314 8.993,14.302 19.566,-7.362 z" />
    <path
       inkscape:connector-curvature="0"
       style="fill:#0b2228"
       id="path65"
       d="m 15.614,487.01 -8.682,-2.811 -1.029,-4.314 -1.821,-0.597 c 0,0 1.896,5.946 5.278,10.724 6.854,4.777 5.179,2.45 5.186,2.45 1.226,0.718 2.046,0.718 2.052,0.718 -0.004,-0.718 -3.08,-0.871 -3.945,-5.741 0.918,1.845 4.609,2.87 4.82,2.665 0.135,-0.137 -0.45,-1.145 -1.755,-3.023 l -0.104,-0.071 z" />
    <path
       inkscape:connector-curvature="0"
       style="fill:#0b2228"
       id="path74"
       d="m 13.053,491.848 c 0,0 -4.378,-0.298 -8.104,-7.686 -2.2,-7.643 2.903,4.396 8.109,7.686 h -0.005 z" />
    <path
       inkscape:connector-curvature="0"
       style="fill:#164450"
       id="path83"
       d="m 2.784,474.99 c 0,0 0.529,11.525 6.379,13.422 C 6.185,484.363 5.341,476.469 5.347,476.469 L 2.784,474.99 z" />
    <path
       inkscape:connector-curvature="0"
       style="fill:#216778"
       id="path92"
       d="m 6.235,482.313 c -1.23,0.256 -3.562,-4.05 -3.479,-8.509 0.049,-2.973 0.56,-5.348 1.532,-7.125 l 1.025,8.458 c 0,0 0,5.792 0.929,7.177 H 6.235 z" />
    <path
       inkscape:connector-curvature="0"
       style="fill:#00222b"
       id="path94"
       d="m 21.972,455.605 c 0,0 -14.046,2.256 -17.679,11.072 -2.491,6.23 3.147,11.561 3.999,10.715 -0.004,0 -3.062,-3.98 -0.049,-9.926 2.003,-3.965 6.58,-7.918 13.729,-11.861 z" />
    <path
       inkscape:connector-curvature="0"
       style="fill:#00bbf2"
       id="path103"
       d="m 21.972,455.605 c 0,0 -14.046,2.256 -17.679,11.072 -2.491,6.23 3.147,11.561 3.999,10.715 -0.004,0 -3.9,-4.614 -0.459,-10.868 2.288,-4.169 7,-7.809 14.139,-10.919 z" />
    <path
       inkscape:connector-curvature="0"
       style="fill:#00222b"
       id="path114"
       d="m 35.734,457.886 c -1.066,-0.997 -3.541,-1.663 -4.943,-1.948 -1.208,-0.242 -2.494,-0.32 -3.711,-0.41 -0.842,-0.06 -3.236,-0.015 -4.253,0.09 -2.567,0.266 -3.595,1.214 -5.659,2.673 -1.893,1.331 -4.677,2.781 -5.5,5.108 -0.652,1.292 -0.065,3.354 -0.035,4.624 l 0.035,0.894 c -0.039,-0.063 -0.057,-0.103 -0.051,-0.103 0.006,0 -1.14,2.828 0.133,4.101 0.012,-0.115 0.039,-0.228 0.084,-0.338 l -0.082,0.338 c 0,0 0.556,-1.017 1.577,-1.548 1.021,-0.531 1.958,-1 2.721,-1.46 0.763,-0.459 3.153,-2.374 5.102,-2.239 1.298,0.091 5.057,0.752 11.278,1.982 l 0.649,-3.143 -1.177,-0.888 c 0.125,-0.33 0.221,-0.681 0.404,-0.98 0.446,-0.769 0.502,-1.439 0.494,-2.317 1.038,-0.245 2.2,-0.672 2.88,-1.553 0.578,-0.771 0.856,-2.132 0.061,-2.883 h -0.007 z" />
    <path
       inkscape:connector-curvature="0"
       style="fill:#00bbf2"
       id="path123"
       d="m 35.734,457.886 c -1.066,-0.997 -3.541,-1.663 -4.943,-1.948 -1.208,-0.242 -2.494,-0.32 -3.711,-0.41 -0.842,-0.06 -3.236,-0.015 -4.253,0.09 -2.567,0.266 -3.595,1.214 -5.659,2.673 -1.893,1.331 -4.677,2.781 -5.5,5.108 -0.652,1.292 -0.065,3.354 -0.035,4.624 l 0.035,0.894 c -0.039,-0.063 -0.057,-0.103 -0.051,-0.103 0.006,0 -1.14,2.828 0.133,4.101 0.137,-1.333 2.255,-2.358 2.262,-2.358 l 1.561,-0.785 c 0.238,-0.162 0.892,-0.56 1.101,-0.769 1.245,-0.72 2.288,-1.511 3.76,-1.657 1.942,-0.195 3.779,0.668 5.716,0.459 1.588,-0.172 3.759,-0.398 5.139,-1.277 0.648,-0.417 0.666,-1.261 1.041,-1.889 0.447,-0.767 0.503,-1.439 0.494,-2.317 1.038,-0.246 2.201,-0.672 2.879,-1.554 0.555,-0.771 0.833,-2.132 0.037,-2.883 h -0.006 z" />
    <path
       style="fill:#484848"
       inkscape:connector-curvature="0"
       id="path125"
       d="m 21.152,454.478 c -0.224,0.094 -0.451,0.226 -0.675,0.383 0.228,-0.158 0.455,-0.291 0.681,-0.383 h -0.006 z m 0,0 c -1.975,1.281 -2.701,3.931 -2.694,3.931 0.201,-0.086 0.498,-0.463 0.898,-0.925 -0.24,0.277 -0.445,0.525 -0.607,0.695 0.01,-0.049 0.814,-2.184 2.409,-3.701 h -0.006 z m -0.615,-1.436 c -4.408,3.221 -4.206,5.807 -4.199,5.807 0.063,-0.033 0.146,-0.092 0.246,-0.172 -0.008,-0.002 -0.125,-1.991 3.959,-5.635 h -0.006 z m 1.092,2.563 c -1.017,1.436 -0.238,1.743 -0.231,1.743 0.006,10e-4 -0.289,-0.477 0.231,-1.743 z m -1.084,0.669 c 0.326,-0.264 0.687,-0.502 1.091,-0.668 -0.42,0.174 -0.779,0.41 -1.085,0.668 -0.006,0 -0.006,0 0,0 h -0.006 z" />
    <path
       inkscape:connector-curvature="0"
       style="fill:#00bbf2"
       id="path132"
       d="m 12.122,462.456 c 2.793,-8.528 8.415,-9.414 8.421,-9.414 -4.413,3.221 -4.21,5.807 -4.204,5.807 0.722,-0.365 3.035,-3.619 4.818,-4.372 -1.977,1.281 -2.704,3.931 -2.698,3.931 0.49,-0.205 1.518,-2.11 3.18,-2.803 -1.019,1.436 -0.242,1.743 -0.236,1.743 l -9.281,5.108 z" />
    <path
       inkscape:connector-curvature="0"
       style="fill:#0b2228"
       id="path134"
       d="m 45.535,471.593 -8.954,-3.736 -0.769,8.663 c 0.098,0.561 0.164,1.165 0.207,1.805 -0.01,-0.106 -0.017,-0.209 -0.019,-0.313 -0.744,11.907 -7.808,18.005 -11.353,19.577 4.455,0.308 7.192,-1.242 7.198,-1.242 0.007,0 -0.597,0.73 -2.186,1.703 1.999,0 6.972,-1.896 7.952,-3.895 l 0.508,0.205 c -0.002,0 9.686,-6.768 7.42,-22.767 h -0.004 z" />
    <path
       inkscape:connector-curvature="0"
       id="path152"
       d="m 36.02,477.621 c -1.594,3.437 -4.41,3.82 -4.404,3.82 0.006,0 2.354,0.41 4.302,-1.948 0.278,-0.341 0.289,-0.997 0.108,-1.872 H 36.02 z" />
    <path
       inkscape:connector-curvature="0"
       style="fill:#164450"
       id="path161"
       d="m 45.535,471.593 -8.954,-3.736 -0.769,8.663 c 0.082,0.471 0.141,0.973 0.185,1.5 -0.003,-0.005 -0.003,-0.009 0.004,-0.009 0.004,0.104 0.011,0.207 0.022,0.313 -0.01,-0.103 -0.019,-0.203 -0.021,-0.303 -0.03,0.432 -0.067,0.856 -0.104,1.275 -0.115,1.865 -0.131,5.328 1.023,7.426 0.785,-1.188 1.574,-2.67 1.85,-4.154 0.123,1.508 -0.591,3.445 -1.29,4.948 0.231,0.263 0.503,0.479 0.813,0.64 0.117,0.049 0.236,0.086 0.361,0.117 0.982,-1.215 2.578,-3.459 2.992,-5.705 0.143,1.771 -0.865,4.141 -1.655,5.694 3.366,-0.921 5.661,-8.306 5.708,-8.438 -0.004,-0.002 -0.004,-0.002 0.002,-0.004 0.263,-2.413 0.27,-5.149 -0.162,-8.229 h -0.005 z" />
    <path
       inkscape:connector-curvature="0"
       style="fill:#216778"
       id="path174"
       d="m 38.529,475.648 c 0.563,3.281 -1.641,8.1 -1.635,8.1 0.006,0 3.293,-0.646 4.747,-7.652 0,0 -0.31,4.865 -0.951,6.012 -0.005,0 3.174,-1.486 3.847,-7.535 0.672,-6.049 -3.695,-9.74 -5.079,-9.022 -0.923,0.478 -1.232,3.844 -0.929,10.097 z" />
    <path
       inkscape:connector-curvature="0"
       style="fill:#00bbf2"
       id="path183"
       d="m 45.652,472.294 c 0,-0.002 0,-0.002 0.006,-0.004 -0.332,-2.147 -0.908,-4.187 -1.684,-6.022 -1.994,-4.679 -5.309,-7.536 -9.143,-8.714 -8.719,-0.82 -13.024,5.296 -13.018,5.296 3.285,0 6.803,1.054 9.094,4.392 2.633,3.857 3.623,10.297 0.717,14.2 -0.004,0 6.045,-0.82 5.436,-10.868 -0.004,0 2.149,4.204 -0.613,9.996 -0.004,0 5.584,-1.384 3.848,-12.148 -0.004,0 1.277,2.46 0.873,8.15 -0.004,0 2.303,-1.604 2.309,-6.51 -0.004,0 1.586,5.177 0.002,8.458 -0.004,0 0.023,-0.091 0.145,-0.181 0.494,-0.419 2.434,-2.075 2.035,-6.045 h -0.007 z" />
    <path
       inkscape:connector-curvature="0"
       style="fill:#216778"
       id="path210"
       d="m 13.787,469.122 c 4.767,-0.154 2.239,-3.402 8.602,-9.553 -5.184,3.008 -10.583,2.94 -8.595,9.553 h -0.007 z" />
    <path
       inkscape:connector-curvature="0"
       style="fill:#216778"
       id="path217"
       d="m 13.787,469.122 c 0.838,-1.214 3.674,-5.93 8.602,-9.553 -5.184,3.008 -10.583,2.94 -8.595,9.553 h -0.007 z" />
    <path
       style="fill:#000064"
       inkscape:connector-curvature="0"
       id="path219"
       d="m 16.243,467.226 c -0.896,0.896 -1.969,0.687 -2.053,-0.494 -0.131,-1.669 1.659,-1.846 2.438,-1.591 0.263,0.756 -0.07,1.495 -0.379,2.085" />
    <path
       style="fill:url(#radialGradient4031)"
       inkscape:connector-curvature="0"
       id="path228"
       d="m 16.329,467.002 c -0.289,0.539 -0.964,0.756 -1.337,0.554 -0.381,-0.203 -0.379,-0.882 -0.084,-1.421 0.285,-0.54 1.544,-0.297 1.55,-0.297 0.006,-0.001 0.16,0.627 -0.129,1.164 z" />
    <path
       style="fill:url(#radialGradient4033)"
       inkscape:connector-curvature="0"
       id="path235"
       d="m 15.056,467.035 c 0.263,0.328 0.665,0.445 0.902,0.26 0.228,-0.187 0.332,-0.734 0.074,-1.062 -0.267,-0.33 -0.797,-0.313 -1.023,-0.129 -0.242,0.185 -0.217,0.603 0.053,0.931 h -0.006 z" />
    <path
       style="fill:url(#radialGradient4035)"
       inkscape:connector-curvature="0"
       id="path242"
       d="m 14.062,470.488 c 0,0 0,-0.513 -0.148,-1.025 -1.765,0.599 -2.311,-0.648 -2.305,-0.648 0.006,0 -1.142,2.828 0.131,4.101 0.137,-1.333 2.255,-2.358 2.262,-2.358" />
    <path
       style="fill:#484848"
       inkscape:connector-curvature="0"
       id="path244"
       d="m 13.992,470.557 0.07,-0.069 c 0,0 0,-0.513 -0.148,-1.025 -2.807,1.503 -2.175,3.453 -2.169,3.453 0.129,-1.333 2.247,-2.358 2.253,-2.358 h -0.006 z" />
    <path
       style="fill:url(#radialGradient4037)"
       inkscape:connector-curvature="0"
       id="path251"
       d="m 11.732,470.652 c 0,0 0.015,-0.847 0.4,-1.001 -0.004,0.167 0.193,0.295 0.392,0.295 -0.537,0.053 -0.792,0.706 -0.785,0.706 h -0.007 z" />
  </g>
</svg>
