<?xml version="1.0" encoding="UTF-8" standalone="no"?>
<!-- Generator: Adobe Illustrator 19.0.0, SVG Export Plug-In . SVG Version: 6.00 Build 0)  -->

<svg
   xmlns:dc="http://purl.org/dc/elements/1.1/"
   xmlns:cc="http://creativecommons.org/ns#"
   xmlns:rdf="http://www.w3.org/1999/02/22-rdf-syntax-ns#"
   xmlns:svg="http://www.w3.org/2000/svg"
   xmlns="http://www.w3.org/2000/svg"
   xmlns:sodipodi="http://sodipodi.sourceforge.net/DTD/sodipodi-0.dtd"
   xmlns:inkscape="http://www.inkscape.org/namespaces/inkscape"
   version="1.1"
   id="Layer_1"
   x="0px"
   y="0px"
   viewBox="0 0 500 500"
   xml:space="preserve"
   inkscape:version="0.91 r13725"
   width="100%"
   height="100%"
   sodipodi:docname="variety-slideshow.svg"><metadata
     id="metadata57"><rdf:RDF><cc:Work
         rdf:about=""><dc:format>image/svg+xml</dc:format><dc:type
           rdf:resource="http://purl.org/dc/dcmitype/StillImage" /></cc:Work></rdf:RDF></metadata><defs
     id="defs55" /><sodipodi:namedview
     pagecolor="#ffffff"
     bordercolor="#666666"
     borderopacity="1"
     objecttolerance="10"
     gridtolerance="10"
     guidetolerance="10"
     inkscape:pageopacity="0"
     inkscape:pageshadow="2"
     inkscape:window-width="1366"
     inkscape:window-height="715"
     id="namedview53"
     showgrid="false"
     inkscape:zoom="0.13139878"
     inkscape:cx="854.87711"
     inkscape:cy="590.27222"
     inkscape:window-x="0"
     inkscape:window-y="24"
     inkscape:window-maximized="1"
     inkscape:current-layer="Layer_1" /><g
     id="g23"
     transform="translate(0,39.767)" /><g
     id="g25"
     transform="translate(0,39.767)" /><g
     id="g27"
     transform="translate(0,39.767)" /><g
     id="g29"
     transform="translate(0,39.767)" /><g
     id="g31"
     transform="translate(0,39.767)" /><g
     id="g33"
     transform="translate(0,39.767)" /><g
     id="g35"
     transform="translate(0,39.767)" /><g
     id="g37"
     transform="translate(0,39.767)" /><g
     id="g39"
     transform="translate(0,39.767)" /><g
     id="g41"
     transform="translate(0,39.767)" /><g
     id="g43"
     transform="translate(0,39.767)" /><g
     id="g45"
     transform="translate(0,39.767)" /><g
     id="g47"
     transform="translate(0,39.767)" /><g
     id="g49"
     transform="translate(0,39.767)" /><g
     id="g51"
     transform="translate(0,39.767)" /><g
     id="g4184"><g
       id="g4154"
       transform="translate(-1.1111604,2.4204276)"><polygon
         style="fill:#cccccc"
         points="309.125,441.463 151.34,441.463 171.063,352.014 289.402,352.014 "
         id="polygon3"
         transform="matrix(0.90000001,0,0,0.90000001,42.204682,65.365406)" /><rect
         x="160.67709"
         y="453.5336"
         style="fill:#d8d9dd"
         width="177.47369"
         height="16.4664"
         id="rect5" /><rect
         x="160.67709"
         y="453.5336"
         style="opacity:0.4;fill:#394050;enable-background:new"
         width="177.47369"
         height="16.4664"
         id="rect11" /><path
         inkscape:connector-curvature="0"
         style="fill:#ffcc00;fill-opacity:1"
         d="m 454.89087,122.60785 c 0.0117,0 0.22108,0.13599 0.22108,0.14772 l 0,250.43185 -410.224885,0 0,-250.43185 c 0,-0.0117 0.145761,-0.14772 0.1575,-0.14772 l 409.846305,0 0,0 z"
         id="path9-3" /><path
         style="fill:#c87137;fill-opacity:1;stroke:none;stroke-width:0.5405004px;stroke-linecap:butt;stroke-linejoin:miter;stroke-opacity:1"
         d="m 44.30759,261.11104 -0.656509,116.54879 412.727599,-0.29434 -1.09114,-96.43732 c 0,0 -58.27833,18.58645 -108.68195,12.83433 C 296.20198,288.01037 219.35792,230.34587 165.72018,228.171 112.08251,225.99616 44.30759,261.11104 44.30759,261.11104 Z"
         id="path3787-6"
         inkscape:connector-curvature="0"
         sodipodi:nodetypes="cccczzc" /><path
         inkscape:connector-curvature="0"
         style="fill:#394050"
         d="m 454.89087,122.60785 c 0.0117,0 0.22108,0.13599 0.22108,0.14772 l 0,250.43185 -410.224885,0 0,-250.43185 c 0,-0.0117 0.145761,-0.14772 0.1575,-0.14772 l 409.846305,0 0,0 z M 475,247.89666 475,122.72035 c 0,-10.61119 -9.46173,-19.99956 -20.07391,-19.99956 l 0,0 -409.916742,0 C 34.398152,102.72079 25,112.10916 25,122.72035 l 0,125.17631 0,0.003 0,125.17728 c 0,10.61218 9.398152,19.99957 20.009348,19.99957 l 409.916742,0 0,0 c 10.61218,0 20.07391,-9.38837 20.07391,-19.99957 l 0,-125.17728 0,-0.003 z"
         id="path7-7" /><path
         sodipodi:type="arc"
         style="fill:#ffffff;fill-opacity:1;stroke:none"
         id="path3767-5"
         sodipodi:cx="942.85712"
         sodipodi:cy="126.28571"
         sodipodi:rx="71.428574"
         sodipodi:ry="74.285713"
         d="m 1014.2857,126.28571 a 71.428574,74.285713 0 0 1 -71.34475,74.28567 71.428574,74.285713 0 0 1 -71.51221,-74.11128 71.428574,74.285713 0 0 1 71.17686,-74.459639 71.428574,74.285713 0 0 1 71.6793,73.936489"
         transform="matrix(0.25428382,-0.12930623,0.12198701,0.23989039,141.10773,259.7175)"
         sodipodi:start="0"
         sodipodi:end="6.2784904"
         sodipodi:open="true" /></g><path
       sodipodi:nodetypes="cccc"
       inkscape:connector-curvature="0"
       id="path4503"
       d="m 215.9457,206.04748 0,100.83808 85.61724,-47.56513 z"
       style="fill:#ffffff;stroke:none;stroke-width:1px;stroke-linecap:butt;stroke-linejoin:miter;stroke-opacity:1" /></g></svg>