<?xml version="1.0" encoding="UTF-8" standalone="no"?>
<!-- Created using Karbon, part of Calligra: http://www.calligra.org/karbon -->

<svg
   xmlns:dc="http://purl.org/dc/elements/1.1/"
   xmlns:cc="http://creativecommons.org/ns#"
   xmlns:rdf="http://www.w3.org/1999/02/22-rdf-syntax-ns#"
   xmlns:svg="http://www.w3.org/2000/svg"
   xmlns="http://www.w3.org/2000/svg"
   xmlns:sodipodi="http://sodipodi.sourceforge.net/DTD/sodipodi-0.dtd"
   xmlns:inkscape="http://www.inkscape.org/namespaces/inkscape"
   width="512"
   height="512"
   id="svg2"
   version="1.1"
   inkscape:version="0.91 r13725"
   sodipodi:docname="videoporama.svg"
   viewBox="0 0 512 512">
  <metadata
     id="metadata12">
    <rdf:RDF>
      <cc:Work
         rdf:about="">
        <dc:format>image/svg+xml</dc:format>
        <dc:type
           rdf:resource="http://purl.org/dc/dcmitype/StillImage" />
        <dc:title />
      </cc:Work>
    </rdf:RDF>
  </metadata>
  <sodipodi:namedview
     pagecolor="#ffffff"
     bordercolor="#666666"
     borderopacity="1"
     objecttolerance="10"
     gridtolerance="10"
     guidetolerance="10"
     inkscape:pageopacity="0"
     inkscape:pageshadow="2"
     inkscape:window-width="1366"
     inkscape:window-height="715"
     id="namedview10"
     showgrid="false"
     inkscape:zoom="0.28726213"
     inkscape:cx="1588.5301"
     inkscape:cy="-95.82714"
     inkscape:window-x="0"
     inkscape:window-y="24"
     inkscape:window-maximized="1"
     inkscape:current-layer="svg2"
     inkscape:showpageshadow="false"
     borderlayer="true"
     units="px"
     showguides="false"
     inkscape:document-units="px">
    <sodipodi:guide
       position="1.9073486e-06,48.000002"
       orientation="47.999998,0"
       id="guide4062" />
    <sodipodi:guide
       position="1.9073486e-06,3.8146973e-06"
       orientation="0,47.999998"
       id="guide4064" />
    <sodipodi:guide
       position="48,3.8146973e-06"
       orientation="-47.999998,0"
       id="guide4066" />
    <sodipodi:guide
       position="48,48.000002"
       orientation="0,-47.999998"
       id="guide4068" />
    <sodipodi:guide
       position="4.0000019,44.000002"
       orientation="39.999998,0"
       id="guide4072" />
    <sodipodi:guide
       position="4.0000019,4.0000038"
       orientation="0,39.999998"
       id="guide4074" />
    <sodipodi:guide
       position="44,4.0000038"
       orientation="-39.999998,0"
       id="guide4076" />
    <sodipodi:guide
       position="44,44.000002"
       orientation="0,-39.999998"
       id="guide4078" />
    <sodipodi:guide
       position="15.000002,33.000002"
       orientation="17.999998,0"
       id="guide4080" />
    <sodipodi:guide
       position="15.000002,15.000004"
       orientation="0,17.999998"
       id="guide4082" />
    <sodipodi:guide
       position="33,15.000004"
       orientation="-17.999998,0"
       id="guide4084" />
    <sodipodi:guide
       position="33,33.000002"
       orientation="0,-17.999998"
       id="guide4086" />
    <inkscape:grid
       type="xygrid"
       id="grid3359" />
  </sodipodi:namedview>
  <defs
     id="defs4" />
  <g
     id="g4188">
    <g
       transform="matrix(0.97947602,0.20156072,-0.20156072,0.97947602,-436.69754,-334.76536)"
       id="g4166">
      <rect
         style="fill:#ff6600;fill-opacity:1;stroke:#ffffff;stroke-width:11.18132782;stroke-linecap:round;stroke-linejoin:round;stroke-miterlimit:4;stroke-dasharray:none;stroke-opacity:1"
         id="rect2997-3"
         width="346.08871"
         height="287.5199"
         x="326.42706"
         y="552.0697"
         transform="matrix(0.89137186,-0.45327278,0.45327278,0.89137186,0,0)" />
      <path
         sodipodi:type="arc"
         style="fill:#faec6d;fill-opacity:1;stroke:none"
         id="path3767-6"
         sodipodi:cx="400.30368"
         sodipodi:cy="635.9295"
         sodipodi:rx="35.274429"
         sodipodi:ry="34.608871"
         d="m 435.57811,635.9295 a 35.274429,34.608871 0 0 1 -35.23303,34.60885 35.274429,34.608871 0 0 1 -35.31573,-34.5276 35.274429,34.608871 0 0 1 35.15012,-34.6899 35.274429,34.608871 0 0 1 35.39825,34.44617"
         transform="matrix(0.89137185,-0.45327279,0.45327277,0.89137186,0,0)"
         sodipodi:start="0"
         sodipodi:end="6.2784904"
         sodipodi:open="true" />
      <path
         style="fill:#803300;stroke:none;stroke-width:0.46588865px;stroke-linecap:butt;stroke-linejoin:miter;stroke-opacity:1"
         d="m 625.83851,498.27569 47.79051,95.01937 299.30696,-152.72892 -40.72958,-78.01912 c 0,0 -34.58295,36.64635 -73.53231,50.59127 -38.94934,13.94493 -118.57958,-4.55609 -158.39379,13.49272 -39.81417,18.04883 -74.44179,71.64468 -74.44179,71.64468 z"
         id="path3787-7"
         inkscape:connector-curvature="0"
         sodipodi:nodetypes="cccczzc" />
    </g>
    <rect
       transform="matrix(0.92298604,0.38483343,-0.38483343,0.92298604,0,0)"
       y="9.3343992"
       x="490.21454"
       height="309.82156"
       width="51.346832"
       id="rect4171"
       style="fill:#ffffff;fill-opacity:1;stroke:none;stroke-width:35;stroke-linecap:round;stroke-miterlimit:4;stroke-dasharray:none;stroke-opacity:1" />
    <rect
       transform="matrix(0.92298604,0.38483343,-0.38483343,0.92298604,0,0)"
       y="16.79534"
       x="221.29816"
       height="309.82156"
       width="51.346832"
       id="rect4171-5"
       style="fill:#ffffff;fill-opacity:1;stroke:none;stroke-width:35;stroke-linecap:round;stroke-miterlimit:4;stroke-dasharray:none;stroke-opacity:1" />
    <g
       transform="matrix(0.2784714,-0.68906481,0.6966633,0.28154218,36.519346,403.4027)"
       id="g4243">
      <path
         inkscape:connector-curvature="0"
         style="fill:#394050;fill-opacity:1;stroke:none;stroke-width:3.9848628"
         d="m 481.26377,30.736258 -450.52754,0 0,450.527482 450.52754,0 0,-450.527481 z m -33.78957,33.789569 0,33.789556 -33.78957,0 0,-33.789556 33.78957,0 z m 0,349.158763 0,33.78957 -33.78957,0 0,-33.78957 33.78957,0 z m -84.47389,-349.158778 0,33.789548 -33.78957,0 0,-33.789548 33.78957,0 z m 0,349.158778 0,33.78957 -33.78957,0 0,-33.78957 33.78957,0 z m -90.10553,-349.158778 0,33.789548 -33.78952,0 0,-33.789548 33.78952,0 z m 0,349.158778 0,33.78957 -33.78952,0 0,-33.78957 33.78952,0 z m -90.10547,-349.158778 0,33.789548 -33.78956,0 0,-33.789548 33.78956,0 z m 0,349.158778 0,33.78957 -33.78956,0 0,-33.78957 33.78956,0 z M 98.31535,64.525812 l 0,33.789548 -33.78956,0 0,-33.789548 33.78956,0 z m 0,349.158778 0,33.78957 -33.78956,0 0,-33.78957 33.78956,0 z"
         id="rect4197" />
      <g
         id="g4180"
         transform="matrix(0.69420307,0,0,0.69420307,-344.71501,82.556032)">
        <rect
           transform="matrix(0.99999983,5.9020721e-4,-5.9020721e-4,0.99999983,0,0)"
           y="68.386093"
           x="583.52325"
           height="361.97424"
           width="435.70969"
           id="rect2997"
           style="fill:#ff6600;fill-opacity:1;stroke:none;stroke-width:14.0767746;stroke-linecap:round;stroke-linejoin:round;stroke-miterlimit:4;stroke-dasharray:none;stroke-opacity:1" />
        <path
           sodipodi:open="true"
           sodipodi:end="6.2784904"
           sodipodi:start="0"
           transform="matrix(0.99999983,5.9019847e-4,-5.9021192e-4,0.99999983,0,0)"
           d="m 720.93939,173.96176 a 44.408875,43.570969 0 0 1 -44.35675,43.57094 44.408875,43.570969 0 0 1 -44.46087,-43.46866 44.408875,43.570969 0 0 1 44.25238,-43.67298 44.408875,43.570969 0 0 1 44.56475,43.36614"
           sodipodi:ry="43.570969"
           sodipodi:rx="44.408875"
           sodipodi:cy="173.96176"
           sodipodi:cx="676.53052"
           id="path3767"
           style="fill:#faec6d;fill-opacity:1;stroke:none"
           sodipodi:type="arc" />
        <path
           id="path3787"
           d="m 700.01367,251.82812 c -44.1582,0.0778 -95.13566,23.71623 -116.66015,34.81446 l -0.084,144.0625 435.70898,0.25586 0.066,-113.31446 c -13.3321,4.37409 -67.76442,20.81361 -115.72069,14.67969 -55.10824,-7.0487 -139.12729,-77.71615 -197.77149,-80.38086 -1.83263,-0.0833 -3.67897,-0.12046 -5.53906,-0.11719 z"
           style="fill:#803300;stroke:none;stroke-width:0.58653224px;stroke-linecap:butt;stroke-linejoin:miter;stroke-opacity:1"
           inkscape:connector-curvature="0" />
      </g>
      <g
         id="g4236">
        <path
           inkscape:connector-curvature="0"
           id="rect2997-7"
           d="m 386.68555,130.26953 -0.14844,251.2832 67.61719,0.0391 0,-251.28321 -67.46875,-0.0391 z"
           style="fill:#ff6600;fill-opacity:1;stroke:none;stroke-width:14.0767746;stroke-linecap:round;stroke-linejoin:round;stroke-miterlimit:4;stroke-dasharray:none;stroke-opacity:1" />
        <path
           inkscape:connector-curvature="0"
           id="path3767-5"
           d="m 451.11719,173.35156 a 30.828777,30.247101 0.03379604 0 0 -30.73828,30.29883 30.828777,30.247101 0.03379604 0 0 30.84765,30.19531 30.828777,30.247101 0.03379604 0 0 2.92774,-0.16797 l 0,-60.18554 a 30.828777,30.247101 0.03379604 0 0 -3.03711,-0.14063 z"
           style="fill:#faec6d;fill-opacity:1;stroke:none" />
        <path
           inkscape:connector-curvature="0"
           id="path3787-3"
           d="m 454.1543,258.3457 c -26.97202,3.62676 -54.76215,16.60125 -67.5586,23.19922 l -0.0586,100.00781 67.61719,0.0391 0,-123.2461 z"
           style="fill:#803300;stroke:none;stroke-width:0.58653224px;stroke-linecap:butt;stroke-linejoin:miter;stroke-opacity:1" />
      </g>
      <rect
         style="fill:#394050;fill-opacity:1;stroke:none;stroke-width:50;stroke-miterlimit:4;stroke-dasharray:none;stroke-opacity:1"
         id="rect4241"
         width="26.978844"
         height="268.04785"
         x="125.32108"
         y="122.98248" />
    </g>
  </g>
</svg>
