<?xml version="1.0" encoding="UTF-8" standalone="no"?>
<!-- Created with Inkscape (http://www.inkscape.org/) -->

<svg
   xmlns:dc="http://purl.org/dc/elements/1.1/"
   xmlns:cc="http://creativecommons.org/ns#"
   xmlns:rdf="http://www.w3.org/1999/02/22-rdf-syntax-ns#"
   xmlns:svg="http://www.w3.org/2000/svg"
   xmlns="http://www.w3.org/2000/svg"
   xmlns:sodipodi="http://sodipodi.sourceforge.net/DTD/sodipodi-0.dtd"
   xmlns:inkscape="http://www.inkscape.org/namespaces/inkscape"
   id="svg2"
   version="1.1"
   inkscape:version="0.92.1 r15371"
   xml:space="preserve"
   width="512"
   height="512"
   viewBox="0 0 512 512"
   sodipodi:docname="wine-help.svg"><metadata
     id="metadata8"><rdf:RDF><cc:Work
         rdf:about=""><dc:format>image/svg+xml</dc:format><dc:type
           rdf:resource="http://purl.org/dc/dcmitype/StillImage" /><dc:title /></cc:Work></rdf:RDF></metadata><defs
     id="defs6"><clipPath
       clipPathUnits="userSpaceOnUse"
       id="clipPath16"><path
         d="m 0,0 656.967,0 0,490.475 L 0,490.475 0,0 Z"
         id="path18"
         inkscape:connector-curvature="0" /></clipPath><linearGradient
       x1="0"
       y1="0"
       x2="1"
       y2="0"
       gradientUnits="userSpaceOnUse"
       gradientTransform="matrix(-6.31e-5,1444.0616,-1444.0616,-6.31e-5,328.48291,-628.00391)"
       spreadMethod="pad"
       id="linearGradient24"><stop
         style="stop-opacity:1;stop-color:#ffffff"
         offset="0"
         id="stop26" /><stop
         style="stop-opacity:1;stop-color:#ffffff"
         offset="0.05086908"
         id="stop28" /><stop
         style="stop-opacity:1;stop-color:#f87d32"
         offset="0.460674"
         id="stop30" /><stop
         style="stop-opacity:1;stop-color:#ff1200"
         offset="1"
         id="stop32" /></linearGradient><clipPath
       clipPathUnits="userSpaceOnUse"
       id="clipPath40"><path
         d="m 0,490.475 656.967,0 L 656.967,0 0,0 0,490.475 Z"
         id="path42"
         inkscape:connector-curvature="0" /></clipPath></defs><sodipodi:namedview
     pagecolor="#ffffff"
     bordercolor="#666666"
     borderopacity="1"
     objecttolerance="10"
     gridtolerance="10"
     guidetolerance="10"
     inkscape:pageopacity="0"
     inkscape:pageshadow="2"
     inkscape:window-width="1366"
     inkscape:window-height="714"
     id="namedview4"
     showgrid="false"
     inkscape:zoom="0.35355339"
     inkscape:cx="76.511279"
     inkscape:cy="389.29895"
     inkscape:window-x="0"
     inkscape:window-y="0"
     inkscape:window-maximized="1"
     inkscape:current-layer="g36"><sodipodi:guide
       position="0,0"
       orientation="0,821.20875"
       id="guide3378"
       inkscape:locked="false" /><sodipodi:guide
       position="821.20875,0"
       orientation="-613.09375,0"
       id="guide3380"
       inkscape:locked="false" /><sodipodi:guide
       position="821.20875,613.09375"
       orientation="0,-821.20875"
       id="guide3382"
       inkscape:locked="false" /><sodipodi:guide
       position="0,613.09375"
       orientation="613.09375,0"
       id="guide3384"
       inkscape:locked="false" /><sodipodi:guide
       position="0,0"
       orientation="0,0"
       id="guide3386"
       inkscape:locked="false" /></sodipodi:namedview><g
     id="g10"
     inkscape:groupmode="layer"
     inkscape:label="FreeVector-Wine-Glass-Icon"
     transform="matrix(1.25,0,0,-1.25,0,512)"><g
       id="g36"
       transform="matrix(0.7234644,0,0,0.7234644,-34.605998,21.311566)"><g
         transform="matrix(1.0176645,0.4191149,-0.4191149,1.0176645,399.85642,412.82408)"
         id="g44"
         style="fill:#f03916"><path
           inkscape:connector-curvature="0"
           id="path46"
           style="fill:#f03916;fill-opacity:1;fill-rule:evenodd;stroke:none"
           d="m 0,0 c 9.067,-66.741 -61.878,-98.854 -130.405,-82.552 -37.209,8.852 -60.527,47.425 -47.855,89.73 C -117.202,28.167 -65.639,-14.318 0,0" /></g><g
         transform="matrix(1.0176645,0.4191149,-0.4191149,1.0176645,420.50168,412.82617)"
         id="g48"><path
           inkscape:connector-curvature="0"
           id="path50"
           style="fill:#000000;fill-opacity:1;fill-rule:nonzero;stroke:none"
           d="m 0,0 c -2.583,36.064 -13.782,68.898 -27.839,100.917 -1.413,3.225 -7.124,2.153 -11.599,2.319 8.728,-32.798 28.519,-68.27 28.999,-105.556 0.763,-59.234 -43.368,-85.847 -98.935,-88.35 -55.568,2.503 -99.697,29.116 -98.934,88.35 0.48,37.286 20.27,72.758 28.999,105.556 -4.475,-0.166 -10.187,0.906 -11.6,-2.319 C -204.965,68.898 -216.165,36.064 -218.747,0 c -0.552,-7.699 -0.915,-17.338 0,-25.519 6.074,-54.317 61.671,-59.655 88.156,-92.798 15.767,-19.726 16.548,-160.154 9.279,-182.112 -5.589,-16.893 -28.436,-21.778 -47.558,-24.36 -6.972,-0.942 -18.38,1.242 -22.039,-6.961 19.547,-4.205 50.768,-5.571 81.535,-5.45 30.767,-0.121 61.988,1.245 81.535,5.45 -3.658,8.203 -15.067,6.019 -22.039,6.961 -19.122,2.582 -41.968,7.467 -47.558,24.36 -7.269,21.958 -6.487,162.386 9.28,182.112 C -61.672,-85.174 -6.074,-79.836 0,-25.519 0.914,-17.338 0.552,-7.699 0,0" /></g><g
         id="g862"
         transform="matrix(0.5065966,0,0,0.5065966,-15.203533,24.691003)"><path
           inkscape:connector-curvature="0"
           id="path4222"
           d="M 477.88524,344.56749 A 156.65365,156.65303 0 0 1 321.23157,187.91383 156.65365,156.65303 0 0 1 477.88524,31.260168 156.65365,156.65303 0 0 1 634.53889,187.91383 156.65365,156.65303 0 0 1 477.88524,344.56749 Z m 0,-18.42984 A 138.22381,138.22325 0 0 0 616.10905,187.91383 138.22381,138.22325 0 0 0 477.88524,49.690028 138.22381,138.22325 0 0 0 339.66142,187.91383 138.22381,138.22325 0 0 0 477.88524,326.13765 Z"
           style="fill:#808080;fill-opacity:1;stroke:none;stroke-width:9.214921;stroke-opacity:1" /><path
           inkscape:connector-curvature="0"
           id="path4164"
           d="M 477.88524,436.7167 A 248.80287,248.80146 0 0 1 229.08236,187.91383 248.80287,248.80146 0 0 1 477.88524,-60.888993 248.80287,248.80146 0 0 1 726.6881,187.91383 248.80287,248.80146 0 0 1 477.88524,436.7167 Z m 0,-101.36413 A 147.43873,147.43791 0 0 0 625.32396,187.91383 147.43873,147.43791 0 0 0 477.88524,40.475098 147.43873,147.43791 0 0 0 330.4465,187.91383 147.43873,147.43791 0 0 0 477.88524,335.35257 Z"
           style="fill:#999999;fill-opacity:1;stroke:none;stroke-width:9.214921;stroke-opacity:1" /><path
           inkscape:connector-curvature="0"
           id="path4184"
           d="M 477.88524,381.42718 A 193.51333,193.51333 0 0 1 284.37189,187.91383 193.51333,193.51333 0 0 1 477.88524,-5.5994722 193.51333,193.51333 0 0 1 671.39857,187.91383 193.51333,193.51333 0 0 1 477.88524,381.42718 Z m 0,-46.07461 A 147.43873,147.43873 0 0 0 625.32396,187.91383 147.43873,147.43873 0 0 0 477.88524,40.475098 147.43873,147.43873 0 0 0 330.4465,187.91383 147.43873,147.43873 0 0 0 477.88524,335.35257 Z"
           style="fill:#cccccc;fill-opacity:1;stroke:none;stroke-width:9.214921;stroke-opacity:1" /><path
           inkscape:connector-curvature="0"
           id="rect4191"
           d="m 321.84351,390.64209 c -9.06535,0 -18.12472,-3.47444 -25.07106,-10.42077 l -1.97979,-1.96177 c -13.89267,-13.89269 -13.89267,-36.26745 0,-50.16012 l 37.61562,-37.6156 c 13.89266,-13.89267 36.26743,-13.89267 50.16012,0 l 1.97977,1.97976 c 13.89269,13.89268 13.89269,36.24946 0,50.14214 l -37.6156,37.61559 c -6.94635,6.94633 -16.02371,10.42077 -25.08906,10.42077 z m 312.08345,0 c -9.06536,0 -18.12473,-3.47444 -25.07106,-10.42077 l -37.61559,-37.61559 c -13.89268,-13.89268 -13.89268,-36.24946 0,-50.14214 l 1.97976,-1.97976 c 13.89267,-13.89267 36.24946,-13.89267 50.14213,0 l 37.6156,37.6156 c 13.89267,13.89267 13.89267,36.26743 0,50.16012 l -1.96178,1.96177 c -6.94634,6.94633 -16.02372,10.42077 -25.08906,10.42077 z M 357.49733,104.97955 c -9.06535,0 -18.14273,-3.47444 -25.08905,-10.420782 l -37.61562,-37.6156 c -13.89267,-13.89267 -13.89267,-36.24949 0,-50.1422002 l 1.97979,-1.97969 c 13.89266,-13.892711 36.26744,-13.892711 50.16012,0 l 37.6156,37.6155902 c 13.89269,13.89268 13.89269,36.26745 0,50.16013 l -1.97977,1.96177 c -6.94635,6.946342 -16.00572,10.420782 -25.07107,10.420782 z m 240.79379,0 c -9.06533,0 -18.12471,-3.47444 -25.07105,-10.420782 l -1.97976,-1.96177 c -13.89268,-13.89268 -13.89268,-36.26745 0,-50.16013 L 608.8559,4.8212778 c 13.89268,-13.892711 36.26744,-13.892711 50.16012,0 l 1.96178,1.97969 c 13.89267,13.8927102 13.89267,36.2495302 0,50.1422002 l -37.6156,37.6156 c -6.94634,6.946342 -16.00572,10.420782 -25.07108,10.420782 z"
           style="fill:#f03916;fill-opacity:1;stroke:none;stroke-width:9.214921;stroke-opacity:1" /><rect
           transform="scale(1,-1)"
           ry="9.214921"
           y="-215.55809"
           x="229.08237"
           height="55.289524"
           width="18.429842"
           id="rect4206"
           style="fill:#784421;fill-opacity:1;stroke:none;stroke-width:9.214921;stroke-opacity:1" /><rect
           transform="scale(1,-1)"
           style="fill:#784421;fill-opacity:1;stroke:none;stroke-width:9.214921;stroke-opacity:1"
           id="rect4208"
           width="18.429842"
           height="55.289524"
           x="708.25836"
           y="-215.55809"
           ry="9.214921" /><path
           inkscape:connector-curvature="0"
           id="rect4210"
           d="m 459.4554,436.7167 c -5.10507,0 -9.21493,-4.10986 -9.21493,-9.21492 0,-5.10506 4.10986,-9.21493 9.21493,-9.21493 h 36.85968 c 5.10505,0 9.21492,4.10987 9.21492,9.21493 0,5.10506 -4.10987,9.21492 -9.21492,9.21492 z m 0,-479.175816 c -5.10507,0 -9.21493,-4.109891 -9.21493,-9.214994 0,-5.105102 4.10986,-9.214883 9.21493,-9.214883 h 36.85968 c 5.10505,0 9.21492,4.109781 9.21492,9.214883 0,5.105103 -4.10987,9.214994 -9.21492,9.214994 z"
           style="fill:#784421;fill-opacity:1;stroke:none;stroke-width:9.214921;stroke-opacity:1" /><path
           inkscape:connector-curvature="0"
           id="rect4214"
           d="m 468.67032,436.7167 v -9.21492 h 18.42984 v 9.21492 z M 229.08236,197.12876 v -18.42985 h 9.21492 v 18.42985 z m 488.39081,0 v -18.42985 h 9.21493 v 18.42985 z M 468.67032,-51.67411 v -9.214883 h 18.42984 v 9.214883 z"
           style="fill:#28170b;fill-opacity:1;stroke:none;stroke-width:9.214921;stroke-opacity:1" /></g></g></g></svg>