<?xml version="1.0" encoding="UTF-8" standalone="no"?>
<!-- Created with Inkscape (http://www.inkscape.org/) -->

<svg
   xmlns:dc="http://purl.org/dc/elements/1.1/"
   xmlns:cc="http://creativecommons.org/ns#"
   xmlns:rdf="http://www.w3.org/1999/02/22-rdf-syntax-ns#"
   xmlns:svg="http://www.w3.org/2000/svg"
   xmlns="http://www.w3.org/2000/svg"
   xmlns:sodipodi="http://sodipodi.sourceforge.net/DTD/sodipodi-0.dtd"
   xmlns:inkscape="http://www.inkscape.org/namespaces/inkscape"
   id="svg2"
   version="1.1"
   inkscape:version="0.48.5 r10040"
   width="512"
   height="512"
   viewBox="0 0 512 512"
   sodipodi:docname="wine-uninstaller.svg">
  <metadata
     id="metadata8">
    <rdf:RDF>
      <cc:Work
         rdf:about="">
        <dc:format>image/svg+xml</dc:format>
        <dc:type
           rdf:resource="http://purl.org/dc/dcmitype/StillImage" />
        <dc:title />
      </cc:Work>
    </rdf:RDF>
  </metadata>
  <defs
     id="defs6" />
  <sodipodi:namedview
     pagecolor="#ffffff"
     bordercolor="#666666"
     borderopacity="1"
     objecttolerance="10"
     gridtolerance="10"
     guidetolerance="10"
     inkscape:pageopacity="0"
     inkscape:pageshadow="2"
     inkscape:window-width="1366"
     inkscape:window-height="716"
     id="namedview4"
     showgrid="false"
     inkscape:zoom="0.73606238"
     inkscape:cx="609.80614"
     inkscape:cy="154.64257"
     inkscape:window-x="0"
     inkscape:window-y="0"
     inkscape:window-maximized="1"
     inkscape:current-layer="svg2" />
  <path
     inkscape:connector-curvature="0"
     id="path3340"
     d="M 233.863,170.88645 C 173.95417,167.8998 118.59366,151.30799 94.687161,129.17478 c -6.06681,-5.61678 -10.90309,-13.62866 -10.88624,-18.03433 0.0285,-7.45624 9.1972,-18.598158 22.059779,-26.807428 55.04782,-35.13307 168.96243,-44.48887 252.46814,-20.73521 28.84467,8.20503 50.63946,19.3848 62.67902,32.1516 8.14001,8.631688 9.67486,14.108748 6.13729,21.900668 -8.31182,18.30778 -45.32409,36.94796 -91.89452,46.28004 -18.74518,3.75629 -36.59101,5.88895 -58.70104,7.01503 -19.35318,0.98568 -21.80506,0.98231 -42.68659,-0.0586 z"
     style="fill:#cccccc;stroke-width:0.78468841000000000;fill-opacity:0.58823532" />
  <path
     inkscape:connector-curvature="0"
     id="path3340-3"
     d="m 239.89338,480.38704 c -45.96531,-2.29152 -88.44089,-15.02166 -106.78325,-32.00345 -4.6548,-4.3095 -8.36546,-10.45666 -8.35252,-13.83692 0.0218,-5.72083 7.05659,-14.26952 16.92546,-20.56812 42.23567,-26.956 129.63714,-34.13427 193.70725,-15.90918 22.1312,6.29535 38.85334,14.87308 48.09074,24.66845 6.24546,6.62271 7.42308,10.82501 4.70888,16.80338 -6.37729,14.04673 -34.77511,28.34849 -70.50647,35.50857 -14.38233,2.88203 -28.07462,4.51832 -45.03862,5.38231 -14.84882,0.75627 -16.73003,0.75368 -32.75147,-0.0449 z"
     style="fill:#cccccc;fill-opacity:0.58823529;stroke-width:0.78468841" />
  <path
     inkscape:connector-curvature="0"
     id="path3348"
     d="m 236.83498,480.5103 c -49.22934,-3.37491 -89.30865,-16.81931 -106.62587,-35.7671 -6.16601,-6.74658 -7.83487,-10.35967 -9.66213,-20.91849 -5.04287,-29.14008 -54.592259,-295.72862 -55.887949,-300.69166 -8.87147,-33.981368 27.3269,-64.759098 95.995349,-81.620218 15.726,-3.86142 39.62135,-7.685376 58.58322,-9.375036 17.02485,-1.51706 56.5397,-1.51706 73.56454,0 83.07117,7.402326 145.25639,36.036866 154.62669,71.201224 1.80936,6.79012 1.65516,11.98 -0.63493,21.36921 -2.47721,10.15641 -55.9057,299.75001 -55.9057,303.02065 0,1.32759 -1.35327,5.12192 -3.00727,8.43186 -8.39357,16.79703 -36.53718,31.68245 -74.54624,39.4282 -21.15552,4.31122 -54.29844,6.44337 -76.49971,4.92136 z"
     style="fill:#969696;stroke-width:0.78468841000000000;fill-opacity:0.58823532" />
  <g
     transform="matrix(0.57528667,-0.03187125,-0.03187125,-0.57528667,304.79028,251.7136)"
     id="g44"
     style="fill:#f03916">
    <path
       inkscape:connector-curvature="0"
       id="path46"
       style="fill:#f03916;fill-opacity:1;fill-rule:evenodd;stroke:none"
       d="m 0,0 c 9.067,-66.741 -61.878,-98.854 -130.405,-82.552 -37.209,8.852 -60.527,47.425 -47.855,89.73 C -117.202,28.167 -65.639,-14.318 0,0" />
  </g>
  <g
     transform="matrix(0.57528667,-0.03187125,-0.03187125,-0.57528667,314.99663,255.26923)"
     id="g48">
    <path
       inkscape:connector-curvature="0"
       id="path50"
       style="fill:#000000;fill-opacity:1;fill-rule:nonzero;stroke:none"
       d="m 0,0 c -2.583,36.064 -13.782,68.898 -27.839,100.917 -1.413,3.225 -7.124,2.153 -11.599,2.319 8.728,-32.798 28.519,-68.27 28.999,-105.556 0.763,-59.234 -43.368,-85.847 -98.935,-88.35 -55.568,2.503 -99.697,29.116 -98.934,88.35 0.48,37.286 20.27,72.758 28.999,105.556 -4.475,-0.166 -10.187,0.906 -11.6,-2.319 C -204.965,68.898 -216.165,36.064 -218.747,0 c -0.552,-7.699 -0.915,-17.338 0,-25.519 6.074,-54.317 61.671,-59.655 88.156,-92.798 15.767,-19.726 16.548,-160.154 9.279,-182.112 -5.589,-16.893 -28.436,-21.778 -47.558,-24.36 -6.972,-0.942 -18.38,1.242 -22.039,-6.961 19.547,-4.205 50.768,-5.571 81.535,-5.45 30.767,-0.121 61.988,1.245 81.535,5.45 -3.658,8.203 -15.067,6.019 -22.039,6.961 -19.122,2.582 -41.968,7.467 -47.558,24.36 -7.269,21.958 -6.487,162.386 9.28,182.112 C -61.672,-85.174 -6.074,-79.836 0,-25.519 0.914,-17.338 0.552,-7.699 0,0" />
  </g>
</svg>
