<?xml version="1.0" encoding="UTF-8" standalone="no"?>
<!-- Generator: Adobe Illustrator 19.0.0, SVG Export Plug-In . SVG Version: 6.00 Build 0)  -->

<svg
   xmlns:dc="http://purl.org/dc/elements/1.1/"
   xmlns:cc="http://creativecommons.org/ns#"
   xmlns:rdf="http://www.w3.org/1999/02/22-rdf-syntax-ns#"
   xmlns:svg="http://www.w3.org/2000/svg"
   xmlns="http://www.w3.org/2000/svg"
   xmlns:sodipodi="http://sodipodi.sourceforge.net/DTD/sodipodi-0.dtd"
   xmlns:inkscape="http://www.inkscape.org/namespaces/inkscape"
   version="1.1"
   id="Layer_1"
   x="0px"
   y="0px"
   viewBox="0 0 500 500"
   xml:space="preserve"
   inkscape:version="0.91 r13725"
   width="100%"
   height="100%"
   sodipodi:docname="workrave.svg"><metadata
     id="metadata57"><rdf:RDF><cc:Work
         rdf:about=""><dc:format>image/svg+xml</dc:format><dc:type
           rdf:resource="http://purl.org/dc/dcmitype/StillImage" /></cc:Work></rdf:RDF></metadata><defs
     id="defs55" /><sodipodi:namedview
     pagecolor="#ffffff"
     bordercolor="#666666"
     borderopacity="1"
     objecttolerance="10"
     gridtolerance="10"
     guidetolerance="10"
     inkscape:pageopacity="0"
     inkscape:pageshadow="2"
     inkscape:window-width="1366"
     inkscape:window-height="715"
     id="namedview53"
     showgrid="false"
     inkscape:zoom="0.52559509"
     inkscape:cx="603.92877"
     inkscape:cy="231.65556"
     inkscape:window-x="0"
     inkscape:window-y="24"
     inkscape:window-maximized="1"
     inkscape:current-layer="Layer_1" /><g
     id="g23"
     transform="translate(0,39.767)" /><g
     id="g25"
     transform="translate(0,39.767)" /><g
     id="g27"
     transform="translate(0,39.767)" /><g
     id="g29"
     transform="translate(0,39.767)" /><g
     id="g31"
     transform="translate(0,39.767)" /><g
     id="g33"
     transform="translate(0,39.767)" /><g
     id="g35"
     transform="translate(0,39.767)" /><g
     id="g37"
     transform="translate(0,39.767)" /><g
     id="g39"
     transform="translate(0,39.767)" /><g
     id="g41"
     transform="translate(0,39.767)" /><g
     id="g43"
     transform="translate(0,39.767)" /><g
     id="g45"
     transform="translate(0,39.767)" /><g
     id="g47"
     transform="translate(0,39.767)" /><g
     id="g49"
     transform="translate(0,39.767)" /><g
     id="g51"
     transform="translate(0,39.767)" /><g
     id="g4256"
     transform="matrix(2.2467455,0,0,2.2467455,-212.21764,-693.7792)"><path
       sodipodi:nodetypes="czcczcc"
       inkscape:connector-curvature="0"
       id="path4185-3-6"
       d="m 168.07356,470.56082 c 0,0 -15.83068,4.3952 -22.51098,5.17162 -6.68031,0.7764 -17.25397,0.0965 -17.25397,0.0965 l -4.66215,-18.329 c 0,0 13.10505,-4.94642 19.64325,-5.93092 6.53821,-0.98451 19.15206,-0.1088 19.15206,-0.1088 z"
       style="fill:#ff9955;fill-opacity:1;fill-rule:evenodd;stroke:none;stroke-width:1px;stroke-linecap:butt;stroke-linejoin:miter;stroke-opacity:1" /><path
       sodipodi:nodetypes="czcczcc"
       inkscape:connector-curvature="0"
       id="path4185-3"
       d="m 260.56115,468.66799 c 0,0 15.83068,4.3952 22.51098,5.17162 6.68031,0.7764 17.25397,0.0965 17.25397,0.0965 l 4.66215,-18.329 c 0,0 -13.10505,-4.94642 -19.64325,-5.93092 -6.53821,-0.98451 -19.15206,-0.1088 -19.15206,-0.1088 z"
       style="fill:#ff9955;fill-opacity:1;fill-rule:evenodd;stroke:none;stroke-width:1px;stroke-linecap:butt;stroke-linejoin:miter;stroke-opacity:1" /><path
       sodipodi:nodetypes="czcczcc"
       inkscape:connector-curvature="0"
       id="path4185"
       d="m 265.62707,485.26715 c 0,0 15.83068,4.3952 22.51098,5.17162 6.68031,0.7764 17.25397,0.0965 17.25397,0.0965 l 4.66215,-18.329 c 0,0 -13.10505,-4.94642 -19.64325,-5.93092 -6.53821,-0.98451 -19.15206,-0.1088 -19.15206,-0.1088 z"
       style="fill:#ffb380;fill-opacity:1;fill-rule:evenodd;stroke:none;stroke-width:1px;stroke-linecap:butt;stroke-linejoin:miter;stroke-opacity:1" /><path
       sodipodi:nodetypes="czcczcc"
       inkscape:connector-curvature="0"
       id="path4185-7"
       d="m 163.00764,487.15998 c 0,0 -15.83068,4.3952 -22.51098,5.17162 -6.68031,0.7764 -17.25397,0.0965 -17.25397,0.0965 l -4.66214,-18.329 c 0,0 13.10504,-4.94642 19.64324,-5.93092 6.53821,-0.98451 19.15206,-0.1088 19.15206,-0.1088 z"
       style="fill:#ffb380;fill-opacity:1;fill-rule:evenodd;stroke:none;stroke-width:1px;stroke-linecap:butt;stroke-linejoin:miter;stroke-opacity:1" /><path
       sodipodi:nodetypes="czczczczczczczczczczczczc"
       inkscape:connector-curvature="0"
       id="path3383"
       d="m 176.34077,481.95325 c 0,0 7.88738,20.97295 22.87087,19.5075 14.98349,-1.46545 13.78979,-18.4985 13.78979,-18.4985 0,0 8.51211,17.83311 24.21621,12.78078 15.7041,-5.05233 10.09009,-17.48948 10.09009,-17.48948 0,0 17.63321,15.90512 28.92492,0.33633 11.29171,-15.56879 -5.38139,-26.23423 -5.38139,-26.23423 0,0 15.13269,-4.39657 13.11712,-18.49849 -2.01557,-14.10192 -15.47147,-15.80781 -15.47147,-15.80781 0,0 10.80644,-2.25723 7.06306,-15.13513 -3.74338,-12.8779 -18.83483,-11.77177 -18.83483,-11.77177 0,0 18.75668,-1.47969 10.09009,-14.46246 -8.66659,-12.98277 -31.27927,-7.3994 -31.27927,-7.3994 0,0 -7.60423,-14.64487 -17.48949,-14.46246 -9.88526,0.18241 -10.09009,9.41742 -10.09009,9.41742 0,0 -1.14438,-8.98241 -9.75375,-9.08108 -8.60937,-0.0987 -11.77177,10.09009 -11.77177,10.09009 0,0 1.06607,-8.2795 -7.73574,-6.39039 -8.80181,1.88911 -8.74474,11.43543 -8.74474,11.43543 0,0 -9.50203,-4.44258 -16.14414,1.34535 -6.64211,5.78793 -2.69069,14.12612 -2.69069,14.12612 0,0 -7.84419,54.59838 -6.05405,67.93993 1.79014,13.34155 4.37237,11.77177 4.37237,11.77177 0,0 -1.51884,13.58575 9.08108,19.5075 10.59992,5.92175 17.82582,-3.02702 17.82582,-3.02702 z"
       style="fill:#e6e6e6;fill-rule:evenodd;stroke:none;stroke-width:1px;stroke-linecap:butt;stroke-linejoin:miter;stroke-opacity:1" /><path
       sodipodi:nodetypes="zzzzzzzz"
       inkscape:connector-curvature="0"
       id="path4220"
       d="m 121.76674,449.34314 c 10.98484,4.53568 33.96082,2.9288 39.95471,-3.32956 5.99389,-6.25836 -0.94259,-6.60182 0.47565,-11.89129 1.41824,-5.28947 10.34442,-7.93916 9.75086,-18.5504 -0.59356,-10.61124 -12.20417,-33.96057 -24.0204,-35.43602 -11.81623,-1.47545 -13.62907,11.48807 -21.40431,19.02605 -7.77524,7.53798 -24.67262,15.14403 -24.97169,26.39865 -0.29907,11.25462 9.23034,19.24689 20.21518,23.78257 z"
       style="fill:#ffb380;fill-opacity:1;fill-rule:evenodd;stroke:none;stroke-width:1px;stroke-linecap:butt;stroke-linejoin:miter;stroke-opacity:1" /><path
       sodipodi:nodetypes="czzzcc"
       inkscape:connector-curvature="0"
       id="path4222"
       d="m 147.45191,380.13587 c 0,0 17.70731,-9.82153 25.68517,-8.79955 7.97786,1.02198 17.08833,4.84307 17.5991,11.65346 0.51077,6.81039 -8.00767,11.37206 -14.74519,13.31823 -6.73752,1.94617 -21.87996,-3.80521 -21.87996,-3.80521 z"
       style="fill:#ffb380;fill-opacity:1;fill-rule:evenodd;stroke:none;stroke-width:1px;stroke-linecap:butt;stroke-linejoin:miter;stroke-opacity:1" /><path
       sodipodi:nodetypes="czzzcc"
       inkscape:connector-curvature="0"
       id="path4222-5"
       d="m 150.91445,380.3821 c 0,0 -12.03822,-16.28167 -19.7213,-18.66093 -7.68309,-2.37927 -17.55781,-2.68139 -20.84749,3.30362 -3.28967,5.98501 2.56922,13.66915 7.89253,18.23469 5.3233,4.56555 21.48728,5.6133 21.48728,5.6133 z"
       style="fill:#ffb380;fill-opacity:1;fill-rule:evenodd;stroke:none;stroke-width:1px;stroke-linecap:butt;stroke-linejoin:miter;stroke-opacity:1" /><path
       transform="matrix(0.97917714,0.20300771,-0.20300771,0.97917714,0,0)"
       d="m 227.1742,364.86739 a 7.2312298,13.453451 0 0 1 -7.19898,13.51296 7.2312298,13.453451 0 0 1 -7.26334,-13.39321 7.2312298,13.453451 0 0 1 7.19872,-13.51342 7.2312298,13.453451 0 0 1 7.2636,13.39273"
       sodipodi:open="true"
       sodipodi:end="6.2786824"
       sodipodi:start="6.2787522"
       sodipodi:ry="13.453451"
       sodipodi:rx="7.2312298"
       sodipodi:cy="364.92703"
       sodipodi:cx="219.94304"
       sodipodi:type="arc"
       id="path4239"
       style="fill:#ffffff;fill-opacity:1;stroke:none;stroke-width:35;stroke-linecap:round;stroke-miterlimit:4;stroke-dasharray:none;stroke-opacity:1" /><path
       transform="matrix(0.97917714,0.20300771,-0.20300771,0.97917714,0,0)"
       d="m 211.06499,367.52025 a 7.2312298,13.453451 0 0 1 -7.19898,13.51296 7.2312298,13.453451 0 0 1 -7.26334,-13.39321 7.2312298,13.453451 0 0 1 7.19873,-13.51342 7.2312298,13.453451 0 0 1 7.26359,13.39274"
       sodipodi:open="true"
       sodipodi:end="6.2786824"
       sodipodi:start="6.2787522"
       sodipodi:ry="13.453451"
       sodipodi:rx="7.2312298"
       sodipodi:cy="367.5799"
       sodipodi:cx="203.83383"
       sodipodi:type="arc"
       id="path4239-3"
       style="fill:#ffffff;fill-opacity:1;stroke:none;stroke-width:35;stroke-linecap:round;stroke-miterlimit:4;stroke-dasharray:none;stroke-opacity:1" /></g></svg>