<?xml version="1.0" encoding="UTF-8" standalone="no"?>
<!-- Created with Inkscape (http://www.inkscape.org/) -->

<svg
   xmlns:dc="http://purl.org/dc/elements/1.1/"
   xmlns:cc="http://creativecommons.org/ns#"
   xmlns:rdf="http://www.w3.org/1999/02/22-rdf-syntax-ns#"
   xmlns:svg="http://www.w3.org/2000/svg"
   xmlns="http://www.w3.org/2000/svg"
   xmlns:xlink="http://www.w3.org/1999/xlink"
   xmlns:sodipodi="http://sodipodi.sourceforge.net/DTD/sodipodi-0.dtd"
   xmlns:inkscape="http://www.inkscape.org/namespaces/inkscape"
   version="1.0"
   width="128"
   height="128"
   id="svg2408"
   inkscape:version="0.91 r13725"
   sodipodi:docname="x-gish.svg">
  <sodipodi:namedview
     pagecolor="#ffffff"
     bordercolor="#666666"
     borderopacity="1"
     objecttolerance="10"
     gridtolerance="10"
     guidetolerance="10"
     inkscape:pageopacity="0"
     inkscape:pageshadow="2"
     inkscape:window-width="1133"
     inkscape:window-height="643"
     id="namedview116"
     showgrid="false"
     inkscape:zoom="2.4583333"
     inkscape:cx="30.756564"
     inkscape:cy="41.328152"
     inkscape:window-x="15"
     inkscape:window-y="39"
     inkscape:window-maximized="0"
     inkscape:current-layer="svg2408" />
  <defs
     id="defs2410">
    <linearGradient
       id="linearGradient4411">
      <stop
         id="stop4413"
         style="stop-color:#806451;stop-opacity:1"
         offset="0" />
      <stop
         id="stop4415"
         style="stop-color:#c5a590;stop-opacity:1"
         offset="1" />
    </linearGradient>
    <linearGradient
       id="linearGradient4137">
      <stop
         id="stop4139"
         style="stop-color:#fad34b;stop-opacity:1"
         offset="0" />
      <stop
         id="stop4141"
         style="stop-color:#fabc37;stop-opacity:1"
         offset="1" />
    </linearGradient>
    <linearGradient
       id="linearGradient4096">
      <stop
         id="stop4098"
         style="stop-color:#74686c;stop-opacity:1"
         offset="0" />
      <stop
         id="stop4100"
         style="stop-color:#e4e1e2;stop-opacity:1"
         offset="1" />
    </linearGradient>
    <linearGradient
       id="linearGradient4072">
      <stop
         id="stop4074"
         style="stop-color:#3d566e;stop-opacity:1"
         offset="0" />
      <stop
         id="stop4076"
         style="stop-color:#3d566e;stop-opacity:0"
         offset="1" />
    </linearGradient>
    <linearGradient
       id="linearGradient4015">
      <stop
         id="stop4017"
         style="stop-color:#ffffff;stop-opacity:1"
         offset="0" />
      <stop
         id="stop4019"
         style="stop-color:#ffffff;stop-opacity:0"
         offset="1" />
    </linearGradient>
    <linearGradient
       x1="45.447727"
       y1="92.539597"
       x2="45.447727"
       y2="7.0165396"
       id="ButtonShadow"
       gradientUnits="userSpaceOnUse"
       gradientTransform="scale(1.0058652,0.994169)">
      <stop
         id="stop3750"
         style="stop-color:#000000;stop-opacity:1"
         offset="0" />
      <stop
         id="stop3752"
         style="stop-color:#000000;stop-opacity:0.58823532"
         offset="1" />
    </linearGradient>
    <linearGradient
       id="linearGradient3737">
      <stop
         id="stop3739"
         style="stop-color:#ffffff;stop-opacity:1"
         offset="0" />
      <stop
         id="stop3741"
         style="stop-color:#ffffff;stop-opacity:0"
         offset="1" />
    </linearGradient>
    <filter
       id="filter3174"
       style="color-interpolation-filters:sRGB">
      <feGaussianBlur
         id="feGaussianBlur3176"
         stdDeviation="1.71" />
    </filter>
    <linearGradient
       x1="36.357143"
       y1="6"
       x2="36.357143"
       y2="63.893143"
       id="linearGradient3188"
       xlink:href="#linearGradient3737"
       gradientUnits="userSpaceOnUse" />
    <filter
       x="-0.192"
       y="-0.192"
       width="1.3839999"
       height="1.3839999"
       id="filter3794"
       style="color-interpolation-filters:sRGB">
      <feGaussianBlur
         id="feGaussianBlur3796"
         stdDeviation="5.28" />
    </filter>
    <linearGradient
       x1="48"
       y1="20.220806"
       x2="48"
       y2="138.66119"
       id="linearGradient3613"
       xlink:href="#linearGradient3737"
       gradientUnits="userSpaceOnUse" />
    <radialGradient
       cx="48"
       cy="90.171875"
       r="42"
       fx="48"
       fy="90.171875"
       id="radialGradient3619"
       xlink:href="#linearGradient3737"
       gradientUnits="userSpaceOnUse"
       gradientTransform="matrix(1.1573129,0,0,0.99590774,-7.5510206,0.19713193)" />
    <clipPath
       id="clipPath3613">
      <rect
         width="84"
         height="84"
         rx="6"
         ry="6"
         x="6"
         y="6"
         id="rect3615"
         style="fill:#ffffff;fill-opacity:1;fill-rule:nonzero;stroke:none" />
    </clipPath>
    <linearGradient
       x1="48"
       y1="90"
       x2="48"
       y2="5.9877172"
       id="linearGradient3617"
       xlink:href="#linearGradient4411"
       gradientUnits="userSpaceOnUse" />
    <linearGradient
       x1="45.447727"
       y1="92.539597"
       x2="45.447727"
       y2="7.0165396"
       id="ButtonShadow-0"
       gradientUnits="userSpaceOnUse"
       gradientTransform="matrix(1.0058652,0,0,0.994169,100,0)">
      <stop
         id="stop3750-8"
         style="stop-color:#000000;stop-opacity:1"
         offset="0" />
      <stop
         id="stop3752-5"
         style="stop-color:#000000;stop-opacity:0.58823532"
         offset="1" />
    </linearGradient>
    <linearGradient
       x1="32.251034"
       y1="6.1317081"
       x2="32.251034"
       y2="90.238609"
       id="linearGradient3780"
       xlink:href="#ButtonShadow-0"
       gradientUnits="userSpaceOnUse"
       gradientTransform="matrix(1.0238095,0,0,1.0119048,-1.1428571,-98.071429)" />
    <linearGradient
       x1="32.251034"
       y1="6.1317081"
       x2="32.251034"
       y2="90.238609"
       id="linearGradient3772"
       xlink:href="#ButtonShadow-0"
       gradientUnits="userSpaceOnUse"
       gradientTransform="matrix(1.0238095,0,0,1.0119048,-1.1428571,-98.071429)" />
    <linearGradient
       x1="32.251034"
       y1="6.1317081"
       x2="32.251034"
       y2="90.238609"
       id="linearGradient3725"
       xlink:href="#ButtonShadow-0"
       gradientUnits="userSpaceOnUse"
       gradientTransform="matrix(1.0238095,0,0,1.0119048,-1.1428571,-98.071429)" />
    <linearGradient
       x1="32.251034"
       y1="6.1317081"
       x2="32.251034"
       y2="90.238609"
       id="linearGradient3721"
       xlink:href="#ButtonShadow-0"
       gradientUnits="userSpaceOnUse"
       gradientTransform="translate(0,-97)" />
    <linearGradient
       x1="32.251034"
       y1="6.1317081"
       x2="32.251034"
       y2="90.238609"
       id="linearGradient3026"
       xlink:href="#ButtonShadow-0"
       gradientUnits="userSpaceOnUse"
       gradientTransform="matrix(1.0238095,0,0,1.0119048,-1.1428571,-98.071429)" />
    <radialGradient
       cx="-495.98746"
       cy="-87.834587"
       r="88.03125"
       fx="-495.98746"
       fy="-87.834587"
       id="radialGradient4289"
       xlink:href="#linearGradient4072"
       gradientUnits="userSpaceOnUse"
       gradientTransform="matrix(1,0,0,1.020044,1.2060786,30.129498)" />
    <radialGradient
       cx="-174.5798"
       cy="109.85793"
       r="8.8871508"
       fx="-174.5798"
       fy="109.85793"
       id="radialGradient4291"
       xlink:href="#linearGradient4015"
       gradientUnits="userSpaceOnUse"
       gradientTransform="matrix(1.4045539,-0.00938817,0.00459488,0.78380632,70.122153,22.111605)" />
    <radialGradient
       cx="-174.5798"
       cy="109.85793"
       r="8.8871508"
       fx="-174.5798"
       fy="109.85793"
       id="radialGradient4293"
       xlink:href="#linearGradient4015"
       gradientUnits="userSpaceOnUse"
       gradientTransform="matrix(1.5221657,0.05440008,-0.01699086,0.54206939,93.026167,59.804466)" />
    <radialGradient
       cx="-174.5798"
       cy="109.85793"
       r="8.8871508"
       fx="-174.5798"
       fy="109.85793"
       id="radialGradient4295"
       xlink:href="#linearGradient4015"
       gradientUnits="userSpaceOnUse"
       gradientTransform="matrix(1.3664816,-0.03305183,0.01875702,0.76369477,61.919675,20.189822)" />
    <radialGradient
       cx="-174.5798"
       cy="109.85793"
       r="8.8871508"
       fx="-174.5798"
       fy="109.85793"
       id="radialGradient4297"
       xlink:href="#linearGradient4015"
       gradientUnits="userSpaceOnUse"
       gradientTransform="matrix(1.3664816,-0.03305183,0.01875702,0.76369477,61.919675,20.189822)" />
    <radialGradient
       cx="-174.5798"
       cy="109.85793"
       r="8.8871508"
       fx="-174.5798"
       fy="109.85793"
       id="radialGradient4299"
       xlink:href="#linearGradient4015"
       gradientUnits="userSpaceOnUse"
       gradientTransform="matrix(1.0744883,0.00593562,0.00544351,0.60648574,12.406137,44.266902)" />
    <linearGradient
       x1="-516.70276"
       y1="20.883038"
       x2="-518.81342"
       y2="29.600176"
       id="linearGradient4301"
       xlink:href="#linearGradient4096"
       gradientUnits="userSpaceOnUse"
       gradientTransform="translate(1.2060786,10.653694)" />
    <linearGradient
       x1="-130.89725"
       y1="16.472939"
       x2="-128.05614"
       y2="38.053318"
       id="linearGradient4303"
       xlink:href="#linearGradient4096"
       gradientUnits="userSpaceOnUse"
       gradientTransform="translate(-248.79392,10.653694)" />
    <radialGradient
       cx="-500.14664"
       cy="-15.092947"
       r="26.649689"
       fx="-500.14664"
       fy="-15.092947"
       id="radialGradient4305"
       xlink:href="#linearGradient4137"
       gradientUnits="userSpaceOnUse"
       gradientTransform="matrix(1,0,0,0.33422727,1.2060786,0.60522158)" />
    <radialGradient
       cx="-400.11536"
       cy="-16.508318"
       r="15.88463"
       fx="-400.11536"
       fy="-16.508318"
       id="radialGradient4307"
       xlink:href="#linearGradient4137"
       gradientUnits="userSpaceOnUse"
       gradientTransform="matrix(1,0,0,0.5352161,1.2060786,2.9808942)" />
    <clipPath
       id="clipPath4401">
      <rect
         width="84"
         height="84"
         rx="6"
         ry="6"
         x="-87.640152"
         y="7.9819665"
         transform="matrix(0,-1,1,0,0,0)"
         id="rect4403"
         style="fill:#ff00ff;fill-opacity:1;fill-rule:nonzero;stroke:none" />
    </clipPath>
    <radialGradient
       inkscape:collect="always"
       xlink:href="#linearGradient4137"
       id="radialGradient3081"
       gradientUnits="userSpaceOnUse"
       gradientTransform="matrix(0.33727458,0,0,0.18051479,223.71923,62.019908)"
       cx="-400.11536"
       cy="-16.508318"
       fx="-400.11536"
       fy="-16.508318"
       r="15.88463" />
    <radialGradient
       inkscape:collect="always"
       xlink:href="#linearGradient4137"
       id="radialGradient3084"
       gradientUnits="userSpaceOnUse"
       gradientTransform="matrix(0.33727458,0,0,0.11272636,223.71923,61.218654)"
       cx="-500.14664"
       cy="-15.092947"
       fx="-500.14664"
       fy="-15.092947"
       r="26.649689" />
    <radialGradient
       inkscape:collect="always"
       xlink:href="#linearGradient4072"
       id="radialGradient3102"
       gradientUnits="userSpaceOnUse"
       gradientTransform="matrix(0.33727458,0,0,0.34403491,196.87177,37.820509)"
       cx="-495.98746"
       cy="-87.834587"
       fx="-495.98746"
       fy="-87.834587"
       r="88.03125" />
  </defs>
  <metadata
     id="metadata2413">
    <rdf:RDF>
      <cc:Work
         rdf:about="">
        <dc:format>image/svg+xml</dc:format>
        <dc:type
           rdf:resource="http://purl.org/dc/dcmitype/StillImage" />
        <dc:title />
      </cc:Work>
    </rdf:RDF>
  </metadata>
  <g
     id="layer2"
     style="display:none"
     transform="translate(0,32)">
    <rect
       width="86"
       height="85"
       rx="6"
       ry="6"
       x="5"
       y="7"
       id="rect3745"
       style="opacity:0.9;fill:url(#ButtonShadow);fill-opacity:1;fill-rule:nonzero;stroke:none;filter:url(#filter3174)" />
  </g>
  <path
     d="m 61.767606,32.922349 c -4.360943,1.613538 -9.243573,3.760605 -11.52729,8.532722 -1.90954,3.990228 -5.903998,7.089234 -9.223883,9.799979 -4.118756,2.275254 -8.89562,7.903913 -11.677464,11.467359 -2.695522,4.04888 -2.928174,5.499738 -4.070024,10.398165 -1.119455,4.715255 1.739008,9.779664 3.909309,13.562072 2.643909,2.915628 7.567797,4.5175 9.506705,7.022162 -2.410208,0.01826 -4.107219,3.080677 -0.763496,3.254505 3.192173,0.425978 8.616354,1.422726 10.414962,-1.29481 -2.755041,-3.197819 1.958155,1.028583 3.688809,0.613236 4.228671,1.652547 8.489245,-0.353528 12.800103,0.04481 1.771296,-0.13156 5.862858,0.864324 1.900559,0.448077 -2.065972,-0.980222 -6.098895,1.263255 -2.553947,2.583914 4.566522,-0.716277 8.184534,1.473987 12.020327,3.191447 5.797181,1.03032 9.736207,0.20892 15.226093,-0.0602 2.743408,-1.3983 7.081542,-0.76837 9.068851,-3.304292 -4.23084,-2.082927 -8.190349,-4.486673 -12.868465,-5.676483 -3.687966,-1.083454 -9.417297,4.464099 -10.126531,4.452952 3.757805,-2.923867 7.733348,-7.169206 13.011308,-5.064417 4.548916,1.194854 8.353556,3.690208 13.423248,3.583259 4.79033,-0.101058 5.01999,-5.343248 0.285,-5.133687 -1.98503,-0.491627 -7.04694,0.92233 -7.059851,0.72968 4.547421,-1.359873 5.924731,-6.289867 7.103471,-9.944702 -0.067,-4.657104 -0.17372,-9.462873 -2.16658,-13.712058 C 99.098485,65.064554 97.045775,60.489459 93.894403,57.245377 92.132861,53.598962 90.748845,49.752578 88.576365,46.240524 86.646004,43.311934 85.021032,38.846322 81.702298,37.458397 78.674,35.268333 75.500108,32.917904 71.825957,32.322183 68.449103,31.933509 64.954365,31.743257 61.767606,32.922349 z"
     inkscape:connector-curvature="0"
     id="path4199"
     style="fill:#00bbf2;fill-opacity:1;stroke:none" />
  <path
     d="m 67.157918,71.48272 c -6.320515,0.71636 -13.380047,-1.011753 -19.545416,-2.159982 -4.008974,-0.746625 -8.846601,-1.634983 -9.783091,2.850731 -0.698182,3.344237 1.084793,5.875753 4.131405,6.676956 4.734623,1.245118 11.36708,-1.223715 17.214373,-2.356491 3.248352,-0.629291 7.477691,-1.485603 11.114853,-1.75804 4.766371,-0.357018 9.418899,-0.977894 14.328187,-0.66347 5.373843,0.344177 10.737186,1.595696 16.237281,3.598919 3.05598,1.113035 2.11165,-6.509657 -0.0577,-8.41354 -2.029722,-1.78135 -4.837681,-1.79157 -7.516684,-0.715466 -8.189958,3.289751 -17.334804,1.944315 -26.123208,2.940383 z"
     inkscape:connector-curvature="0"
     id="path4219"
     style="fill:#000000;stroke:none" />
  <path
     d="m 50.030177,70.490355 c -1.379675,-0.106396 -2.813578,-0.09942 -4.194329,-0.08348 -1.020334,0.14456 -1.932671,0.255228 -1.810251,1.304398 0.08697,1.144087 1.005584,2.515463 1.821269,3.245805 0.837966,0.725929 1.652841,1.268953 2.754188,1.493056 0.931316,0.147243 2.062802,-0.44901 2.896855,-0.796408 1.08796,-0.512184 2.578447,-1.414903 3.302154,-2.398543 0.406608,-0.576851 0.31893,-0.902173 -0.07804,-1.550431 -0.384429,-0.521512 -1.393932,-0.313189 -1.952287,-0.590027 -0.933481,-0.398986 -1.727227,-0.545408 -2.73956,-0.62437 z"
     inkscape:connector-curvature="0"
     id="path4225"
     style="fill:#000000;stroke:none" />
  <path
     d="m 45.918382,70.80876 c -2.094323,0.675885 1.712903,3.928218 3.247752,4.543824 1.170639,-0.265753 4.123445,-2.077862 4.218593,-3.416045 -2.654823,-1.529203 -4.357351,-1.151252 -7.466345,-1.127779 z"
     inkscape:connector-curvature="0"
     id="path4227"
     style="fill:#e6e6e6;fill-opacity:1;stroke:none" />
  <path
     d="m 97.5608,68.964294 c 0,0 -0.771293,-0.02831 -1.964267,0.207455 -1.192974,0.235763 -2.385034,0.314808 -3.481999,1.137532 -0.340776,0.253658 -1.059845,0.385116 -0.975833,0.801543 0.29668,1.456428 1.40636,2.326734 2.297683,2.824675 0.891322,0.49794 1.717992,0.695628 1.717992,0.695628 0.214601,0.05386 0.445071,0.04271 0.65347,-0.03162 0,0 0.935977,-0.327004 1.739072,-1.169921 0.803094,-0.842917 1.490979,-2.349708 1.096142,-4.258092 -0.110009,-0.531415 -0.541181,-0.248858 -1.08226,-0.207201 z"
     inkscape:connector-curvature="0"
     id="path4229"
     style="fill:#000000;stroke:none" />
  <path
     d="m 92.243808,70.888583 c 1.59485,-1.196137 5.291997,-1.486109 5.291997,-1.486109 0.652437,3.153451 -2.1023,4.132108 -2.1023,4.132108 0,0 -2.790985,-0.688685 -3.189697,-2.645999 z"
     inkscape:connector-curvature="0"
     id="path4231"
     style="fill:#e6e6e6;fill-opacity:1;stroke:none" />
  <path
     d="m 90.822506,55.037582 c -1.200084,-0.01148 -2.462297,0.375438 -3.657321,1.138302 -0.935199,0.597 -2.035456,1.579306 -2.972233,2.529559 -0.46755,0.474278 -0.894013,0.930905 -1.22262,1.349099 -0.164384,0.209198 -0.302461,0.407259 -0.421593,0.61131 -0.09882,0.169253 -0.274036,0.420753 -0.274036,0.895885 0,0.157361 0.0067,0.325401 0.0527,0.516452 0.02293,0.09518 0.05911,0.213268 0.147558,0.368894 0.03708,0.06524 0.110444,0.197851 0.263496,0.326735 0.169895,0.143068 0.45099,0.283048 0.790487,0.274035 0.207491,-0.006 0.254372,-0.02327 0.168637,-0.01054 0.01646,-0.0024 0.0379,-0.0048 0.07378,-0.01054 0.0636,-0.01018 0.149055,-0.02484 0.252956,-0.04216 0.210733,-0.03512 0.505028,-0.08634 0.864266,-0.147557 0.719704,-0.122642 1.694184,-0.289914 2.761436,-0.474293 1.056077,-0.182448 2.116566,-0.353957 2.961692,-0.474292 0.421077,-0.05996 0.815672,-0.104968 1.106682,-0.137018 0.145507,-0.01602 0.261203,-0.03396 0.347815,-0.04216 0.08661,-0.0082 0.179976,-0.01065 0.137018,-0.01054 0.895204,-0.0023 1.741861,-0.244199 2.350382,-0.843186 0.621873,-0.612129 0.837719,-1.553536 0.62185,-2.413621 -0.525579,-2.094064 -2.340881,-3.385113 -4.35295,-3.404366 z"
     id="path4233"
     style="fill:#000000;fill-opacity:1"
     inkscape:connector-curvature="0" />
  <path
     d="m 91.00115,56.438486 c -1.945882,-0.02393 -4.067208,0.143149 -5.455001,1.425224 -1.093205,0.980207 -1.870741,1.695347 -2.685293,2.925066 -0.3566,0.603753 -0.391353,0.971889 -0.284909,1.705021 0.464299,0.169957 2.588049,-0.285039 3.033231,-0.44319 3.369576,-1.197042 3.525029,-0.722211 6.101173,-0.956683 1.05857,0.01108 1.822831,-0.201019 2.184959,-1.273682 0.399957,-1.177284 -1.227201,-1.264903 -2.02817,-2.128223 -0.789263,-0.819851 0.269597,-1.251108 -0.86599,-1.253533 z"
     inkscape:connector-curvature="0"
     id="path4235"
     style="fill:#57250f;fill-opacity:1" />
  <path
     d="m 53.732842,54.974343 c -2.473515,0 -3.470276,0.288851 -5.491252,1.602055 -1.123752,0.730199 -2.043381,1.467421 -2.708736,2.202824 -0.330364,0.365143 -0.621436,0.751711 -0.822107,1.212081 -0.21281,0.488224 -0.370732,1.272756 0.07378,1.992028 0.15804,0.255719 0.331891,0.434447 0.537531,0.548071 0.20564,0.113623 0.401616,0.159444 0.263496,0.105398 0.115155,0.04506 0.229744,0.0719 0.326734,0.09486 0.180068,0.04263 0.346719,0.06773 0.537532,0.09486 0.393815,0.05599 0.909059,0.116603 1.517735,0.168637 1.215963,0.10395 2.833896,0.201697 4.595367,0.274036 3.462015,0.142172 7.317624,0.385865 8.05243,0.484832 1.382209,0.186161 2.112611,0.301201 2.740356,0.305655 0.302822,0.0022 0.69005,-0.02146 1.096143,-0.210796 0.467793,-0.218098 0.72346,-0.535056 0.874805,-0.779948 0.405101,-0.655459 0.152823,-1.384931 0.08432,-1.538815 -0.102366,-0.229948 -0.235495,-0.394857 -0.305655,-0.484832 -0.180213,-0.231112 -0.384756,-0.448896 -0.62185,-0.67455 -0.471867,-0.449097 -1.089559,-0.961963 -1.781231,-1.507195 -1.384472,-1.091354 -3.019559,-2.258407 -4.279172,-2.940613 -1.303805,-0.706139 -2.584019,-0.948585 -4.690224,-0.948585 z"
     id="path4237"
     style="fill:#000000;fill-opacity:1"
     inkscape:connector-curvature="0" />
  <path
     d="m 48.531015,56.620252 c -1.464439,0.918092 -2.78584,1.853595 -3.652144,3.395648 -0.710678,1.220969 0.515359,2.147259 1.49756,2.120342 1.549629,0.256571 3.630832,-0.639733 5.196174,-0.533716 3.919012,0.210318 7.280493,1.203113 11.169441,1.775652 0.741569,0.073 1.707874,0.06443 2.060788,-0.736137 0.43523,-0.95142 -0.66551,-1.609566 -1.216357,-2.209347 -1.605764,-1.350389 -3.072898,-2.548805 -4.860892,-3.64879 -2.469902,-0.888509 -6.244497,-0.877131 -10.19457,-0.163652 z"
     inkscape:connector-curvature="0"
     id="path4239"
     style="fill:#57250f;fill-opacity:1" />
  <path
     d="m 64.012448,62.258584 c 0.223934,-0.362331 -4.141425,-3.804919 -6.32318,-4.986558 -1.102716,-0.597229 -1.946364,-0.758867 -3.960828,-0.758867 -2.417786,0 -2.675403,0.0752 -4.647586,1.3567 -2.085966,1.355432 -3.328239,2.731604 -2.977753,3.2987 0.102143,0.165275 3.036867,0.417587 6.521608,0.560696 3.484738,0.143105 7.170643,0.372621 8.190899,0.510033 2.763672,0.37222 2.977925,0.373512 3.19684,0.01929 z"
     inkscape:connector-curvature="0"
     id="path4241"
     style="fill:url(#radialGradient3084);fill-opacity:1" />
  <path
     d="m 87.4603,61.235003 c 2.133262,-0.368544 4.267026,-0.671082 4.741699,-0.672313 1.382732,-0.0036 2.143424,-0.749091 1.871173,-1.833816 -0.658866,-2.62513 -3.53793,-3.355103 -6.293885,-1.595788 -1.571284,1.003058 -4.366282,3.839905 -4.366282,4.431656 0,0.189647 0.03794,0.343805 0.08432,0.342574 0.04638,-0.0013 1.829715,-0.30377 3.962977,-0.672313 z"
     inkscape:connector-curvature="0"
     id="path4243"
     style="fill:url(#radialGradient3081);fill-opacity:1" />
  <path
     d="m 49.400368,56.063739 c -2.691387,0.873038 -5.119329,2.549327 -7.021119,4.614742 -1.193625,1.591479 2.343063,3.753926 2.331444,2.01289 -1.746381,-1.541871 0.576095,-3.525471 1.843522,-4.473001 0.918618,-0.761703 2.062671,-1.236387 2.846153,-2.154631 z"
     inkscape:connector-curvature="0"
     id="path4245"
     style="fill:#000000;stroke:none" />
  <path
     d="m 62.485377,58.818478 c 1.800567,0.765745 3.201565,2.538999 3.588197,4.450997 0.455668,1.011605 -1.728961,2.54291 -0.743407,0.838764 0.270767,-2.211385 -2.03635,-3.476652 -2.84479,-5.289761 z"
     inkscape:connector-curvature="0"
     id="path4247"
     style="fill:#000000;stroke:none" />
  <path
     d="m 85.570429,56.703567 c 1.015864,-3.019022 5.042761,-3.801179 5.693937,-7.034765 0.936989,-0.510704 0.413505,2.965214 -0.614204,3.285232 -1.276058,1.693468 -3.047003,3.096749 -5.079733,3.749533 z"
     inkscape:connector-curvature="0"
     id="path4253"
     style="fill:#000000;stroke:none" />
  <path
     d="m 92.207561,61.790696 c 1.394998,-0.467872 5.3197,1.17799 4.918839,-1.862029 -1.692018,-0.07 -3.386317,1.083886 -4.918839,1.862029 z"
     inkscape:connector-curvature="0"
     id="path4255"
     style="fill:#000000;stroke:none" />
</svg>
