<?xml version="1.0" encoding="UTF-8" standalone="no"?>
<svg
   xmlns:dc="http://purl.org/dc/elements/1.1/"
   xmlns:cc="http://creativecommons.org/ns#"
   xmlns:rdf="http://www.w3.org/1999/02/22-rdf-syntax-ns#"
   xmlns:svg="http://www.w3.org/2000/svg"
   xmlns="http://www.w3.org/2000/svg"
   xmlns:sodipodi="http://sodipodi.sourceforge.net/DTD/sodipodi-0.dtd"
   xmlns:inkscape="http://www.inkscape.org/namespaces/inkscape"
   height="500"
   id="Layer_1"
   version="1.1"
   viewBox="0 0 500 500"
   width="500"
   xml:space="preserve"
   inkscape:version="0.48.5 r10040"
   sodipodi:docname="email.svg"><metadata
     id="metadata52"><rdf:RDF><cc:Work
         rdf:about=""><dc:format>image/svg+xml</dc:format><dc:type
           rdf:resource="http://purl.org/dc/dcmitype/StillImage" /></cc:Work></rdf:RDF></metadata><defs
     id="defs50" /><sodipodi:namedview
     pagecolor="#ffffff"
     bordercolor="#666666"
     borderopacity="1"
     objecttolerance="10"
     gridtolerance="10"
     guidetolerance="10"
     inkscape:pageopacity="0"
     inkscape:pageshadow="2"
     inkscape:window-width="1366"
     inkscape:window-height="716"
     id="namedview48"
     showgrid="false"
     inkscape:zoom="0.4609303"
     inkscape:cx="70.326109"
     inkscape:cy="185.09613"
     inkscape:window-x="0"
     inkscape:window-y="0"
     inkscape:window-maximized="1"
     inkscape:current-layer="Layer_1" /><g
     id="g18"
     transform="translate(0,435.999)" /><g
     id="g20"
     transform="translate(0,435.999)" /><g
     id="g22"
     transform="translate(0,435.999)" /><g
     id="g24"
     transform="translate(0,435.999)" /><g
     id="g26"
     transform="translate(0,435.999)" /><g
     id="g28"
     transform="translate(0,435.999)" /><g
     id="g30"
     transform="translate(0,435.999)" /><g
     id="g32"
     transform="translate(0,435.999)" /><g
     id="g34"
     transform="translate(0,435.999)" /><g
     id="g36"
     transform="translate(0,435.999)" /><g
     id="g38"
     transform="translate(0,435.999)" /><g
     id="g40"
     transform="translate(0,435.999)" /><g
     id="g42"
     transform="translate(0,435.999)" /><g
     id="g44"
     transform="translate(0,435.999)" /><g
     id="g46"
     transform="translate(0,435.999)" /><polygon
     style="fill:#dcd6cd"
     points="0,44 28,44 56,44 56,5 0,5 "
     id="polygon7"
     transform="matrix(8.0357143,0,0,8.0357143,27.169525,56.428571)" /><path
     style="fill:#e8e3d9"
     d="m 275.99542,274.25268 c -13.15447,11.74821 -34.48929,11.74821 -47.65179,0 L 211.5731,259.44286 C 159.10792,306.26696 27.169525,410 27.169525,410 H 200.7972 303.54988 477.16953 c 0,0 -131.9384,-103.73304 -184.40358,-150.55714 l -16.77053,14.80982 z"
     id="path9"
     inkscape:connector-curvature="0" /><path
     style="fill:#efebde"
     d="M 27.169525,96.60714 228.34363,274.25268 c 13.15447,11.74821 34.48929,11.74821 47.65179,0 L 477.16953,96.60714 H 27.169525 z"
     id="path11"
     inkscape:connector-curvature="0" /></svg>