<?xml version="1.0" encoding="UTF-8" standalone="no"?>
<svg
   xmlns:dc="http://purl.org/dc/elements/1.1/"
   xmlns:cc="http://creativecommons.org/ns#"
   xmlns:rdf="http://www.w3.org/1999/02/22-rdf-syntax-ns#"
   xmlns:svg="http://www.w3.org/2000/svg"
   xmlns="http://www.w3.org/2000/svg"
   xmlns:sodipodi="http://sodipodi.sourceforge.net/DTD/sodipodi-0.dtd"
   xmlns:inkscape="http://www.inkscape.org/namespaces/inkscape"
   viewBox="0 0 300000 300000"
   id="svg2"
   version="1.1"
   inkscape:version="0.92.1 r15371"
   width="600"
   height="600"
   sodipodi:docname="xfce-panel.svg">
  <metadata
     id="metadata65">
    <rdf:RDF>
      <cc:Work
         rdf:about="">
        <dc:format>image/svg+xml</dc:format>
        <dc:type
           rdf:resource="http://purl.org/dc/dcmitype/StillImage" />
        <dc:title />
      </cc:Work>
    </rdf:RDF>
  </metadata>
  <sodipodi:namedview
     pagecolor="#ffffff"
     bordercolor="#666666"
     borderopacity="1"
     objecttolerance="10"
     gridtolerance="10"
     guidetolerance="10"
     inkscape:pageopacity="0"
     inkscape:pageshadow="2"
     inkscape:window-width="1366"
     inkscape:window-height="714"
     id="namedview63"
     showgrid="false"
     inkscape:zoom="0.30729167"
     inkscape:cx="7.554671"
     inkscape:cy="212.69079"
     inkscape:window-x="0"
     inkscape:window-y="0"
     inkscape:window-maximized="1"
     inkscape:current-layer="svg2"
     units="px"
     scale-x="500" />
  <defs
     id="defs4">
    <linearGradient
       id="linearGradient3764"
       x1="1"
       x2="47"
       gradientUnits="userSpaceOnUse"
       gradientTransform="rotate(-90,23.999998,24)">
      <stop
         stop-color="#3d3d3d"
         stop-opacity="1"
         id="stop7" />
      <stop
         offset="1"
         stop-color="#474747"
         stop-opacity="1"
         id="stop9" />
    </linearGradient>
    <clipPath
       id="clipPath-156864852">
      <g
         transform="translate(0,-1004.3622)"
         id="g12">
        <path
           d="m -24,13 c 0,1.105 -0.672,2 -1.5,2 -0.828,0 -1.5,-0.895 -1.5,-2 0,-1.105 0.672,-2 1.5,-2 0.828,0 1.5,0.895 1.5,2 z"
           transform="matrix(15.333333,0,0,11.5,414.99999,878.8622)"
           id="path14"
           inkscape:connector-curvature="0"
           style="fill:#1890d0" />
      </g>
    </clipPath>
    <clipPath
       id="clipPath-165128749">
      <g
         transform="translate(0,-1004.3622)"
         id="g17">
        <path
           d="m -24,13 c 0,1.105 -0.672,2 -1.5,2 -0.828,0 -1.5,-0.895 -1.5,-2 0,-1.105 0.672,-2 1.5,-2 0.828,0 1.5,0.895 1.5,2 z"
           transform="matrix(15.333333,0,0,11.5,414.99999,878.8622)"
           id="path19"
           inkscape:connector-curvature="0"
           style="fill:#1890d0" />
      </g>
    </clipPath>
    <clipPath
       clipPathUnits="userSpaceOnUse"
       id="clipPath3899">
      <g
         id="g3901"
         transform="translate(-82.695539,14.381833)"
         mask="none">
        <g
           transform="translate(-297.63665,-823.35994)"
           id="g3903">
          <path
             inkscape:connector-curvature="0"
             id="path3905"
             d="m 1002.1873,-66.957497 h 492.6712 c 21.3869,0 38.6045,17.2176 38.6045,38.604485 V 234.63608 c 0,21.38688 -17.2176,38.60448 -38.6045,38.60448 h -492.6712 c -21.38688,0 -38.60448,-17.2176 -38.60448,-38.60448 V -28.353012 c 0,-21.386885 17.2176,-38.604485 38.60448,-38.604485 z"
             style="fill:#db4c00;fill-opacity:1;fill-rule:evenodd;stroke:none" />
          <path
             inkscape:connector-curvature="0"
             id="path3907"
             d="m 963.737,230.71581 h 569.8801 v 81.64752 H 963.737 Z"
             style="fill:#db4c00;fill-opacity:1;fill-rule:evenodd;stroke:none" />
        </g>
      </g>
    </clipPath>
  </defs>
  <g
     id="g33"
     transform="translate(0,299952)" />
  <g
     id="g4536">
    <path
       mask="none"
       inkscape:connector-curvature="0"
       clip-path="none"
       id="path3805-0"
       d="m 294973.03,150006.32 c 0,80074.29 -64912.68,144989.06 -144986.51,144989.06 -80073.848,0 -144986.5196,-64914.77 -144986.5196,-144989.06 0,-80074.289 64912.6716,-144983.9605 144986.5196,-144983.9605 80073.83,0 144986.51,64909.6715 144986.51,144983.9605 z"
       style="fill:#00bbf2;fill-opacity:1;stroke:none;stroke-width:509.73513794" />
    <path
       transform="matrix(460.27469,0,0,460.27469,-219315.35,459344.18)"
       mask="none"
       inkscape:connector-curvature="0"
       clip-path="url(#clipPath3899)"
       id="path3805"
       d="m 1117.4096,-672.17837 c 0,173.96979 -141.03037,315.0001 -315.00005,315.0001 -173.96969,0 -314.99999,-141.03031 -314.99999,-315.0001 0,-173.9696 141.0303,-314.9999 314.99999,-314.9999 173.96968,0 315.00005,141.0303 315.00005,314.9999 z"
       style="fill:#394050;fill-opacity:1;stroke:none" />
    <g
       transform="translate(12261.208,2301.0932)"
       id="g4529">
      <path
         style="fill:#ffffff;fill-opacity:1;stroke:none;stroke-width:3105.35498047"
         d="M 97910.91,92933.171 V 126420.38 H 74385.18 c -1476.54,5539.64 -2331.38,11373.68 -2331.38,17379.43 0,20261.82 8909.33,38438.71 22995.9,50866.34 h 14412.14 v 7947.84 h 61145.74 v -7947.84 h -106.02 v -20346.6 h 20346.6 V 99291.691 h -6040.41 v -6252.32 c -37.64,-34.16 -68.19,-71.42 -105.96,-105.58 H 97910.91 Z"
         id="path2997"
         inkscape:connector-curvature="0" />
      <path
         inkscape:connector-curvature="0"
         style="fill:#00bbf2;fill-opacity:1;stroke:none;stroke-width:3105.35498047"
         d="m 139956.36,75934.761 c -4683.62,0 -9275.2,505.24 -13691.69,1408.59 -4416.38,903.35 -8626.56,2208.53 -12684.88,3924.55 -4058.33,1715.71 -7968.22,3801.58 -11577.51,6238.66 -3609.29,2437.08 -6897.43,5183.46 -9966.7,8251.55 -3069.33,3067.47 -5917.57,6454.789 -8355.95,10062.279 -2438.39,3607.8 -4525.25,7515.89 -6241.77,11572.1 -1611.74,3808.72 -2827.36,7747.55 -3724.93,11873.95 2904.81,548.41 5903.22,1039.67 8859.27,1509.51 4787.09,760.5 9385.56,1316.05 12986.96,1307.98 1801.17,0 3443.16,-192.53 4630.96,-503.07 1191.77,-307.43 2032.39,-460.52 2516.89,-1006.44 1866.94,-2103.57 4107.57,-4764.86 5134.33,-8854.92 76.39,-304.33 220.73,-1297.11 201.35,-1609.82 -48.01,-315.5 -143.65,-778.2 -301.84,-1409.21 -375.69,-1497.71 -935.4,-3522.72 -1308.78,-5735.28 -373.7,-2217.22 -612.5,-4533.2 -100.49,-6742.35 504.06,-2175.3 1831.29,-4260.54 4127.57,-5534.05 889.32,-444.38 1959.42,-613.62 2818.92,-402.45 890.31,217.37 1667.27,750.56 2416.15,1408.58 1498.46,1316.36 2777.93,3329.88 3926.29,5433.75 1144.14,2096.12 2119.65,4318.31 2919.53,6138.36 401.52,913.6 814.91,1592.43 1107.43,2213.81 130.49,279.48 216.82,548.4 301.84,704.29 84.1,155.27 123.41,245.33 100.55,198.74 73.72,121.11 179.43,226.7 301.84,301.22 -71.79,-43.47 253.22,139.75 503.38,198.75 378.61,96.26 642.94,121.11 1006.76,102.47 182.66,0 361.96,-83.84 503.38,-201.84 35.77,-34.16 68.56,-65.22 100.49,-102.48 116.94,-142.85 188.49,-322.34 201.35,-503.38 16.14,-99.37 16.14,-204.95 0,-301.22 -154.65,-541.88 -556.17,-1484.98 -1006.7,-3119.33 -520.83,-1889.61 -980.23,-4242.22 -1308.78,-6641.42 -329.54,-2403.55 -402.64,-4831 100.49,-6942.949 491.76,-2063.51 1662.05,-3947.53 3724.93,-4729.46 3110.83,-1196.49 5861.74,-355.87 7449.88,1509.2 1669.19,1960.41 2504.15,4816.719 3020.26,7849.099 513.94,3020.27 671.82,6199.84 704.67,8653.69 16.15,1225.69 3.11,2158.22 0,2918.1 -0.62,71.43 0,149.06 0,198.75 1.31,139.74 36.09,279.48 100.55,402.45 73.72,121.11 179.43,226.69 301.84,301.22 93.1,49.69 196.51,83.84 301.91,102.48 188.74,40.37 365.68,139.74 704.72,198.74 1169.85,214.27 2842.09,394.69 4832.31,704.29 3982.49,619.52 9228.74,1607.65 14597.71,3018.72 5370.1,1411.38 10883.16,3334.84 15201.77,6138.35 4303.71,2793.89 7486.95,6504.79 8154.6,11370.57 422.77,3018.41 -1784.46,5888.38 -4933.04,8654.32 -3143.92,2761.59 -7345.34,5515.11 -11778.86,7949.39 -4431.78,2432.74 -9014.29,4619.84 -12684.88,6339.28 -1836.19,859.87 -3385.27,1616.95 -4631.01,2213.49 -630.14,301.22 -1190.35,582.88 -1610.75,805.22 -420.47,223.59 -687.96,351.22 -906.08,503.07 -1487.84,1037.19 -2157.97,2229.33 -2315.54,3522.09 -161.04,1320.4 135.33,2693.59 704.73,3723.01 33.23,1.87 67.01,1.87 100.55,0 6.52,0 -6.52,90.06 0,102.48 6.52,0 94.03,0 100.49,0 9.63,0 -3.11,96.27 0,102.48 173.96,254.64 376.06,421.08 704.73,804.9 397.3,463.94 944.83,1104.27 1510.13,1710.74 1123.71,1205.19 2447.71,2638 3724.94,4125.78 1278.53,1489.02 2502.36,3042 3322.23,4527.92 831.8,1508.27 1372.57,2919.96 906.02,4327.31 -16.15,43.47 -84.71,-43.48 -100.49,0 -138.19,350.28 -559.58,617.65 -805.4,704.29 -341.1,118.01 -621.08,208.06 -1006.76,198.75 -720.19,0 -1531.75,-173.9 -2516.83,-402.46 -1953.76,-458.04 -4381.1,-1303.63 -6845.82,-2113.19 -2464.9,-809.57 -4954.16,-1611.99 -6845.81,-2113.2 -686.72,-183.21 -1173.39,-226.69 -1610.81,-301.21 -475.18,-65.22 -964.84,328.85 -1006.7,804.9 -16.14,173.9 19.26,350.6 100.49,503.38 120.49,226.69 261.29,558.03 604.06,1006.14 1006.88,1316.05 2591.54,2837.05 4127.63,4528.22 1539.64,1695.22 2956.8,3534.52 3724.94,5433.75 735.16,1817.57 644.11,4057.77 -906.08,5735.91 -65.34,55.89 -68.57,80.74 -100.49,102.47 -459.59,298.12 -635.23,217.38 -1107.43,198.75 -386.49,0 -820,3.1 -1308.79,-102.48 -970.92,-208.06 -2144.99,-631.94 -3523.58,-1107.06 -2752.34,-948.07 -6212.76,-2294.24 -9564,-3723.01 -3351.23,-1428.46 -6525.53,-2922.76 -8960,-4024.85 -1367.66,-575.73 -2609.68,-1458.59 -4127.64,-1509.2 -318.61,-34.16 -758.82,0 -1308.72,102.47 -1100.79,180.11 -2691.78,356.5 -4631.02,603.99 -3650.84,465.81 -8728.46,1006.45 -14497.03,1307.98 2657.68,2499.5 5422.44,4894.35 8456.62,6943.26 3609.23,2437.09 7519.12,4522.95 11577.45,6238.97 4058.39,1715.4 8268.5,3021.2 12684.94,3924.24 4416.5,903.35 9008.01,1408.9 13691.63,1408.9 37470.09,0 67855.36,-30370.99 67855.36,-67821.89 0,-37451.2 -30385.27,-67821.879 -67854.24,-67821.879 z m 30806.18,20728.87 c 564.68,-34.16 1207.05,912.66 1308.78,1509.2 429.78,6610.989 -679.88,13441.219 -2315.54,19823.349 -90.8,1350.51 -1864.08,2968.4 -2818.85,1308.28 -1114.08,-3798.78 209.11,-7842.57 604.05,-11672.41 825.16,-3483.27 882.42,-7475.83 2718.18,-10565.969 165.89,-273.27 315.07,-391.58 503.38,-402.45 z m 14094.34,3823.619 c 1063.58,-127.32 1467.03,931.92 1107.43,1811.67 -2683.03,6838.3 -6010.11,13578.16 -10369.4,19521.19 -764.6,1480.01 -3010.58,1179.41 -3020.21,-603.68 303.14,-4924.16 3479.8,-9103.66 5839.06,-13282.54 1966.68,-2553.84 3389.56,-6079.97 6443.12,-7446.64 z"
         id="path2831"
         sodipodi:nodetypes="csssssscssssssssscsssssssssssssssssssssssssssssssssssssssssssssssssssssssssssssssssscssscsssssccccccsccscccc" />
    </g>
  </g>
</svg>
