<?xml version="1.0" encoding="UTF-8" standalone="no"?>
<!-- Generator: Adobe Illustrator 19.0.0, SVG Export Plug-In . SVG Version: 6.00 Build 0)  -->

<svg
   xmlns:dc="http://purl.org/dc/elements/1.1/"
   xmlns:cc="http://creativecommons.org/ns#"
   xmlns:rdf="http://www.w3.org/1999/02/22-rdf-syntax-ns#"
   xmlns:svg="http://www.w3.org/2000/svg"
   xmlns="http://www.w3.org/2000/svg"
   xmlns:sodipodi="http://sodipodi.sourceforge.net/DTD/sodipodi-0.dtd"
   xmlns:inkscape="http://www.inkscape.org/namespaces/inkscape"
   version="1.1"
   id="Layer_1"
   x="0px"
   y="0px"
   viewBox="0 0 500 500"
   xml:space="preserve"
   inkscape:version="0.91 r13725"
   width="100%"
   height="100%"
   sodipodi:docname="gnome-session-sleep.svg"><metadata
     id="metadata57"><rdf:RDF><cc:Work
         rdf:about=""><dc:format>image/svg+xml</dc:format><dc:type
           rdf:resource="http://purl.org/dc/dcmitype/StillImage" /></cc:Work></rdf:RDF></metadata><defs
     id="defs55" /><sodipodi:namedview
     pagecolor="#ffffff"
     bordercolor="#666666"
     borderopacity="1"
     objecttolerance="10"
     gridtolerance="10"
     guidetolerance="10"
     inkscape:pageopacity="0"
     inkscape:pageshadow="2"
     inkscape:window-width="1366"
     inkscape:window-height="708"
     id="namedview53"
     showgrid="false"
     inkscape:zoom="0.1827871"
     inkscape:cx="-420.42977"
     inkscape:cy="447.88658"
     inkscape:window-x="0"
     inkscape:window-y="0"
     inkscape:window-maximized="1"
     inkscape:current-layer="Layer_1" /><g
     id="g23"
     transform="translate(0,39.767)" /><g
     id="g25"
     transform="translate(0,39.767)" /><g
     id="g27"
     transform="translate(0,39.767)" /><g
     id="g29"
     transform="translate(0,39.767)" /><g
     id="g31"
     transform="translate(0,39.767)" /><g
     id="g33"
     transform="translate(0,39.767)" /><g
     id="g35"
     transform="translate(0,39.767)" /><g
     id="g37"
     transform="translate(0,39.767)" /><g
     id="g39"
     transform="translate(0,39.767)" /><g
     id="g41"
     transform="translate(0,39.767)" /><g
     id="g43"
     transform="translate(0,39.767)" /><g
     id="g45"
     transform="translate(0,39.767)" /><g
     id="g47"
     transform="translate(0,39.767)" /><g
     id="g49"
     transform="translate(0,39.767)" /><g
     id="g51"
     transform="translate(0,39.767)" /><g
     id="system-suspend"
     transform="matrix(22.727273,0,0,22.727273,4.7683716e-4,3.841395e-4)"><path
       sodipodi:nodetypes="sccsccsccccccsccscc"
       inkscape:connector-curvature="0"
       id="path3976"
       d="m 10.999979,2 c -4.2813673,0 -7.838669,2.9945716 -8.75,7 l 1,0 c 0.8863558,-3.452976 4.0205315,-6 7.75,-6 3.729469,0 6.863644,2.547024 7.75,6 l 1,0 c -0.911331,-4.005428 -4.468633,-7 -8.75,-7 z m -9.99999998,8.499982 0,1 19.99999998,0 0,-1 z M 2.249979,13 c 0.911331,4.005428 4.4686327,7 8.75,7 4.281368,0 7.838669,-2.994572 8.75,-7 l -1,0 c -0.886356,3.452976 -4.020531,6 -7.75,6 -3.7294685,0 -6.8636442,-2.547024 -7.75,-6 z"
       style="fill:#f7f7f7;fill-opacity:1;stroke:none" /><rect
       transform="matrix(0,-1,-1,0,0,0)"
       style="fill:#566060;fill-opacity:0;stroke:none"
       id="rect3978"
       width="22"
       height="22"
       x="-21.999983"
       y="-21.999979" /></g></svg>