<?xml version="1.0" encoding="UTF-8" standalone="no"?>
<!-- Created with Inkscape (http://www.inkscape.org/) -->

<svg
   xmlns:dc="http://purl.org/dc/elements/1.1/"
   xmlns:cc="http://creativecommons.org/ns#"
   xmlns:rdf="http://www.w3.org/1999/02/22-rdf-syntax-ns#"
   xmlns:svg="http://www.w3.org/2000/svg"
   xmlns="http://www.w3.org/2000/svg"
   xmlns:sodipodi="http://sodipodi.sourceforge.net/DTD/sodipodi-0.dtd"
   xmlns:inkscape="http://www.inkscape.org/namespaces/inkscape"
   id="svg2"
   version="1.1"
   inkscape:version="0.91 r13725"
   width="512"
   height="512"
   sodipodi:docname="zoho-webservice-word-processor.svg"
   viewBox="0 0 512 512">
  <metadata
     id="metadata8">
    <rdf:RDF>
      <cc:Work
         rdf:about="">
        <dc:format>image/svg+xml</dc:format>
        <dc:type
           rdf:resource="http://purl.org/dc/dcmitype/StillImage" />
        <dc:title />
      </cc:Work>
    </rdf:RDF>
  </metadata>
  <defs
     id="defs6" />
  <sodipodi:namedview
     pagecolor="#ffffff"
     bordercolor="#666666"
     borderopacity="1"
     objecttolerance="10"
     gridtolerance="10"
     guidetolerance="10"
     inkscape:pageopacity="0"
     inkscape:pageshadow="2"
     inkscape:window-width="1366"
     inkscape:window-height="715"
     id="namedview4"
     showgrid="false"
     inkscape:zoom="0.5"
     inkscape:cx="152.59801"
     inkscape:cy="296.58233"
     inkscape:window-x="0"
     inkscape:window-y="24"
     inkscape:window-maximized="1"
     inkscape:current-layer="svg2" />
  <g
     id="g4156"
     transform="matrix(1.9893072,0,0,1.9893072,-242.51375,-309.11849)">
    <rect
       y="207"
       x="133"
       height="156"
       width="235"
       id="rect2990"
       style="fill:#ffb380;fill-opacity:1;stroke:none" />
    <rect
       y="221.86797"
       x="159.68587"
       height="9.6288958"
       width="182.6741"
       id="rect2990-3"
       style="fill:#ff6600;fill-opacity:1;stroke:none" />
    <rect
       y="242.02051"
       x="186.55592"
       height="9.6288958"
       width="126.10556"
       id="rect2990-3-6"
       style="fill:#ff6600;fill-opacity:1;stroke:none" />
    <rect
       y="283.38626"
       x="167.11047"
       height="9.6288958"
       width="61.758842"
       id="rect2990-3-6-7"
       style="fill:#ff6600;fill-opacity:1;stroke:none" />
    <rect
       y="283.38626"
       x="147.66504"
       height="9.6288958"
       width="10.847154"
       id="rect2990-3-6-7-5"
       style="fill:#ff6600;fill-opacity:1;stroke:none" />
    <rect
       y="299.64972"
       x="166.58015"
       height="9.6288958"
       width="61.758842"
       id="rect2990-3-6-7-3"
       style="fill:#ff6600;fill-opacity:1;stroke:none" />
    <rect
       y="299.64972"
       x="147.13472"
       height="9.6288958"
       width="10.847154"
       id="rect2990-3-6-7-5-5"
       style="fill:#ff6600;fill-opacity:1;stroke:none" />
    <rect
       y="316.26672"
       x="166.58015"
       height="9.6288958"
       width="61.758842"
       id="rect2990-3-6-7-6"
       style="fill:#ff6600;fill-opacity:1;stroke:none" />
    <rect
       y="316.26672"
       x="147.13472"
       height="9.6288958"
       width="10.847154"
       id="rect2990-3-6-7-5-2"
       style="fill:#ff6600;fill-opacity:1;stroke:none" />
    <rect
       y="333.94437"
       x="166.58014"
       height="9.6288958"
       width="61.758842"
       id="rect2990-3-6-7-9"
       style="fill:#ff6600;fill-opacity:1;stroke:none" />
    <rect
       y="333.94437"
       x="147.1347"
       height="9.6288958"
       width="10.847154"
       id="rect2990-3-6-7-5-1"
       style="fill:#ff6600;fill-opacity:1;stroke:none" />
    <rect
       y="275"
       x="256.5"
       height="74"
       width="97.16346"
       id="rect2990-2"
       style="fill:#ffffff;fill-opacity:1;stroke:none" />
    <path
       inkscape:connector-curvature="0"
       id="path17"
       d="m 308.6047,345.81055 -7.68357,0 c -1.06082,0 -1.92101,-0.86019 -1.92101,-1.921 l 0,-30.73451 c 0,-1.06082 0.86019,-1.921 1.92101,-1.921 l 7.68357,0 c 1.06081,0 1.921,0.86018 1.921,1.921 l 0,30.73451 c 0,1.06081 -0.86019,1.921 -1.921,1.921 z"
       style="fill:#ffcc00" />
    <path
       inkscape:connector-curvature="0"
       id="path21"
       d="m 291.31655,345.81055 -7.68357,0 c -1.06082,0 -1.92101,-0.86019 -1.92101,-1.921 l 0,-21.12994 c 0,-1.06081 0.86019,-1.921 1.92101,-1.921 l 7.68357,0 c 1.06081,0 1.921,0.86019 1.921,1.921 l 0,21.12994 c 0,1.06081 -0.86019,1.921 -1.921,1.921 z"
       style="fill:#f03916;fill-opacity:1" />
    <path
       inkscape:connector-curvature="0"
       id="path25"
       d="m 274.0284,345.81055 -7.68357,0 c -1.06081,0 -1.921,-0.86019 -1.921,-1.921 l 0,-11.52558 c 0,-1.06081 0.86019,-1.921 1.921,-1.921 l 7.68357,0 c 1.06082,0 1.921,0.86019 1.921,1.921 l 0,11.52558 c -2e-4,1.06081 -0.86018,1.921 -1.921,1.921 z"
       style="fill:#004455" />
    <path
       inkscape:connector-curvature="0"
       id="path29"
       d="m 325.89284,345.81055 -7.68356,0 c -1.06082,0 -1.92101,-0.86019 -1.92101,-1.921 l 0,-21.12994 c 0,-1.06081 0.86019,-1.921 1.92101,-1.921 l 7.68356,0 c 1.06082,0 1.92101,0.86019 1.92101,1.921 l 0,21.12994 c 0,1.06081 -0.86019,1.921 -1.92101,1.921 z"
       style="fill:#45d03f;fill-opacity:1" />
    <path
       inkscape:connector-curvature="0"
       id="path33"
       d="m 343.18121,345.81055 -7.68358,0 c -1.06081,0 -1.921,-0.86019 -1.921,-1.921 l 0,-42.26009 c 0,-1.06081 0.86019,-1.921 1.921,-1.921 l 7.68358,0 c 1.06081,0 1.921,0.86019 1.921,1.921 l 0,42.26009 c -2e-4,1.06081 -0.86019,1.921 -1.921,1.921 z"
       style="fill:#00bbf2;fill-opacity:1" />
    <path
       inkscape:connector-curvature="0"
       id="path37"
       d="m 348.94378,347.73112 -88.36173,0 c -1.06082,0 -1.92101,-0.86019 -1.92101,-1.92101 l 0,0 c 0,-1.06081 0.86019,-1.921 1.92101,-1.921 l 88.36195,0 c 1.06081,0 1.921,0.86019 1.921,1.921 l 0,0 c -2.1e-4,1.06126 -0.86019,1.92101 -1.92122,1.92101 z"
       style="fill:#394050" />
    <path
       inkscape:connector-curvature="0"
       id="path2998"
       d="m 263.52449,326.73596 43.1533,-23.18152 14.97883,13.55227 19.08018,-38.16036"
       style="fill:none;stroke:#394050;stroke-width:2.0489769;stroke-linecap:butt;stroke-linejoin:miter;stroke-miterlimit:4;stroke-dasharray:none;stroke-opacity:1" />
    <path
       inkscape:connector-curvature="0"
       id="path3768"
       d="m 341.4714,278.42454 -7.68874,3.34014"
       style="fill:none;stroke:#394050;stroke-width:2.0489769;stroke-linecap:butt;stroke-linejoin:miter;stroke-miterlimit:4;stroke-dasharray:none;stroke-opacity:1" />
    <path
       inkscape:connector-curvature="0"
       id="path3770"
       d="m 343.57336,285.74717 -3.45046,-7.84318"
       style="fill:none;stroke:#394050;stroke-width:2.0489769;stroke-linecap:butt;stroke-linejoin:miter;stroke-miterlimit:4;stroke-dasharray:none;stroke-opacity:1" />
  </g>
</svg>
