<?xml version="1.0" encoding="UTF-8" standalone="no"?>
<!-- Created with Inkscape (http://www.inkscape.org/) -->

<svg
   xmlns:dc="http://purl.org/dc/elements/1.1/"
   xmlns:cc="http://creativecommons.org/ns#"
   xmlns:rdf="http://www.w3.org/1999/02/22-rdf-syntax-ns#"
   xmlns:svg="http://www.w3.org/2000/svg"
   xmlns="http://www.w3.org/2000/svg"
   xmlns:sodipodi="http://sodipodi.sourceforge.net/DTD/sodipodi-0.dtd"
   xmlns:inkscape="http://www.inkscape.org/namespaces/inkscape"
   id="svg2"
   version="1.1"
   inkscape:version="0.91 r13725"
   width="512"
   height="512"
   sodipodi:docname="zoho-webservice-spreadsheet.svg"
   viewBox="0 0 512 512">
  <metadata
     id="metadata8">
    <rdf:RDF>
      <cc:Work
         rdf:about="">
        <dc:format>image/svg+xml</dc:format>
        <dc:type
           rdf:resource="http://purl.org/dc/dcmitype/StillImage" />
        <dc:title />
      </cc:Work>
    </rdf:RDF>
  </metadata>
  <defs
     id="defs6" />
  <sodipodi:namedview
     pagecolor="#ffffff"
     bordercolor="#666666"
     borderopacity="1"
     objecttolerance="10"
     gridtolerance="10"
     guidetolerance="10"
     inkscape:pageopacity="0"
     inkscape:pageshadow="2"
     inkscape:window-width="1366"
     inkscape:window-height="715"
     id="namedview4"
     showgrid="false"
     inkscape:zoom="0.35355339"
     inkscape:cx="-177.16132"
     inkscape:cy="181.77385"
     inkscape:window-x="0"
     inkscape:window-y="24"
     inkscape:window-maximized="1"
     inkscape:current-layer="svg2" />
  <g
     id="g4169"
     transform="matrix(1.8894668,0,0,1.8894668,-224.14433,-351.76871)">
    <rect
       y="222.125"
       x="129.25"
       height="188"
       width="235"
       id="rect3932"
       style="fill:#45d03f;fill-opacity:1;stroke:none" />
    <rect
       y="227.4696"
       x="135.7563"
       height="22.821951"
       width="49.310349"
       id="rect3771"
       style="fill:#8dd35f;fill-opacity:1;stroke:none" />
    <rect
       y="227.4696"
       x="192.65285"
       height="22.821951"
       width="49.310349"
       id="rect3771-7"
       style="fill:#8dd35f;fill-opacity:1;stroke:none" />
    <rect
       y="227.4696"
       x="249.54941"
       height="22.821951"
       width="49.310349"
       id="rect3771-7-5"
       style="fill:#8dd35f;fill-opacity:1;stroke:none" />
    <rect
       y="227.4696"
       x="306.44595"
       height="22.821951"
       width="49.310349"
       id="rect3771-7-5-3"
       style="fill:#8dd35f;fill-opacity:1;stroke:none" />
    <rect
       y="257.92126"
       x="135.7563"
       height="22.821951"
       width="49.310349"
       id="rect3771-5"
       style="fill:#aade87;fill-opacity:1;stroke:none" />
    <rect
       y="257.92126"
       x="192.65285"
       height="22.821951"
       width="49.310349"
       id="rect3771-7-6"
       style="fill:#aade87;fill-opacity:1;stroke:none" />
    <rect
       y="257.92126"
       x="249.54941"
       height="22.821951"
       width="49.310349"
       id="rect3771-7-5-2"
       style="fill:#aade87;fill-opacity:1;stroke:none" />
    <rect
       y="257.92126"
       x="306.44598"
       height="22.821951"
       width="49.310349"
       id="rect3771-7-5-3-9"
       style="fill:#aade87;fill-opacity:1;stroke:none" />
    <rect
       y="288.15155"
       x="135.7563"
       height="22.821951"
       width="49.310349"
       id="rect3771-1"
       style="fill:#aade87;fill-opacity:1;stroke:none" />
    <rect
       y="288.15155"
       x="192.65286"
       height="22.821951"
       width="49.310349"
       id="rect3771-7-2"
       style="fill:#aade87;fill-opacity:1;stroke:none" />
    <rect
       y="288.15155"
       x="249.54941"
       height="22.821951"
       width="49.310349"
       id="rect3771-7-5-7"
       style="fill:#aade87;fill-opacity:1;stroke:none" />
    <rect
       y="288.15155"
       x="306.44595"
       height="22.821951"
       width="49.310349"
       id="rect3771-7-5-3-0"
       style="fill:#aade87;fill-opacity:1;stroke:none" />
    <rect
       y="318.60324"
       x="135.7563"
       height="22.821951"
       width="49.310349"
       id="rect3771-5-9"
       style="fill:#aade87;fill-opacity:1;stroke:none" />
    <rect
       y="318.60324"
       x="192.65286"
       height="22.821951"
       width="49.310349"
       id="rect3771-7-6-3"
       style="fill:#aade87;fill-opacity:1;stroke:none" />
    <rect
       y="318.60324"
       x="249.54944"
       height="22.821951"
       width="49.310349"
       id="rect3771-7-5-2-6"
       style="fill:#aade87;fill-opacity:1;stroke:none" />
    <rect
       y="318.60324"
       x="306.44598"
       height="22.821951"
       width="49.310349"
       id="rect3771-7-5-3-9-0"
       style="fill:#aade87;fill-opacity:1;stroke:none" />
    <rect
       y="349.25674"
       x="136.24365"
       height="22.821951"
       width="49.310349"
       id="rect3771-6"
       style="fill:#aade87;fill-opacity:1;stroke:none" />
    <rect
       y="349.25674"
       x="193.1402"
       height="22.821951"
       width="49.310349"
       id="rect3771-7-26"
       style="fill:#aade87;fill-opacity:1;stroke:none" />
    <rect
       y="349.25674"
       x="250.03674"
       height="22.821951"
       width="49.310349"
       id="rect3771-7-5-1"
       style="fill:#aade87;fill-opacity:1;stroke:none" />
    <rect
       y="349.25674"
       x="306.93332"
       height="22.821951"
       width="49.310349"
       id="rect3771-7-5-3-8"
       style="fill:#aade87;fill-opacity:1;stroke:none" />
    <rect
       y="379.70844"
       x="136.24365"
       height="22.821951"
       width="49.310349"
       id="rect3771-5-7"
       style="fill:#aade87;fill-opacity:1;stroke:none" />
    <rect
       y="379.70844"
       x="193.1402"
       height="22.821951"
       width="49.310349"
       id="rect3771-7-6-9"
       style="fill:#aade87;fill-opacity:1;stroke:none" />
    <rect
       y="379.70844"
       x="250.03677"
       height="22.821951"
       width="49.310349"
       id="rect3771-7-5-2-2"
       style="fill:#aade87;fill-opacity:1;stroke:none" />
    <rect
       y="379.70844"
       x="306.93335"
       height="22.821951"
       width="49.310349"
       id="rect3771-7-5-3-9-02"
       style="fill:#aade87;fill-opacity:1;stroke:none" />
    <g
       transform="matrix(0.36771085,0,0,0.36771085,48.981354,250.92488)"
       id="g3961">
      <rect
         style="fill:#394050;fill-opacity:1;stroke:none"
         id="rect3003"
         width="257.21548"
         height="380"
         x="222.39226"
         y="-902"
         ry="30.048391"
         rx="21.248234"
         transform="matrix(0,1,-1,0,0,0)" />
      <path
         style="fill:#ffffff;stroke:none"
         d="m 888.29277,234.78694 c -2.79892,-1.83146 -6.49446,-1.5393 -6.49446,-1.5393 l -316.32985,0.0539 -23.19098,0.003 c 0,0 -3.62715,-0.12022 -5.51849,1.23479 -1.89134,1.35512 -2.06875,4.5815 -2.06875,4.5815 l 0.0137,223.47507 c 0,0 -0.25554,3.74338 1.57722,5.42709 1.83271,1.68371 5.90625,1.53638 5.90625,1.53638 l 329.58919,-0.0853 c 0,0 9.01713,0.88461 14.27075,-3.43524 5.25362,-4.31984 3.95992,-12.04617 3.95992,-12.04617 l 0.63379,-214.34297 c 0,0 0.44821,-3.03219 -2.35048,-4.86361 z"
         id="path3773"
         inkscape:connector-curvature="0"
         sodipodi:nodetypes="cccczcczcczcczc" />
      <path
         style="fill:#ffcc00"
         d="m 725.57105,429.05271 -28.24922,0 c -3.90017,0 -7.06271,-3.16254 -7.06271,-7.06271 l 0,-112.99771 c 0,-3.90017 3.16254,-7.0627 7.06271,-7.0627 l 28.24922,0 c 3.90017,0 7.06271,3.16253 7.06271,7.0627 l 0,112.99771 c 0,3.90017 -3.16254,7.06271 -7.06271,7.06271 z"
         id="path17"
         inkscape:connector-curvature="0" />
      <path
         style="fill:#f03916;fill-opacity:1"
         d="m 662.00989,429.05271 -28.24922,0 c -3.90017,0 -7.06271,-3.16254 -7.06271,-7.06271 l 0,-77.68577 c 0,-3.90017 3.16254,-7.06271 7.06271,-7.06271 l 28.24922,0 c 3.90017,0 7.06271,3.16254 7.06271,7.06271 l 0,77.68577 c 0,3.90017 -3.16254,7.06271 -7.06271,7.06271 z"
         id="path21"
         inkscape:connector-curvature="0" />
      <path
         style="fill:#004455"
         d="m 598.44874,429.05271 -28.24922,0 c -3.90017,0 -7.06271,-3.16254 -7.06271,-7.06271 l 0,-42.37464 c 0,-3.90017 3.16254,-7.06271 7.06271,-7.06271 l 28.24922,0 c 3.90016,0 7.0627,3.16254 7.0627,7.06271 l 0,42.37464 c -7.9e-4,3.90017 -3.16254,7.06271 -7.0627,7.06271 z"
         id="path25"
         inkscape:connector-curvature="0" />
      <path
         style="fill:#45d03f;fill-opacity:1"
         d="m 789.1322,429.05271 -28.24921,0 c -3.90017,0 -7.06271,-3.16254 -7.06271,-7.06271 l 0,-77.68577 c 0,-3.90017 3.16254,-7.06271 7.06271,-7.06271 l 28.24921,0 c 3.90017,0 7.06271,3.16254 7.06271,7.06271 l 0,77.68577 c 0,3.90017 -3.16254,7.06271 -7.06271,7.06271 z"
         id="path29"
         inkscape:connector-curvature="0" />
      <path
         style="fill:#00bbf2;fill-opacity:1"
         d="m 852.69415,429.05271 -28.24922,0 c -3.90016,0 -7.0627,-3.16254 -7.0627,-7.06271 l 0,-155.37234 c 0,-3.90017 3.16254,-7.0627 7.0627,-7.0627 l 28.24922,0 c 3.90017,0 7.06271,3.16253 7.06271,7.0627 l 0,155.37234 c -8e-4,3.90017 -3.16254,7.06271 -7.06271,7.06271 z"
         id="path33"
         inkscape:connector-curvature="0" />
      <path
         style="fill:#394050"
         d="m 873.88067,436.11381 -324.86847,0 c -3.90017,0 -7.06271,-3.16254 -7.06271,-7.06271 l 0,0 c 0,-3.90017 3.16254,-7.0627 7.06271,-7.0627 l 324.86927,0 c 3.90017,0 7.06271,3.16253 7.06271,7.0627 l 0,0 c -8e-4,3.90177 -3.16254,7.06271 -7.06351,7.06271 z"
         id="path37"
         inkscape:connector-curvature="0" />
    </g>
  </g>
</svg>
