<?xml version="1.0" encoding="UTF-8" standalone="no"?>
<!-- Created with Inkscape (http://www.inkscape.org/) -->

<svg
   xmlns:dc="http://purl.org/dc/elements/1.1/"
   xmlns:cc="http://creativecommons.org/ns#"
   xmlns:rdf="http://www.w3.org/1999/02/22-rdf-syntax-ns#"
   xmlns:svg="http://www.w3.org/2000/svg"
   xmlns="http://www.w3.org/2000/svg"
   xmlns:sodipodi="http://sodipodi.sourceforge.net/DTD/sodipodi-0.dtd"
   xmlns:inkscape="http://www.inkscape.org/namespaces/inkscape"
   width="512"
   height="512"
   id="svg2"
   version="1.1"
   inkscape:version="0.91 r13725"
   sodipodi:docname="folder-wine.svg">
  <defs
     id="defs4">
    <radialGradient
       id="polygon413_1_"
       cx="7976.3457"
       cy="-10508.842"
       r="13293.867"
       gradientTransform="matrix(0.0222,0,0,-0.0248,721.1671,674.6745)"
       gradientUnits="userSpaceOnUse">
      <stop
         offset="0"
         style="stop-color:#80FF80"
         id="stop388" />
      <stop
         offset="1"
         style="stop-color:#0f0"
         id="stop390" />
    </radialGradient>
  </defs>
  <sodipodi:namedview
     id="base"
     pagecolor="#ffffff"
     bordercolor="#666666"
     borderopacity="1.0"
     inkscape:pageopacity="0.0"
     inkscape:pageshadow="2"
     inkscape:zoom="0.49497474"
     inkscape:cx="573.07875"
     inkscape:cy="35.036094"
     inkscape:document-units="px"
     inkscape:current-layer="layer1"
     showgrid="false"
     inkscape:window-width="1366"
     inkscape:window-height="715"
     inkscape:window-x="0"
     inkscape:window-y="24"
     inkscape:window-maximized="1" />
  <metadata
     id="metadata7">
    <rdf:RDF>
      <cc:Work
         rdf:about="">
        <dc:format>image/svg+xml</dc:format>
        <dc:type
           rdf:resource="http://purl.org/dc/dcmitype/StillImage" />
        <dc:title />
      </cc:Work>
    </rdf:RDF>
  </metadata>
  <g
     inkscape:label="Layer 1"
     inkscape:groupmode="layer"
     id="layer1"
     transform="translate(0,-540.36218)">
    <g
       id="g4158">
      <path
         sodipodi:nodetypes="cccccsssscc"
         inkscape:connector-curvature="0"
         id="rect4150"
         d="m 36.29097,615.00618 123.37071,2.4e-4 29.62974,33.73269 284.91693,7e-5 19.55792,0 0,295.39887 c 0,10.83509 -8.72283,19.55792 -19.55792,19.55792 l -437.91738,0 c -10.835093,0 -19.557923,-8.72283 -19.557923,-19.55792 l 0,-329.13187 z"
         style="opacity:1;fill:#ffb800;fill-opacity:1;stroke:none;stroke-width:0.5;stroke-linecap:round;stroke-miterlimit:4;stroke-dasharray:none;stroke-opacity:1" />
      <path
         id="rect3348"
         d="m 16.733034,676.04932 477.033236,0 0,314.95688 -477.033236,0 z"
         style="opacity:1;fill:#faec6d;fill-opacity:1;stroke:none;stroke-width:0.5;stroke-linecap:round;stroke-miterlimit:4;stroke-dasharray:none;stroke-opacity:1" />
      <path
         id="rect4153"
         d="m 16.732,967.31125 0,3.87673 477.03049,0 0,-3.87673 -477.03049,0 z"
         style="opacity:1;fill:#ffb800;fill-opacity:1;stroke:none;stroke-width:0.5;stroke-linecap:round;stroke-miterlimit:4;stroke-dasharray:none;stroke-opacity:1"
         inkscape:connector-curvature="0" />
      <path
         inkscape:connector-curvature="0"
         style="opacity:1;fill:#ffb800;fill-opacity:1;stroke:none;stroke-width:0.5;stroke-linecap:round;stroke-miterlimit:4;stroke-dasharray:none;stroke-opacity:1"
         d="m 16.732,960.49031 0,3.87674 477.03049,0 0,-3.87674 -477.03049,0 z"
         id="path4159" />
      <g
         style="fill:#ffb800;fill-opacity:1"
         id="g44"
         transform="matrix(0.48369717,-0.20417308,-0.20417308,-0.48369717,163.12987,737.37822)">
        <path
           d="m 0,0 c 9.067,-66.741 -61.878,-98.854 -130.405,-82.552 -37.209,8.852 -60.527,47.425 -47.855,89.73 C -117.202,28.167 -65.639,-14.318 0,0"
           style="fill:#ffb800;fill-opacity:1;fill-rule:evenodd;stroke:none"
           id="path46"
           inkscape:connector-curvature="0" />
      </g>
      <path
         inkscape:connector-curvature="0"
         id="path50"
         style="fill:#ffb800;fill-opacity:1;fill-rule:nonzero;stroke:none"
         d="m 172.97805,737.29106 c -8.61268,-16.91668 -20.73343,-30.51185 -34.07018,-43.12929 -1.34192,-1.27143 -3.88544,0.41313 -6.08388,1.24651 10.91818,14.08228 27.73345,27.1992 35.57843,45.13633 12.46305,28.49553 -3.44933,50.37853 -29.81589,62.9345 -27.38913,10.1348 -54.167859,6.27212 -65.892785,-22.53498 -7.380622,-18.13314 -5.05068,-39.33143 -7.524959,-56.97795 -2.130655,0.99396 -5.112406,1.64168 -5.137415,3.4901 -0.261429,18.35735 1.024982,36.5258 7.139374,54.49704 1.304935,3.83668 3.097372,8.57315 5.210294,12.34346 14.028047,25.03283 42.010031,16.2634 61.587661,26.88705 11.65397,6.32221 40.70336,74.08738 41.6706,86.19253 0.74571,9.31222 -9.30793,16.33983 -18.03002,21.49293 -3.18,1.87913 -9.14393,3.15195 -9.23895,7.86675 10.31337,-1.957 25.69378,-7.67075 40.55099,-14.01107 14.90661,-6.22326 29.72923,-13.25848 38.32551,-19.2834 -3.4442,-3.2209 -8.51678,0.16491 -12.08145,1.13276 -9.77644,2.65529 -21.82437,4.95697 -27.97733,-2.0728 -7.99923,-9.13689 -36.2926,-77.22118 -32.69366,-89.98179 6.04333,-21.4385 31.84605,-35.37208 23.69396,-62.88521 -1.22824,-4.14374 -3.37137,-8.73219 -5.2103,-12.34347" />
    </g>
  </g>
</svg>
