<?xml version="1.0" encoding="UTF-8" standalone="no"?>
<!-- Created with Inkscape (http://www.inkscape.org/) -->

<svg
   xmlns:dc="http://purl.org/dc/elements/1.1/"
   xmlns:cc="http://creativecommons.org/ns#"
   xmlns:rdf="http://www.w3.org/1999/02/22-rdf-syntax-ns#"
   xmlns:svg="http://www.w3.org/2000/svg"
   xmlns="http://www.w3.org/2000/svg"
   xmlns:sodipodi="http://sodipodi.sourceforge.net/DTD/sodipodi-0.dtd"
   xmlns:inkscape="http://www.inkscape.org/namespaces/inkscape"
   width="512"
   height="512"
   id="svg2"
   version="1.1"
   inkscape:version="0.91 r13725"
   sodipodi:docname="folder-video.svg">
  <defs
     id="defs4" />
  <sodipodi:namedview
     id="base"
     pagecolor="#ffffff"
     bordercolor="#666666"
     borderopacity="1.0"
     inkscape:pageopacity="0.0"
     inkscape:pageshadow="2"
     inkscape:zoom="0.25"
     inkscape:cx="1247.8068"
     inkscape:cy="-427.20633"
     inkscape:document-units="px"
     inkscape:current-layer="layer1"
     showgrid="false"
     inkscape:window-width="1366"
     inkscape:window-height="715"
     inkscape:window-x="0"
     inkscape:window-y="24"
     inkscape:window-maximized="1" />
  <metadata
     id="metadata7">
    <rdf:RDF>
      <cc:Work
         rdf:about="">
        <dc:format>image/svg+xml</dc:format>
        <dc:type
           rdf:resource="http://purl.org/dc/dcmitype/StillImage" />
        <dc:title />
      </cc:Work>
    </rdf:RDF>
  </metadata>
  <g
     inkscape:label="Layer 1"
     inkscape:groupmode="layer"
     id="layer1"
     transform="translate(0,-540.36218)">
    <g
       id="g4161">
      <path
         sodipodi:nodetypes="cccccsssscc"
         inkscape:connector-curvature="0"
         id="rect4150"
         d="m 36.29097,615.00618 123.37071,2.4e-4 29.62974,33.73269 284.91693,7e-5 19.55792,0 0,295.39887 c 0,10.83509 -8.72283,19.55792 -19.55792,19.55792 l -437.91738,0 c -10.835093,0 -19.557923,-8.72283 -19.557923,-19.55792 l 0,-329.13187 z"
         style="opacity:1;fill:#ffb800;fill-opacity:1;stroke:none;stroke-width:0.5;stroke-linecap:round;stroke-miterlimit:4;stroke-dasharray:none;stroke-opacity:1" />
      <path
         id="rect3348"
         d="m 16.733034,676.04932 477.033236,0 0,314.95688 -477.033236,0 z"
         style="opacity:1;fill:#faec6d;fill-opacity:1;stroke:none;stroke-width:0.5;stroke-linecap:round;stroke-miterlimit:4;stroke-dasharray:none;stroke-opacity:1" />
      <path
         id="rect4153"
         d="m 16.732,967.31125 0,3.87673 477.03049,0 0,-3.87673 -477.03049,0 z"
         style="opacity:1;fill:#ffb800;fill-opacity:1;stroke:none;stroke-width:0.5;stroke-linecap:round;stroke-miterlimit:4;stroke-dasharray:none;stroke-opacity:1"
         inkscape:connector-curvature="0" />
      <path
         inkscape:connector-curvature="0"
         style="opacity:1;fill:#ffb800;fill-opacity:1;stroke:none;stroke-width:0.5;stroke-linecap:round;stroke-miterlimit:4;stroke-dasharray:none;stroke-opacity:1"
         d="m 16.732,960.49031 0,3.87674 477.03049,0 0,-3.87674 -477.03049,0 z"
         id="path4159" />
      <path
         id="rect4197-3"
         d="m 60,703.47906 0,233.76624 233.76623,0 0,-233.76624 -233.76623,0 z m 17.53247,17.53246 17.53247,0 0,17.53247 -17.53247,0 0,-17.53247 z m 181.16883,0 17.53247,0 0,17.53247 -17.53247,0 0,-17.53247 z m -181.16883,43.83117 17.53247,0 0,17.53247 -17.53247,0 0,-17.53247 z m 181.16883,0 17.53247,0 0,17.53247 -17.53247,0 0,-17.53247 z m -181.16883,46.75325 17.53247,0 0,17.53247 -17.53247,0 0,-17.53247 z m 181.16883,0 17.53247,0 0,17.53247 -17.53247,0 0,-17.53247 z m -181.16883,46.75325 17.53247,0 0,17.53251 -17.53247,0 0,-17.53251 z m 181.16883,0 17.53247,0 0,17.53251 -17.53247,0 0,-17.53251 z m -181.16883,43.83121 17.53247,0 0,17.5324 -17.53247,0 0,-17.5324 z m 181.16883,0 17.53247,0 0,17.5324 -17.53247,0 0,-17.5324 z"
         style="fill:#ffb800;fill-opacity:1;stroke:none"
         inkscape:connector-curvature="0" />
      <rect
         y="721.45349"
         x="113.21613"
         height="90.584404"
         width="128.57137"
         id="rect4323-6"
         style="fill:#faec6d;fill-opacity:1;stroke:none" />
      <rect
         y="829.12842"
         x="112.59741"
         height="90.584419"
         width="128.57137"
         id="rect4325-7"
         style="fill:#faec6d;fill-opacity:1;stroke:none" />
      <path
         sodipodi:nodetypes="czccc"
         inkscape:connector-curvature="0"
         id="path4167"
         d="m 160.89057,920.03323 c 0,0 2.86215,-30.71261 26.16295,-50.91169 23.3008,-20.19908 54.44722,-13.43503 54.44722,-13.43503 l -0.29289,64.59672 z"
         style="fill:#ffb800;fill-opacity:1;fill-rule:evenodd;stroke:none;stroke-width:1px;stroke-linecap:butt;stroke-linejoin:miter;stroke-opacity:1" />
      <path
         sodipodi:nodetypes="czcccczcc"
         inkscape:connector-curvature="0"
         id="path4169"
         d="m 142.63312,721.11218 c 0,0 -0.28499,9.08166 7.25,18.25 7.53499,9.16834 15.73483,10.7045 15.73483,10.7045 l -0.23483,20.2955 9,0 0.25,-20.25 c 0,0 7.08078,-0.72073 15.25,-9.25 8.16922,-8.52927 7.5,-20 7.5,-20 z"
         style="fill:#ffb800;fill-opacity:1;fill-rule:evenodd;stroke:none;stroke-width:1px;stroke-linecap:butt;stroke-linejoin:miter;stroke-opacity:1" />
      <rect
         y="773.05853"
         x="165.13321"
         height="7.0710678"
         width="9.1923885"
         id="rect4171"
         style="fill:#ffb800;fill-opacity:1;stroke:none;stroke-opacity:1" />
    </g>
  </g>
</svg>
