<?xml version="1.0" encoding="UTF-8" standalone="no"?>
<!-- Created with Inkscape (http://www.inkscape.org/) -->

<svg
   xmlns:dc="http://purl.org/dc/elements/1.1/"
   xmlns:cc="http://creativecommons.org/ns#"
   xmlns:rdf="http://www.w3.org/1999/02/22-rdf-syntax-ns#"
   xmlns:svg="http://www.w3.org/2000/svg"
   xmlns="http://www.w3.org/2000/svg"
   xmlns:sodipodi="http://sodipodi.sourceforge.net/DTD/sodipodi-0.dtd"
   xmlns:inkscape="http://www.inkscape.org/namespaces/inkscape"
   width="512"
   height="512"
   id="svg2"
   version="1.1"
   inkscape:version="0.91 r13725"
   sodipodi:docname="folder-wine.svg">
  <defs
     id="defs4">
    <radialGradient
       id="polygon413_1_"
       cx="7976.3457"
       cy="-10508.842"
       r="13293.867"
       gradientTransform="matrix(0.0222,0,0,-0.0248,721.1671,674.6745)"
       gradientUnits="userSpaceOnUse">
      <stop
         offset="0"
         style="stop-color:#80FF80"
         id="stop388" />
      <stop
         offset="1"
         style="stop-color:#0f0"
         id="stop390" />
    </radialGradient>
  </defs>
  <sodipodi:namedview
     id="base"
     pagecolor="#ffffff"
     bordercolor="#666666"
     borderopacity="1.0"
     inkscape:pageopacity="0.0"
     inkscape:pageshadow="2"
     inkscape:zoom="0.69999999"
     inkscape:cx="73.293275"
     inkscape:cy="235.22861"
     inkscape:document-units="px"
     inkscape:current-layer="layer1"
     showgrid="false"
     inkscape:window-width="1366"
     inkscape:window-height="715"
     inkscape:window-x="0"
     inkscape:window-y="24"
     inkscape:window-maximized="1" />
  <metadata
     id="metadata7">
    <rdf:RDF>
      <cc:Work
         rdf:about="">
        <dc:format>image/svg+xml</dc:format>
        <dc:type
           rdf:resource="http://purl.org/dc/dcmitype/StillImage" />
        <dc:title />
      </cc:Work>
    </rdf:RDF>
  </metadata>
  <g
     inkscape:label="Layer 1"
     inkscape:groupmode="layer"
     id="layer1"
     transform="translate(0,-540.36218)">
    <g
       id="g4195">
      <g
         id="g4408"
         transform="translate(1.37e-4,-3.812793e-4)">
        <path
           style="opacity:1;fill:#ffb800;fill-opacity:1;stroke:none;stroke-width:0.5;stroke-linecap:round;stroke-miterlimit:4;stroke-dasharray:none;stroke-opacity:1"
           d="m 36.290833,615.0068 123.370707,0 29.62974,33.73269 284.91693,0 c 10.83509,0 19.55792,8.72283 19.55792,19.55792 l 0,275.84102 c 0,10.83509 -8.72283,19.55792 -19.55792,19.55792 l -437.917377,0 c -10.835093,0 -19.557923,-8.72283 -19.557923,-19.55792 l 0,-312.25461 c 0,-10.8351 4.892394,-16.68116 19.557923,-16.87702 z"
           id="rect4150"
           inkscape:connector-curvature="0"
           sodipodi:nodetypes="sccssssssss" />
        <rect
           style="opacity:1;fill:#faec6d;fill-opacity:1;stroke:none;stroke-width:0.5;stroke-linecap:round;stroke-miterlimit:4;stroke-dasharray:none;stroke-opacity:1"
           id="rect3348"
           width="477.03323"
           height="314.95688"
           x="16.732897"
           y="676.04968"
           ry="19.557924" />
        <path
           inkscape:connector-curvature="0"
           style="opacity:1;fill:#ffb800;fill-opacity:1;stroke:none;stroke-width:0.5;stroke-linecap:round;stroke-miterlimit:4;stroke-dasharray:none;stroke-opacity:1"
           d="m 16.731863,967.31163 0,3.87673 477.030487,0 0,-3.87673 -477.030487,0 z"
           id="rect4153" />
        <path
           id="path4159"
           d="m 16.731863,960.49069 0,3.87674 477.030487,0 0,-3.87674 -477.030487,0 z"
           style="opacity:1;fill:#ffb800;fill-opacity:1;stroke:none;stroke-width:0.5;stroke-linecap:round;stroke-miterlimit:4;stroke-dasharray:none;stroke-opacity:1"
           inkscape:connector-curvature="0" />
      </g>
      <g
         id="g4142"
         transform="matrix(0.8500925,0,0,0.8500925,-139.98629,82.687297)">
        <g
           transform="matrix(0.56899357,-0.24017749,-0.24017749,-0.56899357,356.56844,770.1408)"
           id="g44"
           style="fill:#f03916;fill-opacity:1">
          <path
             inkscape:connector-curvature="0"
             id="path46"
             style="fill:#f03916;fill-opacity:1;fill-rule:evenodd;stroke:none"
             d="m 0,0 c 9.067,-66.741 -61.878,-98.854 -130.405,-82.552 -37.209,8.852 -60.527,47.425 -47.855,89.73 C -117.202,28.167 -65.639,-14.318 0,0" />
        </g>
        <path
           d="m 368.15328,770.03828 c -10.13147,-19.89981 -24.38962,-35.89239 -40.0782,-50.73482 -1.57856,-1.49564 -4.57062,0.48598 -7.15673,1.46632 12.84352,16.56558 32.62404,31.99557 41.85242,53.09578 14.66081,33.52051 -4.0576,59.26241 -35.0737,74.03254 -32.219,11.92199 -63.71996,7.37816 -77.51249,-26.50886 -8.68214,-21.33078 -5.94133,-46.26723 -8.85193,-67.02559 -2.50638,1.16924 -6.01394,1.93118 -6.04336,4.10555 -0.30753,21.59454 1.20573,42.96686 8.39835,64.10719 1.53505,4.51325 3.64357,10.08497 6.12909,14.52014 16.50179,29.44719 49.41819,19.13133 72.44819,31.62838 13.70906,7.43709 47.88109,87.15214 49.0189,101.39195 0.87721,10.95436 -10.94932,19.22123 -21.20948,25.28305 -3.74077,2.2105 -10.7564,3.70777 -10.86817,9.25399 12.13206,-2.3021 30.22469,-9.02343 47.70186,-16.48182 17.53528,-7.32069 34.97175,-15.59651 45.08392,-22.68388 -4.05155,-3.78889 -10.01865,0.19398 -14.21192,1.33251 -11.50044,3.12353 -25.67293,5.83109 -32.91092,-2.43833 -9.40984,-10.74811 -42.69253,-90.83856 -38.45895,-105.8494 7.10903,-25.21902 37.46186,-41.60969 27.87221,-73.97455 -1.44483,-4.87446 -3.96588,-10.27205 -6.12909,-14.52015"
           style="fill:#394050;fill-opacity:1;fill-rule:nonzero;stroke:none"
           id="path50"
           inkscape:connector-curvature="0" />
      </g>
    </g>
  </g>
</svg>
