<?xml version="1.0" encoding="UTF-8" standalone="no"?>
<!-- Created with Inkscape (http://www.inkscape.org/) -->

<svg
   xmlns:dc="http://purl.org/dc/elements/1.1/"
   xmlns:cc="http://creativecommons.org/ns#"
   xmlns:rdf="http://www.w3.org/1999/02/22-rdf-syntax-ns#"
   xmlns:svg="http://www.w3.org/2000/svg"
   xmlns="http://www.w3.org/2000/svg"
   xmlns:sodipodi="http://sodipodi.sourceforge.net/DTD/sodipodi-0.dtd"
   xmlns:inkscape="http://www.inkscape.org/namespaces/inkscape"
   width="512"
   height="512"
   id="svg2"
   version="1.1"
   inkscape:version="0.91 r13725"
   sodipodi:docname="folder-image.svg">
  <defs
     id="defs4" />
  <sodipodi:namedview
     id="base"
     pagecolor="#ffffff"
     bordercolor="#666666"
     borderopacity="1.0"
     inkscape:pageopacity="0.0"
     inkscape:pageshadow="2"
     inkscape:zoom="0.7"
     inkscape:cx="378.33713"
     inkscape:cy="329.59042"
     inkscape:document-units="px"
     inkscape:current-layer="layer1"
     showgrid="false"
     inkscape:window-width="1366"
     inkscape:window-height="715"
     inkscape:window-x="0"
     inkscape:window-y="24"
     inkscape:window-maximized="1" />
  <metadata
     id="metadata7">
    <rdf:RDF>
      <cc:Work
         rdf:about="">
        <dc:format>image/svg+xml</dc:format>
        <dc:type
           rdf:resource="http://purl.org/dc/dcmitype/StillImage" />
        <dc:title />
      </cc:Work>
    </rdf:RDF>
  </metadata>
  <g
     inkscape:label="Layer 1"
     inkscape:groupmode="layer"
     id="layer1"
     transform="translate(0,-540.36218)">
    <g
       id="g4160">
      <g
         id="g4408"
         transform="translate(1.37e-4,-3.812793e-4)">
        <path
           style="opacity:1;fill:#ffb800;fill-opacity:1;stroke:none;stroke-width:0.5;stroke-linecap:round;stroke-miterlimit:4;stroke-dasharray:none;stroke-opacity:1"
           d="m 36.290833,615.0068 123.370707,0 29.62974,33.73269 284.91693,0 c 10.83509,0 19.55792,8.72283 19.55792,19.55792 l 0,275.84102 c 0,10.83509 -8.72283,19.55792 -19.55792,19.55792 l -437.917377,0 c -10.835093,0 -19.557923,-8.72283 -19.557923,-19.55792 l 0,-312.25461 c 0,-10.8351 4.892394,-16.68116 19.557923,-16.87702 z"
           id="rect4150"
           inkscape:connector-curvature="0"
           sodipodi:nodetypes="sccssssssss" />
        <rect
           style="opacity:1;fill:#faec6d;fill-opacity:1;stroke:none;stroke-width:0.5;stroke-linecap:round;stroke-miterlimit:4;stroke-dasharray:none;stroke-opacity:1"
           id="rect3348"
           width="477.03323"
           height="314.95688"
           x="16.732897"
           y="676.04968"
           ry="19.557924" />
        <path
           inkscape:connector-curvature="0"
           style="opacity:1;fill:#ffb800;fill-opacity:1;stroke:none;stroke-width:0.5;stroke-linecap:round;stroke-miterlimit:4;stroke-dasharray:none;stroke-opacity:1"
           d="m 16.731863,967.31163 0,3.87673 477.030487,0 0,-3.87673 -477.030487,0 z"
           id="rect4153" />
        <path
           id="path4159"
           d="m 16.731863,960.49069 0,3.87674 477.030487,0 0,-3.87674 -477.030487,0 z"
           style="opacity:1;fill:#ffb800;fill-opacity:1;stroke:none;stroke-width:0.5;stroke-linecap:round;stroke-miterlimit:4;stroke-dasharray:none;stroke-opacity:1"
           inkscape:connector-curvature="0" />
      </g>
      <path
         id="rect4082"
         d="m 60,708.30769 0,214.18019 0,13.64583 227.82602,0 0,-18.98549 0,-18.98551 0,-18.9855 0,-18.98551 0,-151.88401 -227.82602,0 z m 18.98549,18.98549 189.85504,0 0,113.91304 -37.97102,-37.97101 -63.48277,63.48277 -25.51176,-25.51176 -0.59235,0 -62.296176,62.29616 0,-176.2092 z m 56.95652,18.98553 c -20.97081,0 -37.970999,17.00018 -37.970999,37.971 0,20.9708 17.000189,37.97101 37.970999,37.97101 20.97081,0 37.97101,-17.00021 37.97101,-37.97101 0,-20.97082 -17.0002,-37.971 -37.97101,-37.971 z"
         style="fill:#ffb800;fill-opacity:1;stroke:none"
         inkscape:connector-curvature="0" />
    </g>
  </g>
</svg>
