<?xml version="1.0" encoding="UTF-8" standalone="no"?>
<!-- Created with Inkscape (http://www.inkscape.org/) -->

<svg
   xmlns:dc="http://purl.org/dc/elements/1.1/"
   xmlns:cc="http://creativecommons.org/ns#"
   xmlns:rdf="http://www.w3.org/1999/02/22-rdf-syntax-ns#"
   xmlns:svg="http://www.w3.org/2000/svg"
   xmlns="http://www.w3.org/2000/svg"
   xmlns:sodipodi="http://sodipodi.sourceforge.net/DTD/sodipodi-0.dtd"
   xmlns:inkscape="http://www.inkscape.org/namespaces/inkscape"
   width="512"
   height="512"
   id="svg2"
   version="1.1"
   inkscape:version="0.91 r13725"
   sodipodi:docname="folder-public.svg">
  <defs
     id="defs4" />
  <sodipodi:namedview
     id="base"
     pagecolor="#ffffff"
     bordercolor="#666666"
     borderopacity="1.0"
     inkscape:pageopacity="0.0"
     inkscape:pageshadow="2"
     inkscape:zoom="0.49497475"
     inkscape:cx="184.80418"
     inkscape:cy="149.42728"
     inkscape:document-units="px"
     inkscape:current-layer="layer1"
     showgrid="false"
     inkscape:window-width="1366"
     inkscape:window-height="715"
     inkscape:window-x="0"
     inkscape:window-y="24"
     inkscape:window-maximized="1" />
  <metadata
     id="metadata7">
    <rdf:RDF>
      <cc:Work
         rdf:about="">
        <dc:format>image/svg+xml</dc:format>
        <dc:type
           rdf:resource="http://purl.org/dc/dcmitype/StillImage" />
        <dc:title />
      </cc:Work>
    </rdf:RDF>
  </metadata>
  <g
     inkscape:label="Layer 1"
     inkscape:groupmode="layer"
     id="layer1"
     transform="translate(0,-540.36218)">
    <g
       id="g4167">
      <g
         id="g4408"
         transform="translate(1.37e-4,-3.812793e-4)">
        <path
           style="opacity:1;fill:#ffb800;fill-opacity:1;stroke:none;stroke-width:0.5;stroke-linecap:round;stroke-miterlimit:4;stroke-dasharray:none;stroke-opacity:1"
           d="m 36.290833,615.0068 123.370707,0 29.62974,33.73269 284.91693,0 c 10.83509,0 19.55792,8.72283 19.55792,19.55792 l 0,275.84102 c 0,10.83509 -8.72283,19.55792 -19.55792,19.55792 l -437.917377,0 c -10.835093,0 -19.557923,-8.72283 -19.557923,-19.55792 l 0,-312.25461 c 0,-10.8351 4.892394,-16.68116 19.557923,-16.87702 z"
           id="rect4150"
           inkscape:connector-curvature="0"
           sodipodi:nodetypes="sccssssssss" />
        <rect
           style="opacity:1;fill:#faec6d;fill-opacity:1;stroke:none;stroke-width:0.5;stroke-linecap:round;stroke-miterlimit:4;stroke-dasharray:none;stroke-opacity:1"
           id="rect3348"
           width="477.03323"
           height="314.95688"
           x="16.732897"
           y="676.04968"
           ry="19.557924" />
        <path
           inkscape:connector-curvature="0"
           style="opacity:1;fill:#ffb800;fill-opacity:1;stroke:none;stroke-width:0.5;stroke-linecap:round;stroke-miterlimit:4;stroke-dasharray:none;stroke-opacity:1"
           d="m 16.731863,967.31163 0,3.87673 477.030487,0 0,-3.87673 -477.030487,0 z"
           id="rect4153" />
        <path
           id="path4159"
           d="m 16.731863,960.49069 0,3.87674 477.030487,0 0,-3.87674 -477.030487,0 z"
           style="opacity:1;fill:#ffb800;fill-opacity:1;stroke:none;stroke-width:0.5;stroke-linecap:round;stroke-miterlimit:4;stroke-dasharray:none;stroke-opacity:1"
           inkscape:connector-curvature="0" />
      </g>
      <g
         transform="matrix(0.91703842,0,0,0.91703842,-144.05445,23.141847)"
         id="g4162">
        <rect
           style="fill:#ffcc00;fill-opacity:1;stroke:#394050;stroke-width:16.30294037;stroke-miterlimit:4;stroke-dasharray:none;stroke-opacity:1"
           id="rect2988"
           width="185.08922"
           height="185.08922"
           x="787.73676"
           y="240.10368"
           rx="12.729169"
           ry="11.478403"
           transform="matrix(0.68145507,0.73185996,-0.73185996,0.68145507,0,0)" />
        <path
           style="fill:#394050;stroke:none"
           d="m 353.05536,827.01992 c -8.92951,1.2478 -13.91877,10.91897 -13.91877,10.91897 l -10.2367,14.28218 -15.68085,8.51568 c 0,0 -3.90717,1.74107 -2.63977,5.27949 1.2674,3.53842 4.31961,2.63977 4.31961,2.63977 l 18.23825,-7.43931 9.59916,-9.35912 8.63922,27.35743 -16.79842,19.43818 0,40.07624 c 0,0 0.74384,4.59955 5.03953,4.55956 4.29555,-0.04 5.75944,-3.59966 5.75944,-3.59966 l 1.91985,-35.03671 13.06111,-10.64179 3.73315,0 4.66647,14.16908 16.21572,30.78949 c 0,0 3.40766,3.71959 7.43928,1.43987 4.03162,-2.27972 3.35969,-6.4794 3.35969,-6.4794 l -15.3586,-29.27725 -1.19981,-30.23716 -6.23947,-28.79729 7.91931,2.39978 5.51942,17.75832 c 0,0 1.76491,4.64721 5.49282,3.49775 3.72804,-1.14944 2.9064,-5.65754 2.9064,-5.65754 l -5.75945,-22.3179 -20.87801,-11.99889 c 0,0 -6.18908,-3.52757 -15.11858,-2.27977 z"
           id="path3758"
           inkscape:connector-curvature="0"
           sodipodi:nodetypes="zccczcccccczcccccczcccccczcccz" />
        <path
           sodipodi:type="arc"
           style="fill:#394050;fill-opacity:1;stroke:none"
           id="path3760"
           sodipodi:cx="353.13062"
           sodipodi:cy="810.97906"
           sodipodi:rx="12.718806"
           sodipodi:ry="12.478827"
           d="m 365.84942,810.97906 a 12.718806,12.478827 0 0 1 -12.70388,12.47882 12.718806,12.478827 0 0 1 -12.7337,-12.44952 12.718806,12.478827 0 0 1 12.67399,-12.50805 12.718806,12.478827 0 0 1 12.76345,12.42017"
           sodipodi:start="0"
           sodipodi:end="6.2784904"
           sodipodi:open="true" />
      </g>
    </g>
  </g>
</svg>
