<?xml version="1.0" encoding="UTF-8" standalone="no"?>
<!-- Created with Inkscape (http://www.inkscape.org/) -->

<svg
   xmlns:dc="http://purl.org/dc/elements/1.1/"
   xmlns:cc="http://creativecommons.org/ns#"
   xmlns:rdf="http://www.w3.org/1999/02/22-rdf-syntax-ns#"
   xmlns:svg="http://www.w3.org/2000/svg"
   xmlns="http://www.w3.org/2000/svg"
   xmlns:xlink="http://www.w3.org/1999/xlink"
   xmlns:sodipodi="http://sodipodi.sourceforge.net/DTD/sodipodi-0.dtd"
   xmlns:inkscape="http://www.inkscape.org/namespaces/inkscape"
   width="512"
   height="512"
   id="svg2"
   version="1.1"
   inkscape:version="0.91 r13725"
   sodipodi:docname="folder-temp.svg">
  <defs
     id="defs4">
    <linearGradient
       id="linearGradient7468"
       inkscape:collect="always">
      <stop
         id="stop7470"
         style="stop-color:#ffffff"
         offset="0" />
      <stop
         id="stop7472"
         style="stop-color:#333333"
         offset="1" />
    </linearGradient>
    <linearGradient
       id="linearGradient7460"
       inkscape:collect="always">
      <stop
         id="stop7462"
         style="stop-color:#880000"
         offset="0" />
      <stop
         id="stop7464"
         style="stop-color:#ff0000"
         offset="1" />
    </linearGradient>
    <radialGradient
       id="radialGradient3359"
       xlink:href="#linearGradient7468"
       gradientUnits="userSpaceOnUse"
       cy="576.95001"
       cx="360.41"
       gradientTransform="matrix(1.0468,0.50953,-0.43766,0.89914,235.64,-125.45)"
       r="15.5"
       inkscape:collect="always" />
    <radialGradient
       id="radialGradient3367"
       xlink:href="#linearGradient7468"
       gradientUnits="userSpaceOnUse"
       cy="576.95001"
       cx="360.41"
       gradientTransform="matrix(1.0468,0.50953,-0.43766,0.89914,235.64,-125.45)"
       r="15.5"
       inkscape:collect="always" />
    <linearGradient
       id="linearGradient3375"
       y2="563.59998"
       xlink:href="#linearGradient7460"
       gradientUnits="userSpaceOnUse"
       x2="358.75"
       y1="591.23999"
       x1="371.28"
       inkscape:collect="always" />
    <linearGradient
       id="linearGradient6874">
      <stop
         id="stop6876"
         style="stop-color:#000000"
         offset="0" />
      <stop
         id="stop6878"
         style="stop-color:#ffffff"
         offset=".12566" />
      <stop
         id="stop6880"
         style="stop-color:#666666"
         offset=".41176" />
      <stop
         id="stop6882"
         style="stop-color:#cccccc"
         offset=".64706" />
      <stop
         id="stop6884"
         style="stop-color:#333333"
         offset=".82353" />
      <stop
         id="stop6886"
         style="stop-color:#000000"
         offset="1" />
    </linearGradient>
    <linearGradient
       id="linearGradient3407">
      <stop
         id="stop3409"
         style="stop-color:#000000"
         offset="0" />
      <stop
         id="stop3411"
         style="stop-color:#ffffff"
         offset=".12566" />
      <stop
         id="stop3413"
         style="stop-color:#666666"
         offset=".41176" />
      <stop
         id="stop3415"
         style="stop-color:#cccccc"
         offset=".64706" />
      <stop
         id="stop3417"
         style="stop-color:#333333"
         offset=".82353" />
      <stop
         id="stop3419"
         style="stop-color:#000000"
         offset="1" />
    </linearGradient>
    <linearGradient
       id="linearGradient3422">
      <stop
         id="stop3424"
         style="stop-color:#000000"
         offset="0" />
      <stop
         id="stop3426"
         style="stop-color:#ffffff"
         offset=".12566" />
      <stop
         id="stop3428"
         style="stop-color:#666666"
         offset=".41176" />
      <stop
         id="stop3430"
         style="stop-color:#cccccc"
         offset=".64706" />
      <stop
         id="stop3432"
         style="stop-color:#333333"
         offset=".82353" />
      <stop
         id="stop3434"
         style="stop-color:#000000"
         offset="1" />
    </linearGradient>
    <linearGradient
       id="linearGradient3440">
      <stop
         id="stop3442"
         style="stop-color:#000000"
         offset="0" />
      <stop
         id="stop3444"
         style="stop-color:#ffffff"
         offset=".12566" />
      <stop
         id="stop3446"
         style="stop-color:#666666"
         offset=".41176" />
      <stop
         id="stop3448"
         style="stop-color:#cccccc"
         offset=".64706" />
      <stop
         id="stop3450"
         style="stop-color:#333333"
         offset=".82353" />
      <stop
         id="stop3452"
         style="stop-color:#000000"
         offset="1" />
    </linearGradient>
    <linearGradient
       id="linearGradient6850">
      <stop
         id="stop6852"
         style="stop-color:#000000"
         offset="0" />
      <stop
         id="stop6858"
         style="stop-color:#ffffff"
         offset=".11765" />
      <stop
         id="stop6860"
         style="stop-color:#666666"
         offset=".41176" />
      <stop
         id="stop6862"
         style="stop-color:#cccccc"
         offset=".64706" />
      <stop
         id="stop6864"
         style="stop-color:#333333"
         offset=".82353" />
      <stop
         id="stop6854"
         style="stop-color:#000000"
         offset="1" />
    </linearGradient>
    <linearGradient
       id="linearGradient3463">
      <stop
         id="stop3465"
         style="stop-color:#000000"
         offset="0" />
      <stop
         id="stop3467"
         style="stop-color:#ffffff"
         offset=".11765" />
      <stop
         id="stop3469"
         style="stop-color:#666666"
         offset=".41176" />
      <stop
         id="stop3471"
         style="stop-color:#cccccc"
         offset=".64706" />
      <stop
         id="stop3473"
         style="stop-color:#333333"
         offset=".82353" />
      <stop
         id="stop3475"
         style="stop-color:#000000"
         offset="1" />
    </linearGradient>
    <linearGradient
       gradientTransform="translate(323.92404,487.04243)"
       id="linearGradient7542"
       y2="54.868999"
       xlink:href="#linearGradient7260"
       gradientUnits="userSpaceOnUse"
       x2="463.01001"
       y1="54.868999"
       x1="266.98999"
       inkscape:collect="always" />
    <linearGradient
       id="linearGradient7260">
      <stop
         id="stop7262"
         style="stop-color:#ffffff;stop-opacity:.8"
         offset="0" />
      <stop
         id="stop7268"
         style="stop-color:#ffffff"
         offset=".5" />
      <stop
         id="stop7264"
         style="stop-color:#ffffff;stop-opacity:.8"
         offset="1" />
    </linearGradient>
    <linearGradient
       gradientTransform="translate(323.92404,487.04243)"
       id="linearGradient7540"
       y2="154.88"
       xlink:href="#linearGradient7286"
       gradientUnits="userSpaceOnUse"
       x2="463.01001"
       y1="154.88"
       x1="266.98999"
       inkscape:collect="always" />
    <linearGradient
       id="linearGradient7286">
      <stop
         id="stop7288"
         style="stop-color:#000000;stop-opacity:.6"
         offset="0" />
      <stop
         id="stop7294"
         style="stop-color:#000000"
         offset=".5" />
      <stop
         id="stop7290"
         style="stop-color:#000000;stop-opacity:.6"
         offset="1" />
    </linearGradient>
    <linearGradient
       gradientTransform="translate(323.92404,487.04243)"
       id="linearGradient7538"
       y2="153.86"
       xlink:href="#linearGradient7260"
       gradientUnits="userSpaceOnUse"
       x2="454.03"
       y1="153.86"
       x1="275.97"
       inkscape:collect="always" />
    <linearGradient
       id="linearGradient3492">
      <stop
         id="stop3494"
         style="stop-color:#ffffff;stop-opacity:.8"
         offset="0" />
      <stop
         id="stop3496"
         style="stop-color:#ffffff"
         offset=".5" />
      <stop
         id="stop3498"
         style="stop-color:#ffffff;stop-opacity:.8"
         offset="1" />
    </linearGradient>
    <linearGradient
       gradientTransform="translate(323.92404,487.04243)"
       id="linearGradient7536"
       y2="55.868999"
       xlink:href="#linearGradient7286"
       gradientUnits="userSpaceOnUse"
       x2="454.03"
       y1="55.868999"
       x1="275.97"
       inkscape:collect="always" />
    <linearGradient
       id="linearGradient3503">
      <stop
         id="stop3505"
         style="stop-color:#000000;stop-opacity:.6"
         offset="0" />
      <stop
         id="stop3507"
         style="stop-color:#000000"
         offset=".5" />
      <stop
         id="stop3509"
         style="stop-color:#000000;stop-opacity:.6"
         offset="1" />
    </linearGradient>
  </defs>
  <sodipodi:namedview
     id="base"
     pagecolor="#ffffff"
     bordercolor="#666666"
     borderopacity="1.0"
     inkscape:pageopacity="0.0"
     inkscape:pageshadow="2"
     inkscape:zoom="0.49497475"
     inkscape:cx="616.77959"
     inkscape:cy="136.06588"
     inkscape:document-units="px"
     inkscape:current-layer="layer1"
     showgrid="false"
     inkscape:window-width="1366"
     inkscape:window-height="715"
     inkscape:window-x="0"
     inkscape:window-y="24"
     inkscape:window-maximized="1" />
  <metadata
     id="metadata7">
    <rdf:RDF>
      <cc:Work
         rdf:about="">
        <dc:format>image/svg+xml</dc:format>
        <dc:type
           rdf:resource="http://purl.org/dc/dcmitype/StillImage" />
        <dc:title />
      </cc:Work>
    </rdf:RDF>
  </metadata>
  <g
     inkscape:label="Layer 1"
     inkscape:groupmode="layer"
     id="layer1"
     transform="translate(0,-540.36218)">
    <g
       id="g4246">
      <path
         sodipodi:nodetypes="cccccsssscc"
         inkscape:connector-curvature="0"
         id="rect4150"
         d="m 36.29097,615.00618 123.37071,2.4e-4 29.62974,33.73269 284.91693,7e-5 19.55792,0 0,295.39887 c 0,10.83509 -8.72283,19.55792 -19.55792,19.55792 l -437.91738,0 c -10.835093,0 -19.557923,-8.72283 -19.557923,-19.55792 l 0,-329.13187 z"
         style="opacity:1;fill:#ffb800;fill-opacity:1;stroke:none;stroke-width:0.5;stroke-linecap:round;stroke-miterlimit:4;stroke-dasharray:none;stroke-opacity:1" />
      <path
         id="rect3348"
         d="m 16.733034,676.04932 477.033236,0 0,314.95688 -477.033236,0 z"
         style="opacity:1;fill:#faec6d;fill-opacity:1;stroke:none;stroke-width:0.5;stroke-linecap:round;stroke-miterlimit:4;stroke-dasharray:none;stroke-opacity:1" />
      <path
         id="rect4153"
         d="m 16.732,967.31125 0,3.87673 477.03049,0 0,-3.87673 -477.03049,0 z"
         style="opacity:1;fill:#ffb800;fill-opacity:1;stroke:none;stroke-width:0.5;stroke-linecap:round;stroke-miterlimit:4;stroke-dasharray:none;stroke-opacity:1"
         inkscape:connector-curvature="0" />
      <path
         inkscape:connector-curvature="0"
         style="opacity:1;fill:#ffb800;fill-opacity:1;stroke:none;stroke-width:0.5;stroke-linecap:round;stroke-miterlimit:4;stroke-dasharray:none;stroke-opacity:1"
         d="m 16.732,960.49031 0,3.87674 477.03049,0 0,-3.87674 -477.03049,0 z"
         id="path4159" />
      <path
         d="m 157.94372,693.46824 c -15.18897,0 -27.50216,12.31319 -27.50216,27.50217 0,15.18897 12.31319,27.50215 27.50216,27.50215 15.18898,0 27.50216,-12.31318 27.50216,-27.50215 0,-15.18898 -12.31318,-27.50217 -27.50216,-27.50217 z m -0.57016,5.36628 c 0.18986,-0.005 0.37915,0 0.57016,0 12.22518,0 22.13589,9.9107 22.13589,22.13589 0,12.22517 -9.91071,22.13588 -22.13589,22.13588 -12.22518,0 -22.13588,-9.91071 -22.13588,-22.13588 0,-12.03441 9.60456,-21.83297 21.56572,-22.13589 z"
         inkscape:connector-curvature="0"
         style="fill:#ffb800;fill-opacity:1"
         id="path6049" />
      <path
         d="m 69.574309,766.1209 c 3.689581,-3.89994 7.439272,-6.34374 8.375144,-5.45804 l 9.179825,8.68479 c -0.935982,-0.8855 -4.68583,1.5582 -8.375144,5.45803 -3.689588,3.89994 -5.921692,7.77923 -4.985812,8.66466 l -9.180894,-8.688 c -0.935982,-0.88549 1.296224,-4.76472 4.985812,-8.66466 z"
         inkscape:connector-curvature="0"
         style="fill:#ffb800;fill-opacity:1"
         id="path6078" />
      <path
         d="m 73.766711,783.46738 c 0.93599,0.8855 4.685838,-1.5582 8.375144,-5.45802 3.689589,-3.89995 5.921692,-7.77924 4.985812,-8.66466 -0.93599,-0.88549 -4.68583,1.5582 -8.375152,5.45803 -3.689581,3.89995 -5.921676,7.77922 -4.985804,8.66465 z"
         inkscape:connector-curvature="0"
         style="fill:#ffb800;fill-opacity:1"
         id="path6074" />
      <path
         d="m 79.389765,775.40724 c 2.951722,-3.11994 5.818654,-5.20045 6.403576,-4.64719 l 8.472004,8.0148 c 0.584984,0.55342 -1.33354,3.53127 -4.285238,6.65123 -2.95169,3.11995 -5.818654,5.20046 -6.403568,4.6472 l -8.471478,-8.01722 c -0.584976,-0.55343 1.333549,-3.53128 4.285239,-6.65123 z"
         inkscape:connector-curvature="0"
         style="fill:#ffb800;fill-opacity:1"
         sodipodi:nodetypes="sssssss"
         id="path6076" />
      <path
         d="m 157.94372,714.39671 c -7.40922,0 -13.41569,1.44155 -13.41569,3.21976 l 0,17.4404 c 0,-1.77822 6.00647,-3.21976 13.41569,-3.21976 7.40922,0 13.41569,1.44154 13.41569,3.21976 l 0,-17.4404 c 0,-1.77821 -6.00647,-3.21976 -13.41569,-3.21976 z"
         inkscape:connector-curvature="0"
         style="fill:#ffb800;fill-opacity:1"
         id="path6034" />
      <path
         d="m 171.35941,735.05285 c 0,1.77822 -6.00647,3.21977 -13.41569,3.21977 -7.40922,0 -13.41569,-1.44155 -13.41569,-3.21977 0,-1.77822 6.00647,-3.21977 13.41569,-3.21977 7.40922,0 13.41569,1.44155 13.41569,3.21977 z"
         inkscape:connector-curvature="0"
         style="fill:#ffb800;fill-opacity:1"
         id="path6032" />
      <path
         d="m 157.94372,733.04586 c -5.92732,0 -10.73255,0.90098 -10.73255,2.01236 l 0,16.09534 c 0,1.11138 4.80523,2.01235 10.73255,2.01235 5.92733,0 10.73255,-0.90097 10.73255,-2.01235 l 0,-16.09534 c 0,-1.11138 -4.80522,-2.01236 -10.73255,-2.01236 z"
         inkscape:connector-curvature="0"
         style="fill:#ffb800;fill-opacity:1"
         sodipodi:nodetypes="sssssss"
         id="path6005" />
      <path
         inkscape:connector-curvature="0"
         style="fill:#ffb800;fill-opacity:1"
         d="m 246.2726,766.1209 c -3.68958,-3.89994 -7.43925,-6.34374 -8.37513,-5.45804 l -9.17982,8.68479 c 0.93599,-0.8855 4.68583,1.5582 8.37514,5.45803 3.68959,3.89994 5.92167,7.77923 4.9858,8.66466 l 9.17982,-8.68478 c 0.93598,-0.88549 -1.29623,-4.76471 -4.98581,-8.66466 z"
         id="path6062" />
      <path
         inkscape:connector-curvature="0"
         style="fill:#ffb800;fill-opacity:1"
         d="m 242.07887,783.46738 c -0.93599,0.8855 -4.68583,-1.5582 -8.37515,-5.45802 -3.68958,-3.89995 -5.92168,-7.77924 -4.9858,-8.66466 0.93598,-0.88549 4.68583,1.5582 8.37514,5.45803 3.68958,3.89995 5.92168,7.77922 4.98581,8.66465 z"
         id="path6058" />
      <path
         inkscape:connector-curvature="0"
         style="fill:#ffb800;fill-opacity:1"
         sodipodi:nodetypes="sssssss"
         d="m 236.45501,775.40724 c -2.95171,-3.11994 -5.81865,-5.20045 -6.40358,-4.64719 l -8.472,8.0148 c -0.58498,0.55342 1.33355,3.53127 4.28524,6.65123 2.95169,3.11995 5.81865,5.20046 6.40357,4.6472 l 8.47202,-8.01481 c 0.58497,-0.55343 -1.33355,-3.53127 -4.28525,-6.65123 z"
         id="path6060" />
      <circle
         style="fill:#ffb800;fill-opacity:1"
         id="path5983"
         cx="157.94371"
         cy="847.74524"
         r="97.94371" />
      <circle
         style="fill:#ffb800;fill-opacity:1"
         id="path5995"
         cx="157.94371"
         cy="847.74524"
         r="89.885117" />
      <circle
         style="fill:#faec6d;fill-opacity:1"
         id="path5997"
         cx="157.94385"
         cy="847.74536"
         r="84.518974" />
    </g>
  </g>
</svg>
