<?xml version="1.0" encoding="UTF-8" standalone="no"?>
<!-- Created with Inkscape (http://www.inkscape.org/) -->

<svg
   xmlns:dc="http://purl.org/dc/elements/1.1/"
   xmlns:cc="http://creativecommons.org/ns#"
   xmlns:rdf="http://www.w3.org/1999/02/22-rdf-syntax-ns#"
   xmlns:svg="http://www.w3.org/2000/svg"
   xmlns="http://www.w3.org/2000/svg"
   xmlns:sodipodi="http://sodipodi.sourceforge.net/DTD/sodipodi-0.dtd"
   xmlns:inkscape="http://www.inkscape.org/namespaces/inkscape"
   width="512"
   height="512"
   id="svg2"
   version="1.1"
   inkscape:version="0.91 r13725"
   sodipodi:docname="folder-builds.svg">
  <defs
     id="defs4" />
  <sodipodi:namedview
     id="base"
     pagecolor="#ffffff"
     bordercolor="#666666"
     borderopacity="1.0"
     inkscape:pageopacity="0.0"
     inkscape:pageshadow="2"
     inkscape:zoom="0.35"
     inkscape:cx="417.00088"
     inkscape:cy="113.51198"
     inkscape:document-units="px"
     inkscape:current-layer="layer1"
     showgrid="false"
     inkscape:window-width="1366"
     inkscape:window-height="715"
     inkscape:window-x="0"
     inkscape:window-y="24"
     inkscape:window-maximized="1" />
  <metadata
     id="metadata7">
    <rdf:RDF>
      <cc:Work
         rdf:about="">
        <dc:format>image/svg+xml</dc:format>
        <dc:type
           rdf:resource="http://purl.org/dc/dcmitype/StillImage" />
        <dc:title />
      </cc:Work>
    </rdf:RDF>
  </metadata>
  <g
     inkscape:label="Layer 1"
     inkscape:groupmode="layer"
     id="layer1"
     transform="translate(0,-540.36218)">
    <g
       id="g4151">
      <g
         id="g4285"
         transform="translate(1.37e-4,-3.812793e-4)">
        <path
           style="opacity:1;fill:#ffb800;fill-opacity:1;stroke:none;stroke-width:0.5;stroke-linecap:round;stroke-miterlimit:4;stroke-dasharray:none;stroke-opacity:1"
           d="m 36.290833,615.00656 123.370707,2.4e-4 29.62974,33.73269 284.91693,7e-5 19.55792,0 0,295.39887 c 0,10.83509 -8.72283,19.55792 -19.55792,19.55792 l -437.917377,0 c -10.835093,0 -19.557923,-8.72283 -19.557923,-19.55792 l 0,-329.13187 z"
           id="rect4150"
           inkscape:connector-curvature="0"
           sodipodi:nodetypes="cccccsssscc" />
        <path
           id="rect3348"
           d="m 16.732897,676.04968 477.033233,0 0,314.95688 -477.033233,0 z"
           style="opacity:1;fill:#faec6d;fill-opacity:1;stroke:none;stroke-width:0.5;stroke-linecap:round;stroke-miterlimit:4;stroke-dasharray:none;stroke-opacity:1" />
        <path
           inkscape:connector-curvature="0"
           style="opacity:1;fill:#ffb800;fill-opacity:1;stroke:none;stroke-width:0.5;stroke-linecap:round;stroke-miterlimit:4;stroke-dasharray:none;stroke-opacity:1"
           d="m 16.731863,967.31163 0,3.87673 477.030487,0 0,-3.87673 -477.030487,0 z"
           id="rect4153" />
        <path
           id="path4159"
           d="m 16.731863,960.49069 0,3.87674 477.030487,0 0,-3.87674 -477.030487,0 z"
           style="opacity:1;fill:#ffb800;fill-opacity:1;stroke:none;stroke-width:0.5;stroke-linecap:round;stroke-miterlimit:4;stroke-dasharray:none;stroke-opacity:1"
           inkscape:connector-curvature="0" />
      </g>
      <g
         transform="matrix(0.72669614,-0.83458037,0.83458037,0.72669614,-737.60563,348.53566)"
         id="g4167">
        <path
           style="fill:#ffb800;fill-opacity:1"
           inkscape:connector-curvature="0"
           id="path3059"
           d="m 263.01356,874.78638 0.0287,35.72118 -165.73115,10.72953 c -7.09056,0.34774 -13.29509,-5.67899 -13.40179,-13.01773 l -0.0363,-19.32898 c -0.34777,-7.09054 5.67896,-13.29507 13.01772,-13.40176 z"
           sodipodi:nodetypes="ccccccc" />
        <path
           style="fill:#ffb800;fill-opacity:1"
           inkscape:connector-curvature="0"
           id="path3059-3"
           d="m 309.79948,966.95307 -26.66054,0.6322 c -5.38177,0.078 -9.60209,-4.0211 -9.92727,-9.6427 l 0.15573,-6.1191 c -0.3051,-4.15522 2.31822,-8.84223 5.2466,-9.37416 3.68006,0.68058 7.27477,-4.50992 6.91279,-12.57904 0.0703,-11.99014 -7.38218,-19.71141 -13.49302,-19.37676 -2.20517,-0.2126 -10.27425,0.1494 -10.27425,0.1494 l -0.76738,-35.9563 5.87101,-0.0853 c 0,0 1.46775,-0.0214 4.6443,-0.31221 11.25274,-0.16361 11.5642,-12.40196 11.5642,-12.40196 -0.70336,-31.55308 -23.52771,-53.24099 -23.52771,-53.24099 l 5.2964,-5.94923 c 56.74739,32.45108 54.58515,68.93812 54.76296,81.16936 0.16361,11.25279 0.33426,22.99234 0.37696,25.93026 0.0925,6.36021 -12.05344,12.40907 -12.40045,22.20114 0.0641,4.40327 2.07791,8.28875 4.31156,10.45854 4.65141,0.17696 7.8991,4.77863 7.71496,8.94083 l -0.16285,5.62992 c 0.077,5.3806 -4.02117,9.5996 -9.64276,9.9272 z"
           sodipodi:nodetypes="ccccccccccccccsscccccc" />
      </g>
    </g>
  </g>
</svg>
