<?xml version="1.0" encoding="UTF-8" standalone="no"?>
<!-- Created with Inkscape (http://www.inkscape.org/) -->

<svg
   xmlns:dc="http://purl.org/dc/elements/1.1/"
   xmlns:cc="http://creativecommons.org/ns#"
   xmlns:rdf="http://www.w3.org/1999/02/22-rdf-syntax-ns#"
   xmlns:svg="http://www.w3.org/2000/svg"
   xmlns="http://www.w3.org/2000/svg"
   xmlns:sodipodi="http://sodipodi.sourceforge.net/DTD/sodipodi-0.dtd"
   xmlns:inkscape="http://www.inkscape.org/namespaces/inkscape"
   width="512"
   height="512"
   id="svg2"
   version="1.1"
   inkscape:version="0.91 r13725"
   sodipodi:docname="folder-html.svg">
  <defs
     id="defs4">
    <radialGradient
       id="polygon413_1_"
       cx="7976.3457"
       cy="-10508.842"
       r="13293.867"
       gradientTransform="matrix(0.0222,0,0,-0.0248,721.1671,674.6745)"
       gradientUnits="userSpaceOnUse">
      <stop
         offset="0"
         style="stop-color:#80FF80"
         id="stop388" />
      <stop
         offset="1"
         style="stop-color:#0f0"
         id="stop390" />
    </radialGradient>
  </defs>
  <sodipodi:namedview
     id="base"
     pagecolor="#ffffff"
     bordercolor="#666666"
     borderopacity="1.0"
     inkscape:pageopacity="0.0"
     inkscape:pageshadow="2"
     inkscape:zoom="0.49497475"
     inkscape:cx="407.68983"
     inkscape:cy="330.22967"
     inkscape:document-units="px"
     inkscape:current-layer="layer1"
     showgrid="false"
     inkscape:window-width="1366"
     inkscape:window-height="715"
     inkscape:window-x="0"
     inkscape:window-y="24"
     inkscape:window-maximized="1" />
  <metadata
     id="metadata7">
    <rdf:RDF>
      <cc:Work
         rdf:about="">
        <dc:format>image/svg+xml</dc:format>
        <dc:type
           rdf:resource="http://purl.org/dc/dcmitype/StillImage" />
        <dc:title />
      </cc:Work>
    </rdf:RDF>
  </metadata>
  <g
     inkscape:label="Layer 1"
     inkscape:groupmode="layer"
     id="layer1"
     transform="translate(0,-540.36218)">
    <g
       id="g4156">
      <path
         sodipodi:nodetypes="cccccsssscc"
         inkscape:connector-curvature="0"
         id="rect4150"
         d="m 36.29097,615.00618 123.37071,2.4e-4 29.62974,33.73269 284.91693,7e-5 19.55792,0 0,295.39887 c 0,10.83509 -8.72283,19.55792 -19.55792,19.55792 l -437.91738,0 c -10.835093,0 -19.557923,-8.72283 -19.557923,-19.55792 l 0,-329.13187 z"
         style="opacity:1;fill:#ffb800;fill-opacity:1;stroke:none;stroke-width:0.5;stroke-linecap:round;stroke-miterlimit:4;stroke-dasharray:none;stroke-opacity:1" />
      <path
         id="rect3348"
         d="m 16.733034,676.04932 477.033236,0 0,314.95688 -477.033236,0 z"
         style="opacity:1;fill:#faec6d;fill-opacity:1;stroke:none;stroke-width:0.5;stroke-linecap:round;stroke-miterlimit:4;stroke-dasharray:none;stroke-opacity:1" />
      <path
         id="rect4153"
         d="m 16.732,967.31125 0,3.87673 477.03049,0 0,-3.87673 -477.03049,0 z"
         style="opacity:1;fill:#ffb800;fill-opacity:1;stroke:none;stroke-width:0.5;stroke-linecap:round;stroke-miterlimit:4;stroke-dasharray:none;stroke-opacity:1"
         inkscape:connector-curvature="0" />
      <path
         inkscape:connector-curvature="0"
         style="opacity:1;fill:#ffb800;fill-opacity:1;stroke:none;stroke-width:0.5;stroke-linecap:round;stroke-miterlimit:4;stroke-dasharray:none;stroke-opacity:1"
         d="m 16.732,960.49031 0,3.87674 477.03049,0 0,-3.87674 -477.03049,0 z"
         id="path4159" />
      <path
         id="path26"
         d="M 176.10521,698.8697 C 111.98204,698.8697 60,750.85193 60,814.9749 c 0,64.12298 51.98204,116.10521 116.10521,116.10521 l 0,-19.42653 c -3.68306,0 -7.31714,-0.19738 -10.88486,-0.60375 -2.84187,-0.32896 -5.70445,-0.64825 -8.466,-1.20942 -5.47959,-1.12236 -10.62306,-3.43769 -15.72259,-5.44243 -0.17416,-0.32898 -0.64633,-0.78372 -0.60376,-1.17073 1.00624,-0.42572 2.89316,1.43196 3.62829,0 0.36766,-0.67729 -0.48376,-2.34629 0,-3.02358 0.34831,-0.46442 2.3078,-0.47022 3.02357,-0.60375 1.0256,-0.19351 2.44306,-0.33282 3.02358,-0.60374 0.63858,-0.40637 1.32554,-1.83833 1.20944,-3.02357 -0.058,-0.56118 -0.7663,-0.70631 -1.20944,-1.20944 -0.36766,-0.42571 0.25157,-0.8224 0,-1.20942 -0.46442,-0.67729 -1.62161,-0.82822 -1.81318,-1.81318 1.39327,-0.27091 3.43015,1.16492 5.44244,0.60374 0.9482,-0.2709 2.5785,-2.13148 3.02357,-3.02357 0.13548,-0.2709 -0.1548,-0.86111 0,-1.20942 0.17416,-0.34833 0.5457,-0.99851 0.60376,-1.17267 0.13548,-0.52247 -0.11609,-0.25543 0,-0.60374 0.34831,-0.98689 1.23265,-1.72223 1.81317,-2.41886 0.44507,-0.54183 1.40681,-1.25394 1.81318,-1.81319 0.46442,-0.59987 0.298,-0.6676 0.60374,-1.20942 0.29027,-1.76093 -1.02946,-3.29158 -0.60374,-4.83771 0.46442,-1.74158 3.15437,-2.8349 4.83771,-3.62829 0.58052,-0.27092 1.33328,-0.4296 1.81317,-0.60375 1.16107,-0.40637 2.54464,-0.84176 3.62829,-1.20942 1.81898,-0.65794 2.13343,-1.96606 3.02358,-3.62829 0.42572,-0.77404 1.13202,-1.85769 1.20943,-2.41886 0.0774,-0.50313 -0.0967,-0.59021 0,-1.17267 0.0967,-0.56117 -0.15482,-1.15718 0,-1.81318 0.21286,-0.83789 0.60374,-2.70699 0.60374,-3.6339 0,-0.77403 -0.58632,-1.15524 -0.60374,-1.85188 -0.0774,-1.32746 0.21479,-1.87509 0.60374,-2.30546 l 0,-17.12106 c -1.16298,-0.84756 -2.34513,-1.59645 -3.62829,-1.70094 l -1.20942,0 c -0.92885,0 -1.97882,-0.47023 -3.02357,-0.60374 -0.65793,-0.19351 -2.03184,0.19351 -2.41886,0 -0.59989,-0.29027 -0.72565,-1.48616 -1.20943,-1.81318 -0.38702,-0.27092 -1.21524,-0.39283 -1.81318,-0.60375 -0.94818,-0.34831 -1.31586,-1.15138 -2.41885,-1.20944 -0.34833,0 -0.82242,0.19352 -1.20944,0 -0.59987,-0.19351 -1.25393,-0.25735 -1.81317,-0.60374 -0.69664,-0.42572 -1.52485,-0.60954 -1.81318,-1.20943 0.63858,-2.08796 -1.38939,-2.40918 -1.81318,-3.62828 -0.1935,-0.56119 0.19351,-1.91574 0,-2.41887 -0.25156,-0.71598 -1.02173,-1.21523 -1.81317,-1.81318 -1.39326,-1.08363 -2.24005,-1.56355 -4.23302,-1.81317 -0.89013,-0.19351 -1.95946,0.19351 -3.02357,0 -1.12234,-0.19351 -2.77703,-0.84756 -3.62827,-1.81318 -0.81274,-0.94818 -1.09915,-1.97184 -1.81318,-2.41885 -0.67728,-0.42572 -1.34877,-0.78372 -1.81319,-1.20942 -0.21286,-0.19353 -0.41023,-0.19933 -0.60374,-0.60376 -0.34831,-0.71597 -1.02946,-0.94432 -0.60374,-1.81317 -0.77405,-0.38702 -0.37735,0.7392 -1.20944,0.60374 -0.75468,-1.06429 -1.32167,-2.11988 -3.02357,-1.81318 -0.77403,0.19351 -1.50937,1.79384 -2.41886,1.81318 -0.75469,0 -1.43196,-1.6603 -2.41885,-1.81318 -0.75469,-0.19351 -1.89639,0.7005 -2.41887,0.60376 -0.83209,-0.19351 -1.06042,-0.70631 -1.81318,-1.20944 -0.56117,-0.36766 -1.50355,-1.22877 -1.81317,-1.20942 -0.96754,0 -1.68933,1.92541 -3.02357,1.20942 -0.65792,-0.83209 1.38165,-1.04107 0.60375,-1.81318 -0.58052,-0.56117 -0.74501,0.33284 -1.20943,0.60376 -0.54182,0.34831 -1.21523,0.39088 -1.81318,0.60374 -1.3352,0.50313 -2.58353,0.62891 -3.62829,1.17073 -0.96754,0.50312 -1.21716,0.86499 -1.77641,1.85188 -0.44506,0.81274 -1.13975,2.38015 -1.81317,2.41886 -0.81274,0 -1.07978,-0.88046 -1.81318,-1.20944 -2.22515,-0.96754 -3.60429,0.56505 -5.44243,0.60376 -1.70288,0 -4.310402,-2.62689 -4.232993,-4.23301 0.05804,-0.98689 0.489567,-2.40917 0.603741,-3.62829 0.09669,-0.96754 1.192007,-2.14117 1.209435,-3.02358 0.0194,-1.19975 -2.249542,-1.67965 -3.023573,-1.81317 -1.81898,-0.32896 -3.976798,0.81273 -6.047147,0 -0.387015,-0.65792 0.373468,-1.19395 0.603741,-1.85187 0.135481,-0.34832 -0.135482,-0.78371 0,-1.17073 0.232212,-0.61923 1.488081,-1.15718 1.77641,-1.81317 0.21286,-0.50313 -0.21286,-1.2133 0,-1.85188 0.251565,-0.69664 1.151379,-1.31006 1.209436,-1.81318 0.07744,-0.65793 -0.688894,-1.38745 -1.209436,-1.81317 -1.606119,0.1935 -2.699441,0.19931 -3.628291,0.60374 -2.089701,0.9482 -1.519041,3.57507 -3.628291,4.233 -0.715974,0.23222 -1.606119,0.47023 -2.418855,0.60374 -0.354115,0.19351 -0.812736,0 -1.20942,0 0.03864,-0.1935 -0.03864,-0.41217 0,-0.60374 0.09669,-0.44507 0.510858,-0.78371 0.60374,-1.20943 1.379711,-6.28903 3.510057,-12.37682 6.047146,-18.14144 l 0.603756,0 c 0.735326,0.19351 1.174595,1.17073 1.813175,1.20944 1.780275,0.1935 2.157623,-1.64483 3.628276,-2.41886 1.509373,0.21286 2.254579,-0.19351 3.628291,0 0.92885,0.19351 2.288442,1.13203 3.023569,1.20942 0.61923,0 0.62892,-0.68307 1.20944,-0.60374 0.58052,0.19351 1.72029,1.11848 1.81317,1.81318 0.0967,0.87079 -0.85724,2.06376 -0.60375,3.02357 0.9095,0.92883 2.93649,1.27135 4.23301,1.81317 0.85144,-0.71599 0.13548,-2.01733 0,-3.02357 -0.0194,-0.44507 0.058,-1.40681 0,-1.81317 -0.0967,-0.69664 -0.60376,-1.2133 -0.60376,-1.81318 0,-2.76718 2.37552,-3.756 4.23301,-4.83773 0.79338,-0.46441 1.72223,-1.46485 2.41886,-1.81317 0.98689,-0.48376 1.60612,-0.19737 2.41885,-0.60374 1.47067,-0.83209 2.4866,-2.08119 3.62829,-3.02358 0.52248,-1.2578 -0.058,-2.99455 0,-4.233 0.52248,-0.32896 1.25587,0 1.81318,0 0.89014,-0.19351 1.31198,-1.31005 1.81317,-1.81318 0.29027,-0.29025 0.86113,-0.31541 1.20944,-0.60374 0.89014,-0.69664 1.04107,-1.50357 1.81317,-1.81318 0.27092,-0.1935 0.78372,-0.46829 1.20944,-0.60375 0.58052,-0.19351 1.49,-0.25543 2.41885,-0.60374 0.59988,-0.21286 2.18665,-0.35219 2.41886,-0.60374 0.29027,-0.29027 -0.0774,-1.36812 0,-1.81319 0.46442,-2.18471 3.48819,-2.28629 5.44243,-3.02358 1.35455,-0.50311 2.72363,-2.08117 4.23301,-1.81317 -0.29027,1.04495 -1.461,1.16106 -1.20944,2.41887 0.32896,1.76092 2.40435,-0.35219 3.02357,-0.60376 1.1804,-0.50311 3.28965,-1.23265 4.83771,-1.81317 1.35458,-0.48378 3.69585,-0.85144 2.41888,-2.41886 -1.0643,-0.1935 -1.49003,0.84176 -2.41888,1.20944 -0.63856,0.19351 -0.6676,-0.5457 -1.20942,-0.60376 -0.52248,0 -0.68695,0.7005 -1.20943,0.60376 -0.52247,-0.19352 -1.13203,-1.17461 -1.20942,-1.81319 -0.21286,-1.62547 1.15911,-1.81704 1.81317,-3.02358 -0.44507,-1.47065 -2.39003,-0.64824 -3.62829,-1.20942 0.13548,-0.87079 0.79145,-1.6216 1.81318,-1.81317 0.83209,-0.19351 3.12516,0.19931 3.62829,0.60374 0.29025,0.25156 -0.44313,0.78565 0,1.17267 0.50311,0.44507 1.15911,0.19351 1.81318,0 0.23221,-1.10301 -1.40295,-0.45668 -1.20944,-1.17267 1.31587,-0.85144 3.83651,-0.39088 5.44244,-0.60374 0.92884,-0.19351 2.19148,-0.76436 3.02357,-1.20944 0.77404,-0.44507 1.00238,-1.341 1.81317,-0.60374 0.23222,0.79339 -0.1548,1.3894 -0.60374,1.81318 -1.49002,1.31585 -3.07214,2.70622 -4.233,4.23299 0.71598,0.69664 1.82285,0.47023 3.02357,0.60376 0.46442,0.19351 1.33328,0 1.81317,0 0.58054,0.19351 1.34877,-0.19351 1.81318,0 0.81275,0.19351 1.00432,1.81317 1.81319,1.81317 1.31585,0 0.75468,-1.54807 0,-2.41885 0.2322,-0.9095 0.93464,-1.78029 0.60374,-2.41886 -0.59988,-1.19976 -2.90747,0.33863 -3.02357,-1.20943 -0.0774,-0.96754 0.86111,-1.07785 1.20943,-1.81318 -0.15482,-1.85768 1.40293,-1.94476 1.20942,-3.62829 -0.0967,-0.69662 -0.72566,-0.5128 -1.20942,-1.17073 -0.25156,-0.34831 -0.31542,-1.58096 -0.60375,-1.85188 -1.00625,-0.85143 -2.90746,-0.19351 -3.02358,-1.81318 -0.058,-0.96754 0.13549,-1.98635 0,-3.02357 -0.13548,-0.98689 -0.96367,-4.03949 -1.81317,-4.23299 -1.08365,-0.23222 -1.7261,1.81898 -3.02357,2.41885 -0.69663,0.32896 -2.30778,0.7218 -3.02358,0.60376 -0.46442,-0.19353 -1.15138,-0.29996 -1.20942,-1.20944 -0.0774,-0.81273 0.90754,-1.17459 1.20942,-1.81317 0.0774,-0.19351 -0.0386,-0.3909 0,-0.60376 1.40487,-0.38701 2.8053,-0.84176 4.23301,-1.17071 0.8108,-0.19351 1.60032,-0.45088 2.41886,-0.60376 0.57858,-0.19351 1.23265,0.19351 1.81317,0 2.58431,-0.48376 5.20926,-0.95787 7.86129,-1.20942 3.21688,-0.32897 6.36451,-0.60375 9.67543,-0.60375 l 0,-0.0386 c 3.33977,0 6.42275,0.27672 9.67544,0.60376 l 2.41886,0 c 1.01785,0.1935 2.01539,0.45087 3.02357,0.60374 2.77975,0.44507 5.16726,1.13783 7.86128,1.81317 4.96544,1.21911 9.88289,2.87748 14.51317,4.83773 2.55295,1.08364 4.82126,2.33952 7.25656,3.62827 -0.001,0.19351 0.0155,0.39284 0,0.60376 0.56118,0.25156 0.86886,1.29263 1.81318,1.81317 0.34831,0.19351 0.27866,0.42959 0.60376,0.60374 0.56117,0.30963 1.32553,0.63086 1.20942,1.17268 -0.15481,0.77403 -1.27136,0.62889 -1.81318,1.20942 0.0774,1.12235 -0.91917,1.06043 -1.20942,1.81319 0.17416,0.48376 1.13203,0.64825 1.20942,1.20942 -0.0967,0.61922 -1.44163,0.5902 -1.20942,1.20943 1.04493,0.81274 2.03667,0.19351 3.02357,0 2.1671,-0.27092 4.10721,-0.20319 5.44243,-1.20943 -0.17415,-1.0256 1.93122,-0.88433 1.81318,-1.81318 0.55536,0.40637 1.26553,0.80307 1.81317,1.20944 -0.20899,0.1935 -0.37154,0.50891 -0.60375,0.60374 -0.40637,0.1935 -0.84176,0.33477 -1.20942,0.56697 -0.54184,0.34833 -1.19395,0.82242 -1.81318,1.20944 -0.44507,0.30962 -1.34876,1.81317 -1.81317,1.81317 -0.56119,0 -1.40681,-0.71985 -1.81318,-0.60374 -0.58054,0.19351 -0.55344,0.99656 -1.20943,1.20942 -1.27717,0.46443 -3.78814,-0.68695 -4.23301,1.20944 0.54183,1.10299 2.66075,0.60954 3.62829,1.20942 0.59987,0.38703 1.66223,1.76094 1.81317,2.41887 0.15482,0.54182 0.23222,3.04775 0,3.62828 -0.59987,1.54807 -2.45291,1.19202 -4.23299,1.17267 l -1.20944,0 c -2.999,-0.19351 -5.90201,-1.54228 -7.25656,0.60374 0.0967,1.64482 0.36766,2.80104 0,4.233 -0.27092,1.04495 -1.87317,2.12182 -1.81319,3.02358 0.0194,0.46442 1.09333,1.15718 1.20943,1.81317 0.0774,0.34831 -0.1548,0.88046 0,1.20944 0.50313,0.94819 1.52873,-0.19352 2.41886,0 0.85144,0.19351 1.81317,1.47065 1.81317,2.41885 0,0.67727 -0.17415,1.76093 -0.60374,2.41886 -0.85144,1.27716 -2.40918,1.11848 -3.62829,1.81318 -1.00624,0.58052 -1.2133,2.02507 -1.81317,3.02357 -0.63858,1.08365 -1.46099,1.47067 -1.20944,3.02357 -0.87078,1.72224 -1.82865,2.7962 -3.62827,3.62829 -0.52249,0.23222 -1.33134,0.25543 -1.81318,0.60374 -0.38703,0.27092 -0.66762,1.19395 -1.20944,1.81318 -0.67728,0.75469 -1.44551,1.23459 -1.81317,1.81317 -0.27092,0.44508 -0.31543,1.23266 -0.60376,1.85188 -0.4257,0.81274 -1.27328,1.00238 -1.81317,1.81318 -0.25155,0.38702 -0.33476,1.31199 -0.60374,1.81318 -0.61923,1.12235 -1.32554,2.03668 -1.20944,3.02357 0.0968,0.92885 1.15138,0.96367 1.20944,1.81317 0.058,0.46443 -0.62309,0.70631 -0.60374,1.20944 0.0194,0.73533 0.54956,1.23458 0.60374,1.81318 0.13548,1.43196 -0.93852,2.04441 -1.20944,3.02357 -0.13548,0.46442 0.11609,0.84176 0,1.20942 -0.23219,0.71599 -1.19007,1.56743 -1.20942,2.41887 -0.0194,0.59988 1.15138,0.96367 1.20942,1.81317 0.0387,0.56118 -0.72178,1.27329 -0.60374,1.81318 0.21286,1.04495 2.21104,2.21084 3.02358,3.02357 1.103,1.10299 2.53999,1.85769 3.02357,3.02358 0.21286,0.51472 0.47409,1.17073 0.64244,1.89057 l 88.85513,0 c 0,-64.12296 -51.98204,-116.10521 -116.10521,-116.10521 z m -39.30646,28.42158 c -0.61535,3.53154 -3.92339,4.93835 -7.86129,4.83773 -0.89014,0.85144 -0.11608,2.44787 -0.60375,3.62829 -0.40637,0.98689 -2.03686,1.89251 -3.02358,1.81317 -0.71597,0 -1.81317,-1.1359 -1.81317,-1.81317 0,-0.83209 1.32361,-0.86693 0.60375,-1.81318 0.0387,-0.19351 0.40443,-0.41217 0.60374,-0.60375 0.3909,-0.25157 0.81468,-0.37153 1.20944,-0.60374 3.50637,-2.15763 7.101,-3.73957 10.88486,-5.44243 z m 81.03176,3.59056 0,0.0386 c -0.35605,0.19351 -0.29025,0.41217 -0.60374,0.60374 -0.73534,0.44507 -1.252,1.01593 -1.81317,1.20943 -0.79339,0.29026 -1.69902,0.45668 -1.81318,1.17266 -0.0967,0.59987 0.62696,0.6676 0.60374,1.20943 -0.29027,0.71598 -0.44893,0.94433 -0.60374,1.81318 0.98689,1.60612 3.01409,-0.35219 4.233,-0.60376 0.54183,-0.1935 0.91916,-0.19931 1.20943,-0.60374 0.32896,-0.52248 0.35606,-1.07784 0.60374,-1.81317 0.27092,-0.81274 1.30618,-1.0972 1.20944,-1.81318 -0.0774,-0.71599 -1.82479,-1.30618 -3.02358,-1.20943 z m -105.82505,12.13202 c 0.91723,0.73535 2.20812,2.33468 0.60374,3.02358 -0.1935,0.1935 -2.55914,0.68309 -3.02357,0.60375 -0.19351,0 -0.44119,-0.46829 -0.60374,-0.60375 1.00044,-0.96754 1.98268,-2.09473 3.02357,-3.02358 z m 3.62828,3.66602 c 0.44895,0.0386 0.67534,1.15332 1.20943,1.17073 0.52247,0 0.89982,-0.68309 1.20944,-0.60374 0.81274,0.21286 1.38165,1.81898 0.60374,2.41886 -0.63858,0.19351 -0.74501,-0.68309 -1.20944,-0.60374 -1.31585,0.23219 -2.03666,3.10096 -3.02357,3.02357 -0.92883,-0.19352 -1.55387,-2.3463 -0.60374,-3.02357 0.0194,-0.58054 -0.0386,-0.60956 0,-1.20944 0.29027,-0.34831 1.04107,-1.22879 1.81318,-1.17073 z m -4.83771,0.56699 c 0.27091,0 0.51086,-0.19351 0.60374,0 -0.13548,1.0256 -0.41604,1.33134 -1.20942,1.81318 -1.37391,0.83209 -2.5785,1.85768 -3.02358,3.62829 -0.13548,0.52247 -1.76093,1.93798 -2.41885,1.81317 -1.52873,-0.32897 0.86111,-3.18515 1.20942,-3.62829 0.38702,-0.48377 0.76436,-0.6676 1.20943,-1.20943 0.44508,-0.54182 0.78372,-1.50356 1.20943,-1.81318 0.46442,-0.32896 1.60613,-0.64244 2.41887,-0.60374 z m 131.22307,3.02358 c 1.52872,-0.19351 2.32694,1.49002 3.02357,2.41885 0.58053,0.75468 2.07539,1.89639 3.02358,2.41886 0.54181,0.29027 1.21524,0.95787 1.81317,1.20943 1.25781,0.56117 3.57024,2.38984 3.62829,3.62829 0.0194,0.61923 -0.70244,1.23458 -0.60375,1.81318 0.9482,0.19351 1.79576,-1.47067 1.81317,-2.41887 1.77835,2.51561 3.30127,5.17927 4.83773,7.8613 0.72566,1.25781 1.74931,2.32209 2.41885,3.62829 -0.85338,0.25155 -1.07204,0.39668 -1.20943,1.20942 -0.19351,1.08365 0.41605,2.832 -1.20942,3.02357 -1.0256,0.19351 -2.21588,-0.88046 -3.62829,-1.20942 -0.58053,-0.19352 -1.34875,0.19351 -1.81318,0 -1.0643,-0.34833 -0.90562,-1.78029 -1.81317,-2.41887 -0.52249,-0.36766 -2.19149,-1.13203 -3.02358,-1.20942 -0.52246,0 -0.6676,0.19351 -1.20943,0 -0.65792,-0.19351 -1.87702,0.2709 -2.41886,0 -0.52246,-0.32897 -1.67772,-1.3681 -1.81317,-1.81318 -0.21286,-0.71598 1.77641,-1.19394 1.81317,-1.81317 0.0386,-0.46443 -0.50892,-1.0972 -0.60374,-1.81318 -0.0774,-0.42572 0.0967,-0.91916 0,-1.20943 -0.13548,-0.50313 -1.02173,-0.5844 -1.81317,-0.60374 l -1.81318,0 -3.62829,0 -1.81318,0 c -1.68352,0.19351 -2.91714,-0.19351 -4.233,0 -0.94819,0 -2.73815,0.8224 -3.62829,1.20942 -0.44506,0.21286 -0.6289,0.31542 -1.20943,0.60375 -0.27091,0.19351 -0.8611,0.45088 -1.20943,0.60374 -0.54182,0.25157 -1.29263,1.01593 -1.81318,1.17267 -0.75468,0.19351 -1.65062,-0.19352 -3.02357,0 -0.98689,0 -2.3995,-0.63277 -2.41885,-1.81319 -0.0194,-1.79962 3.13504,-0.88046 4.83771,-1.20942 0.63858,-0.1935 1.04108,-0.70824 1.81317,-1.17267 0.36768,-0.21286 0.25931,-0.37153 0.60376,-0.60374 0.58052,-0.40637 1.72029,-1.34875 1.81317,-1.81317 0.0774,-0.42572 -0.058,-0.88046 0,-1.20944 0.0774,-0.40637 0.68696,-0.6676 1.20944,-1.20942 0.81273,-0.81273 1.41261,-1.89639 2.41885,-2.41885 0.67727,-0.34833 1.5055,-0.66762 1.81318,-1.20944 0.0774,-0.61923 -0.0194,-0.59021 0,-1.17073 0.42572,-0.38702 0.86111,-0.52827 1.20942,-0.60374 1.04495,-0.23221 1.80545,0 3.02357,0 0.52248,0 1.25589,0.25155 1.81318,0 0.46442,-0.30962 0.74501,-0.99658 1.20943,-1.20944 0.50313,-0.27091 1.19589,-0.56697 1.81318,-0.60374 l 0,-0.0386 z m 10.88486,11.48957 -2.41886,0 c -0.85144,0 -1.91572,-0.44507 -2.41885,0 0.71599,1.16105 2.02236,1.52485 3.62829,1.81318 0.58052,-0.42572 0.93851,-1.06043 1.20942,-1.81318 z m -132.4325,-10.88486 1.81318,0 c 0.48376,0 1.01591,-0.19351 1.20942,0 -0.30961,1.27715 -3.22675,1.07009 -4.23299,0.60374 0.058,-0.48377 0.59019,-0.52634 1.20941,-0.60374 z m -4.233,2.41886 c -0.84564,0.61923 -1.68159,1.38939 -3.02358,1.81317 -0.73532,0.23222 -1.67772,0.20898 -1.81317,-0.60375 -0.15481,-1.00625 1.15718,-0.50892 1.81317,-0.60374 0.85144,-0.19351 2.03669,-0.56505 3.02358,-0.60376 z m 125.78064,0 c -0.63858,0.21286 -0.94819,1.62159 0,1.81317 0.44507,-0.27091 0.72372,-0.98108 0.60374,-1.81317 -0.25155,-0.27092 -0.41217,-0.19351 -0.60374,0 z m -1.20944,3.02357 c 0.0194,1.08364 0.21286,2.08312 0,3.02357 0.61923,1.19976 2.10945,0.20899 2.41887,-0.60375 0.36767,-2.01249 -0.28058,-2.67042 -1.20943,-2.41886 -0.30961,0.19351 -0.8824,-0.25156 -1.20944,0 z m -160.249365,45.3536 c 1.091397,0.98689 1.718354,2.37725 3.023573,3.02357 0.483777,0.25155 1.197827,0.45087 1.813176,0.60374 0.503129,0.19351 0.725658,-0.1935 1.209435,0 1.025596,0.34831 2.211033,0.84176 3.023573,1.20944 1.238457,0.54182 2.563991,2.40434 3.628291,3.02357 0.05804,0.61923 -0.193523,1.34875 0,1.81318 0.503115,0.67727 1.002365,1.34875 1.813176,1.81317 0.986891,0.54182 1.490006,1.3894 2.418855,1.81318 0.328959,0.19351 0.706306,-0.19351 1.209421,0 1.277161,0.38701 1.919605,2.13537 3.023575,1.81317 0.71599,-0.21286 0.49152,-1.11655 0.60375,-1.81317 0.48377,-0.52248 1.06043,-1.20944 1.81318,-1.20944 1.19975,0 1.37004,1.85769 1.81317,3.02358 0.25157,0.65793 1.03527,1.11848 1.20943,1.81317 0.29026,1.19975 0.25156,4.72646 0,5.44243 -0.30961,0.89015 -1.68352,0.82823 -2.41886,1.81318 -0.34831,0.46442 -0.33476,1.52292 -0.60374,1.85188 -0.46443,0.56118 -0.86111,0.64826 -1.20944,1.17073 -0.1935,0.29027 -0.43152,0.82242 -0.60374,1.20943 -0.58052,1.23846 -1.69319,2.13827 -1.20943,3.62828 0.19351,0.59987 1.20943,1.09914 1.20943,1.81317 0,0.85145 -1.67772,1.49003 -1.81317,2.41888 -0.0967,0.67727 0.39476,1.50935 0.60374,2.41885 0.1548,0.67729 1.40681,1.37004 1.81317,1.81318 0.67729,0.75468 1.19783,2.0657 1.81318,3.02357 1.2191,1.87704 1.82478,4.20881 3.02357,6.04715 0.63858,0.94818 1.99315,1.41261 2.41886,2.41885 0.21286,0.50313 -0.19351,1.34875 0,1.81318 0.69664,1.56741 3.87521,3.4609 5.44244,4.23301 0.73533,0.36766 1.74157,0.21866 2.41886,0.60374 1.02559,0.58052 3.106,2.12182 3.62828,3.02357 0.46441,0.81274 0.37541,2.93843 0.60374,4.23301 0.29027,1.70286 -0.0774,2.99744 0,4.83771 0.0581,1.00624 0.60376,1.41261 0.60376,2.41885 0,0.34833 0.0194,1.44552 0,1.81318 -0.0194,1.19975 0.0967,2.40919 0,3.62829 -0.058,0.65793 -0.0386,1.29071 0,1.85188 0.058,0.59988 0.56892,0.64825 0.60374,1.17073 0.0386,0.56117 -0.66374,1.37004 -0.60374,1.81318 0.13548,1.2191 0.97721,1.89639 1.20942,3.02357 0.19351,0.89013 0.72179,3.16871 0.60376,4.23299 -0.0774,0.56119 -0.52635,1.2133 -0.60376,1.85188 -0.058,0.50313 0.0774,0.7276 0,1.17074 -0.058,0.44507 0.11608,0.84175 0,1.20943 -0.61729,-0.38703 -1.2075,-0.80307 -1.81318,-1.20943 -5.14732,-3.4793 -10.13578,-7.71713 -14.51314,-12.0943 -0.59213,-0.59987 -1.23652,-1.19395 -1.81318,-1.81317 -3.49438,-3.67861 -6.789446,-7.90097 -9.675433,-12.0943 -0.261233,-0.38701 -0.348311,-0.84175 -0.60374,-1.20943 -3.348668,-5.01767 -6.089535,-10.10308 -8.466002,-15.72257 -0.174171,-0.40637 -0.439269,-0.76436 -0.603756,-1.17073 -2.039192,-5.01188 -3.655958,-10.33337 -4.837711,-15.72258 -0.222544,-1.0256 -0.414112,-1.99604 -0.603755,-3.02358 -0.479898,-2.58527 -0.940443,-5.20827 -1.20942,-7.86128 -0.330899,-3.2674 -0.603756,-6.36064 -0.603756,-9.7006 0,-4.59777 0.588268,-8.87623 1.209436,-13.30371 z m 37.492315,10.28014 c 0.92883,-0.42572 0.75468,1.09332 0,1.20944 -0.71599,0.1935 -0.69664,-0.86113 0,-1.20944 z"
         style="color:#000000;fill:#ffb800;fill-opacity:1;fill-rule:nonzero"
         inkscape:connector-curvature="0" />
      <path
         id="rect4155"
         d="m 195.45608,834.32519 0,77.40347 19.35086,0 19.35087,0 0,19.35088 58.0526,0 0,-38.70174 -58.0526,0 -19.35087,0 0,-19.35087 19.35087,0 58.0526,0 0,-38.70174 -58.0526,0 0,19.35088 -19.35087,0 0,-19.35088 -19.35086,0 z"
         style="fill:#ffb800;fill-opacity:1;fill-rule:evenodd;stroke:none"
         inkscape:connector-curvature="0" />
    </g>
  </g>
</svg>
