<?xml version="1.0" encoding="UTF-8" standalone="no"?>
<!-- Created with Inkscape (http://www.inkscape.org/) -->

<svg
   xmlns:dc="http://purl.org/dc/elements/1.1/"
   xmlns:cc="http://creativecommons.org/ns#"
   xmlns:rdf="http://www.w3.org/1999/02/22-rdf-syntax-ns#"
   xmlns:svg="http://www.w3.org/2000/svg"
   xmlns="http://www.w3.org/2000/svg"
   xmlns:sodipodi="http://sodipodi.sourceforge.net/DTD/sodipodi-0.dtd"
   xmlns:inkscape="http://www.inkscape.org/namespaces/inkscape"
   width="512"
   height="512"
   id="svg2"
   version="1.1"
   inkscape:version="0.91 r13725"
   sodipodi:docname="folder-image.svg">
  <defs
     id="defs4" />
  <sodipodi:namedview
     id="base"
     pagecolor="#ffffff"
     bordercolor="#666666"
     borderopacity="1.0"
     inkscape:pageopacity="0.0"
     inkscape:pageshadow="2"
     inkscape:zoom="0.49497475"
     inkscape:cx="352.34104"
     inkscape:cy="231.71606"
     inkscape:document-units="px"
     inkscape:current-layer="layer1"
     showgrid="false"
     inkscape:window-width="1366"
     inkscape:window-height="715"
     inkscape:window-x="0"
     inkscape:window-y="24"
     inkscape:window-maximized="1" />
  <metadata
     id="metadata7">
    <rdf:RDF>
      <cc:Work
         rdf:about="">
        <dc:format>image/svg+xml</dc:format>
        <dc:type
           rdf:resource="http://purl.org/dc/dcmitype/StillImage" />
        <dc:title />
      </cc:Work>
    </rdf:RDF>
  </metadata>
  <g
     inkscape:label="Layer 1"
     inkscape:groupmode="layer"
     id="layer1"
     transform="translate(0,-540.36218)">
    <g
       id="g4166">
      <g
         id="g4408"
         transform="translate(1.37e-4,-3.812793e-4)">
        <path
           style="opacity:1;fill:#ffb800;fill-opacity:1;stroke:none;stroke-width:0.5;stroke-linecap:round;stroke-miterlimit:4;stroke-dasharray:none;stroke-opacity:1"
           d="m 36.290833,615.0068 123.370707,0 29.62974,33.73269 284.91693,0 c 10.83509,0 19.55792,8.72283 19.55792,19.55792 l 0,275.84102 c 0,10.83509 -8.72283,19.55792 -19.55792,19.55792 l -437.917377,0 c -10.835093,0 -19.557923,-8.72283 -19.557923,-19.55792 l 0,-312.25461 c 0,-10.8351 4.892394,-16.68116 19.557923,-16.87702 z"
           id="rect4150"
           inkscape:connector-curvature="0"
           sodipodi:nodetypes="sccssssssss" />
        <rect
           style="opacity:1;fill:#faec6d;fill-opacity:1;stroke:none;stroke-width:0.5;stroke-linecap:round;stroke-miterlimit:4;stroke-dasharray:none;stroke-opacity:1"
           id="rect3348"
           width="477.03323"
           height="314.95688"
           x="16.732897"
           y="676.04968"
           ry="19.557924" />
        <path
           inkscape:connector-curvature="0"
           style="opacity:1;fill:#ffb800;fill-opacity:1;stroke:none;stroke-width:0.5;stroke-linecap:round;stroke-miterlimit:4;stroke-dasharray:none;stroke-opacity:1"
           d="m 16.731863,967.31163 0,3.87673 477.030487,0 0,-3.87673 -477.030487,0 z"
           id="rect4153" />
        <path
           id="path4159"
           d="m 16.731863,960.49069 0,3.87674 477.030487,0 0,-3.87674 -477.030487,0 z"
           style="opacity:1;fill:#ffb800;fill-opacity:1;stroke:none;stroke-width:0.5;stroke-linecap:round;stroke-miterlimit:4;stroke-dasharray:none;stroke-opacity:1"
           inkscape:connector-curvature="0" />
      </g>
      <g
         transform="matrix(0.64766219,0,0,0.64766219,-176.35089,239.37549)"
         id="g4153">
        <rect
           style="fill:#00bbf2;fill-opacity:1;stroke:#ffffff;stroke-width:11.18132782;stroke-linecap:round;stroke-linejoin:round;stroke-miterlimit:4;stroke-dasharray:none;stroke-opacity:1"
           id="rect2997-3-3"
           width="346.08871"
           height="287.51987"
           x="388.77884"
           y="760.28442"
           transform="matrix(0.99991031,-0.01339323,0.01339323,0.99991031,0,0)" />
        <rect
           style="fill:#ffcc00;fill-opacity:1;stroke:#ffffff;stroke-width:11.18132782;stroke-linecap:round;stroke-linejoin:round;stroke-miterlimit:4;stroke-dasharray:none;stroke-opacity:1"
           id="rect2997-6"
           width="346.08871"
           height="287.5199"
           x="-51.861111"
           y="919.41827"
           transform="matrix(0.89137186,-0.45327278,0.45327278,0.89137186,0,0)" />
        <path
           sodipodi:type="arc"
           style="fill:#ffffff;fill-opacity:1;stroke:none"
           id="path3767-7"
           sodipodi:cx="22.015524"
           sodipodi:cy="1003.2781"
           sodipodi:rx="35.274429"
           sodipodi:ry="34.608871"
           d="m 57.289953,1003.2781 a 35.274429,34.608871 0 0 1 -35.233027,34.6088 35.274429,34.608871 0 0 1 -35.315734,-34.5276 35.274429,34.608871 0 0 1 35.150125,-34.68988 35.274429,34.608871 0 0 1 35.398247,34.44618"
           transform="matrix(0.89137185,-0.45327279,0.45327277,0.89137186,0,0)"
           sodipodi:start="0"
           sodipodi:end="6.2784904"
           sodipodi:open="true" />
        <path
           style="fill:#c87137;fill-opacity:1;stroke:none;stroke-width:0.46588865px;stroke-linecap:butt;stroke-linejoin:miter;stroke-opacity:1"
           d="m 455.15222,997.18763 47.79051,95.01937 299.30696,-152.72892 -40.72958,-78.01912 c 0,0 -34.58295,36.64635 -73.53231,50.59127 -38.94934,13.94493 -118.57958,-4.55609 -158.39379,13.49272 -39.81417,18.04883 -74.44179,71.64468 -74.44179,71.64468 z"
           id="path3787-5"
           inkscape:connector-curvature="0"
           sodipodi:nodetypes="cccczzc" />
      </g>
    </g>
  </g>
</svg>
