<?xml version="1.0" encoding="UTF-8" standalone="no"?>
<!-- Created with Inkscape (http://www.inkscape.org/) -->

<svg
   xmlns:dc="http://purl.org/dc/elements/1.1/"
   xmlns:cc="http://creativecommons.org/ns#"
   xmlns:rdf="http://www.w3.org/1999/02/22-rdf-syntax-ns#"
   xmlns:svg="http://www.w3.org/2000/svg"
   xmlns="http://www.w3.org/2000/svg"
   xmlns:sodipodi="http://sodipodi.sourceforge.net/DTD/sodipodi-0.dtd"
   xmlns:inkscape="http://www.inkscape.org/namespaces/inkscape"
   width="512"
   height="512"
   id="svg2"
   version="1.1"
   inkscape:version="0.91 r13725"
   sodipodi:docname="folder-public.svg">
  <defs
     id="defs4" />
  <sodipodi:namedview
     id="base"
     pagecolor="#ffffff"
     bordercolor="#666666"
     borderopacity="1.0"
     inkscape:pageopacity="0.0"
     inkscape:pageshadow="2"
     inkscape:zoom="0.35000001"
     inkscape:cx="879.94085"
     inkscape:cy="-92.091253"
     inkscape:document-units="px"
     inkscape:current-layer="layer1"
     showgrid="false"
     inkscape:window-width="1366"
     inkscape:window-height="715"
     inkscape:window-x="0"
     inkscape:window-y="24"
     inkscape:window-maximized="1" />
  <metadata
     id="metadata7">
    <rdf:RDF>
      <cc:Work
         rdf:about="">
        <dc:format>image/svg+xml</dc:format>
        <dc:type
           rdf:resource="http://purl.org/dc/dcmitype/StillImage" />
        <dc:title />
      </cc:Work>
    </rdf:RDF>
  </metadata>
  <g
     inkscape:label="Layer 1"
     inkscape:groupmode="layer"
     id="layer1"
     transform="translate(0,-540.36218)">
    <g
       id="g4155">
      <path
         sodipodi:nodetypes="cccccsssscc"
         inkscape:connector-curvature="0"
         id="rect4150"
         d="m 36.29097,615.00618 123.37071,2.4e-4 29.62974,33.73269 284.91693,7e-5 19.55792,0 0,295.39887 c 0,10.83509 -8.72283,19.55792 -19.55792,19.55792 l -437.91738,0 c -10.835093,0 -19.557923,-8.72283 -19.557923,-19.55792 l 0,-329.13187 z"
         style="opacity:1;fill:#ffb800;fill-opacity:1;stroke:none;stroke-width:0.5;stroke-linecap:round;stroke-miterlimit:4;stroke-dasharray:none;stroke-opacity:1" />
      <path
         id="rect3348"
         d="m 16.733034,676.04932 477.033236,0 0,314.95688 -477.033236,0 z"
         style="opacity:1;fill:#faec6d;fill-opacity:1;stroke:none;stroke-width:0.5;stroke-linecap:round;stroke-miterlimit:4;stroke-dasharray:none;stroke-opacity:1" />
      <path
         id="rect4153"
         d="m 16.732,967.31125 0,3.87673 477.03049,0 0,-3.87673 -477.03049,0 z"
         style="opacity:1;fill:#ffb800;fill-opacity:1;stroke:none;stroke-width:0.5;stroke-linecap:round;stroke-miterlimit:4;stroke-dasharray:none;stroke-opacity:1"
         inkscape:connector-curvature="0" />
      <path
         inkscape:connector-curvature="0"
         style="opacity:1;fill:#ffb800;fill-opacity:1;stroke:none;stroke-width:0.5;stroke-linecap:round;stroke-miterlimit:4;stroke-dasharray:none;stroke-opacity:1"
         d="m 16.732,960.49031 0,3.87674 477.03049,0 0,-3.87674 -477.03049,0 z"
         id="path4159" />
      <rect
         transform="matrix(0.68145507,0.73185995,-0.73185995,0.68145507,0,0)"
         ry="10.526136"
         rx="11.673137"
         y="341.38211"
         x="641.15485"
         height="169.73393"
         width="169.73393"
         id="rect2988"
         style="fill:none;fill-opacity:1;stroke:#ffb800;stroke-width:14.95042229;stroke-miterlimit:4;stroke-dasharray:none;stroke-opacity:1" />
      <path
         sodipodi:nodetypes="zccczcccccczcccccczcccccczcccz"
         inkscape:connector-curvature="0"
         id="path3758"
         d="m 179.71088,781.55089 c -8.1887,1.14428 -12.76405,10.01311 -12.76405,10.01311 l -9.38744,13.09731 -14.37995,7.80921 c 0,0 -3.58302,1.59662 -2.42077,4.84149 1.16226,3.24487 3.96125,2.42077 3.96125,2.42077 l 16.72518,-6.82213 8.8028,-8.58267 7.92249,25.08781 -15.40479,17.82556 0,36.75145 c 0,0 0.68213,4.21796 4.62144,4.18129 3.93918,-0.0367 5.28163,-3.30102 5.28163,-3.30102 l 1.76057,-32.13001 11.97754,-9.75893 3.42344,0 4.27934,12.99359 14.87043,28.23514 c 0,0 3.12496,3.41101 6.82211,1.32042 3.69715,-2.09059 3.08097,-5.94186 3.08097,-5.94186 l -14.08443,-26.84836 -1.10027,-27.72864 -5.72184,-26.40822 7.26231,2.20069 5.06153,16.28506 c 0,0 1.61849,4.26167 5.03712,3.20757 3.41876,-1.05408 2.66528,-5.18818 2.66528,-5.18818 l -5.28163,-20.46637 -19.14594,-11.00345 c 0,0 -5.67563,-3.23491 -13.86432,-2.09063 z"
         style="fill:#ffb800;fill-opacity:1;stroke:none" />
      <path
         sodipodi:open="true"
         sodipodi:end="6.2784904"
         sodipodi:start="0"
         d="m 191.44353,766.84082 a 11.663634,11.443564 0 0 1 -11.64995,11.44356 11.663634,11.443564 0 0 1 -11.67729,-11.4167 11.663634,11.443564 0 0 1 11.62253,-11.47035 11.663634,11.443564 0 0 1 11.70458,11.38976"
         sodipodi:ry="11.443564"
         sodipodi:rx="11.663634"
         sodipodi:cy="766.84082"
         sodipodi:cx="179.77989"
         id="path3760"
         style="fill:#ffb800;fill-opacity:1;stroke:none"
         sodipodi:type="arc" />
    </g>
  </g>
</svg>
