<?xml version="1.0" encoding="UTF-8" standalone="no"?>
<!-- Created with Inkscape (http://www.inkscape.org/) -->

<svg
   xmlns:dc="http://purl.org/dc/elements/1.1/"
   xmlns:cc="http://creativecommons.org/ns#"
   xmlns:rdf="http://www.w3.org/1999/02/22-rdf-syntax-ns#"
   xmlns:svg="http://www.w3.org/2000/svg"
   xmlns="http://www.w3.org/2000/svg"
   xmlns:sodipodi="http://sodipodi.sourceforge.net/DTD/sodipodi-0.dtd"
   xmlns:inkscape="http://www.inkscape.org/namespaces/inkscape"
   width="512"
   height="512"
   id="svg2"
   version="1.1"
   inkscape:version="0.91 r13725"
   sodipodi:docname="folder-publicshare.svg">
  <defs
     id="defs4" />
  <sodipodi:namedview
     id="base"
     pagecolor="#ffffff"
     bordercolor="#666666"
     borderopacity="1.0"
     inkscape:pageopacity="0.0"
     inkscape:pageshadow="2"
     inkscape:zoom="0.49497474"
     inkscape:cx="726.02785"
     inkscape:cy="215.7324"
     inkscape:document-units="px"
     inkscape:current-layer="layer1"
     showgrid="false"
     inkscape:window-width="1366"
     inkscape:window-height="715"
     inkscape:window-x="0"
     inkscape:window-y="24"
     inkscape:window-maximized="1" />
  <metadata
     id="metadata7">
    <rdf:RDF>
      <cc:Work
         rdf:about="">
        <dc:format>image/svg+xml</dc:format>
        <dc:type
           rdf:resource="http://purl.org/dc/dcmitype/StillImage" />
        <dc:title />
      </cc:Work>
    </rdf:RDF>
  </metadata>
  <g
     inkscape:label="Layer 1"
     inkscape:groupmode="layer"
     id="layer1"
     transform="translate(0,-540.36218)">
    <g
       id="g4163">
      <path
         sodipodi:nodetypes="cccccsssscc"
         inkscape:connector-curvature="0"
         id="rect4150"
         d="m 36.29097,615.00618 123.37071,2.4e-4 29.62974,33.73276 284.91693,0 19.55792,0 0,295.39887 c 0,10.83509 -8.72283,19.55792 -19.55792,19.55792 l -437.91738,0 c -10.835093,0 -19.557923,-8.72283 -19.557923,-19.55792 l 0,-329.13187 z"
         style="opacity:1;fill:#ffb800;fill-opacity:1;stroke:none;stroke-width:0.5;stroke-linecap:round;stroke-miterlimit:4;stroke-dasharray:none;stroke-opacity:1" />
      <path
         id="rect3348"
         d="m 16.733034,676.04932 477.033236,0 0,314.95688 -477.033236,0 z"
         style="opacity:1;fill:#faec6d;fill-opacity:1;stroke:none;stroke-width:0.5;stroke-linecap:round;stroke-miterlimit:4;stroke-dasharray:none;stroke-opacity:1" />
      <path
         id="rect4153"
         d="m 16.732,967.31125 0,3.87673 477.03049,0 0,-3.87673 -477.03049,0 z"
         style="opacity:1;fill:#ffb800;fill-opacity:1;stroke:none;stroke-width:0.5;stroke-linecap:round;stroke-miterlimit:4;stroke-dasharray:none;stroke-opacity:1"
         inkscape:connector-curvature="0" />
      <path
         inkscape:connector-curvature="0"
         style="opacity:1;fill:#ffb800;fill-opacity:1;stroke:none;stroke-width:0.5;stroke-linecap:round;stroke-miterlimit:4;stroke-dasharray:none;stroke-opacity:1"
         d="m 16.732,960.49031 0,3.87674 477.03049,0 0,-3.87674 -477.03049,0 z"
         id="path4159" />
      <rect
         transform="matrix(0.68145507,0.73185995,-0.73185995,0.68145507,0,0)"
         ry="10.254123"
         rx="11.371483"
         y="345.09756"
         x="640.32629"
         height="165.3477"
         width="165.3477"
         id="rect2988"
         style="fill:none;fill-opacity:1;stroke:#ffb800;stroke-width:14.56407833;stroke-miterlimit:4;stroke-dasharray:none;stroke-opacity:1" />
      <path
         sodipodi:nodetypes="zccczcccccccczcccz"
         inkscape:connector-curvature="0"
         id="path3758"
         d="m 180.44595,835.29767 c -8.13662,0.15756 -10.99847,3.05431 -10.99847,3.05431 l -15.84491,13.0779 -2.20349,18.29557 c 0,0 -0.7785,4.2673 3.54422,5.03544 4.32271,0.76814 4.49698,-3.22516 4.49698,-3.22516 l 2.57381,-17.33402 7.29912,-2.61798 -0.41802,29.22526 26.78259,-0.13999 -1.26679,-29.39486 7.07464,2.14382 4.93072,15.86423 c 0,0 1.57667,4.15154 4.90696,3.12468 3.33041,-1.02684 2.5964,-5.05411 2.5964,-5.05411 l -5.14515,-19.93749 -18.65117,-10.71909 c 0,0 -1.54082,-1.55607 -9.67744,-1.39851 z"
         style="fill:#ffb800;fill-opacity:1;stroke:none" />
      <path
         sodipodi:open="true"
         sodipodi:end="6.2784904"
         sodipodi:start="0"
         d="m 190.30281,821.23199 a 11.362226,11.147842 0 0 1 -11.34889,11.14784 11.362226,11.147842 0 0 1 -11.37553,-11.12167 11.362226,11.147842 0 0 1 11.32218,-11.17394 11.362226,11.147842 0 0 1 11.40211,11.09544"
         sodipodi:ry="11.147842"
         sodipodi:rx="11.362226"
         sodipodi:cy="821.23199"
         sodipodi:cx="178.94058"
         id="path3760"
         style="fill:#ffb800;fill-opacity:1;stroke:none"
         sodipodi:type="arc" />
      <path
         sodipodi:nodetypes="zccczcccccccczcccz"
         inkscape:connector-curvature="0"
         id="path3758-3"
         d="m 230.25353,802.94773 c -7.9771,1.11471 -12.43421,9.75436 -12.43421,9.75436 l -9.14486,12.75885 -14.00833,7.6074 c 0,0 -3.49044,1.55537 -2.35822,4.71638 1.13222,3.16102 3.85888,2.35822 3.85888,2.35822 l 16.29297,-6.64584 8.57532,-8.36088 7.71777,24.4395 c 0,0 24.06154,-3.58681 24.86828,-4.28763 l -5.57397,-25.72579 7.07464,2.14382 4.93072,15.86423 c 0,0 1.57667,4.15154 4.90696,3.12468 3.33041,-1.02684 2.59641,-5.05411 2.59641,-5.05411 l -5.14515,-19.93748 -18.65117,-10.7191 c 0,0 -5.52896,-3.15132 -13.50604,-2.03661 z"
         style="fill:#ffb800;fill-opacity:1;stroke:none" />
      <path
         sodipodi:open="true"
         sodipodi:end="6.2784904"
         sodipodi:start="0"
         d="m 241.68292,788.6178 a 11.362226,11.147842 0 0 1 -11.34889,11.14783 11.362226,11.147842 0 0 1 -11.37553,-11.12166 11.362226,11.147842 0 0 1 11.32219,-11.17395 11.362226,11.147842 0 0 1 11.4021,11.09544"
         sodipodi:ry="11.147842"
         sodipodi:rx="11.362226"
         sodipodi:cy="788.6178"
         sodipodi:cx="230.32069"
         id="path3760-6"
         style="fill:#ffb800;fill-opacity:1;stroke:none"
         sodipodi:type="arc" />
      <path
         sodipodi:nodetypes="zccczcccccccczcccz"
         inkscape:connector-curvature="0"
         id="path3758-7"
         d="m 131.54148,802.49653 c 7.9771,1.11471 12.43421,9.75436 12.43421,9.75436 l 9.14486,12.75885 14.00834,7.6074 c 0,0 3.49044,1.55537 2.35822,4.71638 -1.13222,3.16102 -3.85889,2.35822 -3.85889,2.35822 l -16.29297,-6.64584 -8.57532,-8.36088 -7.71777,24.4395 c 0,0 -24.06154,-3.58681 -24.86828,-4.28763 l 5.57397,-25.72579 -7.07464,2.14382 -4.93073,15.86423 c 0,0 -1.57666,4.15154 -4.906954,3.12468 -3.330409,-1.02684 -2.596405,-5.05411 -2.596405,-5.05411 l 5.14515,-19.93748 18.651169,-10.7191 c 0,0 5.52896,-3.15132 13.50604,-2.03661 z"
         style="fill:#ffb800;fill-opacity:1;stroke:none" />
      <path
         sodipodi:open="true"
         sodipodi:end="6.2784904"
         sodipodi:start="0"
         transform="scale(-1,1)"
         d="m -120.11203,788.16656 a 11.362226,11.147842 0 0 1 -11.34889,11.14784 11.362226,11.147842 0 0 1 -11.37553,-11.12167 11.362226,11.147842 0 0 1 11.32218,-11.17394 11.362226,11.147842 0 0 1 11.40211,11.09544"
         sodipodi:ry="11.147842"
         sodipodi:rx="11.362226"
         sodipodi:cy="788.16656"
         sodipodi:cx="-131.47426"
         id="path3760-5"
         style="fill:#ffb800;fill-opacity:1;stroke:none"
         sodipodi:type="arc" />
    </g>
  </g>
</svg>
