<?xml version="1.0" encoding="UTF-8" standalone="no"?>
<!-- Created with Inkscape (http://www.inkscape.org/) -->

<svg
   xmlns:dc="http://purl.org/dc/elements/1.1/"
   xmlns:cc="http://creativecommons.org/ns#"
   xmlns:rdf="http://www.w3.org/1999/02/22-rdf-syntax-ns#"
   xmlns:svg="http://www.w3.org/2000/svg"
   xmlns="http://www.w3.org/2000/svg"
   xmlns:sodipodi="http://sodipodi.sourceforge.net/DTD/sodipodi-0.dtd"
   xmlns:inkscape="http://www.inkscape.org/namespaces/inkscape"
   width="512"
   height="512"
   id="svg2"
   version="1.1"
   inkscape:version="0.91 r13725"
   sodipodi:docname="folder-publicshare.svg">
  <defs
     id="defs4" />
  <sodipodi:namedview
     id="base"
     pagecolor="#ffffff"
     bordercolor="#666666"
     borderopacity="1.0"
     inkscape:pageopacity="0.0"
     inkscape:pageshadow="2"
     inkscape:zoom="0.24748737"
     inkscape:cx="-142.53846"
     inkscape:cy="618.45879"
     inkscape:document-units="px"
     inkscape:current-layer="layer1"
     showgrid="false"
     inkscape:window-width="1366"
     inkscape:window-height="715"
     inkscape:window-x="0"
     inkscape:window-y="24"
     inkscape:window-maximized="1" />
  <metadata
     id="metadata7">
    <rdf:RDF>
      <cc:Work
         rdf:about="">
        <dc:format>image/svg+xml</dc:format>
        <dc:type
           rdf:resource="http://purl.org/dc/dcmitype/StillImage" />
        <dc:title />
      </cc:Work>
    </rdf:RDF>
  </metadata>
  <g
     inkscape:label="Layer 1"
     inkscape:groupmode="layer"
     id="layer1"
     transform="translate(0,-540.36218)">
    <g
       id="g4179">
      <g
         id="g4408"
         transform="translate(1.37e-4,-3.812793e-4)">
        <path
           style="opacity:1;fill:#ffb800;fill-opacity:1;stroke:none;stroke-width:0.5;stroke-linecap:round;stroke-miterlimit:4;stroke-dasharray:none;stroke-opacity:1"
           d="m 36.290833,615.0068 123.370707,0 29.62974,33.73269 284.91693,0 c 10.83509,0 19.55792,8.72283 19.55792,19.55792 l 0,275.84102 c 0,10.83509 -8.72283,19.55792 -19.55792,19.55792 l -437.917377,0 c -10.835093,0 -19.557923,-8.72283 -19.557923,-19.55792 l 0,-312.25461 c 0,-10.8351 4.892394,-16.68116 19.557923,-16.87702 z"
           id="rect4150"
           inkscape:connector-curvature="0"
           sodipodi:nodetypes="sccssssssss" />
        <rect
           style="opacity:1;fill:#faec6d;fill-opacity:1;stroke:none;stroke-width:0.5;stroke-linecap:round;stroke-miterlimit:4;stroke-dasharray:none;stroke-opacity:1"
           id="rect3348"
           width="477.03323"
           height="314.95688"
           x="16.732897"
           y="676.04968"
           ry="19.557924" />
        <path
           inkscape:connector-curvature="0"
           style="opacity:1;fill:#ffb800;fill-opacity:1;stroke:none;stroke-width:0.5;stroke-linecap:round;stroke-miterlimit:4;stroke-dasharray:none;stroke-opacity:1"
           d="m 16.731863,967.31163 0,3.87673 477.030487,0 0,-3.87673 -477.030487,0 z"
           id="rect4153" />
        <path
           id="path4159"
           d="m 16.731863,960.49069 0,3.87674 477.030487,0 0,-3.87674 -477.030487,0 z"
           style="opacity:1;fill:#ffb800;fill-opacity:1;stroke:none;stroke-width:0.5;stroke-linecap:round;stroke-miterlimit:4;stroke-dasharray:none;stroke-opacity:1"
           inkscape:connector-curvature="0" />
      </g>
      <g
         transform="matrix(0.89334055,0,0,0.89334055,-138.78132,42.606935)"
         id="g4170">
        <rect
           style="fill:#ffcc00;fill-opacity:1;stroke:#394050;stroke-width:16.30294037;stroke-miterlimit:4;stroke-dasharray:none;stroke-opacity:1"
           id="rect2988"
           width="185.08922"
           height="185.08922"
           x="787.73676"
           y="240.10368"
           rx="12.729169"
           ry="11.478403"
           transform="matrix(0.68145507,0.73185996,-0.73185996,0.68145507,0,0)" />
        <path
           style="fill:#394050;stroke:none"
           d="m 357.34107,887.33321 c -9.10808,0.17637 -12.31162,3.41897 -12.31162,3.41897 l -17.7367,14.63932 -2.46657,20.47996 c 0,0 -0.87145,4.77679 3.96738,5.63664 4.83882,0.85985 5.03389,-3.61023 5.03389,-3.61023 l 2.88111,-19.4036 8.17059,-2.93055 -0.46793,32.71458 29.98027,-0.1567 -1.41804,-32.90443 7.91931,2.39978 5.51942,17.75832 c 0,0 1.76491,4.64721 5.49282,3.49775 3.72804,-1.14944 2.9064,-5.65754 2.9064,-5.65754 l -5.75945,-22.3179 -20.87801,-11.99889 c 0,0 -1.72479,-1.74185 -10.83287,-1.56548 z"
           id="path3758"
           inkscape:connector-curvature="0"
           sodipodi:nodetypes="zccczcccccccczcccz" />
        <path
           sodipodi:type="arc"
           style="fill:#394050;fill-opacity:1;stroke:none"
           id="path3760"
           sodipodi:cx="355.65598"
           sodipodi:cy="871.5882"
           sodipodi:rx="12.718806"
           sodipodi:ry="12.478827"
           d="m 368.37478,871.5882 a 12.718806,12.478827 0 0 1 -12.70388,12.47881 12.718806,12.478827 0 0 1 -12.7337,-12.44952 12.718806,12.478827 0 0 1 12.67399,-12.50804 12.718806,12.478827 0 0 1 12.76345,12.42016"
           sodipodi:start="0"
           sodipodi:end="6.2784904"
           sodipodi:open="true" />
        <path
           style="fill:#394050;stroke:none"
           d="m 413.09537,851.12088 c -8.92951,1.2478 -13.91877,10.91897 -13.91877,10.91897 l -10.2367,14.28218 -15.68085,8.51568 c 0,0 -3.90717,1.74107 -2.63977,5.27949 1.2674,3.53842 4.31961,2.63977 4.31961,2.63977 l 18.23825,-7.43931 9.59916,-9.35912 8.63922,27.35743 c 0,0 26.93435,-4.01505 27.83741,-4.79955 l -6.23947,-28.79729 7.91931,2.39978 5.51942,17.75832 c 0,0 1.76491,4.64721 5.49282,3.49775 3.72804,-1.14944 2.9064,-5.65754 2.9064,-5.65754 l -5.75945,-22.3179 -20.87801,-11.99889 c 0,0 -6.18908,-3.52757 -15.11858,-2.27977 z"
           id="path3758-3"
           inkscape:connector-curvature="0"
           sodipodi:nodetypes="zccczcccccccczcccz" />
        <path
           sodipodi:type="arc"
           style="fill:#394050;fill-opacity:1;stroke:none"
           id="path3760-6"
           sodipodi:cx="413.17056"
           sodipodi:cy="835.08002"
           sodipodi:rx="12.718806"
           sodipodi:ry="12.478827"
           d="m 425.88937,835.08002 a 12.718806,12.478827 0 0 1 -12.70388,12.47882 12.718806,12.478827 0 0 1 -12.7337,-12.44953 12.718806,12.478827 0 0 1 12.67399,-12.50804 12.718806,12.478827 0 0 1 12.76345,12.42016"
           sodipodi:start="0"
           sodipodi:end="6.2784904"
           sodipodi:open="true" />
        <path
           style="fill:#394050;stroke:none"
           d="m 302.59771,850.61581 c 8.92951,1.2478 13.91877,10.91897 13.91877,10.91897 l 10.2367,14.28218 15.68086,8.51568 c 0,0 3.90717,1.74107 2.63977,5.27949 -1.2674,3.53842 -4.31961,2.63977 -4.31961,2.63977 l -18.23826,-7.43931 -9.59916,-9.35912 -8.63922,27.35743 c 0,0 -26.93435,-4.01505 -27.83741,-4.79955 l 6.23947,-28.79729 -7.91931,2.39978 -5.51942,17.75832 c 0,0 -1.76491,4.64721 -5.49282,3.49775 -3.72804,-1.14944 -2.9064,-5.65754 -2.9064,-5.65754 l 5.75945,-22.3179 20.87801,-11.99889 c 0,0 6.18908,-3.52757 15.11858,-2.27977 z"
           id="path3758-7"
           inkscape:connector-curvature="0"
           sodipodi:nodetypes="zccczcccccccczcccz" />
        <path
           sodipodi:type="arc"
           style="fill:#394050;fill-opacity:1;stroke:none"
           id="path3760-5"
           sodipodi:cx="-302.52246"
           sodipodi:cy="834.57495"
           sodipodi:rx="12.718806"
           sodipodi:ry="12.478827"
           d="m -289.80365,834.57495 a 12.718806,12.478827 0 0 1 -12.70388,12.47882 12.718806,12.478827 0 0 1 -12.7337,-12.44953 12.718806,12.478827 0 0 1 12.67398,-12.50804 12.718806,12.478827 0 0 1 12.76346,12.42016"
           transform="scale(-1,1)"
           sodipodi:start="0"
           sodipodi:end="6.2784904"
           sodipodi:open="true" />
      </g>
    </g>
  </g>
</svg>
