<?xml version="1.0" encoding="UTF-8" standalone="no"?>
<!-- Created with Inkscape (http://www.inkscape.org/) -->

<svg
   xmlns:dc="http://purl.org/dc/elements/1.1/"
   xmlns:cc="http://creativecommons.org/ns#"
   xmlns:rdf="http://www.w3.org/1999/02/22-rdf-syntax-ns#"
   xmlns:svg="http://www.w3.org/2000/svg"
   xmlns="http://www.w3.org/2000/svg"
   xmlns:sodipodi="http://sodipodi.sourceforge.net/DTD/sodipodi-0.dtd"
   xmlns:inkscape="http://www.inkscape.org/namespaces/inkscape"
   width="512"
   height="512"
   id="svg2"
   version="1.1"
   inkscape:version="0.91 r13725"
   sodipodi:docname="folder-important.svg">
  <defs
     id="defs4" />
  <sodipodi:namedview
     id="base"
     pagecolor="#ffffff"
     bordercolor="#666666"
     borderopacity="1.0"
     inkscape:pageopacity="0.0"
     inkscape:pageshadow="2"
     inkscape:zoom="0.35"
     inkscape:cx="886.69389"
     inkscape:cy="-33.688463"
     inkscape:document-units="px"
     inkscape:current-layer="layer1"
     showgrid="false"
     inkscape:window-width="1366"
     inkscape:window-height="715"
     inkscape:window-x="0"
     inkscape:window-y="24"
     inkscape:window-maximized="1" />
  <metadata
     id="metadata7">
    <rdf:RDF>
      <cc:Work
         rdf:about="">
        <dc:format>image/svg+xml</dc:format>
        <dc:type
           rdf:resource="http://purl.org/dc/dcmitype/StillImage" />
        <dc:title />
      </cc:Work>
    </rdf:RDF>
  </metadata>
  <g
     inkscape:label="Layer 1"
     inkscape:groupmode="layer"
     id="layer1"
     transform="translate(0,-540.36218)">
    <g
       id="g4155">
      <path
         sodipodi:nodetypes="cccccsssscc"
         inkscape:connector-curvature="0"
         id="rect4150"
         d="m 36.29097,615.00618 123.37071,2.4e-4 29.62974,33.73269 284.91693,7e-5 19.55792,0 0,295.39887 c 0,10.83509 -8.72283,19.55792 -19.55792,19.55792 l -437.91738,0 c -10.835093,0 -19.557923,-8.72283 -19.557923,-19.55792 l 0,-329.13187 z"
         style="opacity:1;fill:#ffb800;fill-opacity:1;stroke:none;stroke-width:0.5;stroke-linecap:round;stroke-miterlimit:4;stroke-dasharray:none;stroke-opacity:1" />
      <path
         id="rect3348"
         d="m 16.733034,676.04932 477.033236,0 0,314.95688 -477.033236,0 z"
         style="opacity:1;fill:#faec6d;fill-opacity:1;stroke:none;stroke-width:0.5;stroke-linecap:round;stroke-miterlimit:4;stroke-dasharray:none;stroke-opacity:1" />
      <path
         id="rect4153"
         d="m 16.732,967.31125 0,3.87673 477.03049,0 0,-3.87673 -477.03049,0 z"
         style="opacity:1;fill:#ffb800;fill-opacity:1;stroke:none;stroke-width:0.5;stroke-linecap:round;stroke-miterlimit:4;stroke-dasharray:none;stroke-opacity:1"
         inkscape:connector-curvature="0" />
      <path
         inkscape:connector-curvature="0"
         style="opacity:1;fill:#ffb800;fill-opacity:1;stroke:none;stroke-width:0.5;stroke-linecap:round;stroke-miterlimit:4;stroke-dasharray:none;stroke-opacity:1"
         d="m 16.732,960.49031 0,3.87674 477.03049,0 0,-3.87674 -477.03049,0 z"
         id="path4159" />
      <path
         sodipodi:nodetypes="cczcczcczc"
         inkscape:connector-curvature="0"
         id="path3778-5"
         d="m 76.934822,917.48306 212.795968,-1.03203 c 0,0 8.14351,1.07982 10.37265,-4.12835 2.22915,-5.2081 -2.81992,-12.38491 -2.81992,-12.38491 L 194.07564,732.74111 c 0,0 -3.74978,-9.49606 -9.80471,-9.83066 -6.05492,-0.33463 -10.74302,9.52838 -10.74302,9.52838 L 73.322572,897.35758 c 0,0 -7.84597,10.98523 -5.94744,14.9338 1.89852,3.94865 9.55969,5.19168 9.55969,5.19168 z"
         style="fill:none;fill-opacity:1;stroke:#ffb800;stroke-width:13.93588448;stroke-miterlimit:4;stroke-dasharray:none;stroke-opacity:1" />
      <path
         sodipodi:open="true"
         sodipodi:end="6.2784904"
         sodipodi:start="0"
         d="m 196.35244,882.50604 a 11.953968,12.188359 0 0 1 -11.93994,12.18835 11.953968,12.188359 0 0 1 -11.96797,-12.15974 11.953968,12.188359 0 0 1 11.91185,-12.21689 11.953968,12.188359 0 0 1 11.99592,12.13106"
         sodipodi:ry="12.188359"
         sodipodi:rx="11.953968"
         sodipodi:cy="882.50604"
         sodipodi:cx="184.39847"
         id="path2997-3"
         style="fill:#ffb800;fill-opacity:1;stroke:none"
         sodipodi:type="arc" />
      <path
         sodipodi:nodetypes="ccczcc"
         inkscape:connector-curvature="0"
         id="path2999-5"
         d="m 180.64821,862.34835 6.79732,0 c 0,0 9.32308,-63.97943 9.61004,-64.22328 0,0 -1.28502,-12.17098 -12.42274,-11.95396 -11.13769,0.21703 -12.42272,11.95396 -12.42272,11.95396 z"
         style="fill:#ffb800;fill-opacity:1;stroke:none" />
    </g>
  </g>
</svg>
