<?xml version="1.0" encoding="UTF-8" standalone="no"?>
<!-- Created with Inkscape (http://www.inkscape.org/) -->

<svg
   xmlns:dc="http://purl.org/dc/elements/1.1/"
   xmlns:cc="http://creativecommons.org/ns#"
   xmlns:rdf="http://www.w3.org/1999/02/22-rdf-syntax-ns#"
   xmlns:svg="http://www.w3.org/2000/svg"
   xmlns="http://www.w3.org/2000/svg"
   xmlns:sodipodi="http://sodipodi.sourceforge.net/DTD/sodipodi-0.dtd"
   xmlns:inkscape="http://www.inkscape.org/namespaces/inkscape"
   width="512"
   height="512"
   id="svg2"
   version="1.1"
   inkscape:version="0.91 r13725"
   sodipodi:docname="folder-development.svg">
  <defs
     id="defs4" />
  <sodipodi:namedview
     id="base"
     pagecolor="#ffffff"
     bordercolor="#666666"
     borderopacity="1.0"
     inkscape:pageopacity="0.0"
     inkscape:pageshadow="2"
     inkscape:zoom="0.24748737"
     inkscape:cx="-15.509547"
     inkscape:cy="72.572295"
     inkscape:document-units="px"
     inkscape:current-layer="layer1"
     showgrid="false"
     inkscape:window-width="1366"
     inkscape:window-height="715"
     inkscape:window-x="0"
     inkscape:window-y="24"
     inkscape:window-maximized="1" />
  <metadata
     id="metadata7">
    <rdf:RDF>
      <cc:Work
         rdf:about="">
        <dc:format>image/svg+xml</dc:format>
        <dc:type
           rdf:resource="http://purl.org/dc/dcmitype/StillImage" />
        <dc:title />
      </cc:Work>
    </rdf:RDF>
  </metadata>
  <g
     inkscape:label="Layer 1"
     inkscape:groupmode="layer"
     id="layer1"
     transform="translate(0,-540.36218)">
    <g
       id="g4188">
      <g
         id="g4285"
         transform="translate(1.37e-4,-3.812793e-4)">
        <path
           style="opacity:1;fill:#ffb800;fill-opacity:1;stroke:none;stroke-width:0.5;stroke-linecap:round;stroke-miterlimit:4;stroke-dasharray:none;stroke-opacity:1"
           d="m 36.290833,615.0068 123.370707,0 29.62974,33.73269 284.91693,0 c 10.83509,0 19.55792,8.72283 19.55792,19.55792 l 0,275.84102 c 0,10.83509 -8.72283,19.55792 -19.55792,19.55792 l -437.917377,0 c -10.835093,0 -19.557923,-8.72283 -19.557923,-19.55792 l 0,-312.25461 c 0,-10.8351 4.892394,-16.68116 19.557923,-16.87702 z"
           id="rect4150"
           inkscape:connector-curvature="0"
           sodipodi:nodetypes="sccssssssss" />
        <rect
           style="opacity:1;fill:#faec6d;fill-opacity:1;stroke:none;stroke-width:0.5;stroke-linecap:round;stroke-miterlimit:4;stroke-dasharray:none;stroke-opacity:1"
           id="rect3348"
           width="477.03323"
           height="314.95688"
           x="16.732897"
           y="676.04968"
           ry="19.557924" />
        <path
           inkscape:connector-curvature="0"
           style="opacity:1;fill:#ffb800;fill-opacity:1;stroke:none;stroke-width:0.5;stroke-linecap:round;stroke-miterlimit:4;stroke-dasharray:none;stroke-opacity:1"
           d="m 16.731863,967.31163 0,3.87673 477.030487,0 0,-3.87673 -477.030487,0 z"
           id="rect4153" />
        <path
           id="path4159"
           d="m 16.731863,960.49069 0,3.87674 477.030487,0 0,-3.87674 -477.030487,0 z"
           style="opacity:1;fill:#ffb800;fill-opacity:1;stroke:none;stroke-width:0.5;stroke-linecap:round;stroke-miterlimit:4;stroke-dasharray:none;stroke-opacity:1"
           inkscape:connector-curvature="0" />
      </g>
      <g
         transform="matrix(0.85682323,0,0,0.85682323,-123.7771,64.019796)"
         id="g4176">
        <path
           style="fill:#999999;stroke:none"
           d="m 440.58215,782.88706 16.79969,10.70979 31.28944,-18.05965 c 0,0 1.46033,20.24202 -9.44985,34.43934 -10.91015,14.19732 -22.25959,21.6296 -22.25959,21.6296 l -20.57961,-44.72915 z"
           id="path3773"
           inkscape:connector-curvature="0"
           sodipodi:nodetypes="ccczccc" />
        <path
           style="fill:#ebebeb;stroke:none"
           d="m 376.5097,833.60419 c 0,0 6.72513,-5.5778 10.70979,-15.53971 3.98466,-9.96191 1.65654,-29.99295 4.76403,-39.59351 3.10749,-9.60058 0.84828,-16.0939 24.00543,-30.96515 23.15715,-14.87125 59.11079,-0.57904 59.11079,-0.57904 l -31.81131,16.74873 -2.51995,20.36962 27.92947,52.28901 c 0,0 -19.60937,0.2525 -27.92947,2.09996 -8.3201,1.84746 -15.60887,4.90669 -21.62959,8.18985 -6.02073,3.28315 -14.48973,10.70979 -14.48973,10.70979 z"
           id="path3771"
           inkscape:connector-curvature="0"
           sodipodi:nodetypes="czzzcccczzcc" />
        <path
           inkscape:connector-curvature="0"
           style="fill:#00bbf2;fill-opacity:1;stroke:none"
           d="m 381.91602,827.54968 c 0,0 -27.06197,27.03635 -40.90821,40.75977 -13.84624,13.72343 -24.37611,22.7131 -42.17187,41.57812 -17.79575,18.86503 -61.88661,68.71163 -63.55274,72.46289 -1.66612,3.75125 -11.20832,17.65504 4.75196,32.66794 15.96027,15.013 34.38335,3.8341 38.01367,1.1875 3.63031,-2.6467 27.49684,-30.99541 41.57617,-48.1113 14.07933,-17.11592 27.59823,-35.38568 42.76562,-54.64258 15.16738,-19.25691 48.25977,-60.88086 48.25977,-60.88086 0,0 -7.30904,-10.91302 -12.17773,-15.14648 -4.86869,-4.23346 -16.55664,-9.875 -16.55664,-9.875 z M 260.54297,984.35046 a 10.368449,10.839742 0 0 1 10.4043,10.78906 l 0,0.0508 a 10.368449,10.839742 0 0 1 -10.35547,10.83988 10.368449,10.839742 0 0 1 -10.38086,-10.81448 10.368449,10.839742 0 0 1 10.33203,-10.86524 z"
           id="path3769" />
        <path
           style="fill:#ffffff;stroke:none"
           d="m 405.27916,816.59451 11.96977,22.25959 24.56954,-11.96979 -11.54979,-23.51955 z"
           id="path3775"
           inkscape:connector-curvature="0" />
        <path
           style="fill:#808080;stroke:none"
           d="m 409.93762,813.71587 0.44547,2.96979 2.52432,1.03943 -0.89094,4.00922 3.56376,1.63338 -0.29698,4.30621 4.30619,2.07885 -0.59396,4.90016 2.82131,2.07885 17.37328,-8.16693 0.89094,-3.41526 -2.52432,-1.63339 0,-4.90015 -3.26677,-0.89094 -0.1485,-4.60317 -2.96979,-1.63339 -0.29698,-5.19714 -3.49709,-1.44045 z"
           id="path3777"
           inkscape:connector-curvature="0"
           sodipodi:nodetypes="ccccccccccccccccccc" />
        <path
           style="fill:#394050;fill-opacity:0.39215686;stroke:none"
           d="m 280.74667,970.00775 c -11.17457,-9.01123 -2.60409,-20.76605 -2.60409,-20.76605 0,0 43.45509,-48.13053 58.89564,-63.45237 15.44054,-15.32183 32.43609,-29.644 32.43609,-29.644 0,0 4.41376,-4.995 10.09939,0.20767 5.68564,5.20267 2.82214,10.1617 2.82214,10.1617 0,0 -16.64658,24.61764 -30.16045,41.81519 -13.51387,17.19755 -51.76376,60.56791 -51.76376,60.56791 0,0 -8.55038,10.12119 -19.72496,1.10995 z"
           id="path2994"
           inkscape:connector-curvature="0"
           sodipodi:nodetypes="zczczczcz" />
        <path
           style="fill:#ebebeb;stroke:none"
           d="m 341.7442,878.65921 -94.4982,-93.23823 -14.6997,-8.81983 -18.0597,-23.51955 11.7598,-12.59977 26.4595,17.63967 5.8799,14.27973 94.4982,94.91819"
           id="path3767"
           inkscape:connector-curvature="0" />
        <path
           style="fill:#f03916;stroke:none"
           d="m 324.6125,890.19046 16.7997,16.58968 8.3998,1.04999 c 0,0 6.918,3.53553 13.8597,10.91979 6.9418,7.38425 17.042,25.5552 24.5696,35.48932 7.5275,9.93412 8.5657,12.81516 20.1596,24.35955 11.5938,11.54438 51.449,42.20921 51.449,42.20921 0,0 13.493,4.8982 26.8795,-9.2399 13.3865,-14.13797 11.1298,-28.3494 11.1298,-28.3494 0,0 -25.2778,-34.17634 -36.7493,-45.98913 -11.4715,-11.81279 -20.5842,-18.55546 -30.4494,-25.82951 -9.8653,-7.27406 -20.8399,-11.70105 -28.3495,-18.05966 -7.5096,-6.35861 -17.0097,-18.89964 -17.0097,-18.89964 l -1.2599,-7.13987 -16.7997,-17.84966 -9.2398,-0.41999 -32.3394,32.12939 z"
           id="path2997"
           inkscape:connector-curvature="0"
           sodipodi:nodetypes="ccczzzczczzzcccccc" />
        <path
           style="fill:#394050;fill-opacity:0.39215686;stroke:none"
           d="m 337.823,874.5679 12.3743,-12.87945 20.7082,19.1929 -13.132,13.13198 z"
           id="path3764"
           inkscape:connector-curvature="0"
           sodipodi:nodetypes="ccccc" />
        <path
           style="fill:#394050;fill-opacity:0.39215686;stroke:none"
           d="m 388.4729,916.51951 c 2.2429,7.77151 14.8955,25.70206 24.261,37.3131 9.3655,11.61105 23.2277,25.13726 31.677,31.95797 8.4494,6.82072 11.744,9.17803 16.9857,10.85074 5.2416,1.67272 9.8858,3.31149 12.8414,0.63397 2.9556,-2.67752 2.3031,-6.88345 0.903,-12.12939 -1.4,-5.24595 -4.7324,-9.82502 -11.6219,-18.09508 -6.8895,-8.27005 -19.8561,-20.15775 -31.4435,-29.44339 -11.5874,-9.28565 -30.2849,-22.14156 -38.3734,-24.85753 -4.7318,-1.63823 -6.5431,-0.77116 -5.2293,3.76961 z"
           id="path3770"
           inkscape:connector-curvature="0"
           sodipodi:nodetypes="czzzzzzzcc" />
      </g>
    </g>
  </g>
</svg>
