<?xml version="1.0" encoding="UTF-8" standalone="no"?>
<!-- Created with Inkscape (http://www.inkscape.org/) -->

<svg
   xmlns:dc="http://purl.org/dc/elements/1.1/"
   xmlns:cc="http://creativecommons.org/ns#"
   xmlns:rdf="http://www.w3.org/1999/02/22-rdf-syntax-ns#"
   xmlns:svg="http://www.w3.org/2000/svg"
   xmlns="http://www.w3.org/2000/svg"
   xmlns:sodipodi="http://sodipodi.sourceforge.net/DTD/sodipodi-0.dtd"
   xmlns:inkscape="http://www.inkscape.org/namespaces/inkscape"
   width="512"
   height="512"
   id="svg2"
   version="1.1"
   inkscape:version="0.91 r13725"
   sodipodi:docname="folder-music.svg">
  <defs
     id="defs4" />
  <sodipodi:namedview
     id="base"
     pagecolor="#ffffff"
     bordercolor="#666666"
     borderopacity="1.0"
     inkscape:pageopacity="0.0"
     inkscape:pageshadow="2"
     inkscape:zoom="0.49497475"
     inkscape:cx="692.12355"
     inkscape:cy="95.81949"
     inkscape:document-units="px"
     inkscape:current-layer="layer1"
     showgrid="false"
     inkscape:window-width="1366"
     inkscape:window-height="715"
     inkscape:window-x="0"
     inkscape:window-y="24"
     inkscape:window-maximized="1" />
  <metadata
     id="metadata7">
    <rdf:RDF>
      <cc:Work
         rdf:about="">
        <dc:format>image/svg+xml</dc:format>
        <dc:type
           rdf:resource="http://purl.org/dc/dcmitype/StillImage" />
        <dc:title />
      </cc:Work>
    </rdf:RDF>
  </metadata>
  <g
     inkscape:label="Layer 1"
     inkscape:groupmode="layer"
     id="layer1"
     transform="translate(0,-540.36218)">
    <g
       id="g4157">
      <path
         sodipodi:nodetypes="cccccsssscc"
         inkscape:connector-curvature="0"
         id="rect4150"
         d="m 36.29097,615.00618 123.37071,2.4e-4 29.62974,33.73269 284.91693,7e-5 19.55792,0 0,295.39887 c 0,10.83509 -8.72283,19.55792 -19.55792,19.55792 l -437.91738,0 c -10.835093,0 -19.557923,-8.72283 -19.557923,-19.55792 l 0,-329.13187 z"
         style="opacity:1;fill:#ffb800;fill-opacity:1;stroke:none;stroke-width:0.5;stroke-linecap:round;stroke-miterlimit:4;stroke-dasharray:none;stroke-opacity:1" />
      <path
         id="rect3348"
         d="m 16.733034,676.04932 477.033236,0 0,314.95688 -477.033236,0 z"
         style="opacity:1;fill:#faec6d;fill-opacity:1;stroke:none;stroke-width:0.5;stroke-linecap:round;stroke-miterlimit:4;stroke-dasharray:none;stroke-opacity:1" />
      <path
         id="rect4153"
         d="m 16.732,967.31125 0,3.87673 477.03049,0 0,-3.87673 -477.03049,0 z"
         style="opacity:1;fill:#ffb800;fill-opacity:1;stroke:none;stroke-width:0.5;stroke-linecap:round;stroke-miterlimit:4;stroke-dasharray:none;stroke-opacity:1"
         inkscape:connector-curvature="0" />
      <path
         inkscape:connector-curvature="0"
         style="opacity:1;fill:#ffb800;fill-opacity:1;stroke:none;stroke-width:0.5;stroke-linecap:round;stroke-miterlimit:4;stroke-dasharray:none;stroke-opacity:1"
         d="m 16.732,960.49031 0,3.87674 477.03049,0 0,-3.87674 -477.03049,0 z"
         id="path4159" />
      <g
         style="fill:#ffb800;fill-opacity:1"
         transform="matrix(0.79937509,0,0,0.79937509,-120.3896,139.70799)"
         id="g4190">
        <path
           style="fill:#ffb800;fill-opacity:1;fill-rule:evenodd;stroke:none"
           d="m 305.20897,716.29583 0,204.12903 c -8.66636,-8.07428 -19.96756,-13.29483 -31.84948,-13.29314 -24.99165,0 -47.69622,22.72874 -47.69622,47.70815 0,24.97834 22.70457,47.70853 47.69622,47.71043 24.99183,0 47.7586,-22.72835 47.7586,-47.71043 l 0,-168.81352 0,-68.92312 0,-0.80578 -0.0637,0 -15.84693,0 z"
           id="path4112"
           inkscape:connector-curvature="0"
           sodipodi:nodetypes="cccscscccccc" />
        <path
           style="fill:#ffb800;fill-opacity:1;fill-rule:evenodd;stroke:none"
           d="m 462.39582,698.02641 0,204.12903 c -8.66636,-8.07428 -19.96756,-13.29483 -31.84948,-13.29314 -24.99165,0 -47.69622,22.72874 -47.69622,47.70815 0,24.97834 22.70457,47.70853 47.69622,47.71043 24.99183,0 47.7586,-22.72835 47.7586,-47.71043 l 0,-168.81352 0,-68.92312 0,-0.80578 -0.0637,0 -15.84693,0 z"
           id="path4112-3"
           inkscape:connector-curvature="0"
           sodipodi:nodetypes="cccscscccccc" />
        <rect
           style="fill:#ffb800;fill-opacity:1;stroke:none;stroke-opacity:1"
           id="rect4188"
           width="171.4557"
           height="18.468454"
           x="219.51505"
           y="747.4649"
           transform="matrix(0.99307685,-0.11746649,0.11746649,0.99307685,0,0)"
           inkscape:transform-center-x="-79.159264"
           inkscape:transform-center-y="-9.4361839" />
      </g>
    </g>
  </g>
</svg>
