<?xml version="1.0" encoding="UTF-8" standalone="no"?>
<!-- Created with Inkscape (http://www.inkscape.org/) -->

<svg
   xmlns:dc="http://purl.org/dc/elements/1.1/"
   xmlns:cc="http://creativecommons.org/ns#"
   xmlns:rdf="http://www.w3.org/1999/02/22-rdf-syntax-ns#"
   xmlns:svg="http://www.w3.org/2000/svg"
   xmlns="http://www.w3.org/2000/svg"
   xmlns:sodipodi="http://sodipodi.sourceforge.net/DTD/sodipodi-0.dtd"
   xmlns:inkscape="http://www.inkscape.org/namespaces/inkscape"
   width="512"
   height="512"
   id="svg2"
   version="1.1"
   inkscape:version="0.91 r13725"
   sodipodi:docname="folder-mail.svg">
  <defs
     id="defs4" />
  <sodipodi:namedview
     id="base"
     pagecolor="#ffffff"
     bordercolor="#666666"
     borderopacity="1.0"
     inkscape:pageopacity="0.0"
     inkscape:pageshadow="2"
     inkscape:zoom="0.49497475"
     inkscape:cx="147.97754"
     inkscape:cy="287.43338"
     inkscape:document-units="px"
     inkscape:current-layer="layer1"
     showgrid="false"
     inkscape:window-width="1366"
     inkscape:window-height="715"
     inkscape:window-x="0"
     inkscape:window-y="24"
     inkscape:window-maximized="1" />
  <metadata
     id="metadata7">
    <rdf:RDF>
      <cc:Work
         rdf:about="">
        <dc:format>image/svg+xml</dc:format>
        <dc:type
           rdf:resource="http://purl.org/dc/dcmitype/StillImage" />
        <dc:title />
      </cc:Work>
    </rdf:RDF>
  </metadata>
  <g
     inkscape:label="Layer 1"
     inkscape:groupmode="layer"
     id="layer1"
     transform="translate(0,-540.36218)">
    <g
       id="g4164">
      <g
         id="g4408"
         transform="translate(1.37e-4,-3.812793e-4)">
        <path
           style="opacity:1;fill:#ffb800;fill-opacity:1;stroke:none;stroke-width:0.5;stroke-linecap:round;stroke-miterlimit:4;stroke-dasharray:none;stroke-opacity:1"
           d="m 36.290833,615.0068 123.370707,0 29.62974,33.73269 284.91693,0 c 10.83509,0 19.55792,8.72283 19.55792,19.55792 l 0,275.84102 c 0,10.83509 -8.72283,19.55792 -19.55792,19.55792 l -437.917377,0 c -10.835093,0 -19.557923,-8.72283 -19.557923,-19.55792 l 0,-312.25461 c 0,-10.8351 4.892394,-16.68116 19.557923,-16.87702 z"
           id="rect4150"
           inkscape:connector-curvature="0"
           sodipodi:nodetypes="sccssssssss" />
        <rect
           style="opacity:1;fill:#faec6d;fill-opacity:1;stroke:none;stroke-width:0.5;stroke-linecap:round;stroke-miterlimit:4;stroke-dasharray:none;stroke-opacity:1"
           id="rect3348"
           width="477.03323"
           height="314.95688"
           x="16.732897"
           y="676.04968"
           ry="19.557924" />
        <path
           inkscape:connector-curvature="0"
           style="opacity:1;fill:#ffb800;fill-opacity:1;stroke:none;stroke-width:0.5;stroke-linecap:round;stroke-miterlimit:4;stroke-dasharray:none;stroke-opacity:1"
           d="m 16.731863,967.31163 0,3.87673 477.030487,0 0,-3.87673 -477.030487,0 z"
           id="rect4153" />
        <path
           id="path4159"
           d="m 16.731863,960.49069 0,3.87674 477.030487,0 0,-3.87674 -477.030487,0 z"
           style="opacity:1;fill:#ffb800;fill-opacity:1;stroke:none;stroke-width:0.5;stroke-linecap:round;stroke-miterlimit:4;stroke-dasharray:none;stroke-opacity:1"
           inkscape:connector-curvature="0" />
      </g>
      <g
         id="g4160"
         transform="matrix(0.60952381,0,0,0.60952381,43.439528,675.15385)">
        <polygon
           style="fill:#b3b3b3;fill-opacity:1"
           points="0,44 28,44 56,44 56,5 0,5 "
           id="polygon7"
           transform="matrix(8.0357143,0,0,8.0357143,27.169525,56.428571)" />
        <path
           style="fill:#c3c3c3;fill-opacity:1"
           d="m 275.99542,274.25268 c -13.15447,11.74821 -34.48929,11.74821 -47.65179,0 L 211.5731,259.44286 C 159.10792,306.26696 27.169525,410 27.169525,410 l 173.627675,0 102.75268,0 173.61965,0 c 0,0 -131.9384,-103.73304 -184.40358,-150.55714 l -16.77053,14.80982 z"
           id="path9"
           inkscape:connector-curvature="0" />
        <path
           style="fill:#ebebeb;fill-opacity:1"
           d="M 27.169525,96.60714 228.34363,274.25268 c 13.15447,11.74821 34.48929,11.74821 47.65179,0 l 201.17411,-177.64554 -450.000005,0 z"
           id="path11"
           inkscape:connector-curvature="0" />
      </g>
    </g>
  </g>
</svg>
