<?xml version="1.0" encoding="UTF-8" standalone="no"?>
<!-- Created with Inkscape (http://www.inkscape.org/) -->

<svg
   xmlns:dc="http://purl.org/dc/elements/1.1/"
   xmlns:cc="http://creativecommons.org/ns#"
   xmlns:rdf="http://www.w3.org/1999/02/22-rdf-syntax-ns#"
   xmlns:svg="http://www.w3.org/2000/svg"
   xmlns="http://www.w3.org/2000/svg"
   xmlns:sodipodi="http://sodipodi.sourceforge.net/DTD/sodipodi-0.dtd"
   xmlns:inkscape="http://www.inkscape.org/namespaces/inkscape"
   width="512"
   height="512"
   id="svg2"
   version="1.1"
   inkscape:version="0.91 r13725"
   sodipodi:docname="user-home.svg">
  <defs
     id="defs4" />
  <sodipodi:namedview
     id="base"
     pagecolor="#ffffff"
     bordercolor="#666666"
     borderopacity="1.0"
     inkscape:pageopacity="0.0"
     inkscape:pageshadow="2"
     inkscape:zoom="0.49497474"
     inkscape:cx="687.31286"
     inkscape:cy="45.98875"
     inkscape:document-units="px"
     inkscape:current-layer="layer1"
     showgrid="false"
     inkscape:window-width="1366"
     inkscape:window-height="715"
     inkscape:window-x="0"
     inkscape:window-y="24"
     inkscape:window-maximized="1" />
  <metadata
     id="metadata7">
    <rdf:RDF>
      <cc:Work
         rdf:about="">
        <dc:format>image/svg+xml</dc:format>
        <dc:type
           rdf:resource="http://purl.org/dc/dcmitype/StillImage" />
        <dc:title />
      </cc:Work>
    </rdf:RDF>
  </metadata>
  <g
     inkscape:label="Layer 1"
     inkscape:groupmode="layer"
     id="layer1"
     transform="translate(0,-540.36218)">
    <g
       id="g4151">
      <path
         sodipodi:nodetypes="cccccsssscc"
         inkscape:connector-curvature="0"
         id="rect4150"
         d="m 36.29097,615.00618 123.37071,2.4e-4 29.62974,33.73269 284.91693,7e-5 19.55792,0 0,295.39887 c 0,10.83509 -8.72283,19.55792 -19.55792,19.55792 l -437.91738,0 c -10.835093,0 -19.557923,-8.72283 -19.557923,-19.55792 l 0,-329.13187 z"
         style="opacity:1;fill:#ffb800;fill-opacity:1;stroke:none;stroke-width:0.5;stroke-linecap:round;stroke-miterlimit:4;stroke-dasharray:none;stroke-opacity:1" />
      <path
         id="rect3348"
         d="m 16.733034,676.04932 477.033236,0 0,314.95688 -477.033236,0 z"
         style="opacity:1;fill:#faec6d;fill-opacity:1;stroke:none;stroke-width:0.5;stroke-linecap:round;stroke-miterlimit:4;stroke-dasharray:none;stroke-opacity:1" />
      <path
         id="rect4153"
         d="m 16.732,967.31125 0,3.87673 477.03049,0 0,-3.87673 -477.03049,0 z"
         style="opacity:1;fill:#ffb800;fill-opacity:1;stroke:none;stroke-width:0.5;stroke-linecap:round;stroke-miterlimit:4;stroke-dasharray:none;stroke-opacity:1"
         inkscape:connector-curvature="0" />
      <path
         inkscape:connector-curvature="0"
         style="opacity:1;fill:#ffb800;fill-opacity:1;stroke:none;stroke-width:0.5;stroke-linecap:round;stroke-miterlimit:4;stroke-dasharray:none;stroke-opacity:1"
         d="m 16.732,960.49031 0,3.87674 477.03049,0 0,-3.87674 -477.03049,0 z"
         id="path4159" />
      <path
         inkscape:connector-curvature="0"
         style="fill:#ffb800;fill-opacity:1;stroke:none"
         d="M 175.07617,706.97123 60,816.65321 l 7.641772,10.78839 16.632108,0 0,109.68196 181.60458,0 0,-109.68196 16.6321,0 7.64179,-10.78839 -31.46615,-29.66808 0,-60.23518 -35.51179,0 0,26.07194 -48.09824,-45.85066 z m 0,19.32992 4.94468,4.49517 71.92261,71.9226 2.24758,1.79806 0,3.1459 0,107.88396 0,7.19217 -7.19226,0 -43.15357,0 0,-71.92257 -57.53808,0 0,71.92257 -43.15356,0 -7.19227,0 0,-7.19217 0,-107.88396 0,-3.1459 2.24758,-1.79806 71.92261,-71.9226 4.94468,-4.49517 z"
         id="path3962" />
    </g>
  </g>
</svg>
