<?xml version="1.0" encoding="UTF-8" standalone="no"?>
<!-- Generator: Adobe Illustrator 16.0.0, SVG Export Plug-In . SVG Version: 6.00 Build 0)  -->

<svg
   xmlns:dc="http://purl.org/dc/elements/1.1/"
   xmlns:cc="http://creativecommons.org/ns#"
   xmlns:rdf="http://www.w3.org/1999/02/22-rdf-syntax-ns#"
   xmlns:svg="http://www.w3.org/2000/svg"
   xmlns="http://www.w3.org/2000/svg"
   xmlns:sodipodi="http://sodipodi.sourceforge.net/DTD/sodipodi-0.dtd"
   xmlns:inkscape="http://www.inkscape.org/namespaces/inkscape"
   version="1.1"
   id="Capa_1"
   x="0px"
   y="0px"
   width="500"
   height="500"
   viewBox="0 0 500.00002 500"
   xml:space="preserve"
   inkscape:version="0.48.5 r10040"
   sodipodi:docname="applications-games.svg"><metadata
     id="metadata77"><rdf:RDF><cc:Work
         rdf:about=""><dc:format>image/svg+xml</dc:format><dc:type
           rdf:resource="http://purl.org/dc/dcmitype/StillImage" /></cc:Work></rdf:RDF></metadata><defs
     id="defs75" /><sodipodi:namedview
     pagecolor="#ffffff"
     bordercolor="#666666"
     borderopacity="1"
     objecttolerance="10"
     gridtolerance="10"
     guidetolerance="10"
     inkscape:pageopacity="0"
     inkscape:pageshadow="2"
     inkscape:window-width="1366"
     inkscape:window-height="716"
     id="namedview73"
     showgrid="false"
     inkscape:zoom="1.1486236"
     inkscape:cx="429.55491"
     inkscape:cy="134.42062"
     inkscape:window-x="0"
     inkscape:window-y="0"
     inkscape:window-maximized="1"
     inkscape:current-layer="Capa_1" /><path
     d="m 459.46292,252.28012 c -1.89094,-14.17433 -7.8766,-40.32385 -33.70865,-58.28007 l -6.30314,-24.25858 c 0,0 -0.62954,-5.98489 -8.50615,-10.39709 0,0 0.4739,-4.09472 -6.77162,-5.98567 -7.24553,-1.89017 -24.09753,-5.51099 -43.78828,1.10421 0,0 -2.99515,0.78674 -2.83873,5.19816 0,0 -9.29288,4.56862 -11.18382,13.07477 -1.89017,8.50614 -4.41143,19.21607 -4.41143,19.21607 l -184.17569,0 c 0,0 -2.52126,-10.70993 -4.4122,-19.21607 -1.89094,-8.50615 -11.18383,-13.07477 -11.18383,-13.07477 0.15642,-4.4122 -2.83874,-5.19816 -2.83874,-5.19816 -19.68532,-6.6152 -36.54197,-2.99515 -43.788259,-1.10421 -7.24629,1.89095 -6.77162,5.98489 -6.77162,5.98489 -7.87661,4.4122 -8.50692,10.39787 -8.50692,10.39787 l -6.30237,24.25858 c -25.83205,17.95544 -31.81771,44.10574 -33.70866,58.28007 -1.89094,14.17975 -14.17897,107.42835 -15.12212,118.45111 -0.9478,11.0274 -1.57811,52.29441 36.22914,58.28007 37.80802,5.98489 57.654399,-28.35331 57.654399,-28.35331 l 25.51921,-44.26216 c 57.01946,44.26216 84.11678,-15.90808 84.11678,-15.90808 l 42.40916,0 c 0,0 27.09268,60.17024 84.11677,15.90808 l 25.51922,44.26216 c 0,0 19.84716,34.33897 57.65441,28.35331 37.8026,-5.98489 37.17306,-47.25732 36.22991,-58.28007 -0.95244,-11.02741 -13.24047,-104.27678 -15.12677,-118.45111 z"
     id="path33-7"
     inkscape:connector-curvature="0"
     style="fill:#ffffff"
     sodipodi:nodetypes="ccccccccccsccsccccccccccccscc" /><rect
     style="fill:#5d6a7b;fill-opacity:1;stroke:none"
     id="rect3915"
     width="98.497963"
     height="24.008879"
     x="201.30522"
     y="206.96855"
     transform="translate(0,-1e-5)" /><rect
     x="201.5515"
     y="250.36916"
     width="14.638935"
     height="5.9709511"
     id="rect15"
     style="fill:#f03916" /><path
     d="m 179.96595,290.06347 c -14.67688,0 -26.61414,11.9419 -26.61414,26.61336 0,14.67223 11.94191,26.60949 26.61414,26.60949 14.67146,0 26.60949,-11.93726 26.60949,-26.60949 0,-14.67146 -11.93261,-26.61336 -26.60949,-26.61336 z"
     id="path17"
     inkscape:connector-curvature="0"
     style="fill:#394050" /><path
     d="m 113.28891,263.39281 c -3.90965,2.86197 -7.99973,6.27449 -8.60139,7.48711 -1.05233,2.10002 -2.50655,13.36437 -2.23165,17.21672 0.0565,0.82003 0.2323,3.30335 10.81446,3.30722 l 0.0325,2.37026 v -2.37026 c 10.58216,-0.005 10.7618,-2.48796 10.81446,-3.30335 0.27954,-3.85312 -1.1801,-15.1167 -2.23166,-17.22136 -0.60708,-1.21262 -4.69173,-4.61972 -8.59674,-7.48634 z"
     id="path19"
     inkscape:connector-curvature="0"
     style="fill:#ff6600" /><path
     d="m 320.31078,290.06347 c -14.67687,0 -26.61413,11.9419 -26.61413,26.61336 0,14.67223 11.9419,26.60949 26.61413,26.60949 14.67146,0 26.61336,-11.93726 26.61336,-26.60949 0,-14.67146 -11.93725,-26.61336 -26.61336,-26.61336 z"
     id="path23"
     inkscape:connector-curvature="0"
     style="fill:#394050" /><circle
     cx="465.832"
     cy="346.133"
     r="19.865"
     id="circle27"
     sodipodi:cx="465.832"
     sodipodi:cy="346.133"
     sodipodi:rx="19.865"
     sodipodi:ry="19.865"
     d="m 485.697,346.133 c 0,10.97113 -8.89386,19.865 -19.865,19.865 -10.97114,0 -19.865,-8.89387 -19.865,-19.865 0,-10.97114 8.89386,-19.865 19.865,-19.865 10.97114,0 19.865,8.89386 19.865,19.865 z"
     transform="matrix(1.2584949,0,0,1.2584949,-199.53483,-148.29152)"
     style="fill:#f03916" /><polygon
     points="333.07,295.742 333.07,304.946 349.179,300.111 "
     id="polygon29"
     transform="matrix(0.77434197,0,0,0.77434197,24.999987,20.288924)"
     style="fill:#f03916" /><path
     d="m 146.80243,243.7586 c -0.29348,-0.0232 -0.63496,-0.0333 -1.01826,-0.0333 -4.91475,0 -14.3021,1.30786 -16.20233,2.26572 -1.21804,0.60631 -4.62979,4.69174 -7.49253,8.59675 2.86196,3.90965 6.27449,7.99895 7.49253,8.60061 1.90023,0.95245 11.293,2.26573 16.20233,2.26573 0.38407,0 0.72478,-0.0101 1.01439,-0.0333 0.82003,-0.0565 3.29792,-0.2323 3.30334,-10.81446 -0.006,-10.6201 -2.48409,-10.7951 -3.29947,-10.84775 z"
     id="path31"
     inkscape:connector-curvature="0"
     style="fill:#ff6600" /><path
     sodipodi:type="arc"
     style="fill:#ffffff;fill-opacity:1;stroke:none"
     id="path3091"
     sodipodi:cx="250.29959"
     sodipodi:cy="294.97198"
     sodipodi:rx="34.388985"
     sodipodi:ry="30.03595"
     d="m 284.68858,294.97198 a 34.388985,30.03595 0 1 1 -68.77797,0 34.388985,30.03595 0 1 1 68.77797,0 z"
     transform="translate(0,-1e-5)" /><circle
     cx="465.832"
     cy="346.133"
     r="19.865"
     id="circle27-3"
     sodipodi:cx="465.832"
     sodipodi:cy="346.133"
     sodipodi:rx="19.865"
     sodipodi:ry="19.865"
     d="m 485.697,346.133 c 0,10.97113 -8.89386,19.865 -19.865,19.865 -10.97114,0 -19.865,-8.89387 -19.865,-19.865 0,-10.97114 8.89386,-19.865 19.865,-19.865 10.97114,0 19.865,8.89386 19.865,19.865 z"
     transform="matrix(1.2584949,0,0,1.2584949,-236.5794,-184.92959)"
     style="fill:#ffcc00" /><circle
     cx="465.832"
     cy="346.133"
     r="19.865"
     id="circle27-3-6"
     sodipodi:cx="465.832"
     sodipodi:cy="346.133"
     sodipodi:rx="19.865"
     sodipodi:ry="19.865"
     d="m 485.697,346.133 c 0,10.97113 -8.89386,19.865 -19.865,19.865 -10.97114,0 -19.865,-8.89387 -19.865,-19.865 0,-10.97114 8.89386,-19.865 19.865,-19.865 10.97114,0 19.865,8.89386 19.865,19.865 z"
     transform="matrix(1.2584949,0,0,1.2584949,-163.32153,-182.46714)"
     style="fill:#00bbf2;fill-opacity:1" /><circle
     cx="465.832"
     cy="346.133"
     r="19.865"
     id="circle27-3-7"
     sodipodi:cx="465.832"
     sodipodi:cy="346.133"
     sodipodi:rx="19.865"
     sodipodi:ry="19.865"
     d="m 485.697,346.133 c 0,10.97113 -8.89386,19.865 -19.865,19.865 -10.97114,0 -19.865,-8.89387 -19.865,-19.865 0,-10.97114 8.89386,-19.865 19.865,-19.865 10.97114,0 19.865,8.89386 19.865,19.865 z"
     transform="matrix(1.2584949,0,0,1.2584949,-199.64266,-220.01949)"
     style="fill:#45d03f;fill-opacity:1" /><path
     d="m 459.59864,252.56828 c -1.89094,-14.17433 -7.8766,-40.32385 -33.70865,-58.28007 l -6.30314,-24.25858 c 0,0 -0.62954,-5.98489 -8.50615,-10.39709 0,0 0.4739,-4.09472 -6.77162,-5.98567 -7.24552,-1.89017 -24.09752,-5.51099 -43.78827,1.10421 0,0 -2.99515,0.78674 -2.83873,5.19816 0,0 -9.29288,4.56862 -11.18382,13.07477 -1.89017,8.50614 -4.41143,19.21607 -4.41143,19.21607 H 157.91114 c 0,0 -2.52126,-10.70993 -4.4122,-19.21607 -1.89094,-8.50615 -11.18382,-13.07477 -11.18382,-13.07477 0.15642,-4.4122 -2.83874,-5.19816 -2.83874,-5.19816 -19.68532,-6.6152 -36.54197,-2.99515 -43.788263,-1.10421 -7.246292,1.89095 -6.771621,5.98489 -6.771621,5.98489 -7.876606,4.4122 -8.506921,10.39787 -8.506921,10.39787 l -6.302369,24.25858 c -25.832048,17.95544 -31.817711,44.10574 -33.708655,58.28007 -1.890943,14.17975 -14.178975,107.42834 -15.122124,118.4511 -0.947794,11.0274 -1.578109,52.29441 36.229138,58.28007 37.808021,5.98489 57.654405,-28.35331 57.654405,-28.35331 l 25.51921,-44.26216 c 57.01945,44.26216 84.11677,-15.90808 84.11677,-15.90808 h 42.40916 c 0,0 27.09268,60.17024 84.11677,15.90808 l 25.51922,44.26216 c 0,0 19.84715,34.33897 57.6544,28.35331 37.8026,-5.98489 37.17306,-47.25732 36.22991,-58.28007 -0.95244,-11.02741 -13.24047,-104.27677 -15.12677,-118.4511 z m -73.88538,-56.57807 c 11.09322,0 20.12127,9.02728 20.12127,20.12128 0,11.094 -9.02805,20.12128 -20.12127,20.12128 -11.094,0 -20.12128,-9.02806 -20.12128,-20.12128 0,-11.094 9.02728,-20.12128 20.12128,-20.12128 z m -114.99134,17.52414 c 2.92392,0 5.84319,0 8.7671,0 0.0279,0.0999 0.038,1.53552 0.009,1.75388 -0.048,0.005 -0.0991,0.009 -0.151,0.009 -0.2989,0 -0.59702,0 -0.90056,0 -0.0333,0 -0.0712,0 -0.0999,0.005 -0.1177,0.0194 -0.18894,0.0952 -0.16106,0.21294 0.0186,0.0906 0.0565,0.18972 0.10918,0.2656 0.0898,0.13242 0.19436,0.25166 0.30354,0.37014 0.86262,0.94315 1.72059,1.88165 2.58321,2.82015 0.0186,0.0232 0.0472,0.0426 0.0805,0.0712 0.0379,-0.0426 0.0767,-0.0805 0.10918,-0.11847 0.97644,-1.06627 1.94824,-2.13254 2.92391,-3.19881 0.0186,-0.024 0.0434,-0.0519 0.0619,-0.0805 0.0658,-0.0991 0.0472,-0.19436 -0.0434,-0.27025 -0.0759,-0.0612 -0.16106,-0.0759 -0.25553,-0.0759 -0.30355,0.005 -0.61173,0 -0.91528,0 -0.0426,0 -0.0852,-0.009 -0.13705,-0.0147 0,-0.58773 0,-1.16539 0,-1.75311 2.36948,0 4.73355,0 7.10845,0 0,0.5823 0,1.16151 0,1.75853 -0.0519,0 -0.10453,0 -0.15641,0 -0.57766,0 -1.15145,0 -1.72911,0 -0.0952,0 -0.16106,0.0286 -0.22765,0.0952 -1.86694,1.99006 -3.73388,3.98089 -5.60159,5.97095 -0.0612,0.0666 -0.0898,0.12777 -0.0844,0.21837 0,0.76737 0,1.53087 0,2.29824 0,0.0325 0,0.0658 0.005,0.0991 0.0147,0.15177 0.0945,0.24159 0.24159,0.26018 0.0666,0.009 0.13784,0 0.20443,0 0.6489,0 1.29857,0 1.94824,0 0,0 0.038,0.005 0.0658,0.009 0,0.52578 0,1.04768 0,1.57346 -2.86661,0 -5.72858,0 -8.60526,0 0,-0.52578 0,-1.04768 0,-1.5874 0.0565,0 0.10918,0 0.16106,0 0.55443,0 1.10422,0 1.65864,0 0.062,0 0.11848,0 0.17578,-0.005 0.17965,-0.0186 0.27412,-0.12313 0.28883,-0.30819 0,-0.0286 0,-0.0565 0,-0.0852 0,-0.80067 0,-1.60211 0,-2.40278 0,-0.0952 -0.0232,-0.16107 -0.0898,-0.23231 -1.77247,-1.93817 -3.53952,-3.87635 -5.3027,-5.81453 -0.0712,-0.0759 -0.13783,-0.10454 -0.23772,-0.10454 -0.64425,0.005 -1.28851,0 -1.93353,0 -0.0519,0 -0.10454,0 -0.17036,0 -0.003,-0.57378 -0.003,-1.15222 -0.003,-1.73994 z m -21.2402,-0.005 c 0.0658,-0.005 0.12312,-0.005 0.18894,-0.005 1.9436,0 3.88643,0 5.8339,0 0.0852,0 0.17577,0.005 0.26095,0 0.10376,-0.009 0.17965,0.024 0.26018,0.0952 0.5312,0.48783 1.07169,0.97102 1.60676,1.45499 2.19913,1.98076 4.39284,3.96153 6.59197,5.9423 0.0426,0.0379 0.0852,0.0759 0.15642,0.13783 0,-0.0852 0.005,-0.14248 0.005,-0.19436 0,-1.57346 0,-3.14228 0,-4.71497 0,-0.12312 0,-0.24159 0,-0.36471 0.005,-0.19901 -0.0852,-0.34149 -0.25088,-0.44602 -0.15177,-0.0945 -0.31748,-0.13706 -0.4979,-0.13706 -0.54514,0 -1.08486,0 -1.62999,0 -0.0519,0 -0.10454,0 -0.16571,0 0,-0.59237 0,-1.16539 0,-1.74382 0,0 0.005,-0.005 0.009,-0.0101 0,-0.005 0.005,-0.009 0.005,-0.009 2.43066,-0.005 4.86132,-0.005 7.29275,-0.009 0,0 0.0565,0.005 0.0953,0.005 0,0.58308 0,1.16538 0,1.76317 -0.0573,0 -0.10454,0 -0.15642,0 -0.52655,0 -1.04769,0 -1.57346,-0.005 -0.44061,0 -0.63496,0.18506 -0.65432,0.63031 0,0.0658 0,0.13706 0,0.20365 0,3.18487 0,6.37361 0,9.55848 0,0.0619 0,0.12312 0,0.19436 -0.0565,0.005 -0.0991,0.009 -0.13706,0.009 -0.82468,0 -1.64935,0 -2.47402,0 -0.0852,0 -0.14636,-0.0232 -0.2083,-0.0805 -3.15157,-2.80544 -6.30315,-5.60624 -9.45472,-8.41168 -0.0379,-0.0333 -0.0805,-0.0666 -0.14248,-0.11847 0,0.0759 0,0.12312 0,0.17035 0,2.10854 0,4.21785 0,6.32638 0,0.0805 0.0101,0.16571 0.0186,0.24624 0.0147,0.0898 0.0712,0.14712 0.16648,0.16106 0.10376,0.0147 0.2083,0.0186 0.31671,0.0186 0.59314,0 1.18474,0 1.77711,0 0.0519,0 0.0999,0 0.16649,0 0,0.56449 0,1.1135 0,1.67335 -2.45467,0 -4.90469,0 -7.36013,0 0,-0.55443 0,-1.10421 0,-1.67335 0.0573,0 0.10996,0 0.16107,0 0.54049,0 1.07633,0 1.61605,0 0.062,0 0.12854,0 0.18971,-0.009 0.18972,-0.0286 0.2989,-0.15177 0.30742,-0.34613 0,-0.0379 0,-0.0759 0,-0.11847 0,-2.68697 0,-5.37393 0,-8.0609 0,-0.0379 0,-0.0759 0,-0.11848 -0.005,-0.22765 -0.0898,-0.33219 -0.30742,-0.37013 -0.10453,-0.0186 -0.21294,-0.0286 -0.31748,-0.0286 -0.50177,-0.005 -1.00974,0 -1.51151,0 -0.0519,0 -0.10454,0 -0.17965,0 -0.005,-0.5343 -0.005,-1.0655 -0.005,-1.61528 z m -19.98886,3.05246 c 0.50719,-0.83397 1.18474,-1.52158 1.96683,-2.09924 1.07556,-0.78674 2.2696,-1.31716 3.54881,-1.65864 1.27457,-0.34071 2.57314,-0.46461 3.89107,-0.40266 1.62069,0.0759 3.1748,0.42666 4.6445,1.12821 1.02368,0.48784 1.94747,1.12357 2.72026,1.96219 0.68684,0.74414 1.19404,1.58275 1.45499,2.56849 0.35078,1.32258 0.19436,2.59714 -0.42201,3.80976 -0.51184,1.0051 -1.26063,1.81041 -2.16119,2.47867 -1.09028,0.80996 -2.31761,1.35045 -3.62547,1.69194 -0.75808,0.199 -1.52623,0.32212 -2.30754,0.374 -0.30354,0.0186 -0.61173,0.005 -0.9145,0.005 0,0.005 0,0.009 0,0.0139 -0.39336,-0.0139 -0.78673,-0.005 -1.17545,-0.0426 -2.04736,-0.18507 -3.9476,-0.79138 -5.63024,-2.00477 -0.8812,-0.63496 -1.61141,-1.40775 -2.13718,-2.36949 -0.46848,-0.85797 -0.7062,-1.77247 -0.67755,-2.74891 0.024,-0.9718 0.31748,-1.87159 0.82467,-2.70555 z m -131.772096,4.16983 c 0.545137,-7.69154 11.056056,-7.69541 15.544146,-7.70083 4.5206,0.005 15.0323,0.009 15.57666,7.70548 0.29425,4.10865 -1.0895,16.42069 -2.72027,19.67138 -1.47821,2.96186 -8.8244,8.34508 -11.30229,10.10361 -0.17965,0.15177 -0.38872,0.28419 -0.6156,0.37943 -0.29348,0.1177 -0.61173,0.17965 -0.91992,0.17965 -0.0519,0 -0.0991,0 -0.15642,-0.005 -0.30819,-0.0186 -0.62567,-0.0991 -0.90985,-0.24547 -0.17035,-0.0852 -0.33142,-0.18971 -0.47854,-0.30819 -2.47325,-1.7624 -9.81943,-7.14175 -11.29765,-10.10284 -1.625346,-3.25146 -3.013741,-15.5635 -2.720266,-19.6768 z M 79.43313,270.14972 c -7.69541,-0.54514 -7.700831,-11.05528 -7.705477,-15.54337 0.0046,-4.52138 0.0093,-15.0323 7.710123,-15.57743 0.384074,-0.0287 0.838613,-0.0426 1.350453,-0.0426 4.378903,0 15.122124,1.16616 18.320931,2.76285 2.95721,1.47822 8.33579,8.81433 10.09432,11.29765 0.10376,0.12312 0.20365,0.26095 0.28419,0.4073 0.21759,0.41195 0.31283,0.87191 0.27953,1.31716 -0.0286,0.374 -0.14248,0.73949 -0.34613,1.07091 -0.0658,0.10454 -0.13706,0.20907 -0.21759,0.2989 -1.76318,2.48331 -7.13711,9.81014 -10.089674,11.28836 -3.198807,1.59669 -13.942028,2.76285 -18.320931,2.76285 -0.515712,7.7e-4 -0.971025,-0.0139 -1.359745,-0.0426 z m 49.41308,18.28763 c -0.54513,7.69619 -11.05605,7.70083 -15.54414,7.70548 h -0.0139 c -4.50667,-0.005 -15.018367,-0.009 -15.56273,-7.71012 -0.293475,-4.10402 1.090274,-16.41063 2.72026,-19.67139 1.479,-2.95179 8.80505,-8.3265 11.29301,-10.09354 0.0898,-0.0767 0.18506,-0.14248 0.2896,-0.20908 0.46925,-0.28883 1.02368,-0.42666 1.55411,-0.34071 0.28882,0.0325 0.56836,0.1177 0.83396,0.2656 0.16106,0.0844 0.30742,0.1843 0.4406,0.29812 2.5019,1.77712 9.80007,7.13247 11.27442,10.08039 1.6207,3.25998 3.00909,15.56737 2.71484,19.67525 z m 16.93719,-18.24427 c -4.38355,0 -15.12677,-1.16616 -18.32093,-2.76285 -2.95722,-1.47822 -8.34044,-8.81433 -10.09897,-11.29765 -0.11848,-0.13783 -0.22766,-0.29425 -0.30819,-0.46925 -0.20907,-0.4073 -0.2896,-0.86184 -0.24624,-1.29857 0.0186,-0.2323 0.0759,-0.46848 0.16571,-0.69226 0.0991,-0.2416 0.23695,-0.45996 0.39801,-0.6489 1.77247,-2.49338 7.13711,-9.80007 10.0889,-11.27907 3.19416,-1.59669 13.93738,-2.76285 18.32093,-2.76285 0.51184,0 0.96715,0.0139 1.3551,0.0426 7.69154,0.54514 7.69619,11.05605 7.70083,15.54414 -0.005,4.52061 -0.009,15.03153 -7.70548,15.57666 -0.38252,0.0333 -0.83783,0.048 -1.34967,0.048 z m 34.18255,77.83686 c -17.28796,0 -31.35311,-14.06515 -31.35311,-31.34769 0,-17.28796 14.06592,-31.35311 31.35311,-31.35311 17.28254,0 31.34768,14.06515 31.34768,31.35311 0,17.28254 -14.06514,31.34769 -31.34768,31.34769 z m 40.95882,-90.73662 c 0,2.0853 -1.69659,3.78653 -3.79118,3.78653 h -16.53917 c -2.0853,0 -3.78653,-1.69581 -3.78653,-3.78653 v -7.87583 c 0,-2.08531 1.69658,-3.78731 3.78653,-3.78731 h 16.53917 c 2.08995,0 3.79118,1.69658 3.79118,3.78731 v 7.87583 z m -0.0666,-31.1301 c -0.70155,0.10454 -1.4031,0.17578 -2.11318,0.17578 -0.4406,0 -0.87191,-0.0519 -1.30321,-0.12312 -1.40776,-0.2323 -2.79151,-0.5645 -4.15667,-0.98109 -0.17965,-0.0565 -0.35542,-0.11848 -0.52113,-0.21295 -0.16107,-0.0945 -0.35078,-0.0898 -0.55443,-0.0852 0,0.26017 0,0.51648 0,0.77666 -0.7062,0 -1.39769,0 -2.08995,0 -0.0333,-0.0991 -0.0472,-4.57326 -0.0147,-4.84815 0.10453,-0.0286 1.83906,-0.0325 1.98541,-0.005 0.0147,0.13241 0.0286,0.2656 0.0519,0.39801 0.10454,0.55908 0.39801,1.01439 0.81538,1.39304 0.45919,0.42667 0.99503,0.71549 1.57346,0.9478 0.65897,0.2656 1.34581,0.43595 2.04737,0.54978 0.92843,0.15177 1.86693,0.21294 2.81008,0.17578 0.71085,-0.0286 1.40698,-0.13242 2.07601,-0.40266 0.36936,-0.14713 0.7062,-0.34149 0.99503,-0.61638 0.15177,-0.14248 0.28419,-0.30354 0.38408,-0.48783 0.0472,-0.0852 0.0573,-0.17036 0.0379,-0.2656 -0.0472,-0.24624 -0.17965,-0.43596 -0.36936,-0.59237 -0.18972,-0.15178 -0.39801,-0.25631 -0.62102,-0.34614 -0.44525,-0.18042 -0.9145,-0.28418 -1.3884,-0.37013 -0.79138,-0.14713 -1.5874,-0.23695 -2.38807,-0.32677 -1.14215,-0.13242 -2.27889,-0.25089 -3.41175,-0.45996 -0.90985,-0.17036 -1.81041,-0.37866 -2.66296,-0.75808 -0.51649,-0.22766 -0.99968,-0.51649 -1.39304,-0.92921 -0.50178,-0.52578 -0.74879,-1.15145 -0.75809,-1.87623 -0.0147,-0.9145 0.34072,-1.66794 0.96716,-2.30754 0.42666,-0.43596 0.93385,-0.76738 1.47822,-1.04769 0.80609,-0.41195 1.65864,-0.68219 2.53519,-0.87191 0.90521,-0.19436 1.82435,-0.30354 2.75821,-0.29347 0.72556,0.009 1.44105,0.0945 2.15189,0.2323 1.02368,0.19901 2.02336,0.49248 2.98509,0.89049 0.19901,0.0805 0.38408,0.18972 0.57844,0.27489 0.0712,0.0287 0.15177,0.048 0.22301,0.0426 0.14712,-0.009 0.18971,-0.0619 0.18971,-0.21294 0,-0.14713 0,-0.2989 0,-0.44525 0.11848,-0.0333 1.66329,-0.0379 1.83364,-0.009 0,1.42169 0,2.84338 0,4.27437 -0.59237,0 -1.17545,0 -1.77247,0 -0.005,-0.0658 -0.0147,-0.12312 -0.024,-0.18507 -0.0712,-0.51649 -0.30819,-0.94315 -0.6822,-1.30322 -0.35542,-0.34148 -0.77744,-0.58308 -1.22268,-0.77279 -0.61173,-0.2656 -1.25598,-0.43131 -1.90953,-0.54514 -0.92844,-0.16571 -1.86694,-0.2323 -2.81009,-0.20365 -0.6969,0.024 -1.39304,0.0805 -2.07601,0.25166 -0.27953,0.0712 -0.54978,0.16107 -0.80609,0.29348 -0.18506,0.0945 -0.36007,0.21294 -0.4979,0.36936 -0.16106,0.18042 -0.25089,0.38872 -0.2656,0.63031 -0.009,0.20366 0.0619,0.37943 0.21837,0.49791 0.12776,0.0999 0.27489,0.18506 0.42124,0.24624 0.35078,0.15177 0.72014,0.22301 1.09492,0.2896 0.73407,0.12777 1.47822,0.19359 2.22236,0.26482 1.18474,0.11848 2.37413,0.22766 3.54958,0.43596 0.90521,0.16106 1.80112,0.36936 2.65832,0.72943 0.54049,0.22301 1.04768,0.50177 1.49293,0.89049 0.69226,0.60167 1.08098,1.3551 1.15687,2.27037 0.0991,1.1801 -0.2989,2.14648 -1.19404,2.91463 -0.54978,0.46925 -1.18474,0.79137 -1.853,1.04768 -0.7875,0.30277 -1.59824,0.49326 -2.43221,0.62102 z m 29.14004,94.66099 c -14.51117,0 -26.32066,-11.80485 -26.32066,-26.31989 0,-14.51581 11.80485,-26.32066 26.32066,-26.32066 14.51504,0 26.31988,11.80485 26.31988,26.32066 7.8e-4,14.51504 -11.80484,26.31989 -26.31988,26.31989 z m 32.63774,-59.375 c -0.22301,0.0712 -0.45067,0.0999 -0.68297,0.0999 -2.08453,0 -3.78653,-1.69658 -3.78653,-3.78653 v -9.76677 c 0.005,-2.29903 2.1759,-4.30767 4.40678,-3.70601 l 20.32105,5.51564 c 1.03298,0.27954 1.74847,1.21804 1.74847,2.28431 0,1.94283 -1.47357,3.54958 -3.35987,3.76253 l -18.64693,5.59694 z m 37.67483,86.58073 c -17.28795,0 -31.3531,-14.06515 -31.3531,-31.34769 0,-17.28796 14.06515,-31.35311 31.3531,-31.35311 17.28719,0 31.35234,14.06515 31.35234,31.35311 0,17.28254 -14.06051,31.34769 -31.35234,31.34769 z m 29.3011,-75.69503 c -11.09399,0 -20.12205,-9.02728 -20.12205,-20.12127 0,-11.094 9.02806,-20.12128 20.12205,-20.12128 11.09323,0 20.12128,9.02805 20.12128,20.12128 -0.005,11.09322 -9.02805,20.12127 -20.12128,20.12127 z m 36.10138,36.10137 c -11.094,0 -20.12128,-9.02728 -20.12128,-20.12127 0,-11.094 9.02728,-20.12128 20.12128,-20.12128 11.09322,0 20.12127,9.02728 20.12127,20.12128 -0.004,11.09322 -9.02805,20.12127 -20.12127,20.12127 z m 36.10137,-36.10137 c -11.094,0 -20.12128,-9.02728 -20.12128,-20.12127 0,-11.094 9.02728,-20.12128 20.12128,-20.12128 11.09399,0 20.12127,9.02805 20.12127,20.12128 -0.004,11.09322 -9.0327,20.12127 -20.12127,20.12127 z"
     id="path33"
     inkscape:connector-curvature="0"
     style="fill:#5d6a7b" /><path
     d="m 96.991334,245.9856 c -1.904881,-0.95166 -11.293003,-2.26495 -16.202331,-2.26495 -0.384074,0 -0.725559,0.009 -1.014388,0.0333 -0.820028,0.0565 -3.303343,0.2323 -3.307989,10.81446 0.0046,10.61468 2.487961,10.79046 3.303343,10.84776 0.29425,0.0232 0.63496,0.0325 1.019034,0.0325 4.909328,0 14.29745,-1.31174 16.202331,-2.26495 1.213394,-0.60631 4.625146,-4.69174 7.487116,-8.60062 -2.86197,-3.90036 -6.26985,-7.99043 -7.487116,-8.59752 z"
     id="path35"
     inkscape:connector-curvature="0"
     style="fill:#ff6600" /><path
     d="m 113.28891,245.78273 c 3.90036,-2.86275 7.99431,-6.2745 8.59674,-7.49254 1.05156,-2.09459 2.50655,-13.35894 2.23166,-17.21672 -0.0565,-0.82002 -0.2323,-3.29869 -10.81446,-3.30334 -10.61468,0.005 -10.79046,2.48332 -10.84698,3.29792 -0.27954,3.85778 1.17932,15.12213 2.23165,17.22137 0.60166,1.21881 4.68632,4.63056 8.60139,7.49331 z"
     id="path37"
     inkscape:connector-curvature="0"
     style="fill:#ff6600" /><g
     id="g43"
     transform="translate(0,-81.138004)" /><g
     id="g45"
     transform="translate(0,-81.138004)" /><g
     id="g47"
     transform="translate(0,-81.138004)" /><g
     id="g49"
     transform="translate(0,-81.138004)" /><g
     id="g51"
     transform="translate(0,-81.138004)" /><g
     id="g53"
     transform="translate(0,-81.138004)" /><g
     id="g55"
     transform="translate(0,-81.138004)" /><g
     id="g57"
     transform="translate(0,-81.138004)" /><g
     id="g59"
     transform="translate(0,-81.138004)" /><g
     id="g61"
     transform="translate(0,-81.138004)" /><g
     id="g63"
     transform="translate(0,-81.138004)" /><g
     id="g65"
     transform="translate(0,-81.138004)" /><g
     id="g67"
     transform="translate(0,-81.138004)" /><g
     id="g69"
     transform="translate(0,-81.138004)" /><g
     id="g71"
     transform="translate(0,-81.138004)" /><path
     sodipodi:type="arc"
     style="fill:#666666;fill-opacity:0.19607843;stroke:none"
     id="path3011"
     sodipodi:cx="114.81169"
     sodipodi:cy="256.83313"
     sodipodi:rx="52.63485"
     sodipodi:ry="50.480209"
     d="m 167.44654,256.83313 a 52.63485,50.480209 0 1 1 -105.269698,0 52.63485,50.480209 0 1 1 105.269698,0 z"
     transform="matrix(1.1399292,0,0,1.1885847,254.78173,-53.029696)" /><path
     sodipodi:type="arc"
     style="fill:#666666;fill-opacity:0.19607843;stroke:none"
     id="path3011-3"
     sodipodi:cx="114.81169"
     sodipodi:cy="256.83313"
     sodipodi:rx="52.63485"
     sodipodi:ry="50.480209"
     d="m 167.44654,256.83313 a 52.63485,50.480209 0 1 1 -105.269698,0 52.63485,50.480209 0 1 1 105.269698,0 z"
     transform="matrix(1.1399292,0,0,1.1885847,-18.220144,-51.512847)" /></svg>