<?xml version="1.0" encoding="UTF-8" standalone="no"?>
<svg
   xmlns:dc="http://purl.org/dc/elements/1.1/"
   xmlns:cc="http://creativecommons.org/ns#"
   xmlns:rdf="http://www.w3.org/1999/02/22-rdf-syntax-ns#"
   xmlns:svg="http://www.w3.org/2000/svg"
   xmlns="http://www.w3.org/2000/svg"
   xmlns:xlink="http://www.w3.org/1999/xlink"
   xmlns:sodipodi="http://sodipodi.sourceforge.net/DTD/sodipodi-0.dtd"
   xmlns:inkscape="http://www.inkscape.org/namespaces/inkscape"
   viewBox="0 0 511.99999 511.99999"
   height="512"
   width="512"
   version="1.1"
   id="svg2"
   inkscape:version="0.48.5 r10040"
   sodipodi:docname="applications-office.svg">
  <sodipodi:namedview
     pagecolor="#ffffff"
     bordercolor="#666666"
     borderopacity="1"
     objecttolerance="10"
     gridtolerance="10"
     guidetolerance="10"
     inkscape:pageopacity="0"
     inkscape:pageshadow="2"
     inkscape:window-width="1366"
     inkscape:window-height="716"
     id="namedview18"
     showgrid="false"
     inkscape:zoom="0.28726213"
     inkscape:cx="-21.584043"
     inkscape:cy="314.81373"
     inkscape:window-x="0"
     inkscape:window-y="0"
     inkscape:window-maximized="1"
     inkscape:current-layer="svg2" />
  <metadata
     id="metadata8">
    <rdf:RDF>
      <cc:Work
         rdf:about="">
        <dc:format>image/svg+xml</dc:format>
        <dc:type
           rdf:resource="http://purl.org/dc/dcmitype/StillImage" />
        <dc:title />
      </cc:Work>
    </rdf:RDF>
  </metadata>
  <defs
     id="defs6">
    <filter
       height="1.096"
       y="-0.048"
       width="1.096"
       x="-0.048"
       id="filter4329"
       style="color-interpolation-filters:sRGB">
      <feGaussianBlur
         id="feGaussianBlur4331"
         stdDeviation="2.1324205" />
    </filter>
    <filter
       height="1.0327445"
       y="-0.016372267"
       width="1.0399742"
       x="-0.019987123"
       id="filter4376"
       style="color-interpolation-filters:sRGB">
      <feGaussianBlur
         id="feGaussianBlur4378"
         stdDeviation="1.1736058" />
    </filter>
    <filter
       height="1.0570984"
       y="-0.0285492"
       width="1.0632123"
       x="-0.031606145"
       id="filter4436"
       style="color-interpolation-filters:sRGB">
      <feGaussianBlur
         id="feGaussianBlur4438"
         stdDeviation="0.63519096" />
    </filter>
    <linearGradient
       x1="16.541649"
       y1="144.70755"
       x2="-24.629177"
       y2="-0.77768874"
       id="linearGradient3504"
       xlink:href="#linearGradient3526"
       gradientUnits="userSpaceOnUse"
       gradientTransform="matrix(0.6969214,-0.3124156,0.3124156,0.6969214,29.229254,21.999738)" />
    <linearGradient
       id="linearGradient3526">
      <stop
         id="stop3528"
         style="stop-color:#006e29;stop-opacity:1"
         offset="0" />
      <stop
         id="stop3530"
         style="stop-color:#77b753;stop-opacity:1"
         offset="1" />
    </linearGradient>
  </defs>
  <rect
     style="fill:#a05a2c;fill-opacity:1;stroke:none"
     id="rect3003"
     width="381.21548"
     height="450"
     x="60"
     y="36.999992"
     ry="35.583622"
     rx="31.491711" />
  <path
     style="fill:#ffffff;stroke:none"
     d="m 80.407525,52.216648 c -2.691647,3.309991 -2.262269,7.680306 -2.262269,7.680306 l 0.07919,374.090416 0.0054,27.42556 c 0,0 -0.176685,4.28946 1.814739,6.52615 1.991585,2.23668 6.733317,2.44649 6.733317,2.44649 l 328.436238,-0.0162 c 0,0 5.50157,0.3022 7.97608,-1.86521 2.47451,-2.16736 2.25797,-6.98472 2.25797,-6.98472 L 425.32287,71.748593 c 0,0 1.30008,-10.663618 -5.0487,-16.876529 -6.34877,-6.212909 -17.70398,-4.682984 -17.70398,-4.682984 l -315.015,-0.749513 c 0,0 -4.456342,-0.530054 -7.147934,2.779667 z"
     id="path3773"
     inkscape:connector-curvature="0"
     sodipodi:nodetypes="cccczcczcczcczc" />
  <rect
     style="fill:#ebebeb;fill-opacity:1;stroke:none"
     id="rect3001-3-7"
     width="104.30769"
     height="5.8461537"
     x="121.46871"
     y="136.83124"
     ry="0" />
  <rect
     style="fill:#ebebeb;fill-opacity:1;stroke:none"
     id="rect3001-6-5"
     width="251.38461"
     height="5.8461537"
     x="120.23795"
     y="94.898399"
     ry="0" />
  <rect
     style="fill:#ebebeb;fill-opacity:1;stroke:none"
     id="rect3001-6-5-7-3"
     width="251.38461"
     height="5.8461537"
     x="122.33899"
     y="361.58691"
     ry="0" />
  <rect
     style="fill:#ebebeb;fill-opacity:1;stroke:none"
     id="rect3001-3-7-3-5-5"
     width="158.26408"
     height="5.8461537"
     x="122.33899"
     y="404.18417"
     ry="0" />
  <g
     id="g3961"
     transform="matrix(0.36771084,0,0,0.36771084,44.125535,34.786262)">
    <rect
       transform="matrix(0,1,-1,0,0,0)"
       rx="21.248234"
       ry="30.048391"
       y="-902"
       x="222.39226"
       height="380"
       width="257.21548"
       id="rect3003-3"
       style="fill:#394050;fill-opacity:1;stroke:none" />
    <path
       sodipodi:nodetypes="cccczcczcczcczc"
       inkscape:connector-curvature="0"
       id="path3773-6"
       d="m 888.29277,234.78694 c -2.79892,-1.83146 -6.49446,-1.5393 -6.49446,-1.5393 l -316.32985,0.0539 -23.19098,0.003 c 0,0 -3.62715,-0.12022 -5.51849,1.23479 -1.89134,1.35512 -2.06875,4.5815 -2.06875,4.5815 l 0.0137,223.47507 c 0,0 -0.25554,3.74338 1.57722,5.42709 1.83271,1.68371 5.90625,1.53638 5.90625,1.53638 l 329.58919,-0.0853 c 0,0 9.01713,0.88461 14.27075,-3.43524 5.25362,-4.31984 3.95992,-12.04617 3.95992,-12.04617 l 0.63379,-214.34297 c 0,0 0.44821,-3.03219 -2.35048,-4.86361 z"
       style="fill:#ffffff;stroke:none" />
    <path
       inkscape:connector-curvature="0"
       id="path17"
       d="m 725.57105,429.05271 h -28.24922 c -3.90017,0 -7.06271,-3.16254 -7.06271,-7.06271 V 308.99229 c 0,-3.90017 3.16254,-7.0627 7.06271,-7.0627 h 28.24922 c 3.90017,0 7.06271,3.16253 7.06271,7.0627 V 421.99 c 0,3.90017 -3.16254,7.06271 -7.06271,7.06271 z"
       style="fill:#ffcc00" />
    <path
       inkscape:connector-curvature="0"
       id="path21"
       d="m 662.00989,429.05271 h -28.24922 c -3.90017,0 -7.06271,-3.16254 -7.06271,-7.06271 v -77.68577 c 0,-3.90017 3.16254,-7.06271 7.06271,-7.06271 h 28.24922 c 3.90017,0 7.06271,3.16254 7.06271,7.06271 V 421.99 c 0,3.90017 -3.16254,7.06271 -7.06271,7.06271 z"
       style="fill:#f03916;fill-opacity:1" />
    <path
       inkscape:connector-curvature="0"
       id="path25"
       d="m 598.44874,429.05271 h -28.24922 c -3.90017,0 -7.06271,-3.16254 -7.06271,-7.06271 v -42.37464 c 0,-3.90017 3.16254,-7.06271 7.06271,-7.06271 h 28.24922 c 3.90016,0 7.0627,3.16254 7.0627,7.06271 V 421.99 c -7.9e-4,3.90017 -3.16254,7.06271 -7.0627,7.06271 z"
       style="fill:#004455" />
    <path
       inkscape:connector-curvature="0"
       id="path29"
       d="m 789.1322,429.05271 h -28.24921 c -3.90017,0 -7.06271,-3.16254 -7.06271,-7.06271 v -77.68577 c 0,-3.90017 3.16254,-7.06271 7.06271,-7.06271 h 28.24921 c 3.90017,0 7.06271,3.16254 7.06271,7.06271 V 421.99 c 0,3.90017 -3.16254,7.06271 -7.06271,7.06271 z"
       style="fill:#45d03f;fill-opacity:1" />
    <path
       inkscape:connector-curvature="0"
       id="path33"
       d="m 852.69415,429.05271 h -28.24922 c -3.90016,0 -7.0627,-3.16254 -7.0627,-7.06271 V 266.61766 c 0,-3.90017 3.16254,-7.0627 7.0627,-7.0627 h 28.24922 c 3.90017,0 7.06271,3.16253 7.06271,7.0627 V 421.99 c -8e-4,3.90017 -3.16254,7.06271 -7.06271,7.06271 z"
       style="fill:#00bbf2;fill-opacity:1" />
    <path
       inkscape:connector-curvature="0"
       id="path37"
       d="M 873.88067,436.11381 H 549.0122 c -3.90017,0 -7.06271,-3.16254 -7.06271,-7.06271 l 0,0 c 0,-3.90017 3.16254,-7.0627 7.06271,-7.0627 h 324.86927 c 3.90017,0 7.06271,3.16253 7.06271,7.0627 l 0,0 c -8e-4,3.90177 -3.16254,7.06271 -7.06351,7.06271 z"
       style="fill:#394050" />
  </g>
  <g
     id="g3028"
     transform="translate(3.6923076,60.307691)">
    <rect
       y="191.77153"
       x="129.04166"
       height="96.456932"
       width="233.35408"
       id="rect3771-5-9-7"
       style="fill:#45d03f;fill-opacity:1;stroke:none" />
    <rect
       y="198.03642"
       x="135.91016"
       height="22.821951"
       width="49.310349"
       id="rect3771-5-9"
       style="fill:#aade87;fill-opacity:1;stroke:none" />
    <rect
       y="198.03642"
       x="192.80672"
       height="22.821951"
       width="49.310349"
       id="rect3771-7-6-3"
       style="fill:#aade87;fill-opacity:1;stroke:none" />
    <rect
       y="198.03642"
       x="249.70329"
       height="22.821951"
       width="49.310349"
       id="rect3771-7-5-2-6"
       style="fill:#aade87;fill-opacity:1;stroke:none" />
    <rect
       y="198.03642"
       x="306.59982"
       height="22.821951"
       width="49.310349"
       id="rect3771-7-5-3-9-0"
       style="fill:#aade87;fill-opacity:1;stroke:none" />
    <rect
       y="228.68993"
       x="136.39751"
       height="22.821951"
       width="49.310349"
       id="rect3771-6"
       style="fill:#aade87;fill-opacity:1;stroke:none" />
    <rect
       y="228.68993"
       x="193.29405"
       height="22.821951"
       width="49.310349"
       id="rect3771-7-26"
       style="fill:#aade87;fill-opacity:1;stroke:none" />
    <rect
       y="228.68993"
       x="250.1906"
       height="22.821951"
       width="49.310349"
       id="rect3771-7-5-1"
       style="fill:#aade87;fill-opacity:1;stroke:none" />
    <rect
       y="228.68993"
       x="307.08716"
       height="22.821951"
       width="49.310349"
       id="rect3771-7-5-3-8"
       style="fill:#aade87;fill-opacity:1;stroke:none" />
    <rect
       y="259.1416"
       x="136.39751"
       height="22.821951"
       width="49.310349"
       id="rect3771-5-7"
       style="fill:#aade87;fill-opacity:1;stroke:none" />
    <rect
       y="259.1416"
       x="193.29405"
       height="22.821951"
       width="49.310349"
       id="rect3771-7-6-9"
       style="fill:#aade87;fill-opacity:1;stroke:none" />
    <rect
       y="259.1416"
       x="250.19063"
       height="22.821951"
       width="49.310349"
       id="rect3771-7-5-2-2"
       style="fill:#aade87;fill-opacity:1;stroke:none" />
    <rect
       y="259.1416"
       x="307.08719"
       height="22.821951"
       width="49.310349"
       id="rect3771-7-5-3-9-02"
       style="fill:#aade87;fill-opacity:1;stroke:none" />
  </g>
  <rect
     style="fill:#ebebeb;fill-opacity:1;stroke:none"
     id="rect3001-6-5-3"
     width="251.38461"
     height="5.8461537"
     x="121.69231"
     y="218.61539"
     ry="0" />
  <g
     id="g3038">
    <path
       sodipodi:nodetypes="cccc"
       inkscape:connector-curvature="0"
       id="path3868"
       d="M 283.3363,410.17303 315.75041,382.11838 289.1789,368.41087 z"
       style="fill:#666666;stroke:none" />
    <path
       sodipodi:nodetypes="cccc"
       inkscape:connector-curvature="0"
       id="path3868-3"
       d="m 283.30521,410.16958 8.9691,-7.76283 -7.31049,-3.99188 z"
       style="fill:#ebebeb;stroke:none" />
    <path
       sodipodi:nodetypes="ccccc"
       inkscape:connector-curvature="0"
       id="path3888"
       d="m 289.19875,368.47329 136.59226,-236.2032 25.35008,15.80652 -135.99577,234.33925 z"
       style="fill:#394050;fill-opacity:1;stroke:none" />
    <path
       sodipodi:nodetypes="ccccc"
       inkscape:connector-curvature="0"
       id="path3888-6"
       d="m 418.0797,145.52352 17.96872,-31.24029 25.72286,15.80652 -17.8196,30.56928 z"
       style="fill:#666666;fill-opacity:1;stroke:none" />
    <path
       inkscape:connector-curvature="0"
       id="path3803"
       d="m 411.15317,162.1592 -17.36476,6.94591 -34.72952,60.42937"
       style="fill:none;stroke:#394050;stroke-width:6.38494539;stroke-linecap:butt;stroke-linejoin:miter;stroke-miterlimit:4;stroke-opacity:1;stroke-dasharray:none" />
  </g>
  <rect
     style="fill:#ebebeb;fill-opacity:1;stroke:none"
     id="rect3001-3-7-6"
     width="104.30769"
     height="5.8461537"
     x="121.38461"
     y="179.23076"
     ry="0" />
</svg>
