<?xml version="1.0" encoding="UTF-8" standalone="no"?>
<!-- Created with Inkscape (http://www.inkscape.org/) -->

<svg
   xmlns:dc="http://purl.org/dc/elements/1.1/"
   xmlns:cc="http://creativecommons.org/ns#"
   xmlns:rdf="http://www.w3.org/1999/02/22-rdf-syntax-ns#"
   xmlns:svg="http://www.w3.org/2000/svg"
   xmlns="http://www.w3.org/2000/svg"
   xmlns:sodipodi="http://sodipodi.sourceforge.net/DTD/sodipodi-0.dtd"
   xmlns:inkscape="http://www.inkscape.org/namespaces/inkscape"
   width="500"
   height="500"
   id="svg2"
   version="1.1"
   inkscape:version="0.91 r13725"
   sodipodi:docname="android-package-archive.svg">
  <defs
     id="defs4" />
  <sodipodi:namedview
     id="base"
     pagecolor="#ffffff"
     bordercolor="#666666"
     borderopacity="1.0"
     inkscape:pageopacity="0.0"
     inkscape:pageshadow="2"
     inkscape:zoom="0.4289781"
     inkscape:cx="679.76398"
     inkscape:cy="34.337008"
     inkscape:document-units="px"
     inkscape:current-layer="layer1"
     showgrid="false"
     inkscape:window-width="1366"
     inkscape:window-height="711"
     inkscape:window-x="0"
     inkscape:window-y="0"
     inkscape:window-maximized="1" />
  <metadata
     id="metadata7">
    <rdf:RDF>
      <cc:Work
         rdf:about="">
        <dc:format>image/svg+xml</dc:format>
        <dc:type
           rdf:resource="http://purl.org/dc/dcmitype/StillImage" />
        <dc:title />
      </cc:Work>
    </rdf:RDF>
  </metadata>
  <g
     inkscape:label="Layer 1"
     inkscape:groupmode="layer"
     id="layer1"
     transform="translate(0,-552.36218)">
    <g
       id="g4273"
       transform="matrix(1.0070921,0,0,1.0070921,-815.02256,-7.6873376)">
      <path
         sodipodi:nodetypes="ccccc"
         inkscape:connector-curvature="0"
         id="path4230"
         d="m 871.87807,708.87225 52.84725,51.73168 -1.64836,-72.52748 -51.23757,-0.24337 z"
         style="fill:#165016;fill-rule:evenodd;stroke:none;stroke-width:1px;stroke-linecap:butt;stroke-linejoin:miter;stroke-opacity:1" />
      <path
         inkscape:connector-curvature="0"
         id="path3364"
         d="m 905.64064,1030.2166 334.51596,-1.1656 1.1655,-361.32384 -87.417,-88.58262 -248.26446,0 z"
         style="fill:#f2f2f2;fill-rule:evenodd;stroke:#afafaf;stroke-width:5;stroke-linecap:butt;stroke-linejoin:miter;stroke-miterlimit:4;stroke-dasharray:none;stroke-opacity:1" />
      <path
         sodipodi:nodetypes="cccc"
         inkscape:connector-curvature="0"
         id="path4166"
         d="m 1237.7633,665.89599 -81.5857,-0.58278 0.7532,-83.21335 z"
         style="fill:#afafaf;fill-opacity:1;fill-rule:evenodd;stroke:#afafaf;stroke-width:5;stroke-linecap:butt;stroke-linejoin:miter;stroke-miterlimit:4;stroke-dasharray:none;stroke-opacity:1" />
      <g
         style="fill:#45d03f;fill-opacity:1"
         transform="matrix(0.34984657,0,0,0.34984657,894.21693,658.35633)"
         id="Calque.__2030-3">
        <g
           style="fill:#45d03f;fill-opacity:1"
           id="shape83-1">
          <path
             style="fill:#45d03f;fill-opacity:1"
             inkscape:connector-curvature="0"
             d="m 738.55,197.55 q -16.1,0 -27.45,11.4 l -86.1,86.1 c -7.6,7.55 -11.4,16.7 -11.4,27.45 0,10.75 3.8,19.9 11.4,27.5 0.3,0.3 0.6,0.6 0.85,0.85 L 766.9,209.8 c -0.25,-0.25 -0.55,-0.55 -0.85,-0.85 -7.6,-7.6 -16.75,-11.4 -27.5,-11.4 z m -491.9,38.85 c 0,10.75 3.8,19.9 11.4,27.5 l 86.1,86.1 c 7.55,7.55 16.7,11.35 27.45,11.35 10.75,0 19.9,-3.8 27.5,-11.35 7.55,-7.6 11.35,-16.75 11.35,-27.5 0,-10.75 -3.8,-19.9 -11.35,-27.45 L 313,208.95 c -7.6,-7.6 -16.75,-11.4 -27.5,-11.4 -10.75,0 -19.9,3.8 -27.45,11.4 -7.6,7.55 -11.4,16.7 -11.4,27.45 z"
             id="path70-7" />
          <path
             style="fill:#45d03f;fill-opacity:1"
             inkscape:connector-curvature="0"
             d="m 766.05,263.9 c 7.55,-7.6 11.35,-16.75 11.35,-27.5 0,-10.35 -3.5,-19.2 -10.5,-26.6 L 625.85,350.85 c 7.4,7 16.25,10.5 26.6,10.5 10.75,0 19.9,-3.8 27.5,-11.35 l 86.1,-86.1 z"
             id="path71-1" />
        </g>
      </g>
      <path
         id="path3-4"
         d="m 1179.0095,862.68421 0,-2.09908 c -0.1574,-28.87983 -10.4779,-53.54401 -30.9439,-74.01004 -10.7753,-10.77527 -22.7225,-18.73428 -35.8243,-23.87703 -1.2944,-0.0525 -2.5889,-0.07 -3.9008,-0.07 -29.1772,0 -54.0863,10.32048 -74.7097,30.94393 -19.2941,19.29404 -29.5621,42.33144 -30.804,69.11219 l 176.1827,0 z"
         inkscape:connector-curvature="0"
         style="fill:#45d03f;fill-opacity:1" />
      <path
         id="path4-3"
         d="m 1179.0095,878.07746 0,-15.39325 -176.1827,0 c -0.053,1.15449 -0.105,2.32648 -0.1225,3.49847 l 0,11.89478 176.3052,0 z"
         inkscape:connector-curvature="0"
         style="fill:#394050;fill-opacity:1" />
      <path
         id="path5-4"
         d="m 1108.3405,762.62809 c 1.3119,0 2.6064,0.0175 3.9008,0.07 -11.9822,-4.70543 -24.9441,-7.0669 -38.8854,-7.0669 -29.1772,0 -54.0863,10.32048 -74.70977,30.94393 -20.13367,20.13367 -30.43665,44.32556 -30.92644,72.61065 l 0,1.57432 c -0.0175,0.17492 -0.0175,0.34984 -0.0175,0.52476 0,0.17493 0,0.34985 0.0175,0.52478 l 0,0.87461 35.10711,0 c 1.2419,-26.78075 11.5099,-49.81815 30.804,-69.11219 20.6234,-20.62345 45.5325,-30.94393 74.7097,-30.94393 z"
         inkscape:connector-curvature="0"
         style="fill:#45d03f;fill-opacity:1" />
      <path
         id="path6-2"
         d="m 1002.8268,862.68421 -35.10711,0 0,15.39325 34.98461,0 0,-11.89478 c 0.018,-1.17199 0.07,-2.34398 0.1225,-3.49847 z"
         inkscape:connector-curvature="0"
         style="fill:#394050;fill-opacity:1" />
      <path
         id="path7-9"
         d="m 1002.7043,878.07746 -34.98461,0 0,149.03464 34.98461,0 0,-149.03464 z"
         inkscape:connector-curvature="0"
         style="fill:#5d6a7b;fill-opacity:1" />
      <path
         id="path8-9"
         d="m 1002.7043,878.07746 0,149.03464 176.3052,0 0,-149.03464 -176.3052,0 z"
         inkscape:connector-curvature="0"
         style="fill:#5d6a7b;fill-opacity:1" />
      <g
         style="fill:#394050"
         transform="matrix(0.34984657,0,0,0.30582099,893.7371,685.54535)"
         id="shape14-7">
        <path
           style="fill:#394050;fill-opacity:1"
           inkscape:connector-curvature="0"
           d="m 688.4,730.7 q -14.65,-14.65 -35.35,-14.65 l -282,0 c -13.8,0 -25.6,4.9 -35.35,14.65 -9.75,9.75 -14.65,21.55 -14.65,35.35 l 0,302 c 0,13.8 4.9,25.6 14.65,35.35 9.75,9.75 21.55,14.65 35.35,14.65 l 282,0 c 13.8,0 25.6,-4.9 35.35,-14.65 9.75,-9.75 14.65,-21.55 14.65,-35.35 l 0,-302 c 0,-13.8 -4.9,-25.6 -14.65,-35.35 z"
           id="path9-6" />
      </g>
      <path
         style="fill:#000000;fill-opacity:0.29803922"
         inkscape:connector-curvature="0"
         d="m 1143.6925,820.7551 q 0,-8.41381 -5.9474,-14.3612 c -3.9532,-3.95327 -8.7287,-5.9299 -14.3437,-5.9299 -5.615,0 -10.3904,1.97663 -14.3612,5.9299 -3.9533,3.97076 -5.9299,8.74616 -5.9299,14.3612 0,5.61504 1.9766,10.39044 5.9299,14.34371 3.9708,3.97076 8.7462,5.94739 14.3612,5.94739 5.615,0 10.3905,-1.97663 14.3437,-5.94739 3.9708,-3.95327 5.9474,-8.72867 5.9474,-14.34371 z m -100.0911,-0.75217 c 0,-5.61504 -1.9766,-10.39044 -5.9474,-14.3612 -3.9532,-3.95327 -8.7287,-5.9299 -14.3437,-5.9299 -5.615,0 -10.3904,1.97663 -14.3612,5.9299 -3.9533,3.97076 -5.9299,8.74616 -5.9299,14.3612 0,5.61504 1.9766,10.39044 5.9299,14.34371 3.9708,3.97076 8.7462,5.94739 14.3612,5.94739 5.615,0 10.3905,-1.97663 14.3437,-5.94739 3.9708,-3.95327 5.9474,-8.72867 5.9474,-14.34371 z"
         id="path11-6" />
      <path
         style="fill:#ffffff;fill-opacity:1"
         inkscape:connector-curvature="0"
         d="m 1132.6723,812.30631 q -0.7178,-1.20768 -1.7842,-2.27401 c -2.169,-2.16905 -4.7929,-3.25357 -7.854,-3.25357 -3.0612,0 -5.685,1.08452 -7.8716,3.25357 -0.7172,0.71719 -1.2944,1.46936 -1.7667,2.27401 -0.9971,1.66177 -1.4868,3.53345 -1.4868,5.59754 0,3.06116 1.0845,5.68501 3.2535,7.85406 2.1866,2.18654 4.8104,3.27106 7.8716,3.27106 3.0611,0 5.685,-1.08452 7.854,-3.27106 2.1866,-2.16905 3.2711,-4.7929 3.2711,-7.85406 0,-2.06409 -0.4898,-3.93577 -1.4869,-5.59754 z m -100.3359,-0.34985 c -0.4723,-0.80465 -1.0671,-1.55682 -1.7843,-2.274 -2.169,-2.16905 -4.7929,-3.25357 -7.854,-3.25357 -3.0612,0 -5.685,1.08452 -7.8716,3.25357 -0.7172,0.71718 -1.2944,1.46935 -1.7667,2.274 -0.9971,1.66177 -1.4868,3.53345 -1.4868,5.59754 0,3.06116 1.0845,5.68501 3.2535,7.85406 2.1866,2.18654 4.8104,3.27107 7.8716,3.27107 3.0611,0 5.685,-1.08453 7.854,-3.27107 2.1866,-2.16905 3.2711,-4.7929 3.2711,-7.85406 0,-2.06409 -0.4898,-3.93577 -1.4868,-5.59754 z"
         id="path14-3" />
      <path
         style="fill:#ffffff;fill-opacity:1"
         inkscape:connector-curvature="0"
         d="m 1163.2664,884.54962 q -2.4664,0 -4.2156,1.73174 c -1.1545,1.17199 -1.7318,2.57137 -1.7318,4.21565 0,1.64428 0.5773,3.04367 1.7318,4.19816 1.172,1.17199 2.5713,1.74923 4.2156,1.74923 1.6443,0 3.0437,-0.57724 4.1982,-1.74923 1.172,-1.15449 1.7492,-2.55388 1.7492,-4.19816 0,-1.64428 -0.5772,-3.04366 -1.7492,-4.21565 -1.1545,-1.15449 -2.5539,-1.73174 -4.1982,-1.73174 z m -39.795,5.94739 c 0,-1.64428 -0.5773,-3.04366 -1.7493,-4.21565 -1.1544,-1.15449 -2.5538,-1.73174 -4.1981,-1.73174 -1.6443,0 -3.0437,0.57725 -4.2157,1.73174 -1.1545,1.17199 -1.7317,2.57137 -1.7317,4.21565 0,1.64428 0.5772,3.04367 1.7317,4.19816 1.172,1.17199 2.5714,1.74923 4.2157,1.74923 1.6443,0 3.0437,-0.57724 4.1981,-1.74923 1.172,-1.15449 1.7493,-2.55388 1.7493,-4.19816 z m -143.17473,5.94739 c 1.64428,0 3.04367,-0.57724 4.19816,-1.74923 1.17199,-1.15449 1.74923,-2.55388 1.74923,-4.19816 0,-1.64428 -0.57724,-3.04366 -1.74923,-4.21565 -1.15449,-1.15449 -2.55388,-1.73174 -4.19816,-1.73174 -1.64427,0 -3.04366,0.57725 -4.21565,1.73174 -1.15449,1.17199 -1.73174,2.57137 -1.73174,4.21565 0,1.64428 0.57725,3.04367 1.73174,4.19816 1.17199,1.17199 2.57138,1.74923 4.21565,1.74923 z m 45.74243,-11.89478 c -1.6443,0 -3.0437,0.57725 -4.2156,1.73174 -1.1545,1.17199 -1.7318,2.57137 -1.7318,4.21565 0,1.64428 0.5773,3.04367 1.7318,4.19816 1.1719,1.17199 2.5713,1.74923 4.2156,1.74923 1.6443,0 3.0437,-0.57724 4.1982,-1.74923 1.172,-1.15449 1.7492,-2.55388 1.7492,-4.19816 0,-1.64428 -0.5772,-3.04366 -1.7492,-4.21565 -1.1545,-1.15449 -2.5539,-1.73174 -4.1982,-1.73174 z m 51.6898,5.94739 c 0,-1.64428 -0.5772,-3.04366 -1.7492,-4.21565 -1.1545,-1.15449 -2.5539,-1.73174 -4.1981,-1.73174 -1.6443,0 -3.0437,0.57725 -4.2157,1.73174 -1.1545,1.17199 -1.7317,2.57137 -1.7317,4.21565 0,1.64428 0.5772,3.04367 1.7317,4.19816 1.172,1.17199 2.5714,1.74923 4.2157,1.74923 1.6442,0 3.0436,-0.57724 4.1981,-1.74923 1.172,-1.15449 1.7492,-2.55388 1.7492,-4.19816 z"
         id="path26-1" />
      <rect
         y="625.43909"
         x="871.97803"
         height="83.756866"
         width="223.35165"
         id="rect4228"
         style="fill:#217821;fill-opacity:1;stroke:none;stroke-width:5;stroke-miterlimit:4;stroke-dasharray:none;stroke-opacity:1" />
      <g
         id="g4265">
        <path
           style="fill:none;fill-rule:evenodd;stroke:#ffffff;stroke-width:9;stroke-linecap:butt;stroke-linejoin:bevel;stroke-miterlimit:4;stroke-dasharray:none;stroke-opacity:1"
           d="m 915.69362,696.28339 22.14565,-58.27803 22.72843,58.27803"
           id="path4255"
           inkscape:connector-curvature="0" />
        <path
           style="fill:none;fill-rule:evenodd;stroke:#ffffff;stroke-width:9;stroke-linecap:butt;stroke-linejoin:miter;stroke-miterlimit:4;stroke-dasharray:none;stroke-opacity:1"
           d="m 924.58101,676.76025 25.78803,0"
           id="path4257"
           inkscape:connector-curvature="0" />
      </g>
      <path
         sodipodi:nodetypes="cczc"
         inkscape:connector-curvature="0"
         id="path4259"
         d="m 976.6484,695.70008 0,-56.04396 c 0,0 30.6018,-5.9 30.4945,14.21703 -0.1073,20.11703 -29.87637,14.62912 -29.87637,14.62912"
         style="fill:none;fill-rule:evenodd;stroke:#ffffff;stroke-width:9;stroke-linecap:butt;stroke-linejoin:miter;stroke-miterlimit:4;stroke-dasharray:none;stroke-opacity:1" />
      <g
         id="g4269">
        <path
           style="fill:none;fill-rule:evenodd;stroke:#ffffff;stroke-width:9;stroke-linecap:butt;stroke-linejoin:miter;stroke-miterlimit:4;stroke-dasharray:none;stroke-opacity:1"
           d="m 1024.6566,695.90612 0.4121,-59.95879"
           id="path4261"
           inkscape:connector-curvature="0" />
        <path
           style="fill:none;fill-rule:evenodd;stroke:#ffffff;stroke-width:9;stroke-linecap:butt;stroke-linejoin:round;stroke-miterlimit:4;stroke-dasharray:none;stroke-opacity:1"
           d="m 1059.272,636.56546 -28.022,26.99176 30.2885,31.11264"
           id="path4263"
           inkscape:connector-curvature="0" />
      </g>
    </g>
  </g>
</svg>
