<?xml version="1.0" encoding="UTF-8" standalone="no"?>
<!-- Created with Inkscape (http://www.inkscape.org/) -->

<svg
   xmlns:dc="http://purl.org/dc/elements/1.1/"
   xmlns:cc="http://creativecommons.org/ns#"
   xmlns:rdf="http://www.w3.org/1999/02/22-rdf-syntax-ns#"
   xmlns:svg="http://www.w3.org/2000/svg"
   xmlns="http://www.w3.org/2000/svg"
   xmlns:sodipodi="http://sodipodi.sourceforge.net/DTD/sodipodi-0.dtd"
   xmlns:inkscape="http://www.inkscape.org/namespaces/inkscape"
   width="500"
   height="500"
   id="svg2"
   version="1.1"
   inkscape:version="0.48.5 r10040"
   sodipodi:docname="application-pgp.svg">
  <defs
     id="defs4" />
  <sodipodi:namedview
     id="base"
     pagecolor="#ffffff"
     bordercolor="#666666"
     borderopacity="1.0"
     inkscape:pageopacity="0.0"
     inkscape:pageshadow="2"
     inkscape:zoom="0.42897811"
     inkscape:cx="175.2859"
     inkscape:cy="212.88927"
     inkscape:document-units="px"
     inkscape:current-layer="layer1"
     showgrid="false"
     inkscape:window-width="1366"
     inkscape:window-height="716"
     inkscape:window-x="0"
     inkscape:window-y="0"
     inkscape:window-maximized="1" />
  <metadata
     id="metadata7">
    <rdf:RDF>
      <cc:Work
         rdf:about="">
        <dc:format>image/svg+xml</dc:format>
        <dc:type
           rdf:resource="http://purl.org/dc/dcmitype/StillImage" />
        <dc:title />
      </cc:Work>
    </rdf:RDF>
  </metadata>
  <g
     inkscape:label="Layer 1"
     inkscape:groupmode="layer"
     id="layer1"
     transform="translate(0,-552.36218)">
    <rect
       style="fill:#ffffff;fill-opacity:1;stroke:none"
       id="rect3000"
       width="450"
       height="450"
       x="25"
       y="577.36218"
       ry="55.366497" />
    <path
       style="fill:#a05a2c;stroke:none;stroke-width:1px;stroke-linecap:butt;stroke-linejoin:miter;stroke-opacity:1;fill-opacity:1"
       d="M 100,475 100,25 C 100,25 61.202184,19.758699 40.940323,41.934658 20.678462,64.110616 25,90.3 25,90.3 L 25,410 c 0,0 -3.104929,34.44943 20.038287,52.1379 C 68.181502,479.82637 100,475 100,475 z"
       id="path3770"
       inkscape:connector-curvature="0"
       transform="translate(0,552.36218)"
       sodipodi:nodetypes="cczcczc" />
    <rect
       style="fill:#a05a2c;fill-opacity:1;stroke:none"
       id="rect3003"
       width="254.14366"
       height="300"
       x="145.57607"
       y="727.36218"
       ry="23.722414"
       rx="20.994474" />
    <path
       style="fill:#ffffff;stroke:none"
       d="m 159.18108,737.50664 c -1.79443,2.20666 -1.50818,5.1202 -1.50818,5.1202 l 0.0528,249.39362 0.004,18.28374 c 0,0 -0.1178,2.8596 1.20982,4.3508 1.32773,1.4911 4.48888,1.631 4.48888,1.631 l 218.95749,-0.011 c 0,0 3.66772,0.2014 5.31739,-1.2435 1.64967,-1.4449 1.50531,-4.6565 1.50531,-4.6565 l -0.5385,-200.25143 -74.30936,-74.19631 -150.41416,-0.27221 c 0,0 -2.97089,-0.35336 -4.76528,1.85311 z"
       id="path3773"
       inkscape:connector-curvature="0"
       sodipodi:nodetypes="cccczcczcccczc" />
    <path
       style="fill:#cccccc;stroke:none"
       d="m 314.22051,735.84307 c 0,0 5.6053,8.75575 8.28729,17.26522 2.68198,8.50947 3.05266,23.44252 3.03865,31.49171 -0.0143,8.04919 -1.65745,16.57457 -1.65745,16.57457 0,0 14.64276,-1.76465 24.44753,-0.69061 9.80473,1.07404 17.72453,2.51926 24.72374,4.55804 6.99924,2.03874 16.0221,5.52482 16.0221,5.52482 z"
       id="path3775"
       inkscape:connector-curvature="0"
       sodipodi:nodetypes="czzczzcc" />
    <path
       sodipodi:type="arc"
       style="fill:#394050;fill-opacity:1;stroke:none"
       id="path3777"
       sodipodi:cx="302.9231"
       sodipodi:cy="305.15384"
       sodipodi:rx="3.2307694"
       sodipodi:ry="3.3846154"
       d="m 306.15387,305.15384 c 0,1.86927 -1.44647,3.38461 -3.23077,3.38461 -1.78431,0 -3.23077,-1.51534 -3.23077,-3.38461 0,-1.86927 1.44646,-3.38462 3.23077,-3.38462 1.7843,0 3.23077,1.51535 3.23077,3.38462 z"
       transform="matrix(3.8904233,0,0,3.7135861,-1002.0169,-372.0442)" />
    <path
       style="fill:#cccccc;stroke:none"
       d="m 131.35569,769.04374 45.58008,0 c 0,0 6.70344,-0.57872 6.5608,-7.18236 -0.14257,-6.6036 -6.90609,-7.45851 -6.90609,-7.45851 l -45.78728,0.27616 c 0,0 -5.93084,1.2837 -5.8011,7.45855 0.12965,6.17485 6.35359,6.90624 6.35359,6.90624 z"
       id="path3779"
       inkscape:connector-curvature="0"
       sodipodi:nodetypes="cczcczc" />
    <path
       sodipodi:type="arc"
       style="fill:#394050;fill-opacity:1;stroke:none"
       id="path3777-3"
       sodipodi:cx="302.9231"
       sodipodi:cy="305.15384"
       sodipodi:rx="3.2307694"
       sodipodi:ry="3.3846154"
       d="m 306.15387,305.15384 c 0,1.86927 -1.44647,3.38461 -3.23077,3.38461 -1.78431,0 -3.23077,-1.51534 -3.23077,-3.38461 0,-1.86927 1.44646,-3.38462 3.23077,-3.38462 1.7843,0 3.23077,1.51535 3.23077,3.38462 z"
       transform="matrix(3.8904233,0,0,3.7135861,-1001.727,-339.82563)" />
    <path
       style="fill:#cccccc;stroke:none"
       d="m 131.6455,801.2623 45.58008,0 c 0,0 6.70345,-0.57871 6.56081,-7.18236 -0.14258,-6.6036 -6.9061,-7.45851 -6.9061,-7.45851 l -45.78729,0.27615 c 0,0 -5.93084,1.2837 -5.80109,7.45856 0.12964,6.17487 6.35359,6.90623 6.35359,6.90623 z"
       id="path3779-6"
       inkscape:connector-curvature="0"
       sodipodi:nodetypes="cczcczc" />
    <path
       sodipodi:type="arc"
       style="fill:#394050;fill-opacity:1;stroke:none"
       id="path3777-7"
       sodipodi:cx="302.9231"
       sodipodi:cy="305.15384"
       sodipodi:rx="3.2307694"
       sodipodi:ry="3.3846154"
       d="m 306.15387,305.15384 c 0,1.86927 -1.44647,3.38461 -3.23077,3.38461 -1.78431,0 -3.23077,-1.51534 -3.23077,-3.38461 0,-1.86927 1.44646,-3.38462 3.23077,-3.38462 1.7843,0 3.23077,1.51535 3.23077,3.38462 z"
       transform="matrix(3.8904233,0,0,3.7135861,-1001.4813,-307.88297)" />
    <path
       style="fill:#cccccc;stroke:none"
       d="m 131.89124,833.20499 45.58008,0 c 0,0 6.70344,-0.57872 6.5608,-7.18236 -0.14257,-6.6036 -6.90608,-7.45851 -6.90608,-7.45851 l -45.7873,0.27616 c 0,0 -5.93083,1.28369 -5.80108,7.45855 0.12963,6.17485 6.35358,6.90623 6.35358,6.90623 z"
       id="path3779-5"
       inkscape:connector-curvature="0"
       sodipodi:nodetypes="cczcczc" />
    <path
       sodipodi:type="arc"
       style="fill:#394050;fill-opacity:1;stroke:none"
       id="path3777-3-3"
       sodipodi:cx="302.9231"
       sodipodi:cy="305.15384"
       sodipodi:rx="3.2307694"
       sodipodi:ry="3.3846154"
       d="m 306.15387,305.15384 c 0,1.86927 -1.44647,3.38461 -3.23077,3.38461 -1.78431,0 -3.23077,-1.51534 -3.23077,-3.38461 0,-1.86927 1.44646,-3.38462 3.23077,-3.38462 1.7843,0 3.23077,1.51535 3.23077,3.38462 z"
       transform="matrix(3.8904233,0,0,3.7135861,-1001.1914,-275.66433)" />
    <path
       style="fill:#cccccc;stroke:none"
       d="m 132.18105,865.42354 45.58008,0 c 0,0 6.70344,-0.5787 6.56079,-7.18235 -0.14256,-6.6036 -6.90608,-7.45851 -6.90608,-7.45851 l -45.7873,0.27615 c 0,0 -5.93083,1.2837 -5.80108,7.45856 0.12964,6.17486 6.35359,6.90623 6.35359,6.90623 z"
       id="path3779-6-5"
       inkscape:connector-curvature="0"
       sodipodi:nodetypes="cczcczc" />
    <path
       sodipodi:type="arc"
       style="fill:#394050;fill-opacity:1;stroke:none"
       id="path3777-6"
       sodipodi:cx="302.9231"
       sodipodi:cy="305.15384"
       sodipodi:rx="3.2307694"
       sodipodi:ry="3.3846154"
       d="m 306.15387,305.15384 c 0,1.86927 -1.44647,3.38461 -3.23077,3.38461 -1.78431,0 -3.23077,-1.51534 -3.23077,-3.38461 0,-1.86927 1.44646,-3.38462 3.23077,-3.38462 1.7843,0 3.23077,1.51535 3.23077,3.38462 z"
       transform="matrix(3.8904233,0,0,3.7135861,-1001.3337,-243.51784)" />
    <path
       style="fill:#cccccc;stroke:none"
       d="m 132.0387,897.57011 45.58008,0 c 0,0 6.70343,-0.57872 6.56079,-7.18236 -0.14256,-6.60361 -6.90608,-7.45851 -6.90608,-7.45851 l -45.7873,0.27616 c 0,0 -5.93083,1.28369 -5.80108,7.45854 0.12964,6.17486 6.35359,6.90624 6.35359,6.90624 z"
       id="path3779-2"
       inkscape:connector-curvature="0"
       sodipodi:nodetypes="cczcczc" />
    <path
       sodipodi:type="arc"
       style="fill:#394050;fill-opacity:1;stroke:none"
       id="path3777-3-9"
       sodipodi:cx="302.9231"
       sodipodi:cy="305.15384"
       sodipodi:rx="3.2307694"
       sodipodi:ry="3.3846154"
       d="m 306.15387,305.15384 c 0,1.86927 -1.44647,3.38461 -3.23077,3.38461 -1.78431,0 -3.23077,-1.51534 -3.23077,-3.38461 0,-1.86927 1.44646,-3.38462 3.23077,-3.38462 1.7843,0 3.23077,1.51535 3.23077,3.38462 z"
       transform="matrix(3.8904233,0,0,3.7135861,-1001.0438,-211.29921)" />
    <path
       style="fill:#cccccc;stroke:none"
       d="m 132.32851,929.78866 45.58007,0 c 0,0 6.70345,-0.57872 6.5608,-7.18235 -0.14257,-6.6036 -6.90608,-7.45852 -6.90608,-7.45852 l -45.7873,0.27617 c 0,0 -5.93083,1.28369 -5.80108,7.45854 0.12963,6.17486 6.35359,6.90624 6.35359,6.90624 z"
       id="path3779-6-1"
       inkscape:connector-curvature="0"
       sodipodi:nodetypes="cczcczc" />
    <path
       sodipodi:type="arc"
       style="fill:#394050;fill-opacity:1;stroke:none"
       id="path3777-7-2"
       sodipodi:cx="302.9231"
       sodipodi:cy="305.15384"
       sodipodi:rx="3.2307694"
       sodipodi:ry="3.3846154"
       d="m 306.15387,305.15384 c 0,1.86927 -1.44647,3.38461 -3.23077,3.38461 -1.78431,0 -3.23077,-1.51534 -3.23077,-3.38461 0,-1.86927 1.44646,-3.38462 3.23077,-3.38462 1.7843,0 3.23077,1.51535 3.23077,3.38462 z"
       transform="matrix(3.8904233,0,0,3.7135861,-1000.7981,-179.35653)" />
    <path
       style="fill:#cccccc;stroke:none"
       d="m 132.57424,961.73136 45.58008,0 c 0,0 6.70345,-0.57872 6.56081,-7.18236 -0.14257,-6.60361 -6.90609,-7.45852 -6.90609,-7.45852 l -45.78729,0.27617 c 0,0 -5.93084,1.28369 -5.8011,7.45854 0.12965,6.17486 6.35359,6.90623 6.35359,6.90623 z"
       id="path3779-5-7"
       inkscape:connector-curvature="0"
       sodipodi:nodetypes="cczcczc" />
    <path
       sodipodi:type="arc"
       style="fill:#394050;fill-opacity:1;stroke:none"
       id="path3777-3-3-0"
       sodipodi:cx="302.9231"
       sodipodi:cy="305.15384"
       sodipodi:rx="3.2307694"
       sodipodi:ry="3.3846154"
       d="m 306.15387,305.15384 c 0,1.86927 -1.44647,3.38461 -3.23077,3.38461 -1.78431,0 -3.23077,-1.51534 -3.23077,-3.38461 0,-1.86927 1.44646,-3.38462 3.23077,-3.38462 1.7843,0 3.23077,1.51535 3.23077,3.38462 z"
       transform="matrix(3.8904233,0,0,3.7135861,-1000.5083,-147.13797)" />
    <path
       style="fill:#cccccc;stroke:none"
       d="m 132.86405,993.94991 45.58008,0 c 0,0 6.70344,-0.57872 6.5608,-7.18235 -0.14256,-6.60361 -6.90609,-7.45852 -6.90609,-7.45852 l -45.78729,0.27616 c 0,0 -5.93084,1.2837 -5.80109,7.45855 0.12965,6.17486 6.35359,6.90624 6.35359,6.90624 z"
       id="path3779-6-5-9"
       inkscape:connector-curvature="0"
       sodipodi:nodetypes="cczcczc" />
    <g
       id="g3080"
       transform="matrix(0.85795046,0,0,0.85795046,44.418736,134.69282)">
      <path
         sodipodi:nodetypes="cccc"
         inkscape:connector-curvature="0"
         id="path3868"
         d="m 279.90797,1030.2633 31.58802,-27.3396 -25.89433,-13.35822 z"
         style="fill:#e9ddaf;stroke:none" />
      <path
         sodipodi:nodetypes="cccc"
         inkscape:connector-curvature="0"
         id="path3868-3"
         d="m 279.87767,1030.26 8.74052,-7.565 -7.12418,-3.8902 z"
         style="fill:#394050;stroke:none" />
      <path
         sodipodi:nodetypes="ccccc"
         inkscape:connector-curvature="0"
         id="path3888"
         d="M 285.621,989.62631 418.73216,759.44283 443.43619,774.84651 310.90632,1003.2136 z"
         style="fill:#45d03f;fill-opacity:1;stroke:none" />
      <path
         sodipodi:nodetypes="cczcczccc"
         inkscape:connector-curvature="0"
         id="path3888-6-0"
         d="m 420.52082,756.29668 15.78738,-27.44781 c 0,0 0.86338,-1.89298 1.85032,-2.1502 0.98694,-0.25723 3.08336,1.12658 3.08336,1.12658 l 18.74423,11.51819 c 0,0 1.7677,1.00319 2.05517,1.91279 0.28746,0.90961 -0.60522,2.85261 -0.60522,2.85261 l -15.70261,26.93761 z"
         style="fill:#c83737;fill-opacity:1;stroke:none" />
      <path
         sodipodi:nodetypes="ccccc"
         inkscape:connector-curvature="0"
         id="path3888-6"
         d="m 411.21738,772.35849 17.51078,-30.44412 25.0673,15.40368 -17.36546,29.79022 z"
         style="fill:#ebebeb;fill-opacity:1;stroke:none" />
    </g>
    <path
       style="fill:none;stroke:#969696;stroke-width:3.59116006px;stroke-linecap:butt;stroke-linejoin:miter;stroke-opacity:1"
       d="m 201.85157,766.82408 112.51201,-0.78132"
       id="path3933"
       inkscape:connector-curvature="0"
       sodipodi:nodetypes="cc" />
    <path
       style="fill:none;stroke:#969696;stroke-width:3.59116006px;stroke-linecap:butt;stroke-linejoin:miter;stroke-opacity:1"
       d="M 203.41418,789.09204 315.9262,788.31071"
       id="path3933-6"
       inkscape:connector-curvature="0"
       sodipodi:nodetypes="cc" />
    <path
       style="fill:none;stroke:#969696;stroke-width:3.59116006px;stroke-linecap:butt;stroke-linejoin:miter;stroke-opacity:1"
       d="m 204.19552,810.96938 154.70402,-0.78132"
       id="path3933-2"
       inkscape:connector-curvature="0"
       sodipodi:nodetypes="cc" />
    <path
       style="fill:none;stroke:#969696;stroke-width:3.59116006px;stroke-linecap:butt;stroke-linejoin:miter;stroke-opacity:1"
       d="m 205.75822,835.97208 154.70401,-0.78132"
       id="path3933-2-6"
       inkscape:connector-curvature="0"
       sodipodi:nodetypes="cc" />
    <path
       style="fill:none;stroke:#969696;stroke-width:3.59116006px;stroke-linecap:butt;stroke-linejoin:miter;stroke-opacity:1"
       d="m 206.53954,859.41205 154.70402,-0.78132"
       id="path3933-2-1"
       inkscape:connector-curvature="0"
       sodipodi:nodetypes="cc" />
  </g>
</svg>
