<?xml version="1.0" encoding="UTF-8" standalone="no"?>
<!-- Created with Inkscape (http://www.inkscape.org/) -->

<svg
   xmlns:dc="http://purl.org/dc/elements/1.1/"
   xmlns:cc="http://creativecommons.org/ns#"
   xmlns:rdf="http://www.w3.org/1999/02/22-rdf-syntax-ns#"
   xmlns:svg="http://www.w3.org/2000/svg"
   xmlns="http://www.w3.org/2000/svg"
   xmlns:sodipodi="http://sodipodi.sourceforge.net/DTD/sodipodi-0.dtd"
   xmlns:inkscape="http://www.inkscape.org/namespaces/inkscape"
   width="500"
   height="500"
   id="svg2"
   version="1.1"
   inkscape:version="0.91 r13725"
   sodipodi:docname="application-vnd.ms-access.svg">
  <defs
     id="defs4" />
  <sodipodi:namedview
     id="base"
     pagecolor="#ffffff"
     bordercolor="#666666"
     borderopacity="1.0"
     inkscape:pageopacity="0.0"
     inkscape:pageshadow="2"
     inkscape:zoom="0.60666664"
     inkscape:cx="291.90717"
     inkscape:cy="181.8083"
     inkscape:document-units="px"
     inkscape:current-layer="layer1"
     showgrid="false"
     inkscape:window-width="1366"
     inkscape:window-height="711"
     inkscape:window-x="0"
     inkscape:window-y="0"
     inkscape:window-maximized="1" />
  <metadata
     id="metadata7">
    <rdf:RDF>
      <cc:Work
         rdf:about="">
        <dc:format>image/svg+xml</dc:format>
        <dc:type
           rdf:resource="http://purl.org/dc/dcmitype/StillImage" />
        <dc:title />
      </cc:Work>
    </rdf:RDF>
  </metadata>
  <g
     inkscape:label="Layer 1"
     inkscape:groupmode="layer"
     id="layer1"
     transform="translate(0,-552.36218)">
    <path
       style="fill:#672315;fill-rule:evenodd;stroke:none;stroke-width:1px;stroke-linecap:butt;stroke-linejoin:miter;stroke-opacity:1;fill-opacity:1"
       d="m 63.03896,706.21213 53.22205,52.09856 -1.66005,-73.04185 L 63,685.02374 Z"
       id="path4230"
       inkscape:connector-curvature="0"
       sodipodi:nodetypes="ccccc" />
    <path
       style="fill:#f2f2f2;fill-rule:evenodd;stroke:#afafaf;stroke-width:5.03546047;stroke-linecap:butt;stroke-linejoin:miter;stroke-miterlimit:4;stroke-dasharray:none;stroke-opacity:1"
       d="m 97.04098,1029.8357 336.88838,-1.1739 1.17377,-363.88657 -88.03697,-89.21086 -250.02518,0 z"
       id="path3364"
       inkscape:connector-curvature="0" />
    <path
       style="fill:#afafaf;fill-opacity:1;fill-rule:evenodd;stroke:#afafaf;stroke-width:5.03546047;stroke-linecap:butt;stroke-linejoin:miter;stroke-miterlimit:4;stroke-dasharray:none;stroke-opacity:1"
       d="m 431.51909,662.93107 -82.16431,-0.58691 0.75853,-83.80351 z"
       id="path4166"
       inkscape:connector-curvature="0"
       sodipodi:nodetypes="cccc" />
    <rect
       style="fill:#a33539;fill-opacity:1;stroke:none;stroke-width:5;stroke-miterlimit:4;stroke-dasharray:none;stroke-opacity:1"
       id="rect4228"
       width="224.93568"
       height="84.350876"
       x="63.139694"
       y="622.18719" />
    <path
       style="fill:none;fill-rule:evenodd;stroke:#ffffff;stroke-width:9;stroke-linecap:butt;stroke-linejoin:miter;stroke-miterlimit:4;stroke-dasharray:none;stroke-opacity:1"
       d="m 110.64233,691.33885 0.29139,-54.56281 5.02648,-0.21854 15.88077,41.30456 3.35098,0 15.95362,-41.30456 5.24502,-0.0729 0,54.9999"
       id="path4260"
       inkscape:connector-curvature="0"
       sodipodi:nodetypes="cccccccc" />
    <path
       style="fill:none;fill-rule:evenodd;stroke:#ffffff;stroke-width:9;stroke-linecap:butt;stroke-linejoin:miter;stroke-miterlimit:4;stroke-dasharray:none;stroke-opacity:1"
       d="m 177.38264,687.66225 0.47801,-52.10326 c 0,0 39.88141,-5.81127 40.39197,26.52965 0.51056,32.3409 -40.86998,25.57361 -40.86998,25.57361 z"
       id="path4271"
       inkscape:connector-curvature="0"
       sodipodi:nodetypes="cczc" />
    <path
       style="fill:none;fill-rule:evenodd;stroke:#ffffff;stroke-width:9;stroke-linecap:butt;stroke-linejoin:miter;stroke-miterlimit:4;stroke-dasharray:none;stroke-opacity:1"
       d="m 234.46644,635.63798 0,52.95329 20.19231,10e-6 c 0,0 15.79086,0.82537 15.25975,-13.95279 -0.53111,-14.77817 -14.02349,-14.48128 -14.02349,-14.48128 l -18.13186,0 17.92582,-0.20605 c 0,0 11.15385,-0.2958 11.02335,-12.6717 -0.1305,-12.3759 -15.45329,-11.64148 -15.45329,-11.64148 z"
       id="path4224"
       inkscape:connector-curvature="0"
       sodipodi:nodetypes="ccczccczcc" />
    <g
       id="g4295"
       transform="matrix(0.94574814,0,0,0.94574814,6.7047485,43.879088)">
      <path
         sodipodi:nodetypes="czcczcc"
         inkscape:connector-curvature="0"
         id="path4031"
         d="m 230.79139,977.95393 c 0,0 19.47031,29.66307 88.5645,30.02257 69.0942,0.3593 84.6952,-33.42139 84.6952,-33.42139 l -0.4299,-131.41952 c 0,0 -7.668,-34.8808 -86.8449,-34.55427 -79.17674,0.32653 -85.9849,36.25364 -85.9849,36.25364 z"
         style="fill:#a33539;fill-opacity:1;stroke:none" />
      <path
         style="fill:#ffffff;fill-opacity:1"
         d="m 292.65639,995.06661 c -9.6126,-1.322 -20.3522,-3.7254 -27.0396,-6.05115 -13.99029,-4.86558 -25.46122,-12.78258 -29.22783,-20.17289 -1.87105,-3.67114 -1.94295,-4.29556 -1.94295,-16.88658 0,-7.31152 0.29961,-13.07446 0.6798,-13.07446 0.37381,0 1.55175,1.45492 2.61759,3.23313 9.8443,16.42352 44.86799,27.33717 83.07929,25.88805 35.3592,-1.34095 63.3954,-11.74471 71.0548,-26.36728 1.005,-1.91853 2.1442,-3.48826 2.5316,-3.48826 1.2767,0 1.7117,5.0734 1.3732,16.01488 -0.3028,9.78741 -0.5131,11.13079 -2.2634,14.46294 -6.1084,11.62953 -23.695,20.62158 -49.7381,25.43112 -10.8975,2.0126 -39.6998,2.5819 -51.1244,1.0105 z m 4.1311,-35.71062 c -23.1998,-2.27878 -44.69419,-10.01787 -54.82561,-19.74008 -6.68465,-6.41463 -7.10047,-7.70869 -7.37545,-22.94905 -0.15816,-8.76476 0.0236,-13.03506 0.55389,-13.03506 0.434,0 1.63022,1.30277 2.65831,2.89505 6.52537,10.10641 23.53626,18.56561 45.76976,22.76021 44.3289,8.36326 96.1995,-2.77479 107.9817,-23.1866 1.25,-2.16556 2.5578,-3.93739 2.9061,-3.93739 1.1436,0 1.6736,6.57787 1.3294,16.50173 -0.3037,8.75272 -0.549,10.17787 -2.3822,13.8415 -9.4539,18.89257 -53.3714,31.09733 -96.6159,26.84969 z m 2.2532,-35.98015 c -29.7632,-2.57081 -55.09149,-13.41873 -62.1771,-26.63008 -1.89497,-3.53324 -2.0339,-4.46352 -2.28276,-15.2801 -0.32391,-14.07752 0.15868,-15.42101 3.63599,-10.12275 6.32448,9.63622 21.19847,17.04225 42.73687,21.2795 47.2592,9.29724 100.1255,-2.1064 111.5248,-24.05675 0.6818,-1.31267 1.5162,-2.3867 1.8544,-2.3867 0.9557,0 1.6456,19.8141 0.8553,24.56188 -3.5917,21.57644 -48.338,36.76457 -96.1475,32.635 z m 3.6755,-35.97515 c -30.9655,-1.92494 -59.20699,-13.71475 -65.74757,-27.44712 -8.96171,-18.81619 18.09918,-37.18812 61.23167,-41.57087 12.1403,-1.23362 35.6729,-0.4969 46.3315,1.45042 12.5176,2.28701 20.8351,4.8485 30.1661,9.29022 13.6723,6.50825 20.4838,14.27568 20.4838,23.35888 0,21.65916 -43.218,37.9799 -92.4655,34.91847 z"
         id="path3026"
         inkscape:connector-curvature="0" />
      <rect
         y="809.95538"
         x="245.14206"
         height="196.11458"
         width="54.552174"
         id="rect4244"
         style="fill:#1a1a1a;fill-opacity:0.39207076;stroke:none;stroke-width:8.59799957;stroke-linecap:butt;stroke-linejoin:round;stroke-miterlimit:4;stroke-dasharray:none;stroke-opacity:1" />
      <path
         sodipodi:nodetypes="ccccc"
         inkscape:connector-curvature="0"
         id="path3390"
         d="m 281.88779,774.49661 -158.30219,30.4763 0.28836,202.85259 157.52163,31.0121 z"
         style="fill:#a33539;fill-opacity:1;fill-rule:evenodd;stroke:none;stroke-width:1px;stroke-linecap:butt;stroke-linejoin:miter;stroke-opacity:1" />
      <g
         transform="matrix(1.4119241,0,0,1.4119241,-719.30446,-180.64279)"
         id="g4291">
        <path
           style="fill:#ffffff;fill-opacity:1;fill-rule:evenodd;stroke:none;stroke-width:1px;stroke-linecap:butt;stroke-linejoin:miter;stroke-opacity:1"
           d="m 621.22256,805.9336 15.86538,1.64835 15.24725,-58.92858 15.65935,59.9588 17.71978,1.44231 -24.10715,-76.03023 -18.33791,0.82418 z"
           id="path4287"
           inkscape:connector-curvature="0" />
        <path
           style="fill:#ffffff;fill-opacity:1;fill-rule:evenodd;stroke:none;stroke-width:1px;stroke-linecap:butt;stroke-linejoin:miter;stroke-opacity:1"
           d="m 642.033,777.91162 20.1923,0.41209 2.88462,13.39285 -25.34341,-0.61813 z"
           id="path4289"
           inkscape:connector-curvature="0" />
      </g>
    </g>
  </g>
</svg>
