<?xml version="1.0" encoding="UTF-8" standalone="no"?>
<!-- Created with Inkscape (http://www.inkscape.org/) -->

<svg
   xmlns:dc="http://purl.org/dc/elements/1.1/"
   xmlns:cc="http://creativecommons.org/ns#"
   xmlns:rdf="http://www.w3.org/1999/02/22-rdf-syntax-ns#"
   xmlns:svg="http://www.w3.org/2000/svg"
   xmlns="http://www.w3.org/2000/svg"
   xmlns:sodipodi="http://sodipodi.sourceforge.net/DTD/sodipodi-0.dtd"
   xmlns:inkscape="http://www.inkscape.org/namespaces/inkscape"
   width="500"
   height="500"
   id="svg2"
   version="1.1"
   inkscape:version="0.92.1 r15371"
   sodipodi:docname="application-archive.svg">
  <defs
     id="defs4" />
  <sodipodi:namedview
     id="base"
     pagecolor="#ffffff"
     bordercolor="#666666"
     borderopacity="1.0"
     inkscape:pageopacity="0.0"
     inkscape:pageshadow="2"
     inkscape:zoom="0.4289781"
     inkscape:cx="812.00598"
     inkscape:cy="302.21773"
     inkscape:document-units="px"
     inkscape:current-layer="layer1"
     showgrid="false"
     inkscape:window-width="1366"
     inkscape:window-height="714"
     inkscape:window-x="0"
     inkscape:window-y="0"
     inkscape:window-maximized="1" />
  <metadata
     id="metadata7">
    <rdf:RDF>
      <cc:Work
         rdf:about="">
        <dc:format>image/svg+xml</dc:format>
        <dc:type
           rdf:resource="http://purl.org/dc/dcmitype/StillImage" />
        <dc:title />
      </cc:Work>
    </rdf:RDF>
  </metadata>
  <g
     inkscape:label="Layer 1"
     inkscape:groupmode="layer"
     id="layer1"
     transform="translate(0,-552.36218)">
    <g
       id="g65">
      <path
         sodipodi:nodetypes="ccccc"
         inkscape:connector-curvature="0"
         id="path4230"
         d="M 63.03896,706.21219 116.261,758.31075 114.60095,685.2689 63,685.0238 Z"
         style="fill:#333333;fill-rule:evenodd;stroke:none;stroke-width:1px;stroke-linecap:butt;stroke-linejoin:miter;stroke-opacity:1" />
      <path
         inkscape:connector-curvature="0"
         id="path3364"
         d="m 97.04097,1029.8357 336.88839,-1.1739 1.17377,-363.88651 -88.03697,-89.21086 H 97.04097 Z"
         style="fill:#f2f2f2;fill-rule:evenodd;stroke:#afafaf;stroke-width:5.03546047;stroke-linecap:butt;stroke-linejoin:miter;stroke-miterlimit:4;stroke-dasharray:none;stroke-opacity:1" />
      <path
         sodipodi:nodetypes="cccc"
         inkscape:connector-curvature="0"
         id="path4166"
         d="m 431.51909,662.93113 -82.16431,-0.58691 0.75853,-83.80351 z"
         style="fill:#afafaf;fill-opacity:1;fill-rule:evenodd;stroke:#afafaf;stroke-width:5.03546047;stroke-linecap:butt;stroke-linejoin:miter;stroke-miterlimit:4;stroke-dasharray:none;stroke-opacity:1" />
      <rect
         y="622.18732"
         x="63.139694"
         height="84.350876"
         width="224.93568"
         id="rect4228"
         style="fill:#394050;fill-opacity:1;stroke:none;stroke-width:5;stroke-miterlimit:4;stroke-dasharray:none;stroke-opacity:1" />
      <path
         inkscape:connector-curvature="0"
         id="path3941"
         d="m 306.85617,824.61277 10.01883,3.45093 v 4.45282 l -8.57167,2.44903 v 13.80372 l 18.59049,-5.12072 -10.57542,5.45469 0.22263,10.35279 -8.01506,2.56037 v 13.13579 l 17.25466,-4.23016 -8.90563,5.23205 v 9.9075 l -8.7943,3.00566 0.5566,12.46788 18.70181,-5.12074 -10.46411,6.01129 -0.22264,9.68487 -8.2377,2.44905 0.22264,12.35656 18.14521,-4.67546 -11.466,7.23583 -0.33396,4.00753 h 28.9433 l -0.33397,-13.58108 8.34903,-1.78113 -0.22265,-13.46976 -19.59238,4.34149 11.35468,-4.78676 0.11135,-9.57356 8.68299,-2.56037 v -13.6924 l -15.13957,4.34149 6.12261,-4.00752 0.11134,-10.01883 8.12638,-2.33774 v -13.80371 l -17.81125,4.3415 9.01695,-4.67545 0.44528,-11.24337 8.2377,-1.22452 0.44527,-13.58108 -16.36408,3.67357 8.46035,-6.5679 v -4.23018 l -36.29042,1.00189 z"
         style="fill:#5d6a7b;stroke:none" />
      <path
         inkscape:connector-curvature="0"
         id="path3943"
         d="m 309.02844,963.19011 0.15743,28.33753 h -8.18639 v 10.23296 l -14.64107,0.315 -0.15742,-8.97365 -19.36398,0.15743 -0.31487,31.64362 h 19.83627 v -8.1864 l 14.7985,-0.1574 v 10.233 l 58.4068,-0.1574 0.15742,-9.9182 h 15.42822 v 8.6587 h 18.89169 l -0.15743,-32.74563 -18.73426,0.15741 v 9.60332 h -15.58564 l -0.62973,-11.17762 -6.76952,0.15744 v -28.49496 z"
         style="fill:#666666;stroke:none" />
      <path
         inkscape:connector-curvature="0"
         id="path3921"
         d="m 178.05256,953.30832 -0.44527,7.79242 17.58861,16.47542 92.17323,0.89056 12.0226,-13.35844 63.00732,-0.66792 v -36.95835 h -61.67147 l -24.49048,26.04896 z"
         style="fill:#394050;stroke:none" />
      <path
         inkscape:connector-curvature="0"
         id="path3921-3"
         d="m 178.11003,802.18052 -0.44527,-7.79242 17.5886,-16.47541 92.17324,-0.89057 12.0226,13.35845 63.00731,0.66791 v 36.95835 h -61.67146 l -24.49048,-26.04896 z"
         style="fill:#394050;stroke:none" />
      <rect
         y="801.98096"
         x="144.04103"
         height="151.44836"
         width="132.24181"
         id="rect3945"
         style="fill:#ffb800;fill-opacity:1;stroke:none" />
      <rect
         y="815.45807"
         x="153.90538"
         height="58.384552"
         width="110.8683"
         id="rect3945-6"
         style="fill:#faec6d;fill-opacity:1;stroke:none" />
      <rect
         y="883.36353"
         x="154.79593"
         height="58.384552"
         width="110.8683"
         id="rect3945-6-7"
         style="fill:#faec6d;fill-opacity:1;stroke:none" />
      <rect
         y="838.39008"
         x="188.63733"
         height="14.301703"
         width="44.521381"
         id="rect3945-6-7-5"
         style="fill:#28220b;fill-opacity:1;stroke:none" />
      <rect
         y="904.51434"
         x="188.41467"
         height="14.301703"
         width="44.521381"
         id="rect3945-6-7-5-3"
         style="fill:#28220b;fill-opacity:1;stroke:none" />
    </g>
  </g>
</svg>
