<?xml version="1.0" encoding="UTF-8" standalone="no"?>
<!-- Created with Inkscape (http://www.inkscape.org/) -->

<svg
   xmlns:dc="http://purl.org/dc/elements/1.1/"
   xmlns:cc="http://creativecommons.org/ns#"
   xmlns:rdf="http://www.w3.org/1999/02/22-rdf-syntax-ns#"
   xmlns:svg="http://www.w3.org/2000/svg"
   xmlns="http://www.w3.org/2000/svg"
   xmlns:sodipodi="http://sodipodi.sourceforge.net/DTD/sodipodi-0.dtd"
   xmlns:inkscape="http://www.inkscape.org/namespaces/inkscape"
   width="500"
   height="500"
   id="svg2"
   version="1.1"
   inkscape:version="0.48.5 r10040"
   sodipodi:docname="application-x-python-bytecode.svg">
  <defs
     id="defs4">
    <clipPath
       clipPathUnits="userSpaceOnUse"
       id="clipPath3444">
      <path
         inkscape:connector-curvature="0"
         d="M 11.52,162 C 11.52,81.677 135.307,16.561 288,16.561 l 0,0 c 152.693,0 276.481,65.116 276.481,145.439 l 0,0 c 0,80.322 -123.788,145.439 -276.481,145.439 l 0,0 C 135.307,307.439 11.52,242.322 11.52,162"
         id="path3446" />
    </clipPath>
    <radialGradient
       cx="0"
       cy="0"
       fx="0"
       fy="0"
       gradientTransform="matrix(363.05789,0,0,-363.05789,177.52002,256.30713)"
       gradientUnits="userSpaceOnUse"
       id="radialGradient3452"
       r="1"
       spreadMethod="pad">
      <stop
         id="stop3454"
         offset="0"
         style="stop-opacity:1;stop-color:#aeb2d5" />
      <stop
         id="stop3456"
         offset="0.3"
         style="stop-opacity:1;stop-color:#aeb2d5" />
      <stop
         id="stop3458"
         offset="0.75"
         style="stop-opacity:1;stop-color:#484c89" />
      <stop
         id="stop3460"
         offset="1"
         style="stop-opacity:1;stop-color:#484c89" />
    </radialGradient>
    <clipPath
       clipPathUnits="userSpaceOnUse"
       id="clipPath3468">
      <path
         inkscape:connector-curvature="0"
         d="M 0,324 576,324 576,0 0,0 0,324 z"
         id="path3470" />
    </clipPath>
    <clipPath
       clipPathUnits="userSpaceOnUse"
       id="clipPath3480">
      <path
         inkscape:connector-curvature="0"
         d="M 0,324 576,324 576,0 0,0 0,324 z"
         id="path3482" />
    </clipPath>
  </defs>
  <sodipodi:namedview
     id="base"
     pagecolor="#ffffff"
     bordercolor="#666666"
     borderopacity="1.0"
     inkscape:pageopacity="0.0"
     inkscape:pageshadow="2"
     inkscape:zoom="0.60666666"
     inkscape:cx="287.98318"
     inkscape:cy="249.9709"
     inkscape:document-units="px"
     inkscape:current-layer="layer1"
     showgrid="false"
     inkscape:window-width="1366"
     inkscape:window-height="716"
     inkscape:window-x="0"
     inkscape:window-y="0"
     inkscape:window-maximized="1" />
  <metadata
     id="metadata7">
    <rdf:RDF>
      <cc:Work
         rdf:about="">
        <dc:format>image/svg+xml</dc:format>
        <dc:type
           rdf:resource="http://purl.org/dc/dcmitype/StillImage" />
        <dc:title />
      </cc:Work>
    </rdf:RDF>
  </metadata>
  <g
     inkscape:label="Layer 1"
     inkscape:groupmode="layer"
     id="layer1"
     transform="translate(0,-552.36218)">
    <rect
       style="fill:#ffffff;fill-opacity:1;stroke:none"
       id="rect3000"
       width="450"
       height="450"
       x="25"
       y="577.36218"
       ry="55.366497" />
    <path
       style="fill:#00bbf2;stroke:none;stroke-width:1px;stroke-linecap:butt;stroke-linejoin:miter;stroke-opacity:1;fill-opacity:1"
       d="M 100,475 100,25 C 100,25 61.202184,19.758699 40.940323,41.934658 20.678462,64.110616 25,90.3 25,90.3 L 25,410 c 0,0 -3.104929,34.44943 20.038287,52.1379 C 68.181502,479.82637 100,475 100,475 z"
       id="path3770"
       inkscape:connector-curvature="0"
       transform="translate(0,552.36218)"
       sodipodi:nodetypes="cczcczc" />
    <path
       style="fill:#f9f9f9;fill-opacity:1;fill-rule:nonzero;stroke:none"
       inkscape:connector-curvature="0"
       id="path59"
       d="m 273.30428,764.73636 c 0,10.3474 -8.3979,18.74528 -18.7453,18.74528 -10.34741,0 -18.74531,-8.39788 -18.74531,-18.74528 0,-10.3474 8.3979,-18.7453 18.74531,-18.7453 10.3474,0 18.7453,8.3979 18.7453,18.7453 m 0,0" />
    <path
       style="fill:#00bbf2;fill-opacity:1;fill-rule:nonzero;stroke:none"
       inkscape:connector-curvature="0"
       id="path61"
       d="m 298.19803,727.4457 c -12.34689,0.05 -24.16893,1.12472 -34.56632,2.92428 -30.60483,5.37365 -36.17843,16.54584 -36.17843,37.20317 l 0,27.29316 72.34435,0 0,9.08521 -99.48755,0 c -21.04471,0 -39.44011,12.49687 -45.20114,36.26589 -6.63584,27.24318 -6.98575,44.27641 0,72.68178 5.12371,21.18219 17.38313,36.26592 38.41534,36.26592 l 21.28217,0 0,-36.21594 c 0,-23.58157 20.6948,-44.27638 45.25115,-44.27638 l 75.73101,0 c 20.10747,0 39.15269,-16.40838 39.15269,-36.36589 l 0,-64.58379 c 0,-19.38265 -19.48262,-33.97899 -39.15269,-37.20317 -12.39688,-2.0495 -25.28117,-2.97426 -37.61556,-2.92428 m -39.1027,21.76956 c 7.47313,0 13.5716,6.14845 13.5716,13.72153 0,7.52313 -6.09847,13.57161 -13.5716,13.57161 -7.52312,0 -13.62159,-6.04848 -13.62159,-13.57161 0,-7.56058 6.04848,-13.72153 13.62159,-13.72153 m 0,0" />
    <path
       style="fill:#f9f9f9;fill-opacity:1;fill-rule:nonzero;stroke:none"
       inkscape:connector-curvature="0"
       id="path63"
       d="m 360.83233,989.67994 c 0,10.34736 -8.39788,18.74526 -18.74531,18.74526 -10.39738,0 -18.79526,-8.3979 -18.79526,-18.74526 0,-10.3474 8.39788,-18.7453 18.79526,-18.7453 10.34743,0 18.74531,8.3979 18.74531,18.7453 m 0,0" />
    <path
       style="fill:#ffd42a;fill-opacity:1;fill-rule:nonzero;stroke:none"
       inkscape:connector-curvature="0"
       id="path65"
       d="m 385.23872,803.92654 0,31.77953 c 0,24.60631 -21.13221,42.42685 -45.20117,42.42685 l -79.38008,0 c -19.77007,0 -36.17845,19.72005 -36.17845,39.30265 l 0,68.14539 c 0,19.38264 17.03323,30.75484 36.17845,36.31594 22.89424,6.6358 47.83798,7.9105 75.23112,0 18.20792,-5.2237 36.17842,-15.7211 36.17842,-36.31594 l 0,-27.29316 -72.24437,0 0,-9.08521 108.47281,0 c 20.99472,0 28.85525,-14.54635 36.17842,-36.26589 7.56061,-22.40691 7.17319,-43.98899 0,-72.68178 C 439.25018,819.5101 429.34016,803.989 408.29545,803.989 m -67.80802,172.51923 c 7.47313,0 13.5716,6.04851 13.5716,13.5716 0,7.52312 -6.04848,13.72157 -13.5716,13.72157 -7.5231,0 -13.62159,-6.19845 -13.62159,-13.72157 0,-7.52309 6.09849,-13.5716 13.62159,-13.5716 m 0,0" />
  </g>
</svg>
