<?xml version="1.0" encoding="UTF-8" standalone="no"?>
<!-- Created with Inkscape (http://www.inkscape.org/) -->

<svg
   xmlns:dc="http://purl.org/dc/elements/1.1/"
   xmlns:cc="http://creativecommons.org/ns#"
   xmlns:rdf="http://www.w3.org/1999/02/22-rdf-syntax-ns#"
   xmlns:svg="http://www.w3.org/2000/svg"
   xmlns="http://www.w3.org/2000/svg"
   xmlns:sodipodi="http://sodipodi.sourceforge.net/DTD/sodipodi-0.dtd"
   xmlns:inkscape="http://www.inkscape.org/namespaces/inkscape"
   width="500"
   height="500"
   id="svg2"
   version="1.1"
   inkscape:version="0.48.5 r10040"
   sodipodi:docname="application-x-gnumeric.svg">
  <defs
     id="defs4" />
  <sodipodi:namedview
     id="base"
     pagecolor="#ffffff"
     bordercolor="#666666"
     borderopacity="1.0"
     inkscape:pageopacity="0.0"
     inkscape:pageshadow="2"
     inkscape:zoom="0.4289781"
     inkscape:cx="182.31776"
     inkscape:cy="292.92985"
     inkscape:document-units="px"
     inkscape:current-layer="layer1"
     showgrid="false"
     inkscape:window-width="1366"
     inkscape:window-height="716"
     inkscape:window-x="0"
     inkscape:window-y="0"
     inkscape:window-maximized="1" />
  <metadata
     id="metadata7">
    <rdf:RDF>
      <cc:Work
         rdf:about="">
        <dc:format>image/svg+xml</dc:format>
        <dc:type
           rdf:resource="http://purl.org/dc/dcmitype/StillImage" />
        <dc:title />
      </cc:Work>
    </rdf:RDF>
  </metadata>
  <g
     inkscape:label="Layer 1"
     inkscape:groupmode="layer"
     id="layer1"
     transform="translate(0,-552.36218)">
    <rect
       style="fill:#ffffff;fill-opacity:1;stroke:none"
       id="rect3000"
       width="450"
       height="450"
       x="25"
       y="577.36218"
       ry="55.366497" />
    <path
       style="fill:#447821;stroke:none;stroke-width:1px;stroke-linecap:butt;stroke-linejoin:miter;stroke-opacity:1;fill-opacity:1"
       d="M 100,475 100,25 C 100,25 61.202184,19.758699 40.940323,41.934658 20.678462,64.110616 25,90.3 25,90.3 L 25,410 c 0,0 -3.104929,34.44943 20.038287,52.1379 C 68.181502,479.82637 100,475 100,475 z"
       id="path3770"
       inkscape:connector-curvature="0"
       transform="translate(0,552.36218)"
       sodipodi:nodetypes="cczcczc" />
    <path
       inkscape:connector-curvature="0"
       id="path4306"
       d="m 175.16193,1026.783 c -2.56343,-0.6889 -7.7678,-3.1723 -10.52073,-5.0202 -5.39352,-3.6207 -10.65132,-10.3391 -13.20104,-16.8686 L 150.1896,1001.6918 150.0948,853.42958 150,705.16739 l 0.91829,-2.96593 c 2.92129,-9.43535 9.5196,-17.05327 18.48081,-21.33658 6.29488,-3.00885 0.33101,-2.76619 67.80746,-2.75888 l 60.02285,0.006 26.544,26.68731 c 14.59919,14.67802 39.15676,39.35625 54.57237,54.84049 15.4156,15.48424 28.02836,28.23584 28.02836,28.33688 0,0.10102 4.79364,4.97436 10.65253,10.82962 l 10.65253,10.64593 0.0785,42.8569 c 0.0431,23.57129 0.0825,67.37516 0.0873,97.34194 l 0.009,54.48503 -1.62498,3.3803 c -2.05918,4.2835 -3.2821,6.0509 -6.56475,9.4882 -4.26492,4.4657 -8.65271,7.1897 -15.01391,9.321 l -3.09412,1.0366 -112.2366,-0.032 c -97.85393,-0.028 -112.48271,-0.098 -114.1575,-0.5478 z"
       style="fill:#447821;fill-opacity:1;stroke:none"
       sodipodi:nodetypes="csscccssscsssscsscssscscc" />
    <path
       style="fill:#447821;fill-opacity:1;stroke:none"
       d="m 424.13833,761.24747 c -23.45279,-26.83912 -76.88478,-78.40872 -76.88478,-78.40872 0,0 -2.51087,-1.79638 -2.46926,-3.59047 0.0416,-1.79409 1.7467,-1.84182 1.7467,-1.84182 l 49.32212,-0.0423 c 0,0 12.73883,-0.39178 23.36765,10.46772 10.62881,10.85952 10.04518,24.8738 10.04518,24.8738 l -0.0117,47.35794 c 0,0 0.003,1.71347 -1.53265,2.45224 -1.53545,0.73877 -3.58322,-1.2684 -3.58322,-1.2684 z"
       id="path2983"
       inkscape:connector-curvature="0"
       sodipodi:nodetypes="cczcczcczc" />
    <path
       inkscape:connector-curvature="0"
       id="path4306-3"
       d="m 185.70665,1011.1312 c -2.29092,-0.6156 -6.94203,-2.835 -9.4023,-4.4866 -4.82016,-3.2357 -9.51902,-9.24 -11.7977,-15.0752 l -1.11761,-2.8621 -0.0847,-132.50091 -0.0847,-132.50097 0.82068,-2.65063 c 2.61073,-8.43231 8.5076,-15.2404 16.51618,-19.06837 5.6257,-2.68899 0.29582,-2.47213 60.59909,-2.4656 l 53.64203,0.005 23.72221,23.85029 c 13.0472,13.11765 34.99415,35.17243 48.77098,49.01059 13.77682,13.83818 25.04876,25.23419 25.04876,25.32449 0,0.0903 4.28405,4.44555 9.52011,9.67837 l 9.52009,9.51419 0.0702,38.30093 c 0.0385,21.06552 0.0737,60.21276 0.078,86.99387 l 0.008,48.69291 -1.45223,3.0209 c -1.84028,3.8282 -2.93319,5.4078 -5.86689,8.47964 -3.81153,3.991 -7.73287,6.4254 -13.41783,8.33 l -2.76519,0.9264 -100.30513,-0.028 c -87.45143,-0.024 -100.52507,-0.087 -102.02182,-0.4893 z"
       style="fill:#ffffff;fill-opacity:1;stroke:none"
       sodipodi:nodetypes="csscccssscsssscsscssscscc" />
    <rect
       style="fill:#447821;fill-opacity:1;stroke:none"
       id="rect3932"
       width="182.66698"
       height="146.13358"
       x="191.18597"
       y="826.05042" />
    <rect
       style="fill:#8dd35f;fill-opacity:1;stroke:none"
       id="rect3771"
       width="38.329243"
       height="17.739645"
       x="196.24336"
       y="830.20477" />
    <rect
       style="fill:#8dd35f;fill-opacity:1;stroke:none"
       id="rect3771-7"
       width="38.329243"
       height="17.739645"
       x="240.46941"
       y="830.20477" />
    <rect
       style="fill:#8dd35f;fill-opacity:1;stroke:none"
       id="rect3771-7-5"
       width="38.329243"
       height="17.739645"
       x="284.69543"
       y="830.20477" />
    <rect
       style="fill:#8dd35f;fill-opacity:1;stroke:none"
       id="rect3771-7-5-3"
       width="38.329243"
       height="17.739645"
       x="328.92148"
       y="830.20477" />
    <rect
       style="fill:#aade87;fill-opacity:1;stroke:none"
       id="rect3771-5"
       width="38.329243"
       height="17.739645"
       x="196.24336"
       y="853.87506" />
    <rect
       style="fill:#aade87;fill-opacity:1;stroke:none"
       id="rect3771-7-6"
       width="38.329243"
       height="17.739645"
       x="240.46941"
       y="853.87506" />
    <rect
       style="fill:#aade87;fill-opacity:1;stroke:none"
       id="rect3771-7-5-2"
       width="38.329243"
       height="17.739645"
       x="284.69543"
       y="853.87506" />
    <rect
       style="fill:#aade87;fill-opacity:1;stroke:none"
       id="rect3771-7-5-3-9"
       width="38.329243"
       height="17.739645"
       x="328.92151"
       y="853.87506" />
    <rect
       style="fill:#aade87;fill-opacity:1;stroke:none"
       id="rect3771-1"
       width="38.329243"
       height="17.739645"
       x="196.24336"
       y="877.37323" />
    <rect
       style="fill:#aade87;fill-opacity:1;stroke:none"
       id="rect3771-7-2"
       width="38.329243"
       height="17.739645"
       x="240.46941"
       y="877.37323" />
    <rect
       style="fill:#aade87;fill-opacity:1;stroke:none"
       id="rect3771-7-5-7"
       width="38.329243"
       height="17.739645"
       x="284.69543"
       y="877.37323" />
    <rect
       style="fill:#aade87;fill-opacity:1;stroke:none"
       id="rect3771-7-5-3-0"
       width="38.329243"
       height="17.739645"
       x="328.92148"
       y="877.37323" />
    <rect
       style="fill:#aade87;fill-opacity:1;stroke:none"
       id="rect3771-5-9"
       width="38.329243"
       height="17.739645"
       x="196.24336"
       y="901.04352" />
    <rect
       style="fill:#aade87;fill-opacity:1;stroke:none"
       id="rect3771-7-6-3"
       width="38.329243"
       height="17.739645"
       x="240.46941"
       y="901.04352" />
    <rect
       style="fill:#aade87;fill-opacity:1;stroke:none"
       id="rect3771-7-5-2-6"
       width="38.329243"
       height="17.739645"
       x="284.69547"
       y="901.04352" />
    <rect
       style="fill:#aade87;fill-opacity:1;stroke:none"
       id="rect3771-7-5-3-9-0"
       width="38.329243"
       height="17.739645"
       x="328.92151"
       y="901.04352" />
    <rect
       style="fill:#aade87;fill-opacity:1;stroke:none"
       id="rect3771-6"
       width="38.329243"
       height="17.739645"
       x="196.62218"
       y="924.87067" />
    <rect
       style="fill:#aade87;fill-opacity:1;stroke:none"
       id="rect3771-7-26"
       width="38.329243"
       height="17.739645"
       x="240.84822"
       y="924.87067" />
    <rect
       style="fill:#aade87;fill-opacity:1;stroke:none"
       id="rect3771-7-5-1"
       width="38.329243"
       height="17.739645"
       x="285.07425"
       y="924.87067" />
    <rect
       style="fill:#aade87;fill-opacity:1;stroke:none"
       id="rect3771-7-5-3-8"
       width="38.329243"
       height="17.739645"
       x="329.30032"
       y="924.87067" />
    <rect
       style="fill:#aade87;fill-opacity:1;stroke:none"
       id="rect3771-5-7"
       width="38.329243"
       height="17.739645"
       x="196.62218"
       y="948.54095" />
    <rect
       style="fill:#aade87;fill-opacity:1;stroke:none"
       id="rect3771-7-6-9"
       width="38.329243"
       height="17.739645"
       x="240.84822"
       y="948.54095" />
    <rect
       style="fill:#aade87;fill-opacity:1;stroke:none"
       id="rect3771-7-5-2-2"
       width="38.329243"
       height="17.739645"
       x="285.07428"
       y="948.54095" />
    <rect
       style="fill:#aade87;fill-opacity:1;stroke:none"
       id="rect3771-7-5-3-9-02"
       width="38.329243"
       height="17.739645"
       x="329.30032"
       y="948.54095" />
    <g
       id="g3961"
       transform="matrix(0.28582395,0,0,0.28582395,128.79266,848.43674)">
      <rect
         transform="matrix(0,1,-1,0,0,0)"
         rx="21.248234"
         ry="30.048391"
         y="-902"
         x="222.39226"
         height="380"
         width="257.21548"
         id="rect3003"
         style="fill:#1a1a1a;fill-opacity:1;stroke:none" />
      <path
         sodipodi:nodetypes="cccczcczcczcczc"
         inkscape:connector-curvature="0"
         id="path3773"
         d="m 888.29277,234.78694 c -2.79892,-1.83146 -6.49446,-1.5393 -6.49446,-1.5393 l -316.32985,0.0539 -23.19098,0.003 c 0,0 -3.62715,-0.12022 -5.51849,1.23479 -1.89134,1.35512 -2.06875,4.5815 -2.06875,4.5815 l 0.0137,223.47507 c 0,0 -0.25554,3.74338 1.57722,5.42709 1.83271,1.68371 5.90625,1.53638 5.90625,1.53638 l 329.58919,-0.0853 c 0,0 9.01713,0.88461 14.27075,-3.43524 5.25362,-4.31984 3.95992,-12.04617 3.95992,-12.04617 l 0.63379,-214.34297 c 0,0 0.44821,-3.03219 -2.35048,-4.86361 z"
         style="fill:#ffffff;stroke:none" />
      <path
         inkscape:connector-curvature="0"
         id="path17"
         d="m 725.57105,429.05271 h -28.24922 c -3.90017,0 -7.06271,-3.16254 -7.06271,-7.06271 V 308.99229 c 0,-3.90017 3.16254,-7.0627 7.06271,-7.0627 h 28.24922 c 3.90017,0 7.06271,3.16253 7.06271,7.0627 V 421.99 c 0,3.90017 -3.16254,7.06271 -7.06271,7.06271 z"
         style="fill:#ffcc00" />
      <path
         inkscape:connector-curvature="0"
         id="path21"
         d="m 662.00989,429.05271 h -28.24922 c -3.90017,0 -7.06271,-3.16254 -7.06271,-7.06271 v -77.68577 c 0,-3.90017 3.16254,-7.06271 7.06271,-7.06271 h 28.24922 c 3.90017,0 7.06271,3.16254 7.06271,7.06271 V 421.99 c 0,3.90017 -3.16254,7.06271 -7.06271,7.06271 z"
         style="fill:#aa0000;fill-opacity:1" />
      <path
         inkscape:connector-curvature="0"
         id="path25"
         d="m 598.44874,429.05271 h -28.24922 c -3.90017,0 -7.06271,-3.16254 -7.06271,-7.06271 v -42.37464 c 0,-3.90017 3.16254,-7.06271 7.06271,-7.06271 h 28.24922 c 3.90016,0 7.0627,3.16254 7.0627,7.06271 V 421.99 c -7.9e-4,3.90017 -3.16254,7.06271 -7.0627,7.06271 z"
         style="fill:#004455" />
      <path
         inkscape:connector-curvature="0"
         id="path29"
         d="m 789.1322,429.05271 h -28.24921 c -3.90017,0 -7.06271,-3.16254 -7.06271,-7.06271 v -77.68577 c 0,-3.90017 3.16254,-7.06271 7.06271,-7.06271 h 28.24921 c 3.90017,0 7.06271,3.16254 7.06271,7.06271 V 421.99 c 0,3.90017 -3.16254,7.06271 -7.06271,7.06271 z"
         style="fill:#447821;fill-opacity:1" />
      <path
         inkscape:connector-curvature="0"
         id="path33"
         d="m 852.69415,429.05271 h -28.24922 c -3.90016,0 -7.0627,-3.16254 -7.0627,-7.06271 V 266.61766 c 0,-3.90017 3.16254,-7.0627 7.0627,-7.0627 h 28.24922 c 3.90017,0 7.06271,3.16253 7.06271,7.0627 V 421.99 c -8e-4,3.90017 -3.16254,7.06271 -7.06271,7.06271 z"
         style="fill:#2c89a0;fill-opacity:1" />
      <path
         inkscape:connector-curvature="0"
         id="path37"
         d="M 873.88067,436.11381 H 549.0122 c -3.90017,0 -7.06271,-3.16254 -7.06271,-7.06271 l 0,0 c 0,-3.90017 3.16254,-7.0627 7.06271,-7.0627 h 324.86927 c 3.90017,0 7.06271,3.16253 7.06271,7.0627 l 0,0 c -8e-4,3.90177 -3.16254,7.06271 -7.06351,7.06271 z"
         style="fill:#1a1a1a" />
    </g>
  </g>
</svg>
