<?xml version="1.0" encoding="UTF-8" standalone="no"?>
<!-- Created with Inkscape (http://www.inkscape.org/) -->

<svg
   xmlns:dc="http://purl.org/dc/elements/1.1/"
   xmlns:cc="http://creativecommons.org/ns#"
   xmlns:rdf="http://www.w3.org/1999/02/22-rdf-syntax-ns#"
   xmlns:svg="http://www.w3.org/2000/svg"
   xmlns="http://www.w3.org/2000/svg"
   xmlns:sodipodi="http://sodipodi.sourceforge.net/DTD/sodipodi-0.dtd"
   xmlns:inkscape="http://www.inkscape.org/namespaces/inkscape"
   width="500"
   height="500"
   id="svg2"
   version="1.1"
   inkscape:version="0.48.5 r10040"
   sodipodi:docname="application-x-trash.svg">
  <defs
     id="defs4" />
  <sodipodi:namedview
     id="base"
     pagecolor="#ffffff"
     bordercolor="#666666"
     borderopacity="1.0"
     inkscape:pageopacity="0.0"
     inkscape:pageshadow="2"
     inkscape:zoom="0.60666665"
     inkscape:cx="641.42091"
     inkscape:cy="321.39764"
     inkscape:document-units="px"
     inkscape:current-layer="layer1"
     showgrid="false"
     inkscape:window-width="1366"
     inkscape:window-height="716"
     inkscape:window-x="0"
     inkscape:window-y="0"
     inkscape:window-maximized="1" />
  <metadata
     id="metadata7">
    <rdf:RDF>
      <cc:Work
         rdf:about="">
        <dc:format>image/svg+xml</dc:format>
        <dc:type
           rdf:resource="http://purl.org/dc/dcmitype/StillImage" />
        <dc:title />
      </cc:Work>
    </rdf:RDF>
  </metadata>
  <g
     inkscape:label="Layer 1"
     inkscape:groupmode="layer"
     id="layer1"
     transform="translate(0,-552.36218)">
    <rect
       style="fill:#ffffff;fill-opacity:1;stroke:none"
       id="rect3000"
       width="450"
       height="450"
       x="25"
       y="577.36218"
       ry="55.366497" />
    <path
       style="fill:#999999;stroke:none;stroke-width:1px;stroke-linecap:butt;stroke-linejoin:miter;stroke-opacity:1;fill-opacity:1"
       d="M 100,475 100,25 C 100,25 61.202184,19.758699 40.940323,41.934658 20.678462,64.110616 25,90.3 25,90.3 L 25,410 c 0,0 -3.104929,34.44943 20.038287,52.1379 C 68.181502,479.82637 100,475 100,475 z"
       id="path3770"
       inkscape:connector-curvature="0"
       transform="translate(0,552.36218)"
       sodipodi:nodetypes="cczcczc" />
    <path
       inkscape:connector-curvature="0"
       id="path3340"
       d="m 263.68396,820.61983 c -39.93923,-1.9911 -76.84624,-13.0523 -92.7839,-27.80778 -4.04455,-3.74452 -7.26873,-9.08577 -7.2575,-12.02289 0.019,-4.97082 6.13147,-12.39877 14.70652,-17.87162 36.69855,-23.42205 112.64163,-29.65925 168.31211,-13.82347 19.22978,5.47002 33.75964,12.9232 41.78602,21.4344 5.42667,5.75446 6.4499,9.40583 4.09152,14.60045 -5.54121,12.20519 -30.21606,24.63197 -61.26301,30.85336 -12.49679,2.50419 -24.39401,3.92597 -39.13403,4.67669 -12.90213,0.65712 -14.53671,0.65487 -28.45773,-0.0391 z"
       style="fill:#cccccc;fill-opacity:0.58823529;stroke-width:0.78468841" />
    <path
       inkscape:connector-curvature="0"
       id="path3340-3"
       d="m 267.70421,1026.9535 c -30.64354,-1.5276 -58.9606,-10.0144 -71.18884,-21.3356 -3.1032,-2.873 -5.57697,-6.97109 -5.56835,-9.22459 0.0145,-3.8138 4.7044,-9.513 11.28364,-13.712 28.15712,-17.9707 86.42477,-22.7562 129.13818,-10.6062 14.75414,4.1969 25.90223,9.9154 32.0605,16.4456 4.16364,4.4152 4.94872,7.2167 3.13925,11.2023 -4.25153,9.36449 -23.18341,18.89899 -47.00432,23.67239 -9.58822,1.9213 -18.71641,3.0122 -30.02574,3.5882 -9.89922,0.5041 -11.15336,0.5024 -21.83432,-0.03 z"
       style="fill:#cccccc;fill-opacity:0.58823529;stroke-width:0.78468841" />
    <path
       inkscape:connector-curvature="0"
       id="path3348"
       d="m 265.66528,1027.0357 c -32.81957,-2.2499 -59.53911,-11.2128 -71.08392,-23.8447 -4.11068,-4.49769 -5.22325,-6.90649 -6.44142,-13.94569 -3.36192,-19.4267 -36.39485,-197.15238 -37.25864,-200.46108 -5.91431,-22.65425 18.21793,-43.17274 63.99691,-54.41348 10.484,-2.57428 26.41423,-5.12358 39.05548,-6.25002 11.3499,-1.01138 37.69314,-1.01138 49.04303,0 55.38078,4.93488 96.8376,24.02457 103.08447,47.46748 1.20624,4.52675 1.10344,7.98667 -0.42329,14.24614 -1.65147,6.77094 -37.27047,199.83336 -37.27047,202.01376 0,0.8851 -0.90218,3.4146 -2.00484,5.6213 -5.59572,11.19799 -24.35813,21.12159 -49.6975,26.28549 -14.10368,2.874 -36.19897,4.2955 -50.99981,3.2808 z"
       style="fill:#969696;fill-opacity:0.58823529;stroke-width:0.78468841" />
    <g
       transform="matrix(3.1424344,0,0,3.1424344,78.892409,657.61684)"
       id="g20"
       style="fill:#006680;stroke:#006680;stroke-opacity:1">
      <linearGradient
         id="SVGID_2_"
         gradientUnits="userSpaceOnUse"
         x1="64.779297"
         y1="89.454102"
         x2="81.225601"
         y2="89.454102">
        <stop
           offset="0"
           style="stop-color:#80C11B"
           id="stop23" />
        <stop
           offset="1"
           style="stop-color:#80E21B"
           id="stop25" />
      </linearGradient>
      <path
         inkscape:connector-curvature="0"
         d="m 68.818,87.321 -4.039,7.105 4.105,7.037 -0.016,-3.096 3.416,-0.063 c 2.135,-0.059 3.303,-1.699 3.303,-1.699 l 5.166,-8.844 c 1.104,-2.484 -0.076,-4.172 -0.076,-4.172 l -3.594,-6.146 -7.104,4.107 4.563,7.889 c 0.168,0.416 -0.1,0.754 -0.596,0.746 l -5.107,0.035 -0.021,-2.899 0,0 z"
         id="path27"
         style="fill:#006680;stroke:#006680;stroke-opacity:1" />
      <linearGradient
         id="SVGID_3_"
         gradientUnits="userSpaceOnUse"
         x1="46.181198"
         y1="88.808601"
         x2="62.918499"
         y2="88.808601">
        <stop
           offset="0"
           style="stop-color:#80C11B"
           id="stop30" />
        <stop
           offset="1"
           style="stop-color:#80E21B"
           id="stop32" />
      </linearGradient>
      <path
         inkscape:connector-curvature="0"
         d="m 58.476,86.259 -4.15,-7.043 -8.145,0.055 2.689,1.529 -1.651,2.99 c -1.013,1.881 -0.17,3.711 -0.17,3.711 l 5.096,8.885 c 1.604,2.197 3.656,2.011 3.656,2.011 l 7.118,-0.05 -0.024,-8.207 -9.112,0.027 C 53.34,90.104 53.179,89.706 53.432,89.278 l 2.515,-4.447 2.529,1.428 0,0 z"
         id="path34"
         style="fill:#006680;stroke:#006680;stroke-opacity:1" />
      <linearGradient
         id="SVGID_4_"
         gradientUnits="userSpaceOnUse"
         x1="51.8843"
         y1="73.499001"
         x2="76.783203"
         y2="73.499001">
        <stop
           offset="0"
           style="stop-color:#80C11B"
           id="stop37" />
        <stop
           offset="1"
           style="stop-color:#80E21B"
           id="stop39" />
      </linearGradient>
      <path
         inkscape:connector-curvature="0"
         d="m 64.572,77.841 8.174,-0.063 4.037,-7.074 -2.672,1.561 -1.762,-2.928 C 71.232,67.519 69.224,67.329 69.224,67.329 L 58.981,67.282 c -2.707,0.287 -3.573,2.154 -3.573,2.154 l -3.524,6.188 7.111,4.092 4.546,-7.896 c 0.276,-0.354 0.701,-0.291 0.944,0.145 l 2.588,4.402 -2.501,1.474 0,0 z"
         id="path41"
         style="fill:#006680;stroke:#006680;stroke-opacity:1" />
    </g>
  </g>
</svg>
