<?xml version="1.0" encoding="UTF-8" standalone="no"?>
<!-- Created with Inkscape (http://www.inkscape.org/) -->

<svg
   xmlns:dc="http://purl.org/dc/elements/1.1/"
   xmlns:cc="http://creativecommons.org/ns#"
   xmlns:rdf="http://www.w3.org/1999/02/22-rdf-syntax-ns#"
   xmlns:svg="http://www.w3.org/2000/svg"
   xmlns="http://www.w3.org/2000/svg"
   xmlns:sodipodi="http://sodipodi.sourceforge.net/DTD/sodipodi-0.dtd"
   xmlns:inkscape="http://www.inkscape.org/namespaces/inkscape"
   width="500"
   height="500"
   id="svg2"
   version="1.1"
   inkscape:version="0.48.5 r10040"
   sodipodi:docname="application-x-perl.svg">
  <defs
     id="defs4" />
  <sodipodi:namedview
     id="base"
     pagecolor="#ffffff"
     bordercolor="#666666"
     borderopacity="1.0"
     inkscape:pageopacity="0.0"
     inkscape:pageshadow="2"
     inkscape:zoom="0.60666665"
     inkscape:cx="414.33366"
     inkscape:cy="189.21804"
     inkscape:document-units="px"
     inkscape:current-layer="layer1"
     showgrid="false"
     inkscape:window-width="1366"
     inkscape:window-height="716"
     inkscape:window-x="0"
     inkscape:window-y="0"
     inkscape:window-maximized="1" />
  <metadata
     id="metadata7">
    <rdf:RDF>
      <cc:Work
         rdf:about="">
        <dc:format>image/svg+xml</dc:format>
        <dc:type
           rdf:resource="http://purl.org/dc/dcmitype/StillImage" />
        <dc:title />
      </cc:Work>
    </rdf:RDF>
  </metadata>
  <g
     inkscape:label="Layer 1"
     inkscape:groupmode="layer"
     id="layer1"
     transform="translate(0,-552.36218)">
    <rect
       style="fill:#ffffff;fill-opacity:1;stroke:none"
       id="rect3000"
       width="450"
       height="450"
       x="25"
       y="577.36218"
       ry="55.366497" />
    <path
       style="fill:#502d16;stroke:none;stroke-width:1px;stroke-linecap:butt;stroke-linejoin:miter;stroke-opacity:1;fill-opacity:1"
       d="M 100,475 100,25 C 100,25 61.202184,19.758699 40.940323,41.934658 20.678462,64.110616 25,90.3 25,90.3 L 25,410 c 0,0 -3.104929,34.44943 20.038287,52.1379 C 68.181502,479.82637 100,475 100,475 z"
       id="path3770"
       inkscape:connector-curvature="0"
       transform="translate(0,552.36218)"
       sodipodi:nodetypes="cczcczc" />
    <path
       style="fill:#502d16;fill-opacity:1;stroke:#000000;stroke-width:0.91120296999999995"
       d="m 238.7921,727.81777 c -4.44752,0.74503 -8.26289,3.08137 -12.45714,4.47405 -8.86253,5.69556 -15.9842,14.44136 -17.80845,24.97277 -5.54772,17.81811 -21.85907,29.53139 -27.55497,47.19979 -4.69008,11.33048 -13.08681,20.2575 -20.92846,29.35607 -5.40431,6.74741 -4.81246,15.79688 -7.19356,23.68611 -2.37985,2.14676 -4.0694,7.06999 0.38015,7.60295 -0.12059,4.01134 -2.86917,8.47598 0.0292,12.31093 2.25158,8.37836 6.23334,16.40068 10.17626,24.15399 0.78389,2.82411 5.61172,6.10132 6.34554,1.54983 0.58672,-6.49492 3.39693,-14.21543 -1.16969,-19.94312 -2.92628,-7.34438 -0.51915,-15.09787 0.84803,-22.42871 -0.66147,-4.52267 0.95251,-9.68393 3.39208,-13.27592 2.51874,1.35617 1.66186,5.90909 2.66009,8.35191 2.40601,17.57276 3.13422,35.84392 -1.31495,53.17351 -1.65633,6.78903 1.06598,13.97473 -0.52636,20.64493 -5.71515,6.20963 -1.28808,15.12538 -0.78954,22.341 2.77744,13.3876 1.25712,27.293 -2.74876,40.0909 -0.0889,4.596 -1.69581,8.79154 -2.66103,13.18824 1.60103,5.5303 9.20304,7.474 14.27016,6.1701 3.15498,-2.1287 9.16931,1.9284 10.67337,-3.1289 0.4562,-5.4904 -4.90837,-9.59684 -4.47405,-15.17674 -3.34347,-15.3062 -5.85623,-31.2511 -2.60836,-46.86112 1.67458,-9.06739 1.01967,-18.76395 3.57335,-27.50155 5.6364,-7.07585 9.49729,-15.446 11.90155,-24.21247 3.35081,-7.28607 5.42515,-16.13638 7.45674,-23.07203 8.74792,14.0618 14.0053,30.91138 11.7179,47.69152 0.29544,6.54501 -3.79815,14.212 1.70162,19.38005 6.66804,10.4303 15.08302,20.2666 18.45438,32.2931 0.26712,5.0283 -6.50953,5.1084 -8.30476,9.1821 -3.98165,5.7884 -3.55974,13.1628 -4.00617,19.8554 3.75845,1.45924 9.27658,5.34384 12.45714,0.67254 3.10557,-3.27544 4.42992,-9.00484 7.66144,-11.52144 1.99182,3.7713 0.13382,9.8811 5.26358,11.72624 7.35907,2.639 15.84781,3.3726 23.48142,1.5497 3.92125,-3.40064 -1.44098,-8.19624 -4.76647,-9.50364 -5.51662,-1.6339 -8.75505,-5.9343 -10.64413,-11.1413 -1.73449,-2.8762 -2.97373,-6.2382 0.40939,-8.4509 7.96032,-9.6564 18.9115,-16.0491 27.34138,-25.08978 5.08717,-7.06704 3.74622,-16.90993 1.81301,-24.88504 -2.38361,-4.65233 -4.10742,-9.53479 -2.80724,-14.82575 0.88586,-4.5543 -2.23684,-9.25902 -2.04695,-13.30517 4.46206,-0.2893 9.67682,-0.12704 13.65607,1.37438 1.07899,7.19972 -0.52175,14.87703 1.54983,21.84386 3.37769,3.22553 4.97762,8.3207 5.2051,12.95426 3.15414,3.88144 1.16261,9.59047 2.01771,14.32864 -2.01876,7.7194 0.85172,15.3352 3.21663,22.6626 4.32663,13.9428 2.49735,28.9712 6.19933,42.95674 2.81208,3.9716 -1.90536,10.6007 3.59678,13.2175 8.51013,3.1796 19.90974,4.0899 27.16592,-2.3102 2.21138,-4.4194 -4.31595,-6.9591 -7.45674,-8.3632 -4.41394,-0.9602 -7.76319,-4.0441 -8.70068,-8.6101 -6.71573,-13.85604 -9.99398,-29.39704 -7.64748,-44.83894 0.34115,-7.4411 1.36228,-14.79794 3.27694,-21.87872 0.89871,-7.23784 1.01236,-14.67943 3.1289,-21.55144 1.2437,-9.68412 -0.86716,-19.88697 1.84226,-29.3006 4.38001,2.78261 9.07906,5.59708 14.27015,5.99463 3.37389,2.55915 6.99992,0.007 8.83112,-3.07042 2.70688,-3.71847 5.96085,6.21326 8.43586,1.17735 3.07081,-3.48176 7.03222,-5.96646 10.51303,-8.69257 1.97295,-3.21509 6.02254,-3.11681 8.86036,-4.59102 1.97018,-2.57444 -1.27033,-6.64623 2.36861,-8.62642 1.24149,-3.2973 4.40535,1.04993 5.84843,-2.07619 1.53376,-3.40053 1.28853,-8.08434 5.38055,-9.56217 7.42881,-5.90059 5.20523,-16.66144 6.53519,-24.99923 -0.0851,-8.31527 1.56165,-17.12675 -0.47163,-25.14042 -2.38182,-6.34295 -6.29704,-12.79119 -7.87657,-19.10568 7.24094,-5.77901 20.04689,-0.98942 24.97276,-10.49792 2.1348,-6.95606 -4.57968,-12.8949 -9.00657,-17.31133 -4.30546,-4.05682 -11.09571,-2.12481 -16.35971,-4.11931 -4.0862,-1.38618 -10.43931,0.14837 -11.50803,-5.41362 -1.71339,-4.39769 -7.07424,-4.36227 -9.94232,-7.69068 -4.59171,-2.36406 -8.7573,3.03857 -13.27592,3.47981 -5.02942,3.51123 -10.79512,6.93607 -14.00697,12.28169 -1.37416,3.4862 -0.18634,8.0392 -3.94769,10.2055 -6.27586,7.21587 -3.64034,17.92025 -4.2401,26.69806 0.0795,4.01036 -0.0255,8.07119 2.25164,11.34594 0.34439,4.92129 4.81993,8.15133 4.02287,13.21727 -0.62509,3.32653 2.30122,10.42987 -3.20409,8.88976 -1.67644,-2.79731 -1.42647,-7.55583 -2.9884,-10.8386 -4.60408,-14.1573 -11.58143,-29.50091 -25.52266,-36.59211 -9.83461,-7.20286 -16.85478,-17.67131 -20.93736,-29.03742 -3.86191,-5.76647 -10.97062,-9.31904 -14.00697,-15.5568 -3.99076,-1.69987 -8.80806,-1.11161 -12.77881,-3.33361 -4.93125,-2.18764 -9.38984,-6.1486 -15.29279,-5.44929 -3.89287,0.28645 -7.48196,-1.07035 -11.17132,-1.36413 z m 7.19356,158.81394 c 3.41046,1.13264 2.3588,6.44697 3.59678,9.21126 1.59711,3.87912 0.24788,10.76111 4.76647,12.72033 2.54986,4.22115 0.9681,9.93275 3.53829,13.83152 -0.59393,2.76705 -1.49802,7.93737 2.80725,8.01234 3.8606,-0.33385 4.91789,3.98058 7.63219,5.9069 2.51114,3.51136 5.31577,8.48711 1.43286,12.194 -3.76442,4.5674 -6.34147,11.7379 -13.27592,11.9307 -2.85709,0.3069 -6.80378,4.7568 -8.10006,0.1755 -4.94126,-8.3379 -9.14472,-17.21215 -8.1878,-27.13668 0.0746,-15.58402 3.62498,-30.89659 5.4098,-46.26103 -0.086,-0.43019 0.0623,-0.6122 0.38014,-0.58484 z"
       id="path2997"
       inkscape:connector-curvature="0" />
  </g>
</svg>
