<?xml version="1.0" encoding="UTF-8" standalone="no"?>
<!-- Created with Inkscape (http://www.inkscape.org/) -->

<svg
   xmlns:dc="http://purl.org/dc/elements/1.1/"
   xmlns:cc="http://creativecommons.org/ns#"
   xmlns:rdf="http://www.w3.org/1999/02/22-rdf-syntax-ns#"
   xmlns:svg="http://www.w3.org/2000/svg"
   xmlns="http://www.w3.org/2000/svg"
   xmlns:sodipodi="http://sodipodi.sourceforge.net/DTD/sodipodi-0.dtd"
   xmlns:inkscape="http://www.inkscape.org/namespaces/inkscape"
   width="500"
   height="500"
   id="svg2"
   version="1.1"
   inkscape:version="0.91 r13725"
   sodipodi:docname="application-postscript.svg">
  <defs
     id="defs4" />
  <sodipodi:namedview
     id="base"
     pagecolor="#ffffff"
     bordercolor="#666666"
     borderopacity="1.0"
     inkscape:pageopacity="0.0"
     inkscape:pageshadow="2"
     inkscape:zoom="0.60666666"
     inkscape:cx="479.50821"
     inkscape:cy="320.86707"
     inkscape:document-units="px"
     inkscape:current-layer="layer1"
     showgrid="false"
     inkscape:window-width="1366"
     inkscape:window-height="711"
     inkscape:window-x="0"
     inkscape:window-y="0"
     inkscape:window-maximized="1" />
  <metadata
     id="metadata7">
    <rdf:RDF>
      <cc:Work
         rdf:about="">
        <dc:format>image/svg+xml</dc:format>
        <dc:type
           rdf:resource="http://purl.org/dc/dcmitype/StillImage" />
        <dc:title />
      </cc:Work>
    </rdf:RDF>
  </metadata>
  <g
     inkscape:label="Layer 1"
     inkscape:groupmode="layer"
     id="layer1"
     transform="translate(0,-552.36218)">
    <path
       style="fill:#4d4d4d;fill-rule:evenodd;stroke:none;stroke-width:1px;stroke-linecap:butt;stroke-linejoin:miter;stroke-opacity:1"
       d="m 63.190691,706.79487 53.222039,52.09856 -1.66005,-73.04185 -51.600949,-0.2451 z"
       id="path4230"
       inkscape:connector-curvature="0"
       sodipodi:nodetypes="ccccc" />
    <path
       style="fill:#f2f2f2;fill-rule:evenodd;stroke:#afafaf;stroke-width:5.03546047;stroke-linecap:butt;stroke-linejoin:miter;stroke-miterlimit:4;stroke-dasharray:none;stroke-opacity:1"
       d="m 96.901311,1029.8357 336.888419,-1.1739 1.1737,-363.88661 -88.03698,-89.21086 -250.025139,0 z"
       id="path3364"
       inkscape:connector-curvature="0" />
    <path
       style="fill:#afafaf;fill-opacity:1;fill-rule:evenodd;stroke:#afafaf;stroke-width:5.03546047;stroke-linecap:butt;stroke-linejoin:miter;stroke-miterlimit:4;stroke-dasharray:none;stroke-opacity:1"
       d="m 431.37943,662.93103 -82.16428,-0.58691 0.7585,-83.80351 z"
       id="path4166"
       inkscape:connector-curvature="0"
       sodipodi:nodetypes="cccc" />
    <rect
       style="fill:#666666;fill-opacity:1;stroke:none;stroke-width:5;stroke-miterlimit:4;stroke-dasharray:none;stroke-opacity:1"
       id="rect4228"
       width="224.93568"
       height="84.350876"
       x="63"
       y="622.18719" />
    <rect
       style="fill:#999999;fill-opacity:1;stroke:none"
       id="rect2997"
       width="222.97325"
       height="53.452499"
       x="159.69"
       y="905.11053" />
    <rect
       style="fill:#5d6a7b;fill-opacity:1;stroke:none"
       id="rect2997-3-6"
       width="174.10243"
       height="69.488251"
       x="182.97998"
       y="816.15021" />
    <path
       style="fill:#ffffff;stroke:none"
       d="m 196.73727,842.64883 0,-39.95643 34.01696,-27.53755 111.77002,-0.53994 0.53996,68.57386 z"
       id="path3841"
       inkscape:connector-curvature="0"
       sodipodi:nodetypes="cccccc" />
    <rect
       style="fill:#666666;fill-opacity:1;stroke:none"
       id="rect2997-3"
       width="222.97325"
       height="69.488251"
       x="159.30817"
       y="837.91302" />
    <rect
       style="fill:#ffffff;fill-opacity:1;stroke:none"
       id="rect2997-3-6-5"
       width="174.10243"
       height="85.523987"
       x="186.7981"
       y="939.09094" />
    <rect
       style="fill:#5d6a7b;fill-opacity:1;stroke:none"
       id="rect2997-3-6-7"
       width="174.10243"
       height="17.562963"
       x="186.7981"
       y="923.05524" />
    <path
       sodipodi:type="arc"
       style="fill:#8dd35f;fill-opacity:1;stroke:none"
       id="path3053"
       sodipodi:cx="359.67407"
       sodipodi:cy="859.10315"
       sodipodi:rx="8.7004938"
       sodipodi:ry="8.9723835"
       d="m 368.37457,859.10315 a 8.7004938,8.9723835 0 0 1 -8.69029,8.97238 8.7004938,8.9723835 0 0 1 -8.71068,-8.95132 8.7004938,8.9723835 0 0 1 8.66984,-8.99339 8.7004938,8.9723835 0 0 1 8.73103,8.93021"
       sodipodi:start="0"
       sodipodi:end="6.2784904"
       sodipodi:open="true" />
    <path
       style="fill:#ebebeb;stroke:none"
       d="m 196.53478,802.89489 34.21945,0 0.0674,-27.87502 z"
       id="path3843"
       inkscape:connector-curvature="0"
       sodipodi:nodetypes="cccc" />
    <rect
       style="fill:#cccccc;fill-opacity:1;stroke:none"
       id="rect2997-3-6-7-3"
       width="152.69215"
       height="8.3837843"
       x="197.69818"
       y="949.95703" />
    <rect
       style="fill:#cccccc;fill-opacity:1;stroke:none"
       id="rect2997-3-6-7-3-5"
       width="152.69215"
       height="8.3837843"
       x="196.52441"
       y="991.26337" />
    <rect
       style="fill:#cccccc;fill-opacity:1;stroke:none"
       id="rect2997-3-6-7-3-6"
       width="152.69215"
       height="8.3837843"
       x="196.52435"
       y="969.66528" />
    <path
       style="fill:none;fill-rule:evenodd;stroke:#ffffff;stroke-width:9.06382847;stroke-linecap:butt;stroke-linejoin:miter;stroke-miterlimit:4;stroke-dasharray:none;stroke-opacity:1"
       d="m 128.87526,695.07217 0,-56.44143 c 0,0 30.81883,-5.94185 30.71077,14.31786 -0.10806,20.2597 -30.08826,14.73287 -30.08826,14.73287"
       id="path4259"
       inkscape:connector-curvature="0"
       sodipodi:nodetypes="cczc" />
    <path
       style="fill:none;fill-rule:evenodd;stroke:#ffffff;stroke-width:10;stroke-linecap:butt;stroke-linejoin:miter;stroke-miterlimit:4;stroke-dasharray:none;stroke-opacity:1"
       d="m 210.23297,641.36733 c 0,0 -9.26192,-4.269 -18.06619,-4.37085 -8.80427,-0.10185 -14.26789,5.23284 -14.5695,12.82117 -0.30162,7.58832 3.92901,13.66202 19.08605,15.44367 15.15704,1.78165 14.25231,15.00213 12.38407,19.66884 -1.86824,4.66671 -10.69001,9.07335 -19.66883,7.86753 -8.97882,-1.20582 -16.46354,-5.24502 -16.46354,-5.24502"
       id="path3353"
       inkscape:connector-curvature="0"
       sodipodi:nodetypes="czzzzzc" />
  </g>
</svg>
