<?xml version="1.0" encoding="UTF-8" standalone="no"?>
<!-- Created with Inkscape (http://www.inkscape.org/) -->

<svg
   xmlns:dc="http://purl.org/dc/elements/1.1/"
   xmlns:cc="http://creativecommons.org/ns#"
   xmlns:rdf="http://www.w3.org/1999/02/22-rdf-syntax-ns#"
   xmlns:svg="http://www.w3.org/2000/svg"
   xmlns="http://www.w3.org/2000/svg"
   xmlns:sodipodi="http://sodipodi.sourceforge.net/DTD/sodipodi-0.dtd"
   xmlns:inkscape="http://www.inkscape.org/namespaces/inkscape"
   width="500"
   height="500"
   id="svg2"
   version="1.1"
   inkscape:version="0.91 r13725"
   sodipodi:docname="application-x-kcsrc.svg">
  <defs
     id="defs4" />
  <sodipodi:namedview
     id="base"
     pagecolor="#ffffff"
     bordercolor="#666666"
     borderopacity="1.0"
     inkscape:pageopacity="0.0"
     inkscape:pageshadow="2"
     inkscape:zoom="0.4289781"
     inkscape:cx="483.89656"
     inkscape:cy="412.03569"
     inkscape:document-units="px"
     inkscape:current-layer="layer1"
     showgrid="false"
     inkscape:window-width="1366"
     inkscape:window-height="711"
     inkscape:window-x="0"
     inkscape:window-y="0"
     inkscape:window-maximized="1" />
  <metadata
     id="metadata7">
    <rdf:RDF>
      <cc:Work
         rdf:about="">
        <dc:format>image/svg+xml</dc:format>
        <dc:type
           rdf:resource="http://purl.org/dc/dcmitype/StillImage" />
        <dc:title />
      </cc:Work>
    </rdf:RDF>
  </metadata>
  <g
     inkscape:label="Layer 1"
     inkscape:groupmode="layer"
     id="layer1"
     transform="translate(0,-552.36218)">
    <path
       style="fill:#004455;fill-rule:evenodd;stroke:none;stroke-width:1px;stroke-linecap:butt;stroke-linejoin:miter;stroke-opacity:1"
       d="m 63.03896,706.21217 53.22205,52.09856 -1.66005,-73.04185 L 63,685.02378 Z"
       id="path4230"
       inkscape:connector-curvature="0"
       sodipodi:nodetypes="ccccc" />
    <path
       style="fill:#f2f2f2;fill-rule:evenodd;stroke:#afafaf;stroke-width:5.03546047;stroke-linecap:butt;stroke-linejoin:miter;stroke-miterlimit:4;stroke-dasharray:none;stroke-opacity:1"
       d="m 97.04098,1029.8357 336.88838,-1.1739 1.17377,-363.88653 -88.03697,-89.21086 -250.02518,0 z"
       id="path3364"
       inkscape:connector-curvature="0" />
    <path
       sodipodi:nodetypes="ccccsccccssccccc"
       id="path895"
       d="m 254.06611,776.7937 c -1.56541,4.1621 -3.32767,8.37557 -5.1274,12.40105 -0.15034,0.34932 -0.3868,0.64429 -0.5403,0.98991 -1.66037,3.66855 -3.30568,7.10795 -5.12738,10.6683 -0.37808,0.7359 -0.69523,1.50018 -1.07957,2.22834 -1.64613,3.1455 -3.38135,6.3629 -5.12742,9.42427 -0.60675,1.06716 -1.27231,2.17465 -1.88946,3.22516 -15.61816,26.15055 -36.14239,53.46453 -52.35352,76.38867 -12.84505,17.2471 -20.23168,35.8625 -22.39869,53.82067 0,44.59879 41.88306,80.85203 93.64274,80.85203 51.75958,0 93.64262,-36.25324 93.64262,-80.85203 0,-28.09981 -22.41906,-56.97383 -48.30563,-93.99851 -8.19376,-11.50049 -16.10109,-23.59657 -23.20825,-34.97169 -3.85755,-6.22896 -7.62914,-12.6421 -11.33425,-19.34346 -1.15746,-2.09195 -2.37329,-4.30683 -3.50826,-6.44789 -2.45314,-4.63957 -4.96591,-9.5072 -7.28623,-14.38642 z"
       style="fill:#37abc8;fill-opacity:1;fill-rule:nonzero;stroke:none"
       inkscape:connector-curvature="0" />
    <path
       sodipodi:nodetypes="ccscssc"
       id="path895-3"
       d="m 182.6053,892.1194 c -12.84504,17.2471 -20.23167,35.8625 -22.39869,53.82067 0,44.59879 41.88307,80.85203 93.64275,80.85203 51.75957,0 93.64262,-36.25324 93.64262,-80.85203 -174.1098,52.07369 -148.55768,-63.44027 -79.8999,-43.7013 75.56598,21.72504 32.67843,-31.19942 -16.83518,-36.79172 -39.90991,-4.5076 -68.1516,26.67235 -68.1516,26.67235 z"
       style="fill:#0088aa;fill-opacity:1;fill-rule:nonzero;stroke:none"
       inkscape:connector-curvature="0" />
    <path
       style="fill:#afafaf;fill-opacity:1;fill-rule:evenodd;stroke:#afafaf;stroke-width:5.03546047;stroke-linecap:butt;stroke-linejoin:miter;stroke-miterlimit:4;stroke-dasharray:none;stroke-opacity:1"
       d="m 431.51909,662.93111 -82.16431,-0.58691 0.75853,-83.80351 z"
       id="path4166"
       inkscape:connector-curvature="0"
       sodipodi:nodetypes="cccc" />
    <rect
       style="fill:#0088aa;fill-opacity:1;stroke:none;stroke-width:5;stroke-miterlimit:4;stroke-dasharray:none;stroke-opacity:1"
       id="rect4228"
       width="270.52393"
       height="84.350876"
       x="63.139668"
       y="622.18726" />
    <g
       id="g4269"
       transform="matrix(1.0070921,0,0,1.0070921,-947.65523,-10.232444)">
      <path
         inkscape:connector-curvature="0"
         id="path4261"
         d="m 1024.6566,695.90612 0.4121,-59.95879"
         style="fill:none;fill-rule:evenodd;stroke:#ffffff;stroke-width:9;stroke-linecap:butt;stroke-linejoin:miter;stroke-miterlimit:4;stroke-dasharray:none;stroke-opacity:1" />
      <path
         inkscape:connector-curvature="0"
         id="path4263"
         d="m 1059.272,636.56546 -28.022,26.99176 30.2885,31.11264"
         style="fill:none;fill-rule:evenodd;stroke:#ffffff;stroke-width:9;stroke-linecap:butt;stroke-linejoin:round;stroke-miterlimit:4;stroke-dasharray:none;stroke-opacity:1" />
    </g>
    <path
       style="fill:none;fill-rule:evenodd;stroke:#ffffff;stroke-width:9;stroke-linecap:butt;stroke-linejoin:miter;stroke-miterlimit:4;stroke-dasharray:none;stroke-opacity:1"
       d="m 170.18652,638.80384 c 0,0 -7.61602,-6.81634 -21.51052,-5.73613 -13.8945,1.08021 -21.77754,16.92381 -21.03251,28.91969 0.74503,11.99588 11.26493,26.26777 24.8566,25.09561 13.59167,-1.17217 17.68643,-5.97515 17.68643,-5.97515"
       id="path4275"
       inkscape:connector-curvature="0"
       sodipodi:nodetypes="czzzc" />
    <path
       style="fill:none;fill-rule:evenodd;stroke:#ffffff;stroke-width:10;stroke-linecap:butt;stroke-linejoin:miter;stroke-miterlimit:4;stroke-dasharray:none;stroke-opacity:1"
       d="m 217.65056,637.24644 c 0,0 -9.26192,-4.269 -18.06619,-4.37085 -8.80427,-0.10185 -14.26789,5.23284 -14.5695,12.82117 -0.30162,7.58832 3.92901,13.66202 19.08605,15.44367 15.15704,1.78165 14.25231,15.00213 12.38407,19.66884 -1.86824,4.66671 -10.69001,9.07335 -19.66883,7.86753 -8.97882,-1.20582 -16.46354,-5.24502 -16.46354,-5.24502"
       id="path3353"
       inkscape:connector-curvature="0"
       sodipodi:nodetypes="czzzzzc" />
    <g
       id="g4263"
       transform="translate(-152.62662,-45.276615)">
      <path
         sodipodi:nodetypes="cczc"
         inkscape:connector-curvature="0"
         id="path4259-2"
         d="m 384.45249,735.90961 0,-56.44143 c 0,0 30.81883,-5.94185 30.71077,14.31786 -0.10806,20.2597 -30.08826,14.73287 -30.08826,14.73287"
         style="fill:none;fill-rule:evenodd;stroke:#ffffff;stroke-width:9.06382847;stroke-linecap:butt;stroke-linejoin:miter;stroke-miterlimit:4;stroke-dasharray:none;stroke-opacity:1" />
      <path
         inkscape:connector-curvature="0"
         id="path3393"
         d="m 392.46407,710.4452 25.93373,24.47677"
         style="fill:none;fill-rule:evenodd;stroke:#ffffff;stroke-width:9;stroke-linecap:butt;stroke-linejoin:miter;stroke-miterlimit:4;stroke-dasharray:none;stroke-opacity:1" />
    </g>
    <path
       style="fill:none;fill-rule:evenodd;stroke:#ffffff;stroke-width:9;stroke-linecap:butt;stroke-linejoin:miter;stroke-miterlimit:4;stroke-dasharray:none;stroke-opacity:1"
       d="m 317.71399,638.80385 c 0,0 -7.61602,-6.81634 -21.51052,-5.73613 -13.8945,1.08021 -21.77754,16.92381 -21.03251,28.91969 0.74503,11.99588 11.26493,26.26777 24.8566,25.09561 13.59167,-1.17217 17.68643,-5.97515 17.68643,-5.97515"
       id="path4275-0"
       inkscape:connector-curvature="0"
       sodipodi:nodetypes="czzzc" />
  </g>
</svg>
