<?xml version="1.0" encoding="UTF-8" standalone="no"?>
<!-- Created with Inkscape (http://www.inkscape.org/) -->

<svg
   xmlns:dc="http://purl.org/dc/elements/1.1/"
   xmlns:cc="http://creativecommons.org/ns#"
   xmlns:rdf="http://www.w3.org/1999/02/22-rdf-syntax-ns#"
   xmlns:svg="http://www.w3.org/2000/svg"
   xmlns="http://www.w3.org/2000/svg"
   xmlns:sodipodi="http://sodipodi.sourceforge.net/DTD/sodipodi-0.dtd"
   xmlns:inkscape="http://www.inkscape.org/namespaces/inkscape"
   width="500"
   height="500"
   id="svg2"
   version="1.1"
   inkscape:version="0.48.5 r10040"
   sodipodi:docname="application-x-desktop.svg">
  <defs
     id="defs4" />
  <sodipodi:namedview
     id="base"
     pagecolor="#ffffff"
     bordercolor="#666666"
     borderopacity="1.0"
     inkscape:pageopacity="0.0"
     inkscape:pageshadow="2"
     inkscape:zoom="0.4289781"
     inkscape:cx="-12.429868"
     inkscape:cy="336.95643"
     inkscape:document-units="px"
     inkscape:current-layer="layer1"
     showgrid="false"
     inkscape:window-width="1366"
     inkscape:window-height="716"
     inkscape:window-x="0"
     inkscape:window-y="0"
     inkscape:window-maximized="1" />
  <metadata
     id="metadata7">
    <rdf:RDF>
      <cc:Work
         rdf:about="">
        <dc:format>image/svg+xml</dc:format>
        <dc:type
           rdf:resource="http://purl.org/dc/dcmitype/StillImage" />
        <dc:title />
      </cc:Work>
    </rdf:RDF>
  </metadata>
  <g
     inkscape:label="Layer 1"
     inkscape:groupmode="layer"
     id="layer1"
     transform="translate(0,-552.36218)">
    <rect
       style="fill:#ffffff;fill-opacity:1;stroke:none"
       id="rect3000"
       width="450"
       height="450"
       x="25"
       y="577.36218"
       ry="55.366497" />
    <path
       style="fill:#ff6600;stroke:none;stroke-width:1px;stroke-linecap:butt;stroke-linejoin:miter;stroke-opacity:1;fill-opacity:1"
       d="M 100,475 100,25 C 100,25 61.202184,19.758699 40.940323,41.934658 20.678462,64.110616 25,90.3 25,90.3 L 25,410 c 0,0 -3.104929,34.44943 20.038287,52.1379 C 68.181502,479.82637 100,475 100,475 z"
       id="path3770"
       inkscape:connector-curvature="0"
       transform="translate(0,552.36218)"
       sodipodi:nodetypes="cczcczc" />
    <path
       inkscape:connector-curvature="0"
       style="fill:#ff6600"
       d="m 436.59392,847.04971 c 0.008,0 0.14738,0.0907 0.14738,0.0985 V 1014.1028 H 163.25804 V 847.14819 c 0,-0.008 0.0972,-0.0985 0.105,-0.0985 h 273.23088 l 0,0 z"
       id="path9" />
    <path
       style="fill:#803300;stroke:#000000;stroke-width:0.33385167px;stroke-linecap:butt;stroke-linejoin:miter;stroke-opacity:1"
       d="m 162.87172,936.26682 -0.43767,66.69818 275.15174,-0.1684 -0.72743,-55.18889 c 0,0 -38.85222,10.63657 -72.45464,7.3448 -33.60241,-3.29183 -84.83178,-36.29189 -120.59027,-37.53651 -35.75844,-1.24461 -80.94173,18.85082 -80.94173,18.85082 z"
       id="path3787"
       inkscape:connector-curvature="0"
       sodipodi:nodetypes="cccczzc" />
    <path
       inkscape:connector-curvature="0"
       style="fill:#394050"
       d="m 436.59392,847.04971 c 0.008,0 0.14738,0.0907 0.14738,0.0985 V 1014.1028 H 163.25804 V 847.14819 c 0,-0.008 0.0972,-0.0985 0.105,-0.0985 h 273.23088 l 0,0 z M 450,930.57559 v -83.45088 c 0,-7.07413 -6.30782,-13.33304 -13.38261,-13.33304 l 0,0 H 163.33956 c -7.07413,0 -13.33956,6.25891 -13.33956,13.33304 v 83.45088 0.002 83.45161 c 0,7.0747 6.26543,13.333 13.33956,13.333 h 273.27783 l 0,0 c 7.07479,0 13.38261,-6.2589 13.38261,-13.333 v -83.45161 -0.002 z"
       id="path7" />
    <rect
       style="fill:#394050;fill-opacity:0.58823529;stroke:none"
       id="rect3062"
       width="280.28574"
       height="12"
       x="160.12572"
       y="1002.8311" />
    <path
       style="fill:#ffb800;stroke:none"
       d="m 172.72653,855.49835 10.71241,0.008 0.17997,0.0806 0.0886,0.17192 0,9.01207 1.01269,1.03686 0.008,4.66854 -0.25519,0.1746 -11.75195,0.086 z"
       id="path2996"
       inkscape:connector-curvature="0" />
    <path
       style="fill:#faec6d;stroke:none"
       d="m 172.72653,855.49875 4.08752,3.35055 0.0152,9.34506 -0.3191,0.48624 0.008,4.71811 -0.25831,0.14435 -3.53918,-2.8101 z"
       id="path3766"
       inkscape:connector-curvature="0"
       sodipodi:nodetypes="cccccccc" />
    <path
       style="fill:none;stroke:#ffb800;stroke-width:0.08509322px;stroke-linecap:round;stroke-linejoin:miter;stroke-opacity:1"
       d="m 173.11871,870.51666 0.0215,-14.05398"
       id="path3768"
       inkscape:connector-curvature="0" />
    <path
       style="fill:none;stroke:#ffb800;stroke-width:0.08509322px;stroke-linecap:round;stroke-linejoin:miter;stroke-opacity:1"
       d="m 173.40338,870.72118 0.0215,-14.05399"
       id="path3768-3"
       inkscape:connector-curvature="0" />
    <path
       inkscape:connector-curvature="0"
       id="path3340"
       d="m 177.66116,887.14414 c -2.23431,-0.1114 -4.29899,-0.7302 -5.19058,-1.55566 -0.22626,-0.20946 -0.40663,-0.50829 -0.406,-0.67258 8.6e-4,-0.27808 0.34301,-0.69363 0.82272,-0.9998 2.05301,-1.31029 6.30147,-1.65922 9.41583,-0.77332 1.07576,0.30601 1.8886,0.72296 2.33762,1.19909 0.30358,0.32191 0.36082,0.5262 0.22889,0.81681 -0.30999,0.68278 -1.69037,1.37796 -3.42721,1.726 -0.69911,0.1401 -1.36468,0.21964 -2.18927,0.26162 -0.72178,0.0368 -0.81322,0.0367 -1.592,-0.003 z"
       style="fill:#cccccc;fill-opacity:0.58823529;stroke-width:0.78468841" />
    <path
       inkscape:connector-curvature="0"
       id="path3340-3"
       d="m 177.88606,898.68698 c -1.71427,-0.0855 -3.29841,-0.56023 -3.98249,-1.19357 -0.1736,-0.16073 -0.31199,-0.38999 -0.31151,-0.51604 6e-4,-0.21335 0.26318,-0.5322 0.63123,-0.76709 1.57519,-1.00535 4.83484,-1.27304 7.22434,-0.59336 0.82539,0.2348 1.44904,0.5547 1.79355,0.92003 0.23293,0.24698 0.27685,0.40372 0.17562,0.62669 -0.23784,0.52388 -1.29694,1.05724 -2.62955,1.32429 -0.53639,0.10747 -1.04704,0.16849 -1.67972,0.20073 -0.55379,0.0282 -0.62394,0.0281 -1.22147,-0.003 z"
       style="fill:#cccccc;fill-opacity:0.58823529;stroke-width:0.78468841" />
    <path
       inkscape:connector-curvature="0"
       id="path3348"
       d="m 177.772,898.69157 c -1.83601,-0.12587 -3.33078,-0.62728 -3.97663,-1.33393 -0.22996,-0.25162 -0.2922,-0.38636 -0.36034,-0.78016 -0.18808,-1.08679 -2.03603,-11.02922 -2.08435,-11.21434 -0.33086,-1.26733 1.01916,-2.41519 3.58015,-3.04402 0.58651,-0.14402 1.47769,-0.28663 2.18488,-0.34965 0.63494,-0.0566 2.10865,-0.0566 2.74359,0 3.09815,0.27608 5.41735,1.344 5.76682,2.65547 0.0675,0.25323 0.0617,0.4468 -0.0237,0.79696 -0.0924,0.37877 -2.08502,11.17921 -2.08502,11.3012 0,0.0494 -0.0505,0.191 -0.11216,0.31446 -0.31303,0.62643 -1.36265,1.18159 -2.7802,1.47047 -0.789,0.16079 -2.02507,0.24031 -2.85307,0.18354 z"
       style="fill:#969696;fill-opacity:0.58823529;stroke-width:0.78468841" />
    <g
       transform="matrix(0.17579613,0,0,0.17579613,167.32343,878.0253)"
       id="g20"
       style="fill:#006680;stroke:#006680;stroke-opacity:1">
      <linearGradient
         id="SVGID_2_"
         gradientUnits="userSpaceOnUse"
         x1="64.779297"
         y1="89.454102"
         x2="81.225601"
         y2="89.454102">
        <stop
           offset="0"
           style="stop-color:#80C11B"
           id="stop23" />
        <stop
           offset="1"
           style="stop-color:#80E21B"
           id="stop25" />
      </linearGradient>
      <path
         inkscape:connector-curvature="0"
         d="m 68.818,87.321 -4.039,7.105 4.105,7.037 -0.016,-3.096 3.416,-0.063 c 2.135,-0.059 3.303,-1.699 3.303,-1.699 l 5.166,-8.844 c 1.104,-2.484 -0.076,-4.172 -0.076,-4.172 l -3.594,-6.146 -7.104,4.107 4.563,7.889 c 0.168,0.416 -0.1,0.754 -0.596,0.746 l -5.107,0.035 -0.021,-2.899 0,0 z"
         id="path27"
         style="fill:#006680;stroke:#006680;stroke-opacity:1" />
      <linearGradient
         id="SVGID_3_"
         gradientUnits="userSpaceOnUse"
         x1="46.181198"
         y1="88.808601"
         x2="62.918499"
         y2="88.808601">
        <stop
           offset="0"
           style="stop-color:#80C11B"
           id="stop30" />
        <stop
           offset="1"
           style="stop-color:#80E21B"
           id="stop32" />
      </linearGradient>
      <path
         inkscape:connector-curvature="0"
         d="m 58.476,86.259 -4.15,-7.043 -8.145,0.055 2.689,1.529 -1.651,2.99 c -1.013,1.881 -0.17,3.711 -0.17,3.711 l 5.096,8.885 c 1.604,2.197 3.656,2.011 3.656,2.011 l 7.118,-0.05 -0.024,-8.207 -9.112,0.027 C 53.34,90.104 53.179,89.706 53.432,89.278 l 2.515,-4.447 2.529,1.428 0,0 z"
         id="path34"
         style="fill:#006680;stroke:#006680;stroke-opacity:1" />
      <linearGradient
         id="SVGID_4_"
         gradientUnits="userSpaceOnUse"
         x1="51.8843"
         y1="73.499001"
         x2="76.783203"
         y2="73.499001">
        <stop
           offset="0"
           style="stop-color:#80C11B"
           id="stop37" />
        <stop
           offset="1"
           style="stop-color:#80E21B"
           id="stop39" />
      </linearGradient>
      <path
         inkscape:connector-curvature="0"
         d="m 64.572,77.841 8.174,-0.063 4.037,-7.074 -2.672,1.561 -1.762,-2.928 C 71.232,67.519 69.224,67.329 69.224,67.329 L 58.981,67.282 c -2.707,0.287 -3.573,2.154 -3.573,2.154 l -3.524,6.188 7.111,4.092 4.546,-7.896 c 0.276,-0.354 0.701,-0.291 0.944,0.145 l 2.588,4.402 -2.501,1.474 0,0 z"
         id="path41"
         style="fill:#006680;stroke:#006680;stroke-opacity:1" />
    </g>
    <path
       sodipodi:type="arc"
       style="fill:#ffffff;fill-opacity:0.58823529;stroke:none"
       id="path3832"
       sodipodi:cx="43.436558"
       sodipodi:cy="382.57422"
       sodipodi:rx="7.8286819"
       sodipodi:ry="8.207489"
       d="m 51.265163,382.53787 c 0.01915,4.53283 -3.470319,8.22368 -7.793938,8.24376 -4.32362,0.0201 -7.844126,-3.63824 -7.863272,-8.17107 -0.01915,-4.53282 3.470319,-8.22368 7.793938,-8.24375 4.323367,-0.0201 7.843768,3.63783 7.863269,8.17039"
       transform="matrix(0.65806456,0,0,0.60000003,144.27664,779.12452)"
       sodipodi:start="6.2787571"
       sodipodi:end="12.56186"
       sodipodi:open="true" />
    <rect
       style="fill:#71c837;fill-opacity:0.58823529;stroke:none"
       id="rect3852"
       width="3.8571429"
       height="7.0714288"
       x="429.55276"
       y="1004.9739" />
    <rect
       style="fill:#ffffff;fill-opacity:0.58823529;stroke:none"
       id="rect3852-6"
       width="1.1676116"
       height="7.0714288"
       x="424.14438"
       y="1004.906" />
    <rect
       style="fill:#ffffff;fill-opacity:0.58823529;stroke:none"
       id="rect3852-6-7"
       width="1.1676116"
       height="5.8971262"
       x="422.19351"
       y="1006.194" />
    <rect
       style="fill:#ffffff;fill-opacity:0.58823529;stroke:none"
       id="rect3852-6-7-5"
       width="1.1676116"
       height="4.6470623"
       x="420.18582"
       y="1007.3872" />
    <rect
       style="fill:#ffffff;fill-opacity:0.58823529;stroke:none"
       id="rect3852-6-7-5-3"
       width="1.1676116"
       height="3.3591182"
       x="418.32968"
       y="1008.7698" />
    <path
       sodipodi:type="arc"
       style="fill:#faec6d;fill-opacity:1;stroke:none"
       id="path3767"
       sodipodi:cx="942.85712"
       sodipodi:cy="126.28571"
       sodipodi:rx="71.428574"
       sodipodi:ry="74.285713"
       d="m 1014.2857,126.28571 c 0,41.02687 -31.97967,74.28572 -71.42858,74.28572 -39.44892,0 -71.42858,-33.25885 -71.42858,-74.28572 C 871.42854,85.258847 903.4082,52 942.85712,52 c 39.31801,0 71.24318,33.046669 71.42778,73.93695"
       transform="matrix(0.16952256,-0.08620416,0.08132468,0.15992694,227.40515,938.45615)"
       sodipodi:start="0"
       sodipodi:end="6.2784904"
       sodipodi:open="true" />
  </g>
</svg>
