<?xml version="1.0" encoding="UTF-8" standalone="no"?>
<!-- Created with Inkscape (http://www.inkscape.org/) -->

<svg
   xmlns:dc="http://purl.org/dc/elements/1.1/"
   xmlns:cc="http://creativecommons.org/ns#"
   xmlns:rdf="http://www.w3.org/1999/02/22-rdf-syntax-ns#"
   xmlns:svg="http://www.w3.org/2000/svg"
   xmlns="http://www.w3.org/2000/svg"
   xmlns:sodipodi="http://sodipodi.sourceforge.net/DTD/sodipodi-0.dtd"
   xmlns:inkscape="http://www.inkscape.org/namespaces/inkscape"
   width="500"
   height="500"
   id="svg2"
   version="1.1"
   inkscape:version="0.91 r13725"
   sodipodi:docname="application-x-cue.svg">
  <defs
     id="defs4" />
  <sodipodi:namedview
     id="base"
     pagecolor="#ffffff"
     bordercolor="#666666"
     borderopacity="1.0"
     inkscape:pageopacity="0.0"
     inkscape:pageshadow="2"
     inkscape:zoom="0.42897809"
     inkscape:cx="1014.3133"
     inkscape:cy="343.11633"
     inkscape:document-units="px"
     inkscape:current-layer="layer1"
     showgrid="false"
     inkscape:window-width="1366"
     inkscape:window-height="711"
     inkscape:window-x="0"
     inkscape:window-y="0"
     inkscape:window-maximized="1" />
  <metadata
     id="metadata7">
    <rdf:RDF>
      <cc:Work
         rdf:about="">
        <dc:format>image/svg+xml</dc:format>
        <dc:type
           rdf:resource="http://purl.org/dc/dcmitype/StillImage" />
        <dc:title />
      </cc:Work>
    </rdf:RDF>
  </metadata>
  <g
     inkscape:label="Layer 1"
     inkscape:groupmode="layer"
     id="layer1"
     transform="translate(0,-552.36218)">
    <path
       style="fill:#333333;fill-rule:evenodd;stroke:none;stroke-width:1px;stroke-linecap:butt;stroke-linejoin:miter;stroke-opacity:1"
       d="M 63.03896,706.21212 116.261,758.31068 114.60095,685.26883 63,685.02373 Z"
       id="path4230"
       inkscape:connector-curvature="0"
       sodipodi:nodetypes="ccccc" />
    <path
       style="fill:#f2f2f2;fill-rule:evenodd;stroke:#afafaf;stroke-width:5.03546047;stroke-linecap:butt;stroke-linejoin:miter;stroke-miterlimit:4;stroke-dasharray:none;stroke-opacity:1"
       d="m 97.04097,1029.8357 336.88839,-1.1739 1.17377,-363.88658 -88.03697,-89.21086 -250.02519,0 z"
       id="path3364"
       inkscape:connector-curvature="0" />
    <path
       style="fill:#afafaf;fill-opacity:1;fill-rule:evenodd;stroke:#afafaf;stroke-width:5.03546047;stroke-linecap:butt;stroke-linejoin:miter;stroke-miterlimit:4;stroke-dasharray:none;stroke-opacity:1"
       d="m 431.51909,662.93106 -82.16431,-0.58691 0.75853,-83.80351 z"
       id="path4166"
       inkscape:connector-curvature="0"
       sodipodi:nodetypes="cccc" />
    <rect
       style="fill:#394050;fill-opacity:1;stroke:none;stroke-width:5;stroke-miterlimit:4;stroke-dasharray:none;stroke-opacity:1"
       id="rect4228"
       width="224.93568"
       height="84.350876"
       x="63.139664"
       y="622.18719" />
    <g
       id="g892"
       transform="matrix(1.6097691,-0.42629163,-0.42629163,-1.6097691,297.93511,1023.2773)">
      <path
         d="m 0,0 c -41.446,0 -75.045,33.599 -75.045,75.045 0,41.446 33.599,75.045 75.045,75.045 L 0,80.131 c -2.809,0 -5.086,-2.277 -5.086,-5.086 0,-2.81 2.277,-5.086 5.086,-5.086 L 0,0 Z m 0,150.09 c 41.447,0 75.045,-33.599 75.045,-75.045 C 75.045,33.599 41.447,0 0,0 l 0,69.959 c 2.809,0 5.086,2.276 5.086,5.086 0,2.809 -2.277,5.086 -5.086,5.086 l 0,69.959 z"
         style="fill:#999999;fill-opacity:1;fill-rule:evenodd;stroke:none"
         id="path894"
         inkscape:connector-curvature="0" />
    </g>
    <g
       id="g1694"
       transform="matrix(1.6097691,-0.42629163,-0.42629163,-1.6097691,297.93511,1023.2773)"
       style="fill:#cccccc">
      <path
         d="m 0,0 c -41.446,0 -75.045,33.599 -75.045,75.045 0,41.446 33.599,75.045 75.045,75.045 L 0,80.131 c -2.809,0 -5.086,-2.277 -5.086,-5.086 0,-2.81 2.277,-5.086 5.086,-5.086 L 0,0 Z m 0,150.09 c 41.447,0 75.045,-33.599 75.045,-75.045 C 75.045,33.599 41.447,0 0,0 l 0,69.959 c 2.809,0 5.086,2.276 5.086,5.086 0,2.809 -2.277,5.086 -5.086,5.086 l 0,69.959 z"
         style="fill:#cccccc;fill-opacity:1;fill-rule:evenodd;stroke:none"
         id="path1696"
         inkscape:connector-curvature="0" />
    </g>
    <g
       id="g2418"
       transform="matrix(1.6097691,-0.42629163,-0.42629163,-1.6097691,277.37403,945.63429)"
       style="fill:#5d6a7b">
      <path
         d="m 0,0 c -14.808,0 -26.812,12.005 -26.812,26.813 0,14.808 12.004,26.812 26.812,26.812 L 0,31.898 c -2.809,0 -5.086,-2.277 -5.086,-5.085 0,-2.81 2.277,-5.086 5.086,-5.086 L 0,0 Z m 0,53.625 c 14.808,0 26.813,-12.004 26.813,-26.812 C 26.813,12.005 14.808,0 0,0 l 0,21.727 c 2.809,0 5.086,2.276 5.086,5.086 0,2.808 -2.277,5.085 -5.086,5.085 l 0,21.727 z"
         style="fill:#5d6a7b;fill-opacity:1;fill-rule:evenodd;stroke:none"
         id="path2420"
         inkscape:connector-curvature="0" />
    </g>
    <g
       id="g2422"
       transform="matrix(1.6097691,-0.42629163,-0.42629163,-1.6097691,275.53486,938.68904)"
       style="fill:#999999">
      <path
         d="m 0,0 c -12.425,0 -22.498,10.073 -22.498,22.498 0,12.426 10.073,22.498 22.498,22.498 L 0,27.584 c -2.809,0 -5.086,-2.277 -5.086,-5.086 0,-2.81 2.277,-5.086 5.086,-5.086 L 0,0 Z m 0,44.996 c 12.425,0 22.498,-10.072 22.498,-22.498 C 22.498,10.073 12.425,0 0,0 l 0,17.412 c 2.809,0 5.086,2.276 5.086,5.086 0,2.809 -2.277,5.086 -5.086,5.086 l 0,17.412 z"
         style="fill:#999999;fill-opacity:1;fill-rule:evenodd;stroke:none"
         id="path2424"
         inkscape:connector-curvature="0" />
    </g>
    <g
       id="g2426"
       transform="matrix(1.6097691,-0.42629163,-0.42629163,-1.6097691,269.97844,917.70704)"
       style="fill:#5d6a7b">
      <path
         d="m 0,0 c -5.227,0 -9.464,4.237 -9.464,9.464 0,5.226 4.237,9.464 9.464,9.464 L 0,14.55 c -2.809,0 -5.086,-2.278 -5.086,-5.086 0,-2.81 2.277,-5.086 5.086,-5.086 L 0,0 Z m 0,18.928 c 5.227,0 9.464,-4.238 9.464,-9.464 C 9.464,4.237 5.227,0 0,0 l 0,4.378 c 2.809,0 5.086,2.276 5.086,5.086 0,2.808 -2.277,5.086 -5.086,5.086 l 0,4.378 z"
         style="fill:#5d6a7b;fill-opacity:1;fill-rule:evenodd;stroke:none"
         id="path2428"
         inkscape:connector-curvature="0" />
    </g>
    <path
       style="fill:none;fill-rule:evenodd;stroke:#ffffff;stroke-width:9;stroke-linecap:butt;stroke-linejoin:miter;stroke-miterlimit:4;stroke-dasharray:none;stroke-opacity:1"
       d="m 153.60179,642.35564 c 0,0 -7.61602,-6.81634 -21.51052,-5.73613 -13.8945,1.08021 -21.77754,16.92381 -21.03251,28.91969 0.74503,11.99588 11.26493,26.26777 24.8566,25.09561 13.59167,-1.17217 17.68643,-5.97515 17.68643,-5.97515"
       id="path4275"
       inkscape:connector-curvature="0"
       sodipodi:nodetypes="czzzc" />
    <path
       style="fill:none;fill-rule:evenodd;stroke:#ffffff;stroke-width:9;stroke-linecap:butt;stroke-linejoin:miter;stroke-miterlimit:4;stroke-dasharray:none;stroke-opacity:1"
       d="m 167.40401,634.75097 0,38.53024 c 0,0 -0.58871,17.39907 19.16209,17.51373 19.7508,0.11466 18.54395,-16.8956 18.54395,-16.8956 l -0.41208,-39.14837"
       id="path4222"
       inkscape:connector-curvature="0"
       sodipodi:nodetypes="cczcc" />
    <g
       id="g4182"
       transform="translate(-119.07295,18.70898)">
      <path
         sodipodi:nodetypes="cccc"
         inkscape:connector-curvature="0"
         id="path4218"
         d="m 380.20564,670.71638 -33.99725,-0.41209 0.41209,-51.71704 34.44898,0.1457"
         style="fill:none;fill-rule:evenodd;stroke:#ffffff;stroke-width:9;stroke-linecap:butt;stroke-linejoin:miter;stroke-miterlimit:4;stroke-dasharray:none;stroke-opacity:1" />
      <path
         inkscape:connector-curvature="0"
         id="path4220"
         d="m 348.95172,642.3685 29.13902,0.14569"
         style="fill:none;fill-rule:evenodd;stroke:#ffffff;stroke-width:9;stroke-linecap:butt;stroke-linejoin:miter;stroke-miterlimit:4;stroke-dasharray:none;stroke-opacity:1" />
    </g>
  </g>
</svg>
