<?xml version="1.0" encoding="UTF-8" standalone="no"?>
<!-- Created with Inkscape (http://www.inkscape.org/) -->

<svg
   xmlns:dc="http://purl.org/dc/elements/1.1/"
   xmlns:cc="http://creativecommons.org/ns#"
   xmlns:rdf="http://www.w3.org/1999/02/22-rdf-syntax-ns#"
   xmlns:svg="http://www.w3.org/2000/svg"
   xmlns="http://www.w3.org/2000/svg"
   xmlns:sodipodi="http://sodipodi.sourceforge.net/DTD/sodipodi-0.dtd"
   xmlns:inkscape="http://www.inkscape.org/namespaces/inkscape"
   width="500"
   height="500"
   id="svg2"
   version="1.1"
   inkscape:version="0.91 r13725"
   sodipodi:docname="application-x-deb.svg">
  <defs
     id="defs4" />
  <sodipodi:namedview
     id="base"
     pagecolor="#ffffff"
     bordercolor="#666666"
     borderopacity="1.0"
     inkscape:pageopacity="0.0"
     inkscape:pageshadow="2"
     inkscape:zoom="0.42897809"
     inkscape:cx="975.59289"
     inkscape:cy="427.72041"
     inkscape:document-units="px"
     inkscape:current-layer="layer1"
     showgrid="false"
     inkscape:window-width="1366"
     inkscape:window-height="711"
     inkscape:window-x="0"
     inkscape:window-y="0"
     inkscape:window-maximized="1" />
  <metadata
     id="metadata7">
    <rdf:RDF>
      <cc:Work
         rdf:about="">
        <dc:format>image/svg+xml</dc:format>
        <dc:type
           rdf:resource="http://purl.org/dc/dcmitype/StillImage" />
        <dc:title />
      </cc:Work>
    </rdf:RDF>
  </metadata>
  <g
     inkscape:label="Layer 1"
     inkscape:groupmode="layer"
     id="layer1"
     transform="translate(0,-552.36218)">
    <path
       style="fill:#d12a0b;fill-opacity:1;fill-rule:evenodd;stroke:none;stroke-width:1px;stroke-linecap:butt;stroke-linejoin:miter;stroke-opacity:1"
       d="M 63.03896,706.21206 116.261,758.31062 114.60095,685.26877 63,685.02367 Z"
       id="path4230"
       inkscape:connector-curvature="0"
       sodipodi:nodetypes="ccccc" />
    <path
       style="fill:#f2f2f2;fill-rule:evenodd;stroke:#afafaf;stroke-width:5.03546047;stroke-linecap:butt;stroke-linejoin:miter;stroke-miterlimit:4;stroke-dasharray:none;stroke-opacity:1"
       d="m 97.04097,1029.8357 336.88839,-1.1739 1.17377,-363.88664 -88.03697,-89.21086 -250.02519,0 z"
       id="path3364"
       inkscape:connector-curvature="0" />
    <path
       style="fill:#afafaf;fill-opacity:1;fill-rule:evenodd;stroke:#afafaf;stroke-width:5.03546047;stroke-linecap:butt;stroke-linejoin:miter;stroke-miterlimit:4;stroke-dasharray:none;stroke-opacity:1"
       d="m 431.51909,662.931 -82.16431,-0.58691 0.75853,-83.80351 z"
       id="path4166"
       inkscape:connector-curvature="0"
       sodipodi:nodetypes="cccc" />
    <rect
       style="fill:#f03916;fill-opacity:1;stroke:none;stroke-width:5;stroke-miterlimit:4;stroke-dasharray:none;stroke-opacity:1"
       id="rect4228"
       width="224.93568"
       height="84.350876"
       x="63.13966"
       y="622.18713" />
    <g
       id="g4182"
       transform="translate(-169.19206,18.708917)">
      <path
         sodipodi:nodetypes="cccc"
         inkscape:connector-curvature="0"
         id="path4218"
         d="m 380.20564,670.71638 -33.99725,-0.41209 0.41209,-51.71704 34.44898,0.1457"
         style="fill:none;fill-rule:evenodd;stroke:#ffffff;stroke-width:9;stroke-linecap:butt;stroke-linejoin:miter;stroke-miterlimit:4;stroke-dasharray:none;stroke-opacity:1" />
      <path
         inkscape:connector-curvature="0"
         id="path4220"
         d="m 348.95172,642.3685 29.13902,0.14569"
         style="fill:none;fill-rule:evenodd;stroke:#ffffff;stroke-width:9;stroke-linecap:butt;stroke-linejoin:miter;stroke-miterlimit:4;stroke-dasharray:none;stroke-opacity:1" />
    </g>
    <path
       style="fill:#f03916;fill-opacity:1"
       d="m 274.39929,1024.4782 c -13.41185,-2.234 -32.63674,-9.828 -44.5478,-17.5973 -26.15905,-17.06253 -43.24327,-36.00457 -53.81627,-59.66841 -3.51259,-7.86166 -5.4319,-13.96231 -10.92198,-34.71581 -1.36511,-5.16054 -3.06396,-10.84358 -3.77532,-12.62902 -1.19987,-3.01202 -1.2526,-4.02805 -0.72954,-14.07401 0.49659,-9.54448 2.11067,-22.45884 2.97704,-23.81724 0.16817,-0.26363 0.56363,-0.32613 0.87953,-0.13863 1.06817,0.63408 2.0559,-2.29749 3.02646,-8.98427 0.53181,-3.6635 1.36726,-7.5053 1.8567,-8.53734 0.48976,-1.03181 1.31851,-3.30997 1.84248,-5.06201 1.20579,-4.03236 2.84987,-7.13189 7.93256,-14.95434 2.23533,-3.44032 4.55895,-7.18746 5.1635,-8.32699 0.71135,-1.34057 1.48862,-1.9975 2.20226,-1.86113 0.68749,0.13068 1.82214,-0.73863 3.01044,-2.30681 5.16769,-6.8203 29.50755,-26.94267 31.75981,-26.25665 0.61476,0.1875 3.18316,-0.65795 5.70769,-1.87783 4.56588,-2.20659 6.57791,-2.71704 6.57791,-1.66897 0,0.30227 -0.66022,0.98862 -1.46658,1.52545 -1.41567,0.94204 -1.38727,0.95794 0.81477,0.44658 1.25465,-0.29091 3.36793,-0.70681 4.69588,-0.92271 1.64078,-0.26705 2.30794,-0.66023 2.08157,-1.22602 -0.19886,-0.49659 0.27386,-0.98863 1.17035,-1.21954 2.24373,-0.57614 5.74019,-0.48182 5.74019,0.15455 0,0.76476 -1.9992,1.53715 -3.58499,1.38612 -1.08181,-0.10227 -1.13703,-0.0113 -0.32614,0.51931 0.80796,0.53182 0.81705,0.64545 0.0568,0.65341 -0.50795,0.005 -0.75681,0.16932 -0.55227,0.36591 0.20454,0.19545 1.5634,-0.22727 3.02021,-0.94091 1.45692,-0.71363 4.1252,-1.60067 5.92951,-1.97203 2.22112,-0.45682 3.28066,-0.9875 3.28066,-1.64192 0,-0.84204 1.03181,-0.91363 7.98461,-0.55454 4.39167,0.22726 11.01868,0.88749 14.72673,1.46806 6.74155,1.05567 6.74212,1.05567 9.25449,-0.33183 3.01339,-1.6643 7.86029,-1.88089 9.13403,-0.40794 0.46591,0.53863 1.7484,1.42669 2.84999,1.97317 1.79703,0.89204 1.91589,0.89317 1.15635,0.0113 -1.44283,-1.66932 -0.01,-1.62727 5.56122,0.16363 17.96092,5.77258 32.60332,16.05332 43.46826,30.52016 2.57658,3.43066 2.73272,4.97418 0.29205,2.88577 l -1.39671,-1.19498 1.06704,2.00181 c 0.58637,1.10112 1.06704,2.33839 1.06704,2.74975 0,0.41136 1.72715,3.45111 3.83805,6.75529 4.7577,7.44667 6.08871,9.95539 5.7694,10.87449 -0.13636,0.39431 -2.24465,-2.22875 -4.68384,-5.82838 -2.4393,-3.59963 -6.04894,-8.44961 -8.02143,-10.77766 -2.94566,-3.47657 -3.71713,-4.07111 -4.31815,-3.32816 -0.40227,0.49772 -1.38533,0.99544 -2.18431,1.10567 l -1.45249,0.20114 1.43693,2.70327 c 0.78976,1.48682 1.5418,2.40158 1.66987,2.03295 0.68637,-1.97476 3.87998,0.62158 5.33236,4.33372 0.47045,1.20409 1.72316,3.68373 2.78271,5.51031 1.05908,1.82659 1.79283,3.44907 1.62987,3.60544 -0.16249,0.15681 -1.12953,-0.34432 -2.14646,-1.1125 l -1.84999,-1.39647 1.2617,2.07874 c 0.69431,1.14328 1.85601,2.54192 2.58225,3.10793 0.90682,0.70682 1.33908,1.82227 1.37954,3.55703 0.0796,3.2026 1.98647,6.9861 3.02612,5.98848 1.61965,-1.55442 1.95272,-0.58294 1.54511,4.50713 -0.3,3.75033 -0.14092,6.22213 0.57158,8.8462 1.08181,3.98373 0.84886,4.96703 -0.73295,3.10509 -1.00567,-1.18407 -1.0159,-1.18328 -0.56591,0.0454 0.96591,2.6343 1.68715,6.57496 1.48648,8.12177 -0.375,2.88623 -1.50352,1.68613 -1.89215,-2.01112 l -0.37954,-3.60862 -0.11365,3.84043 c -0.0568,2.11215 -0.57726,6.19361 -1.1485,9.06983 -0.57728,2.90522 -0.87045,6.42554 -0.6591,7.92029 0.39659,2.81203 0.11591,2.92102 -2.33316,0.90683 -0.99659,-0.81932 -1.16852,-0.65455 -1.85318,1.78578 -0.57613,2.05317 -0.57158,3.22202 0.0228,4.94167 0.42614,1.23885 0.67386,2.91896 0.54999,3.73362 -0.28522,1.8801 -1.85465,2.46635 -1.85465,0.69317 0,-2.22953 -0.88407,-1.43613 -3.58485,3.21873 -7.29417,12.56936 -18.83534,22.29691 -31.89788,26.8853 -7.70098,2.70499 -12.86618,3.70804 -21.55078,4.18509 l -7.82178,0.42953 3.86465,1.14409 c 3.11623,0.92272 4.94621,1.06023 9.45119,0.71136 5.90201,-0.45795 12.83185,-1.68658 15.9741,-2.83317 1.25408,-0.45795 2.10102,-0.4784 2.53443,-0.0568 1.02158,0.98067 -8.05564,4.83632 -13.44414,5.70996 -9.1688,1.48658 -21.44213,-0.12045 -32.27627,-4.22486 -7.35076,-2.78522 -18.25888,-10.03857 -16.58729,-11.02993 0.31704,-0.1875 2.39191,0.76022 4.61168,2.10736 2.83737,1.7217 4.03588,2.175 4.03588,1.52659 0,-1.22499 0.41932,-1.16624 2.67385,0.37386 2.03578,1.39101 8.29711,3.97395 12.80673,5.28304 4.91589,1.42704 3.00988,-0.30228 -3.58496,-3.25305 -20.8517,-9.32892 -29.50813,-18.65954 -33.82231,-36.45706 -1.58203,-6.5262 0.11364,-20.83384 2.99839,-25.31462 0.73069,-1.13521 1.32943,-2.53168 1.32943,-3.10293 0,-2.47885 4.30736,-9.02824 8.72722,-13.26969 7.78836,-7.47405 15.88559,-10.57687 26.397,-10.11506 5.08144,0.22387 7.25155,0.65228 11.48039,2.26817 4.79667,1.83316 10.83618,5.67065 8.98653,5.70997 -0.43522,0.009 -2.34146,-0.60341 -4.23679,-1.36125 -2.88112,-1.15226 -4.72849,-1.38294 -11.26788,-1.40749 -9.18268,-0.0341 -13.67095,1.2159 -20.20625,5.62861 -9.26517,6.25598 -14.4173,13.46162 -16.24195,22.71565 -1.22431,6.20951 -1.2618,7.93019 -0.30681,14.08958 0.54999,3.54907 0.9409,4.59065 1.62953,4.33725 0.57841,-0.2125 0.90568,0.10227 0.90568,0.86135 0,2.19965 4.98769,11.12278 8.44676,15.11161 8.32575,9.60143 21.7934,15.72843 34.57218,15.72843 6.63235,0 11.99368,-1.22169 16.92876,-3.85747 1.98181,-1.05909 4.48327,-2.35249 5.55872,-2.87555 3.79464,-1.8459 6.14882,-3.95429 8.9012,-7.97154 1.5301,-2.2334 3.1935,-4.06077 3.69645,-4.06077 0.74318,0 0.71136,0.32272 -0.17159,1.7201 -2.90941,4.60781 3.91861,-3.77032 7.4545,-9.14666 l 3.96044,-6.02189 -0.43182,-3.95577 c -0.41477,-3.80134 -0.35454,-4.03328 1.54033,-5.94235 1.82522,-1.83851 1.98919,-2.3826 2.19954,-7.29746 0.18863,-4.39871 0.0568,-5.31179 -0.75,-5.31678 -0.75113,-0.004 -1.075,-1.16284 -1.39885,-5.0102 -0.42841,-5.09157 -4.7485,-22.22464 -5.75429,-22.8211 -0.30341,-0.17956 -1.14602,-1.82761 -1.87192,-3.66101 -2.44998,-6.1878 -6.74723,-12.13777 -13.44753,-18.61955 -9.64108,-9.32665 -21.78567,-16.52853 -33.25741,-19.72204 -9.75813,-2.71646 -26.32826,-1.73044 -38.13103,2.26896 -5.7603,1.95192 -11.43584,4.53645 -12.39356,5.64383 -0.43522,0.50227 -1.06477,0.75113 -1.4,0.55228 -0.3534,-0.2091 -0.25567,-0.77046 0.23183,-1.33398 2.1743,-2.51418 -5.04089,2.08727 -9.68574,6.17713 -2.80829,2.47271 -5.20826,4.57099 -5.33338,4.66281 -0.125,0.0909 0.42159,0.004 1.21465,-0.19432 1.31988,-0.33068 1.37579,-0.24318 0.66023,1.04091 -0.45909,0.82271 -2.8484,2.30225 -5.77735,3.57713 -4.92122,2.14216 -8.10405,4.49645 -10.63301,7.86519 -1.00908,1.34499 -1.06818,1.63452 -0.26932,1.34044 0.56023,-0.20682 1.01931,-0.0796 1.01931,0.2875 0,1.78647 -1.69123,3.78088 -4.19667,4.94894 -5.55076,2.58794 -15.30173,16.41149 -20.525,29.09767 -2.32771,5.65338 -2.29077,5.45689 -1.02499,5.45689 1.33397,0 1.24113,1.45387 -0.59091,9.26359 -2.66918,11.37595 -2.67237,11.01198 0.2341,27.01608 3.54168,19.49978 5.61076,26.01348 9.54482,30.04971 0.92273,0.94659 1.82,2.9609 2.21976,4.98429 0.47728,2.41612 1.2792,4.01055 2.7793,5.52804 1.36773,1.38351 1.82386,2.23214 1.29841,2.416 -1.03068,0.36023 2.19635,4.97804 5.14065,7.35552 1.48124,1.19603 2.57896,1.59807 3.76816,1.37989 2.60612,-0.47841 5.25963,0.96249 9.3371,5.0686 4.23714,4.26702 4.66168,5.41429 1.8576,5.01929 -1.80862,-0.25455 -1.84999,-0.20795 -0.96022,1.09659 0.5125,0.74999 2.40032,2.55226 4.19656,4.00576 2.52295,2.04147 3.1726,2.92465 2.8559,3.88225 -0.45569,1.37704 0.84318,2.66169 3.78214,3.73987 1.82226,0.66817 2.4093,2.11032 1.03749,2.54896 -0.41477,0.13296 2.15146,2.66782 5.70337,5.63349 4.00157,3.34123 6.69338,5.17258 7.07701,4.81486 1.01362,-0.94431 2.31237,-0.65682 2.33567,0.51704 0.0227,1.28101 1.1759,2.62669 5.3144,6.21605 2.61532,2.2684 3.26827,2.5539 4.87133,2.1301 1.46783,-0.3875 2.39101,-0.1385 4.45838,1.2021 4.12463,2.6759 6.62564,3.7439 8.76711,3.7439 2.10714,0 2.40725,0.5807 1.31306,2.5432 -0.57955,1.0387 -0.45568,1.2099 0.87613,1.2099 0.85227,0 3.25543,0.5625 5.3394,1.251 4.73837,1.5644 6.71496,1.6709 5.52736,0.2978 -1.75431,-2.0285 0.10226,-1.4743 6.37416,1.8985 8.75824,4.7134 13.18878,5.2518 30.62925,3.7226 2.58214,-0.2261 3.42201,-0.091 3.42201,0.5387 0,0.5432 -2.24055,1.3588 -6.35518,2.3139 -5.40894,1.2559 -8.29597,1.4988 -19.39136,1.6319 -8.74302,0.1022 -14.71514,-0.1239 -18.13409,-0.6932 z m -8.91608,-93.76982 c 0,-0.13295 -0.80683,-0.71249 -1.79238,-1.28817 l -1.79249,-1.04772 1.53874,1.28818 c 1.50158,1.25703 2.04613,1.53578 2.04613,1.04771 z m 89.74365,-65.55517 c -0.20794,-0.49886 -0.36249,-0.35113 -0.3943,0.3784 -0.0228,0.65909 0.12613,1.02841 0.34204,0.82046 0.21705,-0.20795 0.23976,-0.74773 0.0568,-1.19886 z M 206.90322,799.12269 c 0.81022,-0.99203 0.7875,-1.01362 -0.24659,-0.23635 -0.62727,0.47272 -1.14068,0.96476 -1.14068,1.0943 0,0.51478 0.53523,0.18295 1.38681,-0.85795 z m 7.41279,-5.78598 c 0.64886,-0.68863 1.03295,-1.25101 0.85341,-1.25101 -0.17954,0 -0.85682,0.5625 -1.50568,1.25101 -0.64886,0.68864 -1.03295,1.25102 -0.8534,1.25102 0.17954,0 0.85681,-0.5625 1.50567,-1.25102 z m 8.20461,-4.39701 c 2.14863,-0.69774 3.36953,-0.82159 3.8227,-0.38637 0.45342,0.43522 2.13431,0.17727 5.26362,-0.80794 2.52884,-0.79546 4.48167,-1.55818 4.33963,-1.69454 -0.14205,-0.13637 -2.2242,0.38181 -4.62691,1.15192 -3.3002,1.05795 -4.48781,1.21465 -4.85588,0.64318 -0.62158,-0.9659 -6.55281,0.9375 -9.10222,2.92145 l -1.74192,1.35534 1.87203,-1.0784 c 1.02955,-0.59318 3.2926,-1.54022 5.02895,-2.10431 z m 18.79159,-1.58784 c 1.89284,-0.53976 3.32874,-1.08976 3.19067,-1.2217 -0.30455,-0.29204 -7.04757,1.56091 -7.04757,1.93681 0,0.37841 0.0568,0.36932 3.8569,-0.71477 z m 10.80892,-3.4101 2.60726,-0.45681 -2.28135,-0.0568 c -1.25477,-0.0341 -3.01464,0.37614 -3.91089,0.9034 -1.05455,0.62045 -1.16988,0.80227 -0.32613,0.5125 0.71703,-0.24545 2.47691,-0.65226 3.91087,-0.9034 z m 5.1769,-1.18033 c 0.20113,-0.31249 -0.22159,-0.42045 -0.93977,-0.23977 -1.52203,0.38182 -1.71431,0.80681 -0.36477,0.80681 0.51705,0 1.1034,-0.25567 1.30454,-0.56704 z m 21.04499,0.18863 c -0.21705,-0.20794 -0.7784,-0.22954 -1.24931,-0.0455 -0.52046,0.2 -0.36591,0.34773 0.39431,0.37841 0.6875,0.0227 1.07158,-0.12046 0.85567,-0.32841 z m -3.89737,-0.6784 c -0.62727,-0.15681 -1.65397,-0.15681 -2.28135,0 -0.62727,0.15682 -0.11363,0.28637 1.14068,0.28637 1.25476,0 1.76805,-0.12841 1.14067,-0.28637 z m -6.50087,-0.64886 c -1.33488,-0.13409 -3.68145,-0.13636 -5.21451,-0.004 -1.53306,0.13183 -0.44091,0.24205 2.42703,0.24433 2.86805,0.002 4.12237,-0.10228 2.78748,-0.23978 z m -8.50439,-0.54886 c -0.21703,-0.20795 -0.77839,-0.23068 -1.2493,-0.0455 -0.52045,0.2 -0.3659,0.34772 0.39432,0.37841 0.68749,0.0227 1.07158,-0.12046 0.85568,-0.32841 z m -4.41212,150.34534 c -6.63939,-4.56508 -9.09937,-6.92643 -9.09937,-8.73437 0,-0.95909 0.22613,-1.74408 0.50226,-1.74408 0.93977,0 12.03948,11.11856 11.79674,11.8172 -0.1409,0.40455 -1.47987,-0.15568 -3.19975,-1.33875 z m -3.41646,-11.59118 c -3.44804,-3.34383 -4.55304,-5.14224 -3.15941,-5.14224 0.8375,0 7.25371,7.04985 7.25371,7.96996 0,0.43295 -0.0796,0.78749 -0.18297,0.78749 -0.10225,0 -1.86077,-1.62669 -3.91087,-3.61486 z m 38.15147,-13.6882 c -1.82043,-0.70454 -0.68407,-2.01114 2.28135,-2.62159 1.70283,-0.35113 4.40896,-1.2018 6.0135,-1.89145 1.60453,-0.68977 3.03327,-1.14261 3.17487,-1.00682 0.14203,0.13637 -0.58524,1.52624 -1.61374,3.08953 -1.85989,2.82498 -1.89318,2.84203 -5.45623,2.79407 -1.9718,-0.0227 -3.95168,-0.18977 -4.39975,-0.36363 z m 19.55432,-13.99197 c -1.75942,-0.6784 -1.83226,-1.83351 -0.36364,-5.76644 1.2617,-3.37827 2.57034,-4.04463 1.84238,-0.93862 -0.26249,1.11817 -0.61135,2.73656 -0.77727,3.59668 l -0.30112,1.56374 1.3026,-1.42363 c 0.77045,-0.84204 1.4843,-2.81964 1.74737,-4.84065 0.24432,-1.87931 0.70454,-3.26283 1.02272,-3.07442 0.80681,0.47841 0.72045,5.42394 -0.15114,8.74893 -0.76249,2.90441 -1.44771,3.24293 -4.32235,2.13407 z m -154.2468,-7.85051 c -0.21704,-0.54432 -0.39545,-2.67874 -0.39545,-4.74339 0,-2.72419 0.22387,-3.68315 0.81477,-3.49555 0.96817,0.30682 1.5359,9.22836 0.5875,9.22836 -0.33523,0 -0.78864,-0.44546 -1.00568,-0.98977 z m 156.80747,-14.63105 c -1.01249,-1.31465 -1.32488,-2.35238 -1.0375,-3.45067 0.58978,-2.25544 2.13294,-1.93476 3.27135,0.67954 1.77112,4.06771 0.23408,5.97394 -2.23374,2.77067 z M 154.9366,859.73551 c -0.0454,-3.54691 -3.5e-4,-3.65645 1.6359,-3.59656 1.38737,0.0455 1.72226,0.40113 1.88226,1.97158 0.18068,1.77077 -1.82624,5.28349 -3.01851,5.28349 -0.24658,0 -0.47158,-1.64635 -0.5,-3.65851 z m 168.95705,-76.89555 c 0.0909,-5.59781 1.07386,-7.49405 1.83977,-3.57487 0.53408,2.73089 -0.14546,7.55326 -1.17955,8.37711 -0.56249,0.44772 -0.73068,-0.77273 -0.66022,-4.80224 z m -85.64664,-3.35453 c 0.2625,-0.75454 9.25358,-4.2885 10.9122,-4.2885 1.94863,0 -1.54692,2.29147 -5.5786,3.65691 -4.4952,1.52238 -5.69224,1.6642 -5.3336,0.63182 z"
       id="path4181"
       inkscape:connector-curvature="0" />
    <path
       style="fill:none;fill-rule:evenodd;stroke:#ffffff;stroke-width:9;stroke-linecap:butt;stroke-linejoin:miter;stroke-miterlimit:4;stroke-dasharray:none;stroke-opacity:1"
       d="m 119.44771,689.02428 0.47801,-52.10326 c 0,0 39.88141,-5.81127 40.39197,26.52965 0.51056,32.3409 -40.86998,25.57361 -40.86998,25.57361 z"
       id="path4271"
       inkscape:connector-curvature="0"
       sodipodi:nodetypes="cczc" />
    <path
       style="fill:none;fill-rule:evenodd;stroke:#ffffff;stroke-width:9;stroke-linecap:butt;stroke-linejoin:miter;stroke-miterlimit:4;stroke-dasharray:none;stroke-opacity:1"
       d="m 228.20193,635.42236 0,52.95329 20.19231,1e-5 c 0,0 15.79086,0.82537 15.25975,-13.95279 -0.53111,-14.77817 -14.02349,-14.48128 -14.02349,-14.48128 l -18.13186,0 17.92582,-0.20605 c 0,0 11.15385,-0.2958 11.02335,-12.6717 -0.1305,-12.3759 -15.45329,-11.64148 -15.45329,-11.64148 z"
       id="path4224"
       inkscape:connector-curvature="0"
       sodipodi:nodetypes="ccczccczcc" />
  </g>
</svg>
