<?xml version="1.0" encoding="UTF-8" standalone="no"?>
<!-- Created with Inkscape (http://www.inkscape.org/) -->

<svg
   xmlns:dc="http://purl.org/dc/elements/1.1/"
   xmlns:cc="http://creativecommons.org/ns#"
   xmlns:rdf="http://www.w3.org/1999/02/22-rdf-syntax-ns#"
   xmlns:svg="http://www.w3.org/2000/svg"
   xmlns="http://www.w3.org/2000/svg"
   xmlns:sodipodi="http://sodipodi.sourceforge.net/DTD/sodipodi-0.dtd"
   xmlns:inkscape="http://www.inkscape.org/namespaces/inkscape"
   width="500"
   height="500"
   id="svg2"
   version="1.1"
   inkscape:version="0.48.5 r10040"
   sodipodi:docname="application-x-gzip.svg">
  <defs
     id="defs4" />
  <sodipodi:namedview
     id="base"
     pagecolor="#ffffff"
     bordercolor="#666666"
     borderopacity="1.0"
     inkscape:pageopacity="0.0"
     inkscape:pageshadow="2"
     inkscape:zoom="0.8579562"
     inkscape:cx="360.38366"
     inkscape:cy="220.21272"
     inkscape:document-units="px"
     inkscape:current-layer="layer1"
     showgrid="false"
     inkscape:window-width="1366"
     inkscape:window-height="716"
     inkscape:window-x="0"
     inkscape:window-y="0"
     inkscape:window-maximized="1" />
  <metadata
     id="metadata7">
    <rdf:RDF>
      <cc:Work
         rdf:about="">
        <dc:format>image/svg+xml</dc:format>
        <dc:type
           rdf:resource="http://purl.org/dc/dcmitype/StillImage" />
        <dc:title />
      </cc:Work>
    </rdf:RDF>
  </metadata>
  <g
     inkscape:label="Layer 1"
     inkscape:groupmode="layer"
     id="layer1"
     transform="translate(0,-552.36218)">
    <rect
       style="fill:#ffffff;fill-opacity:1;stroke:none"
       id="rect3000"
       width="450"
       height="450"
       x="25"
       y="577.36218"
       ry="55.366497" />
    <path
       style="fill:#394050;stroke:none;stroke-width:1px;stroke-linecap:butt;stroke-linejoin:miter;stroke-opacity:1;fill-opacity:1"
       d="M 100,475 100,25 C 100,25 61.202184,19.758699 40.940323,41.934658 20.678462,64.110616 25,90.3 25,90.3 L 25,410 c 0,0 -3.104929,34.44943 20.038287,52.1379 C 68.181502,479.82637 100,475 100,475 z"
       id="path3770"
       inkscape:connector-curvature="0"
       transform="translate(0,552.36218)"
       sodipodi:nodetypes="cczcczc" />
    <path
       style="fill:#5d6a7b;stroke:none"
       d="m 330.37816,784.74695 12.02259,4.14112 0,5.34338 -10.286,2.93884 0,16.56447 22.30859,-6.14487 -12.69051,6.54563 0.26716,12.42335 -9.61807,3.07244 0,15.76295 20.70559,-5.07619 -10.68676,6.27846 0,11.889 -10.55316,3.60679 0.66792,14.96145 22.44218,-6.14488 -12.55694,7.21355 -0.26716,11.62184 -9.88524,2.93886 0.26716,14.82787 21.77426,-5.61055 -13.7592,8.68299 -0.40076,4.80904 34.73196,0 -0.40076,-16.2973 10.01883,-2.13735 -0.26717,-16.16371 -23.51086,5.20979 13.62562,-5.74412 0.13361,-11.48827 10.41959,-3.07244 0,-16.43088 -18.16748,5.20979 7.34713,-4.80903 0.13361,-12.0226 9.75166,-2.80528 0,-16.56446 -21.37351,5.2098 10.82035,-5.61054 0.53433,-13.49204 9.88524,-1.46942 0.53433,-16.2973 -19.6369,4.40828 10.15242,-7.88148 0,-5.07621 -43.54851,1.20227 z"
       id="path3941"
       inkscape:connector-curvature="0" />
    <path
       style="fill:#666666;stroke:none"
       d="m 332.98488,951.03977 0.18892,34.00503 -9.82367,0 0,12.2796 -17.56928,0.37783 -0.18891,-10.76826 -23.23678,0.18892 -0.37784,37.97231 23.80353,0 0,-9.8237 17.75819,-0.1889 0,12.2796 70.08816,-0.1889 0.18891,-11.9018 18.51386,0 0,10.3904 22.67003,0 -0.18892,-39.29467 -22.48111,0.1889 0,11.52394 -18.70277,0 -0.75567,-13.4131 -8.12343,0.18892 0,-34.19395 z"
       id="path3943"
       inkscape:connector-curvature="0" />
    <path
       style="fill:#394050;stroke:none"
       d="m 175.81383,939.18162 -0.53433,9.3509 21.10633,19.7705 110.60788,1.06868 14.42712,-16.03013 75.60878,-0.8015 0,-44.35003 -74.00576,0 -29.38858,31.25876 z"
       id="path3921"
       inkscape:connector-curvature="0" />
    <path
       style="fill:#394050;stroke:none"
       d="m 175.88279,757.82826 -0.53433,-9.35091 21.10633,-19.77049 110.60788,-1.06868 14.42712,16.03013 75.60878,0.8015 0,44.35002 -74.00576,0 -29.38857,-31.25875 z"
       id="path3921-3"
       inkscape:connector-curvature="0" />
    <rect
       style="fill:#ffb800;fill-opacity:1;stroke:none"
       id="rect3945"
       width="158.69017"
       height="181.73804"
       x="135"
       y="757.58881" />
    <rect
       style="fill:#faec6d;fill-opacity:1;stroke:none"
       id="rect3945-6"
       width="133.04196"
       height="70.061462"
       x="146.83722"
       y="773.76135" />
    <rect
       style="fill:#faec6d;fill-opacity:1;stroke:none"
       id="rect3945-6-7"
       width="133.04196"
       height="70.061462"
       x="147.90588"
       y="855.24786" />
    <rect
       style="fill:#28220b;fill-opacity:1;stroke:none"
       id="rect3945-6-7-5"
       width="53.425659"
       height="17.162045"
       x="188.51556"
       y="801.27972" />
    <rect
       style="fill:#28220b;fill-opacity:1;stroke:none"
       id="rect3945-6-7-5-3"
       width="53.425659"
       height="17.162045"
       x="188.24837"
       y="880.62885" />
  </g>
</svg>
