<?xml version="1.0" encoding="UTF-8" standalone="no"?>
<!-- Created with Inkscape (http://www.inkscape.org/) -->

<svg
   xmlns:dc="http://purl.org/dc/elements/1.1/"
   xmlns:cc="http://creativecommons.org/ns#"
   xmlns:rdf="http://www.w3.org/1999/02/22-rdf-syntax-ns#"
   xmlns:svg="http://www.w3.org/2000/svg"
   xmlns="http://www.w3.org/2000/svg"
   xmlns:sodipodi="http://sodipodi.sourceforge.net/DTD/sodipodi-0.dtd"
   xmlns:inkscape="http://www.inkscape.org/namespaces/inkscape"
   width="500"
   height="500"
   id="svg2"
   version="1.1"
   inkscape:version="0.48.5 r10040"
   sodipodi:docname="application-vnd.sun.xml.writer.template.svg">
  <defs
     id="defs4" />
  <sodipodi:namedview
     id="base"
     pagecolor="#ffffff"
     bordercolor="#666666"
     borderopacity="1.0"
     inkscape:pageopacity="0.0"
     inkscape:pageshadow="2"
     inkscape:zoom="0.85795619"
     inkscape:cx="229.13204"
     inkscape:cy="201.91656"
     inkscape:document-units="px"
     inkscape:current-layer="layer1"
     showgrid="false"
     inkscape:window-width="1366"
     inkscape:window-height="716"
     inkscape:window-x="0"
     inkscape:window-y="0"
     inkscape:window-maximized="1" />
  <metadata
     id="metadata7">
    <rdf:RDF>
      <cc:Work
         rdf:about="">
        <dc:format>image/svg+xml</dc:format>
        <dc:type
           rdf:resource="http://purl.org/dc/dcmitype/StillImage" />
        <dc:title />
      </cc:Work>
    </rdf:RDF>
  </metadata>
  <g
     inkscape:label="Layer 1"
     inkscape:groupmode="layer"
     id="layer1"
     transform="translate(0,-552.36218)">
    <rect
       style="fill:#ffffff;fill-opacity:1;stroke:none"
       id="rect3000"
       width="450"
       height="450"
       x="25"
       y="577.36218"
       ry="55.366497" />
    <path
       style="fill:#2c89a0;stroke:none;stroke-width:1px;stroke-linecap:butt;stroke-linejoin:miter;stroke-opacity:1;fill-opacity:1"
       d="M 100,475 100,25 C 100,25 61.202184,19.758699 40.940323,41.934658 20.678462,64.110616 25,90.3 25,90.3 L 25,410 c 0,0 -3.104929,34.44943 20.038287,52.1379 C 68.181502,479.82637 100,475 100,475 z"
       id="path3770"
       inkscape:connector-curvature="0"
       transform="translate(0,552.36218)"
       sodipodi:nodetypes="cczcczc" />
    <path
       inkscape:connector-curvature="0"
       id="path4306"
       d="m 175.81606,1025.7864 c -2.54878,-0.685 -7.72341,-3.1542 -10.4606,-4.9915 -5.3627,-3.6 -10.59046,-10.28 -13.12561,-16.7721 l -1.24341,-3.1841 -0.0943,-147.41517 -0.0943,-147.41499 0.91304,-2.94898 c 2.9046,-9.38143 9.4652,-16.95582 18.3752,-21.21465 6.25892,-2.99166 0.32912,-2.75039 67.42,-2.74312 l 59.67986,0.006 26.39232,26.53481 c 14.51577,14.59415 38.93301,39.13135 54.26054,54.52711 15.32751,15.39577 27.86819,28.0745 27.86819,28.17496 0,0.10044 4.76625,4.94593 10.59167,10.76774 l 10.59165,10.58509 0.078,42.612 c 0.0429,23.43656 0.082,66.99015 0.0868,96.78571 l 0.009,54.17362 -1.6157,3.361 c -2.04741,4.259 -3.26334,6.0164 -6.52724,9.434 -4.24055,4.4402 -8.60327,7.1487 -14.92812,9.2677 l -3.07644,1.0307 -111.59525,-0.032 c -97.29477,-0.028 -111.83995,-0.098 -113.50518,-0.5447 z"
       style="fill:#2c89a0;fill-opacity:1;stroke:none"
       sodipodi:nodetypes="csscccssscsssscsscssscscc" />
    <path
       style="fill:#2c89a0;fill-opacity:1;stroke:none"
       d="m 423.36975,761.76818 c -23.31877,-26.68577 -76.44543,-77.96068 -76.44543,-77.96068 0,0 -2.49653,-1.78612 -2.45515,-3.56996 0.0414,-1.78383 1.7367,-1.83129 1.7367,-1.83129 l 49.04029,-0.0421 c 0,0 12.66604,-0.38954 23.23412,10.4079 10.56809,10.79747 9.98778,24.73168 9.98778,24.73168 l -0.0116,47.08731 c 0,0 0.003,1.70368 -1.5239,2.43823 -1.52668,0.73456 -3.56275,-1.26115 -3.56275,-1.26115 z"
       id="path2983"
       inkscape:connector-curvature="0"
       sodipodi:nodetypes="cczcczcczc" />
    <path
       inkscape:connector-curvature="0"
       id="path4306-3"
       d="m 186.30053,1010.224 c -2.27784,-0.612 -6.90237,-2.8188 -9.34858,-4.4608 -4.79262,-3.2173 -9.46462,-9.18727 -11.73028,-14.98923 l -1.11122,-2.84565 -0.0842,-131.74385 -0.0842,-131.74383 0.81598,-2.63548 c 2.59582,-8.38413 8.45899,-15.15331 16.42181,-18.95941 5.59354,-2.67362 0.29413,-2.458 60.25281,-2.45151 l 53.33551,0.005 23.58666,23.714 c 12.97264,13.0427 34.79418,34.97144 48.49229,48.73053 13.69809,13.7591 24.90562,25.08999 24.90562,25.17978 0,0.0898 4.25957,4.42015 9.46571,9.62306 l 9.46569,9.45982 0.0698,38.08208 c 0.0384,20.94509 0.0733,59.86869 0.0777,86.49676 l 0.008,48.41475 -1.44393,3.00364 c -1.82977,3.80623 -2.91643,5.3768 -5.83337,8.43107 -3.78975,3.9682 -7.68867,6.3887 -13.34116,8.2824 l -2.74939,0.9211 -99.73196,-0.029 c -86.95171,-0.024 -99.95065,-0.087 -101.43885,-0.4865 z"
       style="fill:#ffffff;fill-opacity:1;stroke:none"
       sodipodi:nodetypes="csscccssscsssscsscssscscc" />
    <rect
       style="fill:#2c89a0;fill-opacity:1;stroke:none"
       id="rect2990-3"
       width="182.22183"
       height="7.4418325"
       x="192.32817"
       y="896.47485" />
    <rect
       style="fill:#2c89a0;fill-opacity:1;stroke:none"
       id="rect2990-3-7"
       width="182.49507"
       height="7.4418325"
       x="192.32817"
       y="915.12695" />
    <rect
       style="fill:#2c89a0;fill-opacity:1;stroke:none"
       id="rect2990-3-5"
       width="183.86133"
       height="7.4418325"
       x="192.32817"
       y="932.13007" />
    <rect
       style="fill:#2c89a0;fill-opacity:1;stroke:none"
       id="rect2990-3-35"
       width="124.95219"
       height="7.4418325"
       x="192.32817"
       y="948.36017" />
    <rect
       style="fill:#5fbcd3;fill-opacity:1;stroke:#2c89a0;stroke-width:2.76175976;stroke-linecap:round;stroke-linejoin:round;stroke-miterlimit:4;stroke-opacity:1;stroke-dasharray:none"
       id="rect2997"
       width="90.52462"
       height="67.061562"
       x="283.70782"
       y="818.00848"
       transform="matrix(0.99999986,5.2631278e-4,-6.6188717e-4,0.99999978,0,0)" />
    <path
       sodipodi:type="arc"
       style="fill:#ffe680;fill-opacity:1;stroke:none"
       id="path3767"
       sodipodi:cx="942.85712"
       sodipodi:cy="126.28571"
       sodipodi:rx="71.428574"
       sodipodi:ry="74.285713"
       d="m 1014.2857,126.28571 c 0,41.02687 -31.97967,74.28572 -71.42858,74.28572 -39.44892,0 -71.42858,-33.25885 -71.42858,-74.28572 C 871.42854,85.258847 903.4082,52 942.85712,52 c 39.31801,0 71.24318,33.046669 71.42778,73.93695"
       transform="matrix(0.13152319,7.9119943e-5,-7.3233609e-5,0.1264646,232.2301,821.75165)"
       sodipodi:start="0"
       sodipodi:end="6.2784904"
       sodipodi:open="true" />
    <path
       style="fill:#00222b;stroke:#000000;stroke-width:0.11507332px;stroke-linecap:butt;stroke-linejoin:miter;stroke-opacity:1"
       d="m 284.59692,859.15174 -0.1395,24.80741 87.89149,-0.0636 -0.23261,-20.52673 c 0,0 -12.41049,3.95627 -23.14409,2.732 -10.73361,-1.22416 -27.09791,-13.49792 -38.52022,-13.96074 -11.4223,-0.4628 -25.85507,7.01153 -25.85507,7.01153 z"
       id="path3787"
       inkscape:connector-curvature="0"
       sodipodi:nodetypes="cccczzc" />
    <rect
       style="fill:#2c89a0;fill-opacity:1;stroke:none"
       id="rect2990-3-35-6"
       width="80.126038"
       height="7.4418325"
       x="192.32817"
       y="878.9444" />
    <rect
       style="fill:#2c89a0;fill-opacity:1;stroke:none"
       id="rect2990-3-35-6-2"
       width="80.126038"
       height="7.4418325"
       x="192.32817"
       y="861.94141" />
    <rect
       style="fill:#2c89a0;fill-opacity:1;stroke:none"
       id="rect2990-3-35-6-9"
       width="80.126038"
       height="7.4418325"
       x="192.32817"
       y="845.71124" />
    <rect
       style="fill:#2c89a0;fill-opacity:1;stroke:none"
       id="rect2990-3-35-6-1"
       width="80.126038"
       height="7.4418325"
       x="192.32817"
       y="829.86749" />
    <rect
       style="fill:#2c89a0;fill-opacity:1;stroke:none"
       id="rect2990-3-35-6-27"
       width="63.123016"
       height="7.4418325"
       x="210.23001"
       y="814.79663" />
  </g>
</svg>
