<?xml version="1.0" encoding="UTF-8" standalone="no"?>
<!-- Created with Inkscape (http://www.inkscape.org/) -->

<svg
   xmlns:dc="http://purl.org/dc/elements/1.1/"
   xmlns:cc="http://creativecommons.org/ns#"
   xmlns:rdf="http://www.w3.org/1999/02/22-rdf-syntax-ns#"
   xmlns:svg="http://www.w3.org/2000/svg"
   xmlns="http://www.w3.org/2000/svg"
   xmlns:sodipodi="http://sodipodi.sourceforge.net/DTD/sodipodi-0.dtd"
   xmlns:inkscape="http://www.inkscape.org/namespaces/inkscape"
   width="500"
   height="500"
   id="svg2"
   version="1.1"
   inkscape:version="0.91 r13725"
   sodipodi:docname="application-x-desktop.svg">
  <defs
     id="defs4" />
  <sodipodi:namedview
     id="base"
     pagecolor="#ffffff"
     bordercolor="#666666"
     borderopacity="1.0"
     inkscape:pageopacity="0.0"
     inkscape:pageshadow="2"
     inkscape:zoom="0.30333332"
     inkscape:cx="-434.18821"
     inkscape:cy="485.8256"
     inkscape:document-units="px"
     inkscape:current-layer="layer1"
     showgrid="false"
     inkscape:window-width="1366"
     inkscape:window-height="713"
     inkscape:window-x="0"
     inkscape:window-y="0"
     inkscape:window-maximized="1" />
  <metadata
     id="metadata7">
    <rdf:RDF>
      <cc:Work
         rdf:about="">
        <dc:format>image/svg+xml</dc:format>
        <dc:type
           rdf:resource="http://purl.org/dc/dcmitype/StillImage" />
        <dc:title />
      </cc:Work>
    </rdf:RDF>
  </metadata>
  <g
     inkscape:label="Layer 1"
     inkscape:groupmode="layer"
     id="layer1"
     transform="translate(0,-552.36218)">
    <rect
       style="fill:#ffffff;fill-opacity:1;stroke:none"
       id="rect3000"
       width="450"
       height="450"
       x="25"
       y="577.36218"
       ry="55.366497" />
    <path
       style="fill:#00bbf2;stroke:none;stroke-width:1px;stroke-linecap:butt;stroke-linejoin:miter;stroke-opacity:1;fill-opacity:1"
       d="M 100,475 100,25 C 100,25 61.202184,19.758699 40.940323,41.934658 20.678462,64.110616 25,90.3 25,90.3 L 25,410 c 0,0 -3.104929,34.44943 20.038287,52.1379 C 68.181502,479.82637 100,475 100,475 z"
       id="path3770"
       inkscape:connector-curvature="0"
       transform="translate(0,552.36218)"
       sodipodi:nodetypes="cczcczc" />
    <path
       inkscape:connector-curvature="0"
       style="fill:#00bbf2;fill-opacity:1"
       d="m 419.74887,845.1472 c 0.008,0 0.16148,0.0989 0.16148,0.10742 l 0,182.10758 -299.63813,0 0,-182.10758 c 0,-0.008 0.10647,-0.10742 0.11504,-0.10742 l 299.36161,0 0,0 z"
       id="path9" />
    <path
       style="fill:#0077d7;fill-opacity:1;stroke:none;stroke-width:0.55641943px;stroke-linecap:butt;stroke-linejoin:miter;stroke-opacity:1"
       d="m 121.00577,942.19766 -0.4761,72.55434 299.31035,-0.1832 -0.79129,-60.03451 c 0,0 -42.2635,11.5705 -78.81624,7.98967 -36.55273,-3.58083 -92.28009,-39.47833 -131.17822,-40.83224 -38.89808,-1.3539 -88.0485,20.50594 -88.0485,20.50594 z"
       id="path3787"
       inkscape:connector-curvature="0"
       sodipodi:nodetypes="cccczzc" />
    <path
       style="fill:#ffb800;stroke:none"
       d="m 131.72584,854.33763 11.65297,0.009 0.19577,0.0877 0.0964,0.18702 0,9.80333 1.10161,1.1279 0.009,5.07845 -0.27759,0.18993 -12.78379,0.0935 z"
       id="path2996"
       inkscape:connector-curvature="0" />
    <path
       style="fill:#faec6d;stroke:none"
       d="m 131.72585,854.33807 4.4464,3.64473 0.0165,10.16556 -0.34712,0.52894 0.008,5.13237 -0.281,0.15703 -3.84992,-3.05684 z"
       id="path3766"
       inkscape:connector-curvature="0"
       sodipodi:nodetypes="cccccccc" />
    <path
       style="fill:none;stroke:#ffb800;stroke-width:0.09256449px;stroke-linecap:round;stroke-linejoin:miter;stroke-opacity:1"
       d="m 132.15245,870.67458 0.0234,-15.28794"
       id="path3768"
       inkscape:connector-curvature="0" />
    <path
       style="fill:none;stroke:#ffb800;stroke-width:0.09256449px;stroke-linecap:round;stroke-linejoin:miter;stroke-opacity:1"
       d="m 132.46211,870.89705 0.0234,-15.28795"
       id="path3768-3"
       inkscape:connector-curvature="0" />
    <path
       inkscape:connector-curvature="0"
       id="path3340"
       d="m 137.09373,888.76196 c -2.43048,-0.12118 -4.67643,-0.79432 -5.64631,-1.69225 -0.24613,-0.22785 -0.44234,-0.55292 -0.44165,-0.73163 10e-4,-0.3025 0.37312,-0.75453 0.89495,-1.08758 2.23328,-1.42534 6.85475,-1.8049 10.24255,-0.84122 1.17022,0.33288 2.05443,0.78643 2.54287,1.30438 0.33023,0.35017 0.3925,0.57239 0.24898,0.88851 -0.3372,0.74274 -1.83878,1.49895 -3.72812,1.87755 -0.76049,0.1524 -1.48449,0.23893 -2.38148,0.28459 -0.78516,0.04 -0.88463,0.0399 -1.73179,-0.003 z"
       style="fill:#cccccc;fill-opacity:0.58823529;stroke-width:0.78468841" />
    <path
       inkscape:connector-curvature="0"
       id="path3340-3"
       d="m 137.33838,901.31828 c -1.86479,-0.093 -3.58801,-0.60942 -4.33216,-1.29837 -0.18884,-0.17485 -0.33938,-0.42423 -0.33886,-0.56135 6.6e-4,-0.23209 0.28629,-0.57893 0.68666,-0.83445 1.71349,-1.09361 5.25934,-1.38481 7.85864,-0.64545 0.89786,0.25542 1.57627,0.60341 1.95103,1.00081 0.25338,0.26866 0.30115,0.43917 0.19103,0.68171 -0.25872,0.56988 -1.41081,1.15006 -2.86042,1.44057 -0.58349,0.11691 -1.13898,0.18328 -1.8272,0.21835 -0.60241,0.0307 -0.67873,0.0306 -1.32872,-0.003 z"
       style="fill:#cccccc;fill-opacity:0.58823529;stroke-width:0.78468841" />
    <path
       inkscape:connector-curvature="0"
       id="path3348"
       d="m 137.21431,901.32327 c -1.99722,-0.13693 -3.62323,-0.68236 -4.32578,-1.45105 -0.25015,-0.27371 -0.31785,-0.42028 -0.39199,-0.84865 -0.20459,-1.18222 -2.21479,-11.99761 -2.26735,-12.19898 -0.35991,-1.3786 1.10864,-2.62724 3.89449,-3.3113 0.638,-0.15665 1.60743,-0.31179 2.37671,-0.38034 0.69069,-0.0616 2.29379,-0.0616 2.98448,0 3.37017,0.30032 5.89301,1.46201 6.27316,2.88862 0.0734,0.27547 0.0671,0.48603 -0.0258,0.86693 -0.1005,0.41203 -2.26808,12.16076 -2.26808,12.29346 0,0.0538 -0.0549,0.20778 -0.12201,0.34207 -0.34052,0.68144 -1.48229,1.28534 -3.02431,1.59958 -0.85827,0.17491 -2.20287,0.26141 -3.10357,0.19966 z"
       style="fill:#969696;fill-opacity:0.58823529;stroke-width:0.78468841" />
    <g
       transform="matrix(0.19123121,0,0,0.19123121,125.84834,878.84248)"
       id="g20"
       style="fill:#006680;stroke:#006680;stroke-opacity:1">
      <linearGradient
         id="SVGID_2_"
         gradientUnits="userSpaceOnUse"
         x1="64.779297"
         y1="89.454102"
         x2="81.225601"
         y2="89.454102">
        <stop
           offset="0"
           style="stop-color:#80C11B"
           id="stop23" />
        <stop
           offset="1"
           style="stop-color:#80E21B"
           id="stop25" />
      </linearGradient>
      <path
         inkscape:connector-curvature="0"
         d="m 68.818,87.321 -4.039,7.105 4.105,7.037 -0.016,-3.096 3.416,-0.063 c 2.135,-0.059 3.303,-1.699 3.303,-1.699 l 5.166,-8.844 c 1.104,-2.484 -0.076,-4.172 -0.076,-4.172 l -3.594,-6.146 -7.104,4.107 4.563,7.889 c 0.168,0.416 -0.1,0.754 -0.596,0.746 l -5.107,0.035 -0.021,-2.899 0,0 z"
         id="path27"
         style="fill:#006680;stroke:#006680;stroke-opacity:1" />
      <linearGradient
         id="SVGID_3_"
         gradientUnits="userSpaceOnUse"
         x1="46.181198"
         y1="88.808601"
         x2="62.918499"
         y2="88.808601">
        <stop
           offset="0"
           style="stop-color:#80C11B"
           id="stop30" />
        <stop
           offset="1"
           style="stop-color:#80E21B"
           id="stop32" />
      </linearGradient>
      <path
         inkscape:connector-curvature="0"
         d="m 58.476,86.259 -4.15,-7.043 -8.145,0.055 2.689,1.529 -1.651,2.99 c -1.013,1.881 -0.17,3.711 -0.17,3.711 l 5.096,8.885 c 1.604,2.197 3.656,2.011 3.656,2.011 l 7.118,-0.05 -0.024,-8.207 -9.112,0.027 C 53.34,90.104 53.179,89.706 53.432,89.278 l 2.515,-4.447 2.529,1.428 0,0 z"
         id="path34"
         style="fill:#006680;stroke:#006680;stroke-opacity:1" />
      <linearGradient
         id="SVGID_4_"
         gradientUnits="userSpaceOnUse"
         x1="51.8843"
         y1="73.499001"
         x2="76.783203"
         y2="73.499001">
        <stop
           offset="0"
           style="stop-color:#80C11B"
           id="stop37" />
        <stop
           offset="1"
           style="stop-color:#80E21B"
           id="stop39" />
      </linearGradient>
      <path
         inkscape:connector-curvature="0"
         d="m 64.572,77.841 8.174,-0.063 4.037,-7.074 -2.672,1.561 -1.762,-2.928 C 71.232,67.519 69.224,67.329 69.224,67.329 L 58.981,67.282 c -2.707,0.287 -3.573,2.154 -3.573,2.154 l -3.524,6.188 7.111,4.092 4.546,-7.896 c 0.276,-0.354 0.701,-0.291 0.944,0.145 l 2.588,4.402 -2.501,1.474 0,0 z"
         id="path41"
         style="fill:#006680;stroke:#006680;stroke-opacity:1" />
    </g>
    <rect
       style="fill:#1a1a1a;fill-opacity:1;stroke:none;stroke-opacity:1"
       id="rect4164"
       width="300"
       height="13.053629"
       x="120"
       y="1014.2566" />
    <path
       sodipodi:type="arc"
       style="fill:#ffffff;fill-opacity:1;stroke:none"
       id="path3832"
       sodipodi:cx="131.8718"
       sodipodi:cy="1020.9569"
       sodipodi:rx="5.6041093"
       sodipodi:ry="5.3568692"
       d="m 137.47585,1020.9332 a 5.6041093,5.3568692 0 0 1 -5.57912,5.3805 5.6041093,5.3568692 0 0 1 -5.62899,-5.3328 5.6041093,5.3568692 0 0 1 5.57889,-5.3808 5.6041093,5.3568692 0 0 1 5.62922,5.3326"
       sodipodi:start="6.2787571"
       sodipodi:end="6.2786747"
       sodipodi:open="true" />
    <rect
       style="fill:#71c837;fill-opacity:0.58823529;stroke:none"
       id="rect3852"
       width="4.1958041"
       height="7.6923075"
       x="411.10162"
       y="1016.9373" />
    <rect
       style="fill:#ffffff;fill-opacity:1;stroke:none"
       id="rect3852-6"
       width="1.2701292"
       height="7.6923075"
       x="405.21838"
       y="1016.8634" />
    <rect
       style="fill:#ffffff;fill-opacity:1;stroke:none"
       id="rect3852-6-7"
       width="1.2701292"
       height="6.4149003"
       x="403.09625"
       y="1018.2645" />
    <rect
       style="fill:#ffffff;fill-opacity:1;stroke:none"
       id="rect3852-6-7-5"
       width="1.2701292"
       height="5.0550795"
       x="400.91229"
       y="1019.5624" />
    <rect
       style="fill:#ffffff;fill-opacity:1;stroke:none"
       id="rect3852-6-7-5-3"
       width="1.2701292"
       height="3.654052"
       x="398.89313"
       y="1021.0665" />
    <path
       sodipodi:type="arc"
       style="fill:#faec6d;fill-opacity:1;stroke:none"
       id="path3767"
       sodipodi:cx="-62.658955"
       sodipodi:cy="953.28662"
       sodipodi:rx="14.777128"
       sodipodi:ry="14.498313"
       d="m -47.881826,953.28662 a 14.777128,14.498313 0 0 1 -14.759784,14.4983 14.777128,14.498313 0 0 1 -14.794432,-14.46426 14.777128,14.498313 0 0 1 14.725055,-14.53226 14.777128,14.498313 0 0 1 14.828998,14.43015"
       transform="matrix(0.89137186,-0.45327278,0.45327278,0.89137186,0,0)"
       sodipodi:start="0"
       sodipodi:end="6.2784904"
       sodipodi:open="true" />
  </g>
</svg>
