<?xml version="1.0" encoding="UTF-8" standalone="no"?>
<!-- Created with Inkscape (http://www.inkscape.org/) -->

<svg
   xmlns:dc="http://purl.org/dc/elements/1.1/"
   xmlns:cc="http://creativecommons.org/ns#"
   xmlns:rdf="http://www.w3.org/1999/02/22-rdf-syntax-ns#"
   xmlns:svg="http://www.w3.org/2000/svg"
   xmlns="http://www.w3.org/2000/svg"
   xmlns:sodipodi="http://sodipodi.sourceforge.net/DTD/sodipodi-0.dtd"
   xmlns:inkscape="http://www.inkscape.org/namespaces/inkscape"
   width="500"
   height="500"
   id="svg2"
   version="1.1"
   inkscape:version="0.48.5 r10040"
   sodipodi:docname="application-x-font-pcf.svg">
  <defs
     id="defs4" />
  <sodipodi:namedview
     id="base"
     pagecolor="#ffffff"
     bordercolor="#666666"
     borderopacity="1.0"
     inkscape:pageopacity="0.0"
     inkscape:pageshadow="2"
     inkscape:zoom="0.60666665"
     inkscape:cx="414.33366"
     inkscape:cy="255.15211"
     inkscape:document-units="px"
     inkscape:current-layer="layer1"
     showgrid="false"
     inkscape:window-width="1366"
     inkscape:window-height="716"
     inkscape:window-x="0"
     inkscape:window-y="0"
     inkscape:window-maximized="1" />
  <metadata
     id="metadata7">
    <rdf:RDF>
      <cc:Work
         rdf:about="">
        <dc:format>image/svg+xml</dc:format>
        <dc:type
           rdf:resource="http://purl.org/dc/dcmitype/StillImage" />
        <dc:title />
      </cc:Work>
    </rdf:RDF>
  </metadata>
  <g
     inkscape:label="Layer 1"
     inkscape:groupmode="layer"
     id="layer1"
     transform="translate(0,-552.36218)">
    <rect
       style="fill:#ffffff;fill-opacity:1;stroke:none"
       id="rect3000"
       width="450"
       height="450"
       x="25"
       y="577.36218"
       ry="55.366497" />
    <path
       style="fill:#666666;stroke:none;stroke-width:1px;stroke-linecap:butt;stroke-linejoin:miter;stroke-opacity:1;fill-opacity:1"
       d="M 100,475 100,25 C 100,25 61.202184,19.758699 40.940323,41.934658 20.678462,64.110616 25,90.3 25,90.3 L 25,410 c 0,0 -3.104929,34.44943 20.038287,52.1379 C 68.181502,479.82637 100,475 100,475 z"
       id="path3770"
       inkscape:connector-curvature="0"
       transform="translate(0,552.36218)"
       sodipodi:nodetypes="cczcczc" />
    <rect
       style="fill:#ebebeb;fill-opacity:1;fill-rule:nonzero;stroke:none"
       id="rect4444"
       width="300"
       height="300"
       x="150"
       y="727.36218"
       rx="36.217667"
       ry="44.326092" />
    <rect
       style="fill:#cccccc;fill-opacity:1;fill-rule:nonzero;stroke:none"
       id="rect4444-3"
       width="233.33333"
       height="233.33333"
       x="182.46298"
       y="761.56586"
       rx="28.169296"
       ry="34.475849" />
    <g
       transform="matrix(0.66666667,0,0,0.66666667,129.33333,706.69552)"
       style="font-size:230.9047699px;font-style:normal;font-weight:normal;line-height:125%;letter-spacing:0px;word-spacing:0px;fill:#394050;fill-opacity:1;stroke:none;font-family:Sans"
       id="text4163">
      <path
         inkscape:connector-curvature="0"
         d="m 277.73571,338.31757 -69.04053,-167.86777 -18.93419,0 -69.50233,167.86777 23.78319,0 21.47414,-55.18624 66.26967,0 21.93595,55.18624 24.0141,0 z m -54.26262,-73.88953 -49.87543,0 25.63043,-68.80962 24.245,68.80962 z"
         style="font-size:230.9047699px;font-style:normal;font-variant:normal;font-weight:bold;font-stretch:normal;text-align:start;line-height:125%;writing-mode:lr-tb;text-anchor:start;fill:#394050;fill-opacity:1;font-family:Laksaman;-inkscape-font-specification:'Laksaman, Bold'"
         id="path4167" />
      <path
         inkscape:connector-curvature="0"
         d="m 328.01161,341.55023 c 14.77791,0 28.17038,-5.31081 39.94653,-15.47062 l 3.46357,15.47062 20.31962,-4.38719 c -3.23267,-11.54524 -4.849,-21.70505 -4.849,-30.47943 l 0,-39.25381 c 0,-33.71209 -16.16334,-50.56814 -49.18272,-50.56814 -14.08519,0 -29.094,2.30904 -44.79552,6.92714 l 2.30904,19.62691 c 15.00881,-5.77262 28.8631,-8.54348 41.33196,-8.54348 16.85605,0 26.32314,8.77438 28.63219,26.09224 -52.64629,0.69271 -78.96943,15.70152 -78.96943,45.02643 0,22.16686 18.70328,35.55933 41.79376,35.55933 z m 37.17567,-40.63924 c 0,12.69977 -21.93595,21.47415 -36.25205,21.47415 -13.62338,0 -20.55052,-6.23443 -20.55052,-18.47238 0,-15.23972 19.16509,-23.32139 56.80257,-24.0141 l 0,21.01233 z"
         style="font-size:230.9047699px;font-style:normal;font-variant:normal;font-weight:bold;font-stretch:normal;text-align:start;line-height:125%;writing-mode:lr-tb;text-anchor:start;fill:#394050;fill-opacity:1;font-family:Laksaman;-inkscape-font-specification:'Laksaman, Bold'"
         id="path4169" />
    </g>
  </g>
</svg>
