<?xml version="1.0" encoding="UTF-8" standalone="no"?>
<!-- Created with Inkscape (http://www.inkscape.org/) -->

<svg
   xmlns:dc="http://purl.org/dc/elements/1.1/"
   xmlns:cc="http://creativecommons.org/ns#"
   xmlns:rdf="http://www.w3.org/1999/02/22-rdf-syntax-ns#"
   xmlns:svg="http://www.w3.org/2000/svg"
   xmlns="http://www.w3.org/2000/svg"
   xmlns:sodipodi="http://sodipodi.sourceforge.net/DTD/sodipodi-0.dtd"
   xmlns:inkscape="http://www.inkscape.org/namespaces/inkscape"
   width="500"
   height="500"
   id="svg2"
   version="1.1"
   inkscape:version="0.91 r13725"
   sodipodi:docname="application-sxw.svg">
  <defs
     id="defs4" />
  <sodipodi:namedview
     id="base"
     pagecolor="#ffffff"
     bordercolor="#666666"
     borderopacity="1.0"
     inkscape:pageopacity="0.0"
     inkscape:pageshadow="2"
     inkscape:zoom="0.85795619"
     inkscape:cx="439.2894"
     inkscape:cy="291.98971"
     inkscape:document-units="px"
     inkscape:current-layer="layer1"
     showgrid="false"
     inkscape:window-width="1366"
     inkscape:window-height="711"
     inkscape:window-x="0"
     inkscape:window-y="0"
     inkscape:window-maximized="1" />
  <metadata
     id="metadata7">
    <rdf:RDF>
      <cc:Work
         rdf:about="">
        <dc:format>image/svg+xml</dc:format>
        <dc:type
           rdf:resource="http://purl.org/dc/dcmitype/StillImage" />
        <dc:title />
      </cc:Work>
    </rdf:RDF>
  </metadata>
  <g
     inkscape:label="Layer 1"
     inkscape:groupmode="layer"
     id="layer1"
     transform="translate(0,-552.36218)">
    <path
       style="fill:#006680;fill-rule:evenodd;stroke:none;stroke-width:1px;stroke-linecap:butt;stroke-linejoin:miter;stroke-opacity:1"
       d="M 63.03896,706.21235 116.261,758.31091 114.60095,685.26906 63,685.02396 Z"
       id="path4230"
       inkscape:connector-curvature="0"
       sodipodi:nodetypes="ccccc" />
    <path
       style="fill:#f2f2f2;fill-rule:evenodd;stroke:#afafaf;stroke-width:5.03546047;stroke-linecap:butt;stroke-linejoin:miter;stroke-miterlimit:4;stroke-dasharray:none;stroke-opacity:1"
       d="m 97.04097,1029.8357 336.88839,-1.1739 1.17377,-363.88635 -88.03697,-89.21086 -250.02519,0 z"
       id="path3364"
       inkscape:connector-curvature="0" />
    <path
       style="fill:#afafaf;fill-opacity:1;fill-rule:evenodd;stroke:#afafaf;stroke-width:5.03546047;stroke-linecap:butt;stroke-linejoin:miter;stroke-miterlimit:4;stroke-dasharray:none;stroke-opacity:1"
       d="m 431.51909,662.93129 -82.16431,-0.58691 0.75853,-83.80351 z"
       id="path4166"
       inkscape:connector-curvature="0"
       sodipodi:nodetypes="cccc" />
    <rect
       style="fill:#00bbf2;fill-opacity:1;stroke:none;stroke-width:5;stroke-miterlimit:4;stroke-dasharray:none;stroke-opacity:1"
       id="rect4228"
       width="224.93568"
       height="84.350876"
       x="63.139668"
       y="622.18744" />
    <path
       style="fill:none;fill-rule:evenodd;stroke:#ffffff;stroke-width:10;stroke-linecap:butt;stroke-linejoin:miter;stroke-miterlimit:4;stroke-dasharray:none;stroke-opacity:1"
       d="m 136.26302,639.43269 c 0,0 -9.26192,-4.269 -18.06619,-4.37085 -8.80427,-0.10185 -14.26789,5.23284 -14.5695,12.82117 -0.30162,7.58832 3.92901,13.66202 19.08605,15.44367 15.15704,1.78165 14.25231,15.00213 12.38407,19.66884 -1.86824,4.66671 -10.69001,9.07335 -19.66883,7.86753 -8.97882,-1.20582 -16.463545,-5.24502 -16.463545,-5.24502"
       id="path3353"
       inkscape:connector-curvature="0"
       sodipodi:nodetypes="czzzzzc" />
    <rect
       style="fill:#00bbf2;fill-opacity:1;stroke:none"
       id="rect2990-3"
       width="297.32489"
       height="12.142574"
       x="117.08083"
       y="903.18231" />
    <rect
       style="fill:#00bbf2;fill-opacity:1;stroke:none"
       id="rect2990-3-7"
       width="297.77072"
       height="12.142574"
       x="117.08083"
       y="933.61627" />
    <rect
       style="fill:#00bbf2;fill-opacity:1;stroke:none"
       id="rect2990-3-5"
       width="300"
       height="12.142574"
       x="117.08083"
       y="961.35968" />
    <rect
       style="fill:#00bbf2;fill-opacity:1;stroke:none"
       id="rect2990-3-35"
       width="203.88005"
       height="12.142574"
       x="117.08083"
       y="987.84174" />
    <rect
       style="fill:#5fbcd3;fill-opacity:1;stroke:#00bbf2;stroke-width:4.50626516;stroke-linecap:round;stroke-linejoin:round;stroke-miterlimit:4;stroke-dasharray:none;stroke-opacity:1"
       id="rect2997"
       width="147.70581"
       height="109.42197"
       x="265.81149"
       y="775.25519"
       transform="matrix(0.99999986,5.2631278e-4,-6.6188717e-4,0.99999978,0,0)" />
    <path
       sodipodi:type="arc"
       style="fill:#faec6d;fill-opacity:1;stroke:none"
       id="path3767"
       sodipodi:cx="384.97858"
       sodipodi:cy="807.20813"
       sodipodi:rx="15.328697"
       sodipodi:ry="15.328696"
       d="m 400.30727,807.20813 a 15.328697,15.328696 0 0 1 -15.3107,15.32869 15.328697,15.328696 0 0 1 -15.34665,-15.29271 15.328697,15.328696 0 0 1 15.27468,-15.36458 15.328697,15.328696 0 0 1 15.3825,15.25663"
       transform="matrix(0.99999982,6.0156637e-4,-5.7908376e-4,0.99999983,0,0)"
       sodipodi:start="0"
       sodipodi:end="6.2784904"
       sodipodi:open="true" />
    <path
       style="fill:#006680;stroke:#000000;stroke-width:0.18776105px;stroke-linecap:butt;stroke-linejoin:miter;stroke-opacity:1"
       d="m 267.6325,842.28349 -0.22761,40.47737 143.40942,-0.10377 -0.37954,-33.49274 c 0,0 -20.24976,6.45531 -37.76339,4.45771 -17.51365,-1.99742 -44.2147,-22.02408 -62.85208,-22.77924 -18.63736,-0.75514 -42.1868,11.44046 -42.1868,11.44046 z"
       id="path3787"
       inkscape:connector-curvature="0"
       sodipodi:nodetypes="cccczzc" />
    <rect
       style="fill:#00bbf2;fill-opacity:1;stroke:none"
       id="rect2990-3-35-6"
       width="130.73882"
       height="12.142574"
       x="117.08083"
       y="874.57849" />
    <rect
       style="fill:#00bbf2;fill-opacity:1;stroke:none"
       id="rect2990-3-35-6-2"
       width="130.73882"
       height="12.142574"
       x="117.08083"
       y="846.83533" />
    <rect
       style="fill:#00bbf2;fill-opacity:1;stroke:none"
       id="rect2990-3-35-6-9"
       width="130.73882"
       height="12.142574"
       x="117.08083"
       y="820.35315" />
    <rect
       style="fill:#00bbf2;fill-opacity:1;stroke:none"
       id="rect2990-3-35-6-1"
       width="130.73882"
       height="12.142574"
       x="117.08083"
       y="794.50146" />
    <rect
       style="fill:#00bbf2;fill-opacity:1;stroke:none"
       id="rect2990-3-35-6-27"
       width="102.99558"
       height="12.142574"
       x="146.2906"
       y="769.91083" />
    <g
       transform="translate(114.69237,-356.97239)"
       id="g4297">
      <path
         inkscape:connector-curvature="0"
         id="path3443"
         d="m 42.439782,990.8983 39.33767,58.278"
         style="fill:none;fill-rule:evenodd;stroke:#ffffff;stroke-width:9;stroke-linecap:butt;stroke-linejoin:miter;stroke-miterlimit:4;stroke-dasharray:none;stroke-opacity:1" />
      <path
         inkscape:connector-curvature="0"
         id="path3443-7"
         d="m 80.174812,990.8983 -39.33768,58.278"
         style="fill:none;fill-rule:evenodd;stroke:#ffffff;stroke-width:9;stroke-linecap:butt;stroke-linejoin:miter;stroke-miterlimit:4;stroke-dasharray:none;stroke-opacity:1" />
    </g>
    <path
       style="fill:none;fill-rule:evenodd;stroke:#ffffff;stroke-width:9;stroke-linecap:butt;stroke-linejoin:miter;stroke-miterlimit:4;stroke-dasharray:none;stroke-opacity:1"
       d="m 209.40167,632.94609 8.12106,56.21116 5.02648,0.21854 15.88077,-41.30456 3.35098,0 15.95362,41.30456 5.24502,0.0729 7.41758,-56.23616"
       id="path4260"
       inkscape:connector-curvature="0"
       sodipodi:nodetypes="cccccccc" />
  </g>
</svg>
