<?xml version="1.0" encoding="UTF-8" standalone="no"?>
<!-- Created with Inkscape (http://www.inkscape.org/) -->

<svg
   xmlns:dc="http://purl.org/dc/elements/1.1/"
   xmlns:cc="http://creativecommons.org/ns#"
   xmlns:rdf="http://www.w3.org/1999/02/22-rdf-syntax-ns#"
   xmlns:svg="http://www.w3.org/2000/svg"
   xmlns="http://www.w3.org/2000/svg"
   xmlns:sodipodi="http://sodipodi.sourceforge.net/DTD/sodipodi-0.dtd"
   xmlns:inkscape="http://www.inkscape.org/namespaces/inkscape"
   width="500"
   height="500"
   id="svg2"
   version="1.1"
   inkscape:version="0.48.5 r10040"
   sodipodi:docname="application-x-rpm.svg">
  <defs
     id="defs4" />
  <sodipodi:namedview
     id="base"
     pagecolor="#ffffff"
     bordercolor="#666666"
     borderopacity="1.0"
     inkscape:pageopacity="0.0"
     inkscape:pageshadow="2"
     inkscape:zoom="0.60666666"
     inkscape:cx="192.97068"
     inkscape:cy="270.05604"
     inkscape:document-units="px"
     inkscape:current-layer="layer1"
     showgrid="false"
     inkscape:window-width="1366"
     inkscape:window-height="716"
     inkscape:window-x="0"
     inkscape:window-y="0"
     inkscape:window-maximized="1" />
  <metadata
     id="metadata7">
    <rdf:RDF>
      <cc:Work
         rdf:about="">
        <dc:format>image/svg+xml</dc:format>
        <dc:type
           rdf:resource="http://purl.org/dc/dcmitype/StillImage" />
        <dc:title />
      </cc:Work>
    </rdf:RDF>
  </metadata>
  <g
     inkscape:label="Layer 1"
     inkscape:groupmode="layer"
     id="layer1"
     transform="translate(0,-552.36218)">
    <rect
       style="fill:#ffffff;fill-opacity:1;stroke:none"
       id="rect3000"
       width="450"
       height="450"
       x="25"
       y="577.36218"
       ry="55.366497" />
    <path
       style="fill:#394050;stroke:none;stroke-width:1px;stroke-linecap:butt;stroke-linejoin:miter;stroke-opacity:1;fill-opacity:1"
       d="M 100,475 100,25 C 100,25 61.202184,19.758699 40.940323,41.934658 20.678462,64.110616 25,90.3 25,90.3 L 25,410 c 0,0 -3.104929,34.44943 20.038287,52.1379 C 68.181502,479.82637 100,475 100,475 z"
       id="path3770"
       inkscape:connector-curvature="0"
       transform="translate(0,552.36218)"
       sodipodi:nodetypes="cczcczc" />
    <path
       sodipodi:type="arc"
       style="fill:#394050;fill-opacity:1;stroke:#cccccc;stroke-width:26.5;stroke-miterlimit:4;stroke-dasharray:none"
       id="path2998"
       sodipodi:cx="-470.77966"
       sodipodi:cy="121.49152"
       sodipodi:rx="229.96609"
       sodipodi:ry="229.96609"
       d="m -240.81357,121.49152 a 229.96609,229.96609 0 1 1 -459.93219,0 229.96609,229.96609 0 1 1 459.93219,0 z"
       transform="matrix(0.6167355,0,0,0.6167355,590.34653,802.43404)" />
    <path
       style="fill:#ff0000;fill-opacity:1;stroke:#ff0000;stroke-width:1.04845035;stroke-miterlimit:4;stroke-opacity:1;stroke-dasharray:none"
       d="m 287.29453,871.22106 c -1.13918,-5.3285 -4.48007,-19.51786 -19.76759,-83.95638 -2.37056,-9.99215 -2.47681,-11.4791 -0.77353,-10.82549 0.59716,0.22915 11.62223,27.91615 30.56124,76.74773 l 7.52232,19.39524 -4.31541,0.2717 c -4.52637,0.285 -7.62238,1.3124 -10.44687,3.4668 l -1.453,1.1082 -1.32716,-6.2078 0,0 z"
       id="path3777"
       inkscape:connector-curvature="0" />
    <path
       sodipodi:type="arc"
       style="fill:#ffffff;fill-opacity:1;stroke:none"
       id="path3775"
       sodipodi:cx="-596.61017"
       sodipodi:cy="130.16949"
       sodipodi:rx="26.033897"
       sodipodi:ry="26.033897"
       d="m -570.57627,130.16949 a 26.033897,26.033897 0 1 1 -52.0678,0 26.033897,26.033897 0 1 1 52.0678,0 z"
       transform="matrix(0.67124773,0,0,0.67124773,700.33325,797.57354)" />
  </g>
</svg>
