<?xml version="1.0" encoding="UTF-8" standalone="no"?>
<!-- Created with Inkscape (http://www.inkscape.org/) -->

<svg
   xmlns:dc="http://purl.org/dc/elements/1.1/"
   xmlns:cc="http://creativecommons.org/ns#"
   xmlns:rdf="http://www.w3.org/1999/02/22-rdf-syntax-ns#"
   xmlns:svg="http://www.w3.org/2000/svg"
   xmlns="http://www.w3.org/2000/svg"
   xmlns:sodipodi="http://sodipodi.sourceforge.net/DTD/sodipodi-0.dtd"
   xmlns:inkscape="http://www.inkscape.org/namespaces/inkscape"
   width="500"
   height="500"
   id="svg2"
   version="1.1"
   inkscape:version="0.48.5 r10040"
   sodipodi:docname="application-vnd.ms-access.svg">
  <defs
     id="defs4" />
  <sodipodi:namedview
     id="base"
     pagecolor="#ffffff"
     bordercolor="#666666"
     borderopacity="1.0"
     inkscape:pageopacity="0.0"
     inkscape:pageshadow="2"
     inkscape:zoom="0.85795619"
     inkscape:cx="229.13204"
     inkscape:cy="201.91656"
     inkscape:document-units="px"
     inkscape:current-layer="layer1"
     showgrid="false"
     inkscape:window-width="1366"
     inkscape:window-height="716"
     inkscape:window-x="0"
     inkscape:window-y="0"
     inkscape:window-maximized="1" />
  <metadata
     id="metadata7">
    <rdf:RDF>
      <cc:Work
         rdf:about="">
        <dc:format>image/svg+xml</dc:format>
        <dc:type
           rdf:resource="http://purl.org/dc/dcmitype/StillImage" />
        <dc:title />
      </cc:Work>
    </rdf:RDF>
  </metadata>
  <g
     inkscape:label="Layer 1"
     inkscape:groupmode="layer"
     id="layer1"
     transform="translate(0,-552.36218)">
    <rect
       style="fill:#ffffff;fill-opacity:1;stroke:none"
       id="rect3000"
       width="450"
       height="450"
       x="25"
       y="577.36218"
       ry="55.366497" />
    <path
       style="fill:#aa0000;stroke:none;stroke-width:1px;stroke-linecap:butt;stroke-linejoin:miter;stroke-opacity:1;fill-opacity:1"
       d="M 100,475 100,25 C 100,25 61.202184,19.758699 40.940323,41.934658 20.678462,64.110616 25,90.3 25,90.3 L 25,410 c 0,0 -3.104929,34.44943 20.038287,52.1379 C 68.181502,479.82637 100,475 100,475 z"
       id="path3770"
       inkscape:connector-curvature="0"
       transform="translate(0,552.36218)"
       sodipodi:nodetypes="cczcczc" />
    <path
       inkscape:connector-curvature="0"
       id="path4306"
       d="m 175.16192,1026.783 c -2.56343,-0.6889 -7.7678,-3.1723 -10.52073,-5.0202 -5.39352,-3.6207 -10.65131,-10.3391 -13.20104,-16.8685 L 150.1896,1001.6918 150.0948,853.4296 150,705.1674 l 0.91829,-2.96593 c 2.92129,-9.43535 9.5196,-17.05327 18.48081,-21.33658 6.29488,-3.00885 0.33101,-2.76619 67.80746,-2.75888 l 60.02285,0.006 26.544,26.68731 c 14.5992,14.67803 39.15676,39.35625 54.57237,54.84049 15.4156,15.48425 28.02836,28.23584 28.02836,28.33688 0,0.10102 4.79365,4.97436 10.65254,10.82963 l 10.65252,10.64592 0.0785,42.8569 c 0.0431,23.57129 0.0825,67.37517 0.0873,97.34195 l 0.009,54.48501 -1.62498,3.3803 c -2.05918,4.2835 -3.2821,6.051 -6.56476,9.4882 -4.26491,4.4657 -8.65271,7.1898 -15.01391,9.321 l -3.09411,1.0366 -112.23661,-0.032 c -97.85393,-0.028 -112.48271,-0.098 -114.1575,-0.5478 z"
       style="fill:#aa0000;fill-opacity:1;stroke:none"
       sodipodi:nodetypes="csscccssscsssscsscssscscc" />
    <path
       style="fill:#aa0000;stroke:none"
       d="m 424.13833,761.24749 c -23.4528,-26.83913 -76.88478,-78.40873 -76.88478,-78.40873 0,0 -2.51087,-1.79638 -2.46926,-3.59047 0.0416,-1.79409 1.74669,-1.84182 1.74669,-1.84182 l 49.32213,-0.0423 c 0,0 12.73883,-0.39178 23.36764,10.46772 10.62882,10.85952 10.04519,24.8738 10.04519,24.8738 l -0.0117,47.35794 c 0,0 0.003,1.71347 -1.53265,2.45224 -1.53546,0.73877 -3.58322,-1.2684 -3.58322,-1.2684 z"
       id="path2983"
       inkscape:connector-curvature="0"
       sodipodi:nodetypes="cczcczcczc" />
    <path
       inkscape:connector-curvature="0"
       id="path4306-3"
       d="m 185.70665,1011.1312 c -2.29093,-0.6156 -6.94204,-2.835 -9.40231,-4.4865 -4.82016,-3.2358 -9.51902,-9.23999 -11.7977,-15.07529 l -1.1176,-2.862 -0.0847,-132.501 -0.0847,-132.50098 0.82067,-2.65063 c 2.61074,-8.43231 8.50761,-15.2404 16.51618,-19.06837 5.6257,-2.68899 0.29582,-2.47213 60.59909,-2.4656 l 53.64204,0.005 23.7222,23.8503 c 13.04721,13.11764 34.99415,35.17242 48.77098,49.01059 13.77682,13.83817 25.04877,25.23418 25.04877,25.32449 0,0.0903 4.28404,4.44554 9.5201,9.67836 l 9.52009,9.51419 0.0702,38.30094 c 0.0386,21.06551 0.0737,60.21275 0.0781,86.99387 l 0.008,48.693 -1.45223,3.0209 c -1.84027,3.8281 -2.93319,5.4077 -5.86688,8.47953 -3.81153,3.991 -7.73287,6.4254 -13.41784,8.33 l -2.76519,0.9264 -100.30513,-0.029 c -87.45143,-0.024 -100.52507,-0.087 -102.02182,-0.4893 z"
       style="fill:#ffffff;fill-opacity:1;stroke:none"
       sodipodi:nodetypes="csscccssscsssscsscssscscc" />
    <rect
       style="fill:#782121;fill-opacity:1;stroke:none"
       id="rect3771"
       width="38.329243"
       height="11.659595"
       x="197.2101"
       y="812.73907" />
    <rect
       style="fill:#782121;fill-opacity:1;stroke:none"
       id="rect3771-7"
       width="38.329243"
       height="11.659595"
       x="241.43616"
       y="812.73907" />
    <rect
       style="fill:#782121;fill-opacity:1;stroke:none"
       id="rect3771-7-5"
       width="38.329243"
       height="11.659595"
       x="285.6622"
       y="812.73907" />
    <rect
       style="fill:#782121;fill-opacity:1;stroke:none"
       id="rect3771-7-5-3"
       width="38.329243"
       height="11.659595"
       x="329.88824"
       y="812.73907" />
    <rect
       style="fill:#782121;fill-opacity:1;stroke:none"
       id="rect3771-5"
       width="38.329243"
       height="11.659595"
       x="197.2101"
       y="828.29663" />
    <rect
       style="fill:#782121;fill-opacity:1;stroke:none"
       id="rect3771-7-6"
       width="38.329243"
       height="11.659595"
       x="241.43616"
       y="828.29663" />
    <rect
       style="fill:#782121;fill-opacity:1;stroke:none"
       id="rect3771-7-5-2"
       width="38.329243"
       height="11.659595"
       x="285.6622"
       y="828.29663" />
    <rect
       style="fill:#782121;fill-opacity:1;stroke:none"
       id="rect3771-7-5-3-9"
       width="38.329243"
       height="11.659595"
       x="329.88824"
       y="828.29663" />
    <rect
       style="fill:#782121;fill-opacity:1;stroke:none"
       id="rect3771-1"
       width="38.329243"
       height="11.659595"
       x="197.2101"
       y="843.74109" />
    <rect
       style="fill:#782121;fill-opacity:1;stroke:none"
       id="rect3771-7-2"
       width="38.329243"
       height="11.659595"
       x="241.43616"
       y="843.74109" />
    <rect
       style="fill:#782121;fill-opacity:1;stroke:none"
       id="rect3771-7-5-7"
       width="38.329243"
       height="11.659595"
       x="285.6622"
       y="843.74109" />
    <rect
       style="fill:#782121;fill-opacity:1;stroke:none"
       id="rect3771-7-5-3-0"
       width="38.329243"
       height="11.659595"
       x="329.88824"
       y="843.74109" />
    <rect
       style="fill:#782121;fill-opacity:1;stroke:none"
       id="rect3771-5-9"
       width="38.329243"
       height="11.659595"
       x="197.2101"
       y="859.29871" />
    <rect
       style="fill:#782121;fill-opacity:1;stroke:none"
       id="rect3771-7-6-3"
       width="38.329243"
       height="11.659595"
       x="241.43616"
       y="859.29871" />
    <rect
       style="fill:#782121;fill-opacity:1;stroke:none"
       id="rect3771-7-5-2-6"
       width="38.329243"
       height="11.659595"
       x="285.6622"
       y="859.29871" />
    <rect
       style="fill:#782121;fill-opacity:1;stroke:none"
       id="rect3771-7-5-3-9-0"
       width="38.329243"
       height="11.659595"
       x="329.88824"
       y="859.29871" />
    <rect
       style="fill:#782121;fill-opacity:1;stroke:none"
       id="rect3771-6"
       width="38.329243"
       height="11.659595"
       x="197.58891"
       y="874.95935" />
    <rect
       style="fill:#782121;fill-opacity:1;stroke:none"
       id="rect3771-7-26"
       width="38.329243"
       height="11.659595"
       x="241.81494"
       y="874.95935" />
    <rect
       style="fill:#782121;fill-opacity:1;stroke:none"
       id="rect3771-7-5-1"
       width="38.329243"
       height="11.659595"
       x="286.04099"
       y="874.95935" />
    <rect
       style="fill:#782121;fill-opacity:1;stroke:none"
       id="rect3771-7-5-3-8"
       width="38.329243"
       height="11.659595"
       x="330.26706"
       y="874.95935" />
    <rect
       style="fill:#782121;fill-opacity:1;stroke:none"
       id="rect3771-5-7"
       width="38.329243"
       height="11.659595"
       x="197.58891"
       y="890.51697" />
    <rect
       style="fill:#782121;fill-opacity:1;stroke:none"
       id="rect3771-7-6-9"
       width="38.329243"
       height="11.659595"
       x="241.81494"
       y="890.51697" />
    <rect
       style="fill:#782121;fill-opacity:1;stroke:none"
       id="rect3771-7-5-2-2"
       width="38.329243"
       height="11.659595"
       x="286.04102"
       y="890.51697" />
    <rect
       style="fill:#782121;fill-opacity:1;stroke:none"
       id="rect3771-7-5-3-9-02"
       width="38.329243"
       height="11.659595"
       x="330.26709"
       y="890.51697" />
    <rect
       style="fill:#782121;fill-opacity:1;stroke:none"
       id="rect3771-1-3"
       width="38.329243"
       height="11.659595"
       x="197.58891"
       y="905.96143" />
    <rect
       style="fill:#782121;fill-opacity:1;stroke:none"
       id="rect3771-7-2-7"
       width="38.329243"
       height="11.659595"
       x="241.81494"
       y="905.96143" />
    <rect
       style="fill:#782121;fill-opacity:1;stroke:none"
       id="rect3771-7-5-7-5"
       width="38.329243"
       height="11.659595"
       x="286.04102"
       y="905.96143" />
    <rect
       style="fill:#782121;fill-opacity:1;stroke:none"
       id="rect3771-7-5-3-0-9"
       width="38.329243"
       height="11.659595"
       x="330.26706"
       y="905.96143" />
    <rect
       style="fill:#782121;fill-opacity:1;stroke:none"
       id="rect3771-5-9-2"
       width="38.329243"
       height="11.659595"
       x="197.58891"
       y="921.51898" />
    <rect
       style="fill:#782121;fill-opacity:1;stroke:none"
       id="rect3771-7-6-3-2"
       width="38.329243"
       height="11.659595"
       x="241.81494"
       y="921.51898" />
    <rect
       style="fill:#782121;fill-opacity:1;stroke:none"
       id="rect3771-7-5-2-6-8"
       width="38.329243"
       height="11.659595"
       x="286.04102"
       y="921.51898" />
    <rect
       style="fill:#782121;fill-opacity:1;stroke:none"
       id="rect3771-7-5-3-9-0-9"
       width="38.329243"
       height="11.659595"
       x="330.26709"
       y="921.51898" />
    <rect
       style="fill:#782121;fill-opacity:1;stroke:none"
       id="rect3771-1-3-7"
       width="38.329243"
       height="11.659595"
       x="197.35454"
       y="937.26056" />
    <rect
       style="fill:#782121;fill-opacity:1;stroke:none"
       id="rect3771-7-2-7-3"
       width="38.329243"
       height="11.659595"
       x="241.5806"
       y="937.26056" />
    <rect
       style="fill:#782121;fill-opacity:1;stroke:none"
       id="rect3771-7-5-7-5-6"
       width="38.329243"
       height="11.659595"
       x="285.80664"
       y="937.26056" />
    <rect
       style="fill:#782121;fill-opacity:1;stroke:none"
       id="rect3771-7-5-3-0-9-1"
       width="38.329243"
       height="11.659595"
       x="330.03268"
       y="937.26056" />
    <rect
       style="fill:#782121;fill-opacity:1;stroke:none"
       id="rect3771-5-9-2-2"
       width="38.329243"
       height="11.659595"
       x="197.35454"
       y="952.81812" />
    <rect
       style="fill:#782121;fill-opacity:1;stroke:none"
       id="rect3771-7-6-3-2-9"
       width="38.329243"
       height="11.659595"
       x="241.5806"
       y="952.81812" />
    <rect
       style="fill:#782121;fill-opacity:1;stroke:none"
       id="rect3771-7-5-2-6-8-3"
       width="38.329243"
       height="11.659595"
       x="285.80664"
       y="952.81812" />
    <rect
       style="fill:#782121;fill-opacity:1;stroke:none"
       id="rect3771-7-5-3-9-0-9-1"
       width="38.329243"
       height="11.659595"
       x="330.03271"
       y="952.81812" />
    <path
       style="fill:#ffffff;stroke:none"
       d="m 229.22805,924.95522 c 0,0 12.44593,14.39105 56.61277,14.56542 44.16684,0.17436 54.1394,-16.21434 54.1394,-16.21434 l -0.27483,-63.75807 c 0,0 -4.90159,-16.92239 -55.51349,-16.76397 -50.61189,0.15841 -54.96385,17.58842 -54.96385,17.58842 z"
       id="path4031"
       inkscape:connector-curvature="0"
       sodipodi:nodetypes="czcczcc" />
    <path
       inkscape:connector-curvature="0"
       id="path3026"
       d="m 270.01264,936.43396 c -6.28479,-0.6732 -13.30642,-1.89708 -17.67871,-3.08138 -9.14699,-2.47759 -16.64668,-6.50909 -19.10935,-10.27234 -1.22331,-1.86939 -1.27029,-2.18736 -1.27029,-8.59888 0,-3.72313 0.19588,-6.6577 0.44442,-6.6577 0.24442,0 1.01456,0.74086 1.71143,1.64635 6.43615,8.36309 29.33496,13.92048 54.31783,13.18257 23.11818,-0.68283 41.44847,-5.98058 46.45624,-13.42659 0.65704,-0.97695 1.40187,-1.77628 1.65517,-1.77628 0.83473,0 1.11914,2.58345 0.89778,8.15501 -0.19801,4.98388 -0.33546,5.66795 -1.47977,7.36473 -3.99373,5.92195 -15.49202,10.50084 -32.51927,12.94994 -7.12476,1.0248 -25.95603,1.31469 -33.42548,0.51457 z m 2.70092,-18.18442 c -15.1682,-1.16038 -29.22141,-5.10124 -35.84537,-10.05193 -4.37044,-3.26642 -4.64234,-3.92537 -4.82213,-11.68598 -0.1034,-4.46314 0.0152,-6.63764 0.36214,-6.63764 0.28376,0 1.06587,0.66339 1.73802,1.4742 4.26626,5.14633 15.38816,9.45387 29.92456,11.58982 28.98262,4.25869 62.89605,-1.41296 70.59931,-11.80694 0.81728,-1.10274 1.6723,-2.00498 1.90006,-2.00498 0.74775,0 1.0942,3.34955 0.86914,8.40292 -0.1985,4.45701 -0.35887,5.18272 -1.55748,7.04829 -6.18101,9.62036 -34.89468,15.8352 -63.16825,13.67224 z m 1.47322,-18.3216 c -19.45948,-1.3091 -36.01928,-6.83301 -40.65187,-13.56042 -1.23894,-1.79918 -1.32981,-2.27289 -1.49251,-7.78085 -0.21174,-7.16847 0.10378,-7.85259 2.37728,-5.15464 4.13498,4.9069 13.85965,8.67815 27.94167,10.83582 30.89843,4.73429 65.46281,-1.07261 72.91579,-12.25004 0.44571,-0.66843 0.99131,-1.21534 1.21245,-1.21534 0.62481,0 1.07587,10.08962 0.55915,12.50726 -2.34826,10.98703 -31.60379,18.72104 -62.86196,16.61821 z m 2.40307,-18.31906 c -20.24549,-0.98021 -38.7101,-6.98375 -42.98628,-13.97647 -5.85925,-9.58147 11.83334,-18.93672 40.03373,-21.16848 7.9374,-0.62817 23.32326,-0.25303 30.29189,0.73858 8.18414,1.16458 13.62213,2.46892 19.72282,4.73071 8.9391,3.31409 13.39244,7.26938 13.39244,11.89468 0,11.02915 -28.25619,19.3399 -60.4546,17.78098 z"
       style="fill:#aa0000;fill-opacity:1" />
  </g>
</svg>
