<?xml version="1.0" encoding="UTF-8" standalone="no"?>
<!-- Created with Inkscape (http://www.inkscape.org/) -->

<svg
   xmlns:dc="http://purl.org/dc/elements/1.1/"
   xmlns:cc="http://creativecommons.org/ns#"
   xmlns:rdf="http://www.w3.org/1999/02/22-rdf-syntax-ns#"
   xmlns:svg="http://www.w3.org/2000/svg"
   xmlns="http://www.w3.org/2000/svg"
   xmlns:sodipodi="http://sodipodi.sourceforge.net/DTD/sodipodi-0.dtd"
   xmlns:inkscape="http://www.inkscape.org/namespaces/inkscape"
   width="500"
   height="500"
   id="svg2"
   version="1.1"
   inkscape:version="0.91 r13725"
   sodipodi:docname="application-x-shockwave-flash.svg">
  <defs
     id="defs4" />
  <sodipodi:namedview
     id="base"
     pagecolor="#ffffff"
     bordercolor="#666666"
     borderopacity="1.0"
     inkscape:pageopacity="0.0"
     inkscape:pageshadow="2"
     inkscape:zoom="0.60666663"
     inkscape:cx="362.09311"
     inkscape:cy="227.27207"
     inkscape:document-units="px"
     inkscape:current-layer="layer1"
     showgrid="false"
     inkscape:window-width="1366"
     inkscape:window-height="711"
     inkscape:window-x="0"
     inkscape:window-y="0"
     inkscape:window-maximized="1" />
  <metadata
     id="metadata7">
    <rdf:RDF>
      <cc:Work
         rdf:about="">
        <dc:format>image/svg+xml</dc:format>
        <dc:type
           rdf:resource="http://purl.org/dc/dcmitype/StillImage" />
        <dc:title />
      </cc:Work>
    </rdf:RDF>
  </metadata>
  <g
     inkscape:label="Layer 1"
     inkscape:groupmode="layer"
     id="layer1"
     transform="translate(0,-552.36218)">
    <path
       style="fill:#d82600;fill-opacity:1;fill-rule:evenodd;stroke:none;stroke-width:1px;stroke-linecap:butt;stroke-linejoin:miter;stroke-opacity:1"
       d="M 64.03896,701.21204 117.261,753.3106 115.60095,680.26875 64,680.02365 Z"
       id="path4230"
       inkscape:connector-curvature="0"
       sodipodi:nodetypes="ccccc" />
    <path
       style="fill:#f2f2f2;fill-rule:evenodd;stroke:#afafaf;stroke-width:5.03546047;stroke-linecap:butt;stroke-linejoin:miter;stroke-miterlimit:4;stroke-dasharray:none;stroke-opacity:1"
       d="m 98.04097,1024.8357 336.88829,-1.1739 1.1738,-363.88666 -88.037,-89.21086 -250.02509,0 z"
       id="path3364"
       inkscape:connector-curvature="0" />
    <path
       style="fill:#afafaf;fill-opacity:1;fill-rule:evenodd;stroke:#afafaf;stroke-width:5.03546047;stroke-linecap:butt;stroke-linejoin:miter;stroke-miterlimit:4;stroke-dasharray:none;stroke-opacity:1"
       d="m 432.51906,657.93098 -82.1644,-0.58691 0.7586,-83.80351 z"
       id="path4166"
       inkscape:connector-curvature="0"
       sodipodi:nodetypes="cccc" />
    <rect
       style="fill:#f03916;fill-opacity:1;stroke:none;stroke-width:5;stroke-miterlimit:4;stroke-dasharray:none;stroke-opacity:1"
       id="rect4228"
       width="224.93568"
       height="84.350876"
       x="64.139725"
       y="617.18719" />
    <rect
       style="fill:#f03916;fill-opacity:1;stroke:none"
       id="rect4078-4"
       width="250"
       height="250"
       x="140.94118"
       y="771.95795"
       ry="125" />
    <path
       style="fill:#ffffff;fill-opacity:1;stroke:none"
       id="path3727-6"
       inkscape:connector-curvature="0"
       d="m 310.94092,840.74366 0,22.63438 c -22.59562,0.39375 -28.1488,22.43188 -28.1488,22.43188 l 17.04247,0 0,22.63183 -26.42538,0 c -15.89352,49.03375 -52.46779,44.66758 -52.46779,44.66758 l 0,-22.63383 c 0,0 23.20863,4.30817 35.04235,-38.90933 14.80292,-54.05688 54.95715,-50.82251 54.95715,-50.82251 z" />
    <g
       transform="translate(3.1836509,-7.5158792)"
       id="g3342">
      <path
         sodipodi:nodetypes="ccc"
         inkscape:connector-curvature="0"
         id="path4218-5"
         d="m 233.38353,692.5151 0.41209,-51.71704 34.44898,0.1457"
         style="fill:none;fill-rule:evenodd;stroke:#ffffff;stroke-width:9;stroke-linecap:butt;stroke-linejoin:miter;stroke-miterlimit:4;stroke-dasharray:none;stroke-opacity:1" />
      <path
         inkscape:connector-curvature="0"
         id="path4220-0"
         d="m 236.12687,664.57931 29.13901,0.14569"
         style="fill:none;fill-rule:evenodd;stroke:#ffffff;stroke-width:9;stroke-linecap:butt;stroke-linejoin:miter;stroke-miterlimit:4;stroke-dasharray:none;stroke-opacity:1" />
    </g>
    <path
       style="fill:none;fill-rule:evenodd;stroke:#ffffff;stroke-width:10;stroke-linecap:butt;stroke-linejoin:miter;stroke-miterlimit:4;stroke-dasharray:none;stroke-opacity:1"
       d="m 147.91862,634.77046 c 0,0 -9.26192,-4.269 -18.06619,-4.37085 -8.80427,-0.10185 -14.26788,5.23284 -14.56949,12.82117 -0.30162,7.58832 3.929,13.66202 19.08604,15.44367 15.15704,1.78165 14.25231,15.00213 12.38407,19.66884 -1.86824,4.66671 -10.69001,9.07335 -19.66883,7.86753 -8.97881,-1.20582 -16.46353,-5.24502 -16.46353,-5.24502"
       id="path3353"
       inkscape:connector-curvature="0"
       sodipodi:nodetypes="czzzzzc" />
    <path
       style="fill:none;fill-rule:evenodd;stroke:#ffffff;stroke-width:9;stroke-linecap:butt;stroke-linejoin:miter;stroke-miterlimit:4;stroke-dasharray:none;stroke-opacity:1"
       d="m 160.6504,628.1671 8.12106,56.21116 5.02648,0.21854 15.88077,-41.30456 3.35098,0 15.95362,41.30456 5.24502,0.0729 7.41758,-56.23616"
       id="path4260-2"
       inkscape:connector-curvature="0"
       sodipodi:nodetypes="cccccccc" />
  </g>
</svg>
