<?xml version="1.0" encoding="UTF-8" standalone="no"?>
<!-- Created with Inkscape (http://www.inkscape.org/) -->

<svg
   xmlns:dc="http://purl.org/dc/elements/1.1/"
   xmlns:cc="http://creativecommons.org/ns#"
   xmlns:rdf="http://www.w3.org/1999/02/22-rdf-syntax-ns#"
   xmlns:svg="http://www.w3.org/2000/svg"
   xmlns="http://www.w3.org/2000/svg"
   xmlns:sodipodi="http://sodipodi.sourceforge.net/DTD/sodipodi-0.dtd"
   xmlns:inkscape="http://www.inkscape.org/namespaces/inkscape"
   width="500"
   height="500"
   id="svg2"
   version="1.1"
   inkscape:version="0.91 r13725"
   sodipodi:docname="application-x-addon.svg">
  <defs
     id="defs4" />
  <sodipodi:namedview
     id="base"
     pagecolor="#ffffff"
     bordercolor="#666666"
     borderopacity="1.0"
     inkscape:pageopacity="0.0"
     inkscape:pageshadow="2"
     inkscape:zoom="0.30333332"
     inkscape:cx="-246.22439"
     inkscape:cy="375.28623"
     inkscape:document-units="px"
     inkscape:current-layer="layer1"
     showgrid="false"
     inkscape:window-width="1366"
     inkscape:window-height="711"
     inkscape:window-x="0"
     inkscape:window-y="0"
     inkscape:window-maximized="1" />
  <metadata
     id="metadata7">
    <rdf:RDF>
      <cc:Work
         rdf:about="">
        <dc:format>image/svg+xml</dc:format>
        <dc:type
           rdf:resource="http://purl.org/dc/dcmitype/StillImage" />
        <dc:title />
      </cc:Work>
    </rdf:RDF>
  </metadata>
  <g
     inkscape:label="Layer 1"
     inkscape:groupmode="layer"
     id="layer1"
     transform="translate(0,-552.36218)">
    <g
       id="g4216">
      <path
         sodipodi:nodetypes="ccccc"
         inkscape:connector-curvature="0"
         id="path4230"
         d="M 63.03896,706.21226 116.261,758.31082 114.60095,685.26897 63,685.02387 Z"
         style="fill:#22681f;fill-opacity:1;fill-rule:evenodd;stroke:none;stroke-width:1px;stroke-linecap:butt;stroke-linejoin:miter;stroke-opacity:1" />
      <path
         inkscape:connector-curvature="0"
         id="path3364"
         d="m 97.04097,1029.8357 336.88839,-1.1739 1.17377,-363.88644 -88.03697,-89.21086 -250.02519,0 z"
         style="fill:#f2f2f2;fill-rule:evenodd;stroke:#afafaf;stroke-width:5.03546047;stroke-linecap:butt;stroke-linejoin:miter;stroke-miterlimit:4;stroke-dasharray:none;stroke-opacity:1" />
      <path
         sodipodi:nodetypes="cccc"
         inkscape:connector-curvature="0"
         id="path4166"
         d="m 431.51909,662.9312 -82.16431,-0.58691 0.75853,-83.80351 z"
         style="fill:#afafaf;fill-opacity:1;fill-rule:evenodd;stroke:#afafaf;stroke-width:5.03546047;stroke-linecap:butt;stroke-linejoin:miter;stroke-miterlimit:4;stroke-dasharray:none;stroke-opacity:1" />
      <rect
         y="622.18756"
         x="63.139694"
         height="84.350876"
         width="273.88922"
         id="rect4228"
         style="fill:#45d03f;fill-opacity:1;stroke:none;stroke-width:5;stroke-miterlimit:4;stroke-dasharray:none;stroke-opacity:1" />
      <path
         sodipodi:nodetypes="cczzzccczccczzzccczccczzzccccccczzzcccccc"
         inkscape:connector-curvature="0"
         id="path3057"
         d="m 136.3658,914.3077 19.24968,0 c 0,0 8.66617,-15.66834 27.99947,-15.16637 19.33329,0.50198 26.86589,15.99137 26.83283,29.16617 -0.033,13.1748 -10.53547,27.7519 -27.99946,28.2911 -17.464,0.5393 -25.66621,-15.1664 -25.66621,-15.1664 l -20.41631,0 -0.29168,73.4986 c 0,0 0.49846,5.7533 2.04167,7.8749 1.54319,2.1216 6.41651,4.0832 6.41651,4.0832 l 77.29027,0 0,-18.6663 c 0,0 -14.53791,-8.34868 -14.87468,-25.3744 -0.33685,-17.0258 14.93498,-28.1645 27.99946,-28.5829 13.06447,-0.4183 28.19757,10.2532 29.16617,27.9996 0.96859,17.7463 -15.45804,26.541 -15.45804,26.541 l 0,18.6664 79.04026,-0.875 c 0,0 4.16677,-2.149 5.54156,-4.3749 1.37477,-2.226 1.74998,-8.4582 1.74998,-8.4582 l 0,-72.332 13.41638,-0.2916 c 0,0 7.28795,15.8185 25.37452,15.1664 18.08664,-0.6521 27.32749,-14.0081 27.99954,-27.4162 0.67204,-13.4081 -10.61212,-29.96142 -27.99954,-29.74946 -17.38742,0.21196 -25.37452,15.45806 -25.37452,15.45806 l -13.70806,-0.2917 0,-76.70693 -3.49997,-6.41655 -5.83323,-2.91661 -76.41525,0.87498 0.29161,-13.70809 c 0,0 14.05659,-7.25139 14.87476,-24.49956 0.81817,-17.24816 -15.20659,-29.83445 -28.58282,-29.74946 -13.3763,0.085 -28.39009,10.1008 -28.58281,27.70783 -0.1928,17.60704 15.16636,26.83285 15.16636,26.83285 l 0,13.12477 -75.54029,0 -7.29154,2.91661 -3.49997,7.87486 z"
         style="fill:#45d03f;fill-opacity:1;stroke:none" />
      <g
         transform="matrix(0.92750395,0,0,0.92750395,-774.5099,45.369949)"
         id="g4265">
        <path
           style="fill:none;fill-rule:evenodd;stroke:#ffffff;stroke-width:9;stroke-linecap:butt;stroke-linejoin:bevel;stroke-miterlimit:4;stroke-dasharray:none;stroke-opacity:1"
           d="m 915.69362,696.28339 22.14565,-58.27803 22.72843,58.27803"
           id="path4255"
           inkscape:connector-curvature="0" />
        <path
           style="fill:none;fill-rule:evenodd;stroke:#ffffff;stroke-width:9;stroke-linecap:butt;stroke-linejoin:miter;stroke-miterlimit:4;stroke-dasharray:none;stroke-opacity:1"
           d="m 924.58101,676.76025 25.78803,0"
           id="path4257"
           inkscape:connector-curvature="0" />
      </g>
      <path
         sodipodi:nodetypes="cczc"
         inkscape:connector-curvature="0"
         id="path4271"
         d="m 129.5511,686.91834 0.44023,-47.98566 c 0,0 36.72967,-5.35202 37.19989,24.43307 0.47021,29.78508 -37.64012,23.55259 -37.64012,23.55259 z"
         style="fill:none;fill-rule:evenodd;stroke:#ffffff;stroke-width:8.28875065;stroke-linecap:butt;stroke-linejoin:miter;stroke-miterlimit:4;stroke-dasharray:none;stroke-opacity:1" />
      <path
         sodipodi:nodetypes="cczc"
         inkscape:connector-curvature="0"
         id="path4271-3"
         d="m 180.7865,687.67738 0.44023,-47.98566 c 0,0 36.72968,-5.35202 37.19989,24.43307 0.47021,29.78508 -37.64012,23.55259 -37.64012,23.55259 z"
         style="fill:none;fill-rule:evenodd;stroke:#ffffff;stroke-width:8.28875065;stroke-linecap:butt;stroke-linejoin:miter;stroke-miterlimit:4;stroke-dasharray:none;stroke-opacity:1" />
      <path
         sodipodi:nodetypes="zzzzz"
         inkscape:connector-curvature="0"
         id="path4273"
         d="m 252.23478,689.7351 c -11.07476,-0.0933 -21.50679,-11.22517 -21.57154,-25.31353 -0.0648,-14.08838 11.04636,-25.40771 22.23188,-25.09341 11.18552,0.31429 20.94138,10.97742 21.1313,25.97388 0.18992,14.99645 -10.71689,24.52641 -21.79164,24.43306 z"
         style="fill:none;fill-rule:evenodd;stroke:#ffffff;stroke-width:8.28875065;stroke-linecap:butt;stroke-linejoin:miter;stroke-miterlimit:4;stroke-dasharray:none;stroke-opacity:1" />
      <path
         sodipodi:nodetypes="cccc"
         inkscape:connector-curvature="0"
         id="path4195"
         d="m 286.31305,693.37215 -0.18976,-56.16919 38.71118,55.41015 0,-56.1692"
         style="fill:none;fill-rule:evenodd;stroke:#ffffff;stroke-width:8.28875065;stroke-linecap:butt;stroke-linejoin:bevel;stroke-miterlimit:4;stroke-dasharray:none;stroke-opacity:1" />
    </g>
  </g>
</svg>
