<?xml version="1.0" encoding="UTF-8" standalone="no"?>
<!-- Created with Inkscape (http://www.inkscape.org/) -->

<svg
   xmlns:dc="http://purl.org/dc/elements/1.1/"
   xmlns:cc="http://creativecommons.org/ns#"
   xmlns:rdf="http://www.w3.org/1999/02/22-rdf-syntax-ns#"
   xmlns:svg="http://www.w3.org/2000/svg"
   xmlns="http://www.w3.org/2000/svg"
   xmlns:sodipodi="http://sodipodi.sourceforge.net/DTD/sodipodi-0.dtd"
   xmlns:inkscape="http://www.inkscape.org/namespaces/inkscape"
   width="500"
   height="500"
   id="svg2"
   version="1.1"
   inkscape:version="0.91 r13725"
   sodipodi:docname="application-pgp-signature.svg">
  <defs
     id="defs4" />
  <sodipodi:namedview
     id="base"
     pagecolor="#ffffff"
     bordercolor="#666666"
     borderopacity="1.0"
     inkscape:pageopacity="0.0"
     inkscape:pageshadow="2"
     inkscape:zoom="1.2133333"
     inkscape:cx="374.40251"
     inkscape:cy="274.1863"
     inkscape:document-units="px"
     inkscape:current-layer="layer1"
     showgrid="false"
     inkscape:window-width="1366"
     inkscape:window-height="711"
     inkscape:window-x="0"
     inkscape:window-y="0"
     inkscape:window-maximized="1" />
  <metadata
     id="metadata7">
    <rdf:RDF>
      <cc:Work
         rdf:about="">
        <dc:format>image/svg+xml</dc:format>
        <dc:type
           rdf:resource="http://purl.org/dc/dcmitype/StillImage" />
        <dc:title />
      </cc:Work>
    </rdf:RDF>
  </metadata>
  <g
     inkscape:label="Layer 1"
     inkscape:groupmode="layer"
     id="layer1"
     transform="translate(0,-552.36218)">
    <path
       style="fill:#502d16;fill-opacity:1;fill-rule:evenodd;stroke:none;stroke-width:1px;stroke-linecap:butt;stroke-linejoin:miter;stroke-opacity:1"
       d="m 63.19075,706.79487 53.22204,52.09856 -1.66005,-73.04185 -51.60095,-0.2451 z"
       id="path4230"
       inkscape:connector-curvature="0"
       sodipodi:nodetypes="ccccc" />
    <path
       style="fill:#f2f2f2;fill-rule:evenodd;stroke:#afafaf;stroke-width:5.03546047;stroke-linecap:butt;stroke-linejoin:miter;stroke-miterlimit:4;stroke-dasharray:none;stroke-opacity:1"
       d="m 96.90137,1029.8357 336.88838,-1.1739 1.1737,-363.88661 -88.0369,-89.21086 -250.02518,0 z"
       id="path3364"
       inkscape:connector-curvature="0" />
    <path
       style="fill:#afafaf;fill-opacity:1;fill-rule:evenodd;stroke:#afafaf;stroke-width:5.03546047;stroke-linecap:butt;stroke-linejoin:miter;stroke-miterlimit:4;stroke-dasharray:none;stroke-opacity:1"
       d="m 431.37945,662.93103 -82.1642,-0.58691 0.7585,-83.80351 z"
       id="path4166"
       inkscape:connector-curvature="0"
       sodipodi:nodetypes="cccc" />
    <rect
       style="fill:#784421;fill-opacity:1;stroke:none;stroke-width:5;stroke-miterlimit:4;stroke-dasharray:none;stroke-opacity:1"
       id="rect4228"
       width="224.93568"
       height="84.350876"
       x="63"
       y="622.18726" />
    <path
       style="fill:#666666;stroke:none"
       d="m 184.52509,905.30611 c 0,0 -1.0282,-76.71526 0,-84.52906 1.02819,-7.81375 10.33379,-71.01324 80.54598,-70.36707 70.21211,0.64616 78.25791,59.96467 79.66083,67.71172 1.40292,7.74705 1.32764,86.29928 1.32764,86.29928 l -33.63458,0.88513 -0.44255,-75.23528 c 0,0 -4.9192,-43.87585 -48.68161,-42.92835 -43.76244,0.9475 -44.69857,43.37092 -44.69857,43.37092 l -0.44256,74.35014 z"
       id="path3767"
       inkscape:connector-curvature="0"
       sodipodi:nodetypes="czzzccczccc" />
    <path
       style="fill:#784421;stroke:none"
       d="m 158.97751,1025.0921 213.42331,0.313 -0.31297,-130.49492 -213.11034,0 z"
       id="path2997"
       inkscape:connector-curvature="0"
       sodipodi:nodetypes="ccccc" />
    <path
       sodipodi:type="arc"
       style="fill:#e6e6e6;fill-opacity:1;stroke:none"
       id="path3769"
       sodipodi:cx="265.51361"
       sodipodi:cy="964.16656"
       sodipodi:rx="43.370911"
       sodipodi:ry="42.928352"
       d="m 308.88452,964.16656 a 43.370911,42.928352 0 0 1 -43.32,42.92834 43.370911,42.928352 0 0 1 -43.4217,-42.82756 43.370911,42.928352 0 0 1 43.21807,-43.02886 43.370911,42.928352 0 0 1 43.52315,42.72654"
       sodipodi:start="0"
       sodipodi:end="6.2784904"
       sodipodi:open="true" />
    <path
       sodipodi:type="arc"
       style="fill:#394050;fill-opacity:1;stroke:none"
       id="path3771"
       sodipodi:cx="265.88165"
       sodipodi:cy="953.1358"
       sodipodi:rx="8.2094946"
       sodipodi:ry="7.9328942"
       d="m 274.09115,953.1358 a 8.2094946,7.9328942 0 0 1 -8.19986,7.93289 8.2094946,7.9328942 0 0 1 -8.21911,-7.91426 8.2094946,7.9328942 0 0 1 8.18057,-7.95147 8.2094946,7.9328942 0 0 1 8.23831,7.8956"
       sodipodi:start="0"
       sodipodi:end="6.2784904"
       sodipodi:open="true" />
    <path
       style="fill:#394050;stroke:#394050;stroke-width:6.19584465;stroke-linecap:round;stroke-linejoin:miter;stroke-miterlimit:4;stroke-dasharray:none;stroke-opacity:1"
       d="m 266.21358,955.07205 0.22125,32.30689"
       id="path3773"
       inkscape:connector-curvature="0" />
    <g
       id="g4265"
       transform="matrix(1.0070921,0,0,1.0070921,-815.38128,-6.8762915)">
      <path
         inkscape:connector-curvature="0"
         id="path4255"
         d="m 915.69362,696.28339 22.14565,-58.27803 22.72843,58.27803"
         style="fill:none;fill-rule:evenodd;stroke:#ffffff;stroke-width:9;stroke-linecap:butt;stroke-linejoin:bevel;stroke-miterlimit:4;stroke-dasharray:none;stroke-opacity:1" />
      <path
         inkscape:connector-curvature="0"
         id="path4257"
         d="m 924.58101,676.76025 25.78803,0"
         style="fill:none;fill-rule:evenodd;stroke:#ffffff;stroke-width:9;stroke-linecap:butt;stroke-linejoin:miter;stroke-miterlimit:4;stroke-dasharray:none;stroke-opacity:1" />
    </g>
    <path
       style="fill:none;fill-rule:evenodd;stroke:#ffffff;stroke-width:9;stroke-linecap:butt;stroke-linejoin:miter;stroke-miterlimit:4;stroke-dasharray:none;stroke-opacity:1"
       d="m 207.27443,643.74891 c 0,0 -7.61602,-6.81634 -21.51052,-5.73613 -13.8945,1.08021 -21.77754,16.92381 -21.03251,28.91969 0.74503,11.99588 11.26493,26.26777 24.8566,25.09561 13.59167,-1.17217 17.68643,-5.97515 17.68643,-5.97515"
       id="path4275"
       inkscape:connector-curvature="0"
       sodipodi:nodetypes="czzzc" />
    <path
       style="fill:none;fill-rule:evenodd;stroke:#ffffff;stroke-width:10;stroke-linecap:butt;stroke-linejoin:miter;stroke-miterlimit:4;stroke-dasharray:none;stroke-opacity:1"
       d="m 258.85934,641.36732 c 0,0 -9.26192,-4.269 -18.06619,-4.37085 -8.80427,-0.10185 -14.26789,5.23284 -14.5695,12.82117 -0.30162,7.58832 3.92901,13.66202 19.08605,15.44367 15.15704,1.78165 14.25231,15.00213 12.38407,19.66884 -1.86824,4.66671 -10.69001,9.07335 -19.66883,7.86753 -8.97882,-1.20582 -16.46354,-5.24502 -16.46354,-5.24502"
       id="path3353"
       inkscape:connector-curvature="0"
       sodipodi:nodetypes="czzzzzc" />
  </g>
</svg>
