<?xml version="1.0" encoding="UTF-8" standalone="no"?>
<!-- Created with Inkscape (http://www.inkscape.org/) -->

<svg
   xmlns:dc="http://purl.org/dc/elements/1.1/"
   xmlns:cc="http://creativecommons.org/ns#"
   xmlns:rdf="http://www.w3.org/1999/02/22-rdf-syntax-ns#"
   xmlns:svg="http://www.w3.org/2000/svg"
   xmlns="http://www.w3.org/2000/svg"
   xmlns:sodipodi="http://sodipodi.sourceforge.net/DTD/sodipodi-0.dtd"
   xmlns:inkscape="http://www.inkscape.org/namespaces/inkscape"
   width="500"
   height="500"
   id="svg2"
   version="1.1"
   inkscape:version="0.91 r13725"
   sodipodi:docname="application-vnd.sun.xml.impress.template.svg">
  <defs
     id="defs4" />
  <sodipodi:namedview
     id="base"
     pagecolor="#ffffff"
     bordercolor="#666666"
     borderopacity="1.0"
     inkscape:pageopacity="0.0"
     inkscape:pageshadow="2"
     inkscape:zoom="0.60666665"
     inkscape:cx="-142.95865"
     inkscape:cy="316.99586"
     inkscape:document-units="px"
     inkscape:current-layer="layer1"
     showgrid="false"
     inkscape:window-width="1366"
     inkscape:window-height="711"
     inkscape:window-x="0"
     inkscape:window-y="0"
     inkscape:window-maximized="1" />
  <metadata
     id="metadata7">
    <rdf:RDF>
      <cc:Work
         rdf:about="">
        <dc:format>image/svg+xml</dc:format>
        <dc:type
           rdf:resource="http://purl.org/dc/dcmitype/StillImage" />
        <dc:title />
      </cc:Work>
    </rdf:RDF>
  </metadata>
  <g
     inkscape:label="Layer 1"
     inkscape:groupmode="layer"
     id="layer1"
     transform="translate(0,-552.36218)">
    <path
       style="fill:#aa4400;fill-opacity:1;fill-rule:evenodd;stroke:none;stroke-width:1px;stroke-linecap:butt;stroke-linejoin:miter;stroke-opacity:1"
       d="M 63.03896,706.21226 116.261,758.31082 114.60095,685.26897 63,685.02387 Z"
       id="path4230"
       inkscape:connector-curvature="0"
       sodipodi:nodetypes="ccccc" />
    <path
       style="fill:#f2f2f2;fill-rule:evenodd;stroke:#afafaf;stroke-width:5.03546047;stroke-linecap:butt;stroke-linejoin:miter;stroke-miterlimit:4;stroke-dasharray:none;stroke-opacity:1"
       d="m 97.040966,1029.8357 336.888394,-1.1739 1.17377,-363.88644 -88.03697,-89.21086 -250.025194,0 z"
       id="path3364"
       inkscape:connector-curvature="0" />
    <path
       style="fill:#afafaf;fill-opacity:1;fill-rule:evenodd;stroke:#afafaf;stroke-width:5.03546047;stroke-linecap:butt;stroke-linejoin:miter;stroke-miterlimit:4;stroke-dasharray:none;stroke-opacity:1"
       d="m 431.51909,662.9312 -82.16431,-0.58691 0.75853,-83.80351 z"
       id="path4166"
       inkscape:connector-curvature="0"
       sodipodi:nodetypes="cccc" />
    <rect
       style="fill:#ff6600;fill-opacity:1;stroke:none;stroke-width:5;stroke-miterlimit:4;stroke-dasharray:none;stroke-opacity:1"
       id="rect4228"
       width="224.93568"
       height="84.350876"
       x="63.139702"
       y="622.1875" />
    <rect
       style="fill:#ff6600;fill-opacity:1;stroke:none"
       id="rect2990-3"
       width="213.76758"
       height="12.292208"
       x="153.20613"
       y="797.74304" />
    <rect
       style="fill:#ff6600;fill-opacity:1;stroke:none"
       id="rect2990-3-6"
       width="147.57034"
       height="12.292208"
       x="184.64983"
       y="823.46967" />
    <rect
       style="fill:#ff6600;fill-opacity:1;stroke:none"
       id="rect2990-3-6-7"
       width="72.270981"
       height="12.292208"
       x="161.89452"
       y="876.27704" />
    <rect
       style="fill:#ff6600;fill-opacity:1;stroke:none"
       id="rect2990-3-6-7-5"
       width="12.693478"
       height="12.292208"
       x="139.13924"
       y="876.27704" />
    <rect
       style="fill:#ff6600;fill-opacity:1;stroke:none"
       id="rect2990-3-6-7-3"
       width="72.270981"
       height="12.292208"
       x="161.27393"
       y="897.03894" />
    <rect
       style="fill:#ff6600;fill-opacity:1;stroke:none"
       id="rect2990-3-6-7-5-5"
       width="12.693478"
       height="12.292208"
       x="138.51865"
       y="897.03894" />
    <rect
       style="fill:#ff6600;fill-opacity:1;stroke:none"
       id="rect2990-3-6-7-6"
       width="72.270981"
       height="12.292208"
       x="161.27393"
       y="918.25214" />
    <rect
       style="fill:#ff6600;fill-opacity:1;stroke:none"
       id="rect2990-3-6-7-5-2"
       width="12.693478"
       height="12.292208"
       x="138.51865"
       y="918.25214" />
    <rect
       style="fill:#ff6600;fill-opacity:1;stroke:none"
       id="rect2990-3-6-7-9"
       width="72.270981"
       height="12.292208"
       x="161.27393"
       y="940.8194" />
    <rect
       style="fill:#ff6600;fill-opacity:1;stroke:none"
       id="rect2990-3-6-7-5-1"
       width="12.693478"
       height="12.292208"
       x="138.51865"
       y="940.8194" />
    <rect
       style="fill:#ffffff;fill-opacity:1;stroke:none"
       id="rect2990-2"
       width="113.70193"
       height="94.468086"
       x="266.49924"
       y="865.57117" />
    <path
       style="fill:#ffcc00"
       d="m 327.47287,955.9676 -8.99142,0 c -1.24138,0 -2.24798,-1.098 -2.24798,-2.4523 l 0,-39.2357 c 0,-1.3541 1.0066,-2.45233 2.24798,-2.45233 l 8.99142,0 c 1.24137,0 2.24797,1.09823 2.24797,2.45233 l 0,39.2357 c 0,1.3543 -1.0066,2.4523 -2.24797,2.4523 z"
       id="path17"
       inkscape:connector-curvature="0" />
    <path
       style="fill:#f03916;fill-opacity:1"
       d="m 307.24205,955.9676 -8.99141,0 c -1.24138,0 -2.24799,-1.098 -2.24799,-2.4523 l 0,-26.97453 c 0,-1.35427 1.00661,-2.45233 2.24799,-2.45233 l 8.99141,0 c 1.24138,0 2.24799,1.09806 2.24799,2.45233 l 0,26.97453 c 0,1.3543 -1.00661,2.4523 -2.24799,2.4523 z"
       id="path21"
       inkscape:connector-curvature="0" />
    <path
       style="fill:#004455"
       d="m 287.01124,955.9676 -8.99141,0 c -1.24138,0 -2.24798,-1.098 -2.24798,-2.4523 l 0,-14.71353 c 0,-1.35427 1.0066,-2.45233 2.24798,-2.45233 l 8.99141,0 c 1.2414,0 2.24798,1.09806 2.24798,2.45233 l 0,14.71353 c -2.4e-4,1.3543 -1.00658,2.4523 -2.24798,2.4523 z"
       id="path25"
       inkscape:connector-curvature="0" />
    <path
       style="fill:#45d03f;fill-opacity:1"
       d="m 347.70368,955.9676 -8.9914,0 c -1.24139,0 -2.24799,-1.098 -2.24799,-2.4523 l 0,-26.97453 c 0,-1.35427 1.0066,-2.45233 2.24799,-2.45233 l 8.9914,0 c 1.24137,0 2.24797,1.09806 2.24797,2.45233 l 0,26.97453 c 0,1.3543 -1.0066,2.4523 -2.24797,2.4523 z"
       id="path29"
       inkscape:connector-curvature="0" />
    <path
       style="fill:#00bbf2;fill-opacity:1"
       d="m 367.93475,955.9676 -8.99144,0 c -1.24136,0 -2.24797,-1.098 -2.24797,-2.4523 l 0,-53.9492 c 0,-1.3541 1.00661,-2.45233 2.24797,-2.45233 l 8.99144,0 c 1.24137,0 2.24797,1.09823 2.24797,2.45233 l 0,53.9492 c -2.3e-4,1.3543 -1.0066,2.4523 -2.24797,2.4523 z"
       id="path33"
       inkscape:connector-curvature="0" />
    <path
       style="fill:#394050"
       d="m 374.67818,958.4193 -103.40203,0 c -1.24138,0 -2.24799,-1.098 -2.24799,-2.4523 l 0,0 c 0,-1.3543 1.00661,-2.4523 2.24799,-2.4523 l 103.40228,0 c 1.24137,0 2.24799,1.098 2.24799,2.4523 l 0,0 c -2.5e-4,1.3549 -1.00662,2.4523 -2.24824,2.4523 z"
       id="path37"
       inkscape:connector-curvature="0" />
    <path
       style="fill:none;stroke:#394050;stroke-width:2.50435662;stroke-linecap:butt;stroke-linejoin:miter;stroke-miterlimit:4;stroke-dasharray:none;stroke-opacity:1"
       d="m 274.71944,931.61705 50.49853,-29.59352 17.52843,17.30083 22.32786,-48.71538"
       id="path2998"
       inkscape:connector-curvature="0" />
    <path
       style="fill:none;stroke:#394050;stroke-width:2.50435662;stroke-linecap:butt;stroke-linejoin:miter;stroke-miterlimit:4;stroke-dasharray:none;stroke-opacity:1"
       d="m 365.9339,869.94285 -8.99746,4.26399"
       id="path3768"
       inkscape:connector-curvature="0" />
    <path
       style="fill:none;stroke:#394050;stroke-width:2.50435662;stroke-linecap:butt;stroke-linejoin:miter;stroke-miterlimit:4;stroke-dasharray:none;stroke-opacity:1"
       d="m 368.39364,879.29085 -4.03778,-10.01249"
       id="path3770-3"
       inkscape:connector-curvature="0" />
    <rect
       style="fill:#ff6600;fill-opacity:1;stroke:none"
       id="rect2990-3-9"
       width="213.76758"
       height="12.292208"
       x="156.85249"
       y="-1023.5695"
       transform="scale(1,-1)" />
    <rect
       style="fill:#ff6600;fill-opacity:1;stroke:none"
       id="rect2990-3-6-8"
       width="147.57034"
       height="12.292208"
       x="188.29619"
       y="-997.84283"
       transform="scale(1,-1)" />
    <path
       style="fill:none;fill-rule:evenodd;stroke:#ffffff;stroke-width:10;stroke-linecap:butt;stroke-linejoin:miter;stroke-miterlimit:4;stroke-dasharray:none;stroke-opacity:1"
       d="m 157.48572,639.71896 c 0,0 -9.26192,-4.269 -18.06619,-4.37085 -8.80427,-0.10185 -14.26789,5.23284 -14.5695,12.82117 -0.30162,7.58832 3.92901,13.66202 19.08605,15.44367 15.15704,1.78165 14.25231,15.00213 12.38407,19.66884 -1.86824,4.66671 -10.69001,9.07335 -19.66883,7.86753 -8.97882,-1.20582 -16.46354,-5.24502 -16.46354,-5.24502"
       id="path3353"
       inkscape:connector-curvature="0"
       sodipodi:nodetypes="czzzzzc" />
    <g
       transform="translate(112.26426,337.02242)"
       id="g4395">
      <path
         sodipodi:nodetypes="cc"
         inkscape:connector-curvature="0"
         id="path4231"
         d="m 133.34218,354.15825 -0.05,-49.49365"
         style="fill:none;fill-rule:evenodd;stroke:#ffffff;stroke-width:9;stroke-linecap:butt;stroke-linejoin:miter;stroke-miterlimit:4;stroke-dasharray:none;stroke-opacity:1" />
      <rect
         y="291.90131"
         x="129.0282"
         height="8.6538467"
         width="8.8598909"
         id="rect4248"
         style="fill:#ffffff;fill-opacity:1;stroke:none;stroke-width:9;stroke-linecap:butt;stroke-linejoin:miter;stroke-miterlimit:4;stroke-dasharray:none;stroke-opacity:1" />
    </g>
    <g
       transform="translate(76.64835,-7.3104622)"
       id="g4224">
      <path
         sodipodi:nodetypes="cc"
         inkscape:connector-curvature="0"
         id="path4207"
         d="m 122.8022,699.61492 0,-57.28023"
         style="fill:none;fill-rule:evenodd;stroke:#ffffff;stroke-width:9;stroke-linecap:butt;stroke-linejoin:miter;stroke-miterlimit:4;stroke-dasharray:none;stroke-opacity:1" />
      <path
         sodipodi:nodetypes="cc"
         inkscape:connector-curvature="0"
         id="path4207-2"
         d="m 96.222531,642.74677 53.159349,0"
         style="fill:none;fill-rule:evenodd;stroke:#ffffff;stroke-width:8.67021656;stroke-linecap:butt;stroke-linejoin:miter;stroke-miterlimit:4;stroke-dasharray:none;stroke-opacity:1" />
    </g>
  </g>
</svg>
