<?xml version="1.0" encoding="UTF-8" standalone="no"?>
<!-- Created with Inkscape (http://www.inkscape.org/) -->

<svg
   xmlns:dc="http://purl.org/dc/elements/1.1/"
   xmlns:cc="http://creativecommons.org/ns#"
   xmlns:rdf="http://www.w3.org/1999/02/22-rdf-syntax-ns#"
   xmlns:svg="http://www.w3.org/2000/svg"
   xmlns="http://www.w3.org/2000/svg"
   xmlns:sodipodi="http://sodipodi.sourceforge.net/DTD/sodipodi-0.dtd"
   xmlns:inkscape="http://www.inkscape.org/namespaces/inkscape"
   width="500"
   height="500"
   id="svg2"
   version="1.1"
   inkscape:version="0.48.5 r10040"
   sodipodi:docname="application-vnd.oasis.opendocument.presentation.svg">
  <defs
     id="defs4" />
  <sodipodi:namedview
     id="base"
     pagecolor="#ffffff"
     bordercolor="#666666"
     borderopacity="1.0"
     inkscape:pageopacity="0.0"
     inkscape:pageshadow="2"
     inkscape:zoom="0.4289781"
     inkscape:cx="182.31776"
     inkscape:cy="292.92985"
     inkscape:document-units="px"
     inkscape:current-layer="layer1"
     showgrid="false"
     inkscape:window-width="1366"
     inkscape:window-height="716"
     inkscape:window-x="0"
     inkscape:window-y="0"
     inkscape:window-maximized="1" />
  <metadata
     id="metadata7">
    <rdf:RDF>
      <cc:Work
         rdf:about="">
        <dc:format>image/svg+xml</dc:format>
        <dc:type
           rdf:resource="http://purl.org/dc/dcmitype/StillImage" />
        <dc:title />
      </cc:Work>
    </rdf:RDF>
  </metadata>
  <g
     inkscape:label="Layer 1"
     inkscape:groupmode="layer"
     id="layer1"
     transform="translate(0,-552.36218)">
    <rect
       style="fill:#ffffff;fill-opacity:1;stroke:none"
       id="rect3000"
       width="450"
       height="450"
       x="25"
       y="577.36218"
       ry="55.366497" />
    <path
       style="fill:#ff6600;stroke:none;stroke-width:1px;stroke-linecap:butt;stroke-linejoin:miter;stroke-opacity:1;fill-opacity:1"
       d="M 100,475 100,25 C 100,25 61.202184,19.758699 40.940323,41.934658 20.678462,64.110616 25,90.3 25,90.3 L 25,410 c 0,0 -3.104929,34.44943 20.038287,52.1379 C 68.181502,479.82637 100,475 100,475 z"
       id="path3770"
       inkscape:connector-curvature="0"
       transform="translate(0,552.36218)"
       sodipodi:nodetypes="cczcczc" />
    <path
       inkscape:connector-curvature="0"
       id="path4306"
       d="m 175.16193,1026.783 c -2.56343,-0.6889 -7.7678,-3.1723 -10.52073,-5.0202 -5.39352,-3.6207 -10.65132,-10.3391 -13.20104,-16.8685 l -1.25056,-3.2025 -0.0948,-148.26223 -0.0948,-148.2622 0.91829,-2.96593 c 2.92129,-9.43535 9.5196,-17.05327 18.48081,-21.33658 6.29488,-3.00885 0.33101,-2.76619 67.80746,-2.75888 l 60.02285,0.006 26.544,26.68731 c 14.5992,14.67803 39.15677,39.35625 54.57238,54.84049 15.4156,15.48425 28.02836,28.23584 28.02836,28.33688 0,0.10102 4.79364,4.97436 10.65254,10.82963 l 10.65252,10.64592 0.0785,42.8569 c 0.0431,23.57127 0.0825,67.37517 0.0873,97.34197 l 0.009,54.48502 -1.62499,3.3803 c -2.05917,4.2835 -3.28209,6.051 -6.56475,9.4882 -4.26492,4.4657 -8.65271,7.1898 -15.01391,9.321 l -3.09412,1.0366 -112.23661,-0.032 c -97.85393,-0.028 -112.48271,-0.098 -114.1575,-0.5478 z"
       style="fill:#ff6600;fill-opacity:1;stroke:none"
       sodipodi:nodetypes="csscccssscsssscsscssscscc" />
    <path
       style="fill:#ff6600;fill-opacity:1;stroke:none"
       d="m 424.13834,761.24746 c -23.45279,-26.83913 -76.88478,-78.40873 -76.88478,-78.40873 0,0 -2.51087,-1.79638 -2.46926,-3.59047 0.0416,-1.79409 1.74669,-1.84182 1.74669,-1.84182 l 49.32213,-0.0423 c 0,0 12.73883,-0.39178 23.36765,10.46772 10.62882,10.85952 10.04518,24.87381 10.04518,24.87381 l -0.0117,47.35793 c 0,0 0.003,1.71347 -1.53266,2.45224 -1.53545,0.73878 -3.58322,-1.2684 -3.58322,-1.2684 z"
       id="path2983"
       inkscape:connector-curvature="0"
       sodipodi:nodetypes="cczcczcczc" />
    <path
       inkscape:connector-curvature="0"
       id="path4306-3"
       d="m 185.70666,1011.1312 c -2.29093,-0.6156 -6.94204,-2.835 -9.40231,-4.4865 -4.82016,-3.2358 -9.51902,-9.24002 -11.7977,-15.07532 l -1.1176,-2.862 -0.0847,-132.501 -0.0847,-132.50098 0.82067,-2.65063 c 2.61073,-8.43231 8.50761,-15.2404 16.51618,-19.06837 5.6257,-2.68899 0.29582,-2.47213 60.59909,-2.4656 l 53.64204,0.005 23.72221,23.85029 c 13.0472,13.11765 34.99415,35.17242 48.77098,49.01059 13.77682,13.83817 25.04876,25.23418 25.04876,25.32449 0,0.0903 4.28405,4.44555 9.52011,9.67836 l 9.52009,9.51419 0.0702,38.30094 c 0.0385,21.06542 0.0737,60.21272 0.078,86.99382 l 0.008,48.693 -1.45223,3.0209 c -1.84028,3.8281 -2.93319,5.4077 -5.86689,8.47952 -3.81153,3.991 -7.73286,6.4254 -13.41783,8.33 l -2.76519,0.9264 -100.30514,-0.028 c -87.45143,-0.024 -100.52507,-0.087 -102.02182,-0.4893 z"
       style="fill:#ffffff;fill-opacity:1;stroke:none"
       sodipodi:nodetypes="csscccssscsssscsscssscscc" />
    <rect
       style="fill:#ffb380;fill-opacity:1;stroke:none"
       id="rect2990"
       width="182.66698"
       height="121.25978"
       x="194.10089"
       y="814.2937" />
    <rect
       style="fill:#ff6600;fill-opacity:1;stroke:none"
       id="rect2990-3"
       width="141.99373"
       height="7.4846015"
       x="214.84396"
       y="825.85065" />
    <rect
       style="fill:#ff6600;fill-opacity:1;stroke:none"
       id="rect2990-3-6"
       width="98.022644"
       height="7.4846015"
       x="235.73022"
       y="841.51532" />
    <rect
       style="fill:#ff6600;fill-opacity:1;stroke:none"
       id="rect2990-3-6-7"
       width="48.005535"
       height="7.4846015"
       x="220.61517"
       y="873.66919" />
    <rect
       style="fill:#ff6600;fill-opacity:1;stroke:none"
       id="rect2990-3-6-7-5"
       width="8.4315605"
       height="7.4846015"
       x="205.50012"
       y="873.66919" />
    <rect
       style="fill:#ff6600;fill-opacity:1;stroke:none"
       id="rect2990-3-6-7-3"
       width="48.005535"
       height="7.4846015"
       x="220.20294"
       y="886.31091" />
    <rect
       style="fill:#ff6600;fill-opacity:1;stroke:none"
       id="rect2990-3-6-7-5-5"
       width="8.4315605"
       height="7.4846015"
       x="205.08789"
       y="886.31091" />
    <rect
       style="fill:#ff6600;fill-opacity:1;stroke:none"
       id="rect2990-3-6-7-6"
       width="48.005535"
       height="7.4846015"
       x="220.20294"
       y="899.22742" />
    <rect
       style="fill:#ff6600;fill-opacity:1;stroke:none"
       id="rect2990-3-6-7-5-2"
       width="8.4315605"
       height="7.4846015"
       x="205.08789"
       y="899.22742" />
    <rect
       style="fill:#ff6600;fill-opacity:1;stroke:none"
       id="rect2990-3-6-7-9"
       width="48.005535"
       height="7.4846015"
       x="220.20294"
       y="912.96838" />
    <rect
       style="fill:#ff6600;fill-opacity:1;stroke:none"
       id="rect2990-3-6-7-5-1"
       width="8.4315605"
       height="7.4846015"
       x="205.08789"
       y="912.96838" />
    <rect
       style="fill:#ffffff;fill-opacity:1;stroke:none"
       id="rect2990-2"
       width="75.525772"
       height="57.520664"
       x="290.09821"
       y="867.15051" />
    <path
       style="fill:#ffcc00"
       d="m 330.59952,922.19198 h -5.97249 c -0.82458,0 -1.49321,-0.6686 -1.49321,-1.4932 v -23.8902 c 0,-0.8245 0.66863,-1.4932 1.49321,-1.4932 h 5.97249 c 0.82457,0 1.4932,0.6687 1.4932,1.4932 v 23.8902 c 0,0.8246 -0.66863,1.4932 -1.4932,1.4932 z"
       id="path17"
       inkscape:connector-curvature="0" />
    <path
       style="fill:#aa0000;fill-opacity:1"
       d="m 317.16133,922.19198 h -5.97249 c -0.82458,0 -1.49321,-0.6686 -1.49321,-1.4932 v -16.4245 c 0,-0.8246 0.66863,-1.4932 1.49321,-1.4932 h 5.97249 c 0.82458,0 1.49321,0.6686 1.49321,1.4932 v 16.4245 c 0,0.8246 -0.66863,1.4932 -1.49321,1.4932 z"
       id="path21"
       inkscape:connector-curvature="0" />
    <path
       style="fill:#004455"
       d="m 303.72314,922.19198 h -5.97248 c -0.82458,0 -1.49321,-0.6686 -1.49321,-1.4932 v -8.9589 c 0,-0.8246 0.66863,-1.4932 1.49321,-1.4932 h 5.97248 c 0.82459,0 1.49321,0.6686 1.49321,1.4932 v 8.9589 c -1.6e-4,0.8246 -0.66862,1.4932 -1.49321,1.4932 z"
       id="path25"
       inkscape:connector-curvature="0" />
    <path
       style="fill:#447821;fill-opacity:1"
       d="m 344.0377,922.19198 h -5.97248 c -0.82458,0 -1.49321,-0.6686 -1.49321,-1.4932 v -16.4245 c 0,-0.8246 0.66863,-1.4932 1.49321,-1.4932 h 5.97248 c 0.82458,0 1.49321,0.6686 1.49321,1.4932 v 16.4245 c 0,0.8246 -0.66863,1.4932 -1.49321,1.4932 z"
       id="path29"
       inkscape:connector-curvature="0" />
    <path
       style="fill:#2c89a0;fill-opacity:1"
       d="m 357.47606,922.19198 h -5.9725 c -0.82457,0 -1.4932,-0.6686 -1.4932,-1.4932 v -32.8491 c 0,-0.8245 0.66863,-1.4932 1.4932,-1.4932 h 5.9725 c 0.82457,0 1.4932,0.6687 1.4932,1.4932 v 32.8491 c -1.5e-4,0.8246 -0.66863,1.4932 -1.4932,1.4932 z"
       id="path33"
       inkscape:connector-curvature="0" />
    <path
       style="fill:#1a1a1a"
       d="m 361.95534,923.68478 h -68.68413 c -0.82458,0 -1.49321,-0.6686 -1.49321,-1.4932 l 0,0 c 0,-0.8246 0.66863,-1.4932 1.49321,-1.4932 h 68.6843 c 0.82457,0 1.49321,0.6686 1.49321,1.4932 l 0,0 c -1.7e-4,0.825 -0.66864,1.4932 -1.49338,1.4932 z"
       id="path37"
       inkscape:connector-curvature="0" />
    <path
       style="fill:none;stroke:#1a1a1a;stroke-width:1.5926826;stroke-linecap:butt;stroke-linejoin:miter;stroke-miterlimit:4;stroke-opacity:1;stroke-dasharray:none"
       d="m 295.55839,907.36518 33.54333,-18.0192 11.64314,10.5343 14.83114,-29.6623"
       id="path2998"
       inkscape:connector-curvature="0" />
    <path
       style="fill:none;stroke:#1a1a1a;stroke-width:1.5926826;stroke-linecap:butt;stroke-linejoin:miter;stroke-miterlimit:4;stroke-opacity:1;stroke-dasharray:none"
       d="m 356.14701,869.81238 -5.9765,2.5963"
       id="path3768"
       inkscape:connector-curvature="0" />
    <path
       style="fill:none;stroke:#1a1a1a;stroke-width:1.5926826;stroke-linecap:butt;stroke-linejoin:miter;stroke-miterlimit:4;stroke-opacity:1;stroke-dasharray:none"
       d="m 357.78088,875.50428 -2.68207,-6.0965"
       id="path3770-3"
       inkscape:connector-curvature="0" />
  </g>
</svg>
