<?xml version="1.0" encoding="UTF-8" standalone="no"?>
<!-- Created with Inkscape (http://www.inkscape.org/) -->

<svg
   xmlns:dc="http://purl.org/dc/elements/1.1/"
   xmlns:cc="http://creativecommons.org/ns#"
   xmlns:rdf="http://www.w3.org/1999/02/22-rdf-syntax-ns#"
   xmlns:svg="http://www.w3.org/2000/svg"
   xmlns="http://www.w3.org/2000/svg"
   xmlns:sodipodi="http://sodipodi.sourceforge.net/DTD/sodipodi-0.dtd"
   xmlns:inkscape="http://www.inkscape.org/namespaces/inkscape"
   width="500"
   height="500"
   id="svg2"
   version="1.1"
   inkscape:version="0.91 r13725"
   sodipodi:docname="application-x-applix-spreadsheet.svg">
  <defs
     id="defs4" />
  <sodipodi:namedview
     id="base"
     pagecolor="#ffffff"
     bordercolor="#666666"
     borderopacity="1.0"
     inkscape:pageopacity="0.0"
     inkscape:pageshadow="2"
     inkscape:zoom="0.30333332"
     inkscape:cx="-382.97284"
     inkscape:cy="356.61017"
     inkscape:document-units="px"
     inkscape:current-layer="layer1"
     showgrid="false"
     inkscape:window-width="1366"
     inkscape:window-height="711"
     inkscape:window-x="0"
     inkscape:window-y="0"
     inkscape:window-maximized="1" />
  <metadata
     id="metadata7">
    <rdf:RDF>
      <cc:Work
         rdf:about="">
        <dc:format>image/svg+xml</dc:format>
        <dc:type
           rdf:resource="http://purl.org/dc/dcmitype/StillImage" />
        <dc:title />
      </cc:Work>
    </rdf:RDF>
  </metadata>
  <g
     inkscape:label="Layer 1"
     inkscape:groupmode="layer"
     id="layer1"
     transform="translate(0,-552.36218)">
    <path
       style="fill:#165016;fill-opacity:1;fill-rule:evenodd;stroke:none;stroke-width:1px;stroke-linecap:butt;stroke-linejoin:miter;stroke-opacity:1"
       d="M 63.03896,706.21226 116.261,758.31082 114.60095,685.26897 63,685.02387 Z"
       id="path4230"
       inkscape:connector-curvature="0"
       sodipodi:nodetypes="ccccc" />
    <path
       style="fill:#f2f2f2;fill-rule:evenodd;stroke:#afafaf;stroke-width:5.03546047;stroke-linecap:butt;stroke-linejoin:miter;stroke-miterlimit:4;stroke-dasharray:none;stroke-opacity:1"
       d="m 97.04097,1029.8357 336.88839,-1.1739 1.17377,-363.88644 -88.03697,-89.21086 -250.02519,0 z"
       id="path3364"
       inkscape:connector-curvature="0" />
    <path
       style="fill:#afafaf;fill-opacity:1;fill-rule:evenodd;stroke:#afafaf;stroke-width:5.03546047;stroke-linecap:butt;stroke-linejoin:miter;stroke-miterlimit:4;stroke-dasharray:none;stroke-opacity:1"
       d="m 431.51909,662.9312 -82.16431,-0.58691 0.75853,-83.80351 z"
       id="path4166"
       inkscape:connector-curvature="0"
       sodipodi:nodetypes="cccc" />
    <rect
       style="fill:#2ca02c;fill-opacity:1;stroke:none;stroke-width:5;stroke-miterlimit:4;stroke-dasharray:none;stroke-opacity:1"
       id="rect4228"
       width="224.93568"
       height="84.350876"
       x="63.139694"
       y="622.18756" />
    <rect
       style="fill:#2ca02c;fill-opacity:1;stroke:none"
       id="rect3932"
       width="257.0538"
       height="205.64311"
       x="143.00667"
       y="800.62091" />
    <rect
       style="fill:#8dd35f;fill-opacity:1;stroke:none"
       id="rect3771"
       width="53.937923"
       height="24.963709"
       x="150.12352"
       y="806.4671" />
    <rect
       style="fill:#8dd35f;fill-opacity:1;stroke:none"
       id="rect3771-7"
       width="53.937923"
       height="24.963709"
       x="212.35959"
       y="806.4671" />
    <rect
       style="fill:#8dd35f;fill-opacity:1;stroke:none"
       id="rect3771-7-5"
       width="53.937923"
       height="24.963709"
       x="274.59564"
       y="806.4671" />
    <rect
       style="fill:#8dd35f;fill-opacity:1;stroke:none"
       id="rect3771-7-5-3"
       width="53.937923"
       height="24.963709"
       x="336.8317"
       y="806.4671" />
    <rect
       style="fill:#aade87;fill-opacity:1;stroke:none"
       id="rect3771-5"
       width="53.937923"
       height="24.963709"
       x="150.12352"
       y="839.77661" />
    <rect
       style="fill:#aade87;fill-opacity:1;stroke:none"
       id="rect3771-7-6"
       width="53.937923"
       height="24.963709"
       x="212.35959"
       y="839.77661" />
    <rect
       style="fill:#aade87;fill-opacity:1;stroke:none"
       id="rect3771-7-5-2"
       width="53.937923"
       height="24.963709"
       x="274.59564"
       y="839.77661" />
    <rect
       style="fill:#aade87;fill-opacity:1;stroke:none"
       id="rect3771-7-5-3-9"
       width="53.937923"
       height="24.963709"
       x="336.83176"
       y="839.77661" />
    <rect
       style="fill:#aade87;fill-opacity:1;stroke:none"
       id="rect3771-1"
       width="53.937923"
       height="24.963709"
       x="150.12352"
       y="872.84387" />
    <rect
       style="fill:#aade87;fill-opacity:1;stroke:none"
       id="rect3771-7-2"
       width="53.937923"
       height="24.963709"
       x="212.35959"
       y="872.84387" />
    <rect
       style="fill:#aade87;fill-opacity:1;stroke:none"
       id="rect3771-7-5-7"
       width="53.937923"
       height="24.963709"
       x="274.59564"
       y="872.84387" />
    <rect
       style="fill:#aade87;fill-opacity:1;stroke:none"
       id="rect3771-7-5-3-0"
       width="53.937923"
       height="24.963709"
       x="336.8317"
       y="872.84387" />
    <rect
       style="fill:#aade87;fill-opacity:1;stroke:none"
       id="rect3771-5-9"
       width="53.937923"
       height="24.963709"
       x="150.12352"
       y="906.15332" />
    <rect
       style="fill:#aade87;fill-opacity:1;stroke:none"
       id="rect3771-7-6-3"
       width="53.937923"
       height="24.963709"
       x="212.35959"
       y="906.15332" />
    <rect
       style="fill:#aade87;fill-opacity:1;stroke:none"
       id="rect3771-7-5-2-6"
       width="53.937923"
       height="24.963709"
       x="274.5957"
       y="906.15332" />
    <rect
       style="fill:#aade87;fill-opacity:1;stroke:none"
       id="rect3771-7-5-3-9-0"
       width="53.937923"
       height="24.963709"
       x="336.83176"
       y="906.15332" />
    <rect
       style="fill:#aade87;fill-opacity:1;stroke:none"
       id="rect3771-6"
       width="53.937923"
       height="24.963709"
       x="150.65662"
       y="939.68353" />
    <rect
       style="fill:#aade87;fill-opacity:1;stroke:none"
       id="rect3771-7-26"
       width="53.937923"
       height="24.963709"
       x="212.89267"
       y="939.68353" />
    <rect
       style="fill:#aade87;fill-opacity:1;stroke:none"
       id="rect3771-7-5-1"
       width="53.937923"
       height="24.963709"
       x="275.12872"
       y="939.68353" />
    <rect
       style="fill:#aade87;fill-opacity:1;stroke:none"
       id="rect3771-7-5-3-8"
       width="53.937923"
       height="24.963709"
       x="337.36484"
       y="939.68353" />
    <rect
       style="fill:#aade87;fill-opacity:1;stroke:none"
       id="rect3771-5-7"
       width="53.937923"
       height="24.963709"
       x="150.65662"
       y="972.99304" />
    <rect
       style="fill:#aade87;fill-opacity:1;stroke:none"
       id="rect3771-7-6-9"
       width="53.937923"
       height="24.963709"
       x="212.89267"
       y="972.99304" />
    <rect
       style="fill:#aade87;fill-opacity:1;stroke:none"
       id="rect3771-7-5-2-2"
       width="53.937923"
       height="24.963709"
       x="275.12878"
       y="972.99304" />
    <rect
       style="fill:#aade87;fill-opacity:1;stroke:none"
       id="rect3771-7-5-3-9-02"
       width="53.937923"
       height="24.963709"
       x="337.36484"
       y="972.99304" />
    <g
       id="g3961"
       transform="matrix(0.40221902,0,0,0.40221919,55.205109,832.12362)">
      <rect
         transform="matrix(0,1,-1,0,0,0)"
         rx="21.248234"
         ry="30.048391"
         y="-902"
         x="222.39226"
         height="380"
         width="257.21548"
         id="rect3003"
         style="fill:#394050;fill-opacity:1;stroke:none" />
      <path
         sodipodi:nodetypes="cccczcczcczcczc"
         inkscape:connector-curvature="0"
         id="path3773"
         d="m 888.29277,234.78694 c -2.79892,-1.83146 -6.49446,-1.5393 -6.49446,-1.5393 l -316.32985,0.0539 -23.19098,0.003 c 0,0 -3.62715,-0.12022 -5.51849,1.23479 -1.89134,1.35512 -2.06875,4.5815 -2.06875,4.5815 l 0.0137,223.47507 c 0,0 -0.25554,3.74338 1.57722,5.42709 1.83271,1.68371 5.90625,1.53638 5.90625,1.53638 l 329.58919,-0.0853 c 0,0 9.01713,0.88461 14.27075,-3.43524 5.25362,-4.31984 3.95992,-12.04617 3.95992,-12.04617 l 0.63379,-214.34297 c 0,0 0.44821,-3.03219 -2.35048,-4.86361 z"
         style="fill:#ffffff;stroke:none" />
      <path
         inkscape:connector-curvature="0"
         id="path17"
         d="m 725.57105,429.05271 -28.24922,0 c -3.90017,0 -7.06271,-3.16254 -7.06271,-7.06271 l 0,-112.99771 c 0,-3.90017 3.16254,-7.0627 7.06271,-7.0627 l 28.24922,0 c 3.90017,0 7.06271,3.16253 7.06271,7.0627 l 0,112.99771 c 0,3.90017 -3.16254,7.06271 -7.06271,7.06271 z"
         style="fill:#ffcc00" />
      <path
         inkscape:connector-curvature="0"
         id="path21"
         d="m 662.00989,429.05271 -28.24922,0 c -3.90017,0 -7.06271,-3.16254 -7.06271,-7.06271 l 0,-77.68577 c 0,-3.90017 3.16254,-7.06271 7.06271,-7.06271 l 28.24922,0 c 3.90017,0 7.06271,3.16254 7.06271,7.06271 l 0,77.68577 c 0,3.90017 -3.16254,7.06271 -7.06271,7.06271 z"
         style="fill:#f03916;fill-opacity:1" />
      <path
         inkscape:connector-curvature="0"
         id="path25"
         d="m 598.44874,429.05271 -28.24922,0 c -3.90017,0 -7.06271,-3.16254 -7.06271,-7.06271 l 0,-42.37464 c 0,-3.90017 3.16254,-7.06271 7.06271,-7.06271 l 28.24922,0 c 3.90016,0 7.0627,3.16254 7.0627,7.06271 l 0,42.37464 c -7.9e-4,3.90017 -3.16254,7.06271 -7.0627,7.06271 z"
         style="fill:#004455" />
      <path
         inkscape:connector-curvature="0"
         id="path29"
         d="m 789.1322,429.05271 -28.24921,0 c -3.90017,0 -7.06271,-3.16254 -7.06271,-7.06271 l 0,-77.68577 c 0,-3.90017 3.16254,-7.06271 7.06271,-7.06271 l 28.24921,0 c 3.90017,0 7.06271,3.16254 7.06271,7.06271 l 0,77.68577 c 0,3.90017 -3.16254,7.06271 -7.06271,7.06271 z"
         style="fill:#45d03f;fill-opacity:1" />
      <path
         inkscape:connector-curvature="0"
         id="path33"
         d="m 852.69415,429.05271 -28.24922,0 c -3.90016,0 -7.0627,-3.16254 -7.0627,-7.06271 l 0,-155.37234 c 0,-3.90017 3.16254,-7.0627 7.0627,-7.0627 l 28.24922,0 c 3.90017,0 7.06271,3.16253 7.06271,7.0627 l 0,155.37234 c -8e-4,3.90017 -3.16254,7.06271 -7.06271,7.06271 z"
         style="fill:#00bbf2;fill-opacity:1" />
      <path
         inkscape:connector-curvature="0"
         id="path37"
         d="m 873.88067,436.11381 -324.86847,0 c -3.90017,0 -7.06271,-3.16254 -7.06271,-7.06271 l 0,0 c 0,-3.90017 3.16254,-7.0627 7.06271,-7.0627 l 324.86927,0 c 3.90017,0 7.06271,3.16253 7.06271,7.0627 l 0,0 c -8e-4,3.90177 -3.16254,7.06271 -7.06351,7.06271 z"
         style="fill:#394050" />
    </g>
    <g
       id="g4265"
       transform="matrix(1.0070921,0,0,1.0070921,-794.41956,-7.6453517)">
      <path
         inkscape:connector-curvature="0"
         id="path4255"
         d="m 915.69362,696.28339 22.14565,-58.27803 22.72843,58.27803"
         style="fill:none;fill-rule:evenodd;stroke:#ffffff;stroke-width:9;stroke-linecap:butt;stroke-linejoin:bevel;stroke-miterlimit:4;stroke-dasharray:none;stroke-opacity:1" />
      <path
         inkscape:connector-curvature="0"
         id="path4257"
         d="m 924.58101,676.76025 25.78803,0"
         style="fill:none;fill-rule:evenodd;stroke:#ffffff;stroke-width:9;stroke-linecap:butt;stroke-linejoin:miter;stroke-miterlimit:4;stroke-dasharray:none;stroke-opacity:1" />
    </g>
    <path
       style="fill:none;fill-rule:evenodd;stroke:#ffffff;stroke-width:10;stroke-linecap:butt;stroke-linejoin:miter;stroke-miterlimit:4;stroke-dasharray:none;stroke-opacity:1"
       d="m 229.50787,639.43271 c 0,0 -9.26192,-4.269 -18.06619,-4.37085 -8.80427,-0.10185 -14.26789,5.23284 -14.5695,12.82117 -0.30162,7.58832 3.92901,13.66202 19.08605,15.44367 15.15704,1.78165 14.25231,15.00213 12.38407,19.66884 -1.86824,4.66671 -10.69001,9.07335 -19.66883,7.86753 -8.97882,-1.20582 -16.46354,-5.24502 -16.46354,-5.24502"
       id="path3353"
       inkscape:connector-curvature="0"
       sodipodi:nodetypes="czzzzzc" />
  </g>
</svg>
