<?xml version="1.0" encoding="UTF-8" standalone="no"?>
<!-- Created with Inkscape (http://www.inkscape.org/) -->

<svg
   xmlns:dc="http://purl.org/dc/elements/1.1/"
   xmlns:cc="http://creativecommons.org/ns#"
   xmlns:rdf="http://www.w3.org/1999/02/22-rdf-syntax-ns#"
   xmlns:svg="http://www.w3.org/2000/svg"
   xmlns="http://www.w3.org/2000/svg"
   xmlns:sodipodi="http://sodipodi.sourceforge.net/DTD/sodipodi-0.dtd"
   xmlns:inkscape="http://www.inkscape.org/namespaces/inkscape"
   width="500"
   height="500"
   id="svg2"
   version="1.1"
   inkscape:version="0.91 r13725"
   sodipodi:docname="application-vnd.oasis.opendocument.database.svg">
  <defs
     id="defs4" />
  <sodipodi:namedview
     id="base"
     pagecolor="#ffffff"
     bordercolor="#666666"
     borderopacity="1.0"
     inkscape:pageopacity="0.0"
     inkscape:pageshadow="2"
     inkscape:zoom="0.60666664"
     inkscape:cx="126.5801"
     inkscape:cy="181.27027"
     inkscape:document-units="px"
     inkscape:current-layer="layer1"
     showgrid="false"
     inkscape:window-width="1366"
     inkscape:window-height="711"
     inkscape:window-x="0"
     inkscape:window-y="0"
     inkscape:window-maximized="1" />
  <metadata
     id="metadata7">
    <rdf:RDF>
      <cc:Work
         rdf:about="">
        <dc:format>image/svg+xml</dc:format>
        <dc:type
           rdf:resource="http://purl.org/dc/dcmitype/StillImage" />
        <dc:title />
      </cc:Work>
    </rdf:RDF>
  </metadata>
  <g
     inkscape:label="Layer 1"
     inkscape:groupmode="layer"
     id="layer1"
     transform="translate(0,-552.36218)">
    <path
       style="fill:#ab3916;fill-opacity:1;fill-rule:evenodd;stroke:none;stroke-width:1px;stroke-linecap:butt;stroke-linejoin:miter;stroke-opacity:1"
       d="M 63.03896,706.21228 116.261,758.31084 114.60095,685.26899 63,685.02389 Z"
       id="path4230"
       inkscape:connector-curvature="0"
       sodipodi:nodetypes="ccccc" />
    <path
       style="fill:#f2f2f2;fill-rule:evenodd;stroke:#afafaf;stroke-width:5.03546047;stroke-linecap:butt;stroke-linejoin:miter;stroke-miterlimit:4;stroke-dasharray:none;stroke-opacity:1"
       d="m 97.04097,1029.8357 336.88839,-1.1739 1.17377,-363.88642 -88.03697,-89.21086 -250.02519,0 z"
       id="path3364"
       inkscape:connector-curvature="0" />
    <path
       style="fill:#afafaf;fill-opacity:1;fill-rule:evenodd;stroke:#afafaf;stroke-width:5.03546047;stroke-linecap:butt;stroke-linejoin:miter;stroke-miterlimit:4;stroke-dasharray:none;stroke-opacity:1"
       d="m 431.51909,662.93122 -82.16431,-0.58691 0.75853,-83.80351 z"
       id="path4166"
       inkscape:connector-curvature="0"
       sodipodi:nodetypes="cccc" />
    <rect
       style="fill:#f03916;fill-opacity:1;stroke:none;stroke-width:5;stroke-miterlimit:4;stroke-dasharray:none;stroke-opacity:1"
       id="rect4228"
       width="224.93568"
       height="84.350876"
       x="63.139679"
       y="622.18744" />
    <path
       style="fill:none;fill-rule:evenodd;stroke:#ffffff;stroke-width:9;stroke-linecap:butt;stroke-linejoin:miter;stroke-miterlimit:4;stroke-dasharray:none;stroke-opacity:1"
       d="m 132.75329,690.43447 c -12.02507,-0.10136 -23.35226,-12.18839 -23.42257,-27.48566 -0.0703,-15.29728 11.99424,-27.58791 24.13958,-27.24665 12.14534,0.34126 22.73834,11.91939 22.94455,28.20268 0.20622,16.28328 -11.63649,26.63099 -23.66156,26.52963 z"
       id="path4273"
       inkscape:connector-curvature="0"
       sodipodi:nodetypes="zzzzz" />
    <path
       style="fill:none;fill-rule:evenodd;stroke:#ffffff;stroke-width:9;stroke-linecap:butt;stroke-linejoin:miter;stroke-miterlimit:4;stroke-dasharray:none;stroke-opacity:1"
       d="m 173.0635,689.02437 0.47801,-52.10326 c 0,0 39.88141,-5.81127 40.39197,26.52965 0.51056,32.3409 -40.86998,25.57361 -40.86998,25.57361 z"
       id="path4271"
       inkscape:connector-curvature="0"
       sodipodi:nodetypes="cczc" />
    <path
       style="fill:none;fill-rule:evenodd;stroke:#ffffff;stroke-width:9;stroke-linecap:butt;stroke-linejoin:miter;stroke-miterlimit:4;stroke-dasharray:none;stroke-opacity:1"
       d="m 272.4304,642.97987 c 0,0 -7.61602,-6.81634 -21.51052,-5.73613 -13.8945,1.08021 -21.77754,16.92381 -21.03251,28.91969 0.74503,11.99588 11.26493,26.26777 24.8566,25.09561 13.59167,-1.17217 17.68643,-5.97515 17.68643,-5.97515"
       id="path4275"
       inkscape:connector-curvature="0"
       sodipodi:nodetypes="czzzc" />
    <rect
       style="fill:#782121;fill-opacity:1;stroke:none"
       id="rect3771"
       width="55.910625"
       height="17.007778"
       x="140.39207"
       y="792.6308" />
    <rect
       style="fill:#782121;fill-opacity:1;stroke:none"
       id="rect3771-7"
       width="55.910625"
       height="17.007778"
       x="204.90434"
       y="792.6308" />
    <rect
       style="fill:#782121;fill-opacity:1;stroke:none"
       id="rect3771-7-5"
       width="55.910625"
       height="17.007778"
       x="269.4166"
       y="792.6308" />
    <rect
       style="fill:#782121;fill-opacity:1;stroke:none"
       id="rect3771-7-5-3"
       width="55.910625"
       height="17.007778"
       x="333.92886"
       y="792.6308" />
    <rect
       style="fill:#782121;fill-opacity:1;stroke:none"
       id="rect3771-5"
       width="55.910625"
       height="17.007778"
       x="140.39207"
       y="815.32446" />
    <rect
       style="fill:#782121;fill-opacity:1;stroke:none"
       id="rect3771-7-6"
       width="55.910625"
       height="17.007778"
       x="204.90434"
       y="815.32446" />
    <rect
       style="fill:#782121;fill-opacity:1;stroke:none"
       id="rect3771-7-5-2"
       width="55.910625"
       height="17.007778"
       x="269.4166"
       y="815.32446" />
    <rect
       style="fill:#782121;fill-opacity:1;stroke:none"
       id="rect3771-7-5-3-9"
       width="55.910625"
       height="17.007778"
       x="333.92886"
       y="815.32446" />
    <rect
       style="fill:#782121;fill-opacity:1;stroke:none"
       id="rect3771-1"
       width="55.910625"
       height="17.007778"
       x="140.39207"
       y="837.85321" />
    <rect
       style="fill:#782121;fill-opacity:1;stroke:none"
       id="rect3771-7-2"
       width="55.910625"
       height="17.007778"
       x="204.90434"
       y="837.85321" />
    <rect
       style="fill:#782121;fill-opacity:1;stroke:none"
       id="rect3771-7-5-7"
       width="55.910625"
       height="17.007778"
       x="269.4166"
       y="837.85321" />
    <rect
       style="fill:#782121;fill-opacity:1;stroke:none"
       id="rect3771-7-5-3-0"
       width="55.910625"
       height="17.007778"
       x="333.92886"
       y="837.85321" />
    <rect
       style="fill:#782121;fill-opacity:1;stroke:none"
       id="rect3771-5-9"
       width="55.910625"
       height="17.007778"
       x="140.39207"
       y="860.547" />
    <rect
       style="fill:#782121;fill-opacity:1;stroke:none"
       id="rect3771-7-6-3"
       width="55.910625"
       height="17.007778"
       x="204.90434"
       y="860.547" />
    <rect
       style="fill:#782121;fill-opacity:1;stroke:none"
       id="rect3771-7-5-2-6"
       width="55.910625"
       height="17.007778"
       x="269.4166"
       y="860.547" />
    <rect
       style="fill:#782121;fill-opacity:1;stroke:none"
       id="rect3771-7-5-3-9-0"
       width="55.910625"
       height="17.007778"
       x="333.92886"
       y="860.547" />
    <rect
       style="fill:#782121;fill-opacity:1;stroke:none"
       id="rect3771-6"
       width="55.910625"
       height="17.007778"
       x="140.94464"
       y="883.39111" />
    <rect
       style="fill:#782121;fill-opacity:1;stroke:none"
       id="rect3771-7-26"
       width="55.910625"
       height="17.007778"
       x="205.45686"
       y="883.39111" />
    <rect
       style="fill:#782121;fill-opacity:1;stroke:none"
       id="rect3771-7-5-1"
       width="55.910625"
       height="17.007778"
       x="269.96912"
       y="883.39111" />
    <rect
       style="fill:#782121;fill-opacity:1;stroke:none"
       id="rect3771-7-5-3-8"
       width="55.910625"
       height="17.007778"
       x="334.48145"
       y="883.39111" />
    <rect
       style="fill:#782121;fill-opacity:1;stroke:none"
       id="rect3771-5-7"
       width="55.910625"
       height="17.007778"
       x="140.94464"
       y="906.08496" />
    <rect
       style="fill:#782121;fill-opacity:1;stroke:none"
       id="rect3771-7-6-9"
       width="55.910625"
       height="17.007778"
       x="205.45686"
       y="906.08496" />
    <rect
       style="fill:#782121;fill-opacity:1;stroke:none"
       id="rect3771-7-5-2-2"
       width="55.910625"
       height="17.007778"
       x="269.96915"
       y="906.08496" />
    <rect
       style="fill:#782121;fill-opacity:1;stroke:none"
       id="rect3771-7-5-3-9-02"
       width="55.910625"
       height="17.007778"
       x="334.48145"
       y="906.08496" />
    <rect
       style="fill:#782121;fill-opacity:1;stroke:none"
       id="rect3771-1-3"
       width="55.910625"
       height="17.007778"
       x="140.94464"
       y="928.61365" />
    <rect
       style="fill:#782121;fill-opacity:1;stroke:none"
       id="rect3771-7-2-7"
       width="55.910625"
       height="17.007778"
       x="205.45686"
       y="928.61365" />
    <rect
       style="fill:#782121;fill-opacity:1;stroke:none"
       id="rect3771-7-5-7-5"
       width="55.910625"
       height="17.007778"
       x="269.96915"
       y="928.61365" />
    <rect
       style="fill:#782121;fill-opacity:1;stroke:none"
       id="rect3771-7-5-3-0-9"
       width="55.910625"
       height="17.007778"
       x="334.48145"
       y="928.61365" />
    <rect
       style="fill:#782121;fill-opacity:1;stroke:none"
       id="rect3771-5-9-2"
       width="55.910625"
       height="17.007778"
       x="140.94464"
       y="951.30737" />
    <rect
       style="fill:#782121;fill-opacity:1;stroke:none"
       id="rect3771-7-6-3-2"
       width="55.910625"
       height="17.007778"
       x="205.45686"
       y="951.30737" />
    <rect
       style="fill:#782121;fill-opacity:1;stroke:none"
       id="rect3771-7-5-2-6-8"
       width="55.910625"
       height="17.007778"
       x="269.96915"
       y="951.30737" />
    <rect
       style="fill:#782121;fill-opacity:1;stroke:none"
       id="rect3771-7-5-3-9-0-9"
       width="55.910625"
       height="17.007778"
       x="334.48145"
       y="951.30737" />
    <rect
       style="fill:#782121;fill-opacity:1;stroke:none"
       id="rect3771-1-3-7"
       width="55.910625"
       height="17.007778"
       x="140.60277"
       y="974.26953" />
    <rect
       style="fill:#782121;fill-opacity:1;stroke:none"
       id="rect3771-7-2-7-3"
       width="55.910625"
       height="17.007778"
       x="205.11505"
       y="974.26953" />
    <rect
       style="fill:#782121;fill-opacity:1;stroke:none"
       id="rect3771-7-5-7-5-6"
       width="55.910625"
       height="17.007778"
       x="269.62732"
       y="974.26953" />
    <rect
       style="fill:#782121;fill-opacity:1;stroke:none"
       id="rect3771-7-5-3-0-9-1"
       width="55.910625"
       height="17.007778"
       x="334.13956"
       y="974.26953" />
    <rect
       style="fill:#782121;fill-opacity:1;stroke:none"
       id="rect3771-5-9-2-2"
       width="55.910625"
       height="17.007778"
       x="140.60277"
       y="996.96326" />
    <rect
       style="fill:#782121;fill-opacity:1;stroke:none"
       id="rect3771-7-6-3-2-9"
       width="55.910625"
       height="17.007778"
       x="205.11505"
       y="996.96326" />
    <rect
       style="fill:#782121;fill-opacity:1;stroke:none"
       id="rect3771-7-5-2-6-8-3"
       width="55.910625"
       height="17.007778"
       x="269.62732"
       y="996.96326" />
    <rect
       style="fill:#782121;fill-opacity:1;stroke:none"
       id="rect3771-7-5-3-9-0-9-1"
       width="55.910625"
       height="17.007778"
       x="334.13959"
       y="996.96326" />
    <path
       style="fill:#ffffff;stroke:none"
       d="m 187.09645,956.31981 c 0,0 18.15479,20.99214 82.5807,21.24649 64.42589,0.25433 78.9728,-23.65177 78.9728,-23.65177 l -0.40089,-93.00349 c 0,0 -7.14992,-24.68459 -80.97719,-24.4535 -73.82724,0.23107 -80.17542,25.65612 -80.17542,25.65612 z"
       id="path4031"
       inkscape:connector-curvature="0"
       sodipodi:nodetypes="czcczcc" />
    <path
       inkscape:connector-curvature="0"
       id="path3026"
       d="m 246.58868,973.06377 c -9.16759,-0.98199 -19.41,-2.76726 -25.78783,-4.49478 -13.34266,-3.61405 -24.28241,-9.49477 -27.87469,-14.98421 -1.78443,-2.72686 -1.85297,-3.19068 -1.85297,-12.54313 0,-5.4309 0.28574,-9.71154 0.64828,-9.71154 0.35653,0 1.47993,1.08069 2.49645,2.40152 9.38837,12.19919 42.79072,20.30571 79.23309,19.22933 33.72234,-0.99604 60.46062,-8.72384 67.76542,-19.58529 0.95842,-1.42506 2.0449,-2.59104 2.41439,-2.59104 1.21761,0 1.63248,3.76846 1.30959,11.89566 -0.28884,7.26995 -0.48933,8.2678 -2.15853,10.74289 -5.82563,8.6383 -22.59812,15.31751 -47.43566,18.88999 -10.39284,1.49487 -37.8619,1.91773 -48.75754,0.7506 z m 3.93981,-26.5255 c -22.12576,-1.69264 -42.62509,-7.44115 -52.28742,-14.66268 -6.37514,-4.76471 -6.77175,-5.72592 -7.03401,-17.04627 -0.15083,-6.51036 0.0222,-9.68228 0.52825,-9.68228 0.41392,0 1.55478,0.96768 2.53524,2.1504 6.22317,7.50692 22.44661,13.79031 43.65077,16.906 42.27677,6.21212 91.74608,-2.06108 102.98278,-17.22271 1.19216,-1.60856 2.43938,-2.92465 2.7716,-2.92465 1.09074,0 1.59611,4.88596 1.26781,12.25728 -0.28955,6.50142 -0.52348,7.56 -2.27188,10.2813 -9.01621,14.03316 -50.90065,23.09871 -92.14314,19.94361 z m 2.14898,-26.7256 c -28.38542,-1.90957 -52.5411,-9.96727 -59.29864,-19.7805 -1.80723,-2.62445 -1.93978,-3.31545 -2.17711,-11.34988 -0.30886,-10.4566 0.15138,-11.45452 3.46772,-7.51904 6.03167,7.15767 20.21699,12.65877 40.75834,15.80614 45.07135,6.90588 95.4902,-1.56461 106.36182,-17.86906 0.65015,-0.97503 1.44602,-1.77281 1.76859,-1.77281 0.91141,0 1.56937,14.71767 0.81563,18.24427 -3.42539,16.02671 -46.10025,27.30826 -91.69635,24.24088 z m 3.50534,-26.7219 c -29.53197,-1.42983 -56.46618,-10.18715 -62.70382,-20.38739 -8.54685,-13.97643 17.26122,-27.62288 58.39695,-30.87833 11.57824,-0.91631 34.0215,-0.36909 44.1866,1.07736 11.93816,1.69877 19.87052,3.6014 28.76955,6.90066 13.03941,4.83424 19.53547,10.6038 19.53547,17.35069 0,16.08816 -41.21712,28.211 -88.18475,25.93701 z"
       style="fill:#f03916;fill-opacity:1" />
  </g>
</svg>
