<?xml version="1.0" encoding="UTF-8" standalone="no"?>
<!-- Created with Inkscape (http://www.inkscape.org/) -->

<svg
   xmlns:dc="http://purl.org/dc/elements/1.1/"
   xmlns:cc="http://creativecommons.org/ns#"
   xmlns:rdf="http://www.w3.org/1999/02/22-rdf-syntax-ns#"
   xmlns:svg="http://www.w3.org/2000/svg"
   xmlns="http://www.w3.org/2000/svg"
   xmlns:sodipodi="http://sodipodi.sourceforge.net/DTD/sodipodi-0.dtd"
   xmlns:inkscape="http://www.inkscape.org/namespaces/inkscape"
   width="500"
   height="500"
   id="svg2"
   version="1.1"
   inkscape:version="0.48.5 r10040"
   sodipodi:docname="application-x-kexi-connectiondata.svg">
  <defs
     id="defs4" />
  <sodipodi:namedview
     id="base"
     pagecolor="#ffffff"
     bordercolor="#666666"
     borderopacity="1.0"
     inkscape:pageopacity="0.0"
     inkscape:pageshadow="2"
     inkscape:zoom="0.30333333"
     inkscape:cx="-190.82087"
     inkscape:cy="297.80985"
     inkscape:document-units="px"
     inkscape:current-layer="layer1"
     showgrid="false"
     inkscape:window-width="1366"
     inkscape:window-height="716"
     inkscape:window-x="0"
     inkscape:window-y="0"
     inkscape:window-maximized="1" />
  <metadata
     id="metadata7">
    <rdf:RDF>
      <cc:Work
         rdf:about="">
        <dc:format>image/svg+xml</dc:format>
        <dc:type
           rdf:resource="http://purl.org/dc/dcmitype/StillImage" />
        <dc:title />
      </cc:Work>
    </rdf:RDF>
  </metadata>
  <g
     inkscape:label="Layer 1"
     inkscape:groupmode="layer"
     id="layer1"
     transform="translate(0,-552.36218)">
    <rect
       style="fill:#ffffff;fill-opacity:1;stroke:none"
       id="rect3000"
       width="450"
       height="450"
       x="25"
       y="577.36218"
       ry="55.366497" />
    <path
       style="fill:#e3d7f4;stroke:#000000;stroke-width:0.91666669000000001px;stroke-linecap:butt;stroke-linejoin:miter;stroke-opacity:1"
       d="M 292.96304,947.1753 C 180.1144,944.57596 158.34078,917.79345 158.34078,917.79345 l 0,-129.28011 c 0,0 20.8887,-25.89336 121.26687,-29.91606 100.37818,-4.0227 141.03285,29.38185 141.03285,29.38185 l 0,124.47217 c 0,0 -14.82883,37.32333 -127.67746,34.724 z"
       id="path3779"
       inkscape:connector-curvature="0"
       sodipodi:nodetypes="zcczccz" />
    <path
       style="fill:#2d1650;stroke:none;stroke-width:1px;stroke-linecap:butt;stroke-linejoin:miter;stroke-opacity:1;fill-opacity:1"
       d="M 100,475 100,25 C 100,25 61.202184,19.758699 40.940323,41.934658 20.678462,64.110616 25,90.3 25,90.3 L 25,410 c 0,0 -3.104929,34.44943 20.038287,52.1379 C 68.181502,479.82637 100,475 100,475 z"
       id="path3770"
       inkscape:connector-curvature="0"
       transform="translate(0,552.36218)"
       sodipodi:nodetypes="cczcczc" />
    <path
       inkscape:connector-curvature="0"
       style="fill:#2d1650;fill-opacity:1;stroke:none;stroke-opacity:1"
       d="M 287.49919,752.3638 C 211.56051,752.3638 150,769.15308 150,789.86358 l 0,62.49963 0,49.99971 0,12.49992 a 137.49919,37.499779 0 0 0 12.49992,15.52729 137.49919,37.499779 0 0 0 0.14626,0.075 137.49919,37.499779 0 0 0 5.95708,3.14937 137.49919,37.499779 0 0 0 0.39,0.17124 137.49919,37.499779 0 0 0 6.88472,2.90524 137.49919,37.499779 0 0 0 0.80624,0.2925 137.49919,37.499779 0 0 0 7.37295,2.51472 137.49919,37.499779 0 0 0 1.66012,0.5125 137.49919,37.499779 0 0 0 8.12983,2.24599 137.49919,37.499779 0 0 0 1.24499,0.3175 137.49919,37.499779 0 0 0 9.66795,2.19724 137.49919,37.499779 0 0 0 0.65874,0.125 137.49919,37.499779 0 0 0 10.18056,1.87986 137.49919,37.499779 0 0 0 1.73337,0.2925 137.49919,37.499779 0 0 0 9.74119,1.44049 137.49919,37.499779 0 0 0 2.75874,0.36625 137.49919,37.499779 0 0 0 9.20407,1.02499 137.49919,37.499779 0 0 0 4.58985,0.46375 137.49919,37.499779 0 0 0 6.7382,0.56125 137.49919,37.499779 0 0 0 7.39747,0.5125 137.49919,37.499779 0 0 0 6.12783,0.31749 137.49919,37.499779 0 0 0 7.2022,0.2925 137.49919,37.499779 0 0 0 5.7861,0.17125 137.49919,37.499779 0 0 0 10.62007,0.14499 137.49919,37.499779 0 0 0 11.98729,-0.17124 137.49919,37.499779 0 0 0 5.17572,-0.17125 137.49919,37.499779 0 0 0 8.95995,-0.36625 137.49919,37.499779 0 0 0 4.32122,-0.26874 137.49919,37.499779 0 0 0 8.83784,-0.61 137.49919,37.499779 0 0 0 3.97947,-0.36625 137.49919,37.499779 0 0 0 9.59469,-0.95249 137.49919,37.499779 0 0 0 2.24611,-0.26875 137.49919,37.499779 0 0 0 10.10732,-1.34274 137.49919,37.499779 0 0 0 2.66111,-0.44 137.49919,37.499779 0 0 0 8.4717,-1.39162 137.49919,37.499779 0 0 0 3.90623,-0.75749 137.49919,37.499779 0 0 0 7.4462,-1.5625 137.49919,37.499779 0 0 0 2.44136,-0.58624 137.49919,37.499779 0 0 0 8.27633,-2.09962 137.49919,37.499779 0 0 0 0.17125,-0.05 137.49919,37.499779 0 0 0 0.2925,-0.1 137.49919,37.499779 0 0 0 8.76457,-2.73437 137.49919,37.499779 0 0 0 7.95896,-3.05173 137.49919,37.499779 0 0 0 0.025,0 137.49919,37.499779 0 0 0 0.075,-0.025 137.49919,37.499779 0 0 0 6.68946,-3.17374 137.49919,37.499779 0 0 0 0.075,-0.05 137.49919,37.499779 0 0 0 2.53736,-1.43411 A 137.49919,37.499779 0 0 0 425,914.86288 l 0,-12.49993 0,-49.9997 0,-62.49964 c 0,-20.7105 -61.56038,-37.49978 -137.49919,-37.49978 z m 0,199.99882 -12.49993,0 0,37.49978 12.49993,0 0,12.4999 -99.99941,0 0,-12.4999 -37.49978,0 0,37.4998 37.49978,0 0,-12.4999 99.99941,0 12.49993,0 87.49949,0 0,12.4999 37.49978,0 0,-37.4998 -37.49978,0 0,12.4999 -87.49949,0 0,-12.4999 12.49993,0 0,-37.49978 -24.99986,0 z m 0,-187.49889 c 69.03522,0 124.99926,11.1928 124.99926,24.99985 0,13.80704 -55.96404,24.99985 -124.99926,24.99985 -69.0351,0 -124.99927,-11.19281 -124.99927,-24.99985 0,-13.80705 55.96417,-24.99985 124.99927,-24.99985 z m -124.99927,40.52713 c 22.29625,13.36767 71.15171,21.9555 124.99927,21.9725 53.84756,-0.0125 102.70302,-8.60483 124.99926,-21.9725 l 0,46.97235 c 0,13.80705 -55.96404,24.99985 -124.99926,24.99985 -69.0351,0 -124.99927,-11.1928 -124.99927,-24.99985 l 0,-46.97235 z m 0,62.49963 c 22.29625,13.36768 71.15171,21.9555 124.99927,21.9725 53.84756,-0.0125 102.70302,-8.60482 124.99926,-21.9725 l 0,21.9725 0,9.47257 0,3.02736 0,12.49992 A 124.99926,24.999853 0 0 1 287.49919,939.8627 124.99926,24.999853 0 0 1 162.49992,914.86284 l 0,-12.49992 0,-3.02736 0,-9.47257 0,-21.9725 z m 124.99927,96.97205 12.49993,0 0,12.49994 -12.49993,0 0,-12.49994 z m -124.99927,37.49976 12.49994,0 0,12.5 -12.49994,0 0,-12.5 z m 237.49861,0 12.49992,0 0,12.5 -12.49992,0 0,-12.5 z"
       id="rect4185" />
  </g>
</svg>
