<?xml version="1.0" encoding="UTF-8" standalone="no"?>
<!-- Created with Inkscape (http://www.inkscape.org/) -->

<svg
   xmlns:dc="http://purl.org/dc/elements/1.1/"
   xmlns:cc="http://creativecommons.org/ns#"
   xmlns:rdf="http://www.w3.org/1999/02/22-rdf-syntax-ns#"
   xmlns:svg="http://www.w3.org/2000/svg"
   xmlns="http://www.w3.org/2000/svg"
   xmlns:sodipodi="http://sodipodi.sourceforge.net/DTD/sodipodi-0.dtd"
   xmlns:inkscape="http://www.inkscape.org/namespaces/inkscape"
   width="500"
   height="500"
   id="svg2"
   version="1.1"
   inkscape:version="0.48.5 r10040"
   sodipodi:docname="application-vnd.ms-powerpoint.svg">
  <defs
     id="defs4" />
  <sodipodi:namedview
     id="base"
     pagecolor="#ffffff"
     bordercolor="#666666"
     borderopacity="1.0"
     inkscape:pageopacity="0.0"
     inkscape:pageshadow="2"
     inkscape:zoom="0.60666665"
     inkscape:cx="340.0084"
     inkscape:cy="316.99586"
     inkscape:document-units="px"
     inkscape:current-layer="layer1"
     showgrid="false"
     inkscape:window-width="1366"
     inkscape:window-height="716"
     inkscape:window-x="0"
     inkscape:window-y="0"
     inkscape:window-maximized="1" />
  <metadata
     id="metadata7">
    <rdf:RDF>
      <cc:Work
         rdf:about="">
        <dc:format>image/svg+xml</dc:format>
        <dc:type
           rdf:resource="http://purl.org/dc/dcmitype/StillImage" />
        <dc:title />
      </cc:Work>
    </rdf:RDF>
  </metadata>
  <g
     inkscape:label="Layer 1"
     inkscape:groupmode="layer"
     id="layer1"
     transform="translate(0,-552.36218)">
    <rect
       style="fill:#ffffff;fill-opacity:1;stroke:none"
       id="rect3000"
       width="450"
       height="450"
       x="25"
       y="577.36218"
       ry="55.366497" />
    <path
       style="fill:#ff6600;stroke:none;stroke-width:1px;stroke-linecap:butt;stroke-linejoin:miter;stroke-opacity:1;fill-opacity:1"
       d="M 100,475 100,25 C 100,25 61.202184,19.758699 40.940323,41.934658 20.678462,64.110616 25,90.3 25,90.3 L 25,410 c 0,0 -3.104929,34.44943 20.038287,52.1379 C 68.181502,479.82637 100,475 100,475 z"
       id="path3770"
       inkscape:connector-curvature="0"
       transform="translate(0,552.36218)"
       sodipodi:nodetypes="cczcczc" />
    <rect
       style="fill:#ffb380;fill-opacity:1;stroke:none"
       id="rect2990"
       width="300"
       height="199.14894"
       x="150"
       y="828.21326" />
    <rect
       style="fill:#ff6600;fill-opacity:1;stroke:none"
       id="rect2990-3"
       width="233.20099"
       height="12.292208"
       x="184.06703"
       y="847.1936" />
    <rect
       style="fill:#ff6600;fill-opacity:1;stroke:none"
       id="rect2990-3-6"
       width="160.98582"
       height="12.292208"
       x="218.36923"
       y="872.92023" />
    <rect
       style="fill:#ff6600;fill-opacity:1;stroke:none"
       id="rect2990-3-6-7"
       width="78.841072"
       height="12.292208"
       x="193.54527"
       y="925.7276" />
    <rect
       style="fill:#ff6600;fill-opacity:1;stroke:none"
       id="rect2990-3-6-7-5"
       width="13.84743"
       height="12.292208"
       x="168.72133"
       y="925.7276" />
    <rect
       style="fill:#ff6600;fill-opacity:1;stroke:none"
       id="rect2990-3-6-7-3"
       width="78.841072"
       height="12.292208"
       x="192.86826"
       y="946.4895" />
    <rect
       style="fill:#ff6600;fill-opacity:1;stroke:none"
       id="rect2990-3-6-7-5-5"
       width="13.84743"
       height="12.292208"
       x="168.04431"
       y="946.4895" />
    <rect
       style="fill:#ff6600;fill-opacity:1;stroke:none"
       id="rect2990-3-6-7-6"
       width="78.841072"
       height="12.292208"
       x="192.86826"
       y="967.7027" />
    <rect
       style="fill:#ff6600;fill-opacity:1;stroke:none"
       id="rect2990-3-6-7-5-2"
       width="13.84743"
       height="12.292208"
       x="168.04431"
       y="967.7027" />
    <rect
       style="fill:#ff6600;fill-opacity:1;stroke:none"
       id="rect2990-3-6-7-9"
       width="78.841072"
       height="12.292208"
       x="192.86826"
       y="990.26996" />
    <rect
       style="fill:#ff6600;fill-opacity:1;stroke:none"
       id="rect2990-3-6-7-5-1"
       width="13.84743"
       height="12.292208"
       x="168.04431"
       y="990.26996" />
    <rect
       style="fill:#ffffff;fill-opacity:1;stroke:none"
       id="rect2990-2"
       width="124.03847"
       height="94.468086"
       x="307.65955"
       y="915.02173" />
    <path
       style="fill:#ffcc00"
       d="m 374.1762,1005.4181 h -9.80882 c -1.35423,0 -2.45234,-1.098 -2.45234,-2.4523 v -39.23565 c 0,-1.3541 1.09811,-2.45233 2.45234,-2.45233 h 9.80882 c 1.35422,0 2.45233,1.09823 2.45233,2.45233 v 39.23565 c 0,1.3543 -1.09811,2.4523 -2.45233,2.4523 z"
       id="path17"
       inkscape:connector-curvature="0" />
    <path
       style="fill:#f03916;fill-opacity:1"
       d="m 352.10622,1005.4181 h -9.80882 c -1.35423,0 -2.45235,-1.098 -2.45235,-2.4523 v -26.97448 c 0,-1.35427 1.09812,-2.45233 2.45235,-2.45233 h 9.80882 c 1.35423,0 2.45235,1.09806 2.45235,2.45233 v 26.97448 c 0,1.3543 -1.09812,2.4523 -2.45235,2.4523 z"
       id="path21"
       inkscape:connector-curvature="0" />
    <path
       style="fill:#004455"
       d="m 330.03624,1005.4181 h -9.80881 c -1.35423,0 -2.45234,-1.098 -2.45234,-2.4523 v -14.71348 c 0,-1.35427 1.09811,-2.45233 2.45234,-2.45233 h 9.80881 c 1.35425,0 2.45234,1.09806 2.45234,2.45233 v 14.71348 c -2.6e-4,1.3543 -1.09809,2.4523 -2.45234,2.4523 z"
       id="path25"
       inkscape:connector-curvature="0" />
    <path
       style="fill:#45d03f;fill-opacity:1"
       d="m 396.24617,1005.4181 h -9.8088 c -1.35424,0 -2.45235,-1.098 -2.45235,-2.4523 v -26.97448 c 0,-1.35427 1.09811,-2.45233 2.45235,-2.45233 h 9.8088 c 1.35423,0 2.45234,1.09806 2.45234,2.45233 v 26.97448 c 0,1.3543 -1.09811,2.4523 -2.45234,2.4523 z"
       id="path29"
       inkscape:connector-curvature="0" />
    <path
       style="fill:#00bbf2;fill-opacity:1"
       d="m 418.31643,1005.4181 h -9.80884 c -1.35421,0 -2.45233,-1.098 -2.45233,-2.4523 v -53.94915 c 0,-1.3541 1.09812,-2.45233 2.45233,-2.45233 h 9.80884 c 1.35422,0 2.45233,1.09823 2.45233,2.45233 v 53.94915 c -2.5e-4,1.3543 -1.09811,2.4523 -2.45233,2.4523 z"
       id="path33"
       inkscape:connector-curvature="0" />
    <path
       style="fill:#394050"
       d="M 425.6729,1007.8698 H 312.87069 c -1.35424,0 -2.45235,-1.098 -2.45235,-2.4523 l 0,0 c 0,-1.3543 1.09811,-2.4523 2.45235,-2.4523 h 112.80249 c 1.35422,0 2.45235,1.098 2.45235,2.4523 l 0,0 c -2.8e-4,1.3549 -1.09813,2.4523 -2.45263,2.4523 z"
       id="path37"
       inkscape:connector-curvature="0" />
    <path
       style="fill:none;stroke:#394050;stroke-width:2.61571527;stroke-linecap:butt;stroke-linejoin:miter;stroke-miterlimit:4;stroke-opacity:1;stroke-dasharray:none"
       d="m 316.627,981.0676 55.08931,-29.59352 19.12192,17.30083 24.35767,-48.71538"
       id="path2998"
       inkscape:connector-curvature="0" />
    <path
       style="fill:none;stroke:#394050;stroke-width:2.61571527;stroke-linecap:butt;stroke-linejoin:miter;stroke-miterlimit:4;stroke-opacity:1;stroke-dasharray:none"
       d="m 416.13369,919.3934 -9.81541,4.26399"
       id="path3768"
       inkscape:connector-curvature="0" />
    <path
       style="fill:none;stroke:#394050;stroke-width:2.61571527;stroke-linecap:butt;stroke-linejoin:miter;stroke-miterlimit:4;stroke-opacity:1;stroke-dasharray:none"
       d="m 418.81704,928.7414 -4.40485,-10.01249"
       id="path3770-3"
       inkscape:connector-curvature="0" />
  </g>
</svg>
