<?xml version="1.0" encoding="UTF-8" standalone="no"?>
<!-- Created with Inkscape (http://www.inkscape.org/) -->

<svg
   xmlns:dc="http://purl.org/dc/elements/1.1/"
   xmlns:cc="http://creativecommons.org/ns#"
   xmlns:rdf="http://www.w3.org/1999/02/22-rdf-syntax-ns#"
   xmlns:svg="http://www.w3.org/2000/svg"
   xmlns="http://www.w3.org/2000/svg"
   xmlns:xlink="http://www.w3.org/1999/xlink"
   xmlns:sodipodi="http://sodipodi.sourceforge.net/DTD/sodipodi-0.dtd"
   xmlns:inkscape="http://www.inkscape.org/namespaces/inkscape"
   width="500"
   height="500"
   id="svg2"
   version="1.1"
   inkscape:version="0.91 r13725"
   sodipodi:docname="application-vnd.stardivision.mail.svg">
  <defs
     id="defs4">
    <radialGradient
       inkscape:collect="always"
       xlink:href="#SVGID_24_"
       id="radialGradient4031"
       gradientUnits="userSpaceOnUse"
       gradientTransform="matrix(0.205,0,0,-0.205,-254.2424,82.5027)"
       cx="1311.9355"
       cy="-1874.3018"
       r="8.5094995" />
    <radialGradient
       id="SVGID_24_"
       cx="1311.9355"
       cy="-1874.3018"
       r="8.5094995"
       gradientTransform="matrix(0.205,0,0,-0.205,-254.2424,82.5027)"
       gradientUnits="userSpaceOnUse">
      <stop
         offset="0"
         stop-color="#600000"
         id="stop222" />
      <stop
         offset="0.5"
         stop-color="#C00000"
         id="stop224" />
      <stop
         offset="1"
         stop-color="#F6AA00"
         id="stop226" />
    </radialGradient>
    <radialGradient
       inkscape:collect="always"
       xlink:href="#SVGID_25_"
       id="radialGradient4033"
       gradientUnits="userSpaceOnUse"
       gradientTransform="matrix(0.205,0,0,-0.205,-254.2424,82.5027)"
       cx="1312.9648"
       cy="-1872.2422"
       r="3.7997" />
    <radialGradient
       id="SVGID_25_"
       cx="1312.9648"
       cy="-1872.2422"
       r="3.7997"
       gradientTransform="matrix(0.205,0,0,-0.205,-254.2424,82.5027)"
       gradientUnits="userSpaceOnUse">
      <stop
         offset="0.01"
         stop-color="#FFF"
         id="stop231" />
      <stop
         offset="1"
         stop-color="#000"
         id="stop233" />
    </radialGradient>
    <radialGradient
       inkscape:collect="always"
       xlink:href="#SVGID_26_"
       id="radialGradient4035"
       gradientUnits="userSpaceOnUse"
       gradientTransform="matrix(0.205,0,0,-0.205,-254.2424,82.5027)"
       cx="1304.8555"
       cy="-1894.6313"
       r="12.9691" />
    <radialGradient
       id="SVGID_26_"
       cx="1304.8555"
       cy="-1894.6313"
       r="12.9691"
       gradientTransform="matrix(0.205,0,0,-0.205,-254.2424,82.5027)"
       gradientUnits="userSpaceOnUse">
      <stop
         offset="0"
         stop-color="#769EB8"
         id="stop238" />
      <stop
         offset="1"
         stop-color="#FFF"
         id="stop240" />
    </radialGradient>
    <radialGradient
       inkscape:collect="always"
       xlink:href="#SVGID_27_"
       id="radialGradient4037"
       gradientUnits="userSpaceOnUse"
       gradientTransform="matrix(0.205,0,0,-0.205,-254.2424,82.5027)"
       cx="1300.6055"
       cy="-1889.6313"
       r="3.7781999" />
    <radialGradient
       id="SVGID_27_"
       cx="1300.6055"
       cy="-1889.6313"
       r="3.7781999"
       gradientTransform="matrix(0.205,0,0,-0.205,-254.2424,82.5027)"
       gradientUnits="userSpaceOnUse">
      <stop
         offset="0.01"
         stop-color="#FFF"
         id="stop247" />
      <stop
         offset="1"
         stop-color="#000"
         id="stop249" />
    </radialGradient>
    <radialGradient
       r="3.7781999"
       cy="-1889.6313"
       cx="1300.6055"
       gradientTransform="matrix(0.205,0,0,-0.205,-254.2424,82.5027)"
       gradientUnits="userSpaceOnUse"
       id="radialGradient3158"
       xlink:href="#SVGID_27_"
       inkscape:collect="always" />
    <radialGradient
       inkscape:collect="always"
       xlink:href="#SVGID_27_"
       id="radialGradient3087"
       gradientUnits="userSpaceOnUse"
       gradientTransform="matrix(1.1384225,0,0,-1.1386863,-1279.0579,-1283.5705)"
       cx="1300.6055"
       cy="-1889.6313"
       r="3.7781999" />
    <radialGradient
       inkscape:collect="always"
       xlink:href="#SVGID_26_"
       id="radialGradient3091"
       gradientUnits="userSpaceOnUse"
       gradientTransform="matrix(1.1384225,0,0,-1.1386863,-1279.0579,-1283.5705)"
       cx="1304.8555"
       cy="-1894.6313"
       r="12.9691" />
    <radialGradient
       inkscape:collect="always"
       xlink:href="#SVGID_25_"
       id="radialGradient3094"
       gradientUnits="userSpaceOnUse"
       gradientTransform="matrix(1.1384225,0,0,-1.1386863,-1279.0579,-1283.5705)"
       cx="1312.9648"
       cy="-1872.2422"
       r="3.7997" />
    <radialGradient
       inkscape:collect="always"
       xlink:href="#SVGID_24_"
       id="radialGradient3097"
       gradientUnits="userSpaceOnUse"
       gradientTransform="matrix(1.1384225,0,0,-1.1386863,-1279.0579,-1283.5705)"
       cx="1311.9355"
       cy="-1874.3018"
       r="8.5094995" />
  </defs>
  <sodipodi:namedview
     id="base"
     pagecolor="#ffffff"
     bordercolor="#666666"
     borderopacity="1.0"
     inkscape:pageopacity="0.0"
     inkscape:pageshadow="2"
     inkscape:zoom="0.30333332"
     inkscape:cx="1128.0418"
     inkscape:cy="107.71253"
     inkscape:document-units="px"
     inkscape:current-layer="layer1"
     showgrid="false"
     inkscape:window-width="1366"
     inkscape:window-height="711"
     inkscape:window-x="0"
     inkscape:window-y="0"
     inkscape:window-maximized="1" />
  <metadata
     id="metadata7">
    <rdf:RDF>
      <cc:Work
         rdf:about="">
        <dc:format>image/svg+xml</dc:format>
        <dc:type
           rdf:resource="http://purl.org/dc/dcmitype/StillImage" />
        <dc:title />
      </cc:Work>
    </rdf:RDF>
  </metadata>
  <g
     inkscape:label="Layer 1"
     inkscape:groupmode="layer"
     id="layer1"
     transform="translate(0,-552.36218)">
    <path
       style="fill:#0b2228;fill-opacity:1;fill-rule:evenodd;stroke:none;stroke-width:1px;stroke-linecap:butt;stroke-linejoin:miter;stroke-opacity:1"
       d="M 63.03896,704.56391 116.261,756.66247 114.60095,683.62062 63,683.37552 Z"
       id="path4230"
       inkscape:connector-curvature="0"
       sodipodi:nodetypes="ccccc" />
    <path
       style="fill:#f2f2f2;fill-rule:evenodd;stroke:#afafaf;stroke-width:5.03546047;stroke-linecap:butt;stroke-linejoin:miter;stroke-miterlimit:4;stroke-dasharray:none;stroke-opacity:1"
       d="m 100.33767,1029.8357 336.88836,-1.1739 1.1738,-363.88644 -88.03697,-89.21086 -250.02519,0 z"
       id="path3364"
       inkscape:connector-curvature="0" />
    <path
       style="fill:#afafaf;fill-opacity:1;fill-rule:evenodd;stroke:#afafaf;stroke-width:5.03546047;stroke-linecap:butt;stroke-linejoin:miter;stroke-miterlimit:4;stroke-dasharray:none;stroke-opacity:1"
       d="m 431.51913,661.28285 -82.16435,-0.58691 0.75853,-83.80351 z"
       id="path4166"
       inkscape:connector-curvature="0"
       sodipodi:nodetypes="cccc" />
    <rect
       style="fill:#164450;fill-opacity:1;stroke:none;stroke-width:5;stroke-miterlimit:4;stroke-dasharray:none;stroke-opacity:1"
       id="rect4228"
       width="224.93568"
       height="84.350876"
       x="63.139675"
       y="620.53912" />
    <path
       style="fill:none;fill-rule:evenodd;stroke:#ffffff;stroke-width:9;stroke-linecap:butt;stroke-linejoin:miter;stroke-miterlimit:4;stroke-dasharray:none;stroke-opacity:1"
       d="m 234.05251,685.72765 0.47801,-52.10326 c 0,0 39.88141,-5.81127 40.39197,26.52965 0.51056,32.3409 -40.86998,25.57361 -40.86998,25.57361 z"
       id="path4271"
       inkscape:connector-curvature="0"
       sodipodi:nodetypes="cczc" />
    <path
       style="fill:none;fill-rule:evenodd;stroke:#ffffff;stroke-width:10;stroke-linecap:butt;stroke-linejoin:miter;stroke-miterlimit:4;stroke-dasharray:none;stroke-opacity:1"
       d="m 147.18352,636.42222 c 0,0 -9.26192,-4.269 -18.06619,-4.37085 -8.80427,-0.10185 -14.26789,5.23284 -14.5695,12.82117 -0.30162,7.58832 3.92901,13.66202 19.08605,15.44367 15.15704,1.78165 14.25231,15.00213 12.38407,19.66884 -1.86824,4.66671 -10.69001,9.07335 -19.66883,7.86753 -8.97882,-1.20582 -16.46354,-5.24502 -16.46354,-5.24502"
       id="path3353"
       inkscape:connector-curvature="0"
       sodipodi:nodetypes="czzzzzc" />
    <path
       d="m 336.73234,882.0736 -108.65549,40.89273 -49.94065,-79.44143 -21.79107,27.90059 14.97165,76.2531 139.08746,45.04199 32.68106,-55.52345 -6.35296,-55.12353 z"
       id="path22"
       style="fill:#cccccc;stroke:none"
       inkscape:connector-curvature="0" />
    <path
       d="m 336.73234,882.0736 -2.15467,-18.67445 -154.26458,-22.65708 -0.81633,1.03871 -1.36056,1.74412 49.94065,79.44143 108.65549,-40.89273 z"
       id="path38"
       style="fill:#ebebeb;stroke:none"
       inkscape:connector-curvature="0" />
    <path
       d="m 219.53035,963.29249 -48.21357,-15.6139 -5.71434,-23.9624 -10.11251,-3.31608 c 0,0 10.52901,33.02747 29.31021,59.56718 38.06219,26.53411 28.76044,13.6087 28.79931,13.6087 6.80833,3.98815 11.36201,3.98815 11.39534,3.98815 -0.0223,-3.98815 -17.10411,-4.838 -21.9077,-31.88875 5.09792,10.24818 25.59507,15.94161 26.76682,14.80292 0.7497,-0.76097 -2.49898,-6.35997 -9.74601,-16.79145 l -0.57755,-0.39437 z"
       id="path65"
       style="fill:#0b2228"
       inkscape:connector-curvature="0" />
    <path
       d="m 205.30841,990.16548 c 0,0 -24.31227,-1.65526 -45.00378,-42.6924 -12.21723,-42.45357 16.12117,24.41788 45.03154,42.6924 l -0.0277,0 z"
       id="path74"
       style="fill:#0b2228"
       inkscape:connector-curvature="0" />
    <path
       d="m 148.28176,896.52659 c 0,0 2.93769,64.01639 35.42438,74.5534 -16.53767,-22.49045 -21.22463,-66.3382 -21.19132,-66.3382 l -14.23306,-8.2152 z"
       id="path83"
       style="fill:#164450"
       inkscape:connector-curvature="0" />
    <path
       d="m 167.44614,937.20269 c -6.83053,1.42196 -19.78079,-22.49601 -19.31987,-47.26382 0.27212,-16.51374 3.10985,-29.70582 8.50763,-39.5763 l 5.69212,46.98053 c 0,0 0,32.17206 5.15899,39.86513 l -0.0388,0 z"
       id="path92"
       style="fill:#216778"
       inkscape:connector-curvature="0" />
    <path
       d="m 254.83812,788.85129 c 0,0 -78.00138,12.53111 -98.17646,61.50018 -13.83321,34.60494 17.47618,64.21635 22.20758,59.51719 -0.0222,0 -17.00415,-22.10718 -0.27211,-55.13464 11.12322,-22.02386 36.54059,-43.98107 76.24099,-65.88273 z"
       id="path94"
       style="fill:#00222b"
       inkscape:connector-curvature="0" />
    <path
       d="m 254.83812,788.85129 c 0,0 -78.00138,12.53111 -98.17646,61.50018 -13.83321,34.60494 17.47618,64.21635 22.20758,59.51719 -0.0222,0 -21.6578,-25.62877 -2.54896,-60.36705 12.7059,-23.15699 38.87296,-43.37561 78.51784,-60.65032 z"
       id="path103"
       style="fill:#00bbf2"
       inkscape:connector-curvature="0" />
    <path
       d="m 331.26236,801.52126 c -5.9198,-5.5379 -19.66416,-9.23724 -27.44986,-10.82029 -6.70836,-1.3442 -13.84988,-1.77747 -20.60823,-2.27738 -4.67585,-0.33327 -17.97042,-0.0834 -23.6181,0.49991 -14.25527,1.47752 -19.96404,6.74326 -31.42602,14.84736 -10.51235,7.39313 -25.97269,15.44726 -30.54303,28.37273 -3.62075,7.1765 -0.36097,18.63002 -0.19437,25.68432 l 0.19437,4.96578 c -0.21658,-0.34993 -0.31655,-0.57211 -0.28323,-0.57211 0.0334,0 -6.33073,15.70831 0.73859,22.77928 0.0666,-0.63877 0.21658,-1.26645 0.46648,-1.87745 l -0.45537,1.87745 c 0,0 3.08763,-5.649 8.75753,-8.59847 5.6699,-2.94948 10.87332,-5.55457 15.11047,-8.10967 4.23715,-2.54955 17.5095,-13.18654 28.33284,-12.43667 7.20815,0.50545 28.08293,4.17703 62.6299,11.00914 l 3.60408,-17.458 -6.53622,-4.93246 c 0.69416,-1.83301 1.22728,-3.78265 2.24353,-5.44347 2.47676,-4.27147 2.78775,-7.99303 2.74332,-12.86994 5.7643,-1.36086 12.21721,-3.73266 15.99345,-8.62623 3.20979,-4.28258 4.75361,-11.84235 0.33875,-16.01383 l -0.0388,0 z"
       id="path114"
       style="fill:#00222b"
       inkscape:connector-curvature="0" />
    <path
       d="m 331.26236,801.52126 c -5.9198,-5.5379 -19.66416,-9.23724 -27.44986,-10.82029 -6.70836,-1.3442 -13.84988,-1.77747 -20.60823,-2.27738 -4.67585,-0.33327 -17.97042,-0.0834 -23.6181,0.49991 -14.25527,1.47752 -19.96404,6.74326 -31.42602,14.84736 -10.51235,7.39313 -25.97269,15.44726 -30.54303,28.37273 -3.62075,7.1765 -0.36097,18.63002 -0.19437,25.68432 l 0.19437,4.96578 c -0.21658,-0.34993 -0.31655,-0.57211 -0.28323,-0.57211 0.0334,0 -6.33073,15.70831 0.73859,22.77928 0.7608,-7.40424 12.52266,-13.09767 12.56153,-13.09767 l 8.66866,-4.36034 c 1.32168,-0.89984 4.95353,-3.11056 6.11417,-4.27146 6.91383,-3.99929 12.7059,-8.39295 20.88033,-9.20392 10.78447,-1.08314 20.98585,3.71045 31.74256,2.54955 8.8186,-0.95539 20.87477,-2.21073 28.53831,-7.09318 3.59852,-2.31626 3.69848,-7.00432 5.78096,-10.49258 2.48232,-4.26036 2.7933,-7.99303 2.74332,-12.86994 5.76431,-1.36642 12.22277,-3.73266 15.9879,-8.6318 3.08206,-4.28256 4.62588,-11.84233 0.20546,-16.01381 l -0.0334,0 z"
       id="path123"
       style="fill:#00bbf2"
       inkscape:connector-curvature="0" />
    <path
       d="m 250.28443,782.59129 c -1.24394,0.52214 -2.50454,1.25534 -3.74847,2.1274 1.26615,-0.87761 2.52674,-1.61637 3.78178,-2.1274 l -0.0334,0 z m 0,0 c -10.96773,7.1154 -14.99942,21.83501 -14.96054,21.83501 1.11621,-0.47769 2.76553,-2.57176 4.98685,-5.13797 -1.3328,1.53862 -2.47121,2.91615 -3.37084,3.86042 0.0554,-0.27217 4.52036,-12.13117 13.37784,-20.55746 l -0.0334,0 z m -3.41527,-7.97635 c -24.47886,17.89126 -23.3571,32.25537 -23.31823,32.25537 0.34986,-0.1833 0.81079,-0.51102 1.36611,-0.95538 -0.0445,-0.0111 -0.69416,-11.05914 21.98544,-31.29999 l -0.0334,0 z m 6.06418,14.23635 c -5.64769,7.97637 -1.32168,9.68161 -1.2828,9.68161 0.0334,0.005 -1.6049,-2.64952 1.2828,-9.68161 z m -6.01976,3.71601 c 1.81037,-1.46641 3.81511,-2.78839 6.05864,-3.71044 -2.33238,0.96649 -4.32601,2.27736 -6.02532,3.71044 -0.0334,0 -0.0334,0 0,0 l -0.0334,0 z"
       id="path125"
       inkscape:connector-curvature="0"
       style="fill:#484848" />
    <path
       d="m 200.1383,826.90564 c 15.51032,-47.36935 46.73086,-52.2907 46.76418,-52.2907 -24.50663,17.89126 -23.37932,32.25537 -23.34599,32.25537 4.00946,-2.02742 16.8542,-20.10198 26.7557,-24.28456 -10.97883,7.1154 -15.01607,21.835 -14.98275,21.835 2.72111,-1.13869 8.42988,-11.72014 17.65943,-15.56946 -5.65879,7.97637 -1.3439,9.68161 -1.31057,9.68161 l -51.54,28.37274 z"
       id="path132"
       style="fill:#00bbf2"
       inkscape:connector-curvature="0" />
    <path
       d="m 385.69006,877.65772 -49.72406,-20.75186 -4.27047,48.11922 c 0.54421,3.1161 0.91072,6.47107 1.14951,10.02599 -0.0555,-0.58879 -0.0944,-1.1609 -0.1055,-1.73858 -4.13164,66.13823 -43.36002,100.00991 -63.0464,108.74181 24.73987,1.7107 39.9392,-6.8989 39.97252,-6.8989 0.0388,0 -3.31531,4.0549 -12.13947,9.4595 11.101,0 38.71746,-10.5315 44.15968,-21.6351 l 2.82107,1.1386 c -0.0111,0 53.78908,-37.59316 41.20534,-126.46068 l -0.0223,0 z"
       id="path134"
       style="fill:#0b2228"
       inkscape:connector-curvature="0" />
    <path
       d="m 332.85061,911.14066 c -8.85194,19.09104 -24.48997,21.21844 -24.45666,21.21844 0.0334,0 13.07242,2.27737 23.89021,-10.8203 1.54382,-1.89411 1.6049,-5.53791 0.59977,-10.39814 l -0.0334,0 z"
       id="path152"
       inkscape:connector-curvature="0" />
    <path
       d="m 385.69006,877.65772 -49.72406,-20.75186 -4.27047,48.11922 c 0.45536,2.6162 0.78301,5.40459 1.02735,8.33184 -0.0166,-0.0277 -0.0166,-0.05 0.0222,-0.05 0.0223,0.57767 0.0611,1.1498 0.12218,1.73858 -0.0555,-0.57212 -0.10551,-1.12757 -0.11661,-1.68303 -0.1666,2.39958 -0.37208,4.75471 -0.57755,7.08208 -0.63863,10.35926 -0.72748,29.59473 5.681,41.24821 4.35933,-6.59883 8.74086,-14.83069 10.27357,-23.07367 0.68306,8.37629 -3.28199,19.13549 -7.16372,27.484 1.28281,1.46085 2.7933,2.66063 4.51481,3.55491 0.64973,0.27218 1.31058,0.4777 2.00473,0.64989 5.45333,-6.7488 14.31636,-19.21325 16.61542,-31.6888 0.79413,9.83713 -4.80358,23.00146 -9.19067,31.6277 18.69233,-5.11575 31.43712,-46.13624 31.69812,-46.86944 -0.0223,-0.0111 -0.0223,-0.0111 0.0111,-0.0223 1.46051,-13.40318 1.49938,-28.60048 -0.89964,-45.70854 l -0.0277,0 z"
       id="path161"
       style="fill:#164450"
       inkscape:connector-curvature="0" />
    <path
       d="m 346.78379,900.18149 c 3.12649,18.22454 -9.11295,44.992 -9.07962,44.992 0.0334,0 18.28695,-3.58826 26.36143,-42.50355 0,0 -1.72152,27.02296 -5.28117,33.39405 -0.0277,0 17.62611,-8.25408 21.36346,-41.85366 3.73181,-33.59958 -20.51937,-54.10148 -28.20511,-50.11331 -5.12567,2.65508 -6.84164,21.35176 -5.15899,56.08447 z"
       id="path174"
       style="fill:#216778"
       inkscape:connector-curvature="0" />
    <path
       d="m 386.3398,881.55147 c 0,-0.0111 0,-0.0111 0.0334,-0.0223 -1.84369,-11.92566 -5.04238,-23.25697 -9.35172,-33.4496 -11.07325,-25.98982 -29.48238,-41.85922 -50.77366,-48.4025 -48.41904,-4.55475 -72.32592,29.41699 -72.2926,29.41699 18.24253,0 37.77896,5.85451 50.50154,24.39566 14.62178,21.42396 20.11953,57.19538 3.9817,78.87485 -0.0223,0 33.56958,-4.55474 30.18763,-60.36703 -0.0223,0 11.93399,23.3514 -3.40416,55.52345 -0.0223,0 31.00953,-7.68752 21.36903,-67.47689 -0.0223,0 7.09153,13.66424 4.84801,45.26973 -0.0223,0 12.78921,-8.90953 12.82252,-36.16024 -0.0223,0 8.8075,28.756 0.0111,46.98053 -0.0223,0 0.12773,-0.50546 0.80523,-1.00537 2.74332,-2.32737 13.51668,-11.52572 11.30093,-33.57737 l -0.0388,0 z"
       id="path183"
       style="fill:#00bbf2"
       inkscape:connector-curvature="0" />
    <path
       d="m 209.38452,863.93239 c 26.47248,-0.85541 12.4338,-18.89664 47.76932,-53.06279 -28.78821,16.70814 -58.77038,16.33043 -47.73045,53.06279 l -0.0388,0 z"
       id="path210"
       style="fill:#216778"
       inkscape:connector-curvature="0" />
    <path
       d="m 209.38452,863.93239 c 4.65364,-6.74325 20.40275,-32.93859 47.76932,-53.06279 -28.78821,16.70814 -58.77038,16.33043 -47.73045,53.06279 l -0.0388,0 z"
       id="path217"
       style="fill:#216778"
       inkscape:connector-curvature="0" />
    <path
       d="m 223.02337,853.40092 c -4.97574,4.97689 -10.93441,3.81599 -11.40088,-2.74395 -0.72748,-9.27058 9.21289,-10.25373 13.5389,-8.83732 1.46051,4.19925 -0.38874,8.30408 -2.1047,11.58127"
       id="path219"
       inkscape:connector-curvature="0"
       style="fill:#000064" />
    <path
       d="m 223.50095,852.15669 c -1.6049,2.99392 -5.35336,4.19927 -7.42473,3.07724 -2.1158,-1.12757 -2.10469,-4.89913 -0.46648,-7.89304 1.5827,-2.99947 8.57427,-1.64971 8.60759,-1.64971 0.0334,-0.005 0.88852,3.48271 -0.71638,6.46551 z"
       id="path228"
       inkscape:connector-curvature="0"
       style="fill:url(#radialGradient3097)" />
    <path
       d="m 216.43164,852.34 c 1.4605,1.82189 3.69291,2.47179 5.00905,1.44419 1.26615,-1.0387 1.84369,-4.07705 0.41094,-5.89895 -1.48272,-1.83301 -4.42597,-1.73858 -5.681,-0.71655 -1.34389,1.0276 -1.20507,3.34941 0.29431,5.17131 l -0.0334,0 z"
       id="path235"
       inkscape:connector-curvature="0"
       style="fill:url(#radialGradient3094)" />
    <path
       d="m 210.91166,871.51992 c 0,0 0,-2.84949 -0.82188,-5.69343 -9.80154,3.32719 -12.83363,-3.59936 -12.80032,-3.59936 0.0334,0 -6.34183,15.70832 0.72749,22.77928 0.7608,-7.40423 12.52265,-13.09767 12.56152,-13.09767"
       id="path242"
       inkscape:connector-curvature="0"
       style="fill:url(#radialGradient3091)" />
    <path
       d="m 210.52294,871.90319 0.38872,-0.38327 c 0,0 0,-2.84949 -0.82188,-5.69343 -15.58805,8.34851 -12.07839,19.17992 -12.04506,19.17992 0.71637,-7.40423 12.47822,-13.09767 12.51153,-13.09767 l -0.0334,0 z"
       id="path244"
       inkscape:connector-curvature="0"
       style="fill:#484848" />
    <path
       d="m 197.97253,872.43087 c 0,0 0.0834,-4.70472 2.22131,-5.56012 -0.0223,0.92761 1.07178,1.63859 2.17689,1.63859 -2.98212,0.2944 -4.3982,3.92153 -4.35934,3.92153 l -0.0388,0 z"
       id="path251"
       inkscape:connector-curvature="0"
       style="fill:url(#radialGradient3087)" />
    <path
       style="fill:none;fill-rule:evenodd;stroke:#ffffff;stroke-width:9;stroke-linecap:butt;stroke-linejoin:miter;stroke-miterlimit:4;stroke-dasharray:none;stroke-opacity:1"
       d="m 165.03793,689.6905 0.29139,-54.56281 5.02648,-0.21854 15.88077,41.30456 3.35098,0 15.95362,-41.30456 5.24502,-0.0729 0,54.9999"
       id="path4260"
       inkscape:connector-curvature="0"
       sodipodi:nodetypes="cccccccc" />
  </g>
</svg>
