<?xml version="1.0" encoding="UTF-8" standalone="no"?>
<!-- Created with Inkscape (http://www.inkscape.org/) -->

<svg
   xmlns:dc="http://purl.org/dc/elements/1.1/"
   xmlns:cc="http://creativecommons.org/ns#"
   xmlns:rdf="http://www.w3.org/1999/02/22-rdf-syntax-ns#"
   xmlns:svg="http://www.w3.org/2000/svg"
   xmlns="http://www.w3.org/2000/svg"
   xmlns:sodipodi="http://sodipodi.sourceforge.net/DTD/sodipodi-0.dtd"
   xmlns:inkscape="http://www.inkscape.org/namespaces/inkscape"
   width="500"
   height="500"
   id="svg2"
   version="1.1"
   inkscape:version="0.91 r13725"
   sodipodi:docname="application-x-trash.svg">
  <defs
     id="defs4" />
  <sodipodi:namedview
     id="base"
     pagecolor="#ffffff"
     bordercolor="#666666"
     borderopacity="1.0"
     inkscape:pageopacity="0.0"
     inkscape:pageshadow="2"
     inkscape:zoom="0.8499729"
     inkscape:cx="553.55329"
     inkscape:cy="206.03311"
     inkscape:document-units="px"
     inkscape:current-layer="layer1"
     showgrid="false"
     inkscape:window-width="1366"
     inkscape:window-height="711"
     inkscape:window-x="0"
     inkscape:window-y="0"
     inkscape:window-maximized="1" />
  <metadata
     id="metadata7">
    <rdf:RDF>
      <cc:Work
         rdf:about="">
        <dc:format>image/svg+xml</dc:format>
        <dc:type
           rdf:resource="http://purl.org/dc/dcmitype/StillImage" />
        <dc:title />
      </cc:Work>
    </rdf:RDF>
  </metadata>
  <g
     inkscape:label="Layer 1"
     inkscape:groupmode="layer"
     id="layer1"
     transform="translate(0,-552.36218)">
    <path
       style="fill:#646464;fill-opacity:1;fill-rule:evenodd;stroke:none;stroke-width:1px;stroke-linecap:butt;stroke-linejoin:miter;stroke-opacity:1"
       d="M 63.03896,706.21223 116.261,758.31079 114.60095,685.26894 63,685.02384 Z"
       id="path4230"
       inkscape:connector-curvature="0"
       sodipodi:nodetypes="ccccc" />
    <path
       style="fill:#f2f2f2;fill-rule:evenodd;stroke:#afafaf;stroke-width:5.03546047;stroke-linecap:butt;stroke-linejoin:miter;stroke-miterlimit:4;stroke-dasharray:none;stroke-opacity:1"
       d="m 97.04097,1029.8357 336.88832,-1.1739 1.1738,-363.88647 -88.03693,-89.21086 -250.02519,0 z"
       id="path3364"
       inkscape:connector-curvature="0" />
    <path
       style="fill:#afafaf;fill-opacity:1;fill-rule:evenodd;stroke:#afafaf;stroke-width:5.03546047;stroke-linecap:butt;stroke-linejoin:miter;stroke-miterlimit:4;stroke-dasharray:none;stroke-opacity:1"
       d="m 431.51899,662.93117 -82.16421,-0.58691 0.75853,-83.80351 z"
       id="path4166"
       inkscape:connector-curvature="0"
       sodipodi:nodetypes="cccc" />
    <rect
       style="fill:#999999;fill-opacity:1;stroke:none;stroke-width:5;stroke-miterlimit:4;stroke-dasharray:none;stroke-opacity:1"
       id="rect4228"
       width="215.04558"
       height="84.350876"
       x="63.139713"
       y="622.18744" />
    <path
       inkscape:connector-curvature="0"
       id="path3340"
       d="m 256.03775,855.62628 c -33.2827,-1.65925 -64.03854,-10.87692 -77.31992,-23.17315 -3.37046,-3.12043 -6.05728,-7.57148 -6.04792,-10.01908 0.0158,-4.14235 5.10956,-10.3323 12.25543,-14.89301 30.58213,-19.51838 93.86803,-24.71605 140.2601,-11.51956 16.02482,4.55835 28.13304,10.76933 34.82169,17.862 4.52222,4.79538 5.37491,7.83819 3.4096,12.16704 -4.61768,10.17099 -25.18005,20.52664 -51.05251,25.71114 -10.414,2.08682 -20.32835,3.27164 -32.6117,3.89724 -10.75177,0.5476 -12.11392,0.54572 -23.71477,-0.0326 z"
       style="fill:#cccccc;fill-opacity:0.58823529;stroke-width:0.78468841" />
    <path
       inkscape:connector-curvature="0"
       id="path3340-3"
       d="m 259.38796,1027.5711 c -25.53629,-1.273 -49.13384,-8.3453 -59.32404,-17.7797 -2.586,-2.3941 -4.64748,-5.8093 -4.64029,-7.6872 0.0121,-3.17818 3.92033,-7.92751 9.40303,-11.42668 23.46427,-14.97558 72.02065,-18.9635 107.61516,-8.8385 12.29511,3.49742 21.58519,8.26283 26.71708,13.70467 3.4697,3.67933 4.12393,6.01391 2.61604,9.33521 -3.54294,7.8039 -19.31951,15.7493 -39.17027,19.7271 -7.99018,1.6011 -15.597,2.5102 -25.02145,2.9902 -8.24935,0.4201 -9.29446,0.4187 -18.19526,-0.025 z"
       style="fill:#cccccc;fill-opacity:0.58823529;stroke-width:0.78468841" />
    <path
       inkscape:connector-curvature="0"
       id="path3348"
       d="m 257.68885,1027.6396 c -27.34965,-1.8749 -49.61593,-9.344 -59.2366,-19.8706 -3.42557,-3.7481 -4.35271,-5.7555 -5.36786,-11.62148 -2.8016,-16.18892 -30.32904,-164.29366 -31.04886,-167.05091 -4.9286,-18.87854 15.18161,-35.97728 53.33076,-45.34457 8.73666,-2.14523 22.01186,-4.26965 32.54623,-5.20835 9.45825,-0.84281 31.41095,-0.84281 40.8692,0 46.15065,4.1124 80.698,20.02048 85.90372,39.55624 1.0052,3.77229 0.91954,6.65556 -0.35274,11.87178 -1.37622,5.64245 -31.05872,166.52781 -31.05872,168.34481 0,0.73758 -0.75182,2.84548 -1.6707,4.68438 -4.6631,9.3318 -20.29845,17.6015 -41.41459,21.9047 -11.75307,2.395 -30.16581,3.5796 -42.49984,2.734 z"
       style="fill:#969696;fill-opacity:0.58823529;stroke-width:0.78468841" />
    <g
       transform="matrix(2.6186955,0,0,2.6186955,102.04478,719.79045)"
       id="g20"
       style="fill:#006680;stroke:#006680;stroke-opacity:1">
      <linearGradient
         id="SVGID_2_"
         gradientUnits="userSpaceOnUse"
         x1="64.779297"
         y1="89.454102"
         x2="81.225601"
         y2="89.454102">
        <stop
           offset="0"
           style="stop-color:#80C11B"
           id="stop23" />
        <stop
           offset="1"
           style="stop-color:#80E21B"
           id="stop25" />
      </linearGradient>
      <path
         inkscape:connector-curvature="0"
         d="m 68.818,87.321 -4.039,7.105 4.105,7.037 -0.016,-3.096 3.416,-0.063 c 2.135,-0.059 3.303,-1.699 3.303,-1.699 l 5.166,-8.844 c 1.104,-2.484 -0.076,-4.172 -0.076,-4.172 l -3.594,-6.146 -7.104,4.107 4.563,7.889 c 0.168,0.416 -0.1,0.754 -0.596,0.746 l -5.107,0.035 -0.021,-2.899 0,0 z"
         id="path27"
         style="fill:#006680;stroke:#006680;stroke-opacity:1" />
      <linearGradient
         id="SVGID_3_"
         gradientUnits="userSpaceOnUse"
         x1="46.181198"
         y1="88.808601"
         x2="62.918499"
         y2="88.808601">
        <stop
           offset="0"
           style="stop-color:#80C11B"
           id="stop30" />
        <stop
           offset="1"
           style="stop-color:#80E21B"
           id="stop32" />
      </linearGradient>
      <path
         inkscape:connector-curvature="0"
         d="m 58.476,86.259 -4.15,-7.043 -8.145,0.055 2.689,1.529 -1.651,2.99 c -1.013,1.881 -0.17,3.711 -0.17,3.711 l 5.096,8.885 c 1.604,2.197 3.656,2.011 3.656,2.011 l 7.118,-0.05 -0.024,-8.207 -9.112,0.027 C 53.34,90.104 53.179,89.706 53.432,89.278 l 2.515,-4.447 2.529,1.428 0,0 z"
         id="path34"
         style="fill:#006680;stroke:#006680;stroke-opacity:1" />
      <linearGradient
         id="SVGID_4_"
         gradientUnits="userSpaceOnUse"
         x1="51.8843"
         y1="73.499001"
         x2="76.783203"
         y2="73.499001">
        <stop
           offset="0"
           style="stop-color:#80C11B"
           id="stop37" />
        <stop
           offset="1"
           style="stop-color:#80E21B"
           id="stop39" />
      </linearGradient>
      <path
         inkscape:connector-curvature="0"
         d="m 64.572,77.841 8.174,-0.063 4.037,-7.074 -2.672,1.561 -1.762,-2.928 C 71.232,67.519 69.224,67.329 69.224,67.329 L 58.981,67.282 c -2.707,0.287 -3.573,2.154 -3.573,2.154 l -3.524,6.188 7.111,4.092 4.546,-7.896 c 0.276,-0.354 0.701,-0.291 0.944,0.145 l 2.588,4.402 -2.501,1.474 0,0 z"
         id="path41"
         style="fill:#006680;stroke:#006680;stroke-opacity:1" />
    </g>
    <path
       style="fill:none;fill-rule:evenodd;stroke:#ffffff;stroke-width:9;stroke-linecap:butt;stroke-linejoin:miter;stroke-opacity:1;stroke-miterlimit:4;stroke-dasharray:none"
       d="m 134.03948,695.11784 65.27139,-62.94028"
       id="path4207"
       inkscape:connector-curvature="0" />
    <circle
       style="fill:#999999;fill-opacity:1;stroke:#ffffff;stroke-width:9.11013031;stroke-linecap:butt;stroke-linejoin:bevel;stroke-miterlimit:4;stroke-dasharray:none;stroke-opacity:1"
       id="path4209"
       cx="143.46149"
       cy="642.57556"
       r="10.444935" />
    <circle
       style="fill:#999999;fill-opacity:1;stroke:#ffffff;stroke-width:9.11013031;stroke-linecap:butt;stroke-linejoin:bevel;stroke-miterlimit:4;stroke-dasharray:none;stroke-opacity:1"
       id="path4209-0"
       cx="189.4178"
       cy="684.94702"
       r="10.444935" />
  </g>
</svg>
