<?xml version="1.0" encoding="UTF-8" standalone="no"?>
<!-- Created with Inkscape (http://www.inkscape.org/) -->

<svg
   xmlns:dc="http://purl.org/dc/elements/1.1/"
   xmlns:cc="http://creativecommons.org/ns#"
   xmlns:rdf="http://www.w3.org/1999/02/22-rdf-syntax-ns#"
   xmlns:svg="http://www.w3.org/2000/svg"
   xmlns="http://www.w3.org/2000/svg"
   xmlns:sodipodi="http://sodipodi.sourceforge.net/DTD/sodipodi-0.dtd"
   xmlns:inkscape="http://www.inkscape.org/namespaces/inkscape"
   width="500"
   height="500"
   id="svg2"
   version="1.1"
   inkscape:version="0.48.5 r10040"
   sodipodi:docname="application-x-deb.svg">
  <defs
     id="defs4" />
  <sodipodi:namedview
     id="base"
     pagecolor="#ffffff"
     bordercolor="#666666"
     borderopacity="1.0"
     inkscape:pageopacity="0.0"
     inkscape:pageshadow="2"
     inkscape:zoom="0.42897809"
     inkscape:cx="975.59289"
     inkscape:cy="427.72041"
     inkscape:document-units="px"
     inkscape:current-layer="layer1"
     showgrid="false"
     inkscape:window-width="1366"
     inkscape:window-height="716"
     inkscape:window-x="0"
     inkscape:window-y="0"
     inkscape:window-maximized="1" />
  <metadata
     id="metadata7">
    <rdf:RDF>
      <cc:Work
         rdf:about="">
        <dc:format>image/svg+xml</dc:format>
        <dc:type
           rdf:resource="http://purl.org/dc/dcmitype/StillImage" />
        <dc:title />
      </cc:Work>
    </rdf:RDF>
  </metadata>
  <g
     inkscape:label="Layer 1"
     inkscape:groupmode="layer"
     id="layer1"
     transform="translate(0,-552.36218)">
    <rect
       style="fill:#ffffff;fill-opacity:1;stroke:none"
       id="rect3000"
       width="450"
       height="450"
       x="25"
       y="577.36218"
       ry="55.366497" />
    <path
       style="fill:#f03916;stroke:none;stroke-width:1px;stroke-linecap:butt;stroke-linejoin:miter;stroke-opacity:1;fill-opacity:1"
       d="M 100,475 100,25 C 100,25 61.202184,19.758699 40.940323,41.934658 20.678462,64.110616 25,90.3 25,90.3 L 25,410 c 0,0 -3.104929,34.44943 20.038287,52.1379 C 68.181502,479.82637 100,475 100,475 z"
       id="path3770"
       inkscape:connector-curvature="0"
       transform="translate(0,552.36218)"
       sodipodi:nodetypes="cczcczc" />
    <path
       style="fill:#f03916;fill-opacity:1"
       d="m 293.66875,1026.4996 c -16.09423,-2.6807 -39.16409,-11.7935 -53.45737,-21.1166 -31.39086,-20.47505 -51.89193,-43.2055 -64.57953,-71.60211 -4.21511,-9.43399 -6.51828,-16.75477 -13.10638,-41.65898 -1.63813,-6.19265 -3.67675,-13.0123 -4.53038,-15.15482 -1.43985,-3.61443 -1.50313,-4.83366 -0.87545,-16.88882 0.5959,-11.45338 2.5328,-26.95061 3.57244,-28.58069 0.20181,-0.31636 0.67636,-0.39136 1.05544,-0.16636 1.28181,0.7609 2.46708,-2.75699 3.63175,-10.78112 0.63818,-4.3962 1.64072,-9.00636 2.22804,-10.24481 0.58772,-1.23817 1.58222,-3.97197 2.21098,-6.07441 1.44695,-4.83884 3.41985,-8.55827 9.51908,-17.94522 2.68239,-4.12838 5.47074,-8.62495 6.19619,-9.99239 0.85363,-1.60868 1.78635,-2.39699 2.64272,-2.23335 0.82499,0.15681 2.18657,-0.88636 3.61252,-2.76817 6.20124,-8.18436 35.40907,-32.33121 38.11178,-31.50799 0.73771,0.225 3.81979,-0.78954 6.84923,-2.2534 5.47906,-2.6479 7.8935,-3.26044 7.8935,-2.00276 0,0.36273 -0.79227,1.18635 -1.7599,1.83054 -1.69881,1.13045 -1.66472,1.14953 0.97772,0.5359 1.50558,-0.34909 4.04152,-0.84818 5.63506,-1.10726 1.96894,-0.32046 2.76953,-0.79227 2.49789,-1.47122 -0.23864,-0.59591 0.32863,-1.18636 1.40441,-1.46345 2.69248,-0.69136 6.88823,-0.57818 6.88823,0.18546 0,0.91772 -2.39904,1.84458 -4.30198,1.66335 -1.29818,-0.12273 -1.36444,-0.0136 -0.39137,0.62317 0.96955,0.63818 0.98046,0.77454 0.0682,0.78409 -0.60954,0.006 -0.90817,0.20318 -0.66272,0.43909 0.24545,0.23454 1.87608,-0.27272 3.62425,-1.12909 1.74831,-0.85635 4.95024,-1.9208 7.11542,-2.36644 2.66534,-0.54818 3.93679,-1.18499 3.93679,-1.9703 0,-1.01045 1.23817,-1.09635 9.58153,-0.66545 5.27001,0.27272 13.22242,1.06499 17.67208,1.76167 8.08986,1.26681 8.09054,1.26681 11.10539,-0.39819 3.61607,-1.99716 9.43235,-2.25707 10.96084,-0.48953 0.55909,0.64636 2.09808,1.71203 3.41998,2.3678 2.15644,1.07045 2.29908,1.07181 1.38763,0.0136 -1.7314,-2.00318 -0.0119,-1.95272 6.67346,0.19636 21.55311,6.9271 39.12399,19.26398 52.16192,36.62419 3.0919,4.1168 3.27926,5.96902 0.35046,3.46293 l -1.67605,-1.43398 1.28045,2.40217 c 0.70364,1.32135 1.28045,2.80607 1.28045,3.2997 0,0.49364 2.07258,4.14134 4.60565,8.10636 5.70925,8.936 7.30646,11.94647 6.92328,13.04938 -0.16363,0.47318 -2.69357,-2.67449 -5.6206,-6.99405 -2.92716,-4.31956 -7.25873,-10.13953 -9.62572,-12.9332 -3.53479,-4.17188 -4.46056,-4.88533 -5.18178,-3.99379 -0.48273,0.59727 -1.6624,1.19453 -2.62117,1.32681 l -1.74299,0.24136 1.72431,3.24393 c 0.94772,1.78418 1.85017,2.8819 2.00385,2.43954 0.82364,-2.36972 4.65598,0.7459 6.39883,5.20046 0.56454,1.44491 2.0678,4.42048 3.33925,6.61238 1.2709,2.1919 2.1514,4.13888 1.95585,4.32652 -0.19499,0.18818 -1.35544,-0.41318 -2.57575,-1.335 l -2.21999,-1.67576 1.51404,2.49449 c 0.83317,1.37194 2.22721,3.0503 3.0987,3.72952 1.08818,0.84818 1.6069,2.18672 1.65545,4.26843 0.0955,3.84312 2.38376,8.38332 3.63134,7.18618 1.94358,-1.8653 2.34326,-0.69953 1.85413,5.40856 -0.36,4.50039 -0.1691,7.46655 0.6859,10.61544 1.29817,4.78047 1.01863,5.96043 -0.87954,3.72611 -1.20681,-1.42089 -1.21908,-1.41994 -0.67909,0.0545 1.15909,3.16116 2.02458,7.88995 1.78377,9.74612 -0.45,3.46348 -1.80422,2.02336 -2.27058,-2.41334 l -0.45545,-4.33034 -0.13637,4.60851 c -0.0682,2.53458 -0.69272,7.43233 -1.37821,10.8838 -0.69273,3.48626 -1.04454,7.71065 -0.79091,9.50435 0.4759,3.37444 0.13909,3.50522 -2.7998,1.08819 -1.19591,-0.98318 -1.40222,-0.78545 -2.22381,2.14294 -0.69136,2.4638 -0.6859,3.86643 0.0273,5.93001 0.51136,1.48662 0.80863,3.50275 0.65999,4.48034 -0.34227,2.25612 -2.22558,2.95962 -2.22558,0.83181 0,-2.67544 -1.06089,-1.72336 -4.30183,3.86247 -8.753,15.08324 -22.60241,26.7563 -38.27746,32.26236 -9.24118,3.24599 -15.43941,4.44965 -25.86094,5.02211 l -9.38613,0.51544 4.63757,1.37291 c 3.73948,1.10726 5.93546,1.27227 11.34143,0.85363 7.08242,-0.54954 15.39823,-2.02389 19.16893,-3.3998 1.5049,-0.54954 2.52122,-0.57408 3.04131,-0.0682 1.2259,1.1768 -9.66677,5.80359 -16.13296,6.85195 -11.00257,1.7839 -25.73057,-0.14454 -38.73154,-5.06983 -8.82091,-3.34226 -21.91065,-12.04629 -19.90475,-13.23592 0.38045,-0.225 2.8703,0.91227 5.53402,2.52884 3.40484,2.06603 4.84306,2.60999 4.84306,1.8319 0,-1.46999 0.50318,-1.39949 3.20862,0.44864 2.44293,1.66921 9.95653,4.76874 15.36808,6.33964 5.89906,1.71245 3.61185,-0.36273 -4.30196,-3.90366 -25.02204,-11.1947 -35.40976,-22.39145 -40.58677,-43.74847 -1.89844,-7.83145 0.13637,-25.00062 3.59807,-30.37755 0.87682,-1.36226 1.59531,-3.03802 1.59531,-3.72352 0,-2.97462 5.16883,-10.83389 10.47267,-15.92363 9.34603,-8.96886 19.06271,-12.69224 31.6764,-12.13807 6.09773,0.26864 8.70186,0.78273 13.77647,2.7218 5.756,2.1998 13.00342,6.80478 10.78384,6.85197 -0.52227,0.0112 -2.80975,-0.72409 -5.08415,-1.6335 -3.45734,-1.38272 -5.67419,-1.65953 -13.52146,-1.68899 -11.01922,-0.0409 -16.40514,1.45908 -24.2475,6.75433 -11.11821,7.50718 -17.30076,16.15395 -19.49034,27.25879 -1.46918,7.45141 -1.51417,9.51622 -0.36818,16.90749 0.65999,4.25889 1.12908,5.50879 1.95544,5.2047 0.69409,-0.255 1.08681,0.12273 1.08681,1.03363 0,2.63958 5.98524,13.34733 10.13612,18.13393 9.9909,11.52172 26.15208,18.87412 41.48662,18.87412 7.95882,0 14.39242,-1.46603 20.31452,-4.62897 2.37817,-1.2709 5.37992,-2.82299 6.67046,-3.45066 4.55357,-2.21508 7.37859,-4.74515 10.68144,-9.56585 1.83612,-2.68008 3.8322,-4.87292 4.43574,-4.87292 0.89182,0 0.85364,0.38726 -0.2059,2.06412 -3.4913,5.52937 4.70233,-4.52439 8.9454,-10.97599 l 4.75252,-7.22628 -0.51818,-4.74692 c -0.49772,-4.56161 -0.42545,-4.83993 1.8484,-7.13082 2.19026,-2.20621 2.38703,-2.85912 2.63944,-8.75695 0.22636,-5.27846 0.0682,-6.37415 -0.9,-6.38014 -0.90135,-0.005 -1.28999,-1.39541 -1.67862,-6.01224 -0.51409,-6.10988 -5.6982,-26.66957 -6.90515,-27.38533 -0.36409,-0.21547 -1.37522,-2.19313 -2.2463,-4.39321 -2.93998,-7.42536 -8.09668,-14.56532 -16.13704,-22.34346 -11.5693,-11.19198 -26.1428,-19.83424 -39.9089,-23.66645 -11.70975,-3.25975 -31.59391,-2.07653 -45.75724,2.72275 -6.91236,2.34231 -13.72301,5.44374 -14.87227,6.7726 -0.52227,0.60272 -1.27772,0.90136 -1.68,0.66273 -0.42408,-0.25091 -0.30681,-0.92455 0.27819,-1.60077 2.60917,-3.01702 -6.04906,2.50472 -11.62289,7.41255 -3.36994,2.96726 -6.24991,5.48519 -6.40005,5.59538 -0.15,0.10909 0.50591,0.005 1.45758,-0.23319 1.58386,-0.39681 1.65095,-0.29181 0.79227,1.24909 -0.5509,0.98726 -3.41807,2.76271 -6.93282,4.29256 -5.90546,2.57059 -9.72486,5.39574 -12.75961,9.43823 -1.2109,1.61399 -1.28181,1.96143 -0.32318,1.60853 0.67227,-0.24818 1.22317,-0.0955 1.22317,0.345 0,2.14376 -2.02948,4.53706 -5.03601,5.93873 -6.66091,3.10553 -18.36208,19.69379 -24.63,34.91721 -2.79325,6.78405 -2.74893,6.54827 -1.22999,6.54827 1.60077,0 1.48936,1.74464 -0.70909,11.1163 -3.20302,13.65115 -3.20684,13.21438 0.28092,32.41931 4.25002,23.39973 6.73291,31.21618 11.45379,36.05965 1.10727,1.13591 2.18399,3.55308 2.66371,5.98115 0.57273,2.89935 1.53504,4.81266 3.33516,6.63365 1.64127,1.66021 2.18863,2.67857 1.55809,2.8992 -1.23681,0.43228 2.63562,5.97365 6.16878,8.82663 1.77749,1.43523 3.09475,1.91768 4.52179,1.65586 3.12735,-0.57409 6.31156,1.15499 11.20453,6.08233 5.08456,5.12042 5.59401,6.49714 2.22912,6.02314 -2.17035,-0.30545 -2.21999,-0.24954 -1.15227,1.31591 0.615,0.89999 2.88039,3.06271 5.03588,4.80692 3.02753,2.44976 3.80712,3.50957 3.42708,4.6587 -0.54683,1.65244 1.01181,3.19403 4.53856,4.48784 2.18671,0.80181 2.89116,2.53239 1.24499,3.05875 -0.49772,0.15955 2.58176,3.20139 6.84405,6.76019 4.80188,4.00948 8.03205,6.2071 8.49241,5.77783 1.21635,-1.13317 2.77484,-0.78818 2.8028,0.62045 0.0273,1.53722 1.41108,3.15203 6.37728,7.45931 3.13839,2.722 3.92193,3.0646 5.8456,2.5561 1.7614,-0.465 2.86921,-0.1663 5.35006,1.4425 4.94956,3.2111 7.95077,4.4927 10.52053,4.4927 2.52857,0 2.8887,0.6968 1.57567,3.0518 -0.69545,1.2464 -0.54681,1.4519 1.05136,1.4519 1.02272,0 3.90652,0.675 6.40728,1.5012 5.68605,1.8773 8.05795,2.0051 6.63283,0.3573 -2.10517,-2.4342 0.12272,-1.7691 7.649,2.2783 10.50989,5.6559 15.82654,6.302 36.7551,4.467 3.09857,-0.2714 4.10642,-0.1091 4.10642,0.6464 0,0.6518 -2.68866,1.6306 -7.62622,2.7767 -6.49073,1.507 -9.95517,1.7985 -23.26964,1.9582 -10.49162,0.1227 -17.65817,-0.1486 -21.76091,-0.8318 z m -10.6993,-112.52364 c 0,-0.15955 -0.96819,-0.855 -2.15086,-1.54581 l -2.15099,-1.25727 1.84649,1.54582 c 1.8019,1.50844 2.45536,1.84294 2.45536,1.25726 z m 107.6924,-78.66622 c -0.24953,-0.59863 -0.43499,-0.42136 -0.47317,0.45408 -0.0273,0.79091 0.15136,1.23409 0.41045,0.98455 0.26046,-0.24954 0.28772,-0.89727 0.0682,-1.43863 z m -177.9884,-79.23663 c 0.97227,-1.19044 0.945,-1.21635 -0.29591,-0.28363 -0.75272,0.56727 -1.36881,1.15772 -1.36881,1.31317 0,0.61773 0.64228,0.21954 1.66417,-1.02954 z m 8.89535,-6.94318 c 0.77863,-0.82636 1.23954,-1.50122 1.02409,-1.50122 -0.21545,0 -1.02818,0.675 -1.80681,1.50122 -0.77863,0.82636 -1.23954,1.50122 -1.02408,1.50122 0.21545,0 1.02817,-0.675 1.8068,-1.50122 z m 9.84554,-5.27642 c 2.57835,-0.83728 4.04343,-0.9859 4.58724,-0.46364 0.5441,0.52227 2.56117,0.21273 6.31634,-0.96953 3.03461,-0.95455 5.378,-1.86981 5.20756,-2.03345 -0.17046,-0.16364 -2.66904,0.45818 -5.55229,1.38231 -3.96025,1.26954 -5.38538,1.45758 -5.82706,0.77181 -0.7459,-1.15908 -7.86337,1.125 -10.92267,3.50575 l -2.0903,1.6264 2.24644,-1.29408 c 1.23545,-0.71181 3.95111,-1.84826 6.03474,-2.52517 z m 22.54991,-1.9054 c 2.2714,-0.64772 3.99448,-1.30772 3.8288,-1.46604 -0.36546,-0.35045 -8.45709,1.87309 -8.45709,2.32417 0,0.45409 0.0682,0.44318 4.62829,-0.85772 z m 12.9707,-4.09212 3.12871,-0.54818 -2.73762,-0.0682 c -1.50572,-0.0409 -3.61757,0.45136 -4.69307,1.08408 -1.26545,0.74454 -1.40385,0.96272 -0.39135,0.615 0.86044,-0.29455 2.97229,-0.78272 4.69305,-1.08409 z m 6.21228,-1.4164 c 0.24136,-0.37499 -0.26591,-0.50454 -1.12772,-0.28772 -1.82644,0.45818 -2.05717,0.96817 -0.43773,0.96817 0.62046,0 1.32409,-0.30681 1.56545,-0.68045 z m 25.25399,0.22636 c -0.26045,-0.24953 -0.93408,-0.27545 -1.49917,-0.0546 -0.62455,0.24 -0.43909,0.41727 0.47318,0.45409 0.82499,0.0273 1.28589,-0.14455 1.0268,-0.39409 z m -4.67684,-0.81408 c -0.75272,-0.18818 -1.98476,-0.18818 -2.73762,0 -0.75272,0.18818 -0.13636,0.34364 1.36882,0.34364 1.50571,0 2.12166,-0.15409 1.3688,-0.34364 z m -7.80105,-0.77864 c -1.60185,-0.1609 -4.41774,-0.16363 -6.25741,-0.005 -1.83967,0.15819 -0.52909,0.29046 2.91244,0.29319 3.44166,0.003 4.94684,-0.12273 3.34497,-0.28773 z m -10.20526,-0.65863 c -0.26044,-0.24954 -0.93407,-0.27681 -1.49916,-0.0546 -0.62455,0.24 -0.43909,0.41727 0.47318,0.45409 0.82499,0.0273 1.28589,-0.14455 1.02681,-0.39409 z m -5.29455,180.41444 c -7.96727,-5.4781 -10.91925,-8.31172 -10.91925,-10.48125 0,-1.15091 0.27136,-2.0929 0.60272,-2.0929 1.12772,0 14.44737,13.34228 14.15609,14.18064 -0.16908,0.48546 -1.77585,-0.18681 -3.8397,-1.60649 z m -4.09975,-13.90942 c -4.13765,-4.0126 -5.46365,-6.17069 -3.79129,-6.17069 1.00499,0 8.70445,8.45982 8.70445,9.56395 0,0.51954 -0.0955,0.94499 -0.21956,0.94499 -0.12271,0 -2.23293,-1.95203 -4.69305,-4.33783 z m 45.78177,-16.42585 c -2.18452,-0.84545 -0.82089,-2.41336 2.73762,-3.1459 2.0434,-0.42136 5.29075,-1.44217 7.2162,-2.26975 1.92544,-0.82772 3.63992,-1.37113 3.80984,-1.20818 0.17044,0.16364 -0.70228,1.83149 -1.93649,3.70744 -2.23186,3.38997 -2.27181,3.41043 -6.54747,3.35288 -2.36616,-0.0273 -4.74202,-0.22772 -5.2797,-0.43635 z m 23.46518,-16.79036 c -2.1113,-0.81408 -2.19871,-2.20021 -0.43636,-6.91973 1.51404,-4.05393 3.0844,-4.85356 2.21085,-1.12635 -0.31499,1.34181 -0.73362,3.28388 -0.93272,4.31602 l -0.36135,1.87649 1.56312,-1.70836 c 0.92454,-1.01045 1.78117,-3.38357 2.09685,-5.80878 0.29318,-2.25517 0.84545,-3.9154 1.22727,-3.6893 0.96817,0.57409 0.86454,6.50873 -0.18137,10.49871 -0.91499,3.4853 -1.73726,3.89152 -5.18683,2.56089 z M 150.47454,858.28279 C 150.21409,857.62961 150,855.06831 150,852.59073 c 0,-3.26903 0.26864,-4.41979 0.97772,-4.19466 1.16181,0.36818 1.84308,11.07403 0.705,11.07403 -0.40227,0 -0.94636,-0.53455 -1.20681,-1.18772 z m 188.16899,-17.55726 c -1.21499,-1.57758 -1.58986,-2.82286 -1.245,-4.1408 0.70773,-2.70653 2.55953,-2.32171 3.92562,0.81545 2.12534,4.88125 0.2809,7.16873 -2.68049,3.3248 z M 150.3135,828.8085 c -0.0545,-4.25629 -4.2e-4,-4.38774 1.96308,-4.31588 1.66485,0.0546 2.06671,0.48136 2.25871,2.3659 0.21682,2.12493 -2.19149,6.34019 -3.62221,6.34019 -0.2959,0 -0.5659,-1.97562 -0.6,-4.39021 z m 202.74849,-92.27468 c 0.10909,-6.71737 1.28863,-8.99286 2.20772,-4.28984 0.6409,3.27707 -0.17455,9.06391 -1.41546,10.05253 -0.67499,0.53727 -0.87681,-0.92727 -0.79226,-5.76269 z M 250.286,732.50839 c 0.315,-0.90545 11.1043,-5.1462 13.09465,-5.1462 2.33835,0 -1.85631,2.74976 -6.69432,4.38829 -5.39424,1.82686 -6.83069,1.99704 -6.40033,0.75819 z"
       id="path4181"
       inkscape:connector-curvature="0" />
  </g>
</svg>
