<?xml version="1.0" encoding="UTF-8" standalone="no"?>
<!-- Created with Inkscape (http://www.inkscape.org/) -->

<svg
   xmlns:dc="http://purl.org/dc/elements/1.1/"
   xmlns:cc="http://creativecommons.org/ns#"
   xmlns:rdf="http://www.w3.org/1999/02/22-rdf-syntax-ns#"
   xmlns:svg="http://www.w3.org/2000/svg"
   xmlns="http://www.w3.org/2000/svg"
   xmlns:sodipodi="http://sodipodi.sourceforge.net/DTD/sodipodi-0.dtd"
   xmlns:inkscape="http://www.inkscape.org/namespaces/inkscape"
   width="500"
   height="500"
   id="svg2"
   version="1.1"
   inkscape:version="0.91 r13725"
   sodipodi:docname="application-x-awk.svg">
  <defs
     id="defs4" />
  <sodipodi:namedview
     id="base"
     pagecolor="#ffffff"
     bordercolor="#666666"
     borderopacity="1.0"
     inkscape:pageopacity="0.0"
     inkscape:pageshadow="2"
     inkscape:zoom="0.42897809"
     inkscape:cx="134.50685"
     inkscape:cy="415.96741"
     inkscape:document-units="px"
     inkscape:current-layer="layer1"
     showgrid="false"
     inkscape:window-width="1366"
     inkscape:window-height="711"
     inkscape:window-x="0"
     inkscape:window-y="0"
     inkscape:window-maximized="1" />
  <metadata
     id="metadata7">
    <rdf:RDF>
      <cc:Work
         rdf:about="">
        <dc:format>image/svg+xml</dc:format>
        <dc:type
           rdf:resource="http://purl.org/dc/dcmitype/StillImage" />
        <dc:title />
      </cc:Work>
    </rdf:RDF>
  </metadata>
  <g
     inkscape:label="Layer 1"
     inkscape:groupmode="layer"
     id="layer1"
     transform="translate(0,-552.36218)">
    <g
       id="g4166">
      <path
         sodipodi:nodetypes="ccccc"
         inkscape:connector-curvature="0"
         id="path4230"
         d="M 63.03896,701.21214 116.261,753.3107 114.60095,680.26885 63,680.02375 Z"
         style="fill:#333333;fill-rule:evenodd;stroke:none;stroke-width:1px;stroke-linecap:butt;stroke-linejoin:miter;stroke-opacity:1" />
      <path
         inkscape:connector-curvature="0"
         id="path3364"
         d="m 97.04097,1024.8357 336.88835,-1.1739 1.1738,-363.88656 -88.037,-89.21086 -250.02515,0 z"
         style="fill:#f2f2f2;fill-rule:evenodd;stroke:#afafaf;stroke-width:5.03546047;stroke-linecap:butt;stroke-linejoin:miter;stroke-miterlimit:4;stroke-dasharray:none;stroke-opacity:1" />
      <path
         sodipodi:nodetypes="cccc"
         inkscape:connector-curvature="0"
         id="path4166"
         d="m 431.51912,657.93108 -82.1644,-0.58691 0.7586,-83.80351 z"
         style="fill:#afafaf;fill-opacity:1;fill-rule:evenodd;stroke:#afafaf;stroke-width:5.03546047;stroke-linecap:butt;stroke-linejoin:miter;stroke-miterlimit:4;stroke-dasharray:none;stroke-opacity:1" />
      <rect
         y="617.18726"
         x="63.139698"
         height="84.350876"
         width="224.93568"
         id="rect4228"
         style="fill:#394050;fill-opacity:1;stroke:none;stroke-width:5;stroke-miterlimit:4;stroke-dasharray:none;stroke-opacity:1" />
      <rect
         ry="11.676479"
         y="810.3053"
         x="132.35899"
         height="206.93283"
         width="263.65341"
         id="rect2993"
         style="fill:#394050;fill-opacity:1;fill-rule:evenodd;stroke:#ffffff;stroke-width:11.34658623;stroke-linecap:butt;stroke-linejoin:round;stroke-miterlimit:4;stroke-dasharray:none;stroke-opacity:1" />
      <path
         sodipodi:nodetypes="ccsssssssssscccssssssscssscc"
         inkscape:connector-curvature="0"
         id="path3754"
         d="m 163.87924,874.05124 0.20765,-4.60815 3.18102,-1.0211 c 1.74956,-0.56161 3.81723,-1.29148 4.59482,-1.62195 0.77758,-0.33046 2.52714,-0.98317 3.88792,-1.45042 1.36077,-0.46728 3.11033,-1.12442 3.88792,-1.46034 0.77758,-0.33591 2.50552,-0.8751 3.83983,-1.19819 2.91744,-0.70644 3.56783,-1.99714 1.32406,-2.62763 -0.89617,-0.25183 -2.26562,-0.73168 -3.0432,-1.06634 -0.77759,-0.33465 -3.32241,-1.16211 -5.65517,-1.83879 -2.33275,-0.67669 -4.55948,-1.45001 -4.94827,-1.71849 -0.38879,-0.26848 -2.21788,-0.92194 -4.06465,-1.45213 l -3.35774,-0.96396 0,-4.7788 0,-4.77877 1.94396,0.77974 c 3.32279,1.33283 4.68774,1.84607 7.24568,2.72442 1.36076,0.46727 3.11033,1.11295 3.88791,1.43483 3.15331,1.30535 13.00767,4.67141 15.61797,5.4941 3.10149,0.9775 4.31113,1.49697 3.18987,1.20967 -0.73315,-0.18785 -2.22579,-1.00047 1.48006,0.34415 1.02901,0.37335 1.27241,0.67557 1.27241,5.51639 l 0,5.5164 -4.41809,1.50137 c -2.42996,0.82575 -7.12198,2.49856 -10.42671,3.71736 -3.30474,1.2188 -9.12402,3.28222 -12.93175,4.58539 l -6.92315,2.3694 z"
         style="fill:#ffffff;fill-opacity:1;fill-rule:nonzero;stroke:none" />
      <path
         inkscape:connector-curvature="0"
         id="path3756"
         d="m 206.85404,881.96166 0,-4.59483 18.73268,0 18.7327,0 0,4.59483 0,4.59481 -18.7327,0 -18.73268,0 0,-4.59481 z"
         style="fill:#ffffff;fill-opacity:1;fill-rule:nonzero;stroke:none" />
      <g
         transform="matrix(1.0070921,0,0,1.0070921,-824.44721,-10.997183)"
         id="g4265">
        <path
           style="fill:none;fill-rule:evenodd;stroke:#ffffff;stroke-width:9;stroke-linecap:butt;stroke-linejoin:bevel;stroke-miterlimit:4;stroke-dasharray:none;stroke-opacity:1"
           d="m 915.69362,696.28339 22.14565,-58.27803 22.72843,58.27803"
           id="path4255"
           inkscape:connector-curvature="0" />
        <path
           style="fill:none;fill-rule:evenodd;stroke:#ffffff;stroke-width:9;stroke-linecap:butt;stroke-linejoin:miter;stroke-miterlimit:4;stroke-dasharray:none;stroke-opacity:1"
           d="m 924.58101,676.76025 25.78803,0"
           id="path4257"
           inkscape:connector-curvature="0" />
      </g>
      <path
         sodipodi:nodetypes="cccccccc"
         inkscape:connector-curvature="0"
         id="path4260-2"
         d="m 154.11384,629.01899 8.12106,56.21116 5.02648,0.21854 15.88077,-41.30456 3.35098,0 15.95362,41.30456 5.24502,0.0729 7.41758,-56.23616"
         style="fill:none;fill-rule:evenodd;stroke:#ffffff;stroke-width:9;stroke-linecap:butt;stroke-linejoin:miter;stroke-miterlimit:4;stroke-dasharray:none;stroke-opacity:1" />
      <g
         transform="matrix(1.0070921,0,0,1.0070921,-799.30357,-9.4082731)"
         id="g4269">
        <path
           style="fill:none;fill-rule:evenodd;stroke:#ffffff;stroke-width:9;stroke-linecap:butt;stroke-linejoin:miter;stroke-miterlimit:4;stroke-dasharray:none;stroke-opacity:1"
           d="m 1024.6566,695.90612 0.4121,-59.95879"
           id="path4261"
           inkscape:connector-curvature="0" />
        <path
           style="fill:none;fill-rule:evenodd;stroke:#ffffff;stroke-width:9;stroke-linecap:butt;stroke-linejoin:round;stroke-miterlimit:4;stroke-dasharray:none;stroke-opacity:1"
           d="m 1059.272,636.56546 -28.022,26.99176 30.2885,31.11264"
           id="path4263"
           inkscape:connector-curvature="0" />
      </g>
    </g>
  </g>
</svg>
