<?xml version="1.0" encoding="UTF-8" standalone="no"?>
<!-- Created with Inkscape (http://www.inkscape.org/) -->

<svg
   xmlns:dc="http://purl.org/dc/elements/1.1/"
   xmlns:cc="http://creativecommons.org/ns#"
   xmlns:rdf="http://www.w3.org/1999/02/22-rdf-syntax-ns#"
   xmlns:svg="http://www.w3.org/2000/svg"
   xmlns="http://www.w3.org/2000/svg"
   xmlns:sodipodi="http://sodipodi.sourceforge.net/DTD/sodipodi-0.dtd"
   xmlns:inkscape="http://www.inkscape.org/namespaces/inkscape"
   width="500"
   height="500"
   id="svg2"
   version="1.1"
   inkscape:version="0.48.5 r10040"
   sodipodi:docname="application-x-sqlite2.svg">
  <defs
     id="defs4" />
  <sodipodi:namedview
     id="base"
     pagecolor="#ffffff"
     bordercolor="#666666"
     borderopacity="1.0"
     inkscape:pageopacity="0.0"
     inkscape:pageshadow="2"
     inkscape:zoom="0.85795622"
     inkscape:cx="330.78763"
     inkscape:cy="254.30814"
     inkscape:document-units="px"
     inkscape:current-layer="layer1"
     showgrid="false"
     inkscape:window-width="1366"
     inkscape:window-height="716"
     inkscape:window-x="0"
     inkscape:window-y="0"
     inkscape:window-maximized="1" />
  <metadata
     id="metadata7">
    <rdf:RDF>
      <cc:Work
         rdf:about="">
        <dc:format>image/svg+xml</dc:format>
        <dc:type
           rdf:resource="http://purl.org/dc/dcmitype/StillImage" />
        <dc:title />
      </cc:Work>
    </rdf:RDF>
  </metadata>
  <g
     inkscape:label="Layer 1"
     inkscape:groupmode="layer"
     id="layer1"
     transform="translate(0,-552.36218)">
    <rect
       style="fill:#ffffff;fill-opacity:1;stroke:none"
       id="rect3000"
       width="450"
       height="450"
       x="25"
       y="577.36218"
       ry="55.366497" />
    <path
       style="fill:#2d1650;stroke:#000000;stroke-width:0.91666669000000001px;stroke-linecap:butt;stroke-linejoin:miter;stroke-opacity:1;fill-opacity:1"
       d="M 289.12786,1021.6149 C 176.27923,1019.0155 154.50561,992.23302 154.50561,992.23302 l 0,-206.75264 c 0,0 20.8887,-25.89336 121.26685,-29.91606 100.3782,-4.0227 141.0329,29.38185 141.0329,29.38185 l 0,201.9447 c 0,0 -14.8289,37.32333 -127.6775,34.72403 z"
       id="path3779"
       inkscape:connector-curvature="0"
       sodipodi:nodetypes="zcczccz" />
    <path
       style="fill:#2d1650;stroke:none;stroke-width:1px;stroke-linecap:butt;stroke-linejoin:miter;stroke-opacity:1;fill-opacity:1"
       d="M 100,475 100,25 C 100,25 61.202184,19.758699 40.940323,41.934658 20.678462,64.110616 25,90.3 25,90.3 L 25,410 c 0,0 -3.104929,34.44943 20.038287,52.1379 C 68.181502,479.82637 100,475 100,475 z"
       id="path3770"
       inkscape:connector-curvature="0"
       transform="translate(0,552.36218)"
       sodipodi:nodetypes="cczcczc" />
    <path
       inkscape:connector-curvature="0"
       style="fill:#ffffff;fill-opacity:1;stroke:none"
       d="m 287.5,752.36218 a 137.5,37.5 0 0 0 -137.5,37.5 l 0,62.5 0,75 0,62.5 A 137.5,37.5 0 0 0 287.5,1027.3622 137.5,37.5 0 0 0 425,989.86218 l 0,-62.5 0,-75 0,-62.5 a 137.5,37.5 0 0 0 -137.5,-37.5 z m 0,12.5 a 125,25 0 0 1 125,25 125,25 0 0 1 -125,25 125,25 0 0 1 -125,-25 125,25 0 0 1 125,-25 z m -125,40.52738 a 137.5,37.5 0 0 0 125,21.97262 137.5,37.5 0 0 0 125,-21.97262 l 0,46.97262 a 125,25 0 0 1 -125,25 125,25 0 0 1 -125,-25 l 0,-46.97262 z m 0,62.5 a 137.5,37.5 0 0 0 125,21.97262 137.5,37.5 0 0 0 125,-21.97262 l 0,59.47262 a 125,25 0 0 1 -125,25 125,25 0 0 1 -125,-25 l 0,-59.47262 z m 0,75 a 137.5,37.5 0 0 0 125,21.97262 137.5,37.5 0 0 0 125,-21.97262 l 0,34.47262 0,12.5 a 125,25 0 0 1 -125,25.00002 125,25 0 0 1 -125,-25.00002 l 0,-12.5 0,-34.47262 z"
       id="rect4185-3" />
  </g>
</svg>
