<?xml version="1.0" encoding="UTF-8" standalone="no"?>
<!-- Created with Inkscape (http://www.inkscape.org/) -->

<svg
   xmlns:dc="http://purl.org/dc/elements/1.1/"
   xmlns:cc="http://creativecommons.org/ns#"
   xmlns:rdf="http://www.w3.org/1999/02/22-rdf-syntax-ns#"
   xmlns:svg="http://www.w3.org/2000/svg"
   xmlns="http://www.w3.org/2000/svg"
   xmlns:sodipodi="http://sodipodi.sourceforge.net/DTD/sodipodi-0.dtd"
   xmlns:inkscape="http://www.inkscape.org/namespaces/inkscape"
   width="500"
   height="500"
   id="svg2"
   version="1.1"
   inkscape:version="0.48.5 r10040"
   sodipodi:docname="application-x-7z-compressed.svg">
  <defs
     id="defs4" />
  <sodipodi:namedview
     id="base"
     pagecolor="#ffffff"
     bordercolor="#666666"
     borderopacity="1.0"
     inkscape:pageopacity="0.0"
     inkscape:pageshadow="2"
     inkscape:zoom="1.2133333"
     inkscape:cx="366.29744"
     inkscape:cy="215.67537"
     inkscape:document-units="px"
     inkscape:current-layer="layer1"
     showgrid="false"
     inkscape:window-width="1366"
     inkscape:window-height="716"
     inkscape:window-x="0"
     inkscape:window-y="0"
     inkscape:window-maximized="1" />
  <metadata
     id="metadata7">
    <rdf:RDF>
      <cc:Work
         rdf:about="">
        <dc:format>image/svg+xml</dc:format>
        <dc:type
           rdf:resource="http://purl.org/dc/dcmitype/StillImage" />
        <dc:title />
      </cc:Work>
    </rdf:RDF>
  </metadata>
  <g
     inkscape:label="Layer 1"
     inkscape:groupmode="layer"
     id="layer1"
     transform="translate(0,-552.36218)">
    <rect
       style="fill:#ffffff;fill-opacity:1;stroke:none"
       id="rect3000"
       width="450"
       height="450"
       x="25"
       y="577.36218"
       ry="55.366497" />
    <path
       style="fill:#394050;stroke:none;stroke-width:1px;stroke-linecap:butt;stroke-linejoin:miter;stroke-opacity:1;fill-opacity:1"
       d="M 100,475 100,25 C 100,25 61.202184,19.758699 40.940323,41.934658 20.678462,64.110616 25,90.3 25,90.3 L 25,410 c 0,0 -3.104929,34.44943 20.038287,52.1379 C 68.181502,479.82637 100,475 100,475 z"
       id="path3770"
       inkscape:connector-curvature="0"
       transform="translate(0,552.36218)"
       sodipodi:nodetypes="cczcczc" />
    <rect
       style="fill:#394050;fill-opacity:1;stroke:none"
       id="rect3955"
       width="300"
       height="229.22757"
       x="140"
       y="798.13458"
       ry="16.910231" />
    <rect
       style="fill:#ffffff;fill-opacity:1;stroke:none"
       id="rect3955-0"
       width="246.76407"
       height="170.84393"
       x="167.24429"
       y="825.06586"
       ry="12.603241" />
    <rect
       style="fill:#394050;fill-opacity:1;stroke:none"
       id="rect3955-6"
       width="121.50314"
       height="137.78708"
       x="187.28598"
       y="842.60254"
       ry="10.164618" />
    <path
       style="fill:#ffffff;stroke:none"
       d="m 215.35065,862.15429 0,21.47892 44.72928,0.22129 c 0,0 -17.23843,22.60466 -23.02893,39.63632 -5.7905,17.0318 -6.42154,41.1864 -6.42154,41.1864 l 21.70036,0.2213 c 0,0 0.36683,-23.8874 6.2001,-41.1864 5.83329,-17.29883 27.01472,-40.7435 27.01472,-40.7435 l 0,-21.03604 z"
       id="path3993"
       inkscape:connector-curvature="0"
       sodipodi:nodetypes="ccczcczccc" />
    <path
       style="fill:#394050;stroke:none"
       d="m 330.64362,913.38765 0.22158,-18.82174 63.99391,0.22159 0,16.6074 -36.31489,41.18642 36.09345,-0.2213 -0.22158,18.6002 -63.55104,-0.4428 -0.22158,-16.386 38.08634,-41.18638 z"
       id="path3995"
       inkscape:connector-curvature="0" />
  </g>
</svg>
