<?xml version="1.0" encoding="UTF-8" standalone="no"?>
<!-- Created with Inkscape (http://www.inkscape.org/) -->

<svg
   xmlns:dc="http://purl.org/dc/elements/1.1/"
   xmlns:cc="http://creativecommons.org/ns#"
   xmlns:rdf="http://www.w3.org/1999/02/22-rdf-syntax-ns#"
   xmlns:svg="http://www.w3.org/2000/svg"
   xmlns="http://www.w3.org/2000/svg"
   xmlns:sodipodi="http://sodipodi.sourceforge.net/DTD/sodipodi-0.dtd"
   xmlns:inkscape="http://www.inkscape.org/namespaces/inkscape"
   width="500"
   height="500"
   id="svg2"
   version="1.1"
   inkscape:version="0.48.5 r10040"
   sodipodi:docname="application-x-kexi-connectiondata.svg">
  <defs
     id="defs4" />
  <sodipodi:namedview
     id="base"
     pagecolor="#ffffff"
     bordercolor="#666666"
     borderopacity="1.0"
     inkscape:pageopacity="0.0"
     inkscape:pageshadow="2"
     inkscape:zoom="0.30333333"
     inkscape:cx="-789.48962"
     inkscape:cy="29.925197"
     inkscape:document-units="px"
     inkscape:current-layer="layer1"
     showgrid="false"
     inkscape:window-width="1366"
     inkscape:window-height="716"
     inkscape:window-x="0"
     inkscape:window-y="0"
     inkscape:window-maximized="1" />
  <metadata
     id="metadata7">
    <rdf:RDF>
      <cc:Work
         rdf:about="">
        <dc:format>image/svg+xml</dc:format>
        <dc:type
           rdf:resource="http://purl.org/dc/dcmitype/StillImage" />
        <dc:title />
      </cc:Work>
    </rdf:RDF>
  </metadata>
  <g
     inkscape:label="Layer 1"
     inkscape:groupmode="layer"
     id="layer1"
     transform="translate(0,-552.36218)">
    <rect
       style="fill:#ffffff;fill-opacity:1;stroke:none"
       id="rect3000"
       width="450"
       height="450"
       x="25"
       y="577.36218"
       ry="55.366497" />
    <path
       style="fill:#2d1650;stroke:#000000;stroke-width:0.91666669000000001px;stroke-linecap:butt;stroke-linejoin:miter;stroke-opacity:1;fill-opacity:1"
       d="M 292.96304,947.1753 C 180.1144,944.57596 158.34078,917.79345 158.34078,917.79345 l 0,-129.28011 c 0,0 20.8887,-25.89336 121.26687,-29.91606 100.37818,-4.0227 141.03285,29.38185 141.03285,29.38185 l 0,124.47217 c 0,0 -14.82883,37.32333 -127.67746,34.724 z"
       id="path3779"
       inkscape:connector-curvature="0"
       sodipodi:nodetypes="zcczccz" />
    <path
       style="fill:#2d1650;stroke:none;stroke-width:1px;stroke-linecap:butt;stroke-linejoin:miter;stroke-opacity:1;fill-opacity:1"
       d="M 100,475 100,25 C 100,25 61.202184,19.758699 40.940323,41.934658 20.678462,64.110616 25,90.3 25,90.3 L 25,410 c 0,0 -3.104929,34.44943 20.038287,52.1379 C 68.181502,479.82637 100,475 100,475 z"
       id="path3770"
       inkscape:connector-curvature="0"
       transform="translate(0,552.36218)"
       sodipodi:nodetypes="cczcczc" />
    <path
       inkscape:connector-curvature="0"
       style="fill:#ffffff;fill-opacity:1;stroke:none"
       d="M 287.49919,752.3638 C 211.56051,752.3638 150,769.15308 150,789.86358 l 0,62.49963 0,49.99971 0,12.49992 c 0.0497,5.33953 4.3435,10.67318 12.49992,15.52729 0.0487,0.025 0.0974,0.05 0.14626,0.075 1.80227,1.07461 3.79092,2.12596 5.95708,3.14937 0.12944,0.0572 0.25944,0.11426 0.39,0.17124 2.12944,0.9966 4.42761,1.96639 6.88472,2.90524 0.267,0.0979 0.53575,0.19536 0.80624,0.2925 2.32415,0.86651 4.78482,1.70578 7.37295,2.51472 0.54765,0.1722 1.10105,0.34305 1.66012,0.5125 2.59279,0.77933 5.30594,1.52888 8.12983,2.24599 0.41259,0.10653 0.82759,0.21237 1.24499,0.3175 3.09746,0.77214 6.32461,1.50557 9.66795,2.19724 0.21913,0.0418 0.43871,0.0835 0.65874,0.125 3.2885,0.66759 6.68655,1.29505 10.18056,1.87986 0.57513,0.0987 1.15294,0.19617 1.73337,0.2925 3.17434,0.5156 6.42492,0.99628 9.74119,1.44049 0.91455,0.12488 1.8342,0.24697 2.75874,0.36625 3.02139,0.37177 6.09208,0.71373 9.20407,1.02499 1.5197,0.16199 3.04997,0.31661 4.58985,0.46375 2.228,0.20274 4.47505,0.3899 6.7382,0.56125 2.4478,0.18946 4.91489,0.36038 7.39747,0.5125 2.03346,0.11845 4.07677,0.22431 6.12783,0.31749 2.3907,0.11482 4.79256,0.21236 7.2022,0.2925 1.92398,0.0682 3.85326,0.12531 5.7861,0.17125 3.5314,0.0856 7.07496,0.13402 10.62007,0.14499 4.00236,-0.009 8.0032,-0.0666 11.98729,-0.17124 1.729,-0.0482 3.45466,-0.10525 5.17572,-0.17125 3.00032,-0.0952 5.98913,-0.21737 8.95995,-0.36625 1.44558,-0.0832 2.88623,-0.17284 4.32122,-0.26874 2.96959,-0.17662 5.91769,-0.3801 8.83784,-0.61 1.33322,-0.11655 2.65992,-0.23865 3.97947,-0.36625 3.23999,-0.28496 6.44116,-0.60275 9.59469,-0.95249 0.75161,-0.0878 1.50036,-0.17735 2.24611,-0.26875 3.43434,-0.40976 6.8072,-0.85783 10.10732,-1.34274 0.89308,-0.14392 1.7802,-0.2906 2.66111,-0.44 2.88386,-0.43597 5.7102,-0.90024 8.4717,-1.39162 1.31808,-0.24628 2.62042,-0.49883 3.90623,-0.75749 2.54636,-0.4975 5.03036,-1.01874 7.4462,-1.5625 0.82222,-0.19278 1.63609,-0.38821 2.44136,-0.58624 2.86273,-0.66854 5.62462,-1.36921 8.27633,-2.09962 0.0571,-0.0166 0.11422,-0.0333 0.17125,-0.05 0.0977,-0.0333 0.19521,-0.0666 0.2925,-0.1 3.08114,-0.87214 6.00723,-1.78503 8.76457,-2.73437 2.8371,-0.98025 5.4945,-1.99919 7.95896,-3.05173 0.008,0 0.0167,0 0.025,0 0.025,-0.008 0.05,-0.0167 0.075,-0.025 2.41746,-1.02738 4.65082,-2.08697 6.68946,-3.17374 0.025,-0.0167 0.05,-0.0333 0.075,-0.05 0.88288,-0.47307 1.72892,-0.95125 2.53736,-1.43411 8.1564,-4.8541 12.45013,-10.18773 12.49991,-15.52724 l 0,-12.49993 0,-49.9997 0,-62.49964 c 0,-20.7105 -61.56038,-37.49978 -137.49919,-37.49978 z m 0,12.49993 c 69.03522,0 124.99926,11.1928 124.99926,24.99985 0,13.80704 -55.96404,24.99985 -124.99926,24.99985 -69.0351,0 -124.99927,-11.19281 -124.99927,-24.99985 0,-13.80705 55.96417,-24.99985 124.99927,-24.99985 z m -124.99927,40.52713 c 22.29625,13.36767 71.15171,21.9555 124.99927,21.9725 53.84756,-0.0125 102.70302,-8.60483 124.99926,-21.9725 l 0,46.97235 c 0,13.80705 -55.96404,24.99985 -124.99926,24.99985 -69.0351,0 -124.99927,-11.1928 -124.99927,-24.99985 z m 0,62.49963 c 22.29625,13.36768 71.15171,21.9555 124.99927,21.9725 53.84756,-0.0125 102.70302,-8.60482 124.99926,-21.9725 l 0,21.9725 0,9.47257 0,3.02736 0,12.49992 c 0,3.27247 -3.25339,6.54366 -9.51499,9.56703 -6.26161,3.02337 -15.52649,5.79655 -27.09643,8.11054 -23.13988,4.62798 -55.6631,7.32229 -88.38784,7.32229 -32.72474,0 -65.24796,-2.69431 -88.38784,-7.32229 -11.56994,-2.31399 -20.83483,-5.08717 -27.09644,-8.11054 -6.2616,-3.02337 -9.51499,-6.29456 -9.51499,-9.56703 l 0,-12.49992 0,-3.02736 0,-9.47257 z"
       id="rect4185"
       sodipodi:nodetypes="csccccccccccccccccccccccccccccccccccccccccccccccccccccccsccssssscccssscccccccssssssscccc" />
    <path
       inkscape:connector-curvature="0"
       style="fill:#2d1650;fill-opacity:1;stroke:none"
       d="m 268.72238,952.36262 0,37.4998 12.49993,0 0,12.49988 -99.9994,0 0,-12.49988 -37.49978,0 0,37.49978 37.49978,0 0,-12.4999 99.9994,0 12.49993,0 87.49949,0 0,12.4999 37.49978,0 0,-37.49978 -37.49978,0 0,12.49988 -87.49949,0 0,-12.49988 12.49993,0 0,-37.4998 z m 12.49993,12.4999 12.49993,0 0,12.4999 -12.49993,0 z m -124.99926,37.49978 12.49994,0 0,12.5 -12.49994,0 z m 237.4986,0 12.49992,0 0,12.5 -12.49992,0 z"
       id="rect4185-3"
       sodipodi:nodetypes="cccccccccccccccccccccccccccccccccccccc" />
  </g>
</svg>
