<?xml version="1.0" encoding="UTF-8" standalone="no"?>
<!-- Created with Inkscape (http://www.inkscape.org/) -->

<svg
   xmlns:dc="http://purl.org/dc/elements/1.1/"
   xmlns:cc="http://creativecommons.org/ns#"
   xmlns:rdf="http://www.w3.org/1999/02/22-rdf-syntax-ns#"
   xmlns:svg="http://www.w3.org/2000/svg"
   xmlns="http://www.w3.org/2000/svg"
   xmlns:sodipodi="http://sodipodi.sourceforge.net/DTD/sodipodi-0.dtd"
   xmlns:inkscape="http://www.inkscape.org/namespaces/inkscape"
   width="500"
   height="500"
   id="svg2"
   version="1.1"
   inkscape:version="0.48.5 r10040"
   sodipodi:docname="application-vnd-google-earth-kml.svg">
  <defs
     id="defs4" />
  <sodipodi:namedview
     id="base"
     pagecolor="#ffffff"
     bordercolor="#666666"
     borderopacity="1.0"
     inkscape:pageopacity="0.0"
     inkscape:pageshadow="2"
     inkscape:zoom="0.85795619"
     inkscape:cx="229.13204"
     inkscape:cy="201.91656"
     inkscape:document-units="px"
     inkscape:current-layer="layer1"
     showgrid="false"
     inkscape:window-width="1366"
     inkscape:window-height="716"
     inkscape:window-x="0"
     inkscape:window-y="0"
     inkscape:window-maximized="1" />
  <metadata
     id="metadata7">
    <rdf:RDF>
      <cc:Work
         rdf:about="">
        <dc:format>image/svg+xml</dc:format>
        <dc:type
           rdf:resource="http://purl.org/dc/dcmitype/StillImage" />
        <dc:title />
      </cc:Work>
    </rdf:RDF>
  </metadata>
  <g
     inkscape:label="Layer 1"
     inkscape:groupmode="layer"
     id="layer1"
     transform="translate(0,-552.36218)">
    <rect
       style="fill:#ffffff;fill-opacity:1;stroke:none"
       id="rect3000"
       width="450"
       height="450"
       x="25"
       y="577.36218"
       ry="55.366497" />
    <path
       style="fill:#00bbf2;stroke:none;stroke-width:1px;stroke-linecap:butt;stroke-linejoin:miter;stroke-opacity:1;fill-opacity:1"
       d="M 100,475 100,25 C 100,25 61.202184,19.758699 40.940323,41.934658 20.678462,64.110616 25,90.3 25,90.3 L 25,410 c 0,0 -3.104929,34.44943 20.038287,52.1379 C 68.181502,479.82637 100,475 100,475 z"
       id="path3770"
       inkscape:connector-curvature="0"
       transform="translate(0,552.36218)"
       sodipodi:nodetypes="cczcczc" />
    <path
       sodipodi:type="arc"
       style="fill:#ffffff;fill-opacity:1;fill-rule:nonzero;stroke:none"
       id="path3010"
       sodipodi:cx="137.29857"
       sodipodi:cy="222.25063"
       sodipodi:rx="128.09419"
       sodipodi:ry="128.09419"
       d="m 265.39276,222.25063 c 0,70.74446 -57.34972,128.09419 -128.09419,128.09419 -70.74447,0 -128.0941938,-57.34973 -128.0941938,-128.09419 0,-70.74447 57.3497238,-128.094197 128.0941938,-128.094197 70.74447,0 128.09419,57.349727 128.09419,128.094197 z"
       transform="matrix(1.1419182,0,0,1.1419182,144.1239,623.97763)" />
    <path
       inkscape:connector-curvature="0"
       id="path2997"
       d="m 280.59447,1026.0921 c -31.84556,-4.175 -61.38314,-18.9981 -85.16945,-42.74145 -20.85081,-20.8131 -34.27228,-45.31004 -41.21625,-75.22804 -1.54536,-6.65819 -4.2495,-17.34776 -4.2083,-34.58844 0.0487,-20.37315 2.25468,-25.36893 5.32859,-35.14303 13.68691,-43.52025 38.83207,-73.8728 77.83795,-93.77821 34.88981,-17.80489 77.8189,-20.88101 115.3911,-8.26843 36.02281,12.09244 68.7712,40.67793 85.89332,74.97471 28.55542,57.19846 17.07036,126.23779 -28.62799,172.08932 -32.85808,32.96817 -79.10351,48.73077 -125.22897,42.68357 z m -42.03954,-21.4088 c -0.21148,-0.9228 -0.68421,-4.2084 -1.05052,-7.30129 -0.60545,-5.11206 -0.3353,-5.95414 2.97078,-9.26023 4.73263,-4.73262 8.94493,-4.73837 28.92712,-0.0395 8.41369,1.97851 20.80065,4.46373 27.5266,5.52268 15.21406,2.39541 52.31009,2.70139 65.78542,0.54262 10.94785,-1.75386 29.25789,-6.65712 33.98212,-9.10011 5.16005,-2.66837 22.5869,-23.53466 20.98949,-25.13207 -0.38084,-0.38086 -6.21071,0.68701 -12.95525,2.37303 -23.22502,5.80586 -34.16648,0.30882 -56.89315,-0.37649 -39.3307,-1.18599 -71.64897,-9.45518 -124.59639,-31.88014 -31.6945,-13.42365 -39.53427,-7.78133 -47.52199,0.20639 -6.01261,6.01261 -6.17492,8.85556 -1.0402,18.22025 11.70177,21.34172 31.4002,41.52756 52.69744,54.00136 7.93744,4.649 11.91569,5.4403 11.17853,2.2235 z M 438.316,919.91974 c 0.64168,-1.4728 1.94435,-6.42676 2.89483,-11.00882 1.57443,-7.59007 1.55401,-8.4633 -0.22956,-9.81867 -1.07672,-0.81822 -2.68897,-1.48768 -3.58278,-1.48768 -3.31518,0 -22.201,-8.58055 -32.34282,-14.69458 -19.48146,-11.74448 -44.02723,-31.65796 -78.6407,-63.79958 -34.04766,-31.61621 -44.24294,-39.76158 -57.34557,-45.81537 -15.51556,-7.16861 -36.22648,-8.41888 -56.90816,-3.43539 -7.64252,1.84156 -9.7029,2.92342 -14.32824,7.52348 -10.5535,10.49585 -20.47647,24.37723 -26.81119,37.50651 -10.21944,21.18075 -9.7793,36.30132 3.11011,25.35989 9.79712,-8.3165 19.56326,-9.28345 29.40622,-10.96627 6.42452,-1.09836 15.97831,0.3662 23.60597,2.06533 15.74239,3.50677 26.96774,14.95114 67.73208,43.88442 46.14667,32.7535 54.34456,32.72621 85.79126,45.24873 13.5799,5.4077 48.58767,1.95067 53.7785,2.05927 1.69848,0.0355 3.13702,-0.93882 3.87005,-2.62127 z m -4.10911,-74.91484 c 3.83235,-3.36486 4.26506,-4.30514 3.74964,-8.148 -0.91884,-6.85046 -8.52944,-24.33164 -15.40061,-35.37444 -8.1071,-13.02911 -28.05752,-33.47293 -40.79931,-41.80829 -18.80899,-12.30439 -36.73149,-19.50093 -58.11927,-23.33703 -19.05225,-3.41719 -58.43561,-0.82943 -60.0268,3.94416 -0.33,0.98997 1.71572,1.41456 6.81544,1.41456 31.82049,0 58.99161,8.85699 79.58721,25.94313 12.22362,10.14073 20.78614,19.77061 34.79066,39.12755 23.55422,32.55642 32.79036,41.69078 42.43431,41.96673 1.45004,0.0416 4.58596,-1.63627 6.96873,-3.72837 z"
       style="fill:#00bbf2;fill-opacity:1"
       sodipodi:nodetypes="ssssssssssssssssscssssssssssssssssssssssssssssssssscs" />
  </g>
</svg>
