<?xml version="1.0" encoding="UTF-8" standalone="no"?>
<!-- Created with Inkscape (http://www.inkscape.org/) -->

<svg
   xmlns:dc="http://purl.org/dc/elements/1.1/"
   xmlns:cc="http://creativecommons.org/ns#"
   xmlns:rdf="http://www.w3.org/1999/02/22-rdf-syntax-ns#"
   xmlns:svg="http://www.w3.org/2000/svg"
   xmlns="http://www.w3.org/2000/svg"
   xmlns:sodipodi="http://sodipodi.sourceforge.net/DTD/sodipodi-0.dtd"
   xmlns:inkscape="http://www.inkscape.org/namespaces/inkscape"
   width="500"
   height="500"
   id="svg2"
   version="1.1"
   inkscape:version="0.91 r13725"
   sodipodi:docname="ascii.svg">
  <defs
     id="defs4" />
  <sodipodi:namedview
     id="base"
     pagecolor="#ffffff"
     bordercolor="#666666"
     borderopacity="1.0"
     inkscape:pageopacity="0.0"
     inkscape:pageshadow="2"
     inkscape:zoom="0.42897811"
     inkscape:cx="338.6549"
     inkscape:cy="297.83455"
     inkscape:document-units="px"
     inkscape:current-layer="layer1"
     showgrid="false"
     inkscape:window-width="1366"
     inkscape:window-height="711"
     inkscape:window-x="0"
     inkscape:window-y="0"
     inkscape:window-maximized="1" />
  <metadata
     id="metadata7">
    <rdf:RDF>
      <cc:Work
         rdf:about="">
        <dc:format>image/svg+xml</dc:format>
        <dc:type
           rdf:resource="http://purl.org/dc/dcmitype/StillImage" />
        <dc:title />
      </cc:Work>
    </rdf:RDF>
  </metadata>
  <g
     inkscape:label="Layer 1"
     inkscape:groupmode="layer"
     id="layer1"
     transform="translate(0,-552.36218)">
    <g
       id="g4198">
      <path
         sodipodi:nodetypes="ccccc"
         inkscape:connector-curvature="0"
         id="path4230"
         d="M 63.03896,706.21195 116.261,758.31051 114.60095,685.26866 63,685.02356 Z"
         style="fill:#aa4400;fill-opacity:1;fill-rule:evenodd;stroke:none;stroke-width:1px;stroke-linecap:butt;stroke-linejoin:miter;stroke-opacity:1" />
      <path
         inkscape:connector-curvature="0"
         id="path3364"
         d="m 97.04097,1029.8357 336.88829,-1.1739 1.1738,-363.88675 -88.037,-89.21086 -250.02509,0 z"
         style="fill:#f2f2f2;fill-rule:evenodd;stroke:#afafaf;stroke-width:5.03546047;stroke-linecap:butt;stroke-linejoin:miter;stroke-miterlimit:4;stroke-dasharray:none;stroke-opacity:1" />
      <path
         sodipodi:nodetypes="cccc"
         inkscape:connector-curvature="0"
         id="path4166"
         d="m 431.51906,662.93089 -82.1644,-0.58691 0.7586,-83.80351 z"
         style="fill:#afafaf;fill-opacity:1;fill-rule:evenodd;stroke:#afafaf;stroke-width:5.03546047;stroke-linecap:butt;stroke-linejoin:miter;stroke-miterlimit:4;stroke-dasharray:none;stroke-opacity:1" />
      <rect
         y="622.18707"
         x="63.139702"
         height="84.350876"
         width="236.59129"
         id="rect4228"
         style="fill:#ff6600;fill-opacity:1;stroke:none;stroke-width:5;stroke-miterlimit:4;stroke-dasharray:none;stroke-opacity:1" />
      <g
         transform="matrix(1.0070921,0,0,1.0070921,-834.77158,-6.8762976)"
         id="g4265">
        <path
           style="fill:none;fill-rule:evenodd;stroke:#ffffff;stroke-width:9;stroke-linecap:butt;stroke-linejoin:bevel;stroke-miterlimit:4;stroke-dasharray:none;stroke-opacity:1"
           d="m 915.69362,696.28339 22.14565,-58.27803 22.72843,58.27803"
           id="path4255"
           inkscape:connector-curvature="0" />
        <path
           style="fill:none;fill-rule:evenodd;stroke:#ffffff;stroke-width:9;stroke-linecap:butt;stroke-linejoin:miter;stroke-miterlimit:4;stroke-dasharray:none;stroke-opacity:1"
           d="m 924.58101,676.76025 25.78803,0"
           id="path4257"
           inkscape:connector-curvature="0" />
      </g>
      <g
         id="flowRoot4149"
         style="font-style:normal;font-weight:normal;font-size:120.84818268px;line-height:125%;font-family:sans-serif;letter-spacing:0px;word-spacing:0px;fill:#ff6600;fill-opacity:1;stroke:none;stroke-width:1px;stroke-linecap:butt;stroke-linejoin:miter;stroke-opacity:1"
         transform="matrix(1.9741339,0,0,1.9741339,-100.39801,-865.11513)">
        <path
           inkscape:connector-curvature="0"
           id="path4194"
           d="m 151.90091,858.99911 10.03134,0 -30.68411,99.31029 -10.03134,0 30.68411,-99.31029 z" />
        <path
           inkscape:connector-curvature="0"
           id="path4196"
           d="m 172.31764,921.01641 0,-40.00736 10.85746,0 0,39.5943 q 0,9.38226 3.65848,14.10289 3.65849,4.66163 10.97547,4.66163 8.79218,0 13.86686,-5.60575 5.13369,-5.60575 5.13369,-15.28305 l 0,-37.47002 10.85745,0 0,66.08885 -10.85745,0 0,-10.14936 q -3.95353,6.01881 -9.20523,8.9692 -5.1927,2.89139 -12.09662,2.89139 -11.38853,0 -17.28932,-7.08095 -5.90079,-7.08094 -5.90079,-20.71177 z m 27.32066,-41.60057 0,0 z" />
      </g>
      <path
         sodipodi:nodetypes="czzzzzc"
         inkscape:connector-curvature="0"
         id="path3353"
         d="m 179.97153,641.76383 c 0,0 -9.26192,-4.269 -18.06619,-4.37085 -8.80427,-0.10185 -14.26789,5.23284 -14.5695,12.82117 -0.30162,7.58832 3.92901,13.66202 19.08605,15.44367 15.15704,1.78165 14.25231,15.00213 12.38407,19.66884 -1.86824,4.66671 -10.69001,9.07335 -19.66883,7.86753 -8.97882,-1.20582 -16.46354,-5.24502 -16.46354,-5.24502"
         style="fill:none;fill-rule:evenodd;stroke:#ffffff;stroke-width:10;stroke-linecap:butt;stroke-linejoin:miter;stroke-miterlimit:4;stroke-dasharray:none;stroke-opacity:1" />
      <path
         sodipodi:nodetypes="czzzc"
         inkscape:connector-curvature="0"
         id="path4275"
         d="m 236.94476,643.74891 c 0,0 -7.61602,-6.81634 -21.51052,-5.73613 -13.8945,1.08021 -21.77754,16.92381 -21.03251,28.91969 0.74503,11.99588 11.26493,26.26777 24.8566,25.09561 13.59167,-1.17217 17.68643,-5.97515 17.68643,-5.97515"
         style="fill:none;fill-rule:evenodd;stroke:#ffffff;stroke-width:9;stroke-linecap:butt;stroke-linejoin:miter;stroke-miterlimit:4;stroke-dasharray:none;stroke-opacity:1" />
      <path
         sodipodi:nodetypes="cc"
         inkscape:connector-curvature="0"
         id="path4231"
         d="m 256.49413,694.46556 -0.0499,-60.56579"
         style="fill:none;fill-rule:evenodd;stroke:#ffffff;stroke-width:9.95035076;stroke-linecap:butt;stroke-linejoin:miter;stroke-miterlimit:4;stroke-dasharray:none;stroke-opacity:1" />
      <path
         sodipodi:nodetypes="cc"
         inkscape:connector-curvature="0"
         id="path4231-6"
         d="m 280.54084,693.99518 -0.0499,-60.56579"
         style="fill:none;fill-rule:evenodd;stroke:#ffffff;stroke-width:9.95035076;stroke-linecap:butt;stroke-linejoin:miter;stroke-miterlimit:4;stroke-dasharray:none;stroke-opacity:1" />
    </g>
  </g>
</svg>
