<?xml version="1.0" encoding="UTF-8" standalone="no"?>
<!-- Created with Inkscape (http://www.inkscape.org/) -->

<svg
   xmlns:dc="http://purl.org/dc/elements/1.1/"
   xmlns:cc="http://creativecommons.org/ns#"
   xmlns:rdf="http://www.w3.org/1999/02/22-rdf-syntax-ns#"
   xmlns:svg="http://www.w3.org/2000/svg"
   xmlns="http://www.w3.org/2000/svg"
   xmlns:sodipodi="http://sodipodi.sourceforge.net/DTD/sodipodi-0.dtd"
   xmlns:inkscape="http://www.inkscape.org/namespaces/inkscape"
   width="500"
   height="500"
   id="svg2"
   version="1.1"
   inkscape:version="0.91 r13725"
   sodipodi:docname="audio-x-flac+ogg.svg">
  <defs
     id="defs4" />
  <sodipodi:namedview
     id="base"
     pagecolor="#ffffff"
     bordercolor="#666666"
     borderopacity="1.0"
     inkscape:pageopacity="0.0"
     inkscape:pageshadow="2"
     inkscape:zoom="0.60666666"
     inkscape:cx="425.59415"
     inkscape:cy="155.05298"
     inkscape:document-units="px"
     inkscape:current-layer="layer1"
     showgrid="false"
     inkscape:window-width="1366"
     inkscape:window-height="711"
     inkscape:window-x="0"
     inkscape:window-y="0"
     inkscape:window-maximized="1" />
  <metadata
     id="metadata7">
    <rdf:RDF>
      <cc:Work
         rdf:about="">
        <dc:format>image/svg+xml</dc:format>
        <dc:type
           rdf:resource="http://purl.org/dc/dcmitype/StillImage" />
        <dc:title />
      </cc:Work>
    </rdf:RDF>
  </metadata>
  <g
     inkscape:label="Layer 1"
     inkscape:groupmode="layer"
     id="layer1"
     transform="translate(0,-552.36218)">
    <path
       style="fill:#1a1a1a;fill-rule:evenodd;stroke:none;stroke-width:1px;stroke-linecap:butt;stroke-linejoin:miter;stroke-opacity:1"
       d="M 63.03896,706.21219 116.261,758.31075 114.60095,685.2689 63,685.0238 Z"
       id="path4230"
       inkscape:connector-curvature="0"
       sodipodi:nodetypes="ccccc" />
    <path
       style="fill:#f2f2f2;fill-rule:evenodd;stroke:#afafaf;stroke-width:5.03546047;stroke-linecap:butt;stroke-linejoin:miter;stroke-miterlimit:4;stroke-dasharray:none;stroke-opacity:1"
       d="m 97.04097,1029.8357 336.88839,-1.1739 1.17377,-363.88651 -88.03697,-89.21086 -250.02519,0 z"
       id="path3364"
       inkscape:connector-curvature="0" />
    <path
       style="fill:#afafaf;fill-opacity:1;fill-rule:evenodd;stroke:#afafaf;stroke-width:5.03546047;stroke-linecap:butt;stroke-linejoin:miter;stroke-miterlimit:4;stroke-dasharray:none;stroke-opacity:1"
       d="m 431.51909,662.93113 -82.16431,-0.58691 0.75853,-83.80351 z"
       id="path4166"
       inkscape:connector-curvature="0"
       sodipodi:nodetypes="cccc" />
    <rect
       style="fill:#333333;fill-opacity:1;stroke:none;stroke-width:5;stroke-miterlimit:4;stroke-dasharray:none;stroke-opacity:1"
       id="rect4228"
       width="224.9357"
       height="84.350876"
       x="63.139713"
       y="622.18732" />
    <g
       transform="matrix(0.81649671,0,0,0.81649671,-40.36456,210.54422)"
       id="g4190"
       style="fill:#333333">
      <path
         sodipodi:nodetypes="cccscscccccc"
         inkscape:connector-curvature="0"
         id="path4112"
         d="m 305.20897,716.29583 0,204.12903 c -8.66636,-8.07428 -19.96756,-13.29483 -31.84948,-13.29314 -24.99165,0 -47.69622,22.72874 -47.69622,47.70815 0,24.97834 22.70457,47.70853 47.69622,47.71043 24.99183,0 47.7586,-22.72835 47.7586,-47.71043 l 0,-168.81352 0,-68.92312 0,-0.80578 -0.0637,0 -15.84693,0 z"
         style="fill:#333333;fill-opacity:1;fill-rule:evenodd;stroke:none" />
      <path
         sodipodi:nodetypes="cccscscccccc"
         inkscape:connector-curvature="0"
         id="path4112-3"
         d="m 462.39582,698.02641 0,204.12903 c -8.66636,-8.07428 -19.96756,-13.29483 -31.84948,-13.29314 -24.99165,0 -47.69622,22.72874 -47.69622,47.70815 0,24.97834 22.70457,47.70853 47.69622,47.71043 24.99183,0 47.7586,-22.72835 47.7586,-47.71043 l 0,-168.81352 0,-68.92312 0,-0.80578 -0.0637,0 -15.84693,0 z"
         style="fill:#333333;fill-opacity:1;fill-rule:evenodd;stroke:none" />
      <rect
         inkscape:transform-center-y="-9.4361839"
         inkscape:transform-center-x="-79.159264"
         transform="matrix(0.99307685,-0.11746649,0.11746649,0.99307685,0,0)"
         y="747.4649"
         x="219.51505"
         height="18.468454"
         width="171.4557"
         id="rect4188"
         style="fill:#333333;fill-opacity:1;stroke:none;stroke-opacity:1" />
    </g>
    <path
       style="fill:none;fill-rule:evenodd;stroke:#ffffff;stroke-width:9;stroke-linecap:butt;stroke-linejoin:miter;stroke-miterlimit:4;stroke-dasharray:none;stroke-opacity:1"
       d="m 132.98377,688.66028 c -12.02507,-0.10136 -23.35226,-12.18839 -23.42257,-27.48566 -0.0703,-15.29728 11.99424,-27.58791 24.13958,-27.24665 12.14534,0.34126 22.73834,11.91939 22.94455,28.20268 0.20622,16.28328 -11.63649,26.63099 -23.66156,26.52963 z"
       id="path4273"
       inkscape:connector-curvature="0"
       sodipodi:nodetypes="zzzzz" />
    <path
       style="fill:none;fill-rule:evenodd;stroke:#ffffff;stroke-width:9;stroke-linecap:butt;stroke-linejoin:miter;stroke-miterlimit:4;stroke-dasharray:none;stroke-opacity:1"
       d="m 216.08146,642.93264 c 0,0 -7.25243,-7.68565 -22.72842,-7.57615 -15.476,0.1095 -23.56383,15.90175 -23.31121,28.26486 0.25262,12.36311 10.96559,25.46969 23.20515,26.73719 12.23955,1.2675 21.37753,-5.17432 21.37753,-5.17432 l -0.58278,-20.10592 -16.75492,0.21854"
       id="path3367"
       inkscape:connector-curvature="0"
       sodipodi:nodetypes="czzzccc" />
    <path
       style="fill:none;fill-rule:evenodd;stroke:#ffffff;stroke-width:9;stroke-linecap:butt;stroke-linejoin:miter;stroke-miterlimit:4;stroke-dasharray:none;stroke-opacity:1"
       d="m 274.18585,643.34473 c 0,0 -7.25243,-7.68566 -22.72842,-7.57616 -15.476,0.1095 -23.56383,15.90176 -23.31121,28.26487 0.25262,12.36311 10.96559,25.46969 23.20515,26.73719 12.23955,1.2675 21.37753,-5.17432 21.37753,-5.17432 l -0.58278,-20.10592 -16.75492,0.21854"
       id="path3367-8"
       inkscape:connector-curvature="0"
       sodipodi:nodetypes="czzzccc" />
  </g>
</svg>
