<?xml version="1.0" encoding="UTF-8" standalone="no"?>
<!-- Created with Inkscape (http://www.inkscape.org/) -->

<svg
   xmlns:dc="http://purl.org/dc/elements/1.1/"
   xmlns:cc="http://creativecommons.org/ns#"
   xmlns:rdf="http://www.w3.org/1999/02/22-rdf-syntax-ns#"
   xmlns:svg="http://www.w3.org/2000/svg"
   xmlns="http://www.w3.org/2000/svg"
   xmlns:sodipodi="http://sodipodi.sourceforge.net/DTD/sodipodi-0.dtd"
   xmlns:inkscape="http://www.inkscape.org/namespaces/inkscape"
   width="500"
   height="500"
   id="svg2"
   version="1.1"
   inkscape:version="0.48.5 r10040"
   sodipodi:docname="application-ogg.svg">
  <defs
     id="defs4" />
  <sodipodi:namedview
     id="base"
     pagecolor="#ffffff"
     bordercolor="#666666"
     borderopacity="1.0"
     inkscape:pageopacity="0.0"
     inkscape:pageshadow="2"
     inkscape:zoom="0.85795622"
     inkscape:cx="317.34212"
     inkscape:cy="121.01738"
     inkscape:document-units="px"
     inkscape:current-layer="layer1"
     showgrid="false"
     inkscape:window-width="1366"
     inkscape:window-height="716"
     inkscape:window-x="0"
     inkscape:window-y="0"
     inkscape:window-maximized="1" />
  <metadata
     id="metadata7">
    <rdf:RDF>
      <cc:Work
         rdf:about="">
        <dc:format>image/svg+xml</dc:format>
        <dc:type
           rdf:resource="http://purl.org/dc/dcmitype/StillImage" />
        <dc:title />
      </cc:Work>
    </rdf:RDF>
  </metadata>
  <g
     inkscape:label="Layer 1"
     inkscape:groupmode="layer"
     id="layer1"
     transform="translate(0,-552.36218)">
    <rect
       style="fill:#ffffff;fill-opacity:1;stroke:none"
       id="rect3000"
       width="450"
       height="450"
       x="25"
       y="577.36218"
       ry="55.366497" />
    <path
       style="fill:#333333;stroke:none;stroke-width:1px;stroke-linecap:butt;stroke-linejoin:miter;stroke-opacity:1;fill-opacity:1"
       d="M 100,475 100,25 C 100,25 61.202184,19.758699 40.940323,41.934658 20.678462,64.110616 25,90.3 25,90.3 L 25,410 c 0,0 -3.104929,34.44943 20.038287,52.1379 C 68.181502,479.82637 100,475 100,475 z"
       id="path3770"
       inkscape:connector-curvature="0"
       transform="translate(0,552.36218)"
       sodipodi:nodetypes="cczcczc" />
    <rect
       style="fill:#808080;fill-opacity:1;stroke:none"
       id="rect2996"
       width="298.56631"
       height="190.91447"
       x="128.64107"
       y="832.78424"
       ry="10.718008"
       transform="matrix(0.99996053,0.00888426,-0.00852493,0.99996366,0,0)" />
    <rect
       style="fill:#cccccc;fill-opacity:1;stroke:none"
       id="rect2998"
       width="263.13205"
       height="119.23782"
       x="145.70197"
       y="886.37427"
       ry="10.718008"
       transform="matrix(0.99996053,0.00888426,-0.00852493,0.99996366,0,0)" />
    <rect
       style="fill:#1a1a1a;fill-opacity:1;stroke:none"
       id="rect3000-3"
       width="177.82742"
       height="52.920166"
       x="185.72963"
       y="919.8681"
       ry="10.718008"
       transform="matrix(0.99996053,0.00888426,-0.00852493,0.99996366,0,0)" />
    <path
       sodipodi:type="arc"
       style="fill:#ffffff;fill-opacity:1;stroke:none"
       id="path3002-7-6"
       sodipodi:cx="170.58951"
       sodipodi:cy="64.486656"
       sodipodi:rx="6.6922607"
       sodipodi:ry="6.9447989"
       d="m 177.28177,64.486656 c 0,3.835507 -2.99623,6.944799 -6.69226,6.944799 -3.69604,0 -6.69226,-3.109292 -6.69226,-6.944799 0,-3.835506 2.99622,-6.944799 6.69226,-6.944799 3.69603,0 6.69226,3.109293 6.69226,6.944799 z"
       transform="matrix(2.9118816,0.02587098,-0.02442086,2.864527,-289.29468,759.3924)" />
    <rect
       style="fill:#ffffff;fill-opacity:1;stroke:none"
       id="rect3042"
       width="61.025646"
       height="38.852779"
       x="245.44287"
       y="927.23663"
       ry="0"
       transform="matrix(0.99996053,0.00888426,-0.00852493,0.99996366,0,0)" />
    <path
       style="fill:#552200;stroke:none"
       d="m 299.05518,969.22777 -16.70016,-0.50441 c 0,0 -5.43563,-7.10439 -5.17626,-18.75672 0.25941,-11.65234 6.66932,-20.3095 6.66932,-20.3095 l 15.77525,0.14016 -0.109,10.65236 c 0,0 -3.96884,2.3984 -4.1778,9.47014 -0.19465,5.39714 3.69994,10.18993 3.69994,10.18993 z"
       id="path3046"
       inkscape:connector-curvature="0"
       sodipodi:nodetypes="cczcccccc" />
    <path
       style="fill:#552200;stroke:none"
       d="m 236.78541,968.85697 16.70626,-0.20747 c 0,0 5.55592,-7.00701 5.49524,-18.66218 -0.0607,-11.65516 -6.32207,-20.42491 -6.32207,-20.42491 l -15.77524,-0.14016 -0.0726,10.6527 c 0,0 3.92733,2.46855 4.01571,9.54292 0.10261,5.39977 -3.87313,10.12266 -3.87313,10.12266 z"
       id="path3046-4"
       inkscape:connector-curvature="0"
       sodipodi:nodetypes="cczcccccc" />
    <path
       style="fill:#333333;stroke:none"
       d="m 169.4275,834.99232 12.58433,47.85999 176.6828,1.56975 13.39845,-47.6292 z"
       id="path3834"
       inkscape:connector-curvature="0"
       sodipodi:nodetypes="ccccc" />
    <path
       sodipodi:type="arc"
       style="fill:#ffffff;fill-opacity:1;stroke:none"
       id="path3836"
       sodipodi:cx="39.017143"
       sodipodi:cy="34.30835"
       sodipodi:rx="2.9041886"
       sodipodi:ry="3.0304577"
       d="m 41.921332,34.30835 c 0,1.673675 -1.30025,3.030457 -2.904189,3.030457 -1.603939,0 -2.904188,-1.356782 -2.904188,-3.030457 0,-1.673676 1.300249,-3.030458 2.904188,-3.030458 1.603939,0 2.904189,1.356782 2.904189,3.030458 z"
       transform="matrix(2.6839956,0.02384616,-0.0223856,2.6258164,99.104272,761.51567)" />
    <path
       sodipodi:type="arc"
       style="fill:#ffffff;fill-opacity:1;stroke:none"
       id="path3836-1"
       sodipodi:cx="39.017143"
       sodipodi:cy="34.30835"
       sodipodi:rx="2.9041886"
       sodipodi:ry="3.0304577"
       d="m 41.921332,34.30835 c 0,1.673675 -1.30025,3.030457 -2.904189,3.030457 -1.603939,0 -2.904188,-1.356782 -2.904188,-3.030457 0,-1.673676 1.300249,-3.030458 2.904188,-3.030458 1.603939,0 2.904189,1.356782 2.904189,3.030458 z"
       transform="matrix(2.6839956,0.02384616,-0.0223856,2.6258164,234.21463,762.71607)" />
    <path
       sodipodi:type="arc"
       style="fill:#ffffff;fill-opacity:1;stroke:none"
       id="path3836-6"
       sodipodi:cx="39.017143"
       sodipodi:cy="34.30835"
       sodipodi:rx="2.9041886"
       sodipodi:ry="3.0304577"
       d="m 41.921332,34.30835 c 0,1.673675 -1.30025,3.030457 -2.904189,3.030457 -1.603939,0 -2.904188,-1.356782 -2.904188,-3.030457 0,-1.673676 1.300249,-3.030458 2.904188,-3.030458 1.603939,0 2.904189,1.356782 2.904189,3.030458 z"
       transform="matrix(2.236663,0.01987182,-0.01865482,2.1881801,141.0344,786.18831)" />
    <path
       sodipodi:type="arc"
       style="fill:#ffffff;fill-opacity:1;stroke:none"
       id="path3836-6-9"
       sodipodi:cx="39.017143"
       sodipodi:cy="34.30835"
       sodipodi:rx="2.9041886"
       sodipodi:ry="3.0304577"
       d="m 41.921332,34.30835 c 0,1.673675 -1.30025,3.030457 -2.904189,3.030457 -1.603939,0 -2.904188,-1.356782 -2.904188,-3.030457 0,-1.673676 1.300249,-3.030458 2.904188,-3.030458 1.603939,0 2.904189,1.356782 2.904189,3.030458 z"
       transform="matrix(2.236663,0.01987182,-0.01865482,2.1881801,226.77754,786.95009)" />
    <path
       sodipodi:type="arc"
       style="fill:#000000;fill-opacity:1;stroke:none"
       id="path3836-6-9-5"
       sodipodi:cx="39.017143"
       sodipodi:cy="34.30835"
       sodipodi:rx="2.9041886"
       sodipodi:ry="3.0304577"
       d="m 41.921332,34.30835 c 0,1.673675 -1.30025,3.030457 -2.904189,3.030457 -1.603939,0 -2.904188,-1.356782 -2.904188,-3.030457 0,-1.673676 1.300249,-3.030458 2.904188,-3.030458 1.603939,0 2.904189,1.356782 2.904189,3.030458 z"
       transform="matrix(2.236663,0.01987182,-0.01865482,2.1881801,46.622239,769.54105)" />
    <path
       sodipodi:type="arc"
       style="fill:#000000;fill-opacity:1;stroke:none"
       id="path3836-6-9-5-6"
       sodipodi:cx="39.017143"
       sodipodi:cy="34.30835"
       sodipodi:rx="2.9041886"
       sodipodi:ry="3.0304577"
       d="m 41.921332,34.30835 c 0,1.673675 -1.30025,3.030457 -2.904189,3.030457 -1.603939,0 -2.904188,-1.356782 -2.904188,-3.030457 0,-1.673676 1.300249,-3.030458 2.904188,-3.030458 1.603939,0 2.904189,1.356782 2.904189,3.030458 z"
       transform="matrix(2.236663,0.01987182,-0.01865482,2.1881801,43.226194,936.98625)" />
    <path
       sodipodi:type="arc"
       style="fill:#000000;fill-opacity:1;stroke:none"
       id="path3836-6-9-5-9"
       sodipodi:cx="39.017143"
       sodipodi:cy="34.30835"
       sodipodi:rx="2.9041886"
       sodipodi:ry="3.0304577"
       d="m 41.921332,34.30835 c 0,1.673675 -1.30025,3.030457 -2.904189,3.030457 -1.603939,0 -2.904188,-1.356782 -2.904188,-3.030457 0,-1.673676 1.300249,-3.030458 2.904188,-3.030458 1.603939,0 2.904189,1.356782 2.904189,3.030458 z"
       transform="matrix(2.236663,0.01987182,-0.01865482,2.1881801,320.78341,939.45245)" />
    <path
       sodipodi:type="arc"
       style="fill:#000000;fill-opacity:1;stroke:none"
       id="path3836-6-9-5-8"
       sodipodi:cx="39.017143"
       sodipodi:cy="34.30835"
       sodipodi:rx="2.9041886"
       sodipodi:ry="3.0304577"
       d="m 41.921332,34.30835 c 0,1.673675 -1.30025,3.030457 -2.904189,3.030457 -1.603939,0 -2.904188,-1.356782 -2.904188,-3.030457 0,-1.673676 1.300249,-3.030458 2.904188,-3.030458 1.603939,0 2.904189,1.356782 2.904189,3.030458 z"
       transform="matrix(2.236663,0.01987182,-0.01865482,2.1881801,322.22249,770.6499)" />
    <path
       sodipodi:type="arc"
       style="fill:#000000;fill-opacity:1;stroke:none"
       id="path3836-6-9-5-82"
       sodipodi:cx="39.017143"
       sodipodi:cy="34.30835"
       sodipodi:rx="2.9041886"
       sodipodi:ry="3.0304577"
       d="m 41.921332,34.30835 c 0,1.673675 -1.30025,3.030457 -2.904189,3.030457 -1.603939,0 -2.904188,-1.356782 -2.904188,-3.030457 0,-1.673676 1.300249,-3.030458 2.904188,-3.030458 1.603939,0 2.904189,1.356782 2.904189,3.030458 z"
       transform="matrix(2.236663,0.01987182,-0.01865482,2.1881801,181.5636,797.53607)" />
    <rect
       style="fill:#cccccc;fill-opacity:1;stroke:none"
       id="rect3956"
       width="6.5618978"
       height="6.3638172"
       x="209.02434"
       y="959.39069"
       transform="matrix(0.99996053,0.00888426,-0.00852493,0.99996366,0,0)" />
    <rect
       style="fill:#cccccc;fill-opacity:1;stroke:none"
       id="rect3956-6"
       width="6.6157913"
       height="6.3132572"
       x="-411.51028"
       y="861.60583"
       transform="matrix(0.77380537,-0.63342344,0.61770347,0.78641111,0,0)"
       inkscape:transform-center-y="5.7428994"
       inkscape:transform-center-x="-1.797579" />
    <rect
       style="fill:#cccccc;fill-opacity:1;stroke:none"
       id="rect3956-51"
       width="6.5675187"
       height="6.358582"
       x="-4.6663051"
       y="966.10077"
       transform="matrix(0.97858246,-0.20585522,0.19786113,0.98023006,0,0)" />
    <rect
       style="fill:#cccccc;fill-opacity:1;stroke:none"
       id="rect3956-8"
       width="6.6715569"
       height="6.2600708"
       x="919.13635"
       y="228.70009"
       transform="matrix(0.44032683,0.89783756,-0.89043721,0.45510612,0,0)" />
    <rect
       style="fill:#cccccc;fill-opacity:1;stroke:none"
       id="rect3956-8-5"
       width="6.6042094"
       height="6.3241916"
       x="702.89917"
       y="664.31024"
       transform="matrix(0.82713524,0.56200293,-0.54615009,0.83768734,0,0)" />
    <path
       sodipodi:type="arc"
       style="fill:#ffffff;fill-opacity:1;stroke:none"
       id="path3002-7-6-3"
       sodipodi:cx="170.58951"
       sodipodi:cy="64.486656"
       sodipodi:rx="6.6922607"
       sodipodi:ry="6.9447989"
       d="m 177.28177,64.486656 c 0,3.835507 -2.99623,6.944799 -6.69226,6.944799 -3.69604,0 -6.69226,-3.109292 -6.69226,-6.944799 0,-3.835506 2.99622,-6.944799 6.69226,-6.944799 3.69603,0 6.69226,3.109293 6.69226,6.944799 z"
       transform="matrix(2.9118816,0.02587098,-0.02442086,2.864527,-166.91735,760.14479)" />
    <rect
       style="fill:#cccccc;fill-opacity:1;stroke:none"
       id="rect3956-3"
       width="6.5618978"
       height="6.3638172"
       x="331.40387"
       y="959.05573"
       transform="matrix(0.99996053,0.00888426,-0.00852493,0.99996366,0,0)" />
    <rect
       style="fill:#cccccc;fill-opacity:1;stroke:none"
       id="rect3956-6-6"
       width="6.6157913"
       height="6.3132572"
       x="-315.71658"
       y="939.72052"
       transform="matrix(0.77380537,-0.63342344,0.61770347,0.78641111,0,0)"
       inkscape:transform-center-y="5.7429156"
       inkscape:transform-center-x="-1.7975491" />
    <rect
       style="fill:#cccccc;fill-opacity:1;stroke:none"
       id="rect3956-51-0"
       width="6.5675187"
       height="6.358582"
       x="115.14697"
       y="992.03009"
       transform="matrix(0.97858246,-0.20585522,0.19786113,0.98023006,0,0)" />
    <rect
       style="fill:#cccccc;fill-opacity:1;stroke:none"
       id="rect3956-8-54"
       width="6.6715569"
       height="6.2600708"
       x="975.50842"
       y="119.1413"
       transform="matrix(0.44032683,0.89783756,-0.89043721,0.45510612,0,0)" />
    <rect
       style="fill:#cccccc;fill-opacity:1;stroke:none"
       id="rect3956-8-5-9"
       width="6.6042094"
       height="6.3241916"
       x="805.84271"
       y="596.14374"
       transform="matrix(0.82713524,0.56200293,-0.54615009,0.83768734,0,0)" />
    <path
       style="fill:none;stroke:#000000;stroke-width:2.62533498px;stroke-linecap:butt;stroke-linejoin:miter;stroke-opacity:1"
       d="M 163.98835,983.14193 371.3865,984.9846"
       id="path4048"
       inkscape:connector-curvature="0" />
    <path
       style="fill:none;stroke:#000000;stroke-width:2.62533498px;stroke-linecap:butt;stroke-linejoin:miter;stroke-opacity:1"
       d="m 164.57389,996.0993 207.39814,1.84265"
       id="path4048-7"
       inkscape:connector-curvature="0" />
  </g>
</svg>
