<?xml version="1.0" encoding="UTF-8" standalone="no"?>
<!-- Created with Inkscape (http://www.inkscape.org/) -->

<svg
   xmlns:dc="http://purl.org/dc/elements/1.1/"
   xmlns:cc="http://creativecommons.org/ns#"
   xmlns:rdf="http://www.w3.org/1999/02/22-rdf-syntax-ns#"
   xmlns:svg="http://www.w3.org/2000/svg"
   xmlns="http://www.w3.org/2000/svg"
   xmlns:sodipodi="http://sodipodi.sourceforge.net/DTD/sodipodi-0.dtd"
   xmlns:inkscape="http://www.inkscape.org/namespaces/inkscape"
   width="500"
   height="500"
   id="svg2"
   version="1.1"
   inkscape:version="0.48.5 r10040"
   sodipodi:docname="application-x-egon.svg">
  <defs
     id="defs4" />
  <sodipodi:namedview
     id="base"
     pagecolor="#ffffff"
     bordercolor="#666666"
     borderopacity="1.0"
     inkscape:pageopacity="0.0"
     inkscape:pageshadow="2"
     inkscape:zoom="1.2133333"
     inkscape:cx="209.24041"
     inkscape:cy="199.75819"
     inkscape:document-units="px"
     inkscape:current-layer="layer1"
     showgrid="false"
     inkscape:window-width="1366"
     inkscape:window-height="716"
     inkscape:window-x="0"
     inkscape:window-y="0"
     inkscape:window-maximized="1" />
  <metadata
     id="metadata7">
    <rdf:RDF>
      <cc:Work
         rdf:about="">
        <dc:format>image/svg+xml</dc:format>
        <dc:type
           rdf:resource="http://purl.org/dc/dcmitype/StillImage" />
        <dc:title />
      </cc:Work>
    </rdf:RDF>
  </metadata>
  <g
     inkscape:label="Layer 1"
     inkscape:groupmode="layer"
     id="layer1"
     transform="translate(0,-552.36218)">
    <rect
       style="fill:#ffffff;fill-opacity:1;stroke:none"
       id="rect3000"
       width="450"
       height="450"
       x="25"
       y="577.36218"
       ry="55.366497" />
    <path
       style="fill:#ff6600;stroke:none;stroke-width:1px;stroke-linecap:butt;stroke-linejoin:miter;stroke-opacity:1;fill-opacity:1"
       d="M 100,475 100,25 C 100,25 61.202184,19.758699 40.940323,41.934658 20.678462,64.110616 25,90.3 25,90.3 L 25,410 c 0,0 -3.104929,34.44943 20.038287,52.1379 C 68.181502,479.82637 100,475 100,475 z"
       id="path3770"
       inkscape:connector-curvature="0"
       transform="translate(0,552.36218)"
       sodipodi:nodetypes="cczcczc" />
    <rect
       style="fill:#00bbf2;fill-opacity:1;stroke:#ffffff;stroke-width:8.69658852;stroke-linecap:round;stroke-linejoin:round;stroke-miterlimit:4;stroke-opacity:1;stroke-dasharray:none"
       id="rect2997-3"
       width="269.18011"
       height="223.62656"
       x="136.31483"
       y="757.09625"
       transform="matrix(0.99991031,-0.01339323,0.01339323,0.99991031,0,0)" />
    <rect
       style="fill:#ff6600;fill-opacity:1;stroke:#ffffff;stroke-width:8.69658852;stroke-linecap:round;stroke-linejoin:round;stroke-miterlimit:4;stroke-opacity:1;stroke-dasharray:none"
       id="rect2997"
       width="269.18011"
       height="223.62659"
       x="-262.51089"
       y="790.56836"
       transform="matrix(0.89137186,-0.45327278,0.45327278,0.89137186,0,0)" />
    <path
       sodipodi:type="arc"
       style="fill:#faec6d;fill-opacity:1;stroke:none"
       id="path3767"
       sodipodi:cx="942.85712"
       sodipodi:cy="126.28571"
       sodipodi:rx="71.428574"
       sodipodi:ry="74.285713"
       d="m 1014.2857,126.28571 c 0,41.02687 -31.97967,74.28572 -71.42858,74.28572 -39.44892,0 -71.42858,-33.25885 -71.42858,-74.28572 C 871.42854,85.258847 903.4082,52 942.85712,52 c 39.31801,0 71.24318,33.046669 71.42778,73.93695"
       transform="matrix(0.34237532,-0.17410176,0.16424694,0.32299558,-138.42245,979.13715)"
       sodipodi:start="0"
       sodipodi:end="6.2784904"
       sodipodi:open="true" />
    <path
       style="fill:#803300;stroke:#000000;stroke-width:0.36235783px;stroke-linecap:butt;stroke-linejoin:miter;stroke-opacity:1"
       d="m 190.17357,943.56365 37.17039,73.90395 232.79429,-118.78913 -31.67856,-60.68153 c 0,0 -26.89785,28.5027 -57.19179,39.34876 -30.29394,10.84606 -92.22855,-3.54362 -123.19516,10.49433 -30.96658,14.03799 -57.89917,55.72362 -57.89917,55.72362 z"
       id="path3787"
       inkscape:connector-curvature="0"
       sodipodi:nodetypes="cccczzc" />
  </g>
</svg>
