<?xml version="1.0" encoding="UTF-8" standalone="no"?>
<!-- Created with Inkscape (http://www.inkscape.org/) -->

<svg
   xmlns:dc="http://purl.org/dc/elements/1.1/"
   xmlns:cc="http://creativecommons.org/ns#"
   xmlns:rdf="http://www.w3.org/1999/02/22-rdf-syntax-ns#"
   xmlns:svg="http://www.w3.org/2000/svg"
   xmlns="http://www.w3.org/2000/svg"
   xmlns:sodipodi="http://sodipodi.sourceforge.net/DTD/sodipodi-0.dtd"
   xmlns:inkscape="http://www.inkscape.org/namespaces/inkscape"
   width="500"
   height="500"
   id="svg2"
   version="1.1"
   inkscape:version="0.48.5 r10040"
   sodipodi:docname="application-postscript.svg">
  <defs
     id="defs4" />
  <sodipodi:namedview
     id="base"
     pagecolor="#ffffff"
     bordercolor="#666666"
     borderopacity="1.0"
     inkscape:pageopacity="0.0"
     inkscape:pageshadow="2"
     inkscape:zoom="0.60666666"
     inkscape:cx="612.66981"
     inkscape:cy="242.9136"
     inkscape:document-units="px"
     inkscape:current-layer="layer1"
     showgrid="false"
     inkscape:window-width="1366"
     inkscape:window-height="716"
     inkscape:window-x="0"
     inkscape:window-y="0"
     inkscape:window-maximized="1" />
  <metadata
     id="metadata7">
    <rdf:RDF>
      <cc:Work
         rdf:about="">
        <dc:format>image/svg+xml</dc:format>
        <dc:type
           rdf:resource="http://purl.org/dc/dcmitype/StillImage" />
        <dc:title />
      </cc:Work>
    </rdf:RDF>
  </metadata>
  <g
     inkscape:label="Layer 1"
     inkscape:groupmode="layer"
     id="layer1"
     transform="translate(0,-552.36218)">
    <rect
       style="fill:#ffffff;fill-opacity:1;stroke:none"
       id="rect3000"
       width="450"
       height="450"
       x="25"
       y="577.36218"
       ry="55.366497" />
    <path
       style="fill:#666666;stroke:none;stroke-width:1px;stroke-linecap:butt;stroke-linejoin:miter;stroke-opacity:1;fill-opacity:1"
       d="M 100,475 100,25 C 100,25 61.202184,19.758699 40.940323,41.934658 20.678462,64.110616 25,90.3 25,90.3 L 25,410 c 0,0 -3.104929,34.44943 20.038287,52.1379 C 68.181502,479.82637 100,475 100,475 z"
       id="path3770"
       inkscape:connector-curvature="0"
       transform="translate(0,552.36218)"
       sodipodi:nodetypes="cczcczc" />
    <rect
       style="fill:#999999;fill-opacity:1;stroke:none"
       id="rect2997"
       width="289.86526"
       height="69.488258"
       x="125.4964"
       y="872.00653" />
    <rect
       style="fill:#5d6a7b;fill-opacity:1;stroke:none"
       id="rect2997-3-6"
       width="226.33319"
       height="90.33474"
       x="155.77339"
       y="756.35809" />
    <path
       style="fill:#ffffff;stroke:none"
       d="m 173.65782,790.80632 0,-51.94336 44.22206,-35.79882 145.30104,-0.70193 0.70195,89.14604 z"
       id="path3841"
       inkscape:connector-curvature="0"
       sodipodi:nodetypes="cccccc" />
    <rect
       style="fill:#666666;fill-opacity:1;stroke:none"
       id="rect2997-3"
       width="289.86526"
       height="90.33474"
       x="125"
       y="784.64972" />
    <rect
       style="fill:#ffffff;fill-opacity:1;stroke:none"
       id="rect2997-3-6-5"
       width="226.33319"
       height="111.1812"
       x="160.73686"
       y="916.18103" />
    <rect
       style="fill:#5d6a7b;fill-opacity:1;stroke:none"
       id="rect2997-3-6-7"
       width="226.33319"
       height="22.831856"
       x="160.73686"
       y="895.33466" />
    <path
       sodipodi:type="arc"
       style="fill:#8dd35f;fill-opacity:1;stroke:none"
       id="path3053"
       sodipodi:cx="704.07635"
       sodipodi:cy="228.90475"
       sodipodi:rx="8.0812206"
       sodipodi:ry="8.3337584"
       d="m 712.15758,228.90475 c 0,4.60261 -3.61809,8.33376 -8.08123,8.33376 -4.46313,0 -8.08122,-3.73115 -8.08122,-8.33376 0,-4.6026 3.61809,-8.33375 8.08122,-8.33375 4.44833,0 8.06025,3.70734 8.08114,8.29463"
       transform="matrix(1.3996206,0,0,1.3996206,-599.96403,491.81709)"
       sodipodi:start="0"
       sodipodi:end="6.2784904"
       sodipodi:open="true" />
    <path
       style="fill:#ebebeb;stroke:none"
       d="m 173.39459,739.12619 44.48529,0 0.0876,-36.23752 z"
       id="path3843"
       inkscape:connector-curvature="0"
       sodipodi:nodetypes="cccc" />
    <rect
       style="fill:#cccccc;fill-opacity:1;stroke:none"
       id="rect2997-3-6-7-3"
       width="198.49983"
       height="10.898921"
       x="174.90703"
       y="930.30701" />
    <rect
       style="fill:#cccccc;fill-opacity:1;stroke:none"
       id="rect2997-3-6-7-3-5"
       width="198.49983"
       height="10.898921"
       x="173.38112"
       y="984.00513" />
    <rect
       style="fill:#cccccc;fill-opacity:1;stroke:none"
       id="rect2997-3-6-7-3-6"
       width="198.49983"
       height="10.898921"
       x="173.38104"
       y="955.92773" />
  </g>
</svg>
