<?xml version="1.0" encoding="UTF-8" standalone="no"?>
<!-- Created with Inkscape (http://www.inkscape.org/) -->

<svg
   xmlns:dc="http://purl.org/dc/elements/1.1/"
   xmlns:cc="http://creativecommons.org/ns#"
   xmlns:rdf="http://www.w3.org/1999/02/22-rdf-syntax-ns#"
   xmlns:svg="http://www.w3.org/2000/svg"
   xmlns="http://www.w3.org/2000/svg"
   xmlns:sodipodi="http://sodipodi.sourceforge.net/DTD/sodipodi-0.dtd"
   xmlns:inkscape="http://www.inkscape.org/namespaces/inkscape"
   width="500"
   height="500"
   id="svg2"
   version="1.1"
   inkscape:version="0.48.5 r10040"
   sodipodi:docname="image-x-compressed-xcf.svg">
  <defs
     id="defs4" />
  <sodipodi:namedview
     id="base"
     pagecolor="#ffffff"
     bordercolor="#666666"
     borderopacity="1.0"
     inkscape:pageopacity="0.0"
     inkscape:pageshadow="2"
     inkscape:zoom="0.8579562"
     inkscape:cx="258.23967"
     inkscape:cy="215.83127"
     inkscape:document-units="px"
     inkscape:current-layer="layer1"
     showgrid="false"
     inkscape:window-width="1366"
     inkscape:window-height="716"
     inkscape:window-x="0"
     inkscape:window-y="0"
     inkscape:window-maximized="1" />
  <metadata
     id="metadata7">
    <rdf:RDF>
      <cc:Work
         rdf:about="">
        <dc:format>image/svg+xml</dc:format>
        <dc:type
           rdf:resource="http://purl.org/dc/dcmitype/StillImage" />
        <dc:title />
      </cc:Work>
    </rdf:RDF>
  </metadata>
  <g
     inkscape:label="Layer 1"
     inkscape:groupmode="layer"
     id="layer1"
     transform="translate(0,-552.36218)">
    <rect
       style="fill:#ffffff;fill-opacity:1;stroke:none"
       id="rect3000"
       width="450"
       height="450"
       x="25"
       y="577.36218"
       ry="55.366497" />
    <path
       style="fill:#394050;stroke:none;stroke-width:1px;stroke-linecap:butt;stroke-linejoin:miter;stroke-opacity:1;fill-opacity:1"
       d="M 100,475 100,25 C 100,25 61.202184,19.758699 40.940323,41.934658 20.678462,64.110616 25,90.3 25,90.3 L 25,410 c 0,0 -3.104929,34.44943 20.038287,52.1379 C 68.181502,479.82637 100,475 100,475 z"
       id="path3770"
       inkscape:connector-curvature="0"
       transform="translate(0,552.36218)"
       sodipodi:nodetypes="cczcczc" />
    <path
       style="fill:#5d6a7b;stroke:none"
       d="m 362.80717,825.16435 10.01974,3.45124 0,4.45323 -8.57245,2.44925 0,13.80499 18.59219,-5.12119 -10.57639,5.45519 0.22265,10.35374 -8.01579,2.5606 0,13.13699 17.25623,-4.23055 -8.90644,5.23253 0,9.90841 -8.79511,3.00593 0.55665,12.46902 18.70353,-5.12121 -10.46507,6.01185 -0.22266,9.68575 -8.23845,2.44927 0.22265,12.35769 18.14688,-4.67589 -11.46705,7.23649 -0.334,4.0079 28.94595,0 -0.334,-13.58232 8.34979,-1.78129 -0.22266,-13.47099 -19.59418,4.34189 11.35573,-4.78721 0.11135,-9.57443 8.68378,-2.5606 0,-13.69365 -15.14095,4.34188 6.12317,-4.00789 0.11135,-10.01975 8.12713,-2.33794 0,-13.80498 -17.81289,4.3419 9.01778,-4.67588 0.44532,-11.2444 8.23845,-1.22462 0.44532,-13.58233 -16.36558,3.6739 8.46112,-6.5685 0,-4.23056 -36.29374,1.00198 z"
       id="path3941"
       inkscape:connector-curvature="0" />
    <path
       style="fill:#666666;stroke:none"
       d="m 364.97963,963.75436 0.15745,28.34012 -8.18714,0 0,10.23392 -14.64241,0.3149 -0.15743,-8.97437 -19.36576,0.15745 -0.31489,31.64652 19.83808,0 0,-8.1872 14.79985,-0.1574 0,10.2339 58.41214,-0.1574 0.15744,-9.9191 15.42962,0 0,8.6595 18.89342,0 -0.15745,-32.7486 -18.73597,0.15743 0,9.60417 -15.58706,0 -0.62979,-11.17861 -6.77014,0.15745 0,-28.49757 z"
       id="path3943"
       inkscape:connector-curvature="0" />
    <path
       style="fill:#394050;stroke:none"
       d="m 233.99179,953.87167 -0.44532,7.79313 17.59022,16.47692 92.18165,0.89065 12.0237,-13.35967 63.01308,-0.66797 0,-36.96174 -61.67711,0 -24.49272,26.05135 z"
       id="path3921"
       inkscape:connector-curvature="0" />
    <path
       style="fill:#394050;stroke:none"
       d="m 234.04926,802.73005 -0.44532,-7.79313 17.59022,-16.47692 92.18166,-0.89065 12.02369,13.35967 63.01308,0.66797 0,36.96173 -61.6771,0 -24.49272,-26.05134 z"
       id="path3921-3"
       inkscape:connector-curvature="0" />
    <rect
       style="fill:#ff6600;fill-opacity:1;stroke:none"
       id="rect2997"
       width="182.42189"
       height="151.55051"
       x="151.41183"
       y="802.17468"
       transform="matrix(0.99999922,0.00124833,-0.00124833,0.99999922,0,0)" />
    <path
       sodipodi:type="arc"
       style="fill:#faec6d;fill-opacity:1;stroke:none"
       id="path3767"
       sodipodi:cx="942.85712"
       sodipodi:cy="126.28571"
       sodipodi:rx="71.428574"
       sodipodi:ry="74.285713"
       d="m 1014.2857,126.28571 a 71.428574,74.285713 0 1 1 -8e-4,-0.34876"
       transform="matrix(0.2603018,3.2494609e-4,-3.0655346e-4,0.24556774,-56.093542,815.29583)"
       sodipodi:start="0"
       sodipodi:end="6.2784904"
       sodipodi:open="true" />
    <path
       style="fill:#803300;stroke:none"
       d="M 150.32875,896.5132 150,954.46756 l 183.09625,-0.0278 -0.45302,-47.95434 c 0,0 -25.8597,9.22546 -48.21814,6.35073 -22.35844,-2.87474 -56.42979,-31.57081 -80.2241,-32.6677 -23.79432,-1.09684 -53.87224,16.34475 -53.87224,16.34475 z"
       id="path3787"
       inkscape:connector-curvature="0"
       sodipodi:nodetypes="cccczzc" />
  </g>
</svg>
