<?xml version="1.0" encoding="UTF-8" standalone="no"?>
<!-- Created with Inkscape (http://www.inkscape.org/) -->

<svg
   xmlns:dc="http://purl.org/dc/elements/1.1/"
   xmlns:cc="http://creativecommons.org/ns#"
   xmlns:rdf="http://www.w3.org/1999/02/22-rdf-syntax-ns#"
   xmlns:svg="http://www.w3.org/2000/svg"
   xmlns="http://www.w3.org/2000/svg"
   xmlns:sodipodi="http://sodipodi.sourceforge.net/DTD/sodipodi-0.dtd"
   xmlns:inkscape="http://www.inkscape.org/namespaces/inkscape"
   width="500"
   height="500"
   id="svg2"
   version="1.1"
   inkscape:version="0.48.5 r10040"
   sodipodi:docname="image-ico.svg">
  <defs
     id="defs4" />
  <sodipodi:namedview
     id="base"
     pagecolor="#ffffff"
     bordercolor="#666666"
     borderopacity="1.0"
     inkscape:pageopacity="0.0"
     inkscape:pageshadow="2"
     inkscape:zoom="0.60666665"
     inkscape:cx="80.219755"
     inkscape:cy="115.15246"
     inkscape:document-units="px"
     inkscape:current-layer="layer1"
     showgrid="false"
     inkscape:window-width="1366"
     inkscape:window-height="716"
     inkscape:window-x="0"
     inkscape:window-y="0"
     inkscape:window-maximized="1" />
  <metadata
     id="metadata7">
    <rdf:RDF>
      <cc:Work
         rdf:about="">
        <dc:format>image/svg+xml</dc:format>
        <dc:type
           rdf:resource="http://purl.org/dc/dcmitype/StillImage" />
        <dc:title />
      </cc:Work>
    </rdf:RDF>
  </metadata>
  <g
     inkscape:label="Layer 1"
     inkscape:groupmode="layer"
     id="layer1"
     transform="translate(0,-552.36218)">
    <rect
       style="fill:#ffffff;fill-opacity:1;stroke:none"
       id="rect3000"
       width="450"
       height="450"
       x="25"
       y="577.36218"
       ry="55.366497" />
    <path
       style="fill:#00bbf2;stroke:none;stroke-width:1px;stroke-linecap:butt;stroke-linejoin:miter;stroke-opacity:1;fill-opacity:1"
       d="M 100,475 100,25 C 100,25 61.202184,19.758699 40.940323,41.934658 20.678462,64.110616 25,90.3 25,90.3 L 25,410 c 0,0 -3.104929,34.44943 20.038287,52.1379 C 68.181502,479.82637 100,475 100,475 z"
       id="path3770"
       inkscape:connector-curvature="0"
       transform="translate(0,552.36218)"
       sodipodi:nodetypes="cczcczc" />
    <rect
       style="fill:#ff6600;fill-opacity:1;stroke:#ffffff;stroke-width:8.69658852000000060;stroke-linecap:round;stroke-linejoin:round;stroke-miterlimit:4;stroke-opacity:1;stroke-dasharray:none"
       id="rect2997-3"
       width="269.18011"
       height="223.62656"
       x="136.31483"
       y="757.09625"
       transform="matrix(0.99991031,-0.01339323,0.01339323,0.99991031,0,0)" />
    <rect
       style="fill:#00bbf2;fill-opacity:1;stroke:#ffffff;stroke-width:8.69658852000000060;stroke-linecap:round;stroke-linejoin:round;stroke-miterlimit:4;stroke-opacity:1;stroke-dasharray:none"
       id="rect2997"
       width="269.18011"
       height="223.62659"
       x="-262.51089"
       y="790.56836"
       transform="matrix(0.89137186,-0.45327278,0.45327278,0.89137186,0,0)" />
    <path
       inkscape:connector-curvature="0"
       id="path2984"
       d="m 347.83693,905.61412 c -16.50139,3.96457 -31.38149,7.52772 -33.06691,7.91804 l -3.0644,0.70965 -9.93482,-21.51163 -9.93483,-21.51165 17.94105,-8.09648 c 9.86755,-4.45308 23.96461,-10.71764 31.32677,-13.9213 l 13.38574,-5.82484 12.5497,27.17359 c 11.81148,25.57512 12.49828,27.19364 11.67495,27.51492 -0.4812,0.18754 -14.37588,3.58509 -30.87725,7.5497 z m -65.30931,15.70526 -20.41477,4.97558 -8.11476,-17.23547 -8.11478,-17.23549 18.94997,-8.48253 c 10.42249,-4.66538 19.02962,-8.46 19.12697,-8.43248 0.0974,0.0275 4.4082,9.36158 9.57957,20.74243 l 9.40257,20.69238 -20.41477,4.97558 z M 234.93049,868.0763 c -4.3845,-9.49365 -7.90881,-17.29029 -7.83189,-17.32581 0.077,-0.0356 7.57066,-5.48744 16.65265,-12.11532 9.082,-6.62788 16.79449,-12.18081 17.13888,-12.33986 0.50087,-0.23133 2.52869,3.83033 10.13424,20.29844 l 9.50807,20.58762 -9.69883,4.86631 c -5.33436,2.67648 -13.80114,6.76161 -18.81507,9.07806 l -9.11599,4.21229 -7.97181,-17.2612 z m 43.54488,-25.78718 -9.98048,-21.6105 27.50743,-19.95583 c 15.12908,-10.97571 27.84073,-20.24011 28.24808,-20.58754 0.6991,-0.59629 1.45324,0.91124 13.44331,26.87307 l 12.70267,27.5048 -16.45263,7.5984 c -9.04895,4.17912 -22.98558,10.79107 -30.97027,14.69325 l -14.51764,7.09484 -9.98047,-21.61049 z"
       style="fill:#ffffff;fill-opacity:1" />
  </g>
</svg>
