<?xml version="1.0" encoding="UTF-8" standalone="no"?>
<!-- Created with Inkscape (http://www.inkscape.org/) -->

<svg
   xmlns:dc="http://purl.org/dc/elements/1.1/"
   xmlns:cc="http://creativecommons.org/ns#"
   xmlns:rdf="http://www.w3.org/1999/02/22-rdf-syntax-ns#"
   xmlns:svg="http://www.w3.org/2000/svg"
   xmlns="http://www.w3.org/2000/svg"
   xmlns:sodipodi="http://sodipodi.sourceforge.net/DTD/sodipodi-0.dtd"
   xmlns:inkscape="http://www.inkscape.org/namespaces/inkscape"
   width="500"
   height="500"
   id="svg2"
   version="1.1"
   inkscape:version="0.48.5 r10040"
   sodipodi:docname="image-x-xcf.svg">
  <defs
     id="defs4" />
  <sodipodi:namedview
     id="base"
     pagecolor="#ffffff"
     bordercolor="#666666"
     borderopacity="1.0"
     inkscape:pageopacity="0.0"
     inkscape:pageshadow="2"
     inkscape:zoom="0.4289781"
     inkscape:cx="365.78792"
     inkscape:cy="514.61235"
     inkscape:document-units="px"
     inkscape:current-layer="layer1"
     showgrid="false"
     inkscape:window-width="1366"
     inkscape:window-height="716"
     inkscape:window-x="0"
     inkscape:window-y="0"
     inkscape:window-maximized="1" />
  <metadata
     id="metadata7">
    <rdf:RDF>
      <cc:Work
         rdf:about="">
        <dc:format>image/svg+xml</dc:format>
        <dc:type
           rdf:resource="http://purl.org/dc/dcmitype/StillImage" />
        <dc:title />
      </cc:Work>
    </rdf:RDF>
  </metadata>
  <g
     inkscape:label="Layer 1"
     inkscape:groupmode="layer"
     id="layer1"
     transform="translate(0,-552.36218)">
    <rect
       style="fill:#ffffff;fill-opacity:1;stroke:none"
       id="rect3000"
       width="450"
       height="450"
       x="25"
       y="577.36218"
       ry="55.366497" />
    <path
       style="fill:#784421;stroke:none;stroke-width:1px;stroke-linecap:butt;stroke-linejoin:miter;stroke-opacity:1;fill-opacity:1"
       d="M 100,475 100,25 C 100,25 61.202184,19.758699 40.940323,41.934658 20.678462,64.110616 25,90.3 25,90.3 L 25,410 c 0,0 -3.104929,34.44943 20.038287,52.1379 C 68.181502,479.82637 100,475 100,475 z"
       id="path3770"
       inkscape:connector-curvature="0"
       transform="translate(0,552.36218)"
       sodipodi:nodetypes="cczcczc" />
    <path
       inkscape:connector-curvature="0"
       id="path4323"
       style="color:#000000;fill:#784421;fill-opacity:1;fill-rule:evenodd;stroke:none;stroke-width:0.9999997;marker:none;visibility:visible;display:inline;overflow:visible"
       d="m 211.18882,829.66843 c 0,0 18.95111,39.07983 63.28602,37.97733 92.90932,-2.3309 109.20148,-50.79732 111.53237,-57.79006 2.33095,-6.99273 5.89753,-5.93353 6.7221,0.5294 30.30183,275.0476 -210.29056,157.03539 -218.83513,110.18916 47.78374,-13.98547 36.12917,-40.79101 36.12917,-40.79101 l 1.16547,-50.11462 z" />
    <path
       inkscape:connector-curvature="0"
       id="path6480"
       style="color:#000000;fill:#394050;fill-opacity:1;fill-rule:evenodd;stroke:none;stroke-width:0.9999997;marker:none;visibility:visible;display:inline;overflow:visible"
       d="m 246.54886,945.68992 c 44.42832,8.88605 67.05348,0.64675 80.29502,-9.57792 -3.49637,-4.51614 -9.46933,-9.46933 -9.46933,-9.46933 0,0 15.515,4.31131 20.9782,11.36319 5.44758,7.03169 2.02275,11.36411 0.59732,20.36105 -3.17385,-7.90208 -9.09796,-10.86555 -9.89997,-14.00531 -11.90841,16.4618 -41.5772,15.77792 -82.50098,1.32832 z" />
    <path
       inkscape:connector-curvature="0"
       id="path4357"
       style="color:#000000;fill:#f2f2f2;fill-opacity:1;fill-rule:evenodd;stroke:none;stroke-width:0.99999988;marker:none;visibility:visible;display:inline;overflow:visible"
       d="m 259.55549,888.52407 a 26.8055,26.8055 0 0 1 -53.611,0 26.8055,26.8055 0 1 1 53.611,0 z" />
    <path
       inkscape:connector-curvature="0"
       id="path5198"
       style="color:#000000;fill:#394050;fill-opacity:1;fill-rule:evenodd;stroke:none;stroke-width:1.00000012;marker:none;visibility:visible;display:inline;overflow:visible"
       d="m 206.15738,898.62362 a 40.208274,28.553701 54.192151 1 1 -46.31315,33.41178 40.208274,28.553701 54.192151 0 1 46.31315,-33.41178 z" />
    <path
       inkscape:connector-curvature="0"
       id="path4359"
       style="color:#000000;fill:#394050;fill-opacity:1;fill-rule:evenodd;stroke:#394050;stroke-width:6.59281492;stroke-linecap:butt;stroke-linejoin:miter;stroke-miterlimit:10;stroke-opacity:1;stroke-dasharray:none;stroke-dashoffset:0;marker:none;visibility:visible;display:inline;overflow:visible"
       d="m 251.92438,892.4952 a 12.90636,12.90636 0 0 1 -25.81272,0 12.90636,12.90636 0 1 1 25.81272,0 z" />
    <path
       inkscape:connector-curvature="0"
       id="path4361"
       style="color:#000000;fill:#ffffff;fill-opacity:1;fill-rule:evenodd;stroke:none;stroke-width:0.9999997;marker:none;visibility:visible;display:inline;overflow:visible"
       d="m 242.98906,886.53833 a 8.9351563,8.9351563 0 1 1 -17.87029,0 8.9351563,8.9351563 0 1 1 17.87029,0 z" />
    <path
       inkscape:connector-curvature="0"
       id="path6462"
       style="color:#000000;fill:#f2f2f2;fill-opacity:1;fill-rule:evenodd;stroke:none;stroke-width:0.99999964;marker:none;visibility:visible;display:inline;overflow:visible"
       d="m 319.57636,891.43764 a 31.467317,31.467317 0 0 1 -62.93463,0 31.467317,31.467317 0 1 1 62.93463,0 z" />
    <path
       inkscape:connector-curvature="0"
       id="path6464"
       style="color:#000000;fill:#394050;fill-opacity:1;fill-rule:evenodd;stroke:#394050;stroke-width:6.59281301;stroke-linecap:butt;stroke-linejoin:miter;stroke-miterlimit:10;stroke-opacity:1;stroke-dasharray:none;stroke-dashoffset:0;marker:none;visibility:visible;display:inline;overflow:visible"
       d="m 310.61823,896.09948 a 15.150949,15.150949 0 0 1 -30.30189,0 15.150949,15.150949 0 1 1 30.30189,0 z" />
    <path
       inkscape:connector-curvature="0"
       id="path6466"
       style="color:#000000;fill:#ffffff;fill-opacity:1;fill-rule:evenodd;stroke:none;stroke-width:0.9999997;marker:none;visibility:visible;display:inline;overflow:visible"
       d="m 300.12907,889.10675 a 10.489106,10.489106 0 0 1 -20.97821,0 10.489106,10.489106 0 1 1 20.97821,0 z" />
    <path
       d="m 384.00345,985.414 6.10752,-12.16289 c -22.72102,-16.62273 -64.60504,-28.7177 -64.60504,-28.7177 -7.26014,-3.38179 -9.55134,3.14035 -4.52406,7.38013 0,0 35.81936,25.67881 63.02158,33.50046 z"
       style="color:#000000;fill:#ff6600;fill-opacity:1;fill-rule:nonzero;stroke:none;stroke-width:1.0000006;marker:none;visibility:visible;display:inline;overflow:visible"
       id="path6937"
       inkscape:connector-curvature="0" />
    <path
       d="m 413.13249,996.62522 3.26958,-7.23806 -25.36619,-16.25063 -2.02248,-0.17273 -0.87447,-2.79951 c -3.68486,2.30768 -9.03954,10.87974 -7.61977,15.69908 l 2.7397,-1.03626 1.48411,1.43433 28.38946,10.36357 z"
       style="color:#000000;fill:#999999;fill-opacity:1;fill-rule:nonzero;stroke:none;stroke-width:1.0000006;marker:none;visibility:visible;display:inline;overflow:visible"
       id="path6935"
       inkscape:connector-curvature="0" />
    <path
       d="m 449.99806,1027.3622 c -7.90814,-26.8441 -10.71299,-48.1583 -31.37962,-46.26168 -16.65438,1.52848 -17.82031,25.39148 -0.61049,31.97638 16.57855,6.3434 31.99011,14.2853 31.99011,14.2853 z"
       style="color:#000000;fill:#394050;fill-opacity:1;fill-rule:nonzero;stroke:none;stroke-width:0.2;marker:none;visibility:visible;display:inline;overflow:visible"
       id="path6933"
       inkscape:connector-curvature="0" />
  </g>
</svg>
