<?xml version="1.0" encoding="UTF-8" standalone="no"?>
<!-- Created with Inkscape (http://www.inkscape.org/) -->

<svg
   xmlns:dc="http://purl.org/dc/elements/1.1/"
   xmlns:cc="http://creativecommons.org/ns#"
   xmlns:rdf="http://www.w3.org/1999/02/22-rdf-syntax-ns#"
   xmlns:svg="http://www.w3.org/2000/svg"
   xmlns="http://www.w3.org/2000/svg"
   xmlns:sodipodi="http://sodipodi.sourceforge.net/DTD/sodipodi-0.dtd"
   xmlns:inkscape="http://www.inkscape.org/namespaces/inkscape"
   width="500"
   height="500"
   id="svg2"
   version="1.1"
   inkscape:version="0.48.5 r10040"
   sodipodi:docname="image-vnd.dgn.svg">
  <defs
     id="defs4" />
  <sodipodi:namedview
     id="base"
     pagecolor="#ffffff"
     bordercolor="#666666"
     borderopacity="1.0"
     inkscape:pageopacity="0.0"
     inkscape:pageshadow="2"
     inkscape:zoom="0.60666665"
     inkscape:cx="541.75823"
     inkscape:cy="115.15246"
     inkscape:document-units="px"
     inkscape:current-layer="layer1"
     showgrid="false"
     inkscape:window-width="1366"
     inkscape:window-height="716"
     inkscape:window-x="0"
     inkscape:window-y="0"
     inkscape:window-maximized="1" />
  <metadata
     id="metadata7">
    <rdf:RDF>
      <cc:Work
         rdf:about="">
        <dc:format>image/svg+xml</dc:format>
        <dc:type
           rdf:resource="http://purl.org/dc/dcmitype/StillImage" />
        <dc:title />
      </cc:Work>
    </rdf:RDF>
  </metadata>
  <g
     inkscape:label="Layer 1"
     inkscape:groupmode="layer"
     id="layer1"
     transform="translate(0,-552.36218)">
    <rect
       style="fill:#ffffff;fill-opacity:1;stroke:none"
       id="rect3000"
       width="450"
       height="450"
       x="25"
       y="577.36218"
       ry="55.366497" />
    <path
       style="fill:#00bbf2;stroke:none;stroke-width:1px;stroke-linecap:butt;stroke-linejoin:miter;stroke-opacity:1;fill-opacity:1"
       d="M 100,475 100,25 C 100,25 61.202184,19.758699 40.940323,41.934658 20.678462,64.110616 25,90.3 25,90.3 L 25,410 c 0,0 -3.104929,34.44943 20.038287,52.1379 C 68.181502,479.82637 100,475 100,475 z"
       id="path3770"
       inkscape:connector-curvature="0"
       transform="translate(0,552.36218)"
       sodipodi:nodetypes="cczcczc" />
    <path
       inkscape:connector-curvature="0"
       style="fill:#00bbf2;fill-opacity:1;fill-rule:evenodd;stroke:none"
       d="m 272.72727,727.36218 0,54.54545 54.54546,0 0,-54.54545 -54.54546,0 z m 13.63637,13.63636 27.27272,0 0,27.27273 -27.27272,0 0,-27.27273 z m -22.69173,17.15196 -26.34055,7.05791 3.54232,13.18363 26.34055,-7.05791 -3.54232,-13.18363 z m -40.90909,13.63636 -26.34055,7.05791 3.54232,13.18364 26.34055,-7.05791 -3.54232,-13.18364 z m 118.14627,3.75532 0,14.11582 83.76246,22.42541 -83.76246,23.91695 0,14.08909 0,101.36714 0,14.11582 0,47.70069 0,14.0891 0.39955,0 L 450,996.30754 l 0,-0.77181 0,-0.74591 0,-12.651 0,-163.10373 0,-0.15955 0,-14.32881 -109.09091,-29.00387 z m -163.63636,6.36545 A 13.636364,13.636364 0 0 0 163.63636,795.544 13.636364,13.636364 0 0 0 177.27273,809.18036 13.636364,13.636364 0 0 0 190.90909,795.544 13.636364,13.636364 0 0 0 177.27273,781.90763 z M 150,809.18036 l 0,190.90914 163.63636,27.2727 0,-190.90911 L 150,809.18036 z m 286.36364,13.74287 0,154.12827 -81.81819,-21.94609 0,-108.79787 81.81819,-23.38431 z m -81.81819,146.298 72.57641,19.44245 -72.57641,20.72082 0,-40.16327 z"
       id="path4166" />
  </g>
</svg>
