<?xml version="1.0" encoding="UTF-8" standalone="no"?>
<!-- Created with Inkscape (http://www.inkscape.org/) -->

<svg
   xmlns:dc="http://purl.org/dc/elements/1.1/"
   xmlns:cc="http://creativecommons.org/ns#"
   xmlns:rdf="http://www.w3.org/1999/02/22-rdf-syntax-ns#"
   xmlns:svg="http://www.w3.org/2000/svg"
   xmlns="http://www.w3.org/2000/svg"
   xmlns:sodipodi="http://sodipodi.sourceforge.net/DTD/sodipodi-0.dtd"
   xmlns:inkscape="http://www.inkscape.org/namespaces/inkscape"
   width="500"
   height="500"
   id="svg2"
   version="1.1"
   inkscape:version="0.91 r13725"
   sodipodi:docname="image-x-win-bmp.svg">
  <defs
     id="defs4" />
  <sodipodi:namedview
     id="base"
     pagecolor="#ffffff"
     bordercolor="#666666"
     borderopacity="1.0"
     inkscape:pageopacity="0.0"
     inkscape:pageshadow="2"
     inkscape:zoom="0.30333332"
     inkscape:cx="1144.9422"
     inkscape:cy="134.9106"
     inkscape:document-units="px"
     inkscape:current-layer="layer1"
     showgrid="false"
     inkscape:window-width="1366"
     inkscape:window-height="711"
     inkscape:window-x="0"
     inkscape:window-y="0"
     inkscape:window-maximized="1" />
  <metadata
     id="metadata7">
    <rdf:RDF>
      <cc:Work
         rdf:about="">
        <dc:format>image/svg+xml</dc:format>
        <dc:type
           rdf:resource="http://purl.org/dc/dcmitype/StillImage" />
        <dc:title />
      </cc:Work>
    </rdf:RDF>
  </metadata>
  <g
     inkscape:label="Layer 1"
     inkscape:groupmode="layer"
     id="layer1"
     transform="translate(0,-552.36218)">
    <path
       style="fill:#803300;fill-opacity:1;fill-rule:evenodd;stroke:none;stroke-width:1px;stroke-linecap:butt;stroke-linejoin:miter;stroke-opacity:1"
       d="M 63.03896,701.21202 116.261,753.31058 114.60095,680.26873 63,680.02363 Z"
       id="path4230"
       inkscape:connector-curvature="0"
       sodipodi:nodetypes="ccccc" />
    <path
       style="fill:#f2f2f2;fill-rule:evenodd;stroke:#afafaf;stroke-width:5.03546047;stroke-linecap:butt;stroke-linejoin:miter;stroke-miterlimit:4;stroke-dasharray:none;stroke-opacity:1"
       d="m 97.04097,1024.8357 336.88839,-1.1739 1.17377,-363.88668 -88.03697,-89.21086 -250.02519,0 z"
       id="path3364"
       inkscape:connector-curvature="0" />
    <path
       style="fill:#afafaf;fill-opacity:1;fill-rule:evenodd;stroke:#afafaf;stroke-width:5.03546047;stroke-linecap:butt;stroke-linejoin:miter;stroke-miterlimit:4;stroke-dasharray:none;stroke-opacity:1"
       d="m 431.51909,657.93096 -82.16431,-0.58691 0.75853,-83.80351 z"
       id="path4166"
       inkscape:connector-curvature="0"
       sodipodi:nodetypes="cccc" />
    <rect
       style="fill:#ff6600;fill-opacity:1;stroke:none;stroke-width:5;stroke-miterlimit:4;stroke-dasharray:none;stroke-opacity:1"
       id="rect4228"
       width="227.60316"
       height="84.350876"
       x="63.139629"
       y="617.18707" />
    <rect
       style="fill:#00bbf2;fill-opacity:1;stroke:#ffffff;stroke-width:6.83303928;stroke-linecap:round;stroke-linejoin:round;stroke-miterlimit:4;stroke-dasharray:none;stroke-opacity:1"
       id="rect2997-3"
       width="211.49884"
       height="175.70673"
       x="141.27185"
       y="807.73944"
       transform="matrix(0.99991031,-0.01339323,0.01339323,0.99991031,0,0)" />
    <rect
       style="fill:#ff6600;fill-opacity:1;stroke:#ffffff;stroke-width:6.83303928;stroke-linecap:round;stroke-linejoin:round;stroke-miterlimit:4;stroke-dasharray:none;stroke-opacity:1"
       id="rect2997"
       width="211.49884"
       height="175.70676"
       x="-269.53986"
       y="827.26752"
       transform="matrix(0.89137186,-0.45327278,0.45327278,0.89137186,0,0)" />
    <path
       sodipodi:type="arc"
       style="fill:#faec6d;fill-opacity:1;stroke:none"
       id="path3767"
       sodipodi:cx="-224.39304"
       sodipodi:cy="878.5155"
       sodipodi:rx="21.556612"
       sodipodi:ry="21.149883"
       d="m -202.83642,878.5155 a 21.556612,21.149883 0 0 1 -21.53131,21.14987 21.556612,21.149883 0 0 1 -21.58186,-21.10022 21.556612,21.149883 0 0 1 21.48065,-21.1994 21.556612,21.149883 0 0 1 21.63228,21.05046"
       transform="matrix(0.89137186,-0.45327277,0.45327277,0.89137186,0,0)"
       sodipodi:start="0"
       sodipodi:end="6.2784904"
       sodipodi:open="true" />
    <path
       style="fill:#803300;stroke:#000000;stroke-width:0.28470996px;stroke-linecap:butt;stroke-linejoin:miter;stroke-opacity:1"
       d="m 186.43755,953.77298 29.20533,58.06752 182.90995,-93.33448 -24.89032,-47.67837 c 0,0 -21.13403,22.395 -44.93644,30.9169 -23.8024,8.52191 -72.46535,-2.78427 -96.79628,8.24556 -24.3309,11.02985 -45.49224,43.78287 -45.49224,43.78287 z"
       id="path3787"
       inkscape:connector-curvature="0"
       sodipodi:nodetypes="cccczzc" />
    <path
       style="fill:none;fill-rule:evenodd;stroke:#ffffff;stroke-width:9;stroke-linecap:butt;stroke-linejoin:miter;stroke-miterlimit:4;stroke-dasharray:none;stroke-opacity:1"
       d="m 127.9637,631.34297 0,52.95329 20.19231,1e-5 c 0,0 15.79086,0.82537 15.25975,-13.95279 -0.53111,-14.77817 -14.02349,-14.48128 -14.02349,-14.48128 l -18.13186,0 17.92582,-0.20605 c 0,0 11.15385,-0.2958 11.02335,-12.6717 -0.1305,-12.3759 -15.45329,-11.64148 -15.45329,-11.64148 z"
       id="path4224"
       inkscape:connector-curvature="0"
       sodipodi:nodetypes="ccczccczcc" />
    <path
       style="fill:none;fill-rule:evenodd;stroke:#ffffff;stroke-width:9;stroke-linecap:butt;stroke-linejoin:miter;stroke-miterlimit:4;stroke-dasharray:none;stroke-opacity:1"
       d="m 177.01949,686.87315 0.29139,-54.56281 5.02648,-0.21854 15.88077,41.30456 3.35098,0 15.95362,-41.30456 5.24502,-0.0729 0,54.9999"
       id="path4260"
       inkscape:connector-curvature="0"
       sodipodi:nodetypes="cccccccc" />
    <path
       style="fill:none;fill-rule:evenodd;stroke:#ffffff;stroke-width:9.06382847;stroke-linecap:butt;stroke-linejoin:miter;stroke-miterlimit:4;stroke-dasharray:none;stroke-opacity:1"
       d="m 240.48506,687.55114 0,-56.44143 c 0,0 30.81883,-5.94185 30.71077,14.31786 -0.10806,20.2597 -30.08826,14.73287 -30.08826,14.73287"
       id="path4259"
       inkscape:connector-curvature="0"
       sodipodi:nodetypes="cczc" />
  </g>
</svg>
