<?xml version="1.0" encoding="UTF-8" standalone="no"?>
<!-- Created with Inkscape (http://www.inkscape.org/) -->

<svg
   xmlns:dc="http://purl.org/dc/elements/1.1/"
   xmlns:cc="http://creativecommons.org/ns#"
   xmlns:rdf="http://www.w3.org/1999/02/22-rdf-syntax-ns#"
   xmlns:svg="http://www.w3.org/2000/svg"
   xmlns="http://www.w3.org/2000/svg"
   xmlns:sodipodi="http://sodipodi.sourceforge.net/DTD/sodipodi-0.dtd"
   xmlns:inkscape="http://www.inkscape.org/namespaces/inkscape"
   width="500"
   height="500"
   id="svg2"
   version="1.1"
   inkscape:version="0.91 r13725"
   sodipodi:docname="image-vnd.dwg.svg">
  <defs
     id="defs4" />
  <sodipodi:namedview
     id="base"
     pagecolor="#ffffff"
     bordercolor="#666666"
     borderopacity="1.0"
     inkscape:pageopacity="0.0"
     inkscape:pageshadow="2"
     inkscape:zoom="0.8579562"
     inkscape:cx="344.59963"
     inkscape:cy="187.62593"
     inkscape:document-units="px"
     inkscape:current-layer="layer1"
     showgrid="false"
     inkscape:window-width="1366"
     inkscape:window-height="711"
     inkscape:window-x="0"
     inkscape:window-y="0"
     inkscape:window-maximized="1" />
  <metadata
     id="metadata7">
    <rdf:RDF>
      <cc:Work
         rdf:about="">
        <dc:format>image/svg+xml</dc:format>
        <dc:type
           rdf:resource="http://purl.org/dc/dcmitype/StillImage" />
        <dc:title />
      </cc:Work>
    </rdf:RDF>
  </metadata>
  <g
     inkscape:label="Layer 1"
     inkscape:groupmode="layer"
     id="layer1"
     transform="translate(0,-552.36218)">
    <path
       style="fill:#0091d0;fill-opacity:1;fill-rule:evenodd;stroke:none;stroke-width:1px;stroke-linecap:butt;stroke-linejoin:miter;stroke-opacity:1"
       d="M 63.03896,706.21201 116.261,758.31057 114.60095,685.26872 63,685.02362 Z"
       id="path4230"
       inkscape:connector-curvature="0"
       sodipodi:nodetypes="ccccc" />
    <path
       style="fill:#f2f2f2;fill-rule:evenodd;stroke:#afafaf;stroke-width:5.03546047;stroke-linecap:butt;stroke-linejoin:miter;stroke-miterlimit:4;stroke-dasharray:none;stroke-opacity:1"
       d="m 97.04097,1029.8357 336.88841,-1.1739 1.1738,-363.88669 -88.03702,-89.21086 -250.02519,0 z"
       id="path3364"
       inkscape:connector-curvature="0" />
    <path
       style="fill:#afafaf;fill-opacity:1;fill-rule:evenodd;stroke:#afafaf;stroke-width:5.03546047;stroke-linecap:butt;stroke-linejoin:miter;stroke-miterlimit:4;stroke-dasharray:none;stroke-opacity:1"
       d="m 431.51908,662.93095 -82.1643,-0.58691 0.75853,-83.80351 z"
       id="path4166-5"
       inkscape:connector-curvature="0"
       sodipodi:nodetypes="cccc" />
    <rect
       style="fill:#00bbf2;fill-opacity:1;stroke:none;stroke-width:5;stroke-miterlimit:4;stroke-dasharray:none;stroke-opacity:1"
       id="rect4228"
       width="227.60316"
       height="84.350876"
       x="63.139618"
       y="622.18707" />
    <path
       inkscape:connector-curvature="0"
       style="fill:#00bbf2;fill-opacity:1;fill-rule:evenodd;stroke:none"
       d="m 237.20022,772.96646 0,45.4545 45.45454,0 0,-45.4545 -45.45454,0 z m 11.36363,11.36365 22.72728,0 0,22.72715 -22.72728,0 0,-22.72715 z m -18.90977,14.29325 -21.95046,5.8816 2.95193,10.9863 21.95046,-5.8815 -2.95193,-10.9864 z m -34.09091,11.3636 -21.95046,5.8816 2.95193,10.9864 21.95046,-5.8816 -2.95193,-10.9864 z m 98.45523,3.1294 0,11.7633 69.80205,18.6878 -69.80205,19.9307 0,11.7409 0,84.4728 0,11.7631 0,39.75064 0,11.7409 0.33296,0 90.57612,-25.87894 0,-0.6432 0,-0.6215 0,-10.5426 0,-135.9197 0,-0.133 0,-11.9407 -90.90908,-24.1699 z m -136.36365,5.3046 a 11.363637,11.363637 0 0 0 -11.36363,11.3637 11.363637,11.363637 0 0 0 11.36363,11.3635 11.363637,11.363637 0 0 0 11.36364,-11.3635 11.363637,11.363637 0 0 0 -11.36364,-11.3637 z m -22.72727,22.7272 0,159.09104 136.36365,22.7273 0,-159.09094 -136.36365,-22.7274 z m 238.63638,11.4525 0,128.4403 -68.18183,-18.2885 0,-90.6649 68.18183,-19.4869 z m -68.18183,121.915 60.48035,16.202 -60.48035,17.26734 0,-33.46934 z"
       id="path4166" />
    <path
       style="fill:none;fill-rule:evenodd;stroke:#ffffff;stroke-width:9;stroke-linecap:butt;stroke-linejoin:miter;stroke-miterlimit:4;stroke-dasharray:none;stroke-opacity:1"
       d="m 103.61889,690.60543 0.47801,-52.10326 c 0,0 39.88141,-5.81127 40.39197,26.52965 0.51056,32.3409 -40.86998,25.57361 -40.86998,25.57361 z"
       id="path4271"
       inkscape:connector-curvature="0"
       sodipodi:nodetypes="cczc" />
    <path
       style="fill:none;fill-rule:evenodd;stroke:#ffffff;stroke-width:9;stroke-linecap:butt;stroke-linejoin:miter;stroke-miterlimit:4;stroke-dasharray:none;stroke-opacity:1"
       d="m 157.82262,632.78635 8.12106,56.21116 5.02648,0.21854 15.88077,-41.30456 3.35098,0 15.95362,41.30456 5.24502,0.0729 7.41758,-56.23616"
       id="path4260-2"
       inkscape:connector-curvature="0"
       sodipodi:nodetypes="cccccccc" />
    <path
       style="fill:none;fill-rule:evenodd;stroke:#ffffff;stroke-width:9;stroke-linecap:butt;stroke-linejoin:miter;stroke-miterlimit:4;stroke-dasharray:none;stroke-opacity:1"
       d="m 277.89465,642.9912 c 0,0 -7.25243,-7.68565 -22.72842,-7.57615 -15.476,0.1095 -23.56383,15.90175 -23.31121,28.26486 0.25262,12.36311 10.96559,25.46969 23.20515,26.73719 12.23955,1.2675 21.37753,-5.17432 21.37753,-5.17432 L 275.85492,665.13686 259.1,665.3554"
       id="path3367"
       inkscape:connector-curvature="0"
       sodipodi:nodetypes="czzzccc" />
  </g>
</svg>
