<?xml version="1.0" encoding="UTF-8" standalone="no"?>
<!-- Created with Inkscape (http://www.inkscape.org/) -->

<svg
   xmlns:dc="http://purl.org/dc/elements/1.1/"
   xmlns:cc="http://creativecommons.org/ns#"
   xmlns:rdf="http://www.w3.org/1999/02/22-rdf-syntax-ns#"
   xmlns:svg="http://www.w3.org/2000/svg"
   xmlns="http://www.w3.org/2000/svg"
   xmlns:sodipodi="http://sodipodi.sourceforge.net/DTD/sodipodi-0.dtd"
   xmlns:inkscape="http://www.inkscape.org/namespaces/inkscape"
   width="500"
   height="500"
   id="svg2"
   version="1.1"
   inkscape:version="0.48.5 r10040"
   sodipodi:docname="application-vnd.ms-excel.svg">
  <defs
     id="defs4" />
  <sodipodi:namedview
     id="base"
     pagecolor="#ffffff"
     bordercolor="#666666"
     borderopacity="1.0"
     inkscape:pageopacity="0.0"
     inkscape:pageshadow="2"
     inkscape:zoom="0.4289781"
     inkscape:cx="182.31776"
     inkscape:cy="292.92985"
     inkscape:document-units="px"
     inkscape:current-layer="layer1"
     showgrid="false"
     inkscape:window-width="1366"
     inkscape:window-height="716"
     inkscape:window-x="0"
     inkscape:window-y="0"
     inkscape:window-maximized="1" />
  <metadata
     id="metadata7">
    <rdf:RDF>
      <cc:Work
         rdf:about="">
        <dc:format>image/svg+xml</dc:format>
        <dc:type
           rdf:resource="http://purl.org/dc/dcmitype/StillImage" />
        <dc:title />
      </cc:Work>
    </rdf:RDF>
  </metadata>
  <g
     inkscape:label="Layer 1"
     inkscape:groupmode="layer"
     id="layer1"
     transform="translate(0,-552.36218)">
    <rect
       style="fill:#ffffff;fill-opacity:1;stroke:none"
       id="rect3000"
       width="450"
       height="450"
       x="25"
       y="577.36218"
       ry="55.366497" />
    <path
       style="fill:#45d03f;stroke:none;stroke-width:1px;stroke-linecap:butt;stroke-linejoin:miter;stroke-opacity:1;fill-opacity:1"
       d="M 100,475 100,25 C 100,25 61.202184,19.758699 40.940323,41.934658 20.678462,64.110616 25,90.3 25,90.3 L 25,410 c 0,0 -3.104929,34.44943 20.038287,52.1379 C 68.181502,479.82637 100,475 100,475 z"
       id="path3770"
       inkscape:connector-curvature="0"
       transform="translate(0,552.36218)"
       sodipodi:nodetypes="cczcczc" />
    <rect
       style="fill:#45d03f;fill-opacity:1;stroke:none"
       id="rect3932"
       width="280.4223"
       height="224.33792"
       x="150"
       y="782.55115" />
    <rect
       style="fill:#8dd35f;fill-opacity:1;stroke:none"
       id="rect3771"
       width="58.841366"
       height="27.233133"
       x="157.76389"
       y="788.92877" />
    <rect
       style="fill:#8dd35f;fill-opacity:1;stroke:none"
       id="rect3771-7"
       width="58.841366"
       height="27.233133"
       x="225.65775"
       y="788.92877" />
    <rect
       style="fill:#8dd35f;fill-opacity:1;stroke:none"
       id="rect3771-7-5"
       width="58.841366"
       height="27.233133"
       x="293.55161"
       y="788.92877" />
    <rect
       style="fill:#8dd35f;fill-opacity:1;stroke:none"
       id="rect3771-7-5-3"
       width="58.841366"
       height="27.233133"
       x="361.44547"
       y="788.92877" />
    <rect
       style="fill:#aade87;fill-opacity:1;stroke:none"
       id="rect3771-5"
       width="58.841366"
       height="27.233133"
       x="157.76389"
       y="825.26642" />
    <rect
       style="fill:#aade87;fill-opacity:1;stroke:none"
       id="rect3771-7-6"
       width="58.841366"
       height="27.233133"
       x="225.65775"
       y="825.26642" />
    <rect
       style="fill:#aade87;fill-opacity:1;stroke:none"
       id="rect3771-7-5-2"
       width="58.841366"
       height="27.233133"
       x="293.55161"
       y="825.26642" />
    <rect
       style="fill:#aade87;fill-opacity:1;stroke:none"
       id="rect3771-7-5-3-9"
       width="58.841366"
       height="27.233133"
       x="361.44553"
       y="825.26642" />
    <rect
       style="fill:#aade87;fill-opacity:1;stroke:none"
       id="rect3771-1"
       width="58.841366"
       height="27.233133"
       x="157.76389"
       y="861.33978" />
    <rect
       style="fill:#aade87;fill-opacity:1;stroke:none"
       id="rect3771-7-2"
       width="58.841366"
       height="27.233133"
       x="225.65775"
       y="861.33978" />
    <rect
       style="fill:#aade87;fill-opacity:1;stroke:none"
       id="rect3771-7-5-7"
       width="58.841366"
       height="27.233133"
       x="293.55161"
       y="861.33978" />
    <rect
       style="fill:#aade87;fill-opacity:1;stroke:none"
       id="rect3771-7-5-3-0"
       width="58.841366"
       height="27.233133"
       x="361.44547"
       y="861.33978" />
    <rect
       style="fill:#aade87;fill-opacity:1;stroke:none"
       id="rect3771-5-9"
       width="58.841366"
       height="27.233133"
       x="157.76389"
       y="897.67737" />
    <rect
       style="fill:#aade87;fill-opacity:1;stroke:none"
       id="rect3771-7-6-3"
       width="58.841366"
       height="27.233133"
       x="225.65775"
       y="897.67737" />
    <rect
       style="fill:#aade87;fill-opacity:1;stroke:none"
       id="rect3771-7-5-2-6"
       width="58.841366"
       height="27.233133"
       x="293.55164"
       y="897.67737" />
    <rect
       style="fill:#aade87;fill-opacity:1;stroke:none"
       id="rect3771-7-5-3-9-0"
       width="58.841366"
       height="27.233133"
       x="361.44553"
       y="897.67737" />
    <rect
       style="fill:#aade87;fill-opacity:1;stroke:none"
       id="rect3771-6"
       width="58.841366"
       height="27.233133"
       x="158.34541"
       y="934.25574" />
    <rect
       style="fill:#aade87;fill-opacity:1;stroke:none"
       id="rect3771-7-26"
       width="58.841366"
       height="27.233133"
       x="226.23929"
       y="934.25574" />
    <rect
       style="fill:#aade87;fill-opacity:1;stroke:none"
       id="rect3771-7-5-1"
       width="58.841366"
       height="27.233133"
       x="294.13315"
       y="934.25574" />
    <rect
       style="fill:#aade87;fill-opacity:1;stroke:none"
       id="rect3771-7-5-3-8"
       width="58.841366"
       height="27.233133"
       x="362.02707"
       y="934.25574" />
    <rect
       style="fill:#aade87;fill-opacity:1;stroke:none"
       id="rect3771-5-7"
       width="58.841366"
       height="27.233133"
       x="158.34541"
       y="970.59338" />
    <rect
       style="fill:#aade87;fill-opacity:1;stroke:none"
       id="rect3771-7-6-9"
       width="58.841366"
       height="27.233133"
       x="226.23929"
       y="970.59338" />
    <rect
       style="fill:#aade87;fill-opacity:1;stroke:none"
       id="rect3771-7-5-2-2"
       width="58.841366"
       height="27.233133"
       x="294.13318"
       y="970.59338" />
    <rect
       style="fill:#aade87;fill-opacity:1;stroke:none"
       id="rect3771-7-5-3-9-02"
       width="58.841366"
       height="27.233133"
       x="362.02707"
       y="970.59338" />
    <g
       id="g3961"
       transform="matrix(0.43878433,0,0,0.43878452,54.216534,816.91773)">
      <rect
         transform="matrix(0,1,-1,0,0,0)"
         rx="21.248234"
         ry="30.048391"
         y="-902"
         x="222.39226"
         height="380"
         width="257.21548"
         id="rect3003"
         style="fill:#394050;fill-opacity:1;stroke:none" />
      <path
         sodipodi:nodetypes="cccczcczcczcczc"
         inkscape:connector-curvature="0"
         id="path3773"
         d="m 888.29277,234.78694 c -2.79892,-1.83146 -6.49446,-1.5393 -6.49446,-1.5393 l -316.32985,0.0539 -23.19098,0.003 c 0,0 -3.62715,-0.12022 -5.51849,1.23479 -1.89134,1.35512 -2.06875,4.5815 -2.06875,4.5815 l 0.0137,223.47507 c 0,0 -0.25554,3.74338 1.57722,5.42709 1.83271,1.68371 5.90625,1.53638 5.90625,1.53638 l 329.58919,-0.0853 c 0,0 9.01713,0.88461 14.27075,-3.43524 5.25362,-4.31984 3.95992,-12.04617 3.95992,-12.04617 l 0.63379,-214.34297 c 0,0 0.44821,-3.03219 -2.35048,-4.86361 z"
         style="fill:#ffffff;stroke:none" />
      <path
         inkscape:connector-curvature="0"
         id="path17"
         d="m 725.57105,429.05271 h -28.24922 c -3.90017,0 -7.06271,-3.16254 -7.06271,-7.06271 V 308.99229 c 0,-3.90017 3.16254,-7.0627 7.06271,-7.0627 h 28.24922 c 3.90017,0 7.06271,3.16253 7.06271,7.0627 V 421.99 c 0,3.90017 -3.16254,7.06271 -7.06271,7.06271 z"
         style="fill:#ffcc00" />
      <path
         inkscape:connector-curvature="0"
         id="path21"
         d="m 662.00989,429.05271 h -28.24922 c -3.90017,0 -7.06271,-3.16254 -7.06271,-7.06271 v -77.68577 c 0,-3.90017 3.16254,-7.06271 7.06271,-7.06271 h 28.24922 c 3.90017,0 7.06271,3.16254 7.06271,7.06271 V 421.99 c 0,3.90017 -3.16254,7.06271 -7.06271,7.06271 z"
         style="fill:#f03916;fill-opacity:1" />
      <path
         inkscape:connector-curvature="0"
         id="path25"
         d="m 598.44874,429.05271 h -28.24922 c -3.90017,0 -7.06271,-3.16254 -7.06271,-7.06271 v -42.37464 c 0,-3.90017 3.16254,-7.06271 7.06271,-7.06271 h 28.24922 c 3.90016,0 7.0627,3.16254 7.0627,7.06271 V 421.99 c -7.9e-4,3.90017 -3.16254,7.06271 -7.0627,7.06271 z"
         style="fill:#004455" />
      <path
         inkscape:connector-curvature="0"
         id="path29"
         d="m 789.1322,429.05271 h -28.24921 c -3.90017,0 -7.06271,-3.16254 -7.06271,-7.06271 v -77.68577 c 0,-3.90017 3.16254,-7.06271 7.06271,-7.06271 h 28.24921 c 3.90017,0 7.06271,3.16254 7.06271,7.06271 V 421.99 c 0,3.90017 -3.16254,7.06271 -7.06271,7.06271 z"
         style="fill:#45d03f;fill-opacity:1" />
      <path
         inkscape:connector-curvature="0"
         id="path33"
         d="m 852.69415,429.05271 h -28.24922 c -3.90016,0 -7.0627,-3.16254 -7.0627,-7.06271 V 266.61766 c 0,-3.90017 3.16254,-7.0627 7.0627,-7.0627 h 28.24922 c 3.90017,0 7.06271,3.16253 7.06271,7.0627 V 421.99 c -8e-4,3.90017 -3.16254,7.06271 -7.06271,7.06271 z"
         style="fill:#00bbf2;fill-opacity:1" />
      <path
         inkscape:connector-curvature="0"
         id="path37"
         d="M 873.88067,436.11381 H 549.0122 c -3.90017,0 -7.06271,-3.16254 -7.06271,-7.06271 l 0,0 c 0,-3.90017 3.16254,-7.0627 7.06271,-7.0627 h 324.86927 c 3.90017,0 7.06271,3.16253 7.06271,7.0627 l 0,0 c -8e-4,3.90177 -3.16254,7.06271 -7.06351,7.06271 z"
         style="fill:#394050" />
    </g>
  </g>
</svg>
