<?xml version="1.0" encoding="UTF-8" standalone="no"?>
<!-- Created with Inkscape (http://www.inkscape.org/) -->

<svg
   xmlns:dc="http://purl.org/dc/elements/1.1/"
   xmlns:cc="http://creativecommons.org/ns#"
   xmlns:rdf="http://www.w3.org/1999/02/22-rdf-syntax-ns#"
   xmlns:svg="http://www.w3.org/2000/svg"
   xmlns="http://www.w3.org/2000/svg"
   xmlns:sodipodi="http://sodipodi.sourceforge.net/DTD/sodipodi-0.dtd"
   xmlns:inkscape="http://www.inkscape.org/namespaces/inkscape"
   width="500"
   height="500"
   id="svg2"
   version="1.1"
   inkscape:version="0.48.5 r10040"
   sodipodi:docname="application-vnd.ms-access.svg">
  <defs
     id="defs4" />
  <sodipodi:namedview
     id="base"
     pagecolor="#ffffff"
     bordercolor="#666666"
     borderopacity="1.0"
     inkscape:pageopacity="0.0"
     inkscape:pageshadow="2"
     inkscape:zoom="0.85795619"
     inkscape:cx="229.13204"
     inkscape:cy="201.91656"
     inkscape:document-units="px"
     inkscape:current-layer="layer1"
     showgrid="false"
     inkscape:window-width="1366"
     inkscape:window-height="716"
     inkscape:window-x="0"
     inkscape:window-y="0"
     inkscape:window-maximized="1" />
  <metadata
     id="metadata7">
    <rdf:RDF>
      <cc:Work
         rdf:about="">
        <dc:format>image/svg+xml</dc:format>
        <dc:type
           rdf:resource="http://purl.org/dc/dcmitype/StillImage" />
        <dc:title />
      </cc:Work>
    </rdf:RDF>
  </metadata>
  <g
     inkscape:label="Layer 1"
     inkscape:groupmode="layer"
     id="layer1"
     transform="translate(0,-552.36218)">
    <rect
       style="fill:#ffffff;fill-opacity:1;stroke:none"
       id="rect3000"
       width="450"
       height="450"
       x="25"
       y="577.36218"
       ry="55.366497" />
    <path
       style="fill:#f03916;stroke:none;stroke-width:1px;stroke-linecap:butt;stroke-linejoin:miter;stroke-opacity:1;fill-opacity:1"
       d="M 100,475 100,25 C 100,25 61.202184,19.758699 40.940323,41.934658 20.678462,64.110616 25,90.3 25,90.3 L 25,410 c 0,0 -3.104929,34.44943 20.038287,52.1379 C 68.181502,479.82637 100,475 100,475 z"
       id="path3770"
       inkscape:connector-curvature="0"
       transform="translate(0,552.36218)"
       sodipodi:nodetypes="cczcczc" />
    <rect
       style="fill:#782121;fill-opacity:1;stroke:none"
       id="rect3771"
       width="67.092743"
       height="20.40933"
       x="150"
       y="761.75397" />
    <rect
       style="fill:#782121;fill-opacity:1;stroke:none"
       id="rect3771-7"
       width="67.092743"
       height="20.40933"
       x="227.41472"
       y="761.75397" />
    <rect
       style="fill:#782121;fill-opacity:1;stroke:none"
       id="rect3771-7-5"
       width="67.092743"
       height="20.40933"
       x="304.82941"
       y="761.75397" />
    <rect
       style="fill:#782121;fill-opacity:1;stroke:none"
       id="rect3771-7-5-3"
       width="67.092743"
       height="20.40933"
       x="382.24414"
       y="761.75397" />
    <rect
       style="fill:#782121;fill-opacity:1;stroke:none"
       id="rect3771-5"
       width="67.092743"
       height="20.40933"
       x="150"
       y="788.98639" />
    <rect
       style="fill:#782121;fill-opacity:1;stroke:none"
       id="rect3771-7-6"
       width="67.092743"
       height="20.40933"
       x="227.41472"
       y="788.98639" />
    <rect
       style="fill:#782121;fill-opacity:1;stroke:none"
       id="rect3771-7-5-2"
       width="67.092743"
       height="20.40933"
       x="304.82941"
       y="788.98639" />
    <rect
       style="fill:#782121;fill-opacity:1;stroke:none"
       id="rect3771-7-5-3-9"
       width="67.092743"
       height="20.40933"
       x="382.24414"
       y="788.98639" />
    <rect
       style="fill:#782121;fill-opacity:1;stroke:none"
       id="rect3771-1"
       width="67.092743"
       height="20.40933"
       x="150"
       y="816.02087" />
    <rect
       style="fill:#782121;fill-opacity:1;stroke:none"
       id="rect3771-7-2"
       width="67.092743"
       height="20.40933"
       x="227.41472"
       y="816.02087" />
    <rect
       style="fill:#782121;fill-opacity:1;stroke:none"
       id="rect3771-7-5-7"
       width="67.092743"
       height="20.40933"
       x="304.82941"
       y="816.02087" />
    <rect
       style="fill:#782121;fill-opacity:1;stroke:none"
       id="rect3771-7-5-3-0"
       width="67.092743"
       height="20.40933"
       x="382.24414"
       y="816.02087" />
    <rect
       style="fill:#782121;fill-opacity:1;stroke:none"
       id="rect3771-5-9"
       width="67.092743"
       height="20.40933"
       x="150"
       y="843.25342" />
    <rect
       style="fill:#782121;fill-opacity:1;stroke:none"
       id="rect3771-7-6-3"
       width="67.092743"
       height="20.40933"
       x="227.41472"
       y="843.25342" />
    <rect
       style="fill:#782121;fill-opacity:1;stroke:none"
       id="rect3771-7-5-2-6"
       width="67.092743"
       height="20.40933"
       x="304.82941"
       y="843.25342" />
    <rect
       style="fill:#782121;fill-opacity:1;stroke:none"
       id="rect3771-7-5-3-9-0"
       width="67.092743"
       height="20.40933"
       x="382.24414"
       y="843.25342" />
    <rect
       style="fill:#782121;fill-opacity:1;stroke:none"
       id="rect3771-6"
       width="67.092743"
       height="20.40933"
       x="150.66309"
       y="870.66632" />
    <rect
       style="fill:#782121;fill-opacity:1;stroke:none"
       id="rect3771-7-26"
       width="67.092743"
       height="20.40933"
       x="228.07774"
       y="870.66632" />
    <rect
       style="fill:#782121;fill-opacity:1;stroke:none"
       id="rect3771-7-5-1"
       width="67.092743"
       height="20.40933"
       x="305.49243"
       y="870.66632" />
    <rect
       style="fill:#782121;fill-opacity:1;stroke:none"
       id="rect3771-7-5-3-8"
       width="67.092743"
       height="20.40933"
       x="382.90723"
       y="870.66632" />
    <rect
       style="fill:#782121;fill-opacity:1;stroke:none"
       id="rect3771-5-7"
       width="67.092743"
       height="20.40933"
       x="150.66309"
       y="897.89893" />
    <rect
       style="fill:#782121;fill-opacity:1;stroke:none"
       id="rect3771-7-6-9"
       width="67.092743"
       height="20.40933"
       x="228.07774"
       y="897.89893" />
    <rect
       style="fill:#782121;fill-opacity:1;stroke:none"
       id="rect3771-7-5-2-2"
       width="67.092743"
       height="20.40933"
       x="305.49249"
       y="897.89893" />
    <rect
       style="fill:#782121;fill-opacity:1;stroke:none"
       id="rect3771-7-5-3-9-02"
       width="67.092743"
       height="20.40933"
       x="382.90723"
       y="897.89893" />
    <rect
       style="fill:#782121;fill-opacity:1;stroke:none"
       id="rect3771-1-3"
       width="67.092743"
       height="20.40933"
       x="150.66309"
       y="924.93335" />
    <rect
       style="fill:#782121;fill-opacity:1;stroke:none"
       id="rect3771-7-2-7"
       width="67.092743"
       height="20.40933"
       x="228.07774"
       y="924.93335" />
    <rect
       style="fill:#782121;fill-opacity:1;stroke:none"
       id="rect3771-7-5-7-5"
       width="67.092743"
       height="20.40933"
       x="305.49249"
       y="924.93335" />
    <rect
       style="fill:#782121;fill-opacity:1;stroke:none"
       id="rect3771-7-5-3-0-9"
       width="67.092743"
       height="20.40933"
       x="382.90723"
       y="924.93335" />
    <rect
       style="fill:#782121;fill-opacity:1;stroke:none"
       id="rect3771-5-9-2"
       width="67.092743"
       height="20.40933"
       x="150.66309"
       y="952.16583" />
    <rect
       style="fill:#782121;fill-opacity:1;stroke:none"
       id="rect3771-7-6-3-2"
       width="67.092743"
       height="20.40933"
       x="228.07774"
       y="952.16583" />
    <rect
       style="fill:#782121;fill-opacity:1;stroke:none"
       id="rect3771-7-5-2-6-8"
       width="67.092743"
       height="20.40933"
       x="305.49249"
       y="952.16583" />
    <rect
       style="fill:#782121;fill-opacity:1;stroke:none"
       id="rect3771-7-5-3-9-0-9"
       width="67.092743"
       height="20.40933"
       x="382.90723"
       y="952.16583" />
    <rect
       style="fill:#782121;fill-opacity:1;stroke:none"
       id="rect3771-1-3-7"
       width="67.092743"
       height="20.40933"
       x="150.25284"
       y="979.7204" />
    <rect
       style="fill:#782121;fill-opacity:1;stroke:none"
       id="rect3771-7-2-7-3"
       width="67.092743"
       height="20.40933"
       x="227.66756"
       y="979.7204" />
    <rect
       style="fill:#782121;fill-opacity:1;stroke:none"
       id="rect3771-7-5-7-5-6"
       width="67.092743"
       height="20.40933"
       x="305.08228"
       y="979.7204" />
    <rect
       style="fill:#782121;fill-opacity:1;stroke:none"
       id="rect3771-7-5-3-0-9-1"
       width="67.092743"
       height="20.40933"
       x="382.49695"
       y="979.7204" />
    <rect
       style="fill:#782121;fill-opacity:1;stroke:none"
       id="rect3771-5-9-2-2"
       width="67.092743"
       height="20.40933"
       x="150.25284"
       y="1006.9528" />
    <rect
       style="fill:#782121;fill-opacity:1;stroke:none"
       id="rect3771-7-6-3-2-9"
       width="67.092743"
       height="20.40933"
       x="227.66756"
       y="1006.9528" />
    <rect
       style="fill:#782121;fill-opacity:1;stroke:none"
       id="rect3771-7-5-2-6-8-3"
       width="67.092743"
       height="20.40933"
       x="305.08228"
       y="1006.9528" />
    <rect
       style="fill:#782121;fill-opacity:1;stroke:none"
       id="rect3771-7-5-3-9-0-9-1"
       width="67.092743"
       height="20.40933"
       x="382.49701"
       y="1006.9528" />
    <path
       style="fill:#ffffff;stroke:none"
       d="m 206.04526,958.18076 c 0,0 21.78575,25.19056 99.09682,25.49578 77.31106,0.3052 94.76735,-28.38211 94.76735,-28.38211 l -0.48107,-111.60418 c 0,0 -8.5799,-29.6215 -97.17261,-29.3442 -88.59268,0.27729 -96.21049,30.78734 -96.21049,30.78734 z"
       id="path4031"
       inkscape:connector-curvature="0"
       sodipodi:nodetypes="czcczcc" />
    <path
       inkscape:connector-curvature="0"
       id="path3026"
       d="m 277.43592,978.27351 c -11.0011,-1.17839 -23.29199,-3.32071 -30.94539,-5.39374 -16.01118,-4.33686 -29.13888,-11.39372 -33.44962,-17.98104 -2.14132,-3.27224 -2.22356,-3.82882 -2.22356,-15.05176 0,-6.51708 0.34288,-11.65385 0.77793,-11.65385 0.42784,0 1.77592,1.29683 2.99574,2.88183 11.26605,14.63902 51.34886,24.36685 95.07969,23.07519 40.46681,-1.19525 72.55274,-10.4686 81.3185,-23.50234 1.1501,-1.71008 2.45388,-3.10925 2.89726,-3.10925 1.46114,0 1.95898,4.52215 1.57151,14.27479 -0.34661,8.72394 -0.5872,9.92136 -2.59024,12.89146 -6.99075,10.36597 -27.11773,18.38101 -56.92278,22.66799 -12.47141,1.79385 -45.43427,2.30128 -58.50904,0.90072 z m 4.72778,-31.83059 c -26.55091,-2.03117 -51.1501,-8.92938 -62.7449,-17.59522 -7.65016,-5.71765 -8.1261,-6.8711 -8.44081,-20.45552 -0.18099,-7.81243 0.0266,-11.61874 0.6339,-11.61874 0.49671,0 1.86574,1.16122 3.04229,2.58049 7.4678,9.0083 26.93593,16.54836 52.38092,20.28719 50.73211,7.45455 110.09527,-2.47329 123.57931,-20.66725 1.43059,-1.93027 2.92725,-3.50958 3.32592,-3.50958 1.30889,0 1.91533,5.86316 1.52137,14.70874 -0.34746,7.8017 -0.62817,9.072 -2.72626,12.33756 -10.81944,16.83979 -61.08077,27.71844 -110.57174,23.93233 z m 2.57877,-32.07072 c -34.0625,-2.29149 -63.04931,-11.96072 -71.15835,-23.7366 -2.16868,-3.14934 -2.32774,-3.97854 -2.61254,-13.61985 -0.37063,-12.54792 0.18166,-13.74543 4.16127,-9.02285 7.238,8.5892 24.26038,15.19052 48.91,18.96737 54.08561,8.28705 114.58822,-1.87753 127.63416,-21.44287 0.78018,-1.17004 1.73522,-2.12737 2.12231,-2.12737 1.09369,0 1.88324,17.6612 0.97875,21.89312 -4.11047,19.23205 -55.32029,32.76991 -110.0356,29.08905 z m 4.20641,-32.06628 c -35.43836,-1.71579 -67.75941,-12.22458 -75.24457,-24.46486 -10.25622,-16.77172 20.71346,-33.14745 70.07633,-37.05399 13.89388,-1.09957 40.82579,-0.44291 53.0239,1.29283 14.32579,2.03852 23.84462,4.32168 34.52346,8.28079 15.64729,5.80109 23.44256,12.72456 23.44256,20.82083 0,19.30578 -49.46054,33.85319 -105.82168,31.1244 z"
       style="fill:#f03916;fill-opacity:1" />
  </g>
</svg>
