<?xml version="1.0" encoding="UTF-8" standalone="no"?>
<!-- Created with Inkscape (http://www.inkscape.org/) -->

<svg
   xmlns:dc="http://purl.org/dc/elements/1.1/"
   xmlns:cc="http://creativecommons.org/ns#"
   xmlns:rdf="http://www.w3.org/1999/02/22-rdf-syntax-ns#"
   xmlns:svg="http://www.w3.org/2000/svg"
   xmlns="http://www.w3.org/2000/svg"
   xmlns:xlink="http://www.w3.org/1999/xlink"
   xmlns:sodipodi="http://sodipodi.sourceforge.net/DTD/sodipodi-0.dtd"
   xmlns:inkscape="http://www.inkscape.org/namespaces/inkscape"
   width="500"
   height="500"
   id="svg2"
   version="1.1"
   inkscape:version="0.48.5 r10040"
   sodipodi:docname="application-vnd.stardivision.mail.svg">
  <defs
     id="defs4">
    <radialGradient
       inkscape:collect="always"
       xlink:href="#SVGID_24_"
       id="radialGradient4031"
       gradientUnits="userSpaceOnUse"
       gradientTransform="matrix(0.205,0,0,-0.205,-254.2424,82.5027)"
       cx="1311.9355"
       cy="-1874.3018"
       r="8.5094995" />
    <radialGradient
       id="SVGID_24_"
       cx="1311.9355"
       cy="-1874.3018"
       r="8.5094995"
       gradientTransform="matrix(0.205,0,0,-0.205,-254.2424,82.5027)"
       gradientUnits="userSpaceOnUse">
      <stop
         offset="0"
         stop-color="#600000"
         id="stop222" />
      <stop
         offset="0.5"
         stop-color="#C00000"
         id="stop224" />
      <stop
         offset="1"
         stop-color="#F6AA00"
         id="stop226" />
    </radialGradient>
    <radialGradient
       inkscape:collect="always"
       xlink:href="#SVGID_25_"
       id="radialGradient4033"
       gradientUnits="userSpaceOnUse"
       gradientTransform="matrix(0.205,0,0,-0.205,-254.2424,82.5027)"
       cx="1312.9648"
       cy="-1872.2422"
       r="3.7997" />
    <radialGradient
       id="SVGID_25_"
       cx="1312.9648"
       cy="-1872.2422"
       r="3.7997"
       gradientTransform="matrix(0.205,0,0,-0.205,-254.2424,82.5027)"
       gradientUnits="userSpaceOnUse">
      <stop
         offset="0.01"
         stop-color="#FFF"
         id="stop231" />
      <stop
         offset="1"
         stop-color="#000"
         id="stop233" />
    </radialGradient>
    <radialGradient
       inkscape:collect="always"
       xlink:href="#SVGID_26_"
       id="radialGradient4035"
       gradientUnits="userSpaceOnUse"
       gradientTransform="matrix(0.205,0,0,-0.205,-254.2424,82.5027)"
       cx="1304.8555"
       cy="-1894.6313"
       r="12.9691" />
    <radialGradient
       id="SVGID_26_"
       cx="1304.8555"
       cy="-1894.6313"
       r="12.9691"
       gradientTransform="matrix(0.205,0,0,-0.205,-254.2424,82.5027)"
       gradientUnits="userSpaceOnUse">
      <stop
         offset="0"
         stop-color="#769EB8"
         id="stop238" />
      <stop
         offset="1"
         stop-color="#FFF"
         id="stop240" />
    </radialGradient>
    <radialGradient
       inkscape:collect="always"
       xlink:href="#SVGID_27_"
       id="radialGradient4037"
       gradientUnits="userSpaceOnUse"
       gradientTransform="matrix(0.205,0,0,-0.205,-254.2424,82.5027)"
       cx="1300.6055"
       cy="-1889.6313"
       r="3.7781999" />
    <radialGradient
       id="SVGID_27_"
       cx="1300.6055"
       cy="-1889.6313"
       r="3.7781999"
       gradientTransform="matrix(0.205,0,0,-0.205,-254.2424,82.5027)"
       gradientUnits="userSpaceOnUse">
      <stop
         offset="0.01"
         stop-color="#FFF"
         id="stop247" />
      <stop
         offset="1"
         stop-color="#000"
         id="stop249" />
    </radialGradient>
    <radialGradient
       r="3.7781999"
       cy="-1889.6313"
       cx="1300.6055"
       gradientTransform="matrix(0.205,0,0,-0.205,-254.2424,82.5027)"
       gradientUnits="userSpaceOnUse"
       id="radialGradient3158"
       xlink:href="#SVGID_27_"
       inkscape:collect="always" />
    <radialGradient
       inkscape:collect="always"
       xlink:href="#SVGID_27_"
       id="radialGradient3087"
       gradientUnits="userSpaceOnUse"
       gradientTransform="matrix(1.3661072,0,0,-1.3664237,-1562.6069,-1742.4608)"
       cx="1300.6055"
       cy="-1889.6313"
       r="3.7781999" />
    <radialGradient
       inkscape:collect="always"
       xlink:href="#SVGID_26_"
       id="radialGradient3091"
       gradientUnits="userSpaceOnUse"
       gradientTransform="matrix(1.3661072,0,0,-1.3664237,-1562.6069,-1742.4608)"
       cx="1304.8555"
       cy="-1894.6313"
       r="12.9691" />
    <radialGradient
       inkscape:collect="always"
       xlink:href="#SVGID_25_"
       id="radialGradient3094"
       gradientUnits="userSpaceOnUse"
       gradientTransform="matrix(1.3661072,0,0,-1.3664237,-1562.6069,-1742.4608)"
       cx="1312.9648"
       cy="-1872.2422"
       r="3.7997" />
    <radialGradient
       inkscape:collect="always"
       xlink:href="#SVGID_24_"
       id="radialGradient3097"
       gradientUnits="userSpaceOnUse"
       gradientTransform="matrix(1.3661072,0,0,-1.3664237,-1562.6069,-1742.4608)"
       cx="1311.9355"
       cy="-1874.3018"
       r="8.5094995" />
  </defs>
  <sodipodi:namedview
     id="base"
     pagecolor="#ffffff"
     bordercolor="#666666"
     borderopacity="1.0"
     inkscape:pageopacity="0.0"
     inkscape:pageshadow="2"
     inkscape:zoom="0.8579562"
     inkscape:cx="594.95236"
     inkscape:cy="150.67626"
     inkscape:document-units="px"
     inkscape:current-layer="layer1"
     showgrid="false"
     inkscape:window-width="1366"
     inkscape:window-height="716"
     inkscape:window-x="0"
     inkscape:window-y="0"
     inkscape:window-maximized="1" />
  <metadata
     id="metadata7">
    <rdf:RDF>
      <cc:Work
         rdf:about="">
        <dc:format>image/svg+xml</dc:format>
        <dc:type
           rdf:resource="http://purl.org/dc/dcmitype/StillImage" />
        <dc:title />
      </cc:Work>
    </rdf:RDF>
  </metadata>
  <g
     inkscape:label="Layer 1"
     inkscape:groupmode="layer"
     id="layer1"
     transform="translate(0,-552.36218)">
    <rect
       style="fill:#ffffff;fill-opacity:1;stroke:none"
       id="rect3000"
       width="450"
       height="450"
       x="25"
       y="577.36218"
       ry="55.366497" />
    <path
       style="fill:#00bbf2;stroke:none;stroke-width:1px;stroke-linecap:butt;stroke-linejoin:miter;stroke-opacity:1;fill-opacity:1"
       d="M 100,475 100,25 C 100,25 61.202184,19.758699 40.940323,41.934658 20.678462,64.110616 25,90.3 25,90.3 L 25,410 c 0,0 -3.104929,34.44943 20.038287,52.1379 C 68.181502,479.82637 100,475 100,475 z"
       id="path3770"
       inkscape:connector-curvature="0"
       transform="translate(0,552.36218)"
       sodipodi:nodetypes="cczcczc" />
    <path
       d="m 376.3417,856.31257 -130.38661,49.07128 -59.92879,-95.32972 -26.14929,33.48071 17.96598,91.50373 166.90498,54.05039 39.21727,-66.62815 -7.62354,-66.14824 z"
       id="path22"
       style="fill:#cccccc;stroke:none"
       inkscape:connector-curvature="0" />
    <path
       d="m 376.3417,856.31257 -2.58561,-22.40935 -185.11752,-27.1885 -0.9796,1.24645 -1.63267,2.09296 59.92879,95.32972 130.38661,-49.07128 z"
       id="path38"
       style="fill:#ebebeb;stroke:none"
       inkscape:connector-curvature="0" />
    <path
       d="m 235.69929,953.77524 -57.8563,-18.73667 -6.8572,-28.75488 -12.13503,-3.9793 c 0,0 12.63483,39.63296 35.17227,71.48063 45.67463,31.84098 34.51253,16.33043 34.55918,16.33043 8.16999,4.78581 13.63441,4.78581 13.6744,4.78581 -0.0267,-4.78581 -20.52493,-5.80563 -26.28924,-38.26653 6.1175,12.29782 30.71409,19.12994 32.12018,17.76351 0.89964,-0.91317 -2.99877,-7.63197 -11.69521,-20.14975 l -0.69305,-0.47325 z"
       id="path65"
       style="fill:#0b2228"
       inkscape:connector-curvature="0" />
    <path
       d="m 218.63295,986.02284 c 0,0 -29.17472,-1.98631 -54.00455,-51.23089 -14.66067,-50.94428 19.34541,29.30146 54.03787,51.23089 h -0.0333 z"
       id="path74"
       style="fill:#0b2228"
       inkscape:connector-curvature="0" />
    <path
       d="m 150.20097,873.65615 c 0,0 3.52523,76.81968 42.50926,89.4641 -19.84521,-26.98854 -25.46957,-79.60585 -25.42959,-79.60585 l -17.07967,-9.85825 z"
       id="path83"
       style="fill:#164450"
       inkscape:connector-curvature="0" />
    <path
       d="m 173.19822,922.46748 c -8.19664,1.70636 -23.73694,-26.99521 -23.18384,-56.71659 0.32654,-19.81648 3.73181,-35.64699 10.20915,-47.49156 l 6.83054,56.37665 c 0,0 0,38.60647 6.1908,47.83816 h -0.0466 z"
       id="path92"
       style="fill:#216778"
       inkscape:connector-curvature="0" />
    <path
       d="m 278.06861,744.44579 c 0,0 -93.60167,15.03733 -117.81176,73.80021 -16.59986,41.52595 20.97142,77.05964 26.64909,71.42064 -0.0266,0 -20.40498,-26.52862 -0.32653,-66.16157 13.34787,-26.42864 43.84871,-52.77729 91.4892,-79.05928 z"
       id="path94"
       style="fill:#00222b"
       inkscape:connector-curvature="0" />
    <path
       d="m 278.06861,744.44579 c 0,0 -93.60167,15.03733 -117.81176,73.80021 -16.59986,41.52595 20.97142,77.05964 26.64909,71.42064 -0.0266,0 -25.98936,-30.75453 -3.05875,-72.44046 15.24709,-27.78839 46.64757,-52.05074 94.22142,-72.78039 z"
       id="path103"
       style="fill:#00bbf2"
       inkscape:connector-curvature="0" />
    <path
       d="m 369.77772,759.64975 c -7.10376,-6.64548 -23.597,-11.08469 -32.93984,-12.98435 -8.05004,-1.61305 -16.61986,-2.13296 -24.72988,-2.73285 -5.61103,-0.39993 -21.5645,-0.1 -28.34172,0.59989 -17.10633,1.77302 -23.95686,8.0919 -37.71123,17.81683 -12.61483,8.87176 -31.16723,18.53671 -36.65165,34.04728 -4.34489,8.61181 -0.43316,22.35603 -0.23324,30.82119 l 0.23324,5.95894 c -0.2599,-0.41992 -0.37985,-0.68654 -0.33987,-0.68654 0.04,0 -7.59688,18.84998 0.88631,27.33514 0.08,-0.76653 0.25989,-1.51973 0.55977,-2.25293 l -0.54644,2.25293 c 0,0 3.70515,-6.7788 10.50903,-10.31817 6.80388,-3.53937 13.04799,-6.66548 18.13257,-9.7316 5.08458,-3.05946 21.0114,-15.82385 33.99941,-14.92401 8.64979,0.60655 33.69953,5.01244 75.15589,13.21098 l 4.3249,-20.94961 -7.84346,-5.91895 c 0.83299,-2.19961 1.47273,-4.53919 2.69223,-6.53217 2.97212,-5.12575 3.3453,-9.59163 3.29199,-15.44392 6.91716,-1.63304 14.66066,-4.4792 19.19214,-10.35149 3.85175,-5.13909 5.70433,-14.21081 0.4065,-19.21659 h -0.0466 z"
       id="path114"
       style="fill:#00222b"
       inkscape:connector-curvature="0" />
    <path
       d="m 369.77772,759.64975 c -7.10376,-6.64548 -23.597,-11.08469 -32.93984,-12.98435 -8.05004,-1.61305 -16.61986,-2.13296 -24.72988,-2.73285 -5.61103,-0.39993 -21.5645,-0.1 -28.34172,0.59989 -17.10633,1.77302 -23.95686,8.0919 -37.71123,17.81683 -12.61483,8.87176 -31.16723,18.53671 -36.65165,34.04728 -4.34489,8.61181 -0.43316,22.35603 -0.23324,30.82119 l 0.23324,5.95894 c -0.2599,-0.41992 -0.37985,-0.68654 -0.33987,-0.68654 0.04,0 -7.59688,18.84998 0.88631,27.33514 0.91296,-8.88509 15.02718,-15.71721 15.07383,-15.71721 l 10.4024,-5.2324 c 1.58602,-1.07981 5.94423,-3.73267 7.337,-5.12576 8.2966,-4.79914 15.24709,-10.07154 25.0564,-11.0447 12.94137,-1.29977 25.18302,4.45254 38.09107,3.05946 10.58233,-1.14647 25.04974,-2.65287 34.24598,-8.51182 4.31823,-2.77951 4.43818,-8.40518 6.93716,-12.5911 2.97878,-5.11242 3.35196,-9.59163 3.29198,-15.44392 6.91717,-1.63971 14.66733,-4.4792 19.18548,-10.35816 3.69848,-5.13908 5.55106,-14.21081 0.24656,-19.21658 h -0.04 z"
       id="path123"
       style="fill:#00bbf2"
       inkscape:connector-curvature="0" />
    <path
       d="m 272.60418,736.93379 c -1.49272,0.62656 -3.00544,1.5064 -4.49816,2.55288 1.51938,-1.05314 3.03209,-1.93965 4.53814,-2.55288 h -0.04 z m 0,0 c -13.16128,8.53848 -17.9993,26.20201 -17.95265,26.20201 1.33945,-0.57323 3.31864,-3.08612 5.98422,-6.16557 -1.59935,1.84634 -2.96545,3.49938 -4.04501,4.63251 0.0666,-0.32661 5.42444,-14.55741 16.05342,-24.66895 h -0.04 z m -4.09832,-9.57163 c -29.37464,21.46952 -28.02852,38.70645 -27.98188,38.70645 0.41983,-0.21996 0.97294,-0.61322 1.63933,-1.14646 -0.0533,-0.0133 -0.83299,-13.27097 26.38253,-37.55999 h -0.04 z m 7.27702,17.08363 c -6.77723,9.57163 -1.58602,11.61793 -1.53937,11.61793 0.04,0.007 -1.92588,-3.17943 1.53937,-11.61793 z m -7.22371,4.45921 c 2.17244,-1.75969 4.57813,-3.34607 7.27036,-4.45254 -2.79886,1.15979 -5.19121,2.73284 -7.23038,4.45254 -0.04,0 -0.04,0 0,0 h -0.04 z"
       id="path125"
       inkscape:connector-curvature="0"
       style="fill:#484848" />
    <path
       d="m 212.42882,790.11101 c 18.61238,-56.84323 56.07704,-62.74885 56.11702,-62.74885 -29.40795,21.46952 -28.05518,38.70645 -28.01519,38.70645 4.81136,-2.4329 20.22505,-24.12238 32.10685,-29.14148 -13.1746,8.53848 -18.01929,26.20201 -17.9793,26.20201 3.26533,-1.36643 10.11585,-14.06417 21.19132,-18.68335 -6.79055,9.57163 -1.61268,11.61793 -1.57269,11.61793 l -61.84801,34.04729 z"
       id="path132"
       style="fill:#00bbf2"
       inkscape:connector-curvature="0" />
    <path
       d="m 435.09097,851.01351 -59.66889,-24.90224 -5.12457,57.74307 c 0.65306,3.73933 1.09288,7.76529 1.37943,12.03119 -0.0666,-0.70654 -0.11328,-1.39308 -0.12661,-2.08629 -4.95797,79.36589 -52.03203,120.01196 -75.65569,130.49016 29.68784,2.0529 47.92704,-8.2786 47.96703,-8.2786 0.0466,0 -3.97837,4.8658 -14.56737,11.3514 13.32121,0 46.46097,-12.6378 52.99163,-25.9621 l 3.38528,1.3664 c -0.0133,0 64.5469,-45.11195 49.44642,-151.75299 h -0.0267 z"
       id="path134"
       style="fill:#0b2228"
       inkscape:connector-curvature="0" />
    <path
       d="m 371.68361,891.19304 c -10.62232,22.90926 -29.38797,25.46214 -29.34799,25.46214 0.04,0 15.68691,2.73284 28.66826,-12.98436 1.85258,-2.27293 1.92588,-6.64549 0.71971,-12.47778 h -0.04 z"
       id="path152"
       inkscape:connector-curvature="0" />
    <path
       d="m 435.09097,851.01351 -59.66889,-24.90224 -5.12457,57.74307 c 0.54644,3.13944 0.93961,6.48551 1.23283,9.99822 -0.02,-0.0333 -0.02,-0.06 0.0266,-0.06 0.0267,0.69321 0.0733,1.37976 0.14661,2.0863 -0.0666,-0.68655 -0.12662,-1.35309 -0.13994,-2.01964 -0.19992,2.87949 -0.44649,5.70565 -0.69305,8.49849 -0.76636,12.43112 -0.87298,35.51368 6.8172,49.49786 5.23119,-7.91859 10.48904,-17.79683 12.32829,-27.68841 0.81966,10.05155 -3.93839,22.96259 -8.59648,32.98081 1.53937,1.75302 3.35196,3.19276 5.41778,4.2659 0.77968,0.32661 1.57269,0.57324 2.40568,0.77987 6.54399,-8.09856 17.17963,-23.05591 19.9385,-38.02658 0.95295,11.80457 -5.7643,27.60176 -11.02881,37.95326 22.43081,-6.13891 37.72455,-55.3635 38.03775,-56.24334 -0.0267,-0.0133 -0.0267,-0.0133 0.0133,-0.0267 1.75262,-16.08381 1.79926,-34.32057 -1.07956,-54.85025 h -0.0333 z"
       id="path161"
       style="fill:#164450"
       inkscape:connector-curvature="0" />
    <path
       d="m 388.40343,878.04204 c 3.75179,21.86945 -10.93553,53.9904 -10.89554,53.9904 0.04,0 21.94434,-4.3059 31.63371,-51.00426 0,0 -2.06582,32.42756 -6.3374,40.07287 -0.0333,0 21.15133,-9.9049 25.63616,-50.2244 4.47817,-40.3195 -24.62325,-64.92179 -33.84614,-60.13598 -6.15081,3.1861 -8.20997,25.62211 -6.19079,67.30137 z"
       id="path174"
       style="fill:#216778"
       inkscape:connector-curvature="0" />
    <path
       d="m 435.87065,855.68601 c 0,-0.0133 0,-0.0133 0.04,-0.0267 -2.21243,-14.31079 -6.05086,-27.90837 -11.22207,-40.13953 -13.2879,-31.18779 -35.37885,-50.23107 -60.92839,-58.08301 -58.10287,-5.46569 -86.79112,35.30039 -86.75114,35.30039 21.89104,0 45.33477,7.02542 60.60185,29.2748 17.54615,25.70876 24.14345,68.63447 4.77805,94.64984 -0.0267,0 40.2835,-5.46569 36.22516,-72.44045 -0.0267,0 14.3208,28.02168 -4.08499,66.62815 -0.0267,0 37.21143,-9.22503 25.64283,-80.97227 -0.0267,0 8.50985,16.39708 5.81762,54.32367 -0.0267,0 15.34705,-10.69143 15.38703,-43.39228 -0.0267,0 10.569,34.5072 0.0133,56.37664 -0.0267,0 0.15327,-0.60656 0.96627,-1.20645 3.29198,-2.79284 16.22002,-13.83087 13.56111,-40.29284 h -0.0466 z"
       id="path183"
       style="fill:#00bbf2"
       inkscape:connector-curvature="0" />
    <path
       d="m 223.52428,834.54311 c 31.76699,-1.02649 14.92056,-22.67597 57.32319,-63.67535 -34.54585,20.04977 -70.52445,19.59652 -57.27654,63.67535 h -0.0466 z"
       id="path210"
       style="fill:#216778"
       inkscape:connector-curvature="0" />
    <path
       d="m 223.52428,834.54311 c 5.58438,-8.0919 24.48331,-39.52631 57.32319,-63.67535 -34.54585,20.04977 -70.52445,19.59652 -57.27654,63.67535 h -0.0466 z"
       id="path217"
       style="fill:#216778"
       inkscape:connector-curvature="0" />
    <path
       d="m 239.89091,821.90535 c -5.97089,5.97227 -13.12129,4.57919 -13.68106,-3.29275 -0.87298,-11.12468 11.05547,-12.30447 16.24668,-10.60478 1.75261,5.03911 -0.46648,9.9649 -2.52564,13.89753"
       id="path219"
       inkscape:connector-curvature="0"
       style="fill:#000064" />
    <path
       d="m 240.46401,820.41228 c -1.92588,3.5927 -6.42404,5.03911 -8.90969,3.69268 -2.53896,-1.35309 -2.52563,-5.87895 -0.55977,-9.47165 1.89923,-3.59936 10.28912,-1.97965 10.32911,-1.97965 0.04,-0.007 1.06623,4.17926 -0.85965,7.75862 z"
       id="path228"
       inkscape:connector-curvature="0"
       style="fill:url(#radialGradient3097)" />
    <path
       d="m 231.98082,820.63225 c 1.75261,2.18627 4.43151,2.96614 6.01087,1.73302 1.51938,-1.24644 2.21243,-4.89246 0.49313,-7.07874 -1.77927,-2.19961 -5.31116,-2.0863 -6.81721,-0.85985 -1.61267,1.23312 -1.44607,4.01929 0.35319,6.20557 h -0.04 z"
       id="path235"
       inkscape:connector-curvature="0"
       style="fill:url(#radialGradient3094)" />
    <path
       d="m 225.35686,843.64815 c 0,0 0,-3.41939 -0.98626,-6.83211 -11.76185,3.99262 -15.40036,-4.31924 -15.36038,-4.31924 0.04,0 -7.61021,18.84999 0.87298,27.33514 0.91296,-8.88508 15.02718,-15.7172 15.07383,-15.7172"
       id="path242"
       inkscape:connector-curvature="0"
       style="fill:url(#radialGradient3091)" />
    <path
       d="m 224.89039,844.10807 0.46647,-0.45992 c 0,0 0,-3.41939 -0.98626,-6.83211 -18.70567,10.01821 -14.49407,23.0159 -14.45408,23.0159 0.85965,-8.88508 14.97387,-15.7172 15.01385,-15.7172 h -0.04 z"
       id="path244"
       inkscape:connector-curvature="0"
       style="fill:#484848" />
    <path
       d="m 209.82989,844.74129 c 0,0 0.1,-5.64566 2.66557,-6.67214 -0.0267,1.11313 1.28614,1.96631 2.61227,1.96631 -3.57854,0.35327 -5.27784,4.70583 -5.2312,4.70583 h -0.0466 z"
       id="path251"
       inkscape:connector-curvature="0"
       style="fill:url(#radialGradient3087)" />
  </g>
</svg>
