<?xml version="1.0" encoding="UTF-8" standalone="no"?>
<!-- Created with Inkscape (http://www.inkscape.org/) -->

<svg
   xmlns:dc="http://purl.org/dc/elements/1.1/"
   xmlns:cc="http://creativecommons.org/ns#"
   xmlns:rdf="http://www.w3.org/1999/02/22-rdf-syntax-ns#"
   xmlns:svg="http://www.w3.org/2000/svg"
   xmlns="http://www.w3.org/2000/svg"
   xmlns:sodipodi="http://sodipodi.sourceforge.net/DTD/sodipodi-0.dtd"
   xmlns:inkscape="http://www.inkscape.org/namespaces/inkscape"
   width="500"
   height="500"
   id="svg2"
   version="1.1"
   inkscape:version="0.48.5 r10040"
   sodipodi:docname="text-x-rpm-spec.svg">
  <defs
     id="defs4" />
  <sodipodi:namedview
     id="base"
     pagecolor="#ffffff"
     bordercolor="#666666"
     borderopacity="1.0"
     inkscape:pageopacity="0.0"
     inkscape:pageshadow="2"
     inkscape:zoom="0.85795619"
     inkscape:cx="721.46731"
     inkscape:cy="294.48631"
     inkscape:document-units="px"
     inkscape:current-layer="layer1"
     showgrid="false"
     inkscape:window-width="1366"
     inkscape:window-height="716"
     inkscape:window-x="0"
     inkscape:window-y="0"
     inkscape:window-maximized="1" />
  <metadata
     id="metadata7">
    <rdf:RDF>
      <cc:Work
         rdf:about="">
        <dc:format>image/svg+xml</dc:format>
        <dc:type
           rdf:resource="http://purl.org/dc/dcmitype/StillImage" />
        <dc:title />
      </cc:Work>
    </rdf:RDF>
  </metadata>
  <g
     inkscape:label="Layer 1"
     inkscape:groupmode="layer"
     id="layer1"
     transform="translate(0,-552.36218)">
    <rect
       style="fill:#ffffff;fill-opacity:1;stroke:none"
       id="rect3000"
       width="450"
       height="450"
       x="25"
       y="577.36218"
       ry="55.366497" />
    <path
       style="fill:#f03916;stroke:none;stroke-width:1px;stroke-linecap:butt;stroke-linejoin:miter;stroke-opacity:1;fill-opacity:1"
       d="M 100,475 100,25 C 100,25 61.202184,19.758699 40.940323,41.934658 20.678462,64.110616 25,90.3 25,90.3 L 25,410 c 0,0 -3.104929,34.44943 20.038287,52.1379 C 68.181502,479.82637 100,475 100,475 z"
       id="path3770"
       inkscape:connector-curvature="0"
       transform="translate(0,552.36218)"
       sodipodi:nodetypes="cczcczc" />
    <path
       inkscape:connector-curvature="0"
       d="m 425.92524,958.93699 c -5.77998,-1.32056 -11.91549,-2.16368 -18.11195,-2.16368 -10.61524,0 -20.26546,1.84878 -27.38631,4.80479 -0.79233,0.39617 -1.34087,1.21898 -1.34087,2.14337 0,0.34537 0.0711,0.69075 0.21332,0.97518 0.83296,2.43795 -0.54854,5.0689 -7.43575,6.60278 -10.21908,2.23479 -16.66949,12.78908 -20.35689,16.27332 -4.33752,4.11404 -16.56791,6.64342 -14.72929,4.17499 1.44246,-1.89957 6.94816,-7.8827 10.29019,-14.34327 3.0068,-5.76982 5.67839,-7.41544 9.34547,-12.9313 1.08692,-1.61514 5.26192,-7.29354 6.48089,-11.78343 1.36119,-4.38831 0.90407,-9.89402 1.4323,-12.15928 0.7517,-3.27092 3.82961,-10.35113 4.06325,-14.37375 0.13205,-2.24495 -9.45722,3.2506 -14.00806,3.2506 -4.55084,0 -8.98994,-2.73254 -13.0532,-2.91538 -5.02827,-0.2438 -8.26871,3.87024 -12.82971,3.13886 -2.59032,-0.40633 -4.79464,-2.69191 -9.32516,-2.85444 -6.47073,-0.24379 -14.38391,3.58582 -29.22494,3.11855 -14.60739,-0.47743 -28.09738,-18.46748 -29.936,-21.32191 -2.16368,-3.34203 -4.8048,-3.34203 -7.66939,-0.70091 -2.87475,2.61064 -6.43009,0.54854 -7.42559,-1.20882 -1.91989,-3.35218 -7.03958,-13.13446 -14.97308,-15.19656 -10.97078,-2.84427 -16.52728,6.07456 -15.80605,13.15478 0.73139,7.20211 5.39397,9.22358 7.55765,13.05319 2.14336,3.81946 3.2506,6.29804 7.29353,7.99445 2.88491,1.19866 3.95152,2.96617 3.09823,5.32286 -0.7517,2.05194 -3.73819,2.52937 -5.71902,2.62079 -4.17499,0.20317 -7.10053,-0.93454 -9.2439,-2.29573 -2.47858,-1.59483 -4.51021,-3.78898 -6.66373,-7.51702 -2.51922,-4.1242 -6.47073,-5.91203 -11.07236,-5.91203 -2.19416,0 -4.25626,0.57902 -6.07456,1.50341 -7.21227,3.76866 -15.80605,5.98313 -25.04995,5.98313 l -10.44255,0.0102 c 20.00135,59.293 76.1047,101.97747 142.18332,101.97747 52.77148,0 99.18396,-27.2238 125.92016,-68.42517"
       style="fill:#ffffff"
       id="path4" />
    <path
       inkscape:connector-curvature="0"
       d="m 425.92524,958.9573 c -5.77998,-1.34087 -11.91549,-2.17383 -18.11195,-2.17383 -10.61524,0 -20.26546,1.84877 -27.38631,4.80479 -0.79233,0.39617 -1.34087,1.20882 -1.34087,2.14336 0,0.33522 0.0711,0.69076 0.21332,0.96503 0.83296,2.44811 -0.54854,5.08922 -7.43575,6.61294 -10.21908,2.24494 -16.66949,12.77892 -20.35689,16.26316 -4.33752,4.1242 -16.56791,6.65358 -14.72929,4.19531 1.44246,-1.91989 6.94816,-7.90302 10.29019,-14.36359 3.0068,-5.75966 5.67839,-7.41544 9.34547,-12.92114 1.08692,-1.61515 5.26192,-7.3037 6.48089,-11.78343 1.36119,-4.39847 0.90407,-9.89402 1.4323,-12.15928 0.7517,-3.27092 3.82961,-10.35113 4.06325,-14.36359 0.13205,-2.26527 -9.45722,3.23028 -14.00806,3.23028 -4.55084,0 -8.98994,-2.72238 -13.0532,-2.90522 -5.02827,-0.25396 -8.26871,3.87024 -12.82971,3.13886 -2.59032,-0.40633 -4.79464,-2.69191 -9.32516,-2.8646 -6.47073,-0.23363 -14.38391,3.59598 -29.22494,3.11855 -14.60739,-0.47743 -28.09738,-18.44716 -29.936,-21.30159 -2.16368,-3.36235 -4.8048,-3.36235 -7.66939,-0.72123 -2.87475,2.6208 -6.43009,0.5587 -7.42559,-1.19866 -1.91989,-3.36234 -7.03958,-13.14462 -14.97308,-15.20672 -10.97078,-2.84427 -16.52728,6.07456 -15.80605,13.16494 0.73139,7.19195 5.39397,9.21342 7.55765,13.04303 2.14336,3.81946 3.2506,6.3082 7.29353,8.00461 2.88491,1.1885 3.95152,2.96617 3.09823,5.32286 -0.7517,2.05194 -3.73819,2.52937 -5.71902,2.62079 -4.17499,0.19301 -7.10053,-0.93454 -9.2439,-2.31605 -2.47858,-1.56435 -4.51021,-3.76867 -6.66373,-7.50686 -2.51922,-4.11404 -6.47073,-5.91203 -11.07236,-5.91203 -2.19416,0 -4.25626,0.58917 -6.07456,1.50341 -7.21227,3.76866 -15.80605,5.99329 -25.04995,5.99329 l -10.44255,0 C 152.74269,910.3405 150,894.21955 150,877.4688 c 0,-82.80906 67.15539,-149.92381 150.00508,-149.92381 82.82938,0 149.99496,67.11475 149.99496,149.92381 0,30.04774 -8.8478,58.00291 -24.0748,81.4885"
       style="fill:#000000"
       id="path6" />
    <path
       inkscape:connector-curvature="0"
       d="m 333.03322,945.20828 c 0.77201,0.74154 2.10273,3.27092 0.47743,6.49104 -0.91423,1.70657 -1.89957,2.89507 -3.64677,4.29689 -2.12305,1.69641 -6.23709,3.64677 -11.88501,0.0508 -3.04744,-1.91989 -3.24044,-2.57001 -7.43575,-2.02147 -2.99665,0.38601 -4.18515,-2.65127 -3.11854,-5.16033 1.08692,-2.50905 5.5057,-4.54068 11.02156,-1.31039 2.48875,1.45261 6.34884,4.54068 9.72133,1.79798 1.41198,-1.10723 2.25511,-1.85893 4.19531,-4.11404 0.0914,-0.0914 0.21332,-0.14221 0.35554,-0.14221 0.12189,0 0.23363,0.0406 0.3149,0.11174"
       style="fill:#000000"
       id="path8" />
    <path
       inkscape:connector-curvature="0"
       d="m 288.32425,798.93631 c -17.31961,1.24945 -19.12776,3.11855 -22.3682,6.56215 -4.57116,4.88606 -10.60509,-6.3082 -10.60509,-6.3082 -3.62645,-0.76186 -8.0046,-6.59262 -5.63776,-12.02722 2.33637,-5.38381 6.64342,-3.77882 7.98429,-2.10273 1.63546,2.04178 5.14001,5.38381 9.69086,5.26191 4.55084,-0.1219 9.79243,-1.07676 17.11644,-1.07676 7.41543,0 12.39292,2.76301 12.66719,5.15017 0.25395,2.02147 -0.59933,3.93119 -8.84773,4.54068 m 18.20336,-28.61545 -0.0813,0 c -0.26411,0 -0.47743,-0.20316 -0.47743,-0.44695 0,-0.18285 0.11174,-0.34538 0.27427,-0.41649 3.36234,-1.76751 8.37029,-3.18965 14.09948,-3.7585 1.71672,-0.18285 3.40297,-0.28443 5.01811,-0.28443 l 0.86344,0 c 9.61975,0.22348 17.30945,4.04293 17.19771,8.53283 -0.12189,4.48989 -7.99444,7.95381 -17.62435,7.75065 -3.09823,-0.0813 -6.02377,-0.52822 -8.53283,-1.25961 -0.3149,-0.0711 -0.51806,-0.32506 -0.51806,-0.6298 0,-0.29459 0.20316,-0.54854 0.52822,-0.62981 5.98314,-1.3815 10.03623,-3.65692 9.75181,-5.80029 -0.38601,-2.83412 -8.21793,-4.37815 -17.52278,-3.4436 -1.02597,0.10158 -2.0113,0.23363 -2.97633,0.386 m 78.11601,67.25697 c -1.48309,4.97748 -3.58582,11.34663 -12.97193,16.16158 -1.37135,0.70091 -1.87925,-0.44695 -1.25961,-1.52372 3.55535,-6.03392 4.17499,-7.53733 5.21112,-9.90417 1.4323,-3.48424 2.20431,-8.43125 -0.67044,-18.73159 -5.63776,-20.28578 -17.42119,-47.41814 -25.96417,-56.20492 -8.25856,-8.4922 -23.21132,-10.88952 -36.74195,-7.41544 -4.97748,1.26977 -14.71913,6.32852 -32.78028,2.26527 -31.25656,-7.03959 -35.88867,8.60393 -37.6765,15.42003 -1.80814,6.81611 -6.11519,26.18766 -6.11519,26.18766 -1.4323,7.90302 -3.31155,21.6165 45.23414,30.87055 22.612,4.29689 23.74971,10.14797 24.76552,14.34328 1.79799,7.52717 4.66258,11.83422 7.89287,13.98774 3.23028,2.15352 0,3.94135 -3.58582,4.29689 -9.61975,1.00565 -45.22399,-9.20327 -66.29195,-21.15938 -17.22818,-10.52382 -17.51261,-19.9912 -13.57126,-28.03644 -26.02512,-2.8138 -45.5592,2.43795 -49.09423,14.75976 -6.08472,21.12891 46.48359,57.2309 106.34544,75.353 62.81787,19.00586 127.42356,5.72918 134.60536,-33.73514 3.26076,-17.9291 -11.84438,-31.19562 -37.33112,-36.93496"
       style="fill:#f03916"
       id="path10" />
  </g>
</svg>
