<?xml version="1.0" encoding="UTF-8" standalone="no"?>
<!-- Created with Inkscape (http://www.inkscape.org/) -->

<svg
   xmlns:dc="http://purl.org/dc/elements/1.1/"
   xmlns:cc="http://creativecommons.org/ns#"
   xmlns:rdf="http://www.w3.org/1999/02/22-rdf-syntax-ns#"
   xmlns:svg="http://www.w3.org/2000/svg"
   xmlns="http://www.w3.org/2000/svg"
   xmlns:sodipodi="http://sodipodi.sourceforge.net/DTD/sodipodi-0.dtd"
   xmlns:inkscape="http://www.inkscape.org/namespaces/inkscape"
   width="500"
   height="500"
   id="svg2"
   version="1.1"
   inkscape:version="0.48.5 r10040"
   sodipodi:docname="text-x-po.svg">
  <defs
     id="defs4" />
  <sodipodi:namedview
     id="base"
     pagecolor="#ffffff"
     bordercolor="#666666"
     borderopacity="1.0"
     inkscape:pageopacity="0.0"
     inkscape:pageshadow="2"
     inkscape:zoom="0.42897811"
     inkscape:cx="175.2859"
     inkscape:cy="212.88927"
     inkscape:document-units="px"
     inkscape:current-layer="layer1"
     showgrid="false"
     inkscape:window-width="1366"
     inkscape:window-height="716"
     inkscape:window-x="0"
     inkscape:window-y="0"
     inkscape:window-maximized="1" />
  <metadata
     id="metadata7">
    <rdf:RDF>
      <cc:Work
         rdf:about="">
        <dc:format>image/svg+xml</dc:format>
        <dc:type
           rdf:resource="http://purl.org/dc/dcmitype/StillImage" />
        <dc:title />
      </cc:Work>
    </rdf:RDF>
  </metadata>
  <g
     inkscape:label="Layer 1"
     inkscape:groupmode="layer"
     id="layer1"
     transform="translate(0,-552.36218)">
    <rect
       style="fill:#ffffff;fill-opacity:1;stroke:none"
       id="rect3000"
       width="450"
       height="450"
       x="25"
       y="577.36218"
       ry="55.366497" />
    <path
       style="fill:#00bbf2;stroke:none;stroke-width:1px;stroke-linecap:butt;stroke-linejoin:miter;stroke-opacity:1;fill-opacity:1"
       d="M 100,475 100,25 C 100,25 61.202184,19.758699 40.940323,41.934658 20.678462,64.110616 25,90.3 25,90.3 L 25,410 c 0,0 -3.104929,34.44943 20.038287,52.1379 C 68.181502,479.82637 100,475 100,475 z"
       id="path3770"
       inkscape:connector-curvature="0"
       transform="translate(0,552.36218)"
       sodipodi:nodetypes="cczcczc" />
    <path
       id="path14"
       d="m 450,828.93554 c 0,-3.9342 -1.40677,-7.32 -4.19647,-10.1097 -2.78969,-2.78971 -6.17549,-4.19648 -10.10968,-4.19648 l -60.30043,0 -98.33094,0 c -3.9342,0 -7.31999,1.40677 -10.10968,4.19648 -2.7897,2.7897 -4.19648,6.1755 -4.19648,10.1097 l 0,107.74934 0,24.82121 c 0,3.9342 1.40678,7.32 4.19648,10.10969 2.78969,2.78971 6.17548,4.19649 10.10968,4.19649 l 75.29804,0 48.18789,48.18793 c 2.24129,2.2413 4.95947,3.362 8.13066,3.362 3.17119,0 5.88937,-1.1207 8.13066,-3.362 2.2413,-2.2413 3.36195,-4.9594 3.36195,-8.1306 l 0,-40.05733 15.52217,0 c 3.93419,0 7.31999,-1.40678 10.10968,-4.19649 C 448.59323,968.82609 450,965.44029 450,961.50609 l 0,-132.57055 z m -140.17644,80.47223 c -4.55412,0 -8.41678,-1.62137 -11.63567,-4.84025 -3.21889,-3.21889 -4.81641,-7.08156 -4.81641,-11.63569 0,-4.53029 1.59752,-8.41681 4.81641,-11.63569 3.21889,-3.21889 7.08155,-4.81641 11.63567,-4.81641 4.55412,0 8.41679,1.59752 11.63567,4.81641 3.21889,3.21888 4.81641,7.1054 4.81641,11.63569 0,4.55413 -1.59752,8.4168 -4.81641,11.63569 -3.21888,3.21888 -7.08155,4.84025 -11.63567,4.84025 z m 63.1855,-16.47594 c 0,4.55413 -1.62136,8.4168 -4.84024,11.63569 -3.21889,3.21888 -7.08154,4.84025 -11.61183,4.84025 -4.55412,0 -8.44063,-1.62137 -11.65951,-4.84025 -3.21889,-3.21889 -4.81641,-7.08156 -4.81641,-11.63569 0,-4.53029 1.59752,-8.41681 4.81641,-11.63569 3.21888,-3.21889 7.10539,-4.81641 11.65951,-4.81641 4.53029,0 8.39294,1.59752 11.61183,4.81641 3.21888,3.21888 4.84024,7.1054 4.84024,11.63569 z m 46.73344,0 c 0,4.55413 -1.62137,8.4168 -4.84025,11.63569 -3.21889,3.21888 -7.08155,4.84025 -11.63567,4.84025 -4.53029,0 -8.41679,-1.62137 -11.63568,-4.84025 -3.21888,-3.21889 -4.8164,-7.08156 -4.8164,-11.63569 0,-4.53029 1.59752,-8.41681 4.8164,-11.63569 3.21889,-3.21889 7.10539,-4.81641 11.63568,-4.81641 4.55412,0 8.41678,1.59752 11.63567,4.81641 3.21888,3.21888 4.84025,7.1054 4.84025,11.63569 z"
       inkscape:connector-curvature="0"
       style="fill:#e6e6e6;fill-opacity:1;stroke-width:0.73994905000000000" />
    <path
       id="path15"
       d="m 309.82356,909.40777 c 4.55412,0 8.41679,-1.62137 11.63567,-4.84025 3.21889,-3.21889 4.81641,-7.08156 4.81641,-11.63569 0,-4.53029 -1.59752,-8.41681 -4.81641,-11.63569 -3.21888,-3.21889 -7.08155,-4.81641 -11.63567,-4.81641 -4.55412,0 -8.41678,1.59752 -11.63567,4.81641 -3.21889,3.21888 -4.81641,7.1054 -4.81641,11.63569 0,4.55413 1.59752,8.4168 4.81641,11.63569 3.21889,3.21888 7.08155,4.84025 11.63567,4.84025 z"
       inkscape:connector-curvature="0"
       style="fill:#394050;fill-opacity:1;stroke-width:0.73994905" />
    <path
       id="path16"
       d="m 373.00906,892.93183 c 0,-4.53029 -1.62136,-8.41681 -4.84024,-11.63569 -3.21889,-3.21889 -7.08154,-4.81641 -11.61183,-4.81641 -4.55412,0 -8.44063,1.59752 -11.65951,4.81641 -3.21889,3.21888 -4.81641,7.1054 -4.81641,11.63569 0,4.55413 1.59752,8.4168 4.81641,11.63569 3.21888,3.21888 7.10539,4.84025 11.65951,4.84025 4.53029,0 8.39294,-1.62137 11.61183,-4.84025 3.21888,-3.21889 4.84024,-7.08156 4.84024,-11.63569 z"
       inkscape:connector-curvature="0"
       style="fill:#394050;fill-opacity:1;stroke-width:0.73994905" />
    <path
       id="path17"
       d="m 419.7425,892.93183 c 0,-4.53029 -1.62137,-8.41681 -4.84025,-11.63569 -3.21889,-3.21889 -7.08155,-4.81641 -11.63567,-4.81641 -4.53029,0 -8.41679,1.59752 -11.63568,4.81641 -3.21888,3.21888 -4.8164,7.1054 -4.8164,11.63569 0,4.55413 1.59752,8.4168 4.8164,11.63569 3.21889,3.21888 7.10539,4.84025 11.63568,4.84025 4.55412,0 8.41678,-1.62137 11.63567,-4.84025 3.21888,-3.21889 4.84025,-7.08156 4.84025,-11.63569 z"
       inkscape:connector-curvature="0"
       style="fill:#394050;fill-opacity:1;stroke-width:0.73994905" />
    <path
       id="path18"
       d="m 375.39342,751.65835 c 0,-3.93419 -1.40677,-7.31999 -4.19646,-10.10969 -2.78971,-2.78971 -6.1755,-4.19648 -10.10968,-4.19648 l -196.78113,0 c -3.93419,0 -7.31998,1.40677 -10.10968,4.19648 -2.7897,2.7897 -4.19647,6.1755 -4.19647,10.10969 l 0,170.72035 c 0,3.9342 1.40677,7.32 4.19647,10.1097 2.7897,2.7897 6.17549,4.19648 10.10968,4.19648 l 15.52218,0 0,40.05729 c 0,3.17119 1.12065,5.88937 3.36194,8.13067 2.2413,2.24131 4.95947,3.36195 8.13067,3.36195 3.17119,0 5.88936,-1.12064 8.13066,-3.36195 l 48.18788,-48.18796 15.11684,0 0,-107.74934 c 0,-3.9342 1.40678,-7.32 4.19648,-10.1097 2.78969,-2.78971 6.17548,-4.19648 10.10968,-4.19648 l 98.33094,0 0,-62.97101 z"
       inkscape:connector-curvature="0"
       style="fill:#00bbf2;fill-opacity:1;stroke-width:0.73994905" />
  </g>
</svg>
