<?xml version="1.0" encoding="UTF-8" standalone="no"?>
<!-- Created with Inkscape (http://www.inkscape.org/) -->

<svg
   xmlns:dc="http://purl.org/dc/elements/1.1/"
   xmlns:cc="http://creativecommons.org/ns#"
   xmlns:rdf="http://www.w3.org/1999/02/22-rdf-syntax-ns#"
   xmlns:svg="http://www.w3.org/2000/svg"
   xmlns="http://www.w3.org/2000/svg"
   xmlns:sodipodi="http://sodipodi.sourceforge.net/DTD/sodipodi-0.dtd"
   xmlns:inkscape="http://www.inkscape.org/namespaces/inkscape"
   width="500"
   height="500"
   id="svg2"
   version="1.1"
   inkscape:version="0.91 r13725"
   sodipodi:docname="text-x-po.svg">
  <defs
     id="defs4" />
  <sodipodi:namedview
     id="base"
     pagecolor="#ffffff"
     bordercolor="#666666"
     borderopacity="1.0"
     inkscape:pageopacity="0.0"
     inkscape:pageshadow="2"
     inkscape:zoom="0.85795622"
     inkscape:cx="283.17331"
     inkscape:cy="206.44856"
     inkscape:document-units="px"
     inkscape:current-layer="layer1"
     showgrid="false"
     inkscape:window-width="1366"
     inkscape:window-height="711"
     inkscape:window-x="0"
     inkscape:window-y="0"
     inkscape:window-maximized="1" />
  <metadata
     id="metadata7">
    <rdf:RDF>
      <cc:Work
         rdf:about="">
        <dc:format>image/svg+xml</dc:format>
        <dc:type
           rdf:resource="http://purl.org/dc/dcmitype/StillImage" />
        <dc:title />
      </cc:Work>
    </rdf:RDF>
  </metadata>
  <g
     inkscape:label="Layer 1"
     inkscape:groupmode="layer"
     id="layer1"
     transform="translate(0,-552.36218)">
    <path
       style="fill:#009dd4;fill-rule:evenodd;stroke:none;stroke-width:1px;stroke-linecap:butt;stroke-linejoin:miter;stroke-opacity:1;fill-opacity:1"
       d="M 63.03896,706.21218 116.261,758.31074 114.60095,685.26889 63,685.02379 Z"
       id="path4230"
       inkscape:connector-curvature="0"
       sodipodi:nodetypes="ccccc" />
    <path
       style="fill:#f2f2f2;fill-rule:evenodd;stroke:#afafaf;stroke-width:5.03546047;stroke-linecap:butt;stroke-linejoin:miter;stroke-miterlimit:4;stroke-dasharray:none;stroke-opacity:1"
       d="m 97.04097,1029.8357 336.88839,-1.1739 1.17377,-363.88652 -88.03697,-89.21086 -250.02519,0 z"
       id="path3364"
       inkscape:connector-curvature="0" />
    <path
       style="fill:#afafaf;fill-opacity:1;fill-rule:evenodd;stroke:#afafaf;stroke-width:5.03546047;stroke-linecap:butt;stroke-linejoin:miter;stroke-miterlimit:4;stroke-dasharray:none;stroke-opacity:1"
       d="m 431.51909,662.93112 -82.16431,-0.58691 0.75853,-83.80351 z"
       id="path4166"
       inkscape:connector-curvature="0"
       sodipodi:nodetypes="cccc" />
    <rect
       style="fill:#00bbf2;fill-opacity:1;stroke:none;stroke-width:5;stroke-miterlimit:4;stroke-dasharray:none;stroke-opacity:1"
       id="rect4228"
       width="200.70239"
       height="84.350876"
       x="63.139656"
       y="622.18726" />
    <path
       id="path14"
       d="m 409.32448,857.34442 c 0,-3.27849 -1.17233,-6.09999 -3.49708,-8.42474 -2.32475,-2.32476 -5.14625,-3.49707 -8.42475,-3.49707 l -50.25033,0 -81.94241,0 c -3.2785,0 -6.1,1.17231 -8.42475,3.49707 -2.32475,2.32475 -3.49708,5.14625 -3.49708,8.42474 l 0,89.79111 0,20.68434 c 0,3.2785 1.17233,6.1 3.49708,8.42474 2.32475,2.32476 5.14625,3.49708 8.42475,3.49708 l 62.74833,0 40.15658,40.15661 c 1.86775,1.8678 4.13291,2.8017 6.7755,2.8017 2.64266,0 4.90783,-0.9339 6.77558,-2.8017 1.86775,-1.8677 2.80167,-4.1328 2.80167,-6.7755 l 0,-33.38111 12.93508,0 c 3.2785,0 6.1,-1.17232 8.42475,-3.49708 2.32475,-2.32474 3.49708,-5.14624 3.49708,-8.42474 l 0,-110.47545 z m -116.81374,67.06019 c -3.79508,0 -7.01391,-1.35114 -9.69633,-4.03354 -2.68242,-2.68241 -4.01367,-5.9013 -4.01367,-9.69641 0,-3.77524 1.33125,-7.01401 4.01367,-9.69641 2.68242,-2.6824 5.90125,-4.01367 9.69633,-4.01367 3.79517,0 7.014,1.33127 9.69642,4.01367 2.68241,2.6824 4.01366,5.92117 4.01366,9.69641 0,3.79511 -1.33125,7.014 -4.01366,9.69641 -2.68242,2.6824 -5.90125,4.03354 -9.69642,4.03354 z m 52.65458,-13.72995 c 0,3.79511 -1.35108,7.014 -4.0335,9.69641 -2.68242,2.6824 -5.90125,4.03354 -9.6765,4.03354 -3.79517,0 -7.03391,-1.35114 -9.71625,-4.03354 -2.68241,-2.68241 -4.01375,-5.9013 -4.01375,-9.69641 0,-3.77524 1.33134,-7.01401 4.01375,-9.69641 2.68234,-2.6824 5.92108,-4.01367 9.71625,-4.01367 3.77525,0 6.99408,1.33127 9.6765,4.01367 2.68242,2.6824 4.0335,5.92117 4.0335,9.69641 z m 38.94458,0 c 0,3.79511 -1.35117,7.014 -4.03358,9.69641 -2.68242,2.6824 -5.90125,4.03354 -9.69634,4.03354 -3.77525,0 -7.014,-1.35114 -9.69641,-4.03354 -2.68242,-2.68241 -4.01367,-5.9013 -4.01367,-9.69641 0,-3.77524 1.33125,-7.01401 4.01367,-9.69641 2.68241,-2.6824 5.92116,-4.01367 9.69641,-4.01367 3.79509,0 7.01392,1.33127 9.69634,4.01367 2.68241,2.6824 4.03358,5.92117 4.03358,9.69641 z"
       inkscape:connector-curvature="0"
       style="fill:#cccccc;fill-opacity:1;stroke-width:0.73994905" />
    <path
       id="path15"
       d="m 292.51074,924.40461 c 3.79517,0 7.014,-1.35114 9.69642,-4.03354 2.68241,-2.68241 4.01366,-5.9013 4.01366,-9.69641 0,-3.77524 -1.33125,-7.01401 -4.01366,-9.69641 -2.68242,-2.6824 -5.90125,-4.01367 -9.69642,-4.01367 -3.79508,0 -7.01391,1.33127 -9.69633,4.01367 -2.68242,2.6824 -4.01367,5.92117 -4.01367,9.69641 0,3.79511 1.33125,7.014 4.01367,9.69641 2.68242,2.6824 5.90125,4.03354 9.69633,4.03354 z"
       inkscape:connector-curvature="0"
       style="fill:#394050;fill-opacity:1;stroke-width:0.73994905" />
    <path
       id="path16"
       d="m 345.16532,910.67466 c 0,-3.77524 -1.35108,-7.01401 -4.0335,-9.69641 -2.68242,-2.6824 -5.90125,-4.01367 -9.6765,-4.01367 -3.79517,0 -7.03391,1.33127 -9.71625,4.01367 -2.68241,2.6824 -4.01375,5.92117 -4.01375,9.69641 0,3.79511 1.33134,7.014 4.01375,9.69641 2.68234,2.6824 5.92108,4.03354 9.71625,4.03354 3.77525,0 6.99408,-1.35114 9.6765,-4.03354 2.68242,-2.68241 4.0335,-5.9013 4.0335,-9.69641 z"
       inkscape:connector-curvature="0"
       style="fill:#394050;fill-opacity:1;stroke-width:0.73994905" />
    <path
       id="path17"
       d="m 384.1099,910.67466 c 0,-3.77524 -1.35117,-7.01401 -4.03358,-9.69641 -2.68242,-2.6824 -5.90125,-4.01367 -9.69634,-4.01367 -3.77525,0 -7.014,1.33127 -9.69641,4.01367 -2.68242,2.6824 -4.01367,5.92117 -4.01367,9.69641 0,3.79511 1.33125,7.014 4.01367,9.69641 2.68241,2.6824 5.92116,4.03354 9.69641,4.03354 3.79509,0 7.01392,-1.35114 9.69634,-4.03354 2.68241,-2.68241 4.03358,-5.9013 4.03358,-9.69641 z"
       inkscape:connector-curvature="0"
       style="fill:#394050;fill-opacity:1;stroke-width:0.73994905" />
    <path
       id="path18"
       d="m 347.15232,792.94677 c 0,-3.27849 -1.17233,-6.09999 -3.49708,-8.42474 -2.32475,-2.32476 -5.14625,-3.49706 -8.42467,-3.49706 l -163.9843,0 c -3.27849,0 -6.09998,1.1723 -8.42473,3.49706 -2.32475,2.32475 -3.49706,5.14625 -3.49706,8.42474 l 0,142.26695 c 0,3.2785 1.17231,6.1 3.49706,8.42475 2.32475,2.32475 5.14624,3.49706 8.42473,3.49706 l 12.93515,0 0,33.38107 c 0,2.64266 0.93392,4.90781 2.80158,6.77556 1.86775,1.86776 4.13292,2.80163 6.77558,2.80163 2.64267,0 4.90784,-0.93387 6.77559,-2.80163 l 40.15658,-40.15663 12.59733,0 0,-89.79111 c 0,-3.27849 1.17233,-6.09999 3.49708,-8.42474 2.32475,-2.32476 5.14625,-3.49707 8.42475,-3.49707 l 81.94241,0 0,-52.47584 z"
       inkscape:connector-curvature="0"
       style="fill:#00bbf2;fill-opacity:1;stroke-width:0.73994905" />
    <path
       style="fill:none;fill-rule:evenodd;stroke:#ffffff;stroke-width:9.06382847;stroke-linecap:butt;stroke-linejoin:miter;stroke-miterlimit:4;stroke-dasharray:none;stroke-opacity:1"
       d="m 139.66406,695.1273 0,-56.44143 c 0,0 30.81883,-5.94185 30.71077,14.31786 -0.10806,20.2597 -30.08826,14.73287 -30.08826,14.73287"
       id="path4259"
       inkscape:connector-curvature="0"
       sodipodi:nodetypes="cczc" />
    <path
       style="fill:none;fill-rule:evenodd;stroke:#ffffff;stroke-width:9;stroke-linecap:butt;stroke-linejoin:miter;stroke-miterlimit:4;stroke-dasharray:none;stroke-opacity:1"
       d="m 209.68029,692.76558 c -12.02507,-0.10136 -23.35226,-12.18839 -23.42257,-27.48566 -0.0703,-15.29728 11.99424,-27.58791 24.13958,-27.24665 12.14534,0.34126 22.73834,11.91939 22.94455,28.20268 0.20622,16.28328 -11.63649,26.63099 -23.66156,26.52963 z"
       id="path4273"
       inkscape:connector-curvature="0"
       sodipodi:nodetypes="zzzzz" />
  </g>
</svg>
