<?xml version="1.0" encoding="UTF-8" standalone="no"?>
<!-- Created with Inkscape (http://www.inkscape.org/) -->

<svg
   xmlns:dc="http://purl.org/dc/elements/1.1/"
   xmlns:cc="http://creativecommons.org/ns#"
   xmlns:rdf="http://www.w3.org/1999/02/22-rdf-syntax-ns#"
   xmlns:svg="http://www.w3.org/2000/svg"
   xmlns="http://www.w3.org/2000/svg"
   xmlns:sodipodi="http://sodipodi.sourceforge.net/DTD/sodipodi-0.dtd"
   xmlns:inkscape="http://www.inkscape.org/namespaces/inkscape"
   width="500"
   height="500"
   id="svg2"
   version="1.1"
   inkscape:version="0.48.5 r10040"
   sodipodi:docname="application-octet-stream.svg">
  <defs
     id="defs4" />
  <sodipodi:namedview
     id="base"
     pagecolor="#ffffff"
     bordercolor="#666666"
     borderopacity="1.0"
     inkscape:pageopacity="0.0"
     inkscape:pageshadow="2"
     inkscape:zoom="0.60666665"
     inkscape:cx="414.33366"
     inkscape:cy="189.21804"
     inkscape:document-units="px"
     inkscape:current-layer="layer1"
     showgrid="false"
     inkscape:window-width="1366"
     inkscape:window-height="716"
     inkscape:window-x="0"
     inkscape:window-y="0"
     inkscape:window-maximized="1" />
  <metadata
     id="metadata7">
    <rdf:RDF>
      <cc:Work
         rdf:about="">
        <dc:format>image/svg+xml</dc:format>
        <dc:type
           rdf:resource="http://purl.org/dc/dcmitype/StillImage" />
        <dc:title />
      </cc:Work>
    </rdf:RDF>
  </metadata>
  <g
     inkscape:label="Layer 1"
     inkscape:groupmode="layer"
     id="layer1"
     transform="translate(0,-552.36218)">
    <rect
       style="fill:#ffffff;fill-opacity:1;stroke:none"
       id="rect3000"
       width="450"
       height="450"
       x="25"
       y="577.36218"
       ry="55.366497" />
    <path
       style="fill:#394050;stroke:none;stroke-width:1px;stroke-linecap:butt;stroke-linejoin:miter;stroke-opacity:1;fill-opacity:1"
       d="M 100,475 100,25 C 100,25 61.202184,19.758699 40.940323,41.934658 20.678462,64.110616 25,90.3 25,90.3 L 25,410 c 0,0 -3.104929,34.44943 20.038287,52.1379 C 68.181502,479.82637 100,475 100,475 z"
       id="path3770"
       inkscape:connector-curvature="0"
       transform="translate(0,552.36218)"
       sodipodi:nodetypes="cczcczc" />
    <path
       inkscape:connector-curvature="0"
       id="path2986"
       d="m 279.66213,1026.4264 c -2.63042,-1.1739 -5.42828,-4.1781 -6.67673,-7.1691 -0.64344,-1.5415 -1.28558,-7.4669 -1.83536,-16.9359 -0.46509,-8.01085 -1.07754,-15.20391 -1.36098,-15.98468 -0.37596,-1.0356 -2.21395,-2.01266 -6.79567,-3.61234 -3.45417,-1.20609 -8.65589,-3.38717 -11.55935,-4.8468 -2.90346,-1.45972 -5.91158,-2.65397 -6.68472,-2.65397 -0.86712,0 -5.61015,3.85654 -12.37976,10.06594 -6.03573,5.53628 -11.94979,10.56626 -13.14235,11.1778 -2.45478,1.2588 -7.97778,1.4637 -10.82985,0.4017 -2.26775,-0.8444 -26.25731,-24.48216 -27.79544,-27.38779 -1.52558,-2.88201 -1.36242,-8.27304 0.34922,-11.53905 0.77916,-1.48672 5.85329,-7.51196 11.27586,-13.38943 5.83717,-6.32685 9.8592,-11.23838 9.8592,-12.03962 0,-0.74433 -1.19441,-3.72863 -2.65424,-6.63176 -1.45984,-2.90314 -3.63641,-8.09076 -4.83685,-11.52807 -1.20043,-3.43729 -2.67375,-6.50418 -3.27404,-6.81529 -0.6003,-0.31112 -7.64645,-0.92699 -15.65811,-1.3686 -9.31755,-0.51359 -15.58875,-1.16885 -17.40303,-1.81837 -3.4575,-1.23782 -7.44084,-5.47672 -8.00362,-8.5171 -0.22826,-1.23316 -0.32171,-10.36916 -0.20767,-20.30222 l 0.20736,-18.06011 2.07608,-2.60187 c 3.66885,-4.59803 5.39344,-5.0599 22.9171,-6.13762 9.91839,-0.60999 15.94778,-1.25591 16.44862,-1.76211 0.43485,-0.43951 1.92114,-3.8476 3.30283,-7.57353 1.38171,-3.72594 3.54121,-8.82455 4.79888,-11.33025 1.25769,-2.5057 2.28669,-5.10654 2.28669,-5.77966 0,-0.67311 -4.14855,-5.77385 -9.219,-11.33496 -5.07047,-5.56111 -9.92051,-11.03875 -10.77786,-12.17255 -2.41139,-3.18885 -3.22682,-7.13764 -2.2728,-11.00614 0.72035,-2.92096 2.03983,-4.50443 13.05991,-15.67265 6.74222,-6.83288 13.38976,-13.00607 14.77229,-13.71821 3.20829,-1.65256 8.30966,-1.67544 11.49519,-0.0515 1.34134,0.68378 7.2261,5.63758 13.07721,11.00843 5.85114,5.37086 11.03486,9.99029 11.51942,10.26544 0.51065,0.28995 3.66245,-0.81719 7.49761,-2.63372 3.63914,-1.72367 9.0842,-3.96551 12.10013,-4.98186 4.08932,-1.37807 5.67601,-2.25862 6.2406,-3.46326 0.4164,-0.88845 1.13052,-8.16962 1.58693,-16.18037 0.87778,-15.40607 1.40521,-17.84139 4.58236,-21.15802 3.53412,-3.6893 5.56665,-3.99196 25.32042,-3.7704 l 17.99229,0.20179 2.81474,1.86372 c 4.84276,3.20655 5.42896,5.20013 6.56947,22.34171 0.55208,8.29741 1.15451,15.73246 1.33875,16.52231 0.2593,1.11162 1.7423,1.92748 6.56345,3.61082 3.42565,1.19609 8.91161,3.52212 12.19101,5.16896 3.27942,1.64683 6.22534,2.99424 6.54648,2.99424 0.32116,0 5.58649,-4.59123 11.70075,-10.20271 6.11425,-5.61148 12.24798,-10.79392 13.63052,-11.51651 3.26814,-1.70812 8.13259,-1.69256 11.7067,0.0375 1.69701,0.8214 7.46214,6.06767 14.70272,13.37947 12.42888,12.55112 13.40838,13.98707 13.41804,19.67121 0.007,4.02026 -1.78313,6.65755 -12.46838,18.37063 -5.80992,6.36878 -10.56349,11.84965 -10.56349,12.1797 0,0.33005 1.51644,3.76068 3.36987,7.62363 1.85341,3.86295 4.06382,9.27291 4.912,12.02215 1.05372,3.41541 1.97133,5.1809 2.89718,5.57412 0.74528,0.31652 8.23622,1.0052 16.64655,1.53041 16.69041,1.04227 19.37888,1.72893 22.17726,5.66437 2.64542,3.72032 2.9531,6.50856 2.72401,24.68545 l -0.21916,17.38761 -2.04193,2.90314 c -3.64615,5.18399 -4.56701,5.44959 -23.08336,6.65772 -9.04749,0.59033 -16.60869,1.23199 -16.80265,1.42595 -0.19398,0.19395 -1.31718,3.08534 -2.496,6.4253 -1.17884,3.33998 -3.49694,8.76787 -5.15134,12.062 -1.65441,3.29413 -2.91478,6.39567 -2.80084,6.89232 0.11394,0.49665 4.62798,5.72211 10.03119,11.61213 5.40322,5.89002 10.51001,12.06182 11.34845,13.7151 1.78092,3.51178 1.9461,7.23029 0.47732,10.7452 -1.29619,3.10182 -23.29749,25.46262 -26.87357,27.31263 -2.99011,1.5469 -8.43683,1.7131 -11.56658,0.3529 -1.1991,-0.5211 -7.21075,-5.54971 -13.35924,-11.17462 -6.14848,-5.625 -11.66807,-10.22863 -12.26574,-10.23034 -0.59769,0 -4.06115,1.38668 -7.69658,3.08537 -3.63544,1.6986 -9.02232,3.8832 -11.97086,4.85443 -4.07536,1.34254 -5.43985,2.10471 -5.68987,3.17794 -0.18088,0.77648 -0.78058,8.20063 -1.33266,16.49802 -1.21425,18.2499 -1.91186,20.2282 -8.26759,23.4463 -1.84294,0.9331 -4.8927,1.0939 -20.32556,1.0713 -13.65867,-0.02 -18.66086,-0.2513 -20.18983,-0.9337 z m 26.76199,-81.03075 c 16.37937,-1.71643 30.06423,-8.24817 41.71499,-19.91042 8.87985,-8.88862 14.60958,-18.86214 18.05965,-31.4358 2.16289,-7.88254 2.15013,-25.28836 -0.0244,-33.26712 -6.59901,-24.2132 -23.93401,-42.04053 -47.89368,-49.2539 -5.58284,-1.68078 -7.09875,-1.84015 -17.95426,-1.88756 -10.39761,-0.0454 -12.56523,0.14164 -17.61549,1.52017 -25.21628,6.88312 -44.502,27.14251 -49.77184,52.28468 -4.73466,22.58878 2.18818,45.64496 18.68164,62.21831 8.63584,8.67768 19.84091,15.04483 31.98029,18.17241 3.46158,0.89184 8.37394,1.5792 15.37037,2.1507 0.55895,0.0457 3.91267,-0.2205 7.4527,-0.59147 z M 289.62281,916.9942 c -17.27589,-4.6848 -29.3664,-19.38587 -30.4369,-37.00878 -0.7485,-12.32173 3.2172,-22.74684 11.9682,-31.46225 15.9369,-15.87213 41.38486,-16.02089 57.11986,-0.3339 12.96019,12.92066 16.06989,31.297 8.02578,47.4273 -6.85151,13.73882 -19.47349,21.8465 -34.95466,22.453 -5.2704,0.20648 -7.87712,-0.0327 -11.72228,-1.07537 z m 19.32784,-17.08288 c 4.77162,-1.78509 10.46315,-7.07467 12.85687,-11.94889 2.93624,-7.3762 2.71438,-15.85924 -0.42862,-21.68566 -4.44896,-8.20466 -11.05015,-12.36215 -20.37492,-12.83231 -7.49068,-0.37767 -11.97422,1.2088 -17.38178,6.15044 -6.85611,6.26539 -9.58411,14.97554 -7.38207,23.56999 1.90599,7.43894 5.94401,12.49 12.73626,15.93151 6.33654,3.21061 12.85914,3.47671 19.97426,0.81492 z"
       style="fill:#394050;stroke-width:0.91735023000000004"
       sodipodi:nodetypes="csssssssssssssssssssscsssssssssssssssssssscssssssssssssssssssscsscsscsssssscsssssscccssssssssscccssssssssccsssss" />
  </g>
</svg>
