<?xml version="1.0" encoding="UTF-8" standalone="no"?>
<!-- Created with Inkscape (http://www.inkscape.org/) -->

<svg
   xmlns:dc="http://purl.org/dc/elements/1.1/"
   xmlns:cc="http://creativecommons.org/ns#"
   xmlns:rdf="http://www.w3.org/1999/02/22-rdf-syntax-ns#"
   xmlns:svg="http://www.w3.org/2000/svg"
   xmlns="http://www.w3.org/2000/svg"
   xmlns:sodipodi="http://sodipodi.sourceforge.net/DTD/sodipodi-0.dtd"
   xmlns:inkscape="http://www.inkscape.org/namespaces/inkscape"
   width="500"
   height="500"
   id="svg2"
   version="1.1"
   inkscape:version="0.48.5 r10040"
   sodipodi:docname="text-x-qml.svg">
  <defs
     id="defs4" />
  <sodipodi:namedview
     id="base"
     pagecolor="#ffffff"
     bordercolor="#666666"
     borderopacity="1.0"
     inkscape:pageopacity="0.0"
     inkscape:pageshadow="2"
     inkscape:zoom="0.60666665"
     inkscape:cx="106.31372"
     inkscape:cy="264.99"
     inkscape:document-units="px"
     inkscape:current-layer="layer1"
     showgrid="false"
     inkscape:window-width="1366"
     inkscape:window-height="716"
     inkscape:window-x="0"
     inkscape:window-y="0"
     inkscape:window-maximized="1" />
  <metadata
     id="metadata7">
    <rdf:RDF>
      <cc:Work
         rdf:about="">
        <dc:format>image/svg+xml</dc:format>
        <dc:type
           rdf:resource="http://purl.org/dc/dcmitype/StillImage" />
        <dc:title />
      </cc:Work>
    </rdf:RDF>
  </metadata>
  <g
     inkscape:label="Layer 1"
     inkscape:groupmode="layer"
     id="layer1"
     transform="translate(0,-552.36218)">
    <rect
       style="fill:#ffffff;fill-opacity:1;stroke:none"
       id="rect3000"
       width="450"
       height="450"
       x="25"
       y="577.36218"
       ry="55.366497" />
    <path
       style="fill:#45d03f;stroke:none;stroke-width:1px;stroke-linecap:butt;stroke-linejoin:miter;stroke-opacity:1;fill-opacity:1"
       d="M 100,475 100,25 C 100,25 61.202184,19.758699 40.940323,41.934658 20.678462,64.110616 25,90.3 25,90.3 L 25,410 c 0,0 -3.104929,34.44943 20.038287,52.1379 C 68.181502,479.82637 100,475 100,475 z"
       id="path3770"
       inkscape:connector-curvature="0"
       transform="translate(0,552.36218)"
       sodipodi:nodetypes="cczcczc" />
    <rect
       style="fill:#45d03f;fill-opacity:1;fill-rule:evenodd;stroke:none"
       id="rect2999"
       width="300"
       height="299.24432"
       x="150"
       y="728.11786"
       ry="39.016666" />
    <path
       style="fill:#ffffff"
       inkscape:connector-curvature="0"
       id="path37"
       d="m 265.34464,791.67201 c -6.16607,-0.29365 -12.50921,0.83661 -17.76817,3.12404 -10.47174,4.54482 -18.52547,16.75974 -22.45548,34.1668 -2.79182,12.38301 -2.61894,46.28113 0.19533,59.35657 4.13302,19.18139 13.86877,33.38875 25.57824,37.2925 4.33616,1.44846 4.81574,2.16502 6.63856,8.00569 2.83473,9.08455 5.53076,13.33214 9.567,16.20566 4.03731,2.87534 11.8744,4.82838 16.7916,4.10038 1.86212,-0.27492 4.7128,-0.38728 6.24805,-0.38728 2.65213,0 2.73354,-0.34983 2.73354,-7.61503 0,-6.79417 -0.30153,-7.81009 -2.34303,-7.81009 -4.35327,0 -7.89941,-2.46491 -9.95813,-7.02904 -1.13583,-2.51796 -1.82344,-4.87545 -1.56202,-5.07651 0.26329,-0.20547 2.803,-1.77332 5.85754,-3.51464 15.16526,-8.68297 22.01998,-28.17232 22.06311,-63.0678 0.0562,-41.97118 -10.47923,-61.86434 -35.53576,-66.97274 -1.96969,-0.39987 -3.99743,-0.6829 -6.05279,-0.78101 z m 60.13743,8.59108 -2.14775,8.20054 c -1.10954,4.52421 -2.32659,9.54766 -2.73354,11.32459 -0.63371,2.76477 -1.186,3.31958 -4.68603,3.31958 h -4.10027 v 7.6145 7.61511 h 3.51452 3.51454 v 34.16883 c 0,12.76826 -0.045,21.48322 0.3905,27.92106 5.53501,-5.04582 12.24678,-8.80027 19.72008,-10.73901 -0.0955,-4.57999 -0.19533,-10.30882 -0.19533,-19.72005 v -30.45932 h 7.02903 7.02906 v -6.83409 -6.8335 l -7.02903,-0.97657 -7.02906,-0.78101 v -10.93408 c 0,-6.07184 -0.49111,-11.22461 -0.97626,-11.51953 -0.48516,-0.28116 -3.45574,-0.73227 -6.63856,-0.97655 l -5.66229,-0.38738 z m -58.38047,8.59105 c 4.93921,0 11.16463,5.93815 13.47203,12.88661 4.0811,12.2874 4.75938,53.54017 1.17151,70.87776 -2.85237,13.78445 -10.37425,20.86784 -18.15805,16.98672 -3.58358,-1.7871 -7.8738,-8.07513 -9.37209,-13.66767 -4.8984,-18.29239 -4.59625,-63.58639 0.58575,-76.5386 2.35203,-5.87814 7.83757,-10.54357 12.30117,-10.54357 z m 83.64884,137.58193 c -6.28179,0 -11.37146,-5.08457 -11.37146,-11.3713 0,-6.28699 5.08954,-11.37156 11.37146,-11.37156 6.28366,0 11.37143,5.08457 11.37143,11.37156 0,6.28673 -5.0879,11.3713 -11.37143,11.3713 z m 40.61231,-3.24883 V 926.9423 h -9.04845 c -0.72941,-3.03789 -1.87629,-5.91323 -3.39519,-8.56124 l 6.29178,-6.28673 -11.48515,-11.48522 -6.1617,6.15694 c -2.67228,-1.62455 -5.58663,-2.85921 -8.69103,-3.6551 v -8.65852 H 342.6281 v 8.65852 c -3.10279,0.79589 -6.01875,2.03055 -8.68916,3.6551 l -6.1617,-6.15694 -11.48517,11.48522 6.2918,6.28673 c -1.5189,2.64801 -2.66581,5.52335 -3.39519,8.56124 h -9.0503 v 16.24494 h 9.32645 c 0.80251,2.90785 1.99489,5.63675 3.52354,8.15472 l -6.69604,6.69299 11.48517,11.48522 6.82785,-6.8228 c 2.4871,1.4295 5.17888,2.518 8.02311,3.2652 v 9.7143 h 16.24491 v -9.7143 c 2.84449,-0.7472 5.53789,-1.8357 8.02502,-3.2652 l 6.82785,6.8228 11.48517,-11.48522 -6.69604,-6.69299 c 1.52865,-2.51797 2.72102,-5.24687 3.52352,-8.15472 h 9.32462" />
  </g>
</svg>
