<?xml version="1.0" encoding="UTF-8" standalone="no"?>
<!-- Created with Inkscape (http://www.inkscape.org/) -->

<svg
   xmlns:dc="http://purl.org/dc/elements/1.1/"
   xmlns:cc="http://creativecommons.org/ns#"
   xmlns:rdf="http://www.w3.org/1999/02/22-rdf-syntax-ns#"
   xmlns:svg="http://www.w3.org/2000/svg"
   xmlns="http://www.w3.org/2000/svg"
   xmlns:sodipodi="http://sodipodi.sourceforge.net/DTD/sodipodi-0.dtd"
   xmlns:inkscape="http://www.inkscape.org/namespaces/inkscape"
   width="500"
   height="500"
   id="svg2"
   version="1.1"
   inkscape:version="0.91 r13725"
   sodipodi:docname="text-x-opml.svg">
  <defs
     id="defs4" />
  <sodipodi:namedview
     id="base"
     pagecolor="#ffffff"
     bordercolor="#666666"
     borderopacity="1.0"
     inkscape:pageopacity="0.0"
     inkscape:pageshadow="2"
     inkscape:zoom="0.4289781"
     inkscape:cx="-212.55345"
     inkscape:cy="315.42836"
     inkscape:document-units="px"
     inkscape:current-layer="layer1"
     showgrid="false"
     inkscape:window-width="1366"
     inkscape:window-height="711"
     inkscape:window-x="0"
     inkscape:window-y="0"
     inkscape:window-maximized="1" />
  <metadata
     id="metadata7">
    <rdf:RDF>
      <cc:Work
         rdf:about="">
        <dc:format>image/svg+xml</dc:format>
        <dc:type
           rdf:resource="http://purl.org/dc/dcmitype/StillImage" />
        <dc:title />
      </cc:Work>
    </rdf:RDF>
  </metadata>
  <g
     inkscape:label="Layer 1"
     inkscape:groupmode="layer"
     id="layer1"
     transform="translate(0,-552.36218)">
    <path
       style="fill:#803300;fill-rule:evenodd;stroke:none;stroke-width:1px;stroke-linecap:butt;stroke-linejoin:miter;stroke-opacity:1"
       d="m 47.004565,710.279 53.222045,52.09856 -1.660055,-73.04185 -51.60095,-0.2451 z"
       id="path4230"
       inkscape:connector-curvature="0"
       sodipodi:nodetypes="ccccc" />
    <path
       style="fill:#f2f2f2;fill-rule:evenodd;stroke:#afafaf;stroke-width:5.03546047;stroke-linecap:butt;stroke-linejoin:miter;stroke-miterlimit:4;stroke-dasharray:none;stroke-opacity:1"
       d="m 81.006575,1033.9023 336.888385,-1.1739 1.17377,-363.8863 -88.03697,-89.21086 -250.025185,0 z"
       id="path3364"
       inkscape:connector-curvature="0" />
    <path
       style="fill:#afafaf;fill-opacity:1;fill-rule:evenodd;stroke:#afafaf;stroke-width:5.03546047;stroke-linecap:butt;stroke-linejoin:miter;stroke-miterlimit:4;stroke-dasharray:none;stroke-opacity:1"
       d="m 415.48469,666.99794 -82.16431,-0.58691 0.75854,-83.80351 z"
       id="path4166"
       inkscape:connector-curvature="0"
       sodipodi:nodetypes="cccc" />
    <rect
       style="fill:#d45500;fill-opacity:1;stroke:none;stroke-width:5;stroke-miterlimit:4;stroke-dasharray:none;stroke-opacity:1"
       id="rect4228"
       width="224.93568"
       height="84.350876"
       x="47.105244"
       y="626.25409" />
    <path
       id="rect4116-7-3"
       d="m 109.59892,754.01481 0,54.99991 54.99998,0 c 91.4099,0 164.99994,73.59013 164.99994,165.00004 l 0,54.99994 54.99996,0 0,-54.99994 c 0,-121.87986 -98.11999,-219.99995 -219.9999,-219.99995 l -54.99998,0 z m 0,110.00003 0,54.99998 54.99998,0 c 30.46993,0 54.99999,24.53004 54.99999,54.99994 l 0,54.99994 55,0 0,-54.99994 c 0,-60.93997 -49.06007,-109.99992 -109.99999,-109.99992 l -54.99998,0 z m 32.08335,100.83322 c -17.7742,0 -32.08335,14.3092 -32.08335,32.0834 0,17.77424 14.30915,32.08324 32.08335,32.08324 17.77413,0 32.08327,-14.309 32.08327,-32.08324 0,-17.7742 -14.30914,-32.0834 -32.08327,-32.0834 z"
       style="fill:#ff6600;fill-opacity:1;stroke:none"
       inkscape:connector-curvature="0" />
    <path
       style="fill:none;fill-rule:evenodd;stroke:#ffffff;stroke-width:9;stroke-linecap:butt;stroke-linejoin:miter;stroke-miterlimit:4;stroke-dasharray:none;stroke-opacity:1"
       d="m 168.33463,697.10808 0.29139,-54.56281 5.02648,-0.21854 15.88077,41.30456 3.35098,0 15.95362,-41.30456 5.24502,-0.0729 0,54.9999"
       id="path4260-6"
       inkscape:connector-curvature="0"
       sodipodi:nodetypes="cccccccc" />
    <path
       style="fill:none;fill-rule:evenodd;stroke:#ffffff;stroke-width:9;stroke-linecap:butt;stroke-linejoin:miter;stroke-miterlimit:4;stroke-dasharray:none;stroke-opacity:1"
       d="m 85.181567,694.01741 c -12.02507,-0.10136 -23.35226,-12.18839 -23.42257,-27.48566 -0.0703,-15.29728 11.99424,-27.58791 24.13958,-27.24665 12.14534,0.34126 22.738343,11.91939 22.944553,28.20268 0.20622,16.28328 -11.636493,26.63099 -23.661563,26.52963 z"
       id="path4273"
       inkscape:connector-curvature="0"
       sodipodi:nodetypes="zzzzz" />
    <path
       style="fill:none;fill-rule:evenodd;stroke:#ffffff;stroke-width:9.06382847;stroke-linecap:butt;stroke-linejoin:miter;stroke-miterlimit:4;stroke-dasharray:none;stroke-opacity:1"
       d="m 122.28186,697.54469 0,-56.44143 c 0,0 30.81883,-5.94185 30.71077,14.31786 -0.10806,20.2597 -30.08826,14.73287 -30.08826,14.73287"
       id="path4259"
       inkscape:connector-curvature="0"
       sodipodi:nodetypes="cczc" />
    <path
       style="fill:none;fill-rule:evenodd;stroke:#ffffff;stroke-width:9;stroke-linecap:butt;stroke-linejoin:miter;stroke-miterlimit:4;stroke-dasharray:none;stroke-opacity:1"
       d="m 229.33474,637.84351 0.29139,54.48996 31.76153,0.29139"
       id="path4262"
       inkscape:connector-curvature="0" />
  </g>
</svg>
