<?xml version="1.0" encoding="UTF-8" standalone="no"?>
<!-- Created with Inkscape (http://www.inkscape.org/) -->

<svg
   xmlns:dc="http://purl.org/dc/elements/1.1/"
   xmlns:cc="http://creativecommons.org/ns#"
   xmlns:rdf="http://www.w3.org/1999/02/22-rdf-syntax-ns#"
   xmlns:svg="http://www.w3.org/2000/svg"
   xmlns="http://www.w3.org/2000/svg"
   xmlns:sodipodi="http://sodipodi.sourceforge.net/DTD/sodipodi-0.dtd"
   xmlns:inkscape="http://www.inkscape.org/namespaces/inkscape"
   width="500"
   height="500"
   id="svg2"
   version="1.1"
   inkscape:version="0.91 r13725"
   sodipodi:docname="text-x-bibtex.svg">
  <defs
     id="defs4" />
  <sodipodi:namedview
     id="base"
     pagecolor="#ffffff"
     bordercolor="#666666"
     borderopacity="1.0"
     inkscape:pageopacity="0.0"
     inkscape:pageshadow="2"
     inkscape:zoom="0.60666666"
     inkscape:cx="252.87069"
     inkscape:cy="385.55082"
     inkscape:document-units="px"
     inkscape:current-layer="layer1"
     showgrid="false"
     inkscape:window-width="1366"
     inkscape:window-height="711"
     inkscape:window-x="0"
     inkscape:window-y="0"
     inkscape:window-maximized="1" />
  <metadata
     id="metadata7">
    <rdf:RDF>
      <cc:Work
         rdf:about="">
        <dc:format>image/svg+xml</dc:format>
        <dc:type
           rdf:resource="http://purl.org/dc/dcmitype/StillImage" />
        <dc:title />
      </cc:Work>
    </rdf:RDF>
  </metadata>
  <g
     inkscape:label="Layer 1"
     inkscape:groupmode="layer"
     id="layer1"
     transform="translate(0,-552.36218)">
    <path
       style="fill:#19023c;fill-opacity:1;fill-rule:evenodd;stroke:none;stroke-width:1px;stroke-linecap:butt;stroke-linejoin:miter;stroke-opacity:1"
       d="M 63.03896,706.21216 116.261,758.31072 114.60095,685.26887 63,685.02377 Z"
       id="path4230"
       inkscape:connector-curvature="0"
       sodipodi:nodetypes="ccccc" />
    <path
       style="fill:#f2f2f2;fill-rule:evenodd;stroke:#afafaf;stroke-width:5.03546047;stroke-linecap:butt;stroke-linejoin:miter;stroke-miterlimit:4;stroke-dasharray:none;stroke-opacity:1"
       d="m 97.04097,1029.8357 336.88839,-1.1739 1.17377,-363.88654 -88.03697,-89.21086 -250.02519,0 z"
       id="path3364"
       inkscape:connector-curvature="0" />
    <path
       style="fill:#afafaf;fill-opacity:1;fill-rule:evenodd;stroke:#afafaf;stroke-width:5.03546047;stroke-linecap:butt;stroke-linejoin:miter;stroke-miterlimit:4;stroke-dasharray:none;stroke-opacity:1"
       d="m 431.51909,662.9311 -82.16431,-0.58691 0.75853,-83.80351 z"
       id="path4166"
       inkscape:connector-curvature="0"
       sodipodi:nodetypes="cccc" />
    <rect
       style="fill:#2d1650;fill-opacity:1;stroke:none;stroke-width:5;stroke-miterlimit:4;stroke-dasharray:none;stroke-opacity:1"
       id="rect4228"
       width="224.93568"
       height="84.350876"
       x="63.139641"
       y="622.18726" />
    <path
       style="fill:none;fill-rule:evenodd;stroke:#ffffff;stroke-width:9;stroke-linecap:butt;stroke-linejoin:miter;stroke-miterlimit:4;stroke-dasharray:none;stroke-opacity:1"
       d="m 224.75227,634.86911 0,52.95329 20.19231,10e-6 c 0,0 15.79086,0.82537 15.25975,-13.95279 -0.53111,-14.77817 -14.02349,-14.48128 -14.02349,-14.48128 l -18.13186,0 17.92582,-0.20605 c 0,0 11.15385,-0.2958 11.02335,-12.6717 -0.1305,-12.3759 -15.45329,-11.64148 -15.45329,-11.64148 z"
       id="path4224"
       inkscape:connector-curvature="0"
       sodipodi:nodetypes="ccczccczcc" />
    <path
       inkscape:connector-curvature="0"
       style="fill:#394050;fill-opacity:1;stroke:none"
       d="m 141.55763,775.62655 0,11.36364 0,11.36363 248.44348,0 0,-11.36363 0,-11.36364 z m 0,56.81818 0,11.36363 79.0502,0 0,-11.36363 z m 0,34.0909 0,11.36364 101.63597,0 0,-11.36364 z m 0,34.09091 0,11.36364 124.22175,0 0,-11.36364 z m 0,34.09091 0,11.36363 124.22175,0 0,-11.36363 z m 0,34.0909 0,11.36365 101.63597,0 0,-11.36365 z m 0,34.09095 0,11.3637 67.75731,0 0,-11.3637 z"
       id="rect4274"
       sodipodi:nodetypes="ccccccccccccccccccccccccccccccccccccc" />
    <path
       inkscape:connector-curvature="0"
       style="fill:#2d1650;fill-opacity:1;stroke:none"
       d="m 238.75134,821.08106 0.35234,9.94318 67.75731,92.32955 -73.40375,90.90921 0,11.3636 158.10039,0 0,-56.81828 -11.29289,0 c 0,11.36364 2.92836,18.40943 -6.70516,25.21304 -10.56142,7.45874 -24.4702,8.87794 -36.70187,8.87794 l -58.22893,0 56.46443,-79.54551 -56.46443,-90.90909 33.17285,0 c 23.53539,0 57.03302,-2.18648 66.3457,26.27841 1.59195,4.86579 1.71663,14.06703 2.11741,19.17612 l 11.29289,0 0,-56.81817 z"
       id="rect4274-3"
       sodipodi:nodetypes="cccccccccscccsscccc" />
    <path
       style="fill:none;fill-rule:evenodd;stroke:#ffffff;stroke-width:9;stroke-linecap:butt;stroke-linejoin:miter;stroke-miterlimit:4;stroke-dasharray:none;stroke-opacity:1"
       d="m 148.94379,635.42244 0,52.95329 20.19231,10e-6 c 0,0 15.79086,0.82537 15.25975,-13.95279 -0.53111,-14.77817 -14.02349,-14.48128 -14.02349,-14.48128 l -18.13186,0 17.92582,-0.20605 c 0,0 11.15385,-0.2958 11.02335,-12.6717 -0.1305,-12.3759 -15.45329,-11.64148 -15.45329,-11.64148 z"
       id="path4224-3"
       inkscape:connector-curvature="0"
       sodipodi:nodetypes="ccczccczcc" />
    <g
       transform="translate(69.467415,336.53619)"
       id="g5117">
      <path
         sodipodi:nodetypes="cc"
         inkscape:connector-curvature="0"
         id="path4231"
         d="m 133.34218,354.15825 -0.05,-49.49365"
         style="fill:none;fill-rule:evenodd;stroke:#ffffff;stroke-width:9;stroke-linecap:butt;stroke-linejoin:miter;stroke-miterlimit:4;stroke-dasharray:none;stroke-opacity:1" />
      <rect
         y="291.90131"
         x="129.0282"
         height="8.6538467"
         width="8.8598909"
         id="rect4248"
         style="fill:#ffffff;fill-opacity:1;stroke:none;stroke-width:9;stroke-linecap:butt;stroke-linejoin:miter;stroke-miterlimit:4;stroke-dasharray:none;stroke-opacity:1" />
    </g>
  </g>
</svg>
