<?xml version="1.0" encoding="UTF-8" standalone="no"?>
<!-- Created with Inkscape (http://www.inkscape.org/) -->

<svg
   xmlns:dc="http://purl.org/dc/elements/1.1/"
   xmlns:cc="http://creativecommons.org/ns#"
   xmlns:rdf="http://www.w3.org/1999/02/22-rdf-syntax-ns#"
   xmlns:svg="http://www.w3.org/2000/svg"
   xmlns="http://www.w3.org/2000/svg"
   xmlns:sodipodi="http://sodipodi.sourceforge.net/DTD/sodipodi-0.dtd"
   xmlns:inkscape="http://www.inkscape.org/namespaces/inkscape"
   width="500"
   height="500"
   id="svg2"
   version="1.1"
   inkscape:version="0.91 r13725"
   sodipodi:docname="text-x-nfo.svg">
  <defs
     id="defs4" />
  <sodipodi:namedview
     id="base"
     pagecolor="#ffffff"
     bordercolor="#666666"
     borderopacity="1.0"
     inkscape:pageopacity="0.0"
     inkscape:pageshadow="2"
     inkscape:zoom="0.60666664"
     inkscape:cx="117.29248"
     inkscape:cy="238.41814"
     inkscape:document-units="px"
     inkscape:current-layer="layer1"
     showgrid="false"
     inkscape:window-width="1366"
     inkscape:window-height="711"
     inkscape:window-x="0"
     inkscape:window-y="0"
     inkscape:window-maximized="1" />
  <metadata
     id="metadata7">
    <rdf:RDF>
      <cc:Work
         rdf:about="">
        <dc:format>image/svg+xml</dc:format>
        <dc:type
           rdf:resource="http://purl.org/dc/dcmitype/StillImage" />
        <dc:title />
      </cc:Work>
    </rdf:RDF>
  </metadata>
  <g
     inkscape:label="Layer 1"
     inkscape:groupmode="layer"
     id="layer1"
     transform="translate(0,-552.36218)">
    <path
       style="fill:#1a1a1a;fill-rule:evenodd;stroke:none;stroke-width:1px;stroke-linecap:butt;stroke-linejoin:miter;stroke-opacity:1"
       d="m 63.190691,706.79484 53.222039,52.09856 -1.66005,-73.04185 -51.600949,-0.2451 z"
       id="path4230"
       inkscape:connector-curvature="0"
       sodipodi:nodetypes="ccccc" />
    <path
       style="fill:#f2f2f2;fill-rule:evenodd;stroke:#afafaf;stroke-width:5.03546047;stroke-linecap:butt;stroke-linejoin:miter;stroke-miterlimit:4;stroke-dasharray:none;stroke-opacity:1"
       d="m 96.901311,1029.8357 336.888419,-1.1739 1.1737,-363.88664 -88.03698,-89.21086 -250.025139,0 z"
       id="path3364"
       inkscape:connector-curvature="0" />
    <path
       style="fill:#afafaf;fill-opacity:1;fill-rule:evenodd;stroke:#afafaf;stroke-width:5.03546047;stroke-linecap:butt;stroke-linejoin:miter;stroke-miterlimit:4;stroke-dasharray:none;stroke-opacity:1"
       d="m 431.37943,662.931 -82.16428,-0.58691 0.7585,-83.80351 z"
       id="path4166"
       inkscape:connector-curvature="0"
       sodipodi:nodetypes="cccc" />
    <rect
       style="fill:#394050;fill-opacity:1;stroke:none;stroke-width:5;stroke-miterlimit:4;stroke-dasharray:none;stroke-opacity:1"
       id="rect4228"
       width="233.09462"
       height="84.350876"
       x="63"
       y="622.18713" />
    <path
       sodipodi:type="arc"
       style="fill:#faec6d;fill-opacity:1;stroke:#394050;stroke-width:13.15789509;stroke-miterlimit:4;stroke-dasharray:none;stroke-opacity:1"
       id="path3766"
       sodipodi:cx="261.81317"
       sodipodi:cy="902.36218"
       sodipodi:rx="118.42105"
       sodipodi:ry="118.42105"
       d="M 380.23422,902.36218 A 118.42105,118.42105 0 0 1 261.82472,1020.7832 118.42105,118.42105 0 0 1 143.39212,902.38528 118.42105,118.42105 0 0 1 261.77853,783.94114 118.42105,118.42105 0 0 1 380.23421,902.316"
       sodipodi:start="0"
       sodipodi:end="6.2827953"
       sodipodi:open="true" />
    <path
       style="fill:#394050;stroke:none"
       d="m 227.38227,885.07096 55.26909,-0.15928 0.40632,73.7761 c 0,0 -0.1526,1.91325 1.27092,3.46908 1.42353,1.55583 2.83993,1.59908 2.83993,1.59908 l 12.33252,0.0567 0.11264,8.95376 -70.22219,-0.1689 -0.11264,-9.06644 14.35979,0.0567 c 0,0 1.99389,-0.24283 3.13608,-1.87575 1.14217,-1.633 0.86215,-3.41765 0.86215,-3.41765 l -0.0563,-59.63536 c 0,0 0.194,-1.48914 -1.84665,-3.23121 -2.04066,-1.74208 -3.95358,-1.55538 -3.95358,-1.55538 l -14.30347,-0.16893 z"
       id="path3779"
       inkscape:connector-curvature="0"
       sodipodi:nodetypes="ccczcccccczcczccc" />
    <path
       sodipodi:type="arc"
       style="fill:#394050;fill-opacity:1;stroke:none"
       id="path2997-3"
       sodipodi:cx="263.09631"
       sodipodi:cy="854.34985"
       sodipodi:rx="20.079031"
       sodipodi:ry="20.472738"
       d="m 283.17534,854.34985 a 20.079031,20.472738 0 0 1 -20.05546,20.47273 20.079031,20.472738 0 0 1 -20.10254,-20.42467 20.079031,20.472738 0 0 1 20.00827,-20.52067 20.079031,20.472738 0 0 1 20.14951,20.3765"
       sodipodi:start="0"
       sodipodi:end="6.2784904"
       sodipodi:open="true" />
    <path
       style="fill:none;fill-rule:evenodd;stroke:#ffffff;stroke-width:9;stroke-linecap:butt;stroke-linejoin:bevel;stroke-miterlimit:4;stroke-dasharray:none;stroke-opacity:1"
       d="m 124.24451,695.08194 -0.20604,-60.98901 42.03295,60.16484 0,-60.98902"
       id="path4195"
       inkscape:connector-curvature="0"
       sodipodi:nodetypes="cccc" />
    <g
       transform="translate(-46.650566,-3.5364014)"
       id="g3342">
      <path
         sodipodi:nodetypes="ccc"
         inkscape:connector-curvature="0"
         id="path4218-5"
         d="m 233.38353,692.5151 0.41209,-51.71704 34.44898,0.1457"
         style="fill:none;fill-rule:evenodd;stroke:#ffffff;stroke-width:9;stroke-linecap:butt;stroke-linejoin:miter;stroke-miterlimit:4;stroke-dasharray:none;stroke-opacity:1" />
      <path
         inkscape:connector-curvature="0"
         id="path4220-0"
         d="m 236.12687,664.57931 29.13901,0.14569"
         style="fill:none;fill-rule:evenodd;stroke:#ffffff;stroke-width:9;stroke-linecap:butt;stroke-linejoin:miter;stroke-miterlimit:4;stroke-dasharray:none;stroke-opacity:1" />
    </g>
    <path
       style="fill:none;fill-rule:evenodd;stroke:#ffffff;stroke-width:9;stroke-linecap:butt;stroke-linejoin:miter;stroke-miterlimit:4;stroke-dasharray:none;stroke-opacity:1"
       d="m 252.90136,691.54488 c -12.02507,-0.10136 -23.35226,-12.18839 -23.42257,-27.48566 -0.0703,-15.29728 11.99424,-27.58791 24.13958,-27.24665 12.14534,0.34126 22.73834,11.91939 22.94455,28.20268 0.20622,16.28328 -11.63649,26.63099 -23.66156,26.52963 z"
       id="path4273"
       inkscape:connector-curvature="0"
       sodipodi:nodetypes="zzzzz" />
  </g>
</svg>
