<?xml version="1.0" encoding="UTF-8" standalone="no"?>
<!-- Created with Inkscape (http://www.inkscape.org/) -->

<svg
   xmlns:dc="http://purl.org/dc/elements/1.1/"
   xmlns:cc="http://creativecommons.org/ns#"
   xmlns:rdf="http://www.w3.org/1999/02/22-rdf-syntax-ns#"
   xmlns:svg="http://www.w3.org/2000/svg"
   xmlns="http://www.w3.org/2000/svg"
   xmlns:sodipodi="http://sodipodi.sourceforge.net/DTD/sodipodi-0.dtd"
   xmlns:inkscape="http://www.inkscape.org/namespaces/inkscape"
   width="500"
   height="500"
   id="svg2"
   version="1.1"
   inkscape:version="0.48.5 r10040"
   sodipodi:docname="text-x-nfo.svg">
  <defs
     id="defs4" />
  <sodipodi:namedview
     id="base"
     pagecolor="#ffffff"
     bordercolor="#666666"
     borderopacity="1.0"
     inkscape:pageopacity="0.0"
     inkscape:pageshadow="2"
     inkscape:zoom="0.30333332"
     inkscape:cx="1435.6838"
     inkscape:cy="488.81716"
     inkscape:document-units="px"
     inkscape:current-layer="layer1"
     showgrid="false"
     inkscape:window-width="1366"
     inkscape:window-height="716"
     inkscape:window-x="0"
     inkscape:window-y="0"
     inkscape:window-maximized="1" />
  <metadata
     id="metadata7">
    <rdf:RDF>
      <cc:Work
         rdf:about="">
        <dc:format>image/svg+xml</dc:format>
        <dc:type
           rdf:resource="http://purl.org/dc/dcmitype/StillImage" />
        <dc:title />
      </cc:Work>
    </rdf:RDF>
  </metadata>
  <g
     inkscape:label="Layer 1"
     inkscape:groupmode="layer"
     id="layer1"
     transform="translate(0,-552.36218)">
    <rect
       style="fill:#ffffff;fill-opacity:1;stroke:none"
       id="rect3000"
       width="450"
       height="450"
       x="25"
       y="577.36218"
       ry="55.366497" />
    <path
       style="fill:#394050;stroke:none;stroke-width:1px;stroke-linecap:butt;stroke-linejoin:miter;stroke-opacity:1;fill-opacity:1"
       d="M 100,475 100,25 C 100,25 61.202184,19.758699 40.940323,41.934658 20.678462,64.110616 25,90.3 25,90.3 L 25,410 c 0,0 -3.104929,34.44943 20.038287,52.1379 C 68.181502,479.82637 100,475 100,475 z"
       id="path3770"
       inkscape:connector-curvature="0"
       transform="translate(0,552.36218)"
       sodipodi:nodetypes="cczcczc" />
    <path
       sodipodi:type="arc"
       style="fill:#faec6d;fill-opacity:1;stroke:#394050;stroke-width:24.4549427;stroke-miterlimit:4;stroke-opacity:1;stroke-dasharray:none"
       id="path3766"
       sodipodi:cx="-379.68039"
       sodipodi:cy="218.11607"
       sodipodi:rx="246.21698"
       sodipodi:ry="196.74347"
       d="m -133.46341,218.11607 a 246.21698,196.74347 0 1 1 -2e-5,-0.0767"
       sodipodi:start="0"
       sodipodi:end="6.2827953"
       transform="matrix(0.5771546,0,0,0.72228706,519.13428,719.81976)"
       sodipodi:open="true" />
    <path
       style="fill:#394050;stroke:none"
       d="m 258.6829,856.61273 66.32291,-0.19114 0.48758,88.53131 c 0,0 -0.18312,2.2959 1.52511,4.1629 1.70823,1.867 3.40791,1.9189 3.40791,1.9189 l 14.79903,0.068 0.13517,10.7445 -84.26663,-0.2027 -0.13517,-10.8797 17.23175,0.068 c 0,0 2.39267,-0.2914 3.76329,-2.2509 1.37061,-1.9596 1.03458,-4.10119 1.03458,-4.10119 l -0.0676,-71.56242 c 0,0 0.2328,-1.78697 -2.21598,-3.87746 -2.44879,-2.09049 -4.7443,-1.86645 -4.7443,-1.86645 l -17.16416,-0.20272 z"
       id="path3779"
       inkscape:connector-curvature="0"
       sodipodi:nodetypes="ccczcccccczcczccc" />
    <path
       sodipodi:type="arc"
       style="fill:#394050;fill-opacity:1;stroke:none"
       id="path2997-3"
       sodipodi:cx="611.39484"
       sodipodi:cy="263.50247"
       sodipodi:rx="12.879445"
       sodipodi:ry="13.131983"
       d="m 624.27428,263.50247 a 12.879445,13.131983 0 1 1 -1.4e-4,-0.0617"
       transform="matrix(1.8707977,0,0,1.8707977,-842.25628,326.7876)"
       sodipodi:start="0"
       sodipodi:end="6.2784904"
       sodipodi:open="true" />
  </g>
</svg>
