<?xml version="1.0" encoding="UTF-8" standalone="no"?>
<!-- Created with Inkscape (http://www.inkscape.org/) -->

<svg
   xmlns:dc="http://purl.org/dc/elements/1.1/"
   xmlns:cc="http://creativecommons.org/ns#"
   xmlns:rdf="http://www.w3.org/1999/02/22-rdf-syntax-ns#"
   xmlns:svg="http://www.w3.org/2000/svg"
   xmlns="http://www.w3.org/2000/svg"
   xmlns:sodipodi="http://sodipodi.sourceforge.net/DTD/sodipodi-0.dtd"
   xmlns:inkscape="http://www.inkscape.org/namespaces/inkscape"
   width="500"
   height="500"
   id="svg2"
   version="1.1"
   inkscape:version="0.48.5 r10040"
   sodipodi:docname="text-directory.svg">
  <defs
     id="defs4" />
  <sodipodi:namedview
     id="base"
     pagecolor="#ffffff"
     bordercolor="#666666"
     borderopacity="1.0"
     inkscape:pageopacity="0.0"
     inkscape:pageshadow="2"
     inkscape:zoom="0.4289781"
     inkscape:cx="182.31776"
     inkscape:cy="292.92985"
     inkscape:document-units="px"
     inkscape:current-layer="layer1"
     showgrid="false"
     inkscape:window-width="1366"
     inkscape:window-height="716"
     inkscape:window-x="0"
     inkscape:window-y="0"
     inkscape:window-maximized="1" />
  <metadata
     id="metadata7">
    <rdf:RDF>
      <cc:Work
         rdf:about="">
        <dc:format>image/svg+xml</dc:format>
        <dc:type
           rdf:resource="http://purl.org/dc/dcmitype/StillImage" />
        <dc:title />
      </cc:Work>
    </rdf:RDF>
  </metadata>
  <g
     inkscape:label="Layer 1"
     inkscape:groupmode="layer"
     id="layer1"
     transform="translate(0,-552.36218)">
    <rect
       style="fill:#ffffff;fill-opacity:1;stroke:none"
       id="rect3000"
       width="450"
       height="450"
       x="25"
       y="577.36218"
       ry="55.366497" />
    <path
       style="fill:#394050;stroke:none;stroke-width:1px;stroke-linecap:butt;stroke-linejoin:miter;stroke-opacity:1;fill-opacity:1"
       d="M 100,475 100,25 C 100,25 61.202184,19.758699 40.940323,41.934658 20.678462,64.110616 25,90.3 25,90.3 L 25,410 c 0,0 -3.104929,34.44943 20.038287,52.1379 C 68.181502,479.82637 100,475 100,475 z"
       id="path3770"
       inkscape:connector-curvature="0"
       transform="translate(0,552.36218)"
       sodipodi:nodetypes="cczcczc" />
    <rect
       style="fill:#faec6d;fill-opacity:1;stroke:#394050;stroke-width:18.25534248;stroke-miterlimit:4;stroke-opacity:1;stroke-dasharray:none"
       id="rect2988"
       width="207.25507"
       height="207.25507"
       x="742.89392"
       y="274.67752"
       rx="14.253585"
       ry="12.85303"
       transform="matrix(0.68145507,0.73185996,-0.73185996,0.68145507,0,0)" />
    <path
       style="fill:#394050;stroke:none"
       d="m 296.23215,828.16713 c -9.99889,1.39723 -15.58566,12.2266 -15.58566,12.2266 l -11.46262,15.99258 -17.55875,9.5355 c 0,0 -4.37508,1.94957 -2.9559,5.91175 1.41918,3.96217 4.83691,2.9559 4.83691,2.9559 l 20.42242,-8.33022 10.74874,-10.47995 9.67383,30.63369 -18.81016,21.76605 0,44.87568 c 0,0 0.83292,5.15038 5.64305,5.1056 4.80998,-0.0448 6.44918,-4.03075 6.44918,-4.03075 l 2.14977,-39.23262 14.62527,-11.91623 4.18023,0 5.22531,15.86594 18.15768,34.47677 c 0,0 3.81575,4.16504 8.33019,1.6123 4.51444,-2.55274 3.76204,-7.25536 3.76204,-7.25536 l -17.19791,-32.78342 -1.3435,-33.85829 -6.98669,-32.24599 8.86771,2.68718 6.18041,19.88501 c 0,0 1.97627,5.20375 6.15063,3.91663 4.1745,-1.2871 3.25446,-6.33507 3.25446,-6.33507 l -6.44919,-24.99064 -23.37831,-13.43585 c 0,0 -6.93027,-3.95002 -16.92914,-2.55279 z"
       id="path3758"
       inkscape:connector-curvature="0"
       sodipodi:nodetypes="zccczcccccczcccccczcccccczcccz" />
    <path
       sodipodi:type="arc"
       style="fill:#394050;fill-opacity:1;stroke:none"
       id="path3760"
       sodipodi:cx="850.71429"
       sodipodi:cy="234.76785"
       sodipodi:rx="9.4642859"
       sodipodi:ry="9.7321424"
       d="m 860.17858,234.76785 a 9.4642859,9.7321424 0 1 1 -10e-5,-0.0457"
       transform="matrix(1.5048129,0,0,1.4357848,-983.84946,473.12912)"
       sodipodi:start="0"
       sodipodi:end="6.2784904"
       sodipodi:open="true" />
  </g>
</svg>
