<?xml version="1.0" encoding="UTF-8" standalone="no"?>
<!-- Created with Inkscape (http://www.inkscape.org/) -->

<svg
   xmlns:dc="http://purl.org/dc/elements/1.1/"
   xmlns:cc="http://creativecommons.org/ns#"
   xmlns:rdf="http://www.w3.org/1999/02/22-rdf-syntax-ns#"
   xmlns:svg="http://www.w3.org/2000/svg"
   xmlns="http://www.w3.org/2000/svg"
   xmlns:sodipodi="http://sodipodi.sourceforge.net/DTD/sodipodi-0.dtd"
   xmlns:inkscape="http://www.inkscape.org/namespaces/inkscape"
   width="500"
   height="500"
   id="svg2"
   version="1.1"
   inkscape:version="0.91 r13725"
   sodipodi:docname="x-office-address-book.svg">
  <defs
     id="defs4" />
  <sodipodi:namedview
     id="base"
     pagecolor="#ffffff"
     bordercolor="#666666"
     borderopacity="1.0"
     inkscape:pageopacity="0.0"
     inkscape:pageshadow="2"
     inkscape:zoom="0.60666664"
     inkscape:cx="535.03652"
     inkscape:cy="222.1887"
     inkscape:document-units="px"
     inkscape:current-layer="layer1"
     showgrid="false"
     inkscape:window-width="1366"
     inkscape:window-height="711"
     inkscape:window-x="0"
     inkscape:window-y="0"
     inkscape:window-maximized="1" />
  <metadata
     id="metadata7">
    <rdf:RDF>
      <cc:Work
         rdf:about="">
        <dc:format>image/svg+xml</dc:format>
        <dc:type
           rdf:resource="http://purl.org/dc/dcmitype/StillImage" />
        <dc:title />
      </cc:Work>
    </rdf:RDF>
  </metadata>
  <g
     inkscape:label="Layer 1"
     inkscape:groupmode="layer"
     id="layer1"
     transform="translate(0,-552.36218)">
    <path
       style="fill:#28170b;fill-opacity:1;fill-rule:evenodd;stroke:none;stroke-width:1px;stroke-linecap:butt;stroke-linejoin:miter;stroke-opacity:1"
       d="M 63.03896,706.2122 116.261,758.31076 114.60095,685.26891 63,685.02381 Z"
       id="path4230"
       inkscape:connector-curvature="0"
       sodipodi:nodetypes="ccccc" />
    <path
       style="fill:#f2f2f2;fill-rule:evenodd;stroke:#afafaf;stroke-width:5.03546047;stroke-linecap:butt;stroke-linejoin:miter;stroke-miterlimit:4;stroke-dasharray:none;stroke-opacity:1"
       d="m 97.04097,1029.8357 336.8883,-1.1739 1.1738,-363.8865 -88.0369,-89.21086 -250.0252,0 z"
       id="path3364"
       inkscape:connector-curvature="0" />
    <path
       style="fill:#afafaf;fill-opacity:1;fill-rule:evenodd;stroke:#afafaf;stroke-width:5.03546047;stroke-linecap:butt;stroke-linejoin:miter;stroke-miterlimit:4;stroke-dasharray:none;stroke-opacity:1"
       d="m 431.51897,662.93114 -82.1642,-0.58691 0.7585,-83.80351 z"
       id="path4166"
       inkscape:connector-curvature="0"
       sodipodi:nodetypes="cccc" />
    <rect
       style="fill:#502d16;fill-opacity:1;stroke:none;stroke-width:5;stroke-miterlimit:4;stroke-dasharray:none;stroke-opacity:1"
       id="rect4228"
       width="210.81761"
       height="84.350876"
       x="63.139679"
       y="622.18738" />
    <rect
       style="fill:#999999;fill-opacity:1;stroke:none"
       id="rect3025"
       width="19.292038"
       height="40.191742"
       x="364.84402"
       y="799.12567"
       rx="6.2878165"
       ry="5.6699772" />
    <rect
       style="fill:#999999;fill-opacity:1;stroke:none"
       id="rect3025-3"
       width="19.292038"
       height="40.191742"
       x="364.84402"
       y="848.38678"
       rx="6.2878165"
       ry="5.6699772" />
    <rect
       style="fill:#999999;fill-opacity:1;stroke:none"
       id="rect3025-6"
       width="19.292038"
       height="40.191742"
       x="364.84402"
       y="895.95349"
       rx="6.2878165"
       ry="5.6699772" />
    <rect
       style="fill:#999999;fill-opacity:1;stroke:none"
       id="rect3025-3-7"
       width="19.292038"
       height="40.191742"
       x="364.84402"
       y="945.21454"
       rx="6.2878165"
       ry="5.6699772" />
    <rect
       style="fill:#502d16;fill-opacity:1;stroke:none"
       id="rect3003"
       width="211.6875"
       height="249.88329"
       x="160.30789"
       y="774.66229"
       ry="19.759451"
       rx="17.487228" />
    <path
       style="fill:#666666;stroke:none"
       d="m 214.69251,1024.5203 -37.23001,0.095 c 0,0 -6.05639,-0.1971 -11.46267,-5.2102 -5.40627,-5.0133 -5.7787,-13.831 -5.7787,-13.831 l 0.18946,-211.63336 c 0,0 -0.0974,-7.58967 4.83138,-13.26261 4.92881,-5.67293 13.45206,-6.0629 13.45206,-6.0629 l 35.90375,0 0,0 z"
       id="path3064"
       inkscape:connector-curvature="0"
       sodipodi:nodetypes="cczcczcccc" />
    <circle
       style="fill:#394050;fill-opacity:1;stroke:none"
       id="path3777"
       cx="186.05112"
       cy="802.823"
       r="10.469328" />
    <path
       style="fill:#cccccc;stroke:none"
       d="m 148.46314,809.38072 37.96568,0 c 0,0 5.58359,-0.48203 5.46477,-5.9825 -0.11875,-5.50043 -5.75238,-6.21252 -5.75238,-6.21252 l -38.13827,0.23002 c 0,0 -4.94005,1.06924 -4.83198,6.21256 0.10798,5.14331 5.29218,5.75251 5.29218,5.75251 z"
       id="path3779"
       inkscape:connector-curvature="0"
       sodipodi:nodetypes="cczcczc" />
    <circle
       style="fill:#394050;fill-opacity:1;stroke:none"
       id="path3777-3"
       cx="186.29257"
       cy="829.65924"
       r="10.469328" />
    <path
       style="fill:#cccccc;stroke:none"
       d="m 148.70454,836.21698 37.96567,0 c 0,0 5.58359,-0.48203 5.46478,-5.9825 -0.11876,-5.50043 -5.75239,-6.21253 -5.75239,-6.21253 l -38.13826,0.23003 c 0,0 -4.94005,1.06925 -4.83199,6.21256 0.10799,5.14331 5.29219,5.75251 5.29219,5.75251 z"
       id="path3779-6"
       inkscape:connector-curvature="0"
       sodipodi:nodetypes="cczcczc" />
    <circle
       style="fill:#394050;fill-opacity:1;stroke:none"
       id="path3777-7"
       cx="186.49722"
       cy="856.26575"
       r="10.469328" />
    <path
       style="fill:#cccccc;stroke:none"
       d="m 148.90924,862.82346 37.96566,0 c 0,0 5.58359,-0.48204 5.46478,-5.9825 -0.11875,-5.50044 -5.75239,-6.21253 -5.75239,-6.21253 l -38.13826,0.23003 c 0,0 -4.94006,1.06924 -4.83199,6.21256 0.108,5.14331 5.2922,5.7525 5.2922,5.7525 z"
       id="path3779-5"
       inkscape:connector-curvature="0"
       sodipodi:nodetypes="cczcczc" />
    <circle
       style="fill:#394050;fill-opacity:1;stroke:none"
       id="path3777-3-3"
       cx="186.73862"
       cy="883.10205"
       r="10.469328" />
    <path
       style="fill:#cccccc;stroke:none"
       d="m 149.15062,889.65973 37.96567,0 c 0,0 5.58359,-0.48203 5.46478,-5.9825 -0.11875,-5.50043 -5.75239,-6.21253 -5.75239,-6.21253 l -38.13826,0.23002 c 0,0 -4.94006,1.06925 -4.83198,6.21257 0.10799,5.14331 5.29218,5.75251 5.29218,5.75251 z"
       id="path3779-6-5"
       inkscape:connector-curvature="0"
       sodipodi:nodetypes="cczcczc" />
    <circle
       style="fill:#394050;fill-opacity:1;stroke:none"
       id="path3777-6"
       cx="186.62003"
       cy="909.8783"
       r="10.469328" />
    <path
       style="fill:#cccccc;stroke:none"
       d="m 149.03204,916.43602 37.96568,0 c 0,0 5.58359,-0.48203 5.46478,-5.9825 -0.11875,-5.50043 -5.75238,-6.21252 -5.75238,-6.21252 l -38.13828,0.23001 c 0,0 -4.94005,1.06925 -4.83198,6.21256 0.10799,5.14332 5.29218,5.75252 5.29218,5.75252 z"
       id="path3779-2"
       inkscape:connector-curvature="0"
       sodipodi:nodetypes="cczcczc" />
    <circle
       style="fill:#394050;fill-opacity:1;stroke:none"
       id="path3777-3-9"
       cx="186.86154"
       cy="936.7146"
       r="10.469328" />
    <path
       style="fill:#cccccc;stroke:none"
       d="m 149.27344,943.27229 37.96568,0 c 0,0 5.58359,-0.48205 5.46477,-5.9825 -0.11875,-5.50045 -5.75238,-6.21254 -5.75238,-6.21254 l -38.13827,0.23004 c 0,0 -4.94005,1.06924 -4.83199,6.21255 0.10799,5.14331 5.29219,5.7525 5.29219,5.7525 z"
       id="path3779-6-1"
       inkscape:connector-curvature="0"
       sodipodi:nodetypes="cczcczc" />
    <circle
       style="fill:#394050;fill-opacity:1;stroke:none"
       id="path3777-7-2"
       cx="187.06613"
       cy="963.32111"
       r="10.469328" />
    <path
       style="fill:#cccccc;stroke:none"
       d="m 149.47814,969.87878 37.96566,0 c 0,0 5.58359,-0.482 5.46478,-5.9825 -0.11875,-5.50045 -5.75238,-6.21254 -5.75238,-6.21254 l -38.13826,0.23002 c 0,0 -4.94006,1.06925 -4.832,6.21258 0.10799,5.14329 5.2922,5.7525 5.2922,5.7525 z"
       id="path3779-5-7"
       inkscape:connector-curvature="0"
       sodipodi:nodetypes="cczcczc" />
    <circle
       style="fill:#394050;fill-opacity:1;stroke:none"
       id="path3777-3-3-0"
       cx="187.30765"
       cy="990.15735"
       r="10.469328" />
    <path
       style="fill:#cccccc;stroke:none"
       d="m 149.71953,996.71506 37.96566,0 c 0,0 5.58359,-0.4821 5.46478,-5.9825 -0.11875,-5.5005 -5.75238,-6.2125 -5.75238,-6.2125 l -38.13826,0.2299 c 0,0 -4.94006,1.0693 -4.83199,6.2126 0.10799,5.1434 5.29219,5.7526 5.29219,5.7526 z"
       id="path3779-6-5-9"
       inkscape:connector-curvature="0"
       sodipodi:nodetypes="cczcczc" />
    <rect
       style="fill:#ffffff;fill-opacity:1;stroke:none"
       id="rect3008"
       width="120.03934"
       height="45.014755"
       x="230.00375"
       y="808.85095"
       rx="6.2878165"
       ry="5.6699772" />
  </g>
</svg>
