<?xml version="1.0" encoding="UTF-8" standalone="no"?>
<svg
   xmlns:dc="http://purl.org/dc/elements/1.1/"
   xmlns:cc="http://creativecommons.org/ns#"
   xmlns:rdf="http://www.w3.org/1999/02/22-rdf-syntax-ns#"
   xmlns:svg="http://www.w3.org/2000/svg"
   xmlns="http://www.w3.org/2000/svg"
   xmlns:sodipodi="http://sodipodi.sourceforge.net/DTD/sodipodi-0.dtd"
   xmlns:inkscape="http://www.inkscape.org/namespaces/inkscape"
   height="22"
   width="22"
   version="1.1"
   id="svg2"
   inkscape:version="0.92.3 (2405546, 2018-03-11)"
   sodipodi:docname="airplane-mode.svg">
  <metadata
     id="metadata27">
    <rdf:RDF>
      <cc:Work
         rdf:about="">
        <dc:format>image/svg+xml</dc:format>
        <dc:type
           rdf:resource="http://purl.org/dc/dcmitype/StillImage" />
        <dc:title></dc:title>
      </cc:Work>
    </rdf:RDF>
  </metadata>
  <sodipodi:namedview
     pagecolor="#ffffff"
     bordercolor="#666666"
     borderopacity="1"
     objecttolerance="10"
     gridtolerance="10"
     guidetolerance="10"
     inkscape:pageopacity="0"
     inkscape:pageshadow="2"
     inkscape:window-width="1366"
     inkscape:window-height="718"
     id="namedview25"
     showgrid="false"
     inkscape:zoom="7.9999999"
     inkscape:cx="-3.5200113"
     inkscape:cy="3.0438946"
     inkscape:window-x="0"
     inkscape:window-y="25"
     inkscape:window-maximized="1"
     inkscape:current-layer="svg2" />
  <defs
     id="defs4">
    <linearGradient
       id="a"
       y2="48"
       gradientUnits="userSpaceOnUse"
       x2="88"
       gradientTransform="matrix(0,-1,1,0,52.881356,90.305085)"
       y1="48"
       x1="8">
      <stop
         stop-color="#aaa"
         offset="0"
         id="stop7" />
      <stop
         stop-color="#f0f0f0"
         offset="1"
         id="stop9" />
    </linearGradient>
  </defs>
  <path
     style="fill:#f7f7f7;fill-opacity:1;stroke-width:0.04822844"
     d="m 17.078453,20.71224 c -0.07943,-0.15825 -0.660085,-1.35117 -1.290355,-2.65092 -0.630269,-1.29976 -1.151828,-2.37013 -1.15902,-2.3786 -0.0072,-0.008 -0.146635,0.0109 -0.309874,0.043 -0.389191,0.0766 -0.607569,0.0129 -0.840651,-0.24509 -0.157928,-0.17481 -0.174096,-0.21875 -0.174096,-0.47318 0,-0.31476 0.09918,-0.69327 0.270073,-1.03076 l 0.11463,-0.22636 -0.433491,-0.90147 -0.433491,-0.90147 -0.712028,0.69379 c -0.61989,0.604 -1.00112,0.90854 -2.94587,2.35326 -2.21538,1.64577 -2.23361,1.66071 -2.20677,1.80856 0.0149,0.082 0.10496,0.67919 0.20016,1.3271 l 0.17309,1.17801 -0.522,0.522 -0.52199,0.522 -2.33863,-2.339 -2.33862,-2.339 0.53028,-0.52514 0.53029,-0.52514 1.28974,0.1928 c 0.70935,0.10604 1.31974,0.18129 1.35641,0.16722 0.0367,-0.0141 0.80127,-1.03106 1.69912,-2.25997 C 8.4874,10.70905 8.71595,10.41984 9.34125,9.78079 L 10.0347,9.07209 9.07293,8.59075 8.11116,8.10941 7.63324,8.27416 C 6.86824,8.53788 6.46013,8.48518 6.21137,8.09056 6.13127,7.96343 6.11647,7.87805 6.13417,7.64401 6.14617,7.48485 6.16387,7.32378 6.17337,7.28606 6.18567,7.23766 5.42577,6.84688 3.59538,5.96013 L 1,4.70279 1.61802,4.09688 C 2.03141,3.69159 2.31485,3.45446 2.47409,3.38069 2.80971,3.2252 3.34555,3.12118 3.63466,3.15539 3.76728,3.17109 4.8687,3.43712 6.08224,3.74659 L 8.28868,4.30926 8.98129,3.62685 c 0.38094,-0.37532 0.7513,-0.70471 0.82303,-0.73199 0.18309,-0.0696 0.44334,-0.0617 0.59677,0.0182 0.0716,0.0373 0.41495,0.35775 0.76295,0.71213 0.65849,0.67057 0.73604,0.79776 0.66995,1.0987 -0.0172,0.0783 -0.0757,0.19884 -0.1299,0.2678 -0.0542,0.0689 -0.0868,0.13721 -0.0723,0.15167 0.0145,0.0145 0.44373,0.13108 0.953919,0.25916 l 0.927621,0.23286 1.586162,-1.55181 c 1.725548,-1.68818 2.028339,-1.93209 3.037494,-2.44685 0.921608,-0.4701 1.778659,-0.6975 2.276672,-0.60407 0.26178,0.0491 0.4911,0.27484 0.556298,0.54758 0.110882,0.46386 -0.0876,1.25994 -0.549875,2.20547 -0.515859,1.05513 -0.709187,1.29507 -2.469385,3.06479 l -1.609232,1.61794 0.224558,0.91405 c 0.123508,0.50273 0.229892,0.92065 0.23641,0.92872 0.0065,0.008 0.08483,-0.0298 0.174034,-0.0842 0.202812,-0.12365 0.548215,-0.13059 0.722471,-0.0145 0.163423,0.10885 1.264339,1.25746 1.337206,1.39513 0.07452,0.14079 0.07044,0.3695 -0.01,0.55935 -0.03615,0.0854 -0.359519,0.44145 -0.718592,0.79132 l -0.652858,0.63612 0.356633,1.51003 c 0.196148,0.83053 0.443554,1.87024 0.549792,2.31048 0.363248,1.50526 0.247209,1.95825 -0.768653,3.00061 L 17.222872,21 Z"
     id="path830"
     inkscape:connector-curvature="0" />
</svg>
