<?xml version="1.0" encoding="UTF-8" standalone="no"?>
<!-- Created with Inkscape (http://www.inkscape.org/) -->

<svg
   xmlns:dc="http://purl.org/dc/elements/1.1/"
   xmlns:cc="http://creativecommons.org/ns#"
   xmlns:rdf="http://www.w3.org/1999/02/22-rdf-syntax-ns#"
   xmlns:svg="http://www.w3.org/2000/svg"
   xmlns="http://www.w3.org/2000/svg"
   xmlns:sodipodi="http://sodipodi.sourceforge.net/DTD/sodipodi-0.dtd"
   xmlns:inkscape="http://www.inkscape.org/namespaces/inkscape"
   version="1.1"
   width="22"
   height="22"
   id="svg2"
   inkscape:version="0.92.3 (2405546, 2018-03-11)"
   sodipodi:docname="bitcoin-indicator.svg">
  <sodipodi:namedview
     pagecolor="#ffffff"
     bordercolor="#666666"
     borderopacity="1"
     objecttolerance="10"
     gridtolerance="10"
     guidetolerance="10"
     inkscape:pageopacity="0"
     inkscape:pageshadow="2"
     inkscape:window-width="1366"
     inkscape:window-height="718"
     id="namedview6"
     showgrid="false"
     inkscape:zoom="17.980952"
     inkscape:cx="9.367614"
     inkscape:cy="13.536183"
     inkscape:window-x="0"
     inkscape:window-y="25"
     inkscape:window-maximized="1"
     inkscape:current-layer="svg2" />
  <metadata
     id="metadata8">
    <rdf:RDF>
      <cc:Work
         rdf:about="">
        <dc:format>image/svg+xml</dc:format>
        <dc:type
           rdf:resource="http://purl.org/dc/dcmitype/StillImage" />
        <dc:title></dc:title>
      </cc:Work>
    </rdf:RDF>
  </metadata>
  <defs
     id="defs6" />
  <path
     style="fill:#f7f7f7;stroke-width:0.04444446;fill-opacity:1"
     d="m 8.090974,0.99998118 -0.03663,1.31693002 -0.03655,1.31693 -2.633942,0.0366 L 2.75,3.7070112 v 0.58533 0.58533 l 1.280382,0.0366 1.280383,0.0366 v 6.0360298 6.03594 L 4.030382,17.059441 2.75,17.095991 v 0.58533 0.58533 l 2.633855,0.0366 2.633942,0.0366 0.01892,1.24375 c 0.0104,0.68408 0.03458,1.28626 0.05373,1.3382 0.0255,0.0692 0.196584,0.0887 0.639497,0.0732 l 0.604775,-0.0213 0.03663,-1.31693 0.03654,-1.31693 h 0.621876 0.621875 l 0.03663,1.31693 0.03655,1.31693 h 0.621875 0.621962 l 0.03655,-1.31693 0.03655,-1.31693 1.280383,-0.045 c 0.7042,-0.0247 1.37943,-0.0777 1.50052,-0.11788 0.81154,-0.269 1.79873,-1.09098 2.13577,-1.77838 0.52231,-1.06531 0.50858,-2.38342 -0.0353,-3.39132 -0.24824,-0.46 -0.89328,-1.12187 -1.35183,-1.38707 -0.1915,-0.11076 -0.57974,-0.26016 -0.86276,-0.33203 -0.28301,-0.0719 -0.51571,-0.15536 -0.5171,-0.18559 -10e-4,-0.0302 0.20357,-0.24149 0.45547,-0.46945 0.55099,-0.49861 0.94906,-1.0932898 1.17431,-1.7541598 0.25232,-0.74034 0.23784,-1.83474 -0.0341,-2.57717 -0.55309,-1.50989 -1.84392,-2.46974 -3.562327,-2.64888 l -0.182986,-0.0191 -0.03655,-1.31693 -0.03655,-1.31693002 H 11.346745 10.72487 l -0.03655,1.31693002 -0.03663,1.31693 H 10.029815 9.407939 L 9.371399,2.3168812 9.334769,0.99995118 H 8.712893 Z M 9.407901,5.1702912 h 1.390105 c 1.385141,0 1.39167,7.4e-4 1.821355,0.21172 0.547089,0.26863 0.917489,0.63911 1.186109,1.1862 0.18626,0.37935 0.21168,0.51042 0.21085,1.08967 -0.001,0.74917 -0.1516,1.15751 -0.61614,1.6717 -0.61898,0.6851398 -1.152326,0.8528298 -2.706861,0.8513098 -0.626478,-5.9e-4 -1.180659,-0.0275 -1.231511,-0.0598 -0.07213,-0.0458 -0.08823,-0.5964798 -0.07318,-2.5046898 z m 1.943057,7.1345598 c 0.910858,6.2e-4 1.856832,0.0161 2.074832,0.046 0.51878,0.0711 1.19532,0.50928 1.51996,0.98438 0.36987,0.54128 0.541,1.2398 0.43021,1.75642 -0.18286,0.85265 -0.64145,1.46794 -1.35877,1.82318 -0.35964,0.1781 -0.40106,0.18154 -2.453038,0.20347 -1.147983,0.0123 -2.110979,-10e-4 -2.140018,-0.0305 -0.02904,-0.029 -0.05278,-1.09737 -0.05278,-2.37404 0,-2.04916 0.01355,-2.32642 0.115711,-2.36563 0.07734,-0.0297 0.953032,-0.0439 1.86389,-0.0433 z"
     id="path2986"
     inkscape:connector-curvature="0" />
</svg>
