<?xml version="1.0" encoding="UTF-8" standalone="no"?>
<svg
   xmlns:dc="http://purl.org/dc/elements/1.1/"
   xmlns:cc="http://creativecommons.org/ns#"
   xmlns:rdf="http://www.w3.org/1999/02/22-rdf-syntax-ns#"
   xmlns:svg="http://www.w3.org/2000/svg"
   xmlns="http://www.w3.org/2000/svg"
   xmlns:sodipodi="http://sodipodi.sourceforge.net/DTD/sodipodi-0.dtd"
   xmlns:inkscape="http://www.inkscape.org/namespaces/inkscape"
   width="22"
   height="22"
   version="1.1"
   id="svg7"
   sodipodi:docname="bomi-panel.svg"
   inkscape:version="0.92.3 (2405546, 2018-03-11)">
  <metadata
     id="metadata11">
    <rdf:RDF>
      <cc:Work
         rdf:about="">
        <dc:format>image/svg+xml</dc:format>
        <dc:type
           rdf:resource="http://purl.org/dc/dcmitype/StillImage" />
        <dc:title></dc:title>
      </cc:Work>
    </rdf:RDF>
  </metadata>
  <sodipodi:namedview
     pagecolor="#ffffff"
     bordercolor="#666666"
     borderopacity="1"
     objecttolerance="10"
     gridtolerance="10"
     guidetolerance="10"
     inkscape:pageopacity="0"
     inkscape:pageshadow="2"
     inkscape:window-width="1366"
     inkscape:window-height="718"
     id="namedview9"
     showgrid="false"
     inkscape:zoom="14.75"
     inkscape:cx="8"
     inkscape:cy="8"
     inkscape:window-x="0"
     inkscape:window-y="25"
     inkscape:window-maximized="1"
     inkscape:current-layer="svg7" />
  <defs
     id="defs3">
    <style
       id="current-color-scheme"
       type="text/css">
   .ColorScheme-Text { color:#d3dae3; } .ColorScheme-Highlight { color:#5294e2; }
  </style>
  </defs>
  <path
     style="color:#d3dae3;fill:#f7f7f7;stroke-width:1.42857146;fill-opacity:1"
     class="ColorScheme-Text"
     d="M 11,1 C 10.521714,1.003 10.044286,1.0402857 9.5714286,1.1115714 V 12.431429 c 0,0.791428 -0.6371429,1.428571 -1.4285715,1.428571 -0.7914285,0 -1.4285714,-0.637143 -1.4285714,-1.428571 V 1.9765714 C 3.2282857,3.6301429 1.0044286,7.1417143 1,11 1,16.522857 5.4771429,21 11,21 16.522857,21 21,16.522857 21,11 21,5.4771429 16.522857,1 11,1 Z m 0.267857,5.7142857 0.0029,0.00843 c 0.0074,-2.857e-4 0.01486,-2.857e-4 0.02229,0 0.04786,7.143e-4 0.095,0.015 0.136714,0.041857 l 5.136,3.2394283 c 0.195715,0.123429 0.195715,0.442857 0,0.566286 l -5.136,3.242285 C 11.233857,13.942857 10.988571,13.774286 11,13.516714 V 7.0351429 C 11.001143,6.865 11.118143,6.7248571 11.267857,6.7142857 Z"
     id="path5"
     inkscape:connector-curvature="0" />
</svg>
