<?xml version="1.0" encoding="UTF-8" standalone="no"?>
<svg
   xmlns:dc="http://purl.org/dc/elements/1.1/"
   xmlns:cc="http://creativecommons.org/ns#"
   xmlns:rdf="http://www.w3.org/1999/02/22-rdf-syntax-ns#"
   xmlns:svg="http://www.w3.org/2000/svg"
   xmlns="http://www.w3.org/2000/svg"
   xmlns:sodipodi="http://sodipodi.sourceforge.net/DTD/sodipodi-0.dtd"
   xmlns:inkscape="http://www.inkscape.org/namespaces/inkscape"
   width="22"
   height="22"
   version="1.1"
   id="svg7"
   sodipodi:docname="btsync-gui-5.svg"
   inkscape:version="0.92.3 (2405546, 2018-03-11)">
  <metadata
     id="metadata11">
    <rdf:RDF>
      <cc:Work
         rdf:about="">
        <dc:format>image/svg+xml</dc:format>
        <dc:type
           rdf:resource="http://purl.org/dc/dcmitype/StillImage" />
        <dc:title></dc:title>
      </cc:Work>
    </rdf:RDF>
  </metadata>
  <sodipodi:namedview
     pagecolor="#ffffff"
     bordercolor="#666666"
     borderopacity="1"
     objecttolerance="10"
     gridtolerance="10"
     guidetolerance="10"
     inkscape:pageopacity="0"
     inkscape:pageshadow="2"
     inkscape:window-width="1366"
     inkscape:window-height="718"
     id="namedview9"
     showgrid="false"
     inkscape:zoom="11.313708"
     inkscape:cx="14.934289"
     inkscape:cy="13.753418"
     inkscape:window-x="0"
     inkscape:window-y="25"
     inkscape:window-maximized="1"
     inkscape:current-layer="svg7" />
  <defs
     id="defs3">
    <style
       id="current-color-scheme"
       type="text/css">
   .ColorScheme-Text { color:#d3dae3; } .ColorScheme-Highlight { color:#5294e2; }
  </style>
  </defs>
  <path
     style="color:#d3dae3;fill:#f7f7f7;fill-opacity:1;stroke-width:1.42859769"
     class="ColorScheme-Text"
     d="m 18.071326,3.9286733 c -3.905068,-3.90506902 -10.2373258,-3.90506902 -14.1423952,1e-7 -3.90506903,3.9050683 -3.90506928,10.2373276 -2e-7,14.1423966 3.9050696,3.905068 10.2373274,3.905069 14.1423964,-10e-7 3.905069,-3.905069 3.905069,-10.2373259 -1e-6,-14.1423957 z m -2.020342,2.0203423 c 2.443607,2.4436063 2.747134,6.2174674 0.909549,8.9909184 l 1.110793,1.110792 -5.050855,1.010173 1.010171,-5.050856 0.824709,0.824709 C 15.612656,11.242794 15.348422,9.287137 14.030643,7.9693584 13.308605,7.2498595 12.353767,6.8112643 11.33751,6.7322928 L 10.57199,3.8793486 c 2.03821,-0.1249946 4.032461,0.6283253 5.478994,2.069667 z M 8.9797864,4.9388444 7.9696154,9.9896999 7.1449048,9.1649904 c -0.7573059,1.5919576 -0.4930684,3.5476156 0.8247103,4.8653956 0.7220359,0.719496 1.6768757,1.158092 2.6931329,1.237065 l 0.76552,2.852943 C 9.3900572,18.245389 7.3958378,17.492036 5.9492732,16.050727 3.5056648,13.607121 3.2021397,9.8332599 5.0397235,7.0598103 L 3.9289311,5.9490156 Z"
     id="path5"
     inkscape:connector-curvature="0" />
</svg>
