<?xml version="1.0" encoding="UTF-8" standalone="no"?>
<svg
   xmlns:dc="http://purl.org/dc/elements/1.1/"
   xmlns:cc="http://creativecommons.org/ns#"
   xmlns:rdf="http://www.w3.org/1999/02/22-rdf-syntax-ns#"
   xmlns:svg="http://www.w3.org/2000/svg"
   xmlns="http://www.w3.org/2000/svg"
   xmlns:sodipodi="http://sodipodi.sourceforge.net/DTD/sodipodi-0.dtd"
   xmlns:inkscape="http://www.inkscape.org/namespaces/inkscape"
   width="22"
   height="22"
   version="1.1"
   id="svg7"
   sodipodi:docname="btsync-gui-1.svg"
   inkscape:version="0.92.3 (2405546, 2018-03-11)">
  <metadata
     id="metadata11">
    <rdf:RDF>
      <cc:Work
         rdf:about="">
        <dc:format>image/svg+xml</dc:format>
        <dc:type
           rdf:resource="http://purl.org/dc/dcmitype/StillImage" />
        <dc:title></dc:title>
      </cc:Work>
    </rdf:RDF>
  </metadata>
  <sodipodi:namedview
     pagecolor="#ffffff"
     bordercolor="#666666"
     borderopacity="1"
     objecttolerance="10"
     gridtolerance="10"
     guidetolerance="10"
     inkscape:pageopacity="0"
     inkscape:pageshadow="2"
     inkscape:window-width="1366"
     inkscape:window-height="718"
     id="namedview9"
     showgrid="false"
     inkscape:zoom="14.75"
     inkscape:cx="8"
     inkscape:cy="8"
     inkscape:window-x="0"
     inkscape:window-y="25"
     inkscape:window-maximized="1"
     inkscape:current-layer="svg7" />
  <defs
     id="defs3">
    <style
       id="current-color-scheme"
       type="text/css">
   .ColorScheme-Text { color:#d3dae3; } .ColorScheme-Highlight { color:#5294e2; }
  </style>
  </defs>
  <path
     style="color:#d3dae3;fill:#f7f7f7;stroke-width:1.42822456;fill-opacity:1"
     class="ColorScheme-Text"
     d="m 8.4124379,1.343088 c -5.33303,1.4289811 -8.49833174,6.9114452 -7.0693505,12.244473 1.4289809,5.33303 6.9114443,8.498333 12.2444736,7.069351 5.33303,-1.428981 8.498333,-6.911444 7.069351,-12.2444729 C 19.227931,3.0794087 13.745468,-0.08589301 8.4124379,1.343088 Z M 9.151741,4.1022059 c 3.337157,-0.8941886 6.756286,0.7294554 8.238985,3.7067983 L 18.907702,7.4025315 17.25754,12.280511 13.389466,8.8811381 14.515746,8.5793528 C 13.515984,7.1279068 11.690694,6.3791087 9.891045,6.8613244 8.90718,7.1268071 8.0501495,7.7342652 7.4737806,8.574664 L 4.6210437,7.8113522 C 5.5316626,5.9841904 7.1807511,4.6341307 9.151741,4.1022059 Z m -4.4092804,5.6172828 3.868073,3.3993733 -1.1262805,0.301786 c 0.9997617,1.451445 2.8250519,2.200243 4.6247019,1.718027 0.983864,-0.265482 1.840895,-0.87294 2.417265,-1.713339 l 2.852736,0.763312 c -0.910619,1.827161 -2.559718,3.177179 -4.530698,3.709146 -3.337157,0.89419 -6.7562857,-0.729456 -8.2389842,-3.706797 L 3.092298,14.597468 Z"
     id="path5"
     inkscape:connector-curvature="0" />
</svg>
