<?xml version="1.0" encoding="UTF-8" standalone="no"?>
<svg
   xmlns:dc="http://purl.org/dc/elements/1.1/"
   xmlns:cc="http://creativecommons.org/ns#"
   xmlns:rdf="http://www.w3.org/1999/02/22-rdf-syntax-ns#"
   xmlns:svg="http://www.w3.org/2000/svg"
   xmlns="http://www.w3.org/2000/svg"
   xmlns:sodipodi="http://sodipodi.sourceforge.net/DTD/sodipodi-0.dtd"
   xmlns:inkscape="http://www.inkscape.org/namespaces/inkscape"
   width="22"
   height="22"
   version="1.1"
   id="svg7"
   sodipodi:docname="btsync-gui-10.svg"
   inkscape:version="0.92.3 (2405546, 2018-03-11)">
  <metadata
     id="metadata11">
    <rdf:RDF>
      <cc:Work
         rdf:about="">
        <dc:format>image/svg+xml</dc:format>
        <dc:type
           rdf:resource="http://purl.org/dc/dcmitype/StillImage" />
        <dc:title></dc:title>
      </cc:Work>
    </rdf:RDF>
  </metadata>
  <sodipodi:namedview
     pagecolor="#ffffff"
     bordercolor="#666666"
     borderopacity="1"
     objecttolerance="10"
     gridtolerance="10"
     guidetolerance="10"
     inkscape:pageopacity="0"
     inkscape:pageshadow="2"
     inkscape:window-width="1366"
     inkscape:window-height="718"
     id="namedview9"
     showgrid="false"
     inkscape:zoom="14.75"
     inkscape:cx="8"
     inkscape:cy="8"
     inkscape:window-x="0"
     inkscape:window-y="25"
     inkscape:window-maximized="1"
     inkscape:current-layer="svg7" />
  <defs
     id="defs3">
    <style
       id="current-color-scheme"
       type="text/css">
   .ColorScheme-Text { color:#d3dae3; } .ColorScheme-Highlight { color:#5294e2; }
  </style>
  </defs>
  <path
     style="color:#d3dae3;fill:#f7f7f7;fill-opacity:1;stroke-width:1.42835343"
     class="ColorScheme-Text"
     d="M 19.658932,15.999235 C 22.41976,11.217341 20.781133,5.1018964 15.999237,2.3410676 11.217342,-0.419761 5.1018956,1.2188678 2.3410677,6.0007628 -0.41975996,10.782659 1.2188676,16.898105 6.0007651,19.658932 10.782659,22.41976 16.898105,20.781132 19.658932,15.999235 Z m -2.47398,-1.428352 c -1.727596,2.992283 -5.293697,4.261998 -8.4477079,3.205029 l -0.7853116,1.360204 -2.2826204,-4.616508 5.1393249,-0.331451 -0.583058,1.009886 c 1.733421,0.319418 3.553741,-0.441845 4.485392,-2.055513 0.508018,-0.883502 0.684509,-1.919146 0.497796,-2.921042 l 2.557162,-1.4775795 c 0.648153,1.9360775 0.436686,4.0569865 -0.580977,5.8269745 z M 16.330688,7.4803921 11.191364,7.8118428 11.774422,6.8019553 C 10.041,6.4825378 8.2206808,7.2438026 7.2890281,8.8574699 6.7810154,9.7409735 6.6045208,10.776616 6.7912328,11.778514 L 4.2340716,13.256092 C 3.585919,11.320013 3.7974228,9.1991263 4.8150486,7.4291166 6.5426434,4.436832 10.108745,3.1671194 13.262754,4.2240866 L 14.04807,2.8638817 Z"
     id="path5"
     inkscape:connector-curvature="0" />
</svg>
