<?xml version="1.0" encoding="UTF-8" standalone="no"?>
<svg
   xmlns:dc="http://purl.org/dc/elements/1.1/"
   xmlns:cc="http://creativecommons.org/ns#"
   xmlns:rdf="http://www.w3.org/1999/02/22-rdf-syntax-ns#"
   xmlns:svg="http://www.w3.org/2000/svg"
   xmlns="http://www.w3.org/2000/svg"
   xmlns:sodipodi="http://sodipodi.sourceforge.net/DTD/sodipodi-0.dtd"
   xmlns:inkscape="http://www.inkscape.org/namespaces/inkscape"
   width="22"
   height="22"
   version="1.1"
   id="svg7"
   sodipodi:docname="btsync-gui-3.svg"
   inkscape:version="0.92.3 (2405546, 2018-03-11)">
  <metadata
     id="metadata11">
    <rdf:RDF>
      <cc:Work
         rdf:about="">
        <dc:format>image/svg+xml</dc:format>
        <dc:type
           rdf:resource="http://purl.org/dc/dcmitype/StillImage" />
        <dc:title></dc:title>
      </cc:Work>
    </rdf:RDF>
  </metadata>
  <sodipodi:namedview
     pagecolor="#ffffff"
     bordercolor="#666666"
     borderopacity="1"
     objecttolerance="10"
     gridtolerance="10"
     guidetolerance="10"
     inkscape:pageopacity="0"
     inkscape:pageshadow="2"
     inkscape:window-width="1366"
     inkscape:window-height="718"
     id="namedview9"
     showgrid="false"
     inkscape:zoom="14.75"
     inkscape:cx="8"
     inkscape:cy="8"
     inkscape:window-x="0"
     inkscape:window-y="25"
     inkscape:window-maximized="1"
     inkscape:current-layer="svg7" />
  <defs
     id="defs3">
    <style
       id="current-color-scheme"
       type="text/css">
   .ColorScheme-Text { color:#d3dae3; } .ColorScheme-Highlight { color:#5294e2; }
  </style>
  </defs>
  <path
     style="color:#d3dae3;fill:#f7f7f7;stroke-width:1.42822444;fill-opacity:1"
     class="ColorScheme-Text"
     d="M 13.587562,1.3430881 C 8.2545318,-0.0858931 2.7720685,3.0794086 1.3430874,8.4124388 -0.08589383,13.745469 3.0794077,19.227932 8.4124379,20.656913 13.745468,22.085893 19.227932,18.920592 20.656912,13.587563 22.085894,8.2545324 18.920591,2.7720691 13.587562,1.3430881 Z M 12.848258,4.102206 c 3.337158,0.8941884 5.486388,4.0098701 5.281771,7.329673 l 1.516976,0.406473 -3.868072,3.399374 -1.650163,-4.877981 1.126279,0.301786 C 15.114953,8.904661 13.908604,7.3435383 12.108955,6.8613236 11.124161,6.5993073 10.078222,6.6968657 9.158873,7.1364881 L 7.0699864,5.0490714 C 8.7721862,3.9220125 10.875368,3.5773712 12.848258,4.102206 Z M 6.2210675,6.7622758 7.8712303,11.640256 6.7449495,11.338471 c 0.140096,1.756869 1.3464458,3.317992 3.1460955,3.800207 0.984792,0.262017 2.030733,0.164457 2.950083,-0.275164 l 2.088885,2.087415 c -1.7022,1.127059 -3.80537,1.471658 -5.778272,0.946866 C 5.8145833,17.003608 3.6653538,13.887925 3.8699699,10.568123 L 2.3529948,10.161649 Z"
     id="path5"
     inkscape:connector-curvature="0" />
</svg>
