<?xml version="1.0" encoding="UTF-8" standalone="no"?>
<svg
   xmlns:dc="http://purl.org/dc/elements/1.1/"
   xmlns:cc="http://creativecommons.org/ns#"
   xmlns:rdf="http://www.w3.org/1999/02/22-rdf-syntax-ns#"
   xmlns:svg="http://www.w3.org/2000/svg"
   xmlns="http://www.w3.org/2000/svg"
   xmlns:sodipodi="http://sodipodi.sourceforge.net/DTD/sodipodi-0.dtd"
   xmlns:inkscape="http://www.inkscape.org/namespaces/inkscape"
   width="22"
   height="22"
   version="1.1"
   id="svg7"
   sodipodi:docname="btsync-gui-8.svg"
   inkscape:version="0.92.3 (2405546, 2018-03-11)">
  <metadata
     id="metadata11">
    <rdf:RDF>
      <cc:Work
         rdf:about="">
        <dc:format>image/svg+xml</dc:format>
        <dc:type
           rdf:resource="http://purl.org/dc/dcmitype/StillImage" />
        <dc:title></dc:title>
      </cc:Work>
    </rdf:RDF>
  </metadata>
  <sodipodi:namedview
     pagecolor="#ffffff"
     bordercolor="#666666"
     borderopacity="1"
     objecttolerance="10"
     gridtolerance="10"
     guidetolerance="10"
     inkscape:pageopacity="0"
     inkscape:pageshadow="2"
     inkscape:window-width="1366"
     inkscape:window-height="718"
     id="namedview9"
     showgrid="false"
     inkscape:zoom="14.75"
     inkscape:cx="8"
     inkscape:cy="8"
     inkscape:window-x="0"
     inkscape:window-y="25"
     inkscape:window-maximized="1"
     inkscape:current-layer="svg7" />
  <defs
     id="defs3">
    <style
       id="current-color-scheme"
       type="text/css">
   .ColorScheme-Text { color:#d3dae3; } .ColorScheme-Highlight { color:#5294e2; }
  </style>
  </defs>
  <path
     style="color:#d3dae3;fill:#f7f7f7;fill-opacity:1;stroke-width:1.42857146"
     class="ColorScheme-Text"
     d="M 21,10.999998 C 21.000001,5.4774993 16.522501,0.99999936 11,0.99999907 5.4775004,0.99999893 0.99999922,5.4774993 0.99999965,11 1.0000007,16.5225 5.4775005,21.000001 11.000002,21 16.522501,21 21.000001,16.5225 21,10.999998 Z M 18.142858,11 c 0,3.455718 -2.453851,6.338814 -5.714288,7.000558 l 3e-6,1.570868 -4.2857157,-2.857139 4.2857147,-2.857144 v 1.166294 c 1.661149,-0.590179 2.857143,-2.15985 2.857143,-4.023436 -0.0018,-1.0193015 -0.366827,-2.0045901 -1.029576,-2.7790187 L 15.732144,5.6623879 C 17.261732,7.0152108 18.139187,8.9580009 18.142858,11 Z m -4.285714,-5.7142864 -4.2857147,2.8571429 -8e-7,-1.1662943 C 7.9102788,7.5667394 6.7142864,9.1364123 6.7142851,11.000001 c 0.0018,1.019297 0.3668282,2.004589 1.0295758,2.779019 L 6.2678578,16.337611 C 4.7382685,14.984788 3.8608589,13.041998 3.8571431,11 3.8571419,7.5442808 6.3109948,4.6611858 9.571428,3.9994409 l 1.1e-6,-1.57087 z"
     id="path5"
     inkscape:connector-curvature="0" />
</svg>
