<?xml version="1.0" encoding="UTF-8" standalone="no"?>
<svg
   xmlns:dc="http://purl.org/dc/elements/1.1/"
   xmlns:cc="http://creativecommons.org/ns#"
   xmlns:rdf="http://www.w3.org/1999/02/22-rdf-syntax-ns#"
   xmlns:svg="http://www.w3.org/2000/svg"
   xmlns="http://www.w3.org/2000/svg"
   xmlns:sodipodi="http://sodipodi.sourceforge.net/DTD/sodipodi-0.dtd"
   xmlns:inkscape="http://www.inkscape.org/namespaces/inkscape"
   width="22"
   height="22"
   version="1.1"
   id="svg7"
   sodipodi:docname="btsync-gui-2.svg"
   inkscape:version="0.92.3 (2405546, 2018-03-11)">
  <metadata
     id="metadata11">
    <rdf:RDF>
      <cc:Work
         rdf:about="">
        <dc:format>image/svg+xml</dc:format>
        <dc:type
           rdf:resource="http://purl.org/dc/dcmitype/StillImage" />
        <dc:title></dc:title>
      </cc:Work>
    </rdf:RDF>
  </metadata>
  <sodipodi:namedview
     pagecolor="#ffffff"
     bordercolor="#666666"
     borderopacity="1"
     objecttolerance="10"
     gridtolerance="10"
     guidetolerance="10"
     inkscape:pageopacity="0"
     inkscape:pageshadow="2"
     inkscape:window-width="1366"
     inkscape:window-height="718"
     id="namedview9"
     showgrid="false"
     inkscape:zoom="14.75"
     inkscape:cx="8"
     inkscape:cy="8"
     inkscape:window-x="0"
     inkscape:window-y="25"
     inkscape:window-maximized="1"
     inkscape:current-layer="svg7" />
  <defs
     id="defs3">
    <style
       id="current-color-scheme"
       type="text/css">
   .ColorScheme-Text { color:#d3dae3; } .ColorScheme-Highlight { color:#5294e2; }
  </style>
  </defs>
  <path
     style="color:#d3dae3;fill:#f7f7f7;stroke-width:1.42857146;fill-opacity:1"
     class="ColorScheme-Text"
     d="M 11,0.99999986 C 5.4775,0.99999971 1.0000001,5.4774999 1.0000001,11 0.99999996,16.5225 5.4774998,21 11,21 16.5225,21 21.000002,16.5225 21,11 21,5.4774999 16.5225,0.99999986 11,0.99999986 Z m 0,2.85714284 c 3.455719,-10e-8 6.338814,2.4538515 7.000559,5.7142858 h 1.57087 L 16.714287,13.857143 13.857143,9.5714285 h 1.166294 C 14.43326,7.9102785 12.863587,6.7142856 11,6.7142856 9.9807,6.7160813 8.9954112,7.0811128 8.2209823,7.7438613 L 5.6623886,6.267857 C 7.0152116,4.7382683 8.9580016,3.8608137 11,3.8571427 Z M 5.2857143,8.1428571 8.1428573,12.428571 H 6.9765624 C 7.5667399,14.089721 9.1364133,15.285714 11,15.285714 c 1.019299,-0.0019 2.004589,-0.366827 2.779019,-1.029575 l 2.558592,1.476004 c -1.352822,1.529588 -3.295612,2.407 -5.337611,2.410714 -3.4557189,2e-6 -6.3388134,-2.453851 -7.0005583,-5.714284 l -1.57087,-2e-6 z"
     id="path5"
     inkscape:connector-curvature="0" />
</svg>
