<?xml version="1.0" encoding="UTF-8" standalone="no"?>
<!-- Created with Inkscape (http://www.inkscape.org/) -->

<svg
   xmlns:dc="http://purl.org/dc/elements/1.1/"
   xmlns:cc="http://creativecommons.org/ns#"
   xmlns:rdf="http://www.w3.org/1999/02/22-rdf-syntax-ns#"
   xmlns:svg="http://www.w3.org/2000/svg"
   xmlns="http://www.w3.org/2000/svg"
   xmlns:sodipodi="http://sodipodi.sourceforge.net/DTD/sodipodi-0.dtd"
   xmlns:inkscape="http://www.inkscape.org/namespaces/inkscape"
   width="500"
   height="500"
   id="svg2"
   version="1.1"
   inkscape:version="0.91 r13725"
   sodipodi:docname="android-package-archive.svg">
  <defs
     id="defs4" />
  <sodipodi:namedview
     id="base"
     pagecolor="#ffffff"
     bordercolor="#666666"
     borderopacity="1.0"
     inkscape:pageopacity="0.0"
     inkscape:pageshadow="2"
     inkscape:zoom="0.60666664"
     inkscape:cx="224.85764"
     inkscape:cy="203.79118"
     inkscape:document-units="px"
     inkscape:current-layer="layer1"
     showgrid="false"
     inkscape:window-width="1366"
     inkscape:window-height="715"
     inkscape:window-x="0"
     inkscape:window-y="24"
     inkscape:window-maximized="1" />
  <metadata
     id="metadata7">
    <rdf:RDF>
      <cc:Work
         rdf:about="">
        <dc:format>image/svg+xml</dc:format>
        <dc:type
           rdf:resource="http://purl.org/dc/dcmitype/StillImage" />
        <dc:title />
      </cc:Work>
    </rdf:RDF>
  </metadata>
  <g
     inkscape:label="Layer 1"
     inkscape:groupmode="layer"
     id="layer1"
     transform="translate(0,-552.36218)">
    <g
       id="g4148">
      <path
         inkscape:connector-curvature="0"
         id="path3364"
         d="m 97.040974,1029.8357 336.888376,-1.1739 1.17377,-363.88639 -88.03697,-89.21086 -250.025176,0 z"
         style="fill:#f2f2f2;fill-rule:evenodd;stroke:#afafaf;stroke-width:5.03546047;stroke-linecap:butt;stroke-linejoin:miter;stroke-miterlimit:4;stroke-dasharray:none;stroke-opacity:1" />
      <path
         inkscape:connector-curvature="0"
         id="rect4228"
         d="m 97.041016,907.86724 0,121.96756 336.888674,-1.0485 0.4375,-120.91906 -337.326174,0 z"
         style="fill:#45d03f;fill-opacity:1;stroke:none;stroke-width:5;stroke-miterlimit:4;stroke-dasharray:none;stroke-opacity:1" />
      <path
         inkscape:connector-curvature="0"
         id="path4180"
         d="m 233.09582,879.2847 c -2.82114,-0.43239 -4.7774,-1.17617 -6.94509,-2.64087 -1.16356,-0.7861 -3.17236,-2.77186 -4.04009,-3.99376 -1.18252,-1.66501 -2.25634,-3.99269 -2.79054,-6.04858 -0.61373,-2.36215 -0.59527,-1.63962 -0.59527,-23.31117 l 0,-19.91903 -9.42931,-0.0342 -9.4293,-0.0351 -0.80135,-0.24171 c -2.13441,-0.64386 -4.28804,-2.05049 -6.21004,-4.05633 -2.15175,-2.24557 -3.53711,-4.72413 -4.00412,-7.16389 -0.12768,-0.66717 -0.15007,-9.22869 -0.15007,-57.40392 l 0,-56.61982 74.79402,0 74.79401,0 -0.0274,56.97648 -0.0274,56.9765 -0.2964,0.96164 c -1.41759,4.59918 -5.69261,9.00499 -10.02158,10.32826 l -0.79417,0.2427 -9.37587,0.0351 -9.37587,0.0342 -9e-4,19.73574 c -9e-4,12.82745 -0.0393,20.07236 -0.11082,20.6974 -0.35364,3.09315 -1.39138,5.93217 -3.10464,8.49346 -0.82259,1.22983 -2.60765,3.09955 -3.83356,4.01537 -1.7286,1.2914 -4.12498,2.35774 -6.2698,2.78995 -1.31431,0.26485 -4.2206,0.26368 -5.48549,0 -3.52356,-0.74072 -6.57119,-2.5423 -8.84627,-5.22917 -2.43596,-2.87692 -3.90324,-6.36879 -4.29115,-10.21221 -0.0733,-0.72578 -0.11168,-7.85024 -0.11168,-20.70172 l 0,-19.5953 -12.82171,0 -12.82171,0 -0.003,19.52643 c -0.002,11.74542 -0.0439,19.95218 -0.10611,20.59486 -0.62132,6.42407 -4.27941,11.94284 -9.56085,14.42401 -2.02653,0.95201 -3.63064,1.32652 -5.93004,1.38431 -0.91088,0.0225 -1.80038,0.0198 -1.97668,-0.009 z m -70.57283,-81.78333 c -3.36051,-0.41006 -6.36725,-1.83974 -8.84014,-4.20334 -3.0984,-2.96162 -4.98082,-6.85285 -5.4703,-11.30799 -0.15963,-1.4529 -0.15963,-69.44881 0,-70.90177 0.48557,-4.41954 2.36684,-8.32752 5.41916,-11.25721 2.24512,-2.15492 5.00389,-3.58514 7.92965,-4.11093 1.36149,-0.24469 3.78633,-0.24249 5.07138,0.005 6.26251,1.20407 11.1797,6.06914 12.86473,12.72835 0.57819,2.28505 0.54868,0.22789 0.54657,38.09982 -0.002,37.66155 0.0235,35.8472 -0.53703,38.04263 -1.11822,4.3797 -3.65458,8.09204 -7.10062,10.39307 -2.39872,1.60172 -4.97727,2.44786 -7.79988,2.55976 -0.70519,0.0279 -1.64278,0.009 -2.08352,-0.0468 z m 198.87171,0.009 c -1.87429,-0.21489 -3.50843,-0.71813 -5.26993,-1.6227 -4.59858,-2.36161 -7.7746,-6.82638 -8.93752,-12.56401 -0.17912,-0.88377 -0.19146,-2.91716 -0.2203,-36.30276 -0.0331,-38.32204 -0.0607,-36.26344 0.51571,-38.5378 0.90579,-3.57428 2.8286,-6.80002 5.42203,-9.09614 2.10776,-1.8661 4.67499,-3.1277 7.4505,-3.66134 1.28505,-0.24707 3.7099,-0.24926 5.07138,-0.005 7.04808,1.26662 12.48756,7.52896 13.34882,15.36814 0.15962,1.45297 0.15962,69.44888 0,70.90178 -0.76773,6.98789 -5.17175,12.79088 -11.24912,14.82255 -1.87506,0.62684 -4.31932,0.90457 -6.13157,0.69679 z M 189.34199,687.85313 c 0,-1.59794 0.1332,-3.61606 0.37819,-5.74306 1.30993,-11.37231 5.82774,-22.26298 13.13217,-31.65652 3.21988,-4.14078 7.32928,-8.29144 11.59857,-11.715 3.72715,-2.98884 8.44739,-6.04364 12.4006,-8.02533 0.70173,-0.35176 1.27589,-0.68388 1.27589,-0.73804 0,-0.0542 -2.8726,-5.09032 -6.38355,-11.19146 -5.93963,-10.32157 -6.3836,-11.1277 -6.38415,-11.59191 0,-0.38523 0.0603,-0.56408 0.26653,-0.7848 0.34831,-0.37278 0.76845,-0.58612 1.15423,-0.58612 0.75845,0 0.66343,-0.14774 7.52607,11.70199 4.85962,8.39111 6.54268,11.21287 6.68107,11.20116 0.10173,-0.009 1.07446,-0.38429 2.16164,-0.83484 14.09484,-5.84125 30.65775,-7.41582 46.06548,-4.37927 5.01011,0.98738 10.12845,2.521 14.63339,4.38463 1.08198,0.4476 2.05048,0.82087 2.15221,0.82948 0.13838,0.0117 1.82144,-2.81005 6.68107,-11.20116 6.86929,-11.86124 6.76681,-11.70199 7.53134,-11.70199 0.46218,0 1.03777,0.30984 1.27428,0.68596 0.4348,0.69147 0.57109,0.42369 -6.25453,12.2882 -3.50459,6.09178 -6.37197,11.12152 -6.37197,11.1772 0,0.0557 0.54092,0.37227 1.20205,0.70351 9.04145,4.53003 17.83269,11.75268 24.07302,19.77779 7.3022,9.39067 11.82264,20.28768 13.13217,31.65652 0.245,2.127 0.37789,4.14512 0.37819,5.74306 l 0,1.41573 -74.15223,0 -74.15225,0 0,-1.41573 z m 40.24517,-23.21027 c 1.07535,-0.20275 2.56386,-0.93399 3.37011,-1.65556 2.93816,-2.6296 3.05975,-7.27673 0.26363,-10.07577 -1.35881,-1.36023 -2.7721,-1.99671 -4.6271,-2.08385 -2.13585,-0.10034 -3.84845,0.55803 -5.33297,2.05016 -1.39756,1.40472 -2.08026,3.03778 -2.07693,4.96821 0.004,1.95861 0.61378,3.41166 2.02472,4.81968 1.78038,1.77669 3.92155,2.44039 6.37854,1.97713 z m 71.25004,-0.16763 c 1.22994,-0.37755 1.95255,-0.82198 2.94212,-1.8095 1.41093,-1.40802 2.02135,-2.86107 2.02472,-4.81968 0.003,-1.92502 -0.67793,-3.55226 -2.08037,-4.96927 -0.66273,-0.6696 -1.05479,-0.96371 -1.73391,-1.30072 -2.21508,-1.09918 -4.75892,-1.02176 -6.84861,0.20844 -0.93504,0.55046 -2.04085,1.72577 -2.55361,2.71408 -0.66975,1.29093 -0.82523,1.9271 -0.8205,3.35708 0.004,1.04146 0.0482,1.36253 0.29338,2.10645 0.35405,1.07417 1.14189,2.28384 1.97024,3.02519 0.75565,0.67629 2.28914,1.44938 3.28057,1.65382 0.9994,0.20611 2.55217,0.13305 3.52597,-0.16589 z"
         style="fill:#45d03f;fill-opacity:1" />
      <g
         id="flowRoot4192"
         style="font-style:normal;font-weight:normal;font-size:40px;line-height:125%;font-family:sans-serif;letter-spacing:0px;word-spacing:0px;fill:#ffffff;fill-opacity:1;stroke:none;stroke-width:1px;stroke-linecap:butt;stroke-linejoin:miter;stroke-opacity:1"
         transform="matrix(2.9079468,0,0,2.9079468,-163.51894,422.19963)">
        <path
           id="path4201"
           style="font-style:normal;font-variant:normal;font-weight:bold;font-stretch:normal;font-size:37.73755646px;font-family:sans-serif;-inkscape-font-specification:'sans-serif Bold';fill:#ffffff"
           d="m 125.65278,197.98762 -11.09278,0 -1.75052,5.01202 -7.13107,0 10.18987,-27.51082 8.45779,0 10.18987,27.51082 -7.13107,0 -1.73209,-5.01202 z m -9.32383,-5.10415 7.53645,0 -3.75901,-10.94536 -3.77744,10.94536 z"
           inkscape:connector-curvature="0" />
        <path
           id="path4203"
           style="font-style:normal;font-variant:normal;font-weight:bold;font-stretch:normal;font-size:37.73755646px;font-family:sans-serif;-inkscape-font-specification:'sans-serif Bold';fill:#ffffff"
           d="m 138.14597,175.48882 11.77456,0 q 5.25157,0 8.0524,2.34017 2.81926,2.32174 2.81926,6.63355 0,4.33024 -2.81926,6.67041 -2.80083,2.32175 -8.0524,2.32175 l -4.68034,0 0,9.54494 -7.09422,0 0,-27.51082 z m 7.09422,5.141 0,7.68387 3.92485,0 q 2.06378,0 3.18779,-0.99503 1.12402,-1.01346 1.12402,-2.85612 0,-1.84265 -1.12402,-2.83768 -1.12401,-0.99504 -3.18779,-0.99504 l -3.92485,0 z"
           inkscape:connector-curvature="0" />
        <path
           id="path4205"
           style="font-style:normal;font-variant:normal;font-weight:bold;font-stretch:normal;font-size:37.73755646px;font-family:sans-serif;-inkscape-font-specification:'sans-serif Bold';fill:#ffffff"
           d="m 165.78578,175.48882 7.09422,0 0,10.04246 10.22673,-10.04246 8.23667,0 -13.24869,13.02756 14.61225,14.48326 -8.88159,0 -10.94537,-10.8348 0,10.8348 -7.09422,0 0,-27.51082 z"
           inkscape:connector-curvature="0" />
      </g>
    </g>
  </g>
</svg>
