<?xml version="1.0" encoding="UTF-8" standalone="no"?>
<!-- Created with Inkscape (http://www.inkscape.org/) -->

<svg
   xmlns:dc="http://purl.org/dc/elements/1.1/"
   xmlns:cc="http://creativecommons.org/ns#"
   xmlns:rdf="http://www.w3.org/1999/02/22-rdf-syntax-ns#"
   xmlns:svg="http://www.w3.org/2000/svg"
   xmlns="http://www.w3.org/2000/svg"
   xmlns:sodipodi="http://sodipodi.sourceforge.net/DTD/sodipodi-0.dtd"
   xmlns:inkscape="http://www.inkscape.org/namespaces/inkscape"
   width="500"
   height="500"
   id="svg2"
   version="1.1"
   inkscape:version="0.91 r13725"
   sodipodi:docname="application-x-gzpostscript.svg">
  <defs
     id="defs4" />
  <sodipodi:namedview
     id="base"
     pagecolor="#ffffff"
     bordercolor="#666666"
     borderopacity="1.0"
     inkscape:pageopacity="0.0"
     inkscape:pageshadow="2"
     inkscape:zoom="0.30333332"
     inkscape:cx="264.69116"
     inkscape:cy="267.93829"
     inkscape:document-units="px"
     inkscape:current-layer="layer1"
     showgrid="false"
     inkscape:window-width="1366"
     inkscape:window-height="715"
     inkscape:window-x="0"
     inkscape:window-y="24"
     inkscape:window-maximized="1" />
  <metadata
     id="metadata7">
    <rdf:RDF>
      <cc:Work
         rdf:about="">
        <dc:format>image/svg+xml</dc:format>
        <dc:type
           rdf:resource="http://purl.org/dc/dcmitype/StillImage" />
        <dc:title />
      </cc:Work>
    </rdf:RDF>
  </metadata>
  <g
     inkscape:label="Layer 1"
     inkscape:groupmode="layer"
     id="layer1"
     transform="translate(0,-552.36218)">
    <g
       id="g4177">
      <path
         inkscape:connector-curvature="0"
         id="path3364"
         d="m 97.040974,1029.8357 336.888376,-1.1739 1.17377,-363.88639 -88.03697,-89.21086 -250.025176,0 z"
         style="fill:#f2f2f2;fill-rule:evenodd;stroke:#afafaf;stroke-width:5.03546047;stroke-linecap:butt;stroke-linejoin:miter;stroke-miterlimit:4;stroke-dasharray:none;stroke-opacity:1" />
      <path
         inkscape:connector-curvature="0"
         id="rect4228"
         d="m 97.041016,907.86724 0,121.96756 336.888674,-1.0485 0.4375,-120.91906 -337.326174,0 z"
         style="fill:#394050;fill-opacity:1;stroke:none;stroke-width:5;stroke-miterlimit:4;stroke-dasharray:none;stroke-opacity:1" />
      <g
         id="g4142"
         transform="matrix(0.53333333,0,0,0.53333333,131.14654,322.07614)">
        <path
           style="fill:#4f576d;fill-opacity:1;stroke:none"
           d="m 323.78153,666.84953 18.03389,6.21168 0,8.01507 -15.429,4.40827 0,24.8467 33.46288,-9.21731 -19.03577,9.81845 0.40075,18.63502 -14.42711,4.60866 0,23.64443 31.05838,-7.61429 -16.03013,9.4177 0,17.8335 -15.82975,5.41018 1.00189,22.44218 33.66327,-9.21732 -18.83541,10.82032 -0.40075,17.43277 -14.82786,4.40829 0.40075,22.2418 32.66138,-8.41582 -20.63879,13.02448 -0.60114,7.21356 52.09793,0 -0.60114,-24.44595 15.02825,-3.20602 -0.40075,-24.24557 -35.26629,7.81468 20.43843,-8.61618 0.20041,-17.2324 15.62938,-4.60866 0,-24.64632 -27.25122,7.81468 11.0207,-7.21354 0.20041,-18.03391 14.6275,-4.20791 0,-24.8467 -32.06027,7.8147 16.23052,-8.41581 0.8015,-20.23805 14.82786,-2.20413 0.8015,-24.44596 -29.45536,6.61243 15.22863,-11.82222 0,-7.61432 -65.32276,1.80341 z"
           id="path3941"
           inkscape:connector-curvature="0" />
        <path
           style="fill:#4f576d;fill-opacity:1;stroke:none"
           d="m 327.69161,916.28877 0.28338,51.00755 -14.73551,0 0,18.4194 -26.35392,0.56675 -0.28336,-16.1524 -34.85517,0.28338 -0.56676,56.95845 35.70529,0 0,-14.7355 26.63729,-0.2834 0,18.4194 105.13224,-0.2834 0.28337,-17.8526 27.77079,0 0,15.5856 34.00504,0 -0.28338,-58.94204 -33.72166,0.28336 0,17.28591 -28.05416,0 -1.13351,-20.11966 -12.18514,0.28338 0,-51.29093 z"
           id="path3943"
           inkscape:connector-curvature="0" />
        <path
           style="fill:#394050;stroke:none"
           d="m 91.935038,898.50154 -0.8015,14.02636 31.659502,29.65575 165.91182,1.60302 21.64068,-24.0452 113.41317,-1.20225 0,-66.52504 -111.00865,0 -44.08286,46.88813 z"
           id="path3921"
           inkscape:connector-curvature="0" />
        <path
           style="fill:#394050;stroke:none"
           d="m 92.038481,626.4715 -0.8015,-14.02636 31.659499,-29.65575 165.91182,-1.60302 21.64068,24.0452 113.41317,1.20225 0,66.52504 -111.00864,0 -44.08286,-46.88813 z"
           id="path3921-3"
           inkscape:connector-curvature="0" />
        <rect
           style="fill:#ffcc00;fill-opacity:1;stroke:none"
           id="rect3945"
           width="238.03526"
           height="272.60706"
           x="30.714285"
           y="626.11243" />
        <rect
           style="fill:#ffe270;fill-opacity:1;stroke:none"
           id="rect3945-6"
           width="199.56294"
           height="105.0922"
           x="48.470131"
           y="650.37122" />
        <rect
           style="fill:#ffe270;fill-opacity:1;stroke:none"
           id="rect3945-6-7"
           width="199.56294"
           height="105.0922"
           x="50.073128"
           y="772.60095" />
        <rect
           style="fill:#394050;fill-opacity:1;stroke:none"
           id="rect3945-6-7-5"
           width="80.138489"
           height="25.743069"
           x="110.98764"
           y="691.6488" />
        <rect
           style="fill:#394050;fill-opacity:1;stroke:none"
           id="rect3945-6-7-5-3"
           width="80.138489"
           height="25.743069"
           x="110.58685"
           y="810.67249" />
      </g>
      <g
         id="flowRoot4146"
         style="font-style:normal;font-weight:normal;font-size:92.47883606px;line-height:125%;font-family:sans-serif;letter-spacing:0px;word-spacing:0px;fill:#000000;fill-opacity:1;stroke:none;stroke-width:1px;stroke-linecap:butt;stroke-linejoin:miter;stroke-opacity:1"
         transform="matrix(0.96667263,0,0,0.96667263,13.186973,31.392315)">
        <path
           id="path4155"
           style="font-style:normal;font-variant:normal;font-weight:bold;font-stretch:normal;font-family:sans-serif;-inkscape-font-specification:'sans-serif Bold';fill:#ffffff"
           d="m 110.90333,933.22171 28.85448,0 q 12.86937,0 19.73303,5.73477 6.90882,5.68961 6.90882,16.25604 0,10.61159 -6.90882,16.34636 -6.86366,5.68962 -19.73303,5.68962 l -11.46954,0 0,23.3906 -17.38494,0 0,-67.41739 z m 17.38494,12.59843 0,18.82992 9.61816,0 q 5.05743,0 7.81193,-2.43841 2.7545,-2.48356 2.7545,-6.99913 0,-4.51556 -2.7545,-6.95397 -2.7545,-2.43841 -7.81193,-2.43841 l -9.61816,0 z" />
        <path
           id="path4157"
           style="font-style:normal;font-variant:normal;font-weight:bold;font-stretch:normal;font-family:sans-serif;-inkscape-font-specification:'sans-serif Bold';fill:#ffffff"
           d="m 225.5536,935.34402 0,14.2692 q -5.55414,-2.48356 -10.83736,-3.74792 -5.28321,-1.26436 -9.9794,-1.26436 -6.23149,0 -9.21176,1.71591 -2.98028,1.71592 -2.98028,5.32838 0,2.70934 1.98685,4.24463 2.03201,1.49014 7.31522,2.57387 l 7.40553,1.49014 q 11.24377,2.25778 15.98511,6.86366 4.74135,4.60588 4.74135,13.09515 0,11.15346 -6.63788,16.61729 -6.59273,5.41873 -20.18459,5.41873 -6.41211,0 -12.86937,-1.2192 -6.45727,-1.21925 -12.91453,-3.6125 l 0,-14.6756 q 6.45726,3.43183 12.46297,5.1929 6.05086,1.71592 11.65017,1.71592 5.68961,0 8.71504,-1.89654 3.02543,-1.89654 3.02543,-5.41868 0,-3.1609 -2.07716,-4.87681 -2.032,-1.71592 -8.17318,-3.07059 l -6.72819,-1.49014 q -10.11488,-2.16747 -14.81107,-6.90882 -4.65103,-4.74134 -4.65103,-12.77906 0,-10.06971 6.50242,-15.48839 6.50241,-5.41869 18.69445,-5.41869 5.55415,0 11.42439,0.85796 5.87023,0.8128 12.14687,2.48356 z" />
        <path
           id="path4159"
           style="font-style:normal;font-variant:normal;font-weight:bold;font-stretch:normal;font-family:sans-serif;-inkscape-font-specification:'sans-serif Bold';fill:#ffffff"
           d="m 246.2349,983.16389 16.25605,0 0,17.47521 -16.25605,0 0,-17.47521 z" />
        <path
           id="path4161"
           style="font-style:normal;font-variant:normal;font-weight:bold;font-stretch:normal;font-family:sans-serif;-inkscape-font-specification:'sans-serif Bold';fill:#ffffff"
           d="m 341.10699,995.62686 q -6.50242,3.1609 -13.50155,4.74134 -6.99913,1.5805 -14.44982,1.5805 -16.84306,0 -26.687,-9.39243 -9.84394,-9.43753 -9.84394,-25.55811 0,-16.3012 10.02456,-25.64843 10.02456,-9.34723 27.45465,-9.34723 6.7282,0 12.86937,1.26436 6.18633,1.26436 11.65017,3.74792 l 0,13.95311 q -5.64446,-3.20605 -11.24377,-4.7865 -5.55414,-1.58045 -11.15345,-1.58045 -10.38581,0 -16.03027,5.82508 -5.5993,5.77993 -5.5993,16.57214 0,10.70189 5.41868,16.52698 5.41868,5.82508 15.39809,5.82508 2.70934,0 5.01228,-0.31609 2.3481,-0.36125 4.19948,-1.08374 l 0,-13.09514 -10.61159,0 0,-11.65017 27.09341,0 0,32.42178 z" />
        <path
           id="path4163"
           style="font-style:normal;font-variant:normal;font-weight:bold;font-stretch:normal;font-family:sans-serif;-inkscape-font-specification:'sans-serif Bold';fill:#ffffff"
           d="m 353.07324,933.22171 56.67038,0 0,10.52127 -36.1697,43.75586 37.20829,0 0,13.14026 -58.74755,0 0,-10.52123 36.1697,-43.75586 -35.13112,0 0,-13.1403 z" />
      </g>
    </g>
  </g>
</svg>
