<?xml version="1.0" encoding="UTF-8" standalone="no"?>
<!-- Created with Inkscape (http://www.inkscape.org/) -->

<svg
   xmlns:dc="http://purl.org/dc/elements/1.1/"
   xmlns:cc="http://creativecommons.org/ns#"
   xmlns:rdf="http://www.w3.org/1999/02/22-rdf-syntax-ns#"
   xmlns:svg="http://www.w3.org/2000/svg"
   xmlns="http://www.w3.org/2000/svg"
   xmlns:sodipodi="http://sodipodi.sourceforge.net/DTD/sodipodi-0.dtd"
   xmlns:inkscape="http://www.inkscape.org/namespaces/inkscape"
   width="500"
   height="500"
   id="svg2"
   version="1.1"
   inkscape:version="0.91 r13725"
   sodipodi:docname="application-rtf.svg">
  <defs
     id="defs4" />
  <sodipodi:namedview
     id="base"
     pagecolor="#ffffff"
     bordercolor="#666666"
     borderopacity="1.0"
     inkscape:pageopacity="0.0"
     inkscape:pageshadow="2"
     inkscape:zoom="0.60666665"
     inkscape:cx="410.53776"
     inkscape:cy="304.24108"
     inkscape:document-units="px"
     inkscape:current-layer="layer1"
     showgrid="false"
     inkscape:window-width="1366"
     inkscape:window-height="715"
     inkscape:window-x="0"
     inkscape:window-y="24"
     inkscape:window-maximized="1" />
  <metadata
     id="metadata7">
    <rdf:RDF>
      <cc:Work
         rdf:about="">
        <dc:format>image/svg+xml</dc:format>
        <dc:type
           rdf:resource="http://purl.org/dc/dcmitype/StillImage" />
        <dc:title />
      </cc:Work>
    </rdf:RDF>
  </metadata>
  <g
     inkscape:label="Layer 1"
     inkscape:groupmode="layer"
     id="layer1"
     transform="translate(0,-552.36218)">
    <g
       id="g3369">
      <path
         inkscape:connector-curvature="0"
         id="path3364"
         d="m 97.040974,1029.8357 336.888376,-1.1739 1.17377,-363.88639 -88.03697,-89.21086 -250.025176,0 z"
         style="fill:#f2f2f2;fill-rule:evenodd;stroke:#afafaf;stroke-width:5.03546047;stroke-linecap:butt;stroke-linejoin:miter;stroke-miterlimit:4;stroke-dasharray:none;stroke-opacity:1" />
      <path
         inkscape:connector-curvature="0"
         id="rect4228"
         d="m 97.041016,907.86724 0,121.96756 336.888674,-1.0485 0.4375,-120.91906 -337.326174,0 z"
         style="fill:#394050;fill-opacity:1;stroke:none;stroke-width:5;stroke-miterlimit:4;stroke-dasharray:none;stroke-opacity:1" />
      <rect
         transform="scale(1,-1)"
         y="-775.77173"
         x="126.6499"
         height="11.27785"
         width="276.15112"
         id="rect2990-3"
         style="fill:#394050;fill-opacity:1;stroke:none" />
      <rect
         transform="scale(1,-1)"
         y="-726.93652"
         x="127.73244"
         height="11.27785"
         width="276.56522"
         id="rect2990-3-7"
         style="fill:#394050;fill-opacity:1;stroke:none" />
      <rect
         transform="scale(1,-1)"
         y="-676.57263"
         x="127.73244"
         height="11.27785"
         width="189.36089"
         id="rect2990-3-35"
         style="fill:#394050;fill-opacity:1;stroke:none" />
      <rect
         transform="scale(1,-1)"
         y="-872.95764"
         x="124.82326"
         height="11.27785"
         width="276.15112"
         id="rect2990-3-2"
         style="fill:#394050;fill-opacity:1;stroke:none" />
      <rect
         transform="scale(1,-1)"
         y="-824.1225"
         x="125.90581"
         height="11.27785"
         width="276.56522"
         id="rect2990-3-7-2"
         style="fill:#394050;fill-opacity:1;stroke:none" />
      <g
         id="flowRoot3354"
         style="font-style:normal;font-weight:normal;font-size:40px;line-height:125%;font-family:sans-serif;letter-spacing:0px;word-spacing:0px;fill:#ffffff;fill-opacity:1;stroke:none;stroke-width:1px;stroke-linecap:butt;stroke-linejoin:miter;stroke-opacity:1"
         transform="matrix(2.7434692,0,0,2.7434692,1225.9801,-59.430022)">
        <path
           inkscape:connector-curvature="0"
           id="path3363"
           style="font-style:normal;font-variant:normal;font-weight:bold;font-stretch:normal;font-family:sans-serif;-inkscape-font-specification:'sans-serif Bold';fill:#ffffff"
           d="m -381.24805,373.6395 q 2.36328,0 3.37891,-0.87891 1.03516,-0.8789 1.03516,-2.89062 0,-1.99219 -1.03516,-2.85157 -1.01563,-0.85937 -3.37891,-0.85937 l -3.16406,0 0,7.48047 3.16406,0 z m -3.16406,5.19531 0,11.03516 -7.51953,0 0,-29.16016 11.48437,0 q 5.76172,0 8.4375,1.93359 2.69532,1.9336 2.69532,6.11329 0,2.89062 -1.40625,4.74609 -1.38672,1.85547 -4.19922,2.73437 1.54297,0.35157 2.7539,1.60157 1.23047,1.23047 2.48047,3.75 l 4.08203,8.28125 -8.00781,0 -3.55469,-7.2461 q -1.07421,-2.1875 -2.1875,-2.98828 -1.09375,-0.80078 -2.92968,-0.80078 l -2.12891,0 z" />
        <path
           inkscape:connector-curvature="0"
           id="path3365"
           style="font-style:normal;font-variant:normal;font-weight:bold;font-stretch:normal;font-family:sans-serif;-inkscape-font-specification:'sans-serif Bold';fill:#ffffff"
           d="m -366.42383,360.70981 26.875,0 0,5.68359 -9.66797,0 0,23.47657 -7.51953,0 0,-23.47657 -9.6875,0 0,-5.68359 z" />
        <path
           inkscape:connector-curvature="0"
           id="path3367"
           style="font-style:normal;font-variant:normal;font-weight:bold;font-stretch:normal;font-family:sans-serif;-inkscape-font-specification:'sans-serif Bold';fill:#ffffff"
           d="m -339.1582,360.70981 7.55859,0 7.73438,21.52344 7.71484,-21.52344 7.55859,0 -10.80078,29.16016 -8.96484,0 -10.80078,-29.16016 z" />
      </g>
    </g>
  </g>
</svg>
