<?xml version="1.0" encoding="UTF-8" standalone="no"?>
<!-- Created with Inkscape (http://www.inkscape.org/) -->

<svg
   xmlns:dc="http://purl.org/dc/elements/1.1/"
   xmlns:cc="http://creativecommons.org/ns#"
   xmlns:rdf="http://www.w3.org/1999/02/22-rdf-syntax-ns#"
   xmlns:svg="http://www.w3.org/2000/svg"
   xmlns="http://www.w3.org/2000/svg"
   xmlns:sodipodi="http://sodipodi.sourceforge.net/DTD/sodipodi-0.dtd"
   xmlns:inkscape="http://www.inkscape.org/namespaces/inkscape"
   width="500"
   height="500"
   id="svg2"
   version="1.1"
   inkscape:version="0.91 r13725"
   sodipodi:docname="application-xsd.svg">
  <defs
     id="defs4" />
  <sodipodi:namedview
     id="base"
     pagecolor="#ffffff"
     bordercolor="#666666"
     borderopacity="1.0"
     inkscape:pageopacity="0.0"
     inkscape:pageshadow="2"
     inkscape:zoom="0.30333332"
     inkscape:cx="265.61877"
     inkscape:cy="58.523174"
     inkscape:document-units="px"
     inkscape:current-layer="layer1"
     showgrid="false"
     inkscape:window-width="1366"
     inkscape:window-height="715"
     inkscape:window-x="0"
     inkscape:window-y="24"
     inkscape:window-maximized="1" />
  <metadata
     id="metadata7">
    <rdf:RDF>
      <cc:Work
         rdf:about="">
        <dc:format>image/svg+xml</dc:format>
        <dc:type
           rdf:resource="http://purl.org/dc/dcmitype/StillImage" />
        <dc:title />
      </cc:Work>
    </rdf:RDF>
  </metadata>
  <g
     inkscape:label="Layer 1"
     inkscape:groupmode="layer"
     id="layer1"
     transform="translate(0,-552.36218)">
    <g
       id="g3369">
      <path
         inkscape:connector-curvature="0"
         id="path3364"
         d="m 97.040974,1029.8357 336.888376,-1.1739 1.17377,-363.88639 -88.03697,-89.21086 -250.025176,0 z"
         style="fill:#f2f2f2;fill-rule:evenodd;stroke:#afafaf;stroke-width:5.03546047;stroke-linecap:butt;stroke-linejoin:miter;stroke-miterlimit:4;stroke-dasharray:none;stroke-opacity:1" />
      <path
         inkscape:connector-curvature="0"
         id="rect4228"
         d="m 97.041016,907.86724 0,121.96756 336.888674,-1.0485 0.4375,-120.91906 -337.326174,0 z"
         style="fill:#ff6600;fill-opacity:1;stroke:none;stroke-width:5;stroke-miterlimit:4;stroke-dasharray:none;stroke-opacity:1" />
      <g
         transform="matrix(1.1614293,0,0,1.1614293,-36.416163,-299.88614)"
         id="g4173">
        <path
           style="color:#000000;font-style:normal;font-variant:normal;font-weight:normal;font-stretch:normal;font-size:medium;line-height:normal;font-family:sans-serif;text-indent:0;text-align:start;text-decoration:none;text-decoration-line:none;text-decoration-style:solid;text-decoration-color:#000000;letter-spacing:normal;word-spacing:normal;text-transform:none;direction:ltr;block-progression:tb;writing-mode:lr-tb;baseline-shift:baseline;text-anchor:start;white-space:normal;clip-rule:nonzero;display:inline;overflow:visible;visibility:visible;opacity:1;isolation:auto;mix-blend-mode:normal;color-interpolation:sRGB;color-interpolation-filters:linearRGB;solid-color:#000000;solid-opacity:1;fill:#ff6600;fill-opacity:1;fill-rule:nonzero;stroke:none;stroke-width:22.55397034;stroke-linecap:butt;stroke-linejoin:miter;stroke-miterlimit:4;stroke-dasharray:none;stroke-dashoffset:0;stroke-opacity:1;color-rendering:auto;image-rendering:auto;shape-rendering:auto;text-rendering:auto;enable-background:accumulate"
           d="m 274.98633,802.74414 -60.10352,223.67966 21.78125,-0.1465 60.10352,-223.6816 z"
           id="path2985"
           inkscape:connector-curvature="0"
           sodipodi:nodetypes="ccccc" />
        <path
           style="fill:none;stroke:#ff6600;stroke-width:22.55397034;stroke-linecap:butt;stroke-linejoin:miter;stroke-miterlimit:4;stroke-dasharray:none;stroke-opacity:1"
           d="m 208.4249,970.0637 -57.62415,-58.24377 58.24377,-57.62415"
           id="path3755"
           inkscape:connector-curvature="0" />
        <path
           style="fill:none;stroke:#ff6600;stroke-width:22.55397034;stroke-linecap:butt;stroke-linejoin:miter;stroke-miterlimit:4;stroke-dasharray:none;stroke-opacity:1"
           d="M 311.28092,968.51466 368.90508,910.27089 310.6613,852.64674"
           id="path3755-3"
           inkscape:connector-curvature="0" />
      </g>
      <g
         id="flowRoot3354"
         style="font-style:normal;font-weight:normal;font-size:40px;line-height:125%;font-family:sans-serif;letter-spacing:0px;word-spacing:0px;fill:#ffffff;fill-opacity:1;stroke:none;stroke-width:1px;stroke-linecap:butt;stroke-linejoin:miter;stroke-opacity:1"
         transform="matrix(1.7628577,0,0,1.7628577,-91.12436,263.58376)">
        <path
           inkscape:connector-curvature="0"
           id="path3363"
           style="font-style:normal;font-variant:normal;font-weight:bold;font-stretch:normal;font-size:60px;font-family:sans-serif;-inkscape-font-specification:'sans-serif Bold';fill:#ffffff"
           d="m 163.92187,399.94362 15.17579,22.32422 -11.74805,0 -10.22461,-14.94141 -10.13672,14.94141 -11.80664,0 15.17578,-22.32422 -14.58984,-21.41601 11.77734,0 9.58008,14.09179 9.55078,-14.09179 11.83594,0 -14.58985,21.41601 z" />
        <path
           inkscape:connector-curvature="0"
           id="path3365"
           style="font-style:normal;font-variant:normal;font-weight:bold;font-stretch:normal;font-size:60px;font-family:sans-serif;-inkscape-font-specification:'sans-serif Bold';fill:#ffffff"
           d="m 216.27539,379.90456 0,9.25781 q -3.60352,-1.61133 -7.03125,-2.43164 -3.42773,-0.82031 -6.47461,-0.82031 -4.04297,0 -5.97656,1.11328 -1.9336,1.11328 -1.9336,3.45703 0,1.75781 1.28907,2.75391 1.31836,0.96679 4.74609,1.66992 l 4.80469,0.9668 q 7.29492,1.46484 10.37109,4.45312 3.07617,2.98828 3.07617,8.49609 0,7.23633 -4.30664,10.78125 -4.27734,3.51563 -13.0957,3.51563 -4.16016,0 -8.34961,-0.79102 -4.18945,-0.79101 -8.37891,-2.34375 l 0,-9.52148 q 4.18946,2.22656 8.08594,3.36914 3.92578,1.11328 7.5586,1.11328 3.6914,0 5.65429,-1.23047 1.96289,-1.23047 1.96289,-3.51562 0,-2.05078 -1.34765,-3.16406 -1.31836,-1.11329 -5.30274,-1.99219 l -4.36523,-0.9668 q -6.5625,-1.40625 -9.60938,-4.48242 -3.01757,-3.07617 -3.01757,-8.29102 0,-6.5332 4.21875,-10.04882 4.21875,-3.51563 12.1289,-3.51563 3.60352,0 7.41211,0.55664 3.80859,0.52734 7.88086,1.61133 z" />
        <path
           inkscape:connector-curvature="0"
           id="path3367"
           style="font-style:normal;font-variant:normal;font-weight:bold;font-stretch:normal;font-size:60px;font-family:sans-serif;-inkscape-font-specification:'sans-serif Bold';fill:#ffffff"
           d="m 240.35742,387.053 0,26.68945 4.04297,0 q 6.91406,0 10.54688,-3.42773 3.6621,-3.42774 3.6621,-9.96094 0,-6.50391 -3.63281,-9.90235 -3.63281,-3.39843 -10.57617,-3.39843 l -4.04297,0 z m -11.2793,-8.52539 11.89454,0 q 9.96093,0 14.82421,1.43554 4.89258,1.40625 8.37891,4.80469 3.07617,2.95898 4.57031,6.82617 1.49414,3.86719 1.49414,8.75977 0,4.95117 -1.49414,8.84765 -1.49414,3.86719 -4.57031,6.82618 -3.51562,3.39843 -8.4375,4.83398 -4.92187,1.40625 -14.76562,1.40625 l -11.89454,0 0,-43.74023 z" />
      </g>
    </g>
  </g>
</svg>
