<?xml version="1.0" encoding="UTF-8" standalone="no"?>
<!-- Created with Inkscape (http://www.inkscape.org/) -->

<svg
   xmlns:dc="http://purl.org/dc/elements/1.1/"
   xmlns:cc="http://creativecommons.org/ns#"
   xmlns:rdf="http://www.w3.org/1999/02/22-rdf-syntax-ns#"
   xmlns:svg="http://www.w3.org/2000/svg"
   xmlns="http://www.w3.org/2000/svg"
   xmlns:sodipodi="http://sodipodi.sourceforge.net/DTD/sodipodi-0.dtd"
   xmlns:inkscape="http://www.inkscape.org/namespaces/inkscape"
   width="500"
   height="500"
   id="svg2"
   version="1.1"
   inkscape:version="0.91 r13725"
   sodipodi:docname="zzzzz.svg">
  <defs
     id="defs4" />
  <sodipodi:namedview
     id="base"
     pagecolor="#ffffff"
     bordercolor="#666666"
     borderopacity="1.0"
     inkscape:pageopacity="0.0"
     inkscape:pageshadow="2"
     inkscape:zoom="0.4289781"
     inkscape:cx="23.950093"
     inkscape:cy="187.11809"
     inkscape:document-units="px"
     inkscape:current-layer="layer1"
     showgrid="false"
     inkscape:window-width="1366"
     inkscape:window-height="715"
     inkscape:window-x="0"
     inkscape:window-y="24"
     inkscape:window-maximized="1" />
  <metadata
     id="metadata7">
    <rdf:RDF>
      <cc:Work
         rdf:about="">
        <dc:format>image/svg+xml</dc:format>
        <dc:type
           rdf:resource="http://purl.org/dc/dcmitype/StillImage" />
        <dc:title />
      </cc:Work>
    </rdf:RDF>
  </metadata>
  <g
     inkscape:label="Layer 1"
     inkscape:groupmode="layer"
     id="layer1"
     transform="translate(0,-552.36218)">
    <g
       id="g3385">
      <path
         inkscape:connector-curvature="0"
         id="path3364"
         d="m 97.040974,1029.8357 336.888376,-1.1739 1.17377,-363.88639 -88.03697,-89.21086 -250.025176,0 z"
         style="fill:#f2f2f2;fill-rule:evenodd;stroke:#afafaf;stroke-width:5.03546047;stroke-linecap:butt;stroke-linejoin:miter;stroke-miterlimit:4;stroke-dasharray:none;stroke-opacity:1" />
      <path
         inkscape:connector-curvature="0"
         id="rect4228"
         d="m 97.041016,907.86724 0,121.96756 336.888674,-1.0485 0.4375,-120.91906 -337.326174,0 z"
         style="fill:#394050;fill-opacity:1;stroke:none;stroke-width:5;stroke-miterlimit:4;stroke-dasharray:none;stroke-opacity:1" />
      <g
         style="fill:#394050;fill-opacity:1"
         id="g4190"
         transform="matrix(0.80678544,0,0,0.80678544,-32.099731,66.317814)">
        <path
           style="fill:#394050;fill-opacity:1;fill-rule:evenodd;stroke:none"
           d="m 305.20897,716.29583 0,204.12903 c -8.66636,-8.07428 -19.96756,-13.29483 -31.84948,-13.29314 -24.99165,0 -47.69622,22.72874 -47.69622,47.70815 0,24.97834 22.70457,47.70853 47.69622,47.71043 24.99183,0 47.7586,-22.72835 47.7586,-47.71043 l 0,-168.81352 0,-68.92312 0,-0.80578 -0.0637,0 -15.84693,0 z"
           id="path4112"
           inkscape:connector-curvature="0"
           sodipodi:nodetypes="cccscscccccc" />
        <path
           style="fill:#394050;fill-opacity:1;fill-rule:evenodd;stroke:none"
           d="m 462.39582,698.02641 0,204.12903 c -8.66636,-8.07428 -19.96756,-13.29483 -31.84948,-13.29314 -24.99165,0 -47.69622,22.72874 -47.69622,47.70815 0,24.97834 22.70457,47.70853 47.69622,47.71043 24.99183,0 47.7586,-22.72835 47.7586,-47.71043 l 0,-168.81352 0,-68.92312 0,-0.80578 -0.0637,0 -15.84693,0 z"
           id="path4112-3"
           inkscape:connector-curvature="0"
           sodipodi:nodetypes="cccscscccccc" />
        <rect
           style="fill:#394050;fill-opacity:1;stroke:none;stroke-opacity:1"
           id="rect4188"
           width="171.4557"
           height="18.468454"
           x="219.51505"
           y="747.4649"
           transform="matrix(0.99307685,-0.11746649,0.11746649,0.99307685,0,0)"
           inkscape:transform-center-x="-79.159264"
           inkscape:transform-center-y="-9.4361839" />
      </g>
      <g
         id="flowRoot3370"
         style="font-style:normal;font-weight:normal;font-size:40px;line-height:125%;font-family:sans-serif;letter-spacing:0px;word-spacing:0px;fill:#000000;fill-opacity:1;stroke:none;stroke-width:1px;stroke-linecap:butt;stroke-linejoin:miter;stroke-opacity:1"
         transform="matrix(2.6442872,0,0,2.6442872,-196.42549,-63.95444)">
        <path
           inkscape:connector-curvature="0"
           id="path3379"
           style="font-style:normal;font-variant:normal;font-weight:bold;font-stretch:normal;font-family:sans-serif;-inkscape-font-specification:'sans-serif Bold';fill:#ffffff"
           d="m 140.54102,380.42661 q -3.4375,0 -5.33204,2.53906 -1.89453,2.53906 -1.89453,7.14844 0,4.58984 1.89453,7.1289 1.89454,2.53907 5.33204,2.53907 3.45703,0 5.35156,-2.53907 1.89453,-2.53906 1.89453,-7.1289 0,-4.60938 -1.89453,-7.14844 -1.89453,-2.53906 -5.35156,-2.53906 z m 0,-5.44922 q 7.03125,0 11.01562,4.02344 3.98438,4.02343 3.98438,11.11328 0,7.07031 -3.98438,11.09375 -3.98437,4.02343 -11.01562,4.02343 -7.01172,0 -11.01563,-4.02343 -3.98437,-4.02344 -3.98437,-11.09375 0,-7.08985 3.98437,-11.11328 4.00391,-4.02344 11.01563,-4.02344 z" />
        <path
           inkscape:connector-curvature="0"
           id="path3381"
           style="font-style:normal;font-variant:normal;font-weight:bold;font-stretch:normal;font-family:sans-serif;-inkscape-font-specification:'sans-serif Bold';fill:#ffffff"
           d="m 187.41602,402.49692 q -2.8125,1.36719 -5.83985,2.05078 -3.02734,0.68359 -6.25,0.68359 -7.28515,0 -11.54297,-4.0625 -4.25781,-4.08203 -4.25781,-11.05468 0,-7.05078 4.33594,-11.09375 4.33594,-4.04297 11.875,-4.04297 2.91015,0 5.5664,0.54687 2.67579,0.54688 5.03907,1.6211 l 0,6.03515 q -2.44141,-1.38672 -4.86328,-2.07031 -2.40235,-0.68359 -4.82422,-0.68359 -4.49219,0 -6.9336,2.51953 -2.42187,2.5 -2.42187,7.16797 0,4.6289 2.34375,7.14843 2.34375,2.51954 6.66015,2.51954 1.17188,0 2.16797,-0.13672 1.01563,-0.15625 1.81641,-0.46875 l 0,-5.66407 -4.58984,0 0,-5.03906 11.71875,0 0,14.02344 z" />
        <path
           inkscape:connector-curvature="0"
           id="path3383"
           style="font-style:normal;font-variant:normal;font-weight:bold;font-stretch:normal;font-family:sans-serif;-inkscape-font-specification:'sans-serif Bold';fill:#ffffff"
           d="m 210.26758,389.78208 10.11719,14.88281 -7.83204,0 -6.8164,-9.96094 -6.75781,9.96094 -7.8711,0 10.11719,-14.88281 -9.72656,-14.27735 7.85156,0 6.38672,9.39453 6.36719,-9.39453 7.89062,0 -9.72656,14.27735 z" />
      </g>
    </g>
  </g>
</svg>
