<?xml version="1.0" encoding="UTF-8" standalone="no"?>
<!-- Created with Inkscape (http://www.inkscape.org/) -->

<svg
   xmlns:dc="http://purl.org/dc/elements/1.1/"
   xmlns:cc="http://creativecommons.org/ns#"
   xmlns:rdf="http://www.w3.org/1999/02/22-rdf-syntax-ns#"
   xmlns:svg="http://www.w3.org/2000/svg"
   xmlns="http://www.w3.org/2000/svg"
   xmlns:sodipodi="http://sodipodi.sourceforge.net/DTD/sodipodi-0.dtd"
   xmlns:inkscape="http://www.inkscape.org/namespaces/inkscape"
   width="500"
   height="500"
   id="svg2"
   version="1.1"
   inkscape:version="0.91 r13725"
   sodipodi:docname="application-vnd.hzn-3d-crossword.svg">
  <defs
     id="defs4" />
  <sodipodi:namedview
     id="base"
     pagecolor="#ffffff"
     bordercolor="#666666"
     borderopacity="1.0"
     inkscape:pageopacity="0.0"
     inkscape:pageshadow="2"
     inkscape:zoom="0.8579562"
     inkscape:cx="275.82247"
     inkscape:cy="224.27945"
     inkscape:document-units="px"
     inkscape:current-layer="layer1"
     showgrid="false"
     inkscape:window-width="1366"
     inkscape:window-height="715"
     inkscape:window-x="0"
     inkscape:window-y="24"
     inkscape:window-maximized="1" />
  <metadata
     id="metadata7">
    <rdf:RDF>
      <cc:Work
         rdf:about="">
        <dc:format>image/svg+xml</dc:format>
        <dc:type
           rdf:resource="http://purl.org/dc/dcmitype/StillImage" />
        <dc:title />
      </cc:Work>
    </rdf:RDF>
  </metadata>
  <g
     inkscape:label="Layer 1"
     inkscape:groupmode="layer"
     id="layer1"
     transform="translate(0,-552.36218)">
    <g
       id="g4277">
      <path
         inkscape:connector-curvature="0"
         id="path3364"
         d="m 97.040974,1029.8357 336.888376,-1.1739 1.17377,-363.88639 -88.03697,-89.21086 -250.025176,0 z"
         style="fill:#f2f2f2;fill-rule:evenodd;stroke:#afafaf;stroke-width:5.03546047;stroke-linecap:butt;stroke-linejoin:miter;stroke-miterlimit:4;stroke-dasharray:none;stroke-opacity:1" />
      <path
         inkscape:connector-curvature="0"
         id="rect4228"
         d="m 97.041016,907.86724 0,121.96756 336.888674,-1.0485 0.4375,-120.91906 -337.326174,0 z"
         style="fill:#394050;fill-opacity:1;stroke:none;stroke-width:5;stroke-miterlimit:4;stroke-dasharray:none;stroke-opacity:1" />
      <g
         transform="matrix(0.91729546,0,0,0.91729546,-22.546586,30.374556)"
         id="g4228">
        <g
           transform="translate(49.746209,-82.757806)"
           id="g4288">
          <path
             sodipodi:nodetypes="cc"
             inkscape:connector-curvature="0"
             id="path3340-3"
             d="m 121.54612,1027.8394 0,-295.47722"
             style="fill:none;fill-rule:evenodd;stroke:#394050;stroke-width:1.48591185px;stroke-linecap:butt;stroke-linejoin:miter;stroke-opacity:1" />
          <path
             sodipodi:nodetypes="cc"
             inkscape:connector-curvature="0"
             id="path3340-6"
             d="m 166.12348,1026.885 0,-294.99996"
             style="fill:none;fill-rule:evenodd;stroke:#394050;stroke-width:1.48591185px;stroke-linecap:butt;stroke-linejoin:miter;stroke-opacity:1" />
          <path
             sodipodi:nodetypes="cc"
             inkscape:connector-curvature="0"
             id="path3340-3-7"
             d="m 211.44379,1027.8394 0,-295.00003"
             style="fill:none;fill-rule:evenodd;stroke:#394050;stroke-width:1.48591185px;stroke-linecap:butt;stroke-linejoin:miter;stroke-opacity:1" />
          <path
             sodipodi:nodetypes="cc"
             inkscape:connector-curvature="0"
             id="path3340-5"
             d="m 255.27819,1026.885 0,-294.99997"
             style="fill:none;fill-rule:evenodd;stroke:#394050;stroke-width:1.48591185px;stroke-linecap:butt;stroke-linejoin:miter;stroke-opacity:1" />
          <path
             sodipodi:nodetypes="cc"
             inkscape:connector-curvature="0"
             id="path3340-3-3"
             d="m 300.5985,1027.8394 0,-295.00004"
             style="fill:none;fill-rule:evenodd;stroke:#394050;stroke-width:1.48591185px;stroke-linecap:butt;stroke-linejoin:miter;stroke-opacity:1" />
          <path
             sodipodi:nodetypes="cc"
             inkscape:connector-curvature="0"
             id="path3340-6-5"
             d="m 345.17586,1026.885 0,-295"
             style="fill:none;fill-rule:evenodd;stroke:#394050;stroke-width:1.48591185px;stroke-linecap:butt;stroke-linejoin:miter;stroke-opacity:1" />
          <path
             sodipodi:nodetypes="cc"
             inkscape:connector-curvature="0"
             id="path3340-3-7-6"
             d="m 390.49617,1027.8394 0,-295.00007"
             style="fill:none;fill-rule:evenodd;stroke:#394050;stroke-width:1.48591185px;stroke-linecap:butt;stroke-linejoin:miter;stroke-opacity:1" />
          <path
             sodipodi:nodetypes="cc"
             inkscape:connector-curvature="0"
             id="path3340-2"
             d="m 412.10202,1019.3395 -297.57915,0"
             style="fill:none;fill-rule:evenodd;stroke:#394050;stroke-width:1.48591185px;stroke-linecap:butt;stroke-linejoin:miter;stroke-opacity:1" />
          <path
             sodipodi:nodetypes="cc"
             inkscape:connector-curvature="0"
             id="path3340-3-9"
             d="m 413.05642,974.01916 -297.57922,0"
             style="fill:none;fill-rule:evenodd;stroke:#394050;stroke-width:1.48591185px;stroke-linecap:butt;stroke-linejoin:miter;stroke-opacity:1" />
          <path
             sodipodi:nodetypes="cc"
             inkscape:connector-curvature="0"
             id="path3340-6-1"
             d="m 412.10202,929.4418 -297.57918,0"
             style="fill:none;fill-rule:evenodd;stroke:#394050;stroke-width:1.48591185px;stroke-linecap:butt;stroke-linejoin:miter;stroke-opacity:1" />
          <path
             sodipodi:nodetypes="cc"
             inkscape:connector-curvature="0"
             id="path3340-3-7-2"
             d="m 413.05642,884.12149 -297.57925,0"
             style="fill:none;fill-rule:evenodd;stroke:#394050;stroke-width:1.48591185px;stroke-linecap:butt;stroke-linejoin:miter;stroke-opacity:1" />
          <path
             sodipodi:nodetypes="cc"
             inkscape:connector-curvature="0"
             id="path3340-5-7"
             d="m 412.10202,840.28709 -297.57919,0"
             style="fill:none;fill-rule:evenodd;stroke:#394050;stroke-width:1.48591185px;stroke-linecap:butt;stroke-linejoin:miter;stroke-opacity:1" />
          <path
             sodipodi:nodetypes="cc"
             inkscape:connector-curvature="0"
             id="path3340-3-3-0"
             d="m 413.05642,794.96678 -297.57926,0"
             style="fill:none;fill-rule:evenodd;stroke:#394050;stroke-width:1.48591185px;stroke-linecap:butt;stroke-linejoin:miter;stroke-opacity:1" />
          <path
             sodipodi:nodetypes="cc"
             inkscape:connector-curvature="0"
             id="path3340-6-5-9"
             d="m 412.10202,750.38942 -297.57922,0"
             style="fill:none;fill-rule:evenodd;stroke:#394050;stroke-width:1.48591185px;stroke-linecap:butt;stroke-linejoin:miter;stroke-opacity:1" />
          <rect
             y="838.7829"
             x="165.30907"
             height="46.842964"
             width="45.618313"
             id="rect4245-6"
             style="opacity:1;fill:#394050;fill-opacity:1;stroke:none;stroke-width:15;stroke-miterlimit:4;stroke-dasharray:none;stroke-opacity:1" />
          <rect
             y="749.38324"
             x="300.63321"
             height="46.842964"
             width="45.618313"
             id="rect4245-0"
             style="opacity:1;fill:#394050;fill-opacity:1;stroke:none;stroke-width:15;stroke-miterlimit:4;stroke-dasharray:none;stroke-opacity:1" />
          <rect
             y="928.7948"
             x="344.10837"
             height="46.842964"
             width="45.618313"
             id="rect4245-62"
             style="opacity:1;fill:#394050;fill-opacity:1;stroke:none;stroke-width:15;stroke-miterlimit:4;stroke-dasharray:none;stroke-opacity:1" />
          <rect
             y="928.18262"
             x="120.60925"
             height="46.842964"
             width="45.618313"
             id="rect4245-61"
             style="opacity:1;fill:#394050;fill-opacity:1;stroke:none;stroke-width:15;stroke-miterlimit:4;stroke-dasharray:none;stroke-opacity:1" />
        </g>
        <g
           transform="matrix(0.5412339,0,0,0.5412339,57.990899,330.64388)"
           id="g3342"
           style="fill:none;stroke:#394050;stroke-opacity:1">
          <path
             sodipodi:nodetypes="ccc"
             inkscape:connector-curvature="0"
             id="path4218-5"
             d="m 233.38353,692.5151 0.41209,-51.71704 34.44898,0.1457"
             style="fill:none;fill-rule:evenodd;stroke:#394050;stroke-width:9;stroke-linecap:butt;stroke-linejoin:miter;stroke-miterlimit:4;stroke-dasharray:none;stroke-opacity:1" />
          <path
             inkscape:connector-curvature="0"
             id="path4220-0"
             d="m 236.12687,664.57931 29.13901,0.14569"
             style="fill:none;fill-rule:evenodd;stroke:#394050;stroke-width:9;stroke-linecap:butt;stroke-linejoin:miter;stroke-miterlimit:4;stroke-dasharray:none;stroke-opacity:1" />
        </g>
        <path
           style="fill:none;fill-rule:evenodd;stroke:#394050;stroke-width:4.89042282;stroke-linecap:butt;stroke-linejoin:miter;stroke-miterlimit:4;stroke-dasharray:none;stroke-opacity:1"
           d="m 405.49954,838.61982 0.15834,-29.64835 2.73129,-0.11875 8.62929,22.44408 1.82086,0 8.66888,-22.44408 2.85004,-0.0396 0,29.88587"
           id="path4260"
           inkscape:connector-curvature="0"
           sodipodi:nodetypes="cccccccc" />
        <g
           id="g4265"
           transform="matrix(0.52749781,0,0,0.52749781,-255.9636,338.36765)"
           style="stroke:#394050;stroke-opacity:1">
          <path
             inkscape:connector-curvature="0"
             id="path4255"
             d="m 915.69362,696.28339 22.14565,-58.27803 22.72843,58.27803"
             style="fill:none;fill-rule:evenodd;stroke:#394050;stroke-width:9;stroke-linecap:butt;stroke-linejoin:bevel;stroke-miterlimit:4;stroke-dasharray:none;stroke-opacity:1" />
          <path
             inkscape:connector-curvature="0"
             id="path4257"
             d="m 924.58101,676.76025 25.78803,0"
             style="fill:none;fill-rule:evenodd;stroke:#394050;stroke-width:9;stroke-linecap:butt;stroke-linejoin:miter;stroke-miterlimit:4;stroke-dasharray:none;stroke-opacity:1" />
        </g>
        <g
           transform="matrix(0.55570321,0,0,0.55570321,215.29977,318.02655)"
           id="g4224"
           style="stroke:#394050;stroke-opacity:1">
          <path
             sodipodi:nodetypes="cc"
             inkscape:connector-curvature="0"
             id="path4207"
             d="m 122.8022,699.61492 0,-57.28023"
             style="fill:none;fill-rule:evenodd;stroke:#394050;stroke-width:9;stroke-linecap:butt;stroke-linejoin:miter;stroke-miterlimit:4;stroke-dasharray:none;stroke-opacity:1" />
          <path
             sodipodi:nodetypes="cc"
             inkscape:connector-curvature="0"
             id="path4207-2"
             d="m 96.222531,642.74677 53.159349,0"
             style="fill:none;fill-rule:evenodd;stroke:#394050;stroke-width:8.67021656;stroke-linecap:butt;stroke-linejoin:miter;stroke-miterlimit:4;stroke-dasharray:none;stroke-opacity:1" />
        </g>
        <g
           transform="matrix(0.53470977,0,0,0.53470977,257.24013,518.20942)"
           id="g3948"
           style="stroke:#394050;stroke-opacity:1">
          <path
             sodipodi:nodetypes="cc"
             inkscape:connector-curvature="0"
             id="path4231"
             d="m 133.34218,354.15825 -0.05,-65.84215"
             style="fill:none;fill-rule:evenodd;stroke:#394050;stroke-width:9;stroke-linecap:butt;stroke-linejoin:miter;stroke-miterlimit:4;stroke-dasharray:none;stroke-opacity:1" />
        </g>
        <path
           style="fill:none;fill-rule:evenodd;stroke:#394050;stroke-width:4.78430796;stroke-linecap:butt;stroke-linejoin:miter;stroke-miterlimit:4;stroke-dasharray:none;stroke-opacity:1"
           d="m 428.32891,723.21711 c 0,0 -4.0486,-3.6235 -11.43477,-3.04927 -7.38618,0.57422 -11.57672,8.99653 -11.18067,15.37341 0.39605,6.37689 5.98832,13.96368 13.21351,13.34057 7.2252,-0.62311 9.40193,-3.17633 9.40193,-3.17633"
           id="path4275"
           inkscape:connector-curvature="0"
           sodipodi:nodetypes="czzzc" />
        <g
           id="g4182"
           transform="matrix(0.54164951,0,0,0.54164951,222.03033,430.42104)"
           style="stroke:#394050;stroke-opacity:1">
          <path
             sodipodi:nodetypes="cccc"
             inkscape:connector-curvature="0"
             id="path4218"
             d="m 380.20564,670.71638 -33.99725,-0.41209 0.41209,-51.71704 34.44898,0.1457"
             style="fill:none;fill-rule:evenodd;stroke:#394050;stroke-width:9;stroke-linecap:butt;stroke-linejoin:miter;stroke-miterlimit:4;stroke-dasharray:none;stroke-opacity:1" />
          <path
             inkscape:connector-curvature="0"
             id="path4220"
             d="m 348.95172,642.3685 29.13902,0.14569"
             style="fill:none;fill-rule:evenodd;stroke:#394050;stroke-width:9;stroke-linecap:butt;stroke-linejoin:miter;stroke-miterlimit:4;stroke-dasharray:none;stroke-opacity:1" />
        </g>
      </g>
      <g
         id="flowRoot4224"
         style="font-style:normal;font-weight:normal;font-size:40px;line-height:125%;font-family:sans-serif;letter-spacing:0px;word-spacing:0px;fill:#000000;fill-opacity:1;stroke:none;stroke-width:1px;stroke-linecap:butt;stroke-linejoin:miter;stroke-opacity:1"
         transform="matrix(1.3221433,0,0,1.3221433,21.930427,815.04732)">
        <path
           id="path4234"
           style="font-style:normal;font-variant:normal;font-weight:bold;font-stretch:normal;font-size:80px;font-family:sans-serif;-inkscape-font-specification:'sans-serif Bold';fill:#ffffff"
           d="m 137.0957,116.45868 20.23438,29.76563 -15.66406,0 -13.63282,-19.92188 -13.51562,19.92188 -15.742189,0 20.234379,-29.76563 -19.453129,-28.554685 15.703129,0 12.77343,18.789065 12.73438,-18.789065 15.78125,0 -19.45313,28.554685 z"
           inkscape:connector-curvature="0" />
        <path
           id="path4236"
           style="font-style:normal;font-variant:normal;font-weight:bold;font-stretch:normal;font-size:80px;font-family:sans-serif;-inkscape-font-specification:'sans-serif Bold';fill:#ffffff"
           d="m 196.23633,114.779 q 5.89844,1.52343 8.94531,5.3125 3.08594,3.75 3.08594,9.57031 0,8.67187 -6.64063,13.20312 -6.64062,4.49219 -19.375,4.49219 -4.49218,0 -9.02343,-0.74219 -4.49219,-0.70312 -8.90625,-2.14843 l 0,-11.60157 q 4.21875,2.10938 8.35937,3.20313 4.17969,1.05469 8.20313,1.05469 5.97656,0 9.14062,-2.07032 3.20313,-2.07031 3.20313,-5.9375 0,-3.98437 -3.28125,-6.01562 -3.24219,-2.07031 -9.60938,-2.07031 l -6.01562,0 0,-9.6875 6.32812,0 q 5.66406,0 8.4375,-1.75782 2.77344,-1.79687 2.77344,-5.42968 0,-3.35938 -2.69531,-5.195317 -2.69532,-1.835938 -7.61719,-1.835938 -3.63281,0 -7.34375,0.820313 -3.71094,0.820312 -7.38281,2.421872 l 0,-11.015622 q 4.45312,-1.25 8.82812,-1.875 4.375,-0.625 8.59375,-0.625 11.36719,0 16.99219,3.75 5.66406,3.710937 5.66406,11.210942 0,5.11718 -2.69531,8.39843 -2.69531,3.24219 -7.96875,4.57032 z"
           inkscape:connector-curvature="0" />
        <path
           id="path4238"
           style="font-style:normal;font-variant:normal;font-weight:bold;font-stretch:normal;font-size:80px;font-family:sans-serif;-inkscape-font-specification:'sans-serif Bold';fill:#ffffff"
           d="m 236.97852,99.271183 0,35.585937 5.39062,0 q 9.21875,0 14.0625,-4.57031 4.88281,-4.57031 4.88281,-13.28125 0,-8.67188 -4.84375,-13.20313 -4.84375,-4.531247 -14.10156,-4.531247 l -5.39062,0 z m -15.03907,-11.367188 15.85938,0 q 13.28125,0 19.76562,1.914063 6.52344,1.875 11.17188,6.40625 4.10156,3.945312 6.09375,9.101562 1.99219,5.15625 1.99219,11.67969 0,6.60156 -1.99219,11.79687 -1.99219,5.15625 -6.09375,9.10157 -4.6875,4.53125 -11.25,6.44531 -6.5625,1.875 -19.6875,1.875 l -15.85938,0 0,-58.320315 z"
           inkscape:connector-curvature="0" />
      </g>
    </g>
  </g>
</svg>
