<?xml version="1.0" encoding="UTF-8" standalone="no"?>
<!-- Created with Inkscape (http://www.inkscape.org/) -->

<svg
   xmlns:dc="http://purl.org/dc/elements/1.1/"
   xmlns:cc="http://creativecommons.org/ns#"
   xmlns:rdf="http://www.w3.org/1999/02/22-rdf-syntax-ns#"
   xmlns:svg="http://www.w3.org/2000/svg"
   xmlns="http://www.w3.org/2000/svg"
   xmlns:sodipodi="http://sodipodi.sourceforge.net/DTD/sodipodi-0.dtd"
   xmlns:inkscape="http://www.inkscape.org/namespaces/inkscape"
   width="500"
   height="500"
   id="svg2"
   version="1.1"
   inkscape:version="0.91 r13725"
   sodipodi:docname="application-x-kcsrc.svg">
  <defs
     id="defs4" />
  <sodipodi:namedview
     id="base"
     pagecolor="#ffffff"
     bordercolor="#666666"
     borderopacity="1.0"
     inkscape:pageopacity="0.0"
     inkscape:pageshadow="2"
     inkscape:zoom="0.42897809"
     inkscape:cx="697.59865"
     inkscape:cy="476.95932"
     inkscape:document-units="px"
     inkscape:current-layer="layer1"
     showgrid="false"
     inkscape:window-width="1366"
     inkscape:window-height="715"
     inkscape:window-x="0"
     inkscape:window-y="24"
     inkscape:window-maximized="1" />
  <metadata
     id="metadata7">
    <rdf:RDF>
      <cc:Work
         rdf:about="">
        <dc:format>image/svg+xml</dc:format>
        <dc:type
           rdf:resource="http://purl.org/dc/dcmitype/StillImage" />
        <dc:title />
      </cc:Work>
    </rdf:RDF>
  </metadata>
  <g
     inkscape:label="Layer 1"
     inkscape:groupmode="layer"
     id="layer1"
     transform="translate(0,-552.36218)">
    <g
       id="g4173">
      <path
         inkscape:connector-curvature="0"
         id="path3364"
         d="m 97.040974,1029.8357 336.888376,-1.1739 1.17377,-363.88639 -88.03697,-89.21086 -250.025176,0 z"
         style="fill:#f2f2f2;fill-rule:evenodd;stroke:#afafaf;stroke-width:5.03546047;stroke-linecap:butt;stroke-linejoin:miter;stroke-miterlimit:4;stroke-dasharray:none;stroke-opacity:1" />
      <path
         inkscape:connector-curvature="0"
         id="rect4228"
         d="m 97.041016,907.86724 0,121.96756 336.888674,-1.0485 0.4375,-120.91906 -337.326174,0 z"
         style="fill:#00bbf2;fill-opacity:1;stroke:none;stroke-width:5;stroke-miterlimit:4;stroke-dasharray:none;stroke-opacity:1" />
      <g
         transform="matrix(1.0652714,0,0,1.0652714,-37.933928,-17.639734)"
         id="g4178">
        <path
           sodipodi:nodetypes="ccccsccccssccccc"
           id="path895"
           d="m 282.17463,591.6823 c -1.56541,4.1621 -3.32767,8.37557 -5.1274,12.40105 -0.15034,0.34932 -0.3868,0.64429 -0.5403,0.98991 -1.66037,3.66855 -3.30568,7.10795 -5.12738,10.6683 -0.37808,0.7359 -0.69523,1.50018 -1.07957,2.22834 -1.64613,3.1455 -3.38135,6.3629 -5.12742,9.42427 -0.60675,1.06716 -1.27231,2.17465 -1.88946,3.22516 -15.61816,26.15055 -36.14239,53.46453 -52.35352,76.38867 -12.84505,17.2471 -20.23168,35.8625 -22.39869,53.82067 0,44.59879 41.88306,80.85203 93.64274,80.85203 51.75958,0 93.64262,-36.25324 93.64262,-80.85203 0,-28.09981 -22.41906,-56.97383 -48.30563,-93.99851 -8.19376,-11.50049 -16.10109,-23.59657 -23.20825,-34.97169 -3.85755,-6.22896 -7.62914,-12.6421 -11.33425,-19.34346 -1.15746,-2.09195 -2.37329,-4.30683 -3.50826,-6.44789 -2.45314,-4.63957 -4.96591,-9.5072 -7.28623,-14.38642 z"
           style="fill:#00bbf2;fill-opacity:1;fill-rule:nonzero;stroke:none"
           inkscape:connector-curvature="0" />
        <path
           sodipodi:nodetypes="ccscssc"
           id="path895-3"
           d="m 210.71382,707.008 c -12.84504,17.2471 -20.23167,35.8625 -22.39869,53.82067 0,44.59879 41.88307,80.85203 93.64275,80.85203 51.75957,0 93.64262,-36.25324 93.64262,-80.85203 -174.1098,52.07369 -148.55768,-63.44027 -79.8999,-43.7013 75.56598,21.72504 32.67843,-31.19942 -16.83518,-36.79172 -39.90991,-4.5076 -68.1516,26.67235 -68.1516,26.67235 z"
           style="fill:#0092bc;fill-opacity:1;fill-rule:nonzero;stroke:none"
           inkscape:connector-curvature="0" />
      </g>
      <g
         id="flowRoot4154"
         style="font-style:normal;font-weight:normal;font-size:40px;line-height:125%;font-family:sans-serif;letter-spacing:0px;word-spacing:0px;fill:#ffffff;fill-opacity:1;stroke:none;stroke-width:1px;stroke-linecap:butt;stroke-linejoin:miter;stroke-opacity:1"
         transform="matrix(1.2167702,0,0,1.2167702,-28.945023,471.63837)">
        <path
           inkscape:connector-curvature="0"
           id="path4163"
           style="font-style:normal;font-variant:normal;font-weight:bold;font-stretch:normal;font-size:70px;font-family:sans-serif;-inkscape-font-specification:'sans-serif Bold';fill:#ffffff"
           d="m 118.32031,381.20506 13.15918,0 0,18.62793 18.96973,-18.62793 15.27832,0 -24.5752,24.16504 27.1045,26.86523 -16.47461,0 -20.30274,-20.09765 0,20.09765 -13.15918,0 0,-51.03027 z" />
        <path
           inkscape:connector-curvature="0"
           id="path4165"
           style="font-style:normal;font-variant:normal;font-weight:bold;font-stretch:normal;font-size:70px;font-family:sans-serif;-inkscape-font-specification:'sans-serif Bold';fill:#ffffff"
           d="m 209.92187,429.4326 q -3.62304,1.87988 -7.55371,2.83691 -3.93066,0.95703 -8.20312,0.95703 -12.74902,0 -20.2002,-7.10937 -7.45117,-7.14356 -7.45117,-19.34571 0,-12.23632 7.45117,-19.3457 7.45118,-7.14355 20.2002,-7.14355 4.27246,0 8.20312,0.95703 3.93067,0.95703 7.55371,2.83691 l 0,10.56153 q -3.65722,-2.49512 -7.21191,-3.65723 -3.55469,-1.16211 -7.48535,-1.16211 -7.04102,0 -11.07422,4.51172 -4.0332,4.51172 -4.0332,12.4414 0,7.89551 4.0332,12.40723 4.0332,4.51172 11.07422,4.51172 3.93066,0 7.48535,-1.16211 3.55469,-1.16211 7.21191,-3.65723 l 0,10.56153 z" />
        <path
           inkscape:connector-curvature="0"
           id="path4167"
           style="font-style:normal;font-variant:normal;font-weight:bold;font-stretch:normal;font-size:70px;font-family:sans-serif;-inkscape-font-specification:'sans-serif Bold';fill:#ffffff"
           d="m 257.73926,382.8115 0,10.80079 q -4.2041,-1.87989 -8.20313,-2.83692 -3.99902,-0.95703 -7.55371,-0.95703 -4.7168,0 -6.97265,1.29883 -2.25586,1.29883 -2.25586,4.0332 0,2.05078 1.5039,3.21289 1.53809,1.12793 5.53711,1.94824 l 5.60547,1.12793 q 8.51074,1.70899 12.09961,5.19532 3.58887,3.48632 3.58887,9.91211 0,8.44238 -5.02442,12.57812 -4.99023,4.10156 -15.27832,4.10156 -4.85351,0 -9.74121,-0.92285 -4.88769,-0.92285 -9.77539,-2.73437 l 0,-11.1084 q 4.8877,2.59765 9.43359,3.93066 4.58008,1.29883 8.81836,1.29883 4.30664,0 6.59668,-1.43555 2.29004,-1.43554 2.29004,-4.10156 0,-2.39258 -1.57226,-3.69141 -1.53809,-1.29882 -6.18653,-2.32421 l -5.09277,-1.12793 q -7.65625,-1.64063 -11.21094,-5.2295 -3.5205,-3.58886 -3.5205,-9.67285 0,-7.62207 4.92187,-11.72363 4.92188,-4.10156 14.15039,-4.10156 4.2041,0 8.64746,0.64941 4.44336,0.61524 9.19434,1.87988 z" />
        <path
           inkscape:connector-curvature="0"
           id="path4169"
           style="font-style:normal;font-variant:normal;font-weight:bold;font-stretch:normal;font-size:70px;font-family:sans-serif;-inkscape-font-specification:'sans-serif Bold';fill:#ffffff"
           d="m 291.37207,403.83201 q 4.13574,0 5.91309,-1.53808 1.81152,-1.53809 1.81152,-5.0586 0,-3.48633 -1.81152,-4.99023 -1.77735,-1.50391 -5.91309,-1.50391 l -5.53711,0 0,13.09082 5.53711,0 z m -5.53711,9.0918 0,19.31152 -13.15918,0 0,-51.03027 20.09766,0 q 10.08301,0 14.76562,3.38379 4.7168,3.38379 4.7168,10.69824 0,5.05859 -2.46094,8.30566 -2.42676,3.24707 -7.34863,4.78516 2.70019,0.61523 4.81933,2.80273 2.15333,2.15332 4.34083,6.5625 l 7.14355,14.49219 -14.01367,0 -6.22071,-12.68066 q -1.87988,-3.82813 -3.82812,-5.22949 -1.91406,-1.40137 -5.12695,-1.40137 l -3.72559,0 z" />
        <path
           inkscape:connector-curvature="0"
           id="path4171"
           style="font-style:normal;font-variant:normal;font-weight:bold;font-stretch:normal;font-size:70px;font-family:sans-serif;-inkscape-font-specification:'sans-serif Bold';fill:#ffffff"
           d="m 367.01172,429.4326 q -3.62305,1.87988 -7.55371,2.83691 -3.93067,0.95703 -8.20313,0.95703 -12.74902,0 -20.20019,-7.10937 -7.45117,-7.14356 -7.45117,-19.34571 0,-12.23632 7.45117,-19.3457 7.45117,-7.14355 20.20019,-7.14355 4.27246,0 8.20313,0.95703 3.93066,0.95703 7.55371,2.83691 l 0,10.56153 q -3.65723,-2.49512 -7.21192,-3.65723 -3.55468,-1.16211 -7.48535,-1.16211 -7.04101,0 -11.07422,4.51172 -4.0332,4.51172 -4.0332,12.4414 0,7.89551 4.0332,12.40723 4.03321,4.51172 11.07422,4.51172 3.93067,0 7.48535,-1.16211 3.55469,-1.16211 7.21192,-3.65723 l 0,10.56153 z" />
      </g>
    </g>
  </g>
</svg>
