<?xml version="1.0" encoding="UTF-8" standalone="no"?>
<!-- Created with Inkscape (http://www.inkscape.org/) -->

<svg
   xmlns:dc="http://purl.org/dc/elements/1.1/"
   xmlns:cc="http://creativecommons.org/ns#"
   xmlns:rdf="http://www.w3.org/1999/02/22-rdf-syntax-ns#"
   xmlns:svg="http://www.w3.org/2000/svg"
   xmlns="http://www.w3.org/2000/svg"
   xmlns:sodipodi="http://sodipodi.sourceforge.net/DTD/sodipodi-0.dtd"
   xmlns:inkscape="http://www.inkscape.org/namespaces/inkscape"
   width="500"
   height="500"
   id="svg2"
   version="1.1"
   inkscape:version="0.91 r13725"
   sodipodi:docname="application-x-java.svg">
  <defs
     id="defs4" />
  <sodipodi:namedview
     id="base"
     pagecolor="#ffffff"
     bordercolor="#666666"
     borderopacity="1.0"
     inkscape:pageopacity="0.0"
     inkscape:pageshadow="2"
     inkscape:zoom="0.60666665"
     inkscape:cx="47.676946"
     inkscape:cy="228.01761"
     inkscape:document-units="px"
     inkscape:current-layer="layer1"
     showgrid="false"
     inkscape:window-width="1366"
     inkscape:window-height="715"
     inkscape:window-x="0"
     inkscape:window-y="24"
     inkscape:window-maximized="1" />
  <metadata
     id="metadata7">
    <rdf:RDF>
      <cc:Work
         rdf:about="">
        <dc:format>image/svg+xml</dc:format>
        <dc:type
           rdf:resource="http://purl.org/dc/dcmitype/StillImage" />
        <dc:title />
      </cc:Work>
    </rdf:RDF>
  </metadata>
  <g
     inkscape:label="Layer 1"
     inkscape:groupmode="layer"
     id="layer1"
     transform="translate(0,-552.36218)">
    <g
       id="g3364">
      <g
         id="g3366">
        <path
           style="fill:#f2f2f2;fill-rule:evenodd;stroke:#afafaf;stroke-width:5.03546047;stroke-linecap:butt;stroke-linejoin:miter;stroke-miterlimit:4;stroke-dasharray:none;stroke-opacity:1"
           d="m 97.040974,1029.8357 336.888376,-1.1739 1.17377,-363.88639 -88.03697,-89.21086 -250.025176,0 z"
           id="path3364"
           inkscape:connector-curvature="0" />
        <path
           style="fill:#f03916;fill-opacity:1;stroke:none;stroke-width:5;stroke-miterlimit:4;stroke-dasharray:none;stroke-opacity:1"
           d="m 97.041016,907.86724 0,121.96756 336.888674,-1.0485 0.4375,-120.91906 -337.326174,0 z"
           id="rect4228"
           inkscape:connector-curvature="0" />
        <g
           id="g4172"
           transform="matrix(0.66587266,0,0,0.66587266,65.600737,153.00082)">
          <path
             inkscape:connector-curvature="0"
             id="path11"
             style="fill:#00bbf2;fill-opacity:1"
             d="m 238.48335,1021.7335 12.16216,-7.1542 -13.593,3.5771 c -20.0318,5.7233 -22.89348,12.1621 -22.89348,17.1701 1.43084,12.8776 34.34022,22.8935 72.25755,22.8935 20.0318,0 49.36407,-2.8617 79.41176,-15.7393 l 4.29253,-1.4308 -4.29253,-1.4309 c -13.593,-5.7234 -24.32432,-11.4467 -24.32432,-11.4467 l -0.71542,-0.7154 -0.71542,0 c -24.32433,4.2925 -39.34817,6.4387 -55.08744,6.4387 -10.0159,0 -20.74722,-0.7154 -35.77107,-2.1462 -13.593,-1.4309 -15.02385,-4.2925 -15.02385,-5.008 0,-2.1462 2.14627,-4.2925 4.29253,-5.0079 z" />
          <path
             inkscape:connector-curvature="0"
             id="path13"
             style="fill:#00bbf2;fill-opacity:1"
             d="m 379.42135,993.83205 -5.00795,-2.14626 c -10.73132,-3.57711 -17.17011,-10.73132 -17.88553,-10.73132 l -0.71542,-0.71542 -0.71543,0 c -29.33227,5.72337 -52.22575,7.86963 -75.11923,7.86963 -12.87759,0 -25.75517,-0.71542 -42.92528,-2.86169 -11.44674,-1.43084 -14.30843,-4.29252 -14.30843,-5.72337 -0.71542,-2.86168 3.57711,-7.15421 5.00795,-8.58505 l 8.58506,-6.43879 -10.73132,3.5771 c -17.88553,5.72337 -26.47059,12.16217 -25.03975,19.31638 2.14627,12.16216 33.6248,20.03184 77.2655,20.03184 32.19396,0 66.53418,-5.008 95.86646,-13.59305 l 5.72337,0 z" />
          <path
             inkscape:connector-curvature="0"
             id="path15"
             style="fill:#f03916;fill-opacity:1"
             d="m 297.1479,832.14684 c -5.72337,17.88553 0,37.91733 17.88553,57.94912 5.72337,6.43879 8.58506,13.59301 7.86964,20.74722 -1.43085,13.593 -12.87759,23.6089 -12.87759,23.6089 l -12.87758,10.73132 15.02385,-7.86963 c 1.43084,-0.71542 30.76311,-15.73927 35.77106,-38.63275 2.14627,-9.30048 0,-18.60096 -5.72337,-27.18601 l -2.86168,-4.29253 c -9.30048,-13.593 -17.17012,-23.6089 -14.30843,-35.77106 3.57711,-16.45469 25.75517,-35.05565 72.25755,-62.24166 l 10.73132,-6.43879 -12.16216,2.86169 c -4.29253,1.43084 -85.13514,21.46263 -98.72814,66.53418 z" />
          <path
             inkscape:connector-curvature="0"
             id="path17"
             style="fill:#00bbf2;fill-opacity:1"
             d="m 274.96984,1101.1453 c 95.15103,0 162.40063,-17.8856 165.97774,-35.0557 0.71542,-2.8617 -0.71542,-7.8696 -9.30048,-12.1622 l -12.16216,-5.7233 10.0159,8.585 c 0,0 2.86168,2.1463 2.14626,5.008 -0.71542,2.1462 -2.86168,6.4388 -15.73927,10.0159 -25.03974,8.585 -82.27344,14.3084 -138.79173,14.3084 -52.94117,0 -93.72019,-4.2925 -111.60572,-12.1622 -2.14626,-0.7154 -3.57711,-2.1462 -3.57711,-2.8616 0.71542,-3.5772 15.73927,-10.0159 26.47059,-12.1622 7.15421,-1.4308 11.44674,-1.4308 13.59301,-1.4308 0.71542,0 0.71542,0 0.71542,0 l 6.43879,0.7154 -5.00795,-5.008 c -2.86169,-2.1462 -7.15421,-2.8617 -12.87758,-2.8617 -20.74722,0 -60.0954,14.3085 -61.52624,27.186 -0.71542,6.4388 7.15421,11.4468 23.60891,13.5931 40.77901,6.4387 81.55803,10.0159 121.62162,10.0159 l 0,0 z" />
          <path
             inkscape:connector-curvature="0"
             id="path19"
             style="fill:#00bbf2;fill-opacity:1"
             d="m 257.08431,961.63809 c 43.6407,0 84.41971,-4.29253 113.75198,-12.16216 l 0.71542,0 c 8.58506,-5.72337 20.0318,-10.73132 20.0318,-10.73132 l 14.30843,-6.43879 -15.73927,3.57711 c 0,0 -33.6248,5.72337 -66.53418,8.58505 -22.89348,2.14626 -47.21781,2.86169 -67.96503,2.86169 -15.73927,0 -29.33227,-0.71543 -37.91733,-2.14627 -15.73926,-2.14626 -15.73926,-5.00795 -15.73926,-5.00795 0,-4.29252 22.89348,-12.16216 44.35612,-17.88553 l 11.44674,-2.86168 -11.44674,-0.71543 c 0,0 -1.43085,0 -2.86169,0 -10.0159,0 -36.48648,1.43085 -67.2496,16.45469 -2.86169,1.43085 -10.0159,5.00795 -9.30048,10.0159 1.43085,12.87759 49.36407,16.45469 90.14309,16.45469 z" />
          <path
             inkscape:connector-curvature="0"
             id="path21"
             style="fill:#00bbf2;fill-opacity:1"
             d="m 397.30688,924.43618 -2.86168,5.00795 5.00794,-2.14626 c 0,0 2.86169,-1.43084 9.30048,-2.14626 1.43084,0 2.86169,-0.71543 5.00795,-0.71543 10.0159,0 22.17806,6.4388 25.03975,18.60096 2.14626,8.58505 1.43084,31.47854 -48.64865,57.23366 l -0.71542,0 0,0.7155 c 0,0.7154 -0.71542,1.4308 -1.43085,1.4308 l -5.72337,5.008 7.15422,-2.1463 c 56.51828,-15.02386 74.40381,-41.49444 71.54213,-61.52624 -2.14627,-17.17011 -17.88554,-29.33227 -37.91733,-29.33227 -5.72337,0 -11.44674,0.71542 -17.17011,2.86168 -5.72337,2.86169 -8.58506,7.15421 -8.58506,7.15421 z" />
          <path
             inkscape:connector-curvature="0"
             id="path23"
             style="fill:#f03916;fill-opacity:1"
             d="m 295.00164,921.5745 6.43879,5.72337 -3.57711,-7.86963 c -3.57711,-8.58506 -10.0159,-17.17012 -15.73927,-25.03975 -19.31637,-27.90143 -39.34817,-55.80286 15.02385,-98.72814 35.77106,-27.90143 54.37202,-55.80286 55.80286,-82.27345 1.43084,-23.60891 -11.44674,-36.48649 -12.16216,-37.20191 l -4.29253,-5.00795 1.43084,6.43879 c 12.16217,47.93323 -20.74721,73.6884 -52.94117,98.72815 -15.73927,12.87758 -32.19396,25.75516 -42.92528,40.77901 -21.46264,32.90938 12.87758,67.96502 52.94118,104.45151 z" />
          <path
             inkscape:connector-curvature="0"
             id="path25"
             style="fill:#00bbf2;fill-opacity:1"
             d="m 457.40227,1077.5363 c 0,0 -7.15421,13.5931 -64.38792,24.3244 -32.90938,6.4388 -71.54213,9.3004 -111.60572,9.3004 -32.90938,0 -65.10334,-2.1462 -89.42766,-6.4387 l -6.43879,-1.4309 5.72337,4.2925 c 1.43084,0.7155 12.87758,8.5851 63.67249,12.1622 14.30843,0.7155 30.0477,1.4309 45.07154,1.4309 l 0,0 c 76.55008,0 159.53895,-11.4468 161.68522,-43.6408 l 0.71542,-10.0159 -5.00795,10.0159 z" />
        </g>
      </g>
      <g
         id="flowRoot3345"
         style="font-style:normal;font-weight:normal;font-size:40px;line-height:125%;font-family:sans-serif;letter-spacing:0px;word-spacing:0px;fill:#ffffff;fill-opacity:1;stroke:none;stroke-width:1px;stroke-linecap:butt;stroke-linejoin:miter;stroke-opacity:1"
         transform="matrix(2.1860742,0,0,2.1860742,-147.12811,98.042914)">
        <path
           inkscape:connector-curvature="0"
           id="path3354"
           style="font-style:normal;font-variant:normal;font-weight:bold;font-stretch:normal;font-family:sans-serif;-inkscape-font-specification:'sans-serif Bold';fill:#ffffff"
           d="m 145.47852,411.34458 q -2.07032,1.07421 -4.31641,1.62109 -2.24609,0.54687 -4.6875,0.54687 -7.28516,0 -11.54297,-4.0625 -4.25781,-4.08203 -4.25781,-11.05468 0,-6.99219 4.25781,-11.05469 4.25781,-4.08203 11.54297,-4.08203 2.44141,0 4.6875,0.54687 2.24609,0.54688 4.31641,1.6211 l 0,6.03515 q -2.08985,-1.42578 -4.1211,-2.08984 -2.03125,-0.66406 -4.27734,-0.66406 -4.02344,0 -6.32813,2.57812 -2.30468,2.57813 -2.30468,7.10938 0,4.51172 2.30468,7.08984 2.30469,2.57813 6.32813,2.57813 2.24609,0 4.27734,-0.66407 2.03125,-0.66406 4.1211,-2.08984 l 0,6.03516 z" />
        <path
           inkscape:connector-curvature="0"
           id="path3356"
           style="font-style:normal;font-variant:normal;font-weight:bold;font-stretch:normal;font-family:sans-serif;-inkscape-font-specification:'sans-serif Bold';fill:#ffffff"
           d="m 151.72852,383.78598 7.51953,0 0,23.47656 13.20312,0 0,5.6836 -20.72265,0 0,-29.16016 z" />
        <path
           inkscape:connector-curvature="0"
           id="path3358"
           style="font-style:normal;font-variant:normal;font-weight:bold;font-stretch:normal;font-family:sans-serif;-inkscape-font-specification:'sans-serif Bold';fill:#ffffff"
           d="m 194.89258,407.63364 -11.75781,0 -1.85547,5.3125 -7.5586,0 10.80078,-29.16016 8.96485,0 10.80078,29.16016 -7.55859,0 -1.83594,-5.3125 z m -9.88281,-5.41016 7.98828,0 -3.98438,-11.60156 -4.0039,11.60156 z" />
        <path
           inkscape:connector-curvature="0"
           id="path3360"
           style="font-style:normal;font-variant:normal;font-weight:bold;font-stretch:normal;font-family:sans-serif;-inkscape-font-specification:'sans-serif Bold';fill:#ffffff"
           d="m 228.42773,384.70395 0,6.17188 q -2.40234,-1.07422 -4.6875,-1.6211 -2.28515,-0.54687 -4.3164,-0.54687 -2.69531,0 -3.98438,0.74218 -1.28906,0.74219 -1.28906,2.30469 0,1.17188 0.85938,1.83594 0.8789,0.64453 3.16406,1.11328 l 3.20312,0.64453 q 4.86328,0.97656 6.91407,2.96875 2.05078,1.99219 2.05078,5.66406 0,4.82422 -2.8711,7.1875 -2.85156,2.34375 -8.73047,2.34375 -2.77343,0 -5.5664,-0.52734 -2.79297,-0.52734 -5.58594,-1.5625 l 0,-6.34766 q 2.79297,1.48438 5.39063,2.2461 2.61718,0.74219 5.03906,0.74219 2.46094,0 3.76953,-0.82032 1.30859,-0.82031 1.30859,-2.34375 0,-1.36718 -0.89843,-2.10937 -0.87891,-0.74219 -3.53516,-1.32813 l -2.91016,-0.64453 q -4.375,-0.9375 -6.40625,-2.98828 -2.01172,-2.05078 -2.01172,-5.52734 0,-4.35547 2.8125,-6.69922 2.8125,-2.34375 8.08594,-2.34375 2.40235,0 4.94141,0.37109 2.53906,0.35156 5.2539,1.07422 z" />
        <path
           inkscape:connector-curvature="0"
           id="path3362"
           style="font-style:normal;font-variant:normal;font-weight:bold;font-stretch:normal;font-family:sans-serif;-inkscape-font-specification:'sans-serif Bold';fill:#ffffff"
           d="m 255.45898,384.70395 0,6.17188 q -2.40234,-1.07422 -4.6875,-1.6211 -2.28515,-0.54687 -4.3164,-0.54687 -2.69531,0 -3.98438,0.74218 -1.28906,0.74219 -1.28906,2.30469 0,1.17188 0.85938,1.83594 0.8789,0.64453 3.16406,1.11328 l 3.20312,0.64453 q 4.86328,0.97656 6.91407,2.96875 2.05078,1.99219 2.05078,5.66406 0,4.82422 -2.8711,7.1875 -2.85156,2.34375 -8.73047,2.34375 -2.77343,0 -5.5664,-0.52734 -2.79297,-0.52734 -5.58594,-1.5625 l 0,-6.34766 q 2.79297,1.48438 5.39063,2.2461 2.61718,0.74219 5.03906,0.74219 2.46094,0 3.76953,-0.82032 1.30859,-0.82031 1.30859,-2.34375 0,-1.36718 -0.89843,-2.10937 -0.87891,-0.74219 -3.53516,-1.32813 l -2.91016,-0.64453 q -4.375,-0.9375 -6.40625,-2.98828 -2.01172,-2.05078 -2.01172,-5.52734 0,-4.35547 2.8125,-6.69922 2.8125,-2.34375 8.08594,-2.34375 2.40235,0 4.94141,0.37109 2.53906,0.35156 5.2539,1.07422 z" />
      </g>
    </g>
  </g>
</svg>
