<?xml version="1.0" encoding="UTF-8" standalone="no"?>
<!-- Created with Inkscape (http://www.inkscape.org/) -->

<svg
   xmlns:dc="http://purl.org/dc/elements/1.1/"
   xmlns:cc="http://creativecommons.org/ns#"
   xmlns:rdf="http://www.w3.org/1999/02/22-rdf-syntax-ns#"
   xmlns:svg="http://www.w3.org/2000/svg"
   xmlns="http://www.w3.org/2000/svg"
   xmlns:sodipodi="http://sodipodi.sourceforge.net/DTD/sodipodi-0.dtd"
   xmlns:inkscape="http://www.inkscape.org/namespaces/inkscape"
   width="500"
   height="500"
   id="svg2"
   version="1.1"
   inkscape:version="0.91 r13725"
   sodipodi:docname="application-x-srtrip.svg">
  <defs
     id="defs4" />
  <sodipodi:namedview
     id="base"
     pagecolor="#ffffff"
     bordercolor="#666666"
     borderopacity="1.0"
     inkscape:pageopacity="0.0"
     inkscape:pageshadow="2"
     inkscape:zoom="0.30333332"
     inkscape:cx="114.2522"
     inkscape:cy="233.26817"
     inkscape:document-units="px"
     inkscape:current-layer="layer1"
     showgrid="false"
     inkscape:window-width="1366"
     inkscape:window-height="715"
     inkscape:window-x="0"
     inkscape:window-y="24"
     inkscape:window-maximized="1" />
  <metadata
     id="metadata7">
    <rdf:RDF>
      <cc:Work
         rdf:about="">
        <dc:format>image/svg+xml</dc:format>
        <dc:type
           rdf:resource="http://purl.org/dc/dcmitype/StillImage" />
        <dc:title />
      </cc:Work>
    </rdf:RDF>
  </metadata>
  <g
     inkscape:label="Layer 1"
     inkscape:groupmode="layer"
     id="layer1"
     transform="translate(0,-552.36218)">
    <g
       id="g3419">
      <path
         inkscape:connector-curvature="0"
         id="path3364"
         d="m 97.040974,1029.8357 336.888376,-1.1739 1.17377,-363.88639 -88.03697,-89.21086 -250.025176,0 z"
         style="fill:#f2f2f2;fill-rule:evenodd;stroke:#afafaf;stroke-width:5.03546047;stroke-linecap:butt;stroke-linejoin:miter;stroke-miterlimit:4;stroke-dasharray:none;stroke-opacity:1" />
      <path
         inkscape:connector-curvature="0"
         id="rect4228"
         d="m 97.041016,907.86724 0,121.96756 336.888674,-1.0485 0.4375,-120.91906 -337.326174,0 z"
         style="fill:#004455;fill-opacity:1;stroke:none;stroke-width:5;stroke-miterlimit:4;stroke-dasharray:none;stroke-opacity:1" />
      <g
         id="g3400"
         transform="translate(-0.89594279,-134.89035)">
        <rect
           style="fill:#00bbf2;fill-opacity:1;stroke:none"
           id="rect2997"
           width="249.04848"
           height="147.99477"
           x="143.11246"
           y="877.60632"
           ry="12.387236" />
        <path
           style="fill:#004455;fill-opacity:1;stroke:none"
           d="m 143.26924,891.30035 254.01373,0.922 0,-27.66029 -254.01373,0 z"
           id="path2999"
           inkscape:connector-curvature="0"
           sodipodi:nodetypes="ccccc" />
        <path
           style="fill:#ffffff;stroke:none"
           d="m 206.36137,891.52149 -25.52022,-0.0907 26.2924,-26.86589 25.5051,0.10159 z"
           id="path3769"
           inkscape:connector-curvature="0"
           sodipodi:nodetypes="ccccc" />
        <path
           style="fill:#ffffff;stroke:none"
           d="m 258.90839,891.55013 -25.52022,-0.0907 26.29251,-26.86589 25.50506,0.1016 z"
           id="path3769-3"
           inkscape:connector-curvature="0"
           sodipodi:nodetypes="ccccc" />
        <path
           style="fill:#ffffff;stroke:none"
           d="m 312.45882,891.46821 -25.52029,-0.0907 26.29246,-26.86588 25.50506,0.10159 z"
           id="path3769-6"
           inkscape:connector-curvature="0"
           sodipodi:nodetypes="ccccc" />
        <path
           style="fill:#ffffff;stroke:none"
           d="m 365.00578,891.49685 -25.52016,-0.0907 26.29246,-26.86588 25.50505,0.10159 z"
           id="path3769-3-7"
           inkscape:connector-curvature="0"
           sodipodi:nodetypes="ccccc" />
        <path
           style="fill:#004455;fill-opacity:1;stroke:none"
           d="m 135.27816,839.04378 242.07862,-76.95301 8.28385,26.39071 -242.35475,76.07333 z"
           id="path2999-3"
           inkscape:connector-curvature="0"
           sodipodi:nodetypes="ccccc" />
        <path
           style="fill:#ffffff;stroke:none"
           d="m 195.4082,819.93764 -24.3217,7.7295 33.13155,17.75859 24.30401,-7.73532 z"
           id="path3769-5"
           inkscape:connector-curvature="0"
           sodipodi:nodetypes="ccccc" />
        <path
           style="fill:#ffffff;stroke:none"
           d="m 245.53478,804.17326 -24.32168,7.7295 33.13163,17.75856 24.30398,-7.73531 z"
           id="path3769-3-6"
           inkscape:connector-curvature="0"
           sodipodi:nodetypes="ccccc" />
        <path
           style="fill:#ffffff;stroke:none"
           d="m 296.65184,788.21387 -24.32176,7.72952 33.13159,17.75857 24.30398,-7.73531 z"
           id="path3769-6-2"
           inkscape:connector-curvature="0"
           sodipodi:nodetypes="ccccc" />
        <path
           style="fill:#ffffff;stroke:none"
           d="m 346.77837,772.44951 -24.32164,7.72949 33.13159,17.75856 24.30398,-7.73531 z"
           id="path3769-3-7-9"
           inkscape:connector-curvature="0"
           sodipodi:nodetypes="ccccc" />
        <path
           style="fill:#00bbf2;fill-opacity:1;stroke:none"
           d="m 143.13733,891.7633 39.93253,0 c 0,0 5.30392,-16.66171 5.24826,-16.88575 l -20.53671,-36.67918 -25.10044,0.0554 z"
           id="path3861"
           inkscape:connector-curvature="0"
           sodipodi:nodetypes="cccccc" />
        <path
           sodipodi:type="arc"
           style="fill:#ffffff;fill-opacity:1;stroke:none"
           id="path3863"
           sodipodi:cx="150.74345"
           sodipodi:cy="845.01349"
           sodipodi:rx="3.6509724"
           sodipodi:ry="3.6509724"
           d="m 154.39443,845.01349 a 3.6509724,3.6509724 0 0 1 -3.64669,3.65097 3.6509724,3.6509724 0 0 1 -3.65525,-3.6424 3.6509724,3.6509724 0 0 1 3.63811,-3.65952 3.6509724,3.6509724 0 0 1 3.66379,3.63381"
           sodipodi:start="0"
           sodipodi:end="6.2784904"
           sodipodi:open="true" />
        <path
           sodipodi:type="arc"
           style="fill:#ffffff;fill-opacity:1;stroke:none"
           id="path3863-1"
           sodipodi:cx="150.97165"
           sodipodi:cy="883.34869"
           sodipodi:rx="3.6509724"
           sodipodi:ry="3.6509724"
           d="m 154.62262,883.34869 a 3.6509724,3.6509724 0 0 1 -3.64669,3.65097 3.6509724,3.6509724 0 0 1 -3.65524,-3.6424 3.6509724,3.6509724 0 0 1 3.6381,-3.65952 3.6509724,3.6509724 0 0 1 3.66379,3.63381"
           sodipodi:start="0"
           sodipodi:end="6.2784904"
           sodipodi:open="true" />
        <path
           sodipodi:type="arc"
           style="fill:#ffffff;fill-opacity:1;stroke:none"
           id="path3863-2"
           sodipodi:cx="177.8976"
           sodipodi:cy="884.48962"
           sodipodi:rx="3.6509724"
           sodipodi:ry="3.6509724"
           d="m 181.54857,884.48962 a 3.6509724,3.6509724 0 0 1 -3.64669,3.65097 3.6509724,3.6509724 0 0 1 -3.65524,-3.6424 3.6509724,3.6509724 0 0 1 3.6381,-3.65952 3.6509724,3.6509724 0 0 1 3.66379,3.63381"
           sodipodi:start="0"
           sodipodi:end="6.2784904"
           sodipodi:open="true" />
        <path
           inkscape:connector-curvature="0"
           style="opacity:1;fill:#004455;fill-opacity:1;stroke:none;stroke-width:0.5;stroke-linecap:round;stroke-miterlimit:4;stroke-dasharray:none;stroke-opacity:1"
           d="m 143.11328,960.2821 0,51.2852 249.04688,0 0,-51.2852 -249.04688,0 z"
           id="rect4362" />
        <g
           transform="translate(8,554.36218)"
           style="font-style:normal;font-weight:normal;font-size:40px;line-height:125%;font-family:sans-serif;letter-spacing:0px;word-spacing:0px;fill:#ffffff;fill-opacity:1;stroke:none;stroke-width:1px;stroke-linecap:butt;stroke-linejoin:miter;stroke-opacity:1"
           id="flowRoot4392">
          <path
             d="m 179.73437,418.49497 0,6.17187 q -2.40234,-1.07422 -4.6875,-1.62109 -2.28515,-0.54688 -4.3164,-0.54688 -2.69531,0 -3.98438,0.74219 -1.28906,0.74219 -1.28906,2.30469 0,1.17187 0.85938,1.83594 0.8789,0.64453 3.16406,1.11328 l 3.20312,0.64453 q 4.86328,0.97656 6.91407,2.96875 2.05078,1.99219 2.05078,5.66406 0,4.82422 -2.8711,7.1875 -2.85156,2.34375 -8.73047,2.34375 -2.77343,0 -5.5664,-0.52734 -2.79297,-0.52735 -5.58594,-1.5625 l 0,-6.34766 q 2.79297,1.48438 5.39063,2.24609 2.61718,0.74219 5.03906,0.74219 2.46094,0 3.76953,-0.82031 1.30859,-0.82031 1.30859,-2.34375 0,-1.36719 -0.89843,-2.10938 -0.87891,-0.74218 -3.53516,-1.32812 l -2.91016,-0.64453 q -4.375,-0.9375 -6.40625,-2.98828 -2.01172,-2.05078 -2.01172,-5.52735 0,-4.35547 2.8125,-6.69922 2.8125,-2.34375 8.08594,-2.34375 2.40235,0 4.94141,0.3711 2.53906,0.35156 5.2539,1.07422 z"
             style="font-style:normal;font-variant:normal;font-weight:bold;font-stretch:normal;font-family:sans-serif;-inkscape-font-specification:'sans-serif Bold';fill:#ffffff"
             id="path4401"
             inkscape:connector-curvature="0" />
          <path
             d="m 188.26953,417.577 7.51953,0 0,17.48047 q 0,3.61328 1.17188,5.17578 1.1914,1.54297 3.86718,1.54297 2.69532,0 3.86719,-1.54297 1.19141,-1.5625 1.19141,-5.17578 l 0,-17.48047 7.51953,0 0,17.48047 q 0,6.1914 -3.10547,9.21875 -3.10547,3.02734 -9.47266,3.02734 -6.34765,0 -9.45312,-3.02734 -3.10547,-3.02735 -3.10547,-9.21875 l 0,-17.48047 z"
             style="font-style:normal;font-variant:normal;font-weight:bold;font-stretch:normal;font-family:sans-serif;-inkscape-font-specification:'sans-serif Bold';fill:#ffffff"
             id="path4403"
             inkscape:connector-curvature="0" />
          <path
             d="m 232.44922,428.86606 q 1.77734,0 2.69531,-0.78125 0.91797,-0.78125 0.91797,-2.30469 0,-1.5039 -0.91797,-2.28515 -0.91797,-0.80078 -2.69531,-0.80078 l -4.16016,0 0,6.17187 4.16016,0 z m 0.2539,12.75391 q 2.26563,0 3.39844,-0.95703 1.15235,-0.95704 1.15235,-2.89063 0,-1.89453 -1.13282,-2.83203 -1.13281,-0.95703 -3.41797,-0.95703 l -4.41406,0 0,7.63672 4.41406,0 z m 6.99219,-10.48828 q 2.42188,0.70312 3.75,2.59765 1.32813,1.89453 1.32813,4.64844 0,4.21875 -2.85157,6.28906 -2.85156,2.07031 -8.67187,2.07031 l -12.48047,0 0,-29.16015 11.28906,0 q 6.07422,0 8.78907,1.83594 2.73437,1.83593 2.73437,5.8789 0,2.12891 -0.99609,3.63281 -0.9961,1.48438 -2.89063,2.20704 z"
             style="font-style:normal;font-variant:normal;font-weight:bold;font-stretch:normal;font-family:sans-serif;-inkscape-font-specification:'sans-serif Bold';fill:#ffffff"
             id="path4405"
             inkscape:connector-curvature="0" />
          <path
             d="m 247.76172,417.577 26.875,0 0,5.68359 -9.66797,0 0,23.47656 -7.51953,0 0,-23.47656 -9.6875,0 0,-5.68359 z"
             style="font-style:normal;font-variant:normal;font-weight:bold;font-stretch:normal;font-family:sans-serif;-inkscape-font-specification:'sans-serif Bold';fill:#ffffff"
             id="path4407"
             inkscape:connector-curvature="0" />
          <path
             d="m 278.50391,417.577 7.51953,0 0,29.16015 -7.51953,0 0,-29.16015 z"
             style="font-style:normal;font-variant:normal;font-weight:bold;font-stretch:normal;font-family:sans-serif;-inkscape-font-specification:'sans-serif Bold';fill:#ffffff"
             id="path4409"
             inkscape:connector-curvature="0" />
          <path
             d="m 289.94922,417.577 26.875,0 0,5.68359 -9.66797,0 0,23.47656 -7.51953,0 0,-23.47656 -9.6875,0 0,-5.68359 z"
             style="font-style:normal;font-variant:normal;font-weight:bold;font-stretch:normal;font-family:sans-serif;-inkscape-font-specification:'sans-serif Bold';fill:#ffffff"
             id="path4411"
             inkscape:connector-curvature="0" />
          <path
             d="m 320.69141,417.577 7.51953,0 0,23.47656 13.20312,0 0,5.68359 -20.72265,0 0,-29.16015 z"
             style="font-style:normal;font-variant:normal;font-weight:bold;font-stretch:normal;font-family:sans-serif;-inkscape-font-specification:'sans-serif Bold';fill:#ffffff"
             id="path4413"
             inkscape:connector-curvature="0" />
          <path
             d="m 346.16016,417.577 20.29296,0 0,5.68359 -12.77343,0 0,5.42969 12.01172,0 0,5.68359 -12.01172,0 0,6.67969 13.20312,0 0,5.68359 -20.72265,0 0,-29.16015 z"
             style="font-style:normal;font-variant:normal;font-weight:bold;font-stretch:normal;font-family:sans-serif;-inkscape-font-specification:'sans-serif Bold';fill:#ffffff"
             id="path4415"
             inkscape:connector-curvature="0" />
        </g>
      </g>
      <g
         id="flowRoot3398"
         style="font-style:normal;font-weight:normal;font-size:40px;line-height:125%;font-family:sans-serif;letter-spacing:0px;word-spacing:0px;fill:#ffffff;fill-opacity:1;stroke:none;stroke-width:1px;stroke-linecap:butt;stroke-linejoin:miter;stroke-opacity:1"
         transform="matrix(2.0263255,0,0,2.0263255,-99.995987,157.94363)">
        <path
           inkscape:connector-curvature="0"
           id="path3407"
           style="font-style:normal;font-variant:normal;font-weight:bold;font-stretch:normal;font-family:sans-serif;-inkscape-font-specification:'sans-serif Bold';fill:#ffffff"
           d="m 124.20313,385.74692 0,6.17187 q -2.40235,-1.07421 -4.6875,-1.62109 -2.28516,-0.54687 -4.31641,-0.54687 -2.69531,0 -3.98438,0.74218 -1.28906,0.74219 -1.28906,2.30469 0,1.17188 0.85938,1.83594 0.8789,0.64453 3.16406,1.11328 l 3.20312,0.64453 q 4.86329,0.97656 6.91407,2.96875 2.05078,1.99219 2.05078,5.66406 0,4.82422 -2.8711,7.1875 -2.85156,2.34375 -8.73046,2.34375 -2.77344,0 -5.56641,-0.52734 -2.79297,-0.52734 -5.58594,-1.5625 l 0,-6.34766 q 2.79297,1.48438 5.39063,2.2461 2.61718,0.74218 5.03906,0.74218 2.46094,0 3.76953,-0.82031 1.30859,-0.82031 1.30859,-2.34375 0,-1.36719 -0.89843,-2.10937 -0.87891,-0.74219 -3.53516,-1.32813 l -2.91016,-0.64453 q -4.375,-0.9375 -6.40625,-2.98828 -2.01171,-2.05078 -2.01171,-5.52734 0,-4.35547 2.8125,-6.69922 2.8125,-2.34375 8.08593,-2.34375 2.40235,0 4.94141,0.37109 2.53906,0.35156 5.25391,1.07422 z" />
        <path
           inkscape:connector-curvature="0"
           id="path3409"
           style="font-style:normal;font-variant:normal;font-weight:bold;font-stretch:normal;font-family:sans-serif;-inkscape-font-specification:'sans-serif Bold';fill:#ffffff"
           d="m 143.42187,397.75864 q 2.36329,0 3.37891,-0.87891 1.03516,-0.8789 1.03516,-2.89062 0,-1.99219 -1.03516,-2.85157 -1.01562,-0.85937 -3.37891,-0.85937 l -3.16406,0 0,7.48047 3.16406,0 z m -3.16406,5.19531 0,11.03516 -7.51953,0 0,-29.16016 11.48438,0 q 5.76171,0 8.4375,1.93359 2.69531,1.9336 2.69531,6.11329 0,2.89062 -1.40625,4.74609 -1.38672,1.85547 -4.19922,2.73437 1.54297,0.35157 2.75391,1.60157 1.23046,1.23047 2.48046,3.75 l 4.08204,8.28125 -8.00782,0 -3.55468,-7.2461 q -1.07422,-2.1875 -2.1875,-2.98828 -1.09375,-0.80078 -2.92969,-0.80078 l -2.12891,0 z" />
        <path
           inkscape:connector-curvature="0"
           id="path3411"
           style="font-style:normal;font-variant:normal;font-weight:bold;font-stretch:normal;font-family:sans-serif;-inkscape-font-specification:'sans-serif Bold';fill:#ffffff"
           d="m 158.24609,384.82895 26.875,0 0,5.68359 -9.66797,0 0,23.47657 -7.51953,0 0,-23.47657 -9.6875,0 0,-5.68359 z" />
        <path
           inkscape:connector-curvature="0"
           id="path3413"
           style="font-style:normal;font-variant:normal;font-weight:bold;font-stretch:normal;font-family:sans-serif;-inkscape-font-specification:'sans-serif Bold';fill:#ffffff"
           d="m 199.67187,397.75864 q 2.36329,0 3.37891,-0.87891 1.03516,-0.8789 1.03516,-2.89062 0,-1.99219 -1.03516,-2.85157 -1.01562,-0.85937 -3.37891,-0.85937 l -3.16406,0 0,7.48047 3.16406,0 z m -3.16406,5.19531 0,11.03516 -7.51953,0 0,-29.16016 11.48438,0 q 5.76171,0 8.4375,1.93359 2.69531,1.9336 2.69531,6.11329 0,2.89062 -1.40625,4.74609 -1.38672,1.85547 -4.19922,2.73437 1.54297,0.35157 2.75391,1.60157 1.23046,1.23047 2.48046,3.75 l 4.08204,8.28125 -8.00782,0 -3.55468,-7.2461 q -1.07422,-2.1875 -2.1875,-2.98828 -1.09375,-0.80078 -2.92969,-0.80078 l -2.12891,0 z" />
        <path
           inkscape:connector-curvature="0"
           id="path3415"
           style="font-style:normal;font-variant:normal;font-weight:bold;font-stretch:normal;font-family:sans-serif;-inkscape-font-specification:'sans-serif Bold';fill:#ffffff"
           d="m 219.76953,384.82895 7.51953,0 0,29.16016 -7.51953,0 0,-29.16016 z" />
        <path
           inkscape:connector-curvature="0"
           id="path3417"
           style="font-style:normal;font-variant:normal;font-weight:bold;font-stretch:normal;font-family:sans-serif;-inkscape-font-specification:'sans-serif Bold';fill:#ffffff"
           d="m 234.69141,384.82895 12.48046,0 q 5.56641,0 8.53516,2.48047 2.98828,2.46094 2.98828,7.03125 0,4.58984 -2.98828,7.07031 -2.96875,2.46094 -8.53516,2.46094 l -4.96093,0 0,10.11719 -7.51953,0 0,-29.16016 z m 7.51953,5.44922 0,8.14453 4.16015,0 q 2.1875,0 3.37891,-1.05469 1.19141,-1.07422 1.19141,-3.02734 0,-1.95313 -1.19141,-3.00781 -1.19141,-1.05469 -3.37891,-1.05469 l -4.16015,0 z" />
      </g>
    </g>
  </g>
</svg>
