<?xml version="1.0" encoding="UTF-8" standalone="no"?>
<!-- Created with Inkscape (http://www.inkscape.org/) -->

<svg
   xmlns:dc="http://purl.org/dc/elements/1.1/"
   xmlns:cc="http://creativecommons.org/ns#"
   xmlns:rdf="http://www.w3.org/1999/02/22-rdf-syntax-ns#"
   xmlns:svg="http://www.w3.org/2000/svg"
   xmlns="http://www.w3.org/2000/svg"
   xmlns:sodipodi="http://sodipodi.sourceforge.net/DTD/sodipodi-0.dtd"
   xmlns:inkscape="http://www.inkscape.org/namespaces/inkscape"
   width="500"
   height="500"
   id="svg2"
   version="1.1"
   inkscape:version="0.91 r13725"
   sodipodi:docname="zzzzzz.svg">
  <defs
     id="defs4" />
  <sodipodi:namedview
     id="base"
     pagecolor="#ffffff"
     bordercolor="#666666"
     borderopacity="1.0"
     inkscape:pageopacity="0.0"
     inkscape:pageshadow="2"
     inkscape:zoom="0.42897809"
     inkscape:cx="-144.98055"
     inkscape:cy="252.61294"
     inkscape:document-units="px"
     inkscape:current-layer="layer1"
     showgrid="false"
     inkscape:window-width="1366"
     inkscape:window-height="715"
     inkscape:window-x="0"
     inkscape:window-y="24"
     inkscape:window-maximized="1" />
  <metadata
     id="metadata7">
    <rdf:RDF>
      <cc:Work
         rdf:about="">
        <dc:format>image/svg+xml</dc:format>
        <dc:type
           rdf:resource="http://purl.org/dc/dcmitype/StillImage" />
        <dc:title />
      </cc:Work>
    </rdf:RDF>
  </metadata>
  <g
     inkscape:label="Layer 1"
     inkscape:groupmode="layer"
     id="layer1"
     transform="translate(0,-552.36218)">
    <g
       id="g4185">
      <path
         inkscape:connector-curvature="0"
         id="path3364"
         d="m 97.040974,1029.8357 336.888376,-1.1739 1.17377,-363.88639 -88.03697,-89.21086 -250.025176,0 z"
         style="fill:#f2f2f2;fill-rule:evenodd;stroke:#afafaf;stroke-width:5.03546047;stroke-linecap:butt;stroke-linejoin:miter;stroke-miterlimit:4;stroke-dasharray:none;stroke-opacity:1" />
      <path
         inkscape:connector-curvature="0"
         id="rect4228"
         d="m 97.041016,907.86724 0,121.96756 336.888674,-1.0485 0.4375,-120.91906 -337.326174,0 z"
         style="fill:#00bbf2;fill-opacity:1;stroke:none;stroke-width:5;stroke-miterlimit:4;stroke-dasharray:none;stroke-opacity:1" />
      <g
         id="g4170"
         transform="matrix(0.89810189,0,0,0.89810189,13.0936,-60.974934)">
        <rect
           style="fill:none;fill-opacity:1;stroke:#00bbf2;stroke-width:10.27064514;stroke-linecap:butt;stroke-linejoin:round;stroke-miterlimit:4;stroke-dasharray:none;stroke-opacity:1"
           id="rect4192"
           width="172.76912"
           height="199.35089"
           x="224.91071"
           y="798.66516" />
        <rect
           style="fill:#00bbf2;fill-opacity:1;stroke:none;stroke-width:8.59799957;stroke-linecap:butt;stroke-linejoin:round;stroke-miterlimit:4;stroke-dasharray:none;stroke-opacity:1"
           id="rect4194"
           width="106.16345"
           height="12.878844"
           x="267.13062"
           y="819.93274" />
        <rect
           style="fill:#00bbf2;fill-opacity:1;stroke:none;stroke-width:8.59799957;stroke-linecap:butt;stroke-linejoin:round;stroke-miterlimit:4;stroke-dasharray:none;stroke-opacity:1"
           id="rect4194-2"
           width="106.16345"
           height="12.878844"
           x="267.72156"
           y="848.32025" />
        <rect
           style="fill:#00bbf2;fill-opacity:1;stroke:none;stroke-width:8.59799957;stroke-linecap:butt;stroke-linejoin:round;stroke-miterlimit:4;stroke-dasharray:none;stroke-opacity:1"
           id="rect4194-0"
           width="106.16345"
           height="12.878844"
           x="267.47876"
           y="876.84338" />
        <rect
           style="fill:#00bbf2;fill-opacity:1;stroke:none;stroke-width:8.59799957;stroke-linecap:butt;stroke-linejoin:round;stroke-miterlimit:4;stroke-dasharray:none;stroke-opacity:1"
           id="rect4194-23"
           width="106.16345"
           height="12.878844"
           x="267.4787"
           y="904.86359" />
        <rect
           style="fill:#00bbf2;fill-opacity:1;stroke:none;stroke-width:8.59799957;stroke-linecap:butt;stroke-linejoin:round;stroke-miterlimit:4;stroke-dasharray:none;stroke-opacity:1"
           id="rect4194-5"
           width="106.16345"
           height="12.878844"
           x="266.95657"
           y="933.0578" />
        <rect
           style="fill:#00bbf2;fill-opacity:1;stroke:none;stroke-width:8.59799957;stroke-linecap:butt;stroke-linejoin:round;stroke-miterlimit:4;stroke-dasharray:none;stroke-opacity:1"
           id="rect4194-51"
           width="106.16345"
           height="12.878844"
           x="267.30466"
           y="961.25201" />
        <rect
           style="fill:#1a1a1a;fill-opacity:0.39207076;stroke:none;stroke-width:8.59799957;stroke-linecap:butt;stroke-linejoin:round;stroke-miterlimit:4;stroke-dasharray:none;stroke-opacity:1"
           id="rect4244"
           width="61.039627"
           height="209.29285"
           x="253.10071"
           y="794.01361" />
        <path
           style="fill:#00bbf2;fill-opacity:1;fill-rule:evenodd;stroke:none;stroke-width:1px;stroke-linecap:butt;stroke-linejoin:miter;stroke-opacity:1"
           d="m 286.11738,762.74812 -158.30223,30.4763 0.28836,202.8526 157.52162,31.01208 z"
           id="path3390"
           inkscape:connector-curvature="0"
           sodipodi:nodetypes="ccccc" />
        <path
           style="fill:#ffffff;fill-opacity:1;fill-rule:evenodd;stroke:none;stroke-width:1px;stroke-linecap:butt;stroke-linejoin:miter;stroke-opacity:1"
           d="m 153.11511,855.88122 15.8375,-0.69616 10.09423,58.12885 12.87884,-60.39135 17.05577,-0.69616 13.92308,62.47981 10.96442,-65.09038 19.66634,-0.69615 -20.88461,88.06345 -19.66634,-0.8702 -13.575,-58.4769 -12.1827,56.73652 -17.40384,-1.04423 z"
           id="path4248"
           inkscape:connector-curvature="0" />
      </g>
      <g
         id="flowRoot4168"
         style="font-style:normal;font-weight:normal;font-size:40px;line-height:125%;font-family:sans-serif;letter-spacing:0px;word-spacing:0px;fill:#000000;fill-opacity:1;stroke:none;stroke-width:1px;stroke-linecap:butt;stroke-linejoin:miter;stroke-opacity:1"
         transform="matrix(2.3416411,0,0,2.3416411,-138.25,53.010477)">
        <path
           inkscape:connector-curvature="0"
           id="path4177"
           style="font-style:normal;font-variant:normal;font-weight:bold;font-stretch:normal;font-family:sans-serif;-inkscape-font-specification:'sans-serif Bold';fill:#ffffff"
           d="m 115.03711,382.87778 0,17.79297 2.69531,0 q 4.60938,0 7.03125,-2.28516 2.44141,-2.28515 2.44141,-6.64062 0,-4.33594 -2.42188,-6.60157 -2.42187,-2.26562 -7.05078,-2.26562 l -2.69531,0 z m -7.51953,-5.68359 7.92969,0 q 6.64062,0 9.88281,0.95703 3.26172,0.9375 5.58594,3.20312 2.05078,1.97266 3.04687,4.55078 0.99609,2.57813 0.99609,5.83985 0,3.30078 -0.99609,5.89843 -0.99609,2.57813 -3.04687,4.55079 -2.34375,2.26562 -5.625,3.22265 -3.28125,0.9375 -9.84375,0.9375 l -7.92969,0 0,-29.16015 z" />
        <path
           inkscape:connector-curvature="0"
           id="path4179"
           style="font-style:normal;font-variant:normal;font-weight:bold;font-stretch:normal;font-family:sans-serif;-inkscape-font-specification:'sans-serif Bold';fill:#ffffff"
           d="m 154.04102,382.11606 q -3.4375,0 -5.33204,2.53906 -1.89453,2.53907 -1.89453,7.14844 0,4.58984 1.89453,7.12891 1.89454,2.53906 5.33204,2.53906 3.45703,0 5.35156,-2.53906 1.89453,-2.53907 1.89453,-7.12891 0,-4.60937 -1.89453,-7.14844 -1.89453,-2.53906 -5.35156,-2.53906 z m 0,-5.44922 q 7.03125,0 11.01562,4.02344 3.98438,4.02344 3.98438,11.11328 0,7.07031 -3.98438,11.09375 -3.98437,4.02344 -11.01562,4.02344 -7.01172,0 -11.01563,-4.02344 -3.98437,-4.02344 -3.98437,-11.09375 0,-7.08984 3.98437,-11.11328 4.00391,-4.02344 11.01563,-4.02344 z" />
        <path
           inkscape:connector-curvature="0"
           id="path4181"
           style="font-style:normal;font-variant:normal;font-weight:bold;font-stretch:normal;font-family:sans-serif;-inkscape-font-specification:'sans-serif Bold';fill:#ffffff"
           d="m 197.83008,404.75278 q -2.07031,1.07422 -4.31641,1.62109 -2.24609,0.54688 -4.6875,0.54688 -7.28515,0 -11.54297,-4.0625 -4.25781,-4.08203 -4.25781,-11.05469 0,-6.99219 4.25781,-11.05469 4.25782,-4.08203 11.54297,-4.08203 2.44141,0 4.6875,0.54688 2.2461,0.54687 4.31641,1.62109 l 0,6.03516 q -2.08985,-1.42578 -4.1211,-2.08985 -2.03125,-0.66406 -4.27734,-0.66406 -4.02344,0 -6.32812,2.57813 -2.30469,2.57812 -2.30469,7.10937 0,4.51172 2.30469,7.08984 2.30468,2.57813 6.32812,2.57813 2.24609,0 4.27734,-0.66406 2.03125,-0.66407 4.1211,-2.08985 l 0,6.03516 z" />
        <path
           inkscape:connector-curvature="0"
           id="path4183"
           style="font-style:normal;font-variant:normal;font-weight:bold;font-stretch:normal;font-family:sans-serif;-inkscape-font-specification:'sans-serif Bold';fill:#ffffff"
           d="m 204.08008,377.19419 9.57031,0 6.64063,15.60546 6.67968,-15.60546 9.55078,0 0,29.16015 -7.10937,0 0,-21.32812 -6.71875,15.72265 -4.76563,0 -6.71875,-15.72265 0,21.32812 -7.1289,0 0,-29.16015 z" />
      </g>
    </g>
  </g>
</svg>
