<?xml version="1.0" encoding="UTF-8" standalone="no"?>
<!-- Created with Inkscape (http://www.inkscape.org/) -->

<svg
   xmlns:dc="http://purl.org/dc/elements/1.1/"
   xmlns:cc="http://creativecommons.org/ns#"
   xmlns:rdf="http://www.w3.org/1999/02/22-rdf-syntax-ns#"
   xmlns:svg="http://www.w3.org/2000/svg"
   xmlns="http://www.w3.org/2000/svg"
   xmlns:sodipodi="http://sodipodi.sourceforge.net/DTD/sodipodi-0.dtd"
   xmlns:inkscape="http://www.inkscape.org/namespaces/inkscape"
   width="500"
   height="500"
   id="svg2"
   version="1.1"
   inkscape:version="0.91 r13725"
   sodipodi:docname="application-vnd.sun.xml.writer.global.svg">
  <defs
     id="defs4" />
  <sodipodi:namedview
     id="base"
     pagecolor="#ffffff"
     bordercolor="#666666"
     borderopacity="1.0"
     inkscape:pageopacity="0.0"
     inkscape:pageshadow="2"
     inkscape:zoom="0.4289781"
     inkscape:cx="346.74056"
     inkscape:cy="232.89696"
     inkscape:document-units="px"
     inkscape:current-layer="layer1"
     showgrid="false"
     inkscape:window-width="1366"
     inkscape:window-height="715"
     inkscape:window-x="0"
     inkscape:window-y="24"
     inkscape:window-maximized="1" />
  <metadata
     id="metadata7">
    <rdf:RDF>
      <cc:Work
         rdf:about="">
        <dc:format>image/svg+xml</dc:format>
        <dc:type
           rdf:resource="http://purl.org/dc/dcmitype/StillImage" />
        <dc:title />
      </cc:Work>
    </rdf:RDF>
  </metadata>
  <g
     inkscape:label="Layer 1"
     inkscape:groupmode="layer"
     id="layer1"
     transform="translate(0,-552.36218)">
    <g
       id="g4183">
      <path
         inkscape:connector-curvature="0"
         id="path3364"
         d="m 97.040974,1029.8357 336.888376,-1.1739 1.17377,-363.88639 -88.03697,-89.21086 -250.025176,0 z"
         style="fill:#f2f2f2;fill-rule:evenodd;stroke:#afafaf;stroke-width:5.03546047;stroke-linecap:butt;stroke-linejoin:miter;stroke-miterlimit:4;stroke-dasharray:none;stroke-opacity:1" />
      <path
         inkscape:connector-curvature="0"
         id="rect4228"
         d="m 97.041016,907.86724 0,121.96756 336.888674,-1.0485 0.4375,-120.91906 -337.326174,0 z"
         style="fill:#00bbf2;fill-opacity:1;stroke:none;stroke-width:5;stroke-miterlimit:4;stroke-dasharray:none;stroke-opacity:1" />
      <rect
         transform="scale(-1,1)"
         y="790.37714"
         x="-412.08792"
         height="12.142574"
         width="297.32489"
         id="rect2990-3"
         style="fill:#00bbf2;fill-opacity:1;stroke:none" />
      <rect
         transform="scale(-1,1)"
         y="820.8111"
         x="-412.08792"
         height="12.142574"
         width="297.77072"
         id="rect2990-3-7"
         style="fill:#00bbf2;fill-opacity:1;stroke:none" />
      <rect
         transform="scale(-1,1)"
         y="848.5545"
         x="-412.08792"
         height="12.142574"
         width="300"
         id="rect2990-3-5"
         style="fill:#00bbf2;fill-opacity:1;stroke:none" />
      <rect
         transform="scale(-1,1)"
         y="875.03656"
         x="-412.08792"
         height="12.142578"
         width="299.8844"
         id="rect2990-3-35"
         style="fill:#00bbf2;fill-opacity:1;stroke:none" />
      <rect
         transform="matrix(-0.99999986,5.2631278e-4,6.6188717e-4,0.99999978,0,0)"
         y="662.72858"
         x="-263.43182"
         height="109.42197"
         width="147.70581"
         id="rect2997"
         style="fill:#00bbf2;fill-opacity:1;stroke:#00bbf2;stroke-width:4.50626516;stroke-linecap:round;stroke-linejoin:round;stroke-miterlimit:4;stroke-dasharray:none;stroke-opacity:1" />
      <path
         sodipodi:open="true"
         sodipodi:end="6.2784904"
         sodipodi:start="0"
         transform="matrix(-0.99999982,6.0156637e-4,5.7908376e-4,0.99999983,0,0)"
         d="m -128.92672,694.72125 a 15.328697,15.328696 0 0 1 -15.31071,15.32869 15.328697,15.328696 0 0 1 -15.34664,-15.2927 15.328697,15.328696 0 0 1 15.27468,-15.36459 15.328697,15.328696 0 0 1 15.3825,15.25664"
         sodipodi:ry="15.328696"
         sodipodi:rx="15.328697"
         sodipodi:cy="694.72125"
         sodipodi:cx="-144.25542"
         id="path3767"
         style="fill:#ffcc00;fill-opacity:1;stroke:none"
         sodipodi:type="arc" />
      <path
         sodipodi:nodetypes="cccczzc"
         inkscape:connector-curvature="0"
         id="path3787"
         d="m 261.53626,729.4783 0.22761,40.47737 -143.40942,-0.10377 0.37954,-33.49274 c 0,0 20.24976,6.45531 37.76339,4.45771 17.51365,-1.99742 44.2147,-22.02408 62.85208,-22.77924 18.63736,-0.75514 42.1868,11.44046 42.1868,11.44046 z"
         style="fill:#004455;fill-opacity:1;stroke:none;stroke-width:0.18776105px;stroke-linecap:butt;stroke-linejoin:miter;stroke-opacity:1" />
      <rect
         transform="scale(-1,1)"
         y="761.77332"
         x="-412.08792"
         height="12.142574"
         width="130.73882"
         id="rect2990-3-35-6"
         style="fill:#00bbf2;fill-opacity:1;stroke:none" />
      <rect
         transform="scale(-1,1)"
         y="734.03015"
         x="-412.08792"
         height="12.142574"
         width="130.73882"
         id="rect2990-3-35-6-2"
         style="fill:#00bbf2;fill-opacity:1;stroke:none" />
      <rect
         transform="scale(-1,1)"
         y="707.54797"
         x="-412.08792"
         height="12.142574"
         width="130.73882"
         id="rect2990-3-35-6-9"
         style="fill:#00bbf2;fill-opacity:1;stroke:none" />
      <rect
         transform="scale(-1,1)"
         y="681.69629"
         x="-412.08792"
         height="12.142574"
         width="130.73882"
         id="rect2990-3-35-6-1"
         style="fill:#00bbf2;fill-opacity:1;stroke:none" />
      <g
         id="flowRoot4168"
         style="font-style:normal;font-weight:normal;font-size:40px;line-height:125%;font-family:sans-serif;letter-spacing:0px;word-spacing:0px;fill:#ffffff;fill-opacity:1;stroke:none;stroke-width:1px;stroke-linecap:butt;stroke-linejoin:miter;stroke-opacity:1"
         transform="matrix(2.9748221,0,0,2.9748221,-278.7953,-226.25677)">
        <path
           inkscape:connector-curvature="0"
           id="path4177"
           style="font-style:normal;font-variant:normal;font-weight:bold;font-stretch:normal;font-family:sans-serif;-inkscape-font-specification:'sans-serif Bold';fill:#ffffff"
           d="m 160.77734,388.00083 0,6.17187 q -2.40234,-1.07422 -4.6875,-1.62109 -2.28515,-0.54688 -4.3164,-0.54688 -2.69532,0 -3.98438,0.74219 -1.28906,0.74219 -1.28906,2.30469 0,1.17187 0.85937,1.83593 0.87891,0.64454 3.16407,1.11329 l 3.20312,0.64453 q 4.86328,0.97656 6.91406,2.96875 2.05079,1.99218 2.05079,5.66406 0,4.82422 -2.8711,7.1875 -2.85156,2.34375 -8.73047,2.34375 -2.77343,0 -5.5664,-0.52734 -2.79297,-0.52735 -5.58594,-1.5625 l 0,-6.34766 q 2.79297,1.48437 5.39062,2.24609 2.61719,0.74219 5.03907,0.74219 2.46093,0 3.76953,-0.82031 1.30859,-0.82031 1.30859,-2.34375 0,-1.36719 -0.89844,-2.10938 -0.8789,-0.74218 -3.53515,-1.32812 l -2.91016,-0.64453 q -4.375,-0.9375 -6.40625,-2.98828 -2.01172,-2.05079 -2.01172,-5.52735 0,-4.35547 2.8125,-6.69922 2.8125,-2.34375 8.08594,-2.34375 2.40234,0 4.94141,0.3711 2.53906,0.35156 5.2539,1.07422 z" />
        <path
           inkscape:connector-curvature="0"
           id="path4179"
           style="font-style:normal;font-variant:normal;font-weight:bold;font-stretch:normal;font-family:sans-serif;-inkscape-font-specification:'sans-serif Bold';fill:#ffffff"
           d="m 185.5625,401.3602 10.11719,14.88281 -7.83203,0 -6.81641,-9.96093 -6.75781,9.96093 -7.8711,0 10.11719,-14.88281 -9.72656,-14.27734 7.85156,0 6.38672,9.39453 6.36719,-9.39453 7.89062,0 -9.72656,14.27734 z" />
        <path
           inkscape:connector-curvature="0"
           id="path4181"
           style="font-style:normal;font-variant:normal;font-weight:bold;font-stretch:normal;font-family:sans-serif;-inkscape-font-specification:'sans-serif Bold';fill:#ffffff"
           d="m 226.38281,414.07504 q -2.8125,1.36719 -5.83984,2.05079 -3.02735,0.68359 -6.25,0.68359 -7.28516,0 -11.54297,-4.0625 -4.25781,-4.08203 -4.25781,-11.05469 0,-7.05078 4.33593,-11.09375 4.33594,-4.04297 11.875,-4.04297 2.91016,0 5.56641,0.54688 2.67578,0.54687 5.03906,1.62109 l 0,6.03516 q -2.4414,-1.38672 -4.86328,-2.07031 -2.40234,-0.6836 -4.82422,-0.6836 -4.49218,0 -6.93359,2.51953 -2.42188,2.5 -2.42188,7.16797 0,4.62891 2.34375,7.14844 2.34375,2.51953 6.66016,2.51953 1.17188,0 2.16797,-0.13672 1.01562,-0.15625 1.81641,-0.46875 l 0,-5.66406 -4.58985,0 0,-5.03906 11.71875,0 0,14.02343 z" />
      </g>
    </g>
  </g>
</svg>
