<?xml version="1.0" encoding="UTF-8" standalone="no"?>
<!-- Created with Inkscape (http://www.inkscape.org/) -->

<svg
   xmlns:dc="http://purl.org/dc/elements/1.1/"
   xmlns:cc="http://creativecommons.org/ns#"
   xmlns:rdf="http://www.w3.org/1999/02/22-rdf-syntax-ns#"
   xmlns:svg="http://www.w3.org/2000/svg"
   xmlns="http://www.w3.org/2000/svg"
   xmlns:sodipodi="http://sodipodi.sourceforge.net/DTD/sodipodi-0.dtd"
   xmlns:inkscape="http://www.inkscape.org/namespaces/inkscape"
   width="500"
   height="500"
   id="svg2"
   version="1.1"
   inkscape:version="0.91 r13725"
   sodipodi:docname="application-pdf.svg">
  <defs
     id="defs4" />
  <sodipodi:namedview
     id="base"
     pagecolor="#ffffff"
     bordercolor="#666666"
     borderopacity="1.0"
     inkscape:pageopacity="0.0"
     inkscape:pageshadow="2"
     inkscape:zoom="0.4289781"
     inkscape:cx="86.754445"
     inkscape:cy="349.5579"
     inkscape:document-units="px"
     inkscape:current-layer="layer1"
     showgrid="false"
     inkscape:window-width="1366"
     inkscape:window-height="715"
     inkscape:window-x="0"
     inkscape:window-y="24"
     inkscape:window-maximized="1" />
  <metadata
     id="metadata7">
    <rdf:RDF>
      <cc:Work
         rdf:about="">
        <dc:format>image/svg+xml</dc:format>
        <dc:type
           rdf:resource="http://purl.org/dc/dcmitype/StillImage" />
        <dc:title />
      </cc:Work>
    </rdf:RDF>
  </metadata>
  <g
     inkscape:label="Layer 1"
     inkscape:groupmode="layer"
     id="layer1"
     transform="translate(0,-552.36218)">
    <g
       id="g4169">
      <path
         inkscape:connector-curvature="0"
         id="path3364"
         d="m 97.040974,1029.8357 336.888376,-1.1739 1.17377,-363.88639 -88.03697,-89.21086 -250.025176,0 z"
         style="fill:#f2f2f2;fill-rule:evenodd;stroke:#afafaf;stroke-width:5.03546047;stroke-linecap:butt;stroke-linejoin:miter;stroke-miterlimit:4;stroke-dasharray:none;stroke-opacity:1" />
      <path
         inkscape:connector-curvature="0"
         id="rect4228"
         d="m 97.041016,907.86724 0,121.96756 336.888674,-1.0485 0.4375,-120.91906 -337.326174,0 z"
         style="fill:#f03916;fill-opacity:1;stroke:none;stroke-width:5;stroke-miterlimit:4;stroke-dasharray:none;stroke-opacity:1" />
      <g
         id="flowRoot3348"
         style="font-style:normal;font-weight:normal;font-size:40px;line-height:125%;font-family:sans-serif;letter-spacing:0px;word-spacing:0px;fill:#ffffff;fill-opacity:1;stroke:none;stroke-width:1px;stroke-linecap:butt;stroke-linejoin:miter;stroke-opacity:1"
         transform="matrix(1.3717348,0,0,1.3717348,618.38205,613.44108)">
        <path
           inkscape:connector-curvature="0"
           id="path3357"
           style="font-style:normal;font-variant:normal;font-weight:bold;font-stretch:normal;font-size:80px;font-family:sans-serif;-inkscape-font-specification:'sans-serif Bold';fill:#ffffff"
           d="m -342.10742,229.66181 24.96094,0 q 11.13281,0 17.07031,4.96094 5.97656,4.92187 5.97656,14.0625 0,9.17968 -5.97656,14.14062 -5.9375,4.92188 -17.07031,4.92188 l -9.92188,0 0,20.23437 -15.03906,0 0,-58.32031 z m 15.03906,10.89844 0,16.28906 8.32031,0 q 4.375,0 6.75782,-2.10938 2.38281,-2.14843 2.38281,-6.05468 0,-3.90625 -2.38281,-6.01563 -2.38282,-2.10937 -6.75782,-2.10937 l -8.32031,0 z" />
        <path
           inkscape:connector-curvature="0"
           id="path3359"
           style="font-style:normal;font-variant:normal;font-weight:bold;font-stretch:normal;font-size:80px;font-family:sans-serif;-inkscape-font-specification:'sans-serif Bold';fill:#ffffff"
           d="m -268.47461,241.029 0,35.58593 5.39063,0 q 9.21875,0 14.0625,-4.57031 4.88281,-4.57031 4.88281,-13.28125 0,-8.67187 -4.84375,-13.20312 -4.84375,-4.53125 -14.10156,-4.53125 l -5.39063,0 z m -15.03906,-11.36719 15.85937,0 q 13.28125,0 19.76563,1.91406 6.52344,1.875 11.17187,6.40625 4.10157,3.94531 6.09375,9.10156 1.99219,5.15625 1.99219,11.67969 0,6.60156 -1.99219,11.79688 -1.99218,5.15625 -6.09375,9.10156 -4.6875,4.53125 -11.25,6.44531 -6.5625,1.875 -19.6875,1.875 l -15.85937,0 0,-58.32031 z" />
        <path
           inkscape:connector-curvature="0"
           id="path3361"
           style="font-style:normal;font-variant:normal;font-weight:bold;font-stretch:normal;font-size:80px;font-family:sans-serif;-inkscape-font-specification:'sans-serif Bold';fill:#ffffff"
           d="m -217.10742,229.66181 40.58594,0 0,11.36719 -25.54688,0 0,10.85937 24.02344,0 0,11.36719 -24.02344,0 0,24.72656 -15.03906,0 0,-58.32031 z" />
      </g>
      <path
         style="fill:#f03916;fill-opacity:1"
         id="path70"
         inkscape:connector-curvature="0"
         d="m 227.05116,632.86054 c -11.45916,-0.20042 -21.34852,11.19695 -18.92584,22.58372 1.63071,17.39929 12.84972,31.51859 21.60455,45.88609 0.98444,5.3504 -1.8373,10.5586 -2.02625,15.8701 -5.70794,31.18399 -14.41598,62.20029 -27.81312,90.81509 -16.57731,7.6318 -35.35129,15.1682 -45.04553,31.6166 -6.15382,11.4124 2.51097,26.8146 15.23003,28.018 11.79994,1.614 20.5583,-8.4979 27.00877,-16.9702 6.73476,-9.1133 11.16692,-19.9651 16.77069,-29.7591 33.91218,-13.6575 69.59016,-23.2025 106.00979,-26.8269 14.72586,10.5392 30.32766,22.9731 49.21106,23.7245 10.9762,-0.1634 19.8582,-10.8182 18.6557,-21.6399 -0.7072,-9.8532 -9.4603,-16.7628 -18.5285,-18.6116 -14.6253,-4.4056 -30.2923,-1.9927 -45.16921,-1.8858 -28.62891,-22.876 -55.05764,-49.19609 -75.87554,-79.31099 1.54507,-18.3086 4.64758,-38.56061 -4.88597,-55.21653 -3.61988,-5.25325 -9.75604,-8.85549 -16.22151,-8.28867 m 0.54562,16.62768 c 3.22348,0.62155 3.43802,5.42277 4.34035,7.99024 0.84934,5.23295 0.75664,10.57273 0.69484,15.85778 -3.83885,-7.17534 -8.82547,-14.67116 -7.93727,-23.17614 1.0118,-0.0397 1.90795,-0.55269 2.90208,-0.67012 m 17.76395,71.40016 c 17.06293,21.21599 36.01614,40.75459 56.69983,58.46559 -27.27365,4.1594 -54.36897,11.1272 -80.3174,20.5274 9.95206,-26.0102 17.5291,-52.8822 22.52189,-80.30859 0.36376,0.4388 0.72751,0.8768 1.09126,1.3156 m 106.43358,71.32069 c 6.6156,0.6382 14.25,0.2551 19.5474,4.8144 0.4971,4.1152 -4.5372,4.7156 -7.2177,3.2261 -5.5931,-1.8674 -11.1263,-4.215 -15.8745,-7.7925 1.1831,-0.073 2.3617,-0.2251 3.5492,-0.248 m -165.32298,43.2797 c -3.14577,5.8509 -7.72537,11.3673 -12.50097,15.5108 -1.58922,2.5728 -5.95074,-2.1843 -3.9439,-4.1938 4.14343,-6.4858 11.37791,-9.9238 17.78158,-13.798 -0.44675,0.8273 -0.89173,1.6545 -1.33936,2.4818" />
    </g>
  </g>
</svg>
