<?xml version="1.0" encoding="UTF-8" standalone="no"?>
<!-- Created with Inkscape (http://www.inkscape.org/) -->

<svg
   xmlns:dc="http://purl.org/dc/elements/1.1/"
   xmlns:cc="http://creativecommons.org/ns#"
   xmlns:rdf="http://www.w3.org/1999/02/22-rdf-syntax-ns#"
   xmlns:svg="http://www.w3.org/2000/svg"
   xmlns="http://www.w3.org/2000/svg"
   xmlns:sodipodi="http://sodipodi.sourceforge.net/DTD/sodipodi-0.dtd"
   xmlns:inkscape="http://www.inkscape.org/namespaces/inkscape"
   width="500"
   height="500"
   id="svg2"
   version="1.1"
   inkscape:version="0.91 r13725"
   sodipodi:docname="application-x-flash-video.svg">
  <defs
     id="defs4" />
  <sodipodi:namedview
     id="base"
     pagecolor="#ffffff"
     bordercolor="#666666"
     borderopacity="1.0"
     inkscape:pageopacity="0.0"
     inkscape:pageshadow="2"
     inkscape:zoom="0.60666665"
     inkscape:cx="6.2710345"
     inkscape:cy="222.7804"
     inkscape:document-units="px"
     inkscape:current-layer="layer1"
     showgrid="false"
     inkscape:window-width="1366"
     inkscape:window-height="715"
     inkscape:window-x="0"
     inkscape:window-y="24"
     inkscape:window-maximized="1" />
  <metadata
     id="metadata7">
    <rdf:RDF>
      <cc:Work
         rdf:about="">
        <dc:format>image/svg+xml</dc:format>
        <dc:type
           rdf:resource="http://purl.org/dc/dcmitype/StillImage" />
        <dc:title />
      </cc:Work>
    </rdf:RDF>
  </metadata>
  <g
     inkscape:label="Layer 1"
     inkscape:groupmode="layer"
     id="layer1"
     transform="translate(0,-552.36218)">
    <g
       id="g3386">
      <path
         inkscape:connector-curvature="0"
         id="path3364"
         d="m 97.040974,1029.8357 336.888376,-1.1739 1.17377,-363.88639 -88.03697,-89.21086 -250.025176,0 z"
         style="fill:#f2f2f2;fill-rule:evenodd;stroke:#afafaf;stroke-width:5.03546047;stroke-linecap:butt;stroke-linejoin:miter;stroke-miterlimit:4;stroke-dasharray:none;stroke-opacity:1" />
      <path
         inkscape:connector-curvature="0"
         id="rect4228"
         d="m 97.041016,907.86724 0,121.96756 336.888674,-1.0485 0.4375,-120.91906 -337.326174,0 z"
         style="fill:#f03916;fill-opacity:1;stroke:none;stroke-width:5;stroke-miterlimit:4;stroke-dasharray:none;stroke-opacity:1" />
      <g
         transform="translate(-16,2)"
         id="g3370">
        <rect
           style="fill:#f03916;fill-opacity:1;stroke:none"
           id="rect4078-4"
           width="250"
           height="250"
           x="152.40344"
           y="621.98529"
           ry="125" />
        <path
           style="fill:#ffffff;fill-opacity:1;stroke:none"
           id="path3727-6"
           inkscape:connector-curvature="0"
           d="m 322.40318,690.77099 0,22.63438 c -22.59562,0.39375 -28.1488,22.43188 -28.1488,22.43188 l 17.04247,0 0,22.63183 -26.42538,0 c -15.89352,49.03375 -52.46779,44.66758 -52.46779,44.66758 l 0,-22.63383 c 0,0 23.20863,4.30817 35.04235,-38.90933 14.80292,-54.05688 54.95715,-50.82251 54.95715,-50.82251 z" />
      </g>
      <g
         id="flowRoot4144"
         style="font-style:normal;font-weight:normal;font-size:40px;line-height:125%;font-family:sans-serif;letter-spacing:0px;word-spacing:0px;fill:#ffffff;fill-opacity:1;stroke:none;stroke-width:1px;stroke-linecap:butt;stroke-linejoin:miter;stroke-opacity:1"
         transform="matrix(1.3717348,0,0,1.3717348,585.0006,526.36846)">
        <path
           inkscape:connector-curvature="0"
           id="path4153"
           style="font-style:normal;font-variant:normal;font-weight:bold;font-stretch:normal;font-size:80px;font-family:sans-serif;-inkscape-font-specification:'sans-serif Bold';fill:#ffffff"
           d="m -300.89844,292.29853 40.58594,0 0,11.36718 -25.54687,0 0,10.85938 24.02343,0 0,11.36719 -24.02343,0 0,24.72656 -15.03907,0 0,-58.32031 z" />
        <path
           inkscape:connector-curvature="0"
           id="path4155"
           style="font-style:normal;font-variant:normal;font-weight:bold;font-stretch:normal;font-size:80px;font-family:sans-serif;-inkscape-font-specification:'sans-serif Bold';fill:#ffffff"
           d="m -246.21094,292.29853 15.03907,0 0,46.95312 26.40625,0 0,11.36719 -41.44532,0 0,-58.32031 z" />
        <path
           inkscape:connector-curvature="0"
           id="path4157"
           style="font-style:normal;font-variant:normal;font-weight:bold;font-stretch:normal;font-size:80px;font-family:sans-serif;-inkscape-font-specification:'sans-serif Bold';fill:#ffffff"
           d="m -213.16406,292.29853 15.11719,0 15.46875,43.04687 15.42968,-43.04687 15.11719,0 -21.60156,58.32031 -17.92969,0 -21.60156,-58.32031 z" />
      </g>
    </g>
  </g>
</svg>
