<?xml version="1.0" encoding="UTF-8" standalone="no"?>
<!-- Created with Inkscape (http://www.inkscape.org/) -->

<svg
   xmlns:dc="http://purl.org/dc/elements/1.1/"
   xmlns:cc="http://creativecommons.org/ns#"
   xmlns:rdf="http://www.w3.org/1999/02/22-rdf-syntax-ns#"
   xmlns:svg="http://www.w3.org/2000/svg"
   xmlns="http://www.w3.org/2000/svg"
   xmlns:sodipodi="http://sodipodi.sourceforge.net/DTD/sodipodi-0.dtd"
   xmlns:inkscape="http://www.inkscape.org/namespaces/inkscape"
   width="500"
   height="500"
   id="svg2"
   version="1.1"
   inkscape:version="0.91 r13725"
   sodipodi:docname="application-vnd.sun.xml.draw.template.svg">
  <defs
     id="defs4" />
  <sodipodi:namedview
     id="base"
     pagecolor="#ffffff"
     bordercolor="#666666"
     borderopacity="1.0"
     inkscape:pageopacity="0.0"
     inkscape:pageshadow="2"
     inkscape:zoom="0.60666665"
     inkscape:cx="177.10059"
     inkscape:cy="149.96528"
     inkscape:document-units="px"
     inkscape:current-layer="layer1"
     showgrid="false"
     inkscape:window-width="1366"
     inkscape:window-height="715"
     inkscape:window-x="0"
     inkscape:window-y="24"
     inkscape:window-maximized="1" />
  <metadata
     id="metadata7">
    <rdf:RDF>
      <cc:Work
         rdf:about="">
        <dc:format>image/svg+xml</dc:format>
        <dc:type
           rdf:resource="http://purl.org/dc/dcmitype/StillImage" />
        <dc:title />
      </cc:Work>
    </rdf:RDF>
  </metadata>
  <g
     inkscape:label="Layer 1"
     inkscape:groupmode="layer"
     id="layer1"
     transform="translate(0,-552.36218)">
    <g
       id="g4175">
      <path
         inkscape:connector-curvature="0"
         id="path3364"
         d="m 97.040974,1029.8357 336.888376,-1.1739 1.17377,-363.88639 -88.03697,-89.21086 -250.025176,0 z"
         style="fill:#f2f2f2;fill-rule:evenodd;stroke:#afafaf;stroke-width:5.03546047;stroke-linecap:butt;stroke-linejoin:miter;stroke-miterlimit:4;stroke-dasharray:none;stroke-opacity:1" />
      <path
         inkscape:connector-curvature="0"
         id="rect4228"
         d="m 97.041016,907.86724 0,121.96756 336.888674,-1.0485 0.4375,-120.91906 -337.326174,0 z"
         style="fill:#ffcc00;fill-opacity:1;stroke:none;stroke-width:5;stroke-miterlimit:4;stroke-dasharray:none;stroke-opacity:1" />
      <g
         transform="translate(-16.483517,11.538462)"
         id="g4174">
        <circle
           style="fill:#ff6600;fill-opacity:1;stroke:none"
           id="path3018"
           cx="235.66255"
           cy="705.25287"
           r="80.804726" />
        <rect
           style="fill:#deb200;fill-opacity:1;stroke:none"
           id="rect3788"
           width="148.142"
           height="134.67456"
           x="274.52286"
           y="683.85376" />
        <path
           style="fill:#ffcc00;stroke:none"
           d="m 166.90214,861.58446 161.60945,0 -80.4477,-139.53792 z"
           id="path3790"
           inkscape:connector-curvature="0"
           sodipodi:nodetypes="cccc" />
        <rect
           style="fill:#45d03f;fill-opacity:1;stroke:none"
           id="rect3792"
           width="24.241419"
           height="24.241419"
           x="235.96896"
           y="708.32147" />
        <rect
           style="fill:#45d03f;fill-opacity:1;stroke:none"
           id="rect3792-3"
           width="24.241419"
           height="24.241419"
           x="147.66484"
           y="846.14471" />
        <rect
           style="fill:#45d03f;fill-opacity:1;stroke:none"
           id="rect3792-6"
           width="24.241419"
           height="24.241419"
           x="324.79138"
           y="844.24023" />
      </g>
      <g
         id="flowRoot4160"
         style="font-style:normal;font-weight:normal;font-size:40px;line-height:125%;font-family:sans-serif;letter-spacing:0px;word-spacing:0px;fill:#ffffff;fill-opacity:1;stroke:none;stroke-width:1px;stroke-linecap:butt;stroke-linejoin:miter;stroke-opacity:1"
         transform="matrix(3.5257155,0,0,3.5257155,-362.26709,-446.99557)">
        <path
           inkscape:connector-curvature="0"
           id="path4169"
           style="font-style:normal;font-variant:normal;font-weight:bold;font-stretch:normal;font-size:30px;font-family:sans-serif;-inkscape-font-specification:'sans-serif Bold';fill:#ffffff"
           d="m 163.02832,391.68763 0,4.62891 q -1.80176,-0.80567 -3.51562,-1.21582 -1.71387,-0.41016 -3.23731,-0.41016 -2.02148,0 -2.98828,0.55664 -0.9668,0.55664 -0.9668,1.72852 0,0.8789 0.64453,1.37695 0.65918,0.4834 2.37305,0.83496 l 2.40234,0.4834 q 3.64747,0.73242 5.18555,2.22656 1.53809,1.49414 1.53809,4.24805 0,3.61816 -2.15332,5.39062 -2.13868,1.75782 -6.54785,1.75782 -2.08008,0 -4.17481,-0.39551 -2.09473,-0.39551 -4.18945,-1.17188 l 0,-4.76074 q 2.09472,1.11328 4.04297,1.68457 1.96289,0.55664 3.77929,0.55664 1.84571,0 2.82715,-0.61523 0.98145,-0.61524 0.98145,-1.75781 0,-1.0254 -0.67383,-1.58204 -0.65918,-0.55664 -2.65137,-0.99609 l -2.18262,-0.4834 q -3.28125,-0.70312 -4.80468,-2.24121 -1.50879,-1.53808 -1.50879,-4.14551 0,-3.2666 2.10937,-5.02441 2.10938,-1.75781 6.06446,-1.75781 1.80175,0 3.70605,0.27832 1.9043,0.26367 3.94043,0.80566 z" />
        <path
           inkscape:connector-curvature="0"
           id="path4171"
           style="font-style:normal;font-variant:normal;font-weight:bold;font-stretch:normal;font-size:30px;font-family:sans-serif;-inkscape-font-specification:'sans-serif Bold';fill:#ffffff"
           d="m 166.82227,390.99915 20.15625,0 0,4.2627 -7.25098,0 0,17.60742 -5.63965,0 0,-17.60742 -7.26562,0 0,-4.2627 z" />
        <path
           inkscape:connector-curvature="0"
           id="path4173"
           style="font-style:normal;font-variant:normal;font-weight:bold;font-stretch:normal;font-size:30px;font-family:sans-serif;-inkscape-font-specification:'sans-serif Bold';fill:#ffffff"
           d="m 195.51855,395.26185 0,13.34473 2.02149,0 q 3.45703,0 5.27344,-1.71387 1.83105,-1.71387 1.83105,-4.98047 0,-3.25195 -1.81641,-4.95117 -1.8164,-1.69922 -5.28808,-1.69922 l -2.02149,0 z m -5.63964,-4.2627 5.94726,0 q 4.98047,0 7.41211,0.71778 2.44629,0.70312 4.18945,2.40234 1.53809,1.47949 2.28516,3.41309 0.74707,1.93359 0.74707,4.37988 0,2.47559 -0.74707,4.42383 -0.74707,1.93359 -2.28516,3.41308 -1.75781,1.69922 -4.21875,2.417 -2.46093,0.70312 -7.38281,0.70312 l -5.94726,0 0,-21.87012 z" />
      </g>
    </g>
  </g>
</svg>
