<?xml version="1.0" encoding="UTF-8" standalone="no"?>
<!-- Created with Inkscape (http://www.inkscape.org/) -->

<svg
   xmlns:dc="http://purl.org/dc/elements/1.1/"
   xmlns:cc="http://creativecommons.org/ns#"
   xmlns:rdf="http://www.w3.org/1999/02/22-rdf-syntax-ns#"
   xmlns:svg="http://www.w3.org/2000/svg"
   xmlns="http://www.w3.org/2000/svg"
   xmlns:sodipodi="http://sodipodi.sourceforge.net/DTD/sodipodi-0.dtd"
   xmlns:inkscape="http://www.inkscape.org/namespaces/inkscape"
   width="500"
   height="500"
   id="svg2"
   version="1.1"
   inkscape:version="0.91 r13725"
   sodipodi:docname="application-x-arj.svg">
  <defs
     id="defs4" />
  <sodipodi:namedview
     id="base"
     pagecolor="#ffffff"
     bordercolor="#666666"
     borderopacity="1.0"
     inkscape:pageopacity="0.0"
     inkscape:pageshadow="2"
     inkscape:zoom="0.30333332"
     inkscape:cx="1114.7951"
     inkscape:cy="-148.77049"
     inkscape:document-units="px"
     inkscape:current-layer="layer1"
     showgrid="false"
     inkscape:window-width="1366"
     inkscape:window-height="715"
     inkscape:window-x="0"
     inkscape:window-y="24"
     inkscape:window-maximized="1" />
  <metadata
     id="metadata7">
    <rdf:RDF>
      <cc:Work
         rdf:about="">
        <dc:format>image/svg+xml</dc:format>
        <dc:type
           rdf:resource="http://purl.org/dc/dcmitype/StillImage" />
        <dc:title />
      </cc:Work>
    </rdf:RDF>
  </metadata>
  <g
     inkscape:label="Layer 1"
     inkscape:groupmode="layer"
     id="layer1"
     transform="translate(0,-552.36218)">
    <g
       id="g4179">
      <path
         inkscape:connector-curvature="0"
         id="path3364"
         d="m 97.040974,1029.8357 336.888376,-1.1739 1.17377,-363.88639 -88.03697,-89.21086 -250.025176,0 z"
         style="fill:#f2f2f2;fill-rule:evenodd;stroke:#afafaf;stroke-width:5.03546047;stroke-linecap:butt;stroke-linejoin:miter;stroke-miterlimit:4;stroke-dasharray:none;stroke-opacity:1" />
      <path
         inkscape:connector-curvature="0"
         id="rect4228"
         d="m 97.041016,907.86724 0,121.96756 336.888674,-1.0485 0.4375,-120.91906 -337.326174,0 z"
         style="fill:#394050;fill-opacity:1;stroke:none;stroke-width:5;stroke-miterlimit:4;stroke-dasharray:none;stroke-opacity:1" />
      <g
         id="g4142"
         transform="matrix(0.53333333,0,0,0.53333333,131.14654,322.07614)">
        <path
           style="fill:#4f576d;fill-opacity:1;stroke:none"
           d="m 323.78153,666.84953 18.03389,6.21168 0,8.01507 -15.429,4.40827 0,24.8467 33.46288,-9.21731 -19.03577,9.81845 0.40075,18.63502 -14.42711,4.60866 0,23.64443 31.05838,-7.61429 -16.03013,9.4177 0,17.8335 -15.82975,5.41018 1.00189,22.44218 33.66327,-9.21732 -18.83541,10.82032 -0.40075,17.43277 -14.82786,4.40829 0.40075,22.2418 32.66138,-8.41582 -20.63879,13.02448 -0.60114,7.21356 52.09793,0 -0.60114,-24.44595 15.02825,-3.20602 -0.40075,-24.24557 -35.26629,7.81468 20.43843,-8.61618 0.20041,-17.2324 15.62938,-4.60866 0,-24.64632 -27.25122,7.81468 11.0207,-7.21354 0.20041,-18.03391 14.6275,-4.20791 0,-24.8467 -32.06027,7.8147 16.23052,-8.41581 0.8015,-20.23805 14.82786,-2.20413 0.8015,-24.44596 -29.45536,6.61243 15.22863,-11.82222 0,-7.61432 -65.32276,1.80341 z"
           id="path3941"
           inkscape:connector-curvature="0" />
        <path
           style="fill:#4f576d;fill-opacity:1;stroke:none"
           d="m 327.69161,916.28877 0.28338,51.00755 -14.73551,0 0,18.4194 -26.35392,0.56675 -0.28336,-16.1524 -34.85517,0.28338 -0.56676,56.95845 35.70529,0 0,-14.7355 26.63729,-0.2834 0,18.4194 105.13224,-0.2834 0.28337,-17.8526 27.77079,0 0,15.5856 34.00504,0 -0.28338,-58.94204 -33.72166,0.28336 0,17.28591 -28.05416,0 -1.13351,-20.11966 -12.18514,0.28338 0,-51.29093 z"
           id="path3943"
           inkscape:connector-curvature="0" />
        <path
           style="fill:#394050;stroke:none"
           d="m 91.935038,898.50154 -0.8015,14.02636 31.659502,29.65575 165.91182,1.60302 21.64068,-24.0452 113.41317,-1.20225 0,-66.52504 -111.00865,0 -44.08286,46.88813 z"
           id="path3921"
           inkscape:connector-curvature="0" />
        <path
           style="fill:#394050;stroke:none"
           d="m 92.038481,626.4715 -0.8015,-14.02636 31.659499,-29.65575 165.91182,-1.60302 21.64068,24.0452 113.41317,1.20225 0,66.52504 -111.00864,0 -44.08286,-46.88813 z"
           id="path3921-3"
           inkscape:connector-curvature="0" />
        <rect
           style="fill:#ffcc00;fill-opacity:1;stroke:none"
           id="rect3945"
           width="238.03526"
           height="272.60706"
           x="30.714285"
           y="626.11243" />
        <rect
           style="fill:#ffe270;fill-opacity:1;stroke:none"
           id="rect3945-6"
           width="199.56294"
           height="105.0922"
           x="48.470131"
           y="650.37122" />
        <rect
           style="fill:#ffe270;fill-opacity:1;stroke:none"
           id="rect3945-6-7"
           width="199.56294"
           height="105.0922"
           x="50.073128"
           y="772.60095" />
        <rect
           style="fill:#394050;fill-opacity:1;stroke:none"
           id="rect3945-6-7-5"
           width="80.138489"
           height="25.743069"
           x="110.98764"
           y="691.6488" />
        <rect
           style="fill:#394050;fill-opacity:1;stroke:none"
           id="rect3945-6-7-5-3"
           width="80.138489"
           height="25.743069"
           x="110.58685"
           y="810.67249" />
      </g>
      <g
         id="flowRoot4164"
         style="font-style:normal;font-weight:normal;font-size:86.09564209px;line-height:125%;font-family:sans-serif;letter-spacing:0px;word-spacing:0px;fill:#000000;fill-opacity:1;stroke:none;stroke-width:1px;stroke-linecap:butt;stroke-linejoin:miter;stroke-opacity:1"
         transform="matrix(1.1474462,0,0,1.1474462,19.385608,-90.819013)">
        <path
           id="path4173"
           style="font-style:normal;font-variant:normal;font-weight:bold;font-stretch:normal;font-family:sans-serif;-inkscape-font-specification:'sans-serif Bold';fill:#ffffff"
           d="m 176.8089,935.5804 -25.30741,0 -3.99369,11.43458 -16.26905,0 23.2475,-62.76406 19.29585,0 23.24751,62.76406 -16.26905,0 -3.95166,-11.43458 z m -21.27167,-11.64477 17.1939,0 -8.57593,-24.9711 -8.61797,24.9711 z" />
        <path
           id="path4175"
           style="font-style:normal;font-variant:normal;font-weight:bold;font-stretch:normal;font-family:sans-serif;-inkscape-font-specification:'sans-serif Bold';fill:#ffffff"
           d="m 228.30654,912.08066 q 5.08671,0 7.27273,-1.89175 2.22806,-1.89175 2.22806,-6.22175 0,-4.28797 -2.22806,-6.13768 -2.18602,-1.84971 -7.27273,-1.84971 l -6.8103,0 0,16.10089 6.8103,0 z m -6.8103,11.18235 0,23.75197 -16.18497,0 0,-62.76406 24.71887,0 q 12.40147,0 18.1608,4.16185 5.80136,4.16185 5.80136,13.15817 0,6.22176 -3.0268,10.21545 -2.98476,3.99369 -9.03836,5.88544 3.32107,0.7567 5.92748,3.44719 2.64845,2.64845 5.33894,8.07147 l 8.78613,17.82449 -17.23594,0 -7.65108,-15.59643 q -2.31214,-4.70836 -4.70836,-6.43195 -2.35417,-1.72359 -6.30583,-1.72359 l -4.58224,0 z" />
        <path
           id="path4177"
           style="font-style:normal;font-variant:normal;font-weight:bold;font-stretch:normal;font-family:sans-serif;-inkscape-font-specification:'sans-serif Bold';fill:#ffffff"
           d="m 271.56457,884.25092 16.18497,0 0,56.66842 q 0,11.72885 -6.38991,17.53022 -6.34788,5.80136 -19.25381,5.80136 l -3.27904,0 0,-12.23331 2.52234,0 q 5.04466,0 7.60903,-2.81661 2.60642,-2.81661 2.60642,-8.28166 l 0,-56.66842 z" />
      </g>
    </g>
  </g>
</svg>
