<?xml version="1.0" encoding="UTF-8" standalone="no"?>
<!-- Created with Inkscape (http://www.inkscape.org/) -->

<svg
   xmlns:dc="http://purl.org/dc/elements/1.1/"
   xmlns:cc="http://creativecommons.org/ns#"
   xmlns:rdf="http://www.w3.org/1999/02/22-rdf-syntax-ns#"
   xmlns:svg="http://www.w3.org/2000/svg"
   xmlns="http://www.w3.org/2000/svg"
   xmlns:sodipodi="http://sodipodi.sourceforge.net/DTD/sodipodi-0.dtd"
   xmlns:inkscape="http://www.inkscape.org/namespaces/inkscape"
   width="500"
   height="500"
   id="svg2"
   version="1.1"
   inkscape:version="0.91 r13725"
   sodipodi:docname="application-vnd.sun.xml.impress.svg">
  <defs
     id="defs4" />
  <sodipodi:namedview
     id="base"
     pagecolor="#ffffff"
     bordercolor="#666666"
     borderopacity="1.0"
     inkscape:pageopacity="0.0"
     inkscape:pageshadow="2"
     inkscape:zoom="0.60666664"
     inkscape:cx="127.20074"
     inkscape:cy="184.26528"
     inkscape:document-units="px"
     inkscape:current-layer="layer1"
     showgrid="false"
     inkscape:window-width="1366"
     inkscape:window-height="715"
     inkscape:window-x="0"
     inkscape:window-y="24"
     inkscape:window-maximized="1" />
  <metadata
     id="metadata7">
    <rdf:RDF>
      <cc:Work
         rdf:about="">
        <dc:format>image/svg+xml</dc:format>
        <dc:type
           rdf:resource="http://purl.org/dc/dcmitype/StillImage" />
        <dc:title />
      </cc:Work>
    </rdf:RDF>
  </metadata>
  <g
     inkscape:label="Layer 1"
     inkscape:groupmode="layer"
     id="layer1"
     transform="translate(0,-552.36218)">
    <g
       id="g4202">
      <path
         inkscape:connector-curvature="0"
         id="path3364"
         d="m 97.040974,1029.8357 336.888376,-1.1739 1.17377,-363.88639 -88.03697,-89.21086 -250.025176,0 z"
         style="fill:#f2f2f2;fill-rule:evenodd;stroke:#afafaf;stroke-width:5.03546047;stroke-linecap:butt;stroke-linejoin:miter;stroke-miterlimit:4;stroke-dasharray:none;stroke-opacity:1" />
      <path
         inkscape:connector-curvature="0"
         id="rect4228"
         d="m 97.041016,907.86724 0,121.96756 336.888674,-1.0485 0.4375,-120.91906 -337.326174,0 z"
         style="fill:#ff6600;fill-opacity:1;stroke:none;stroke-width:5;stroke-miterlimit:4;stroke-dasharray:none;stroke-opacity:1" />
      <rect
         y="650.0423"
         x="144.23022"
         height="12.292208"
         width="241.27188"
         id="rect2990-3"
         style="fill:#ff6600;fill-opacity:1;stroke:none" />
      <rect
         y="728.57629"
         x="171.56758"
         height="12.292208"
         width="72.270981"
         id="rect2990-3-6-7"
         style="fill:#ff6600;fill-opacity:1;stroke:none" />
      <rect
         y="728.57629"
         x="148.8123"
         height="12.292208"
         width="12.693478"
         id="rect2990-3-6-7-5"
         style="fill:#ff6600;fill-opacity:1;stroke:none" />
      <rect
         y="749.3382"
         x="170.94699"
         height="12.292208"
         width="72.270981"
         id="rect2990-3-6-7-3"
         style="fill:#ff6600;fill-opacity:1;stroke:none" />
      <rect
         y="749.3382"
         x="148.19171"
         height="12.292208"
         width="12.693478"
         id="rect2990-3-6-7-5-5"
         style="fill:#ff6600;fill-opacity:1;stroke:none" />
      <rect
         y="770.55139"
         x="170.94699"
         height="12.292208"
         width="72.270981"
         id="rect2990-3-6-7-6"
         style="fill:#ff6600;fill-opacity:1;stroke:none" />
      <rect
         y="770.55139"
         x="148.19171"
         height="12.292208"
         width="12.693478"
         id="rect2990-3-6-7-5-2"
         style="fill:#ff6600;fill-opacity:1;stroke:none" />
      <rect
         y="793.11865"
         x="170.94699"
         height="12.292208"
         width="72.270981"
         id="rect2990-3-6-7-9"
         style="fill:#ff6600;fill-opacity:1;stroke:none" />
      <rect
         y="793.11865"
         x="148.19171"
         height="12.292208"
         width="12.693478"
         id="rect2990-3-6-7-5-1"
         style="fill:#ff6600;fill-opacity:1;stroke:none" />
      <rect
         y="717.87042"
         x="276.17233"
         height="94.468086"
         width="113.70193"
         id="rect2990-2"
         style="fill:#ffffff;fill-opacity:1;stroke:none" />
      <path
         inkscape:connector-curvature="0"
         id="path17"
         d="m 337.14595,808.26689 -8.99142,0 c -1.24138,0 -2.24798,-1.098 -2.24798,-2.4523 l 0,-39.2357 c 0,-1.3541 1.0066,-2.45233 2.24798,-2.45233 l 8.99142,0 c 1.24137,0 2.24797,1.09823 2.24797,2.45233 l 0,39.2357 c 0,1.3543 -1.0066,2.4523 -2.24797,2.4523 z"
         style="fill:#ffcc00" />
      <path
         inkscape:connector-curvature="0"
         id="path21"
         d="m 316.91513,808.26689 -8.99141,0 c -1.24138,0 -2.24799,-1.098 -2.24799,-2.4523 l 0,-26.97453 c 0,-1.35427 1.00661,-2.45233 2.24799,-2.45233 l 8.99141,0 c 1.24138,0 2.24799,1.09806 2.24799,2.45233 l 0,26.97453 c 0,1.3543 -1.00661,2.4523 -2.24799,2.4523 z"
         style="fill:#f03916;fill-opacity:1" />
      <path
         inkscape:connector-curvature="0"
         id="path25"
         d="m 296.68432,808.26689 -8.99141,0 c -1.24138,0 -2.24798,-1.098 -2.24798,-2.4523 l 0,-14.71353 c 0,-1.35427 1.0066,-2.45233 2.24798,-2.45233 l 8.99141,0 c 1.2414,0 2.24798,1.09806 2.24798,2.45233 l 0,14.71353 c -2.4e-4,1.3543 -1.00658,2.4523 -2.24798,2.4523 z"
         style="fill:#004455" />
      <path
         inkscape:connector-curvature="0"
         id="path29"
         d="m 357.37676,808.26689 -8.9914,0 c -1.24139,0 -2.24799,-1.098 -2.24799,-2.4523 l 0,-26.97453 c 0,-1.35427 1.0066,-2.45233 2.24799,-2.45233 l 8.9914,0 c 1.24137,0 2.24797,1.09806 2.24797,2.45233 l 0,26.97453 c 0,1.3543 -1.0066,2.4523 -2.24797,2.4523 z"
         style="fill:#45d03f;fill-opacity:1" />
      <path
         inkscape:connector-curvature="0"
         id="path33"
         d="m 377.60783,808.26689 -8.99144,0 c -1.24136,0 -2.24797,-1.098 -2.24797,-2.4523 l 0,-53.9492 c 0,-1.3541 1.00661,-2.45233 2.24797,-2.45233 l 8.99144,0 c 1.24137,0 2.24797,1.09823 2.24797,2.45233 l 0,53.9492 c -2.3e-4,1.3543 -1.0066,2.4523 -2.24797,2.4523 z"
         style="fill:#00bbf2;fill-opacity:1" />
      <path
         inkscape:connector-curvature="0"
         id="path37"
         d="m 384.35126,810.71859 -103.40203,0 c -1.24138,0 -2.24799,-1.098 -2.24799,-2.4523 l 0,0 c 0,-1.3543 1.00661,-2.4523 2.24799,-2.4523 l 103.40228,0 c 1.24137,0 2.24799,1.098 2.24799,2.4523 l 0,0 c -2.5e-4,1.3549 -1.00662,2.4523 -2.24824,2.4523 z"
         style="fill:#394050" />
      <path
         inkscape:connector-curvature="0"
         id="path2998"
         d="m 284.39252,783.91634 50.49853,-29.59352 17.52843,17.30083 22.32786,-48.71538"
         style="fill:none;stroke:#394050;stroke-width:2.50435662;stroke-linecap:butt;stroke-linejoin:miter;stroke-miterlimit:4;stroke-dasharray:none;stroke-opacity:1" />
      <path
         inkscape:connector-curvature="0"
         id="path3768"
         d="m 375.60698,722.24214 -8.99746,4.26399"
         style="fill:none;stroke:#394050;stroke-width:2.50435662;stroke-linecap:butt;stroke-linejoin:miter;stroke-miterlimit:4;stroke-dasharray:none;stroke-opacity:1" />
      <path
         inkscape:connector-curvature="0"
         id="path3770-3"
         d="m 378.06672,731.59014 -4.03778,-10.01249"
         style="fill:none;stroke:#394050;stroke-width:2.50435662;stroke-linecap:butt;stroke-linejoin:miter;stroke-miterlimit:4;stroke-dasharray:none;stroke-opacity:1" />
      <rect
         transform="scale(1,-1)"
         y="-875.86877"
         x="148.34575"
         height="12.292208"
         width="241.27188"
         id="rect2990-3-9"
         style="fill:#ff6600;fill-opacity:1;stroke:none" />
      <rect
         style="fill:#ff6600;fill-opacity:1;stroke:none"
         id="rect3456"
         width="241.27188"
         height="12.292208"
         x="144.23022"
         y="672.0423" />
      <rect
         style="fill:#ff6600;fill-opacity:1;stroke:none"
         id="rect3458"
         width="241.27188"
         height="12.292208"
         x="148.34575"
         y="-853.86877"
         transform="scale(1,-1)" />
      <g
         id="flowRoot4194"
         style="font-style:normal;font-weight:normal;font-size:40px;line-height:125%;font-family:sans-serif;letter-spacing:0px;word-spacing:0px;fill:#ffffff;fill-opacity:1;stroke:none;stroke-width:1px;stroke-linecap:butt;stroke-linejoin:miter;stroke-opacity:1"
         transform="matrix(1.3221432,0,0,1.3221432,510.64178,561.92547)">
        <path
           inkscape:connector-curvature="0"
           id="path4203"
           style="font-style:normal;font-variant:normal;font-weight:bold;font-stretch:normal;font-size:80px;font-family:sans-serif;-inkscape-font-specification:'sans-serif Bold';fill:#ffffff"
           d="m -210.82422,280.81806 0,12.34375 q -4.80469,-2.14844 -9.375,-3.24219 -4.57031,-1.09375 -8.63281,-1.09375 -5.39063,0 -7.96875,1.48438 -2.57813,1.48437 -2.57813,4.60937 0,2.34375 1.71875,3.67188 1.75782,1.28906 6.32813,2.22656 l 6.40625,1.28906 q 9.72656,1.95313 13.82812,5.9375 4.10157,3.98438 4.10157,11.32813 0,9.64843 -5.74219,14.375 -5.70313,4.6875 -17.46094,4.6875 -5.54687,0 -11.13281,-1.05469 -5.58594,-1.05469 -11.17188,-3.125 l 0,-12.69531 q 5.58594,2.96875 10.78125,4.49218 5.23438,1.48438 10.07813,1.48438 4.92187,0 7.53906,-1.64063 2.61719,-1.64062 2.61719,-4.6875 0,-2.73437 -1.79688,-4.21875 -1.75781,-1.48437 -7.07031,-2.65625 l -5.82031,-1.28906 q -8.75,-1.875 -12.8125,-5.97656 -4.02344,-4.10156 -4.02344,-11.05469 0,-8.71094 5.625,-13.39844 5.625,-4.6875 16.17188,-4.6875 4.80468,0 9.88281,0.74219 5.07812,0.70313 10.50781,2.14844 z" />
        <path
           inkscape:connector-curvature="0"
           id="path4205"
           style="font-style:normal;font-variant:normal;font-weight:bold;font-stretch:normal;font-size:80px;font-family:sans-serif;-inkscape-font-specification:'sans-serif Bold';fill:#ffffff"
           d="m -161.25391,307.53681 20.23438,29.76562 -15.66406,0 -13.63282,-19.92187 -13.51562,19.92187 -15.74219,0 20.23438,-29.76562 -19.45313,-28.55469 15.70313,0 12.77343,18.78906 12.73438,-18.78906 15.78125,0 -19.45313,28.55469 z" />
        <path
           inkscape:connector-curvature="0"
           id="path4207"
           style="font-style:normal;font-variant:normal;font-weight:bold;font-stretch:normal;font-size:80px;font-family:sans-serif;-inkscape-font-specification:'sans-serif Bold';fill:#ffffff"
           d="m -132.03516,278.98212 15.03907,0 0,58.32031 -15.03907,0 0,-58.32031 z" />
      </g>
    </g>
  </g>
</svg>
