<?xml version="1.0" encoding="UTF-8" standalone="no"?>
<!-- Created with Inkscape (http://www.inkscape.org/) -->

<svg
   xmlns:dc="http://purl.org/dc/elements/1.1/"
   xmlns:cc="http://creativecommons.org/ns#"
   xmlns:rdf="http://www.w3.org/1999/02/22-rdf-syntax-ns#"
   xmlns:svg="http://www.w3.org/2000/svg"
   xmlns="http://www.w3.org/2000/svg"
   xmlns:sodipodi="http://sodipodi.sourceforge.net/DTD/sodipodi-0.dtd"
   xmlns:inkscape="http://www.inkscape.org/namespaces/inkscape"
   width="500"
   height="500"
   id="svg2"
   version="1.1"
   inkscape:version="0.91 r13725"
   sodipodi:docname="application-x-cue.svg">
  <defs
     id="defs4" />
  <sodipodi:namedview
     id="base"
     pagecolor="#ffffff"
     bordercolor="#666666"
     borderopacity="1.0"
     inkscape:pageopacity="0.0"
     inkscape:pageshadow="2"
     inkscape:zoom="0.60666665"
     inkscape:cx="166.66583"
     inkscape:cy="239.53673"
     inkscape:document-units="px"
     inkscape:current-layer="layer1"
     showgrid="false"
     inkscape:window-width="1366"
     inkscape:window-height="715"
     inkscape:window-x="0"
     inkscape:window-y="24"
     inkscape:window-maximized="1" />
  <metadata
     id="metadata7">
    <rdf:RDF>
      <cc:Work
         rdf:about="">
        <dc:format>image/svg+xml</dc:format>
        <dc:type
           rdf:resource="http://purl.org/dc/dcmitype/StillImage" />
        <dc:title />
      </cc:Work>
    </rdf:RDF>
  </metadata>
  <g
     inkscape:label="Layer 1"
     inkscape:groupmode="layer"
     id="layer1"
     transform="translate(0,-552.36218)">
    <g
       id="g4183">
      <path
         inkscape:connector-curvature="0"
         id="path3364"
         d="m 97.040974,1029.8357 336.888376,-1.1739 1.17377,-363.88639 -88.03697,-89.21086 -250.025176,0 z"
         style="fill:#f2f2f2;fill-rule:evenodd;stroke:#afafaf;stroke-width:5.03546047;stroke-linecap:butt;stroke-linejoin:miter;stroke-miterlimit:4;stroke-dasharray:none;stroke-opacity:1" />
      <path
         inkscape:connector-curvature="0"
         id="rect4228"
         d="m 97.041016,907.86724 0,121.96756 336.888674,-1.0485 0.4375,-120.91906 -337.326174,0 z"
         style="fill:#394050;fill-opacity:1;stroke:none;stroke-width:5;stroke-miterlimit:4;stroke-dasharray:none;stroke-opacity:1" />
      <g
         id="g4189"
         transform="translate(-0.19627477,-146.16234)">
        <g
           id="g892"
           transform="matrix(1.6097691,-0.42629163,-0.42629163,-1.6097691,297.93511,1023.2773)">
          <path
             d="m 0,0 c -41.446,0 -75.045,33.599 -75.045,75.045 0,41.446 33.599,75.045 75.045,75.045 L 0,80.131 c -2.809,0 -5.086,-2.277 -5.086,-5.086 0,-2.81 2.277,-5.086 5.086,-5.086 L 0,0 Z m 0,150.09 c 41.447,0 75.045,-33.599 75.045,-75.045 C 75.045,33.599 41.447,0 0,0 l 0,69.959 c 2.809,0 5.086,2.276 5.086,5.086 0,2.809 -2.277,5.086 -5.086,5.086 l 0,69.959 z"
             style="fill:#999999;fill-opacity:1;fill-rule:evenodd;stroke:none"
             id="path894"
             inkscape:connector-curvature="0" />
        </g>
        <g
           id="g1694"
           transform="matrix(1.6097691,-0.42629163,-0.42629163,-1.6097691,297.93511,1023.2773)"
           style="fill:#cfcfcf;fill-opacity:1">
          <path
             d="m 0,0 c -41.446,0 -75.045,33.599 -75.045,75.045 0,41.446 33.599,75.045 75.045,75.045 L 0,80.131 c -2.809,0 -5.086,-2.277 -5.086,-5.086 0,-2.81 2.277,-5.086 5.086,-5.086 L 0,0 Z m 0,150.09 c 41.447,0 75.045,-33.599 75.045,-75.045 C 75.045,33.599 41.447,0 0,0 l 0,69.959 c 2.809,0 5.086,2.276 5.086,5.086 0,2.809 -2.277,5.086 -5.086,5.086 l 0,69.959 z"
             style="fill:#cfcfcf;fill-opacity:1;fill-rule:evenodd;stroke:none"
             id="path1696"
             inkscape:connector-curvature="0" />
        </g>
        <g
           id="g2418"
           transform="matrix(1.6097691,-0.42629163,-0.42629163,-1.6097691,277.37403,945.63429)"
           style="fill:#394050;fill-opacity:1">
          <path
             d="m 0,0 c -14.808,0 -26.812,12.005 -26.812,26.813 0,14.808 12.004,26.812 26.812,26.812 L 0,31.898 c -2.809,0 -5.086,-2.277 -5.086,-5.085 0,-2.81 2.277,-5.086 5.086,-5.086 L 0,0 Z m 0,53.625 c 14.808,0 26.813,-12.004 26.813,-26.812 C 26.813,12.005 14.808,0 0,0 l 0,21.727 c 2.809,0 5.086,2.276 5.086,5.086 0,2.808 -2.277,5.085 -5.086,5.085 l 0,21.727 z"
             style="fill:#394050;fill-opacity:1;fill-rule:evenodd;stroke:none"
             id="path2420"
             inkscape:connector-curvature="0" />
        </g>
        <g
           id="g2422"
           transform="matrix(1.6097691,-0.42629163,-0.42629163,-1.6097691,275.53486,938.68904)"
           style="fill:#ababab;fill-opacity:1">
          <path
             d="m 0,0 c -12.425,0 -22.498,10.073 -22.498,22.498 0,12.426 10.073,22.498 22.498,22.498 L 0,27.584 c -2.809,0 -5.086,-2.277 -5.086,-5.086 0,-2.81 2.277,-5.086 5.086,-5.086 L 0,0 Z m 0,44.996 c 12.425,0 22.498,-10.072 22.498,-22.498 C 22.498,10.073 12.425,0 0,0 l 0,17.412 c 2.809,0 5.086,2.276 5.086,5.086 0,2.809 -2.277,5.086 -5.086,5.086 l 0,17.412 z"
             style="fill:#ababab;fill-opacity:1;fill-rule:evenodd;stroke:none"
             id="path2424"
             inkscape:connector-curvature="0" />
        </g>
        <g
           id="g2426"
           transform="matrix(1.6097691,-0.42629163,-0.42629163,-1.6097691,269.97844,917.70704)"
           style="fill:#394050;fill-opacity:1">
          <path
             d="m 0,0 c -5.227,0 -9.464,4.237 -9.464,9.464 0,5.226 4.237,9.464 9.464,9.464 L 0,14.55 c -2.809,0 -5.086,-2.278 -5.086,-5.086 0,-2.81 2.277,-5.086 5.086,-5.086 L 0,0 Z m 0,18.928 c 5.227,0 9.464,-4.238 9.464,-9.464 C 9.464,4.237 5.227,0 0,0 l 0,4.378 c 2.809,0 5.086,2.276 5.086,5.086 0,2.808 -2.277,5.086 -5.086,5.086 l 0,4.378 z"
             style="fill:#394050;fill-opacity:1;fill-rule:evenodd;stroke:none"
             id="path2428"
             inkscape:connector-curvature="0" />
        </g>
      </g>
      <g
         id="flowRoot4168"
         style="font-style:normal;font-weight:normal;font-size:40px;line-height:125%;font-family:sans-serif;letter-spacing:0px;word-spacing:0px;fill:#ffffff;fill-opacity:1;stroke:none;stroke-width:1px;stroke-linecap:butt;stroke-linejoin:miter;stroke-opacity:1"
         transform="matrix(2.6442872,0,0,2.6442872,477.61842,219.09472)">
        <path
           inkscape:connector-curvature="0"
           id="path4177"
           style="font-style:normal;font-variant:normal;font-weight:bold;font-stretch:normal;font-family:sans-serif;-inkscape-font-specification:'sans-serif Bold';fill:#ffffff"
           d="m -97.917969,295.8309 q -2.070312,1.07422 -4.316411,1.6211 -2.24609,0.54687 -4.6875,0.54687 -7.28515,0 -11.54296,-4.0625 -4.25782,-4.08203 -4.25782,-11.05468 0,-6.99219 4.25782,-11.05469 4.25781,-4.08203 11.54296,-4.08203 2.44141,0 4.6875,0.54687 2.246099,0.54688 4.316411,1.6211 l 0,6.03515 q -2.089841,-1.42578 -4.121091,-2.08984 -2.03125,-0.66406 -4.27735,-0.66406 -4.02343,0 -6.32812,2.57812 -2.30469,2.57813 -2.30469,7.10938 0,4.51171 2.30469,7.08984 2.30469,2.57812 6.32812,2.57812 2.2461,0 4.27735,-0.66406 2.03125,-0.66406 4.121091,-2.08984 l 0,6.03515 z" />
        <path
           inkscape:connector-curvature="0"
           id="path4179"
           style="font-style:normal;font-variant:normal;font-weight:bold;font-stretch:normal;font-family:sans-serif;-inkscape-font-specification:'sans-serif Bold';fill:#ffffff"
           d="m -91.667969,268.27231 7.519532,0 0,17.48047 q 0,3.61328 1.171875,5.17578 1.191406,1.54297 3.867187,1.54297 2.695313,0 3.867188,-1.54297 1.191406,-1.5625 1.191406,-5.17578 l 0,-17.48047 7.519531,0 0,17.48047 q 0,6.19141 -3.105469,9.21875 -3.105468,3.02734 -9.472656,3.02734 -6.347656,0 -9.453125,-3.02734 -3.105469,-3.02734 -3.105469,-9.21875 l 0,-17.48047 z" />
        <path
           inkscape:connector-curvature="0"
           id="path4181"
           style="font-style:normal;font-variant:normal;font-weight:bold;font-stretch:normal;font-family:sans-serif;-inkscape-font-specification:'sans-serif Bold';fill:#ffffff"
           d="m -59.167969,268.27231 20.292969,0 0,5.68359 -12.773437,0 0,5.42969 12.011718,0 0,5.6836 -12.011718,0 0,6.67968 13.203125,0 0,5.6836 -20.722657,0 0,-29.16016 z" />
      </g>
    </g>
  </g>
</svg>
