<?xml version="1.0" encoding="UTF-8" standalone="no"?>
<!-- Created with Inkscape (http://www.inkscape.org/) -->

<svg
   xmlns:dc="http://purl.org/dc/elements/1.1/"
   xmlns:cc="http://creativecommons.org/ns#"
   xmlns:rdf="http://www.w3.org/1999/02/22-rdf-syntax-ns#"
   xmlns:svg="http://www.w3.org/2000/svg"
   xmlns="http://www.w3.org/2000/svg"
   xmlns:sodipodi="http://sodipodi.sourceforge.net/DTD/sodipodi-0.dtd"
   xmlns:inkscape="http://www.inkscape.org/namespaces/inkscape"
   width="500"
   height="500"
   id="svg2"
   version="1.1"
   inkscape:version="0.91 r13725"
   sodipodi:docname="application-x-font-snf.svg">
  <defs
     id="defs4" />
  <sodipodi:namedview
     id="base"
     pagecolor="#ffffff"
     bordercolor="#666666"
     borderopacity="1.0"
     inkscape:pageopacity="0.0"
     inkscape:pageshadow="2"
     inkscape:zoom="0.60666665"
     inkscape:cx="296.84758"
     inkscape:cy="182.11951"
     inkscape:document-units="px"
     inkscape:current-layer="layer1"
     showgrid="false"
     inkscape:window-width="1366"
     inkscape:window-height="715"
     inkscape:window-x="0"
     inkscape:window-y="24"
     inkscape:window-maximized="1" />
  <metadata
     id="metadata7">
    <rdf:RDF>
      <cc:Work
         rdf:about="">
        <dc:format>image/svg+xml</dc:format>
        <dc:type
           rdf:resource="http://purl.org/dc/dcmitype/StillImage" />
        <dc:title />
      </cc:Work>
    </rdf:RDF>
  </metadata>
  <g
     inkscape:label="Layer 1"
     inkscape:groupmode="layer"
     id="layer1"
     transform="translate(0,-552.36218)">
    <g
       id="g4173">
      <path
         inkscape:connector-curvature="0"
         id="path3364"
         d="m 97.040974,1029.8357 336.888376,-1.1739 1.17377,-363.88639 -88.03697,-89.21086 -250.025176,0 z"
         style="fill:#f2f2f2;fill-rule:evenodd;stroke:#afafaf;stroke-width:5.03546047;stroke-linecap:butt;stroke-linejoin:miter;stroke-miterlimit:4;stroke-dasharray:none;stroke-opacity:1" />
      <path
         inkscape:connector-curvature="0"
         id="rect4228"
         d="m 97.041016,907.86724 0,121.96756 336.888674,-1.0485 0.4375,-120.91906 -337.326174,0 z"
         style="fill:#00bbf2;fill-opacity:1;stroke:none;stroke-width:5;stroke-miterlimit:4;stroke-dasharray:none;stroke-opacity:1" />
      <g
         id="g4175"
         transform="translate(2.450728,-135.8559)">
        <g
           id="g4183"
           transform="matrix(0.6011192,0,0,0.6011192,107.63869,364.01579)">
          <rect
             ry="224.99983"
             y="652.52826"
             x="36.085583"
             height="449.99966"
             width="450"
             id="rect4259"
             style="fill:#00bbf2;fill-opacity:1;stroke:none" />
          <path
             id="path4728"
             d="m 406.32463,924.08094 c -0.13613,1.11487 -0.14738,2.2626 -0.32963,3.36183 0.18338,-0.225 0.42525,-0.39712 0.61538,-0.61537 -0.0338,-0.93263 -0.198,-1.82835 -0.28575,-2.74658 z"
             style="fill:#1e2022;fill-opacity:0.31372549;stroke:none"
             inkscape:connector-curvature="0" />
          <g
             id="text2993"
             style="font-style:normal;font-variant:normal;font-weight:normal;font-stretch:normal;font-size:40px;line-height:125%;font-family:Garamond;-inkscape-font-specification:Garamond;letter-spacing:-2.18000007px;word-spacing:0px;fill:#ffffff;fill-opacity:1;stroke:none"
             transform="matrix(7.5993455,0,0,7.5993455,389.47652,903.62562)">
            <path
               sodipodi:nodetypes="ccccscccscccccccccccccccccccccsccccccccccccccccccccccsccccccccsccccccccccccccccsccccccccccccccccccc"
               inkscape:connector-curvature="0"
               id="path2998"
               d="m -17.407727,-23.246676 c -1.145846,3e-5 -2.244804,0.174509 -3.3125,0.5 -1.054698,0.32555 -1.992197,0.828154 -2.8125,1.53125 -0.82032,0.690132 -1.505215,1.580755 -2,2.6875 -0.481776,1.093774 -0.718755,2.437523 -0.71875,4 l 0,1.28125 -3.03125,0 c -0.559898,2e-5 -0.989585,0.122415 -1.25,0.34375 -0.247397,0.208352 -0.343751,0.601581 -0.34375,1.1875 l 0,0.875 4.625,0 0.0625,17.9374996 c 0,0.7291656 -0.03646,1.4817687 -0.0625,2.25 -0.01303,0.7682254 -0.08855,1.4687464 -0.21875,2.0937504 -0.130213,0.638016 -0.325526,1.158849 -0.625,1.5625 -0.299483,0.41666 -0.734379,0.624994 -1.28125,0.625 -0.312503,-6e-6 -0.677086,-0.05209 -1.09375,-0.15625 -0.403648,-0.104173 -0.825522,-0.236985 -1.28125,-0.40625 -0.455729,-0.169277 -0.942708,-0.354173 -1.4375,-0.5625 -0.494791,-0.208339 -0.986977,-0.416672 -1.46875,-0.625 l -1.28125,2.96875 c -0.02603,0.0651 -0.04948,0.10416 -0.0625,0.15625 -0.01303,0.05207 3e-6,0.12239 0,0.1875 3e-6,0.260408 0.138023,0.468741 0.4375,0.625 0.299481,0.156241 0.645836,0.26562 1.0625,0.34375 0.403647,0.07812 0.820314,0.1302 1.25,0.15625 0.429688,0.02603 0.802083,0.06249 1.0625,0.0625 1.184894,-9e-6 2.335935,-0.216155 3.46875,-0.59375 1.132807,-0.364592 2.145827,-0.919279 3.03125,-1.6875 0.898429,-0.755215 1.591137,-1.70313 2.125,-2.875 0.546866,-1.171878 0.84374,-2.5677106 0.84375,-4.1562504 l 0,-17.9062496 4,0 c 1.958333,0 3.916667,0 5.875,0 l 0.03125,17.9374996 c 0,0.7291656 -0.0052,1.4817687 -0.03125,2.25 -0.01303,0.7682254 -0.08855,1.4687464 -0.21875,2.0937504 -0.130214,0.638016 -0.356776,1.158849 -0.65625,1.5625 -0.299484,0.41666 -0.734379,0.624994 -1.28125,0.625 -0.312504,-6e-6 -0.677087,-0.05209 -1.09375,-0.15625 -0.403648,-0.104173 -0.825522,-0.236985 -1.28125,-0.40625 -0.45573,-0.169277 -0.911459,-0.354173 -1.40625,-0.5625 -0.494791,-0.208339 -0.986978,-0.416672 -1.46875,-0.625 l -1.3125,2.96875 c -0.02604,0.0651 -0.01823,0.10416 -0.03125,0.15625 -0.01303,0.05207 -0.03125,0.12239 -0.03125,0.1875 3e-6,0.260408 0.138024,0.468741 0.4375,0.625 0.299482,0.156241 0.677085,0.26562 1.09375,0.34375 0.403647,0.07812 0.820313,0.1302 1.25,0.15625 0.429688,0.02603 0.770833,0.06249 1.03125,0.0625 1.184894,-9e-6 2.335934,-0.216155 3.46875,-0.59375 1.132807,-0.364592 2.145827,-0.919279 3.03125,-1.6875 0.8984288,-0.755215 1.6223868,-1.70313 2.1562498,-2.875 0.5468651,-1.171878 0.8124899,-2.5677106 0.8125,-4.1562504 l 0,-17.9062496 4,0 c 0.5598811,1.7e-5 0.971339,-0.122379 1.21875,-0.34375 0.260401,-0.234357 0.3749842,-0.632794 0.375,-1.21875 l 0,-0.84375 -5.59375,0 0,-2.625 c -10e-6,-0.768206 0.0052,-1.463517 0.03125,-2.0625 0.039052,-0.611953 0.1197813,-1.114558 0.25,-1.53125 0.1301977,-0.41664 0.3150934,-0.747368 0.5625,-0.96875 0.2604054,-0.221326 0.61978,-0.343722 1.0625,-0.34375 0.3255084,2.8e-5 0.6848831,0.08857 1.0625,0.21875 0.3906115,0.130235 0.8020694,0.291694 1.21875,0.5 0.4166519,0.195339 0.8567556,0.42711 1.3125,0.6875 0.455713,0.260442 0.91144184,0.520859 1.40625004,0.78125 l 1.4375,-2.625 c 0.0650856,-0.104138 0.13018966,-0.2031 0.15624996,-0.28125 0.039044,-0.0781 0.062481,-0.145805 0.0625,-0.25 -1.87e-5,-0.338512 -0.179706,-0.617158 -0.53124996,-0.8125 -0.33855952,-0.208304 -0.75001748,-0.34632 -1.21875,-0.4375 -0.46876654,-0.104132 -0.95574524,-0.19268 -1.43750004,-0.21875 -0.4687651,-0.02601 -0.8151189,-0.03122 -1.0625,-0.03125 -1.1458467,3e-5 -2.2448039,0.174509 -3.3125,0.5 -1.0546976,0.32555 -1.9921967,0.828154 -2.8125,1.53125 -0.82032,0.690132 -1.4739648,1.580755 -1.9687498,2.6875 -0.481777,1.093774 -0.718756,2.437523 -0.71875,4 l 0,1.28125 c -1.427083,0 -2.854167,0 -4.28125,0 l -5.59375,0 0,-2.625 c -10e-6,-0.768206 0.0052,-1.463517 0.03125,-2.0625 0.03905,-0.611953 0.119781,-1.114558 0.25,-1.53125 0.130197,-0.41664 0.315093,-0.747368 0.5625,-0.96875 0.260405,-0.221326 0.61978,-0.343722 1.0625,-0.34375 0.325509,2.8e-5 0.684883,0.08857 1.0625,0.21875 0.390611,0.130235 0.77082,0.291694 1.1875,0.5 0.416652,0.195339 0.856756,0.42711 1.3125,0.6875 0.455713,0.260442 0.942692,0.520859 1.4375,0.78125 l 1.4375,-2.625 c 0.06509,-0.104138 0.13019,-0.2031 0.15625,-0.28125 0.03904,-0.0781 0.03123,-0.145805 0.03125,-0.25 -1.8e-5,-0.338512 -0.148456,-0.617158 -0.5,-0.8125 -0.33856,-0.208304 -0.750017,-0.34632 -1.21875,-0.4375 -0.468766,-0.104132 -0.955745,-0.19268 -1.4375,-0.21875 -0.468765,-0.02601 -0.815119,-0.03122 -1.0625,-0.03125 z"
               style="font-weight:500;font-family:Artifika;-inkscape-font-specification:'Artifika Medium';fill:#ffffff;fill-opacity:1;stroke:none" />
          </g>
        </g>
      </g>
      <g
         id="flowRoot4158"
         style="font-style:normal;font-weight:normal;font-size:40px;line-height:125%;font-family:sans-serif;letter-spacing:0px;word-spacing:0px;fill:#ffffff;fill-opacity:1;stroke:none;stroke-width:1px;stroke-linecap:butt;stroke-linejoin:miter;stroke-opacity:1"
         transform="matrix(2.6442872,0,0,2.6442872,-212.96944,-83.57119)">
        <path
           inkscape:connector-curvature="0"
           id="path4167"
           style="font-style:normal;font-variant:normal;font-weight:bold;font-stretch:normal;font-family:sans-serif;-inkscape-font-specification:'sans-serif Bold';fill:#ffffff"
           d="m 159.12891,384.70395 0,6.17188 q -2.40235,-1.07422 -4.6875,-1.6211 -2.28516,-0.54687 -4.31641,-0.54687 -2.69531,0 -3.98438,0.74218 -1.28906,0.74219 -1.28906,2.30469 0,1.17188 0.85938,1.83594 0.8789,0.64453 3.16406,1.11328 l 3.20312,0.64453 q 4.86329,0.97656 6.91407,2.96875 2.05078,1.99219 2.05078,5.66406 0,4.82422 -2.8711,7.1875 -2.85156,2.34375 -8.73046,2.34375 -2.77344,0 -5.56641,-0.52734 -2.79297,-0.52734 -5.58594,-1.5625 l 0,-6.34766 q 2.79297,1.48438 5.39063,2.2461 2.61718,0.74219 5.03906,0.74219 2.46094,0 3.76953,-0.82032 1.30859,-0.82031 1.30859,-2.34375 0,-1.36718 -0.89843,-2.10937 -0.87891,-0.74219 -3.53516,-1.32813 l -2.91016,-0.64453 q -4.375,-0.9375 -6.40625,-2.98828 -2.01171,-2.05078 -2.01171,-5.52734 0,-4.35547 2.8125,-6.69922 2.8125,-2.34375 8.08593,-2.34375 2.40235,0 4.94141,0.37109 2.53906,0.35156 5.25391,1.07422 z" />
        <path
           inkscape:connector-curvature="0"
           id="path4169"
           style="font-style:normal;font-variant:normal;font-weight:bold;font-stretch:normal;font-family:sans-serif;-inkscape-font-specification:'sans-serif Bold';fill:#ffffff"
           d="m 167.66406,383.78598 8.39844,0 10.60547,20 0,-20 7.1289,0 0,29.16016 -8.39843,0 -10.60547,-20 0,20 -7.12891,0 0,-29.16016 z" />
        <path
           inkscape:connector-curvature="0"
           id="path4171"
           style="font-style:normal;font-variant:normal;font-weight:bold;font-stretch:normal;font-family:sans-serif;-inkscape-font-specification:'sans-serif Bold';fill:#ffffff"
           d="m 201.17969,383.78598 20.29297,0 0,5.6836 -12.77344,0 0,5.42968 12.01172,0 0,5.6836 -12.01172,0 0,12.36328 -7.51953,0 0,-29.16016 z" />
      </g>
    </g>
  </g>
</svg>
