<?xml version="1.0" encoding="UTF-8" standalone="no"?>
<!-- Created with Inkscape (http://www.inkscape.org/) -->

<svg
   xmlns:dc="http://purl.org/dc/elements/1.1/"
   xmlns:cc="http://creativecommons.org/ns#"
   xmlns:rdf="http://www.w3.org/1999/02/22-rdf-syntax-ns#"
   xmlns:svg="http://www.w3.org/2000/svg"
   xmlns="http://www.w3.org/2000/svg"
   xmlns:sodipodi="http://sodipodi.sourceforge.net/DTD/sodipodi-0.dtd"
   xmlns:inkscape="http://www.inkscape.org/namespaces/inkscape"
   width="500"
   height="500"
   id="svg2"
   version="1.1"
   inkscape:version="0.91 r13725"
   sodipodi:docname="zzzzz.svg">
  <defs
     id="defs4" />
  <sodipodi:namedview
     id="base"
     pagecolor="#ffffff"
     bordercolor="#666666"
     borderopacity="1.0"
     inkscape:pageopacity="0.0"
     inkscape:pageshadow="2"
     inkscape:zoom="0.30333332"
     inkscape:cx="26.871315"
     inkscape:cy="79.158982"
     inkscape:document-units="px"
     inkscape:current-layer="layer1"
     showgrid="false"
     inkscape:window-width="1366"
     inkscape:window-height="715"
     inkscape:window-x="0"
     inkscape:window-y="24"
     inkscape:window-maximized="1" />
  <metadata
     id="metadata7">
    <rdf:RDF>
      <cc:Work
         rdf:about="">
        <dc:format>image/svg+xml</dc:format>
        <dc:type
           rdf:resource="http://purl.org/dc/dcmitype/StillImage" />
        <dc:title />
      </cc:Work>
    </rdf:RDF>
  </metadata>
  <g
     inkscape:label="Layer 1"
     inkscape:groupmode="layer"
     id="layer1"
     transform="translate(0,-552.36218)">
    <g
       id="g4189">
      <path
         inkscape:connector-curvature="0"
         id="path3364"
         d="m 97.040974,1029.8357 336.888376,-1.1739 1.17377,-363.88639 -88.03697,-89.21086 -250.025176,0 z"
         style="fill:#f2f2f2;fill-rule:evenodd;stroke:#afafaf;stroke-width:5.03546047;stroke-linecap:butt;stroke-linejoin:miter;stroke-miterlimit:4;stroke-dasharray:none;stroke-opacity:1" />
      <path
         inkscape:connector-curvature="0"
         id="rect4228"
         d="m 97.041016,907.86724 0,121.96756 336.888674,-1.0485 0.4375,-120.91906 -337.326174,0 z"
         style="fill:#00bbf2;fill-opacity:1;stroke:none;stroke-width:5;stroke-miterlimit:4;stroke-dasharray:none;stroke-opacity:1" />
      <g
         id="flowRoot4148"
         style="font-style:normal;font-weight:normal;font-size:105.77146912px;line-height:125%;font-family:sans-serif;letter-spacing:0px;word-spacing:0px;fill:#ffffff;fill-opacity:1;stroke:none;stroke-width:1px;stroke-linecap:butt;stroke-linejoin:miter;stroke-opacity:1"
         transform="translate(0,50)">
        <path
           id="path4157"
           style="font-style:normal;font-variant:normal;font-weight:bold;font-stretch:normal;font-family:sans-serif;-inkscape-font-specification:'sans-serif Bold';fill:#ffffff"
           d="m 162.01907,895.70433 0,47.04971 7.12718,0 q 12.18851,0 18.59264,-6.04261 6.45578,-6.04261 6.45578,-17.55971 0,-11.46547 -6.40414,-17.45643 -6.40413,-5.99096 -18.64428,-5.99096 l -7.12718,0 z m -19.8838,-15.02905 20.96837,0 q 17.55972,0 26.13299,2.53066 8.62492,2.47902 14.77082,8.46998 5.42285,5.21627 8.05681,12.03357 2.63396,6.81731 2.63396,15.44223 0,8.72821 -2.63396,15.59716 -2.63396,6.8173 -8.05681,12.03357 -6.19755,5.99096 -14.87411,8.52162 -8.67657,2.47902 -26.0297,2.47902 l -20.96837,0 0,-77.10781 z" />
        <path
           id="path4159"
           style="font-style:normal;font-variant:normal;font-weight:bold;font-stretch:normal;font-family:sans-serif;-inkscape-font-specification:'sans-serif Bold';fill:#ffffff"
           d="m 265.15658,893.69013 q -9.08973,0 -14.09942,6.71401 -5.00968,6.714 -5.00968,18.90251 0,12.13687 5.00968,18.85088 5.00969,6.71401 14.09942,6.71401 9.14138,0 14.15107,-6.71401 5.00968,-6.71401 5.00968,-18.85088 0,-12.18851 -5.00968,-18.90251 -5.00969,-6.71401 -14.15107,-6.71401 z m 0,-14.4093 q 18.59264,0 29.12847,10.63912 10.53583,10.63912 10.53583,29.3867 0,18.69594 -10.53583,29.33506 -10.53583,10.63912 -29.12847,10.63912 -18.54099,0 -29.12847,-10.63912 -10.53583,-10.63912 -10.53583,-29.33506 0,-18.74758 10.53583,-29.3867 10.58748,-10.63912 29.12847,-10.63912 z" />
        <path
           id="path4161"
           style="font-style:normal;font-variant:normal;font-weight:bold;font-stretch:normal;font-family:sans-serif;-inkscape-font-specification:'sans-serif Bold';fill:#ffffff"
           d="m 380.94743,953.5481 q -5.4745,2.84054 -11.41382,4.28664 -5.93931,1.44609 -12.39509,1.44609 -19.26404,0 -30.52292,-10.74241 -11.25888,-10.79406 -11.25888,-29.23177 0,-18.48934 11.25888,-29.23176 11.25888,-10.79406 30.52292,-10.79406 6.45578,0 12.39509,1.44609 5.93932,1.4461 11.41382,4.28664 l 0,15.95868 q -5.52615,-3.77017 -10.89736,-5.52614 -5.3712,-1.75597 -11.31052,-1.75597 -10.63912,0 -16.73338,6.8173 -6.09425,6.8173 -6.09425,18.79922 0,11.93028 6.09425,18.74758 6.09426,6.81731 16.73338,6.81731 5.93932,0 11.31052,-1.75598 5.37121,-1.75597 10.89736,-5.52614 l 0,15.95868 z" />
      </g>
      <g
         id="g4170"
         transform="matrix(0.89810189,0,0,0.89810189,13.0936,-60.974934)">
        <rect
           style="fill:none;fill-opacity:1;stroke:#00bbf2;stroke-width:10.27064514;stroke-linecap:butt;stroke-linejoin:round;stroke-miterlimit:4;stroke-dasharray:none;stroke-opacity:1"
           id="rect4192"
           width="172.76912"
           height="199.35089"
           x="224.91071"
           y="798.66516" />
        <rect
           style="fill:#00bbf2;fill-opacity:1;stroke:none;stroke-width:8.59799957;stroke-linecap:butt;stroke-linejoin:round;stroke-miterlimit:4;stroke-dasharray:none;stroke-opacity:1"
           id="rect4194"
           width="106.16345"
           height="12.878844"
           x="267.13062"
           y="819.93274" />
        <rect
           style="fill:#00bbf2;fill-opacity:1;stroke:none;stroke-width:8.59799957;stroke-linecap:butt;stroke-linejoin:round;stroke-miterlimit:4;stroke-dasharray:none;stroke-opacity:1"
           id="rect4194-2"
           width="106.16345"
           height="12.878844"
           x="267.72156"
           y="848.32025" />
        <rect
           style="fill:#00bbf2;fill-opacity:1;stroke:none;stroke-width:8.59799957;stroke-linecap:butt;stroke-linejoin:round;stroke-miterlimit:4;stroke-dasharray:none;stroke-opacity:1"
           id="rect4194-0"
           width="106.16345"
           height="12.878844"
           x="267.47876"
           y="876.84338" />
        <rect
           style="fill:#00bbf2;fill-opacity:1;stroke:none;stroke-width:8.59799957;stroke-linecap:butt;stroke-linejoin:round;stroke-miterlimit:4;stroke-dasharray:none;stroke-opacity:1"
           id="rect4194-23"
           width="106.16345"
           height="12.878844"
           x="267.4787"
           y="904.86359" />
        <rect
           style="fill:#00bbf2;fill-opacity:1;stroke:none;stroke-width:8.59799957;stroke-linecap:butt;stroke-linejoin:round;stroke-miterlimit:4;stroke-dasharray:none;stroke-opacity:1"
           id="rect4194-5"
           width="106.16345"
           height="12.878844"
           x="266.95657"
           y="933.0578" />
        <rect
           style="fill:#00bbf2;fill-opacity:1;stroke:none;stroke-width:8.59799957;stroke-linecap:butt;stroke-linejoin:round;stroke-miterlimit:4;stroke-dasharray:none;stroke-opacity:1"
           id="rect4194-51"
           width="106.16345"
           height="12.878844"
           x="267.30466"
           y="961.25201" />
        <rect
           style="fill:#1a1a1a;fill-opacity:0.39207076;stroke:none;stroke-width:8.59799957;stroke-linecap:butt;stroke-linejoin:round;stroke-miterlimit:4;stroke-dasharray:none;stroke-opacity:1"
           id="rect4244"
           width="61.039627"
           height="209.29285"
           x="253.10071"
           y="794.01361" />
        <path
           style="fill:#00bbf2;fill-opacity:1;fill-rule:evenodd;stroke:none;stroke-width:1px;stroke-linecap:butt;stroke-linejoin:miter;stroke-opacity:1"
           d="m 286.11738,762.74812 -158.30223,30.4763 0.28836,202.8526 157.52162,31.01208 z"
           id="path3390"
           inkscape:connector-curvature="0"
           sodipodi:nodetypes="ccccc" />
        <path
           style="fill:#ffffff;fill-opacity:1;fill-rule:evenodd;stroke:none;stroke-width:1px;stroke-linecap:butt;stroke-linejoin:miter;stroke-opacity:1"
           d="m 153.11511,855.88122 15.8375,-0.69616 10.09423,58.12885 12.87884,-60.39135 17.05577,-0.69616 13.92308,62.47981 10.96442,-65.09038 19.66634,-0.69615 -20.88461,88.06345 -19.66634,-0.8702 -13.575,-58.4769 -12.1827,56.73652 -17.40384,-1.04423 z"
           id="path4248"
           inkscape:connector-curvature="0" />
      </g>
    </g>
  </g>
</svg>
