<?xml version="1.0" encoding="UTF-8" standalone="no"?>
<!-- Created with Inkscape (http://www.inkscape.org/) -->

<svg
   xmlns:dc="http://purl.org/dc/elements/1.1/"
   xmlns:cc="http://creativecommons.org/ns#"
   xmlns:rdf="http://www.w3.org/1999/02/22-rdf-syntax-ns#"
   xmlns:svg="http://www.w3.org/2000/svg"
   xmlns="http://www.w3.org/2000/svg"
   xmlns:sodipodi="http://sodipodi.sourceforge.net/DTD/sodipodi-0.dtd"
   xmlns:inkscape="http://www.inkscape.org/namespaces/inkscape"
   width="500"
   height="500"
   id="svg2"
   version="1.1"
   inkscape:version="0.91 r13725"
   sodipodi:docname="application-x-7zip.svg">
  <defs
     id="defs4" />
  <sodipodi:namedview
     id="base"
     pagecolor="#ffffff"
     bordercolor="#666666"
     borderopacity="1.0"
     inkscape:pageopacity="0.0"
     inkscape:pageshadow="2"
     inkscape:zoom="0.4289781"
     inkscape:cx="-18.317856"
     inkscape:cy="370.27186"
     inkscape:document-units="px"
     inkscape:current-layer="layer1"
     showgrid="false"
     inkscape:window-width="1366"
     inkscape:window-height="715"
     inkscape:window-x="0"
     inkscape:window-y="24"
     inkscape:window-maximized="1" />
  <metadata
     id="metadata7">
    <rdf:RDF>
      <cc:Work
         rdf:about="">
        <dc:format>image/svg+xml</dc:format>
        <dc:type
           rdf:resource="http://purl.org/dc/dcmitype/StillImage" />
        <dc:title />
      </cc:Work>
    </rdf:RDF>
  </metadata>
  <g
     inkscape:label="Layer 1"
     inkscape:groupmode="layer"
     id="layer1"
     transform="translate(0,-552.36218)">
    <g
       id="g4158">
      <path
         inkscape:connector-curvature="0"
         id="path3364"
         d="m 97.040974,1029.8357 336.888376,-1.1739 1.17377,-363.88639 -88.03697,-89.21086 -250.025176,0 z"
         style="fill:#f2f2f2;fill-rule:evenodd;stroke:#afafaf;stroke-width:5.03546047;stroke-linecap:butt;stroke-linejoin:miter;stroke-miterlimit:4;stroke-dasharray:none;stroke-opacity:1" />
      <path
         inkscape:connector-curvature="0"
         id="rect4228"
         d="m 97.041016,907.86724 0,121.96756 336.888674,-1.0485 0.4375,-120.91906 -337.326174,0 z"
         style="fill:#394050;fill-opacity:1;stroke:none;stroke-width:5;stroke-miterlimit:4;stroke-dasharray:none;stroke-opacity:1" />
      <rect
         ry="14.091859"
         y="654.97046"
         x="133.75447"
         height="191.02298"
         width="250"
         id="rect3955"
         style="fill:#394050;fill-opacity:1;stroke:none" />
      <rect
         ry="10.502701"
         y="677.41321"
         x="156.45805"
         height="142.36995"
         width="205.63672"
         id="rect3955-0"
         style="fill:#ffffff;fill-opacity:1;stroke:none" />
      <rect
         ry="8.4705143"
         y="692.0271"
         x="173.15947"
         height="114.82256"
         width="101.25262"
         id="rect3955-6"
         style="fill:#394050;fill-opacity:1;stroke:none" />
      <path
         sodipodi:nodetypes="ccczcczccc"
         inkscape:connector-curvature="0"
         id="path3993"
         d="m 196.54665,708.32025 0,17.8991 37.27441,0.1844 c 0,0 -14.36537,18.83722 -19.19079,33.03027 -4.82541,14.19317 -5.35128,34.322 -5.35128,34.322 l 18.08363,0.18442 c 0,0 0.3057,-19.90617 5.16675,-34.322 4.86109,-14.41569 22.51228,-33.95292 22.51228,-33.95292 l 0,-17.53003 z"
         style="fill:#ffffff;stroke:none" />
      <path
         inkscape:connector-curvature="0"
         id="path3995"
         d="m 292.62413,751.01471 0.18465,-15.68478 53.32826,0.18466 0,13.8395 -30.26241,34.32201 30.07788,-0.18441 -0.18465,15.50016 -52.9592,-0.369 -0.18465,-13.655 31.73862,-34.32198 z"
         style="fill:#394050;stroke:none" />
      <g
         id="flowRoot4154"
         style="font-style:normal;font-weight:normal;font-size:40px;line-height:125%;font-family:sans-serif;letter-spacing:0px;word-spacing:0px;fill:#ffffff;fill-opacity:1;stroke:none;stroke-width:1px;stroke-linecap:butt;stroke-linejoin:miter;stroke-opacity:1"
         transform="matrix(2.7434701,0,0,2.7434701,-179.58513,-115.58275)">
        <path
           id="path4163"
           style="font-style:normal;font-variant:normal;font-weight:bold;font-stretch:normal;font-family:sans-serif;-inkscape-font-specification:'sans-serif Bold';fill:#ffffff"
           d="m 113.4043,381.33286 21.97265,0 0,4.23828 -11.36718,24.92187 -7.32422,0 10.76172,-23.63281 -14.04297,0 0,-5.52734 z"
           inkscape:connector-curvature="0" />
        <path
           id="path4165"
           style="font-style:normal;font-variant:normal;font-weight:bold;font-stretch:normal;font-family:sans-serif;-inkscape-font-specification:'sans-serif Bold';fill:#ffffff"
           d="m 140.78711,381.33286 24.51172,0 0,4.55078 -15.64453,18.92578 16.09375,0 0,5.68359 -25.41016,0 0,-4.55078 15.64453,-18.92578 -15.19531,0 0,-5.68359 z"
           inkscape:connector-curvature="0" />
        <path
           id="path4167"
           style="font-style:normal;font-variant:normal;font-weight:bold;font-stretch:normal;font-family:sans-serif;-inkscape-font-specification:'sans-serif Bold';fill:#ffffff"
           d="m 171.19727,381.33286 7.51953,0 0,29.16015 -7.51953,0 0,-29.16015 z"
           inkscape:connector-curvature="0" />
        <path
           id="path4169"
           style="font-style:normal;font-variant:normal;font-weight:bold;font-stretch:normal;font-family:sans-serif;-inkscape-font-specification:'sans-serif Bold';fill:#ffffff"
           d="m 186.11914,381.33286 12.48047,0 q 5.56641,0 8.53516,2.48047 2.98828,2.46093 2.98828,7.03125 0,4.58984 -2.98828,7.07031 -2.96875,2.46094 -8.53516,2.46094 l -4.96094,0 0,10.11718 -7.51953,0 0,-29.16015 z m 7.51953,5.44922 0,8.14453 4.16016,0 q 2.1875,0 3.3789,-1.05469 1.19141,-1.07422 1.19141,-3.02734 0,-1.95313 -1.19141,-3.00782 -1.1914,-1.05468 -3.3789,-1.05468 l -4.16016,0 z"
           inkscape:connector-curvature="0" />
      </g>
    </g>
  </g>
</svg>
