<?xml version="1.0" encoding="UTF-8" standalone="no"?>
<!-- Created with Inkscape (http://www.inkscape.org/) -->

<svg
   xmlns:dc="http://purl.org/dc/elements/1.1/"
   xmlns:cc="http://creativecommons.org/ns#"
   xmlns:rdf="http://www.w3.org/1999/02/22-rdf-syntax-ns#"
   xmlns:svg="http://www.w3.org/2000/svg"
   xmlns="http://www.w3.org/2000/svg"
   xmlns:sodipodi="http://sodipodi.sourceforge.net/DTD/sodipodi-0.dtd"
   xmlns:inkscape="http://www.inkscape.org/namespaces/inkscape"
   width="500"
   height="500"
   id="svg2"
   version="1.1"
   inkscape:version="0.91 r13725"
   sodipodi:docname="application-x-raw-disk-image.svg">
  <defs
     id="defs4" />
  <sodipodi:namedview
     id="base"
     pagecolor="#ffffff"
     bordercolor="#666666"
     borderopacity="1.0"
     inkscape:pageopacity="0.0"
     inkscape:pageshadow="2"
     inkscape:zoom="0.8579562"
     inkscape:cx="186.10526"
     inkscape:cy="266.30808"
     inkscape:document-units="px"
     inkscape:current-layer="layer1"
     showgrid="false"
     inkscape:window-width="1366"
     inkscape:window-height="715"
     inkscape:window-x="0"
     inkscape:window-y="24"
     inkscape:window-maximized="1" />
  <metadata
     id="metadata7">
    <rdf:RDF>
      <cc:Work
         rdf:about="">
        <dc:format>image/svg+xml</dc:format>
        <dc:type
           rdf:resource="http://purl.org/dc/dcmitype/StillImage" />
        <dc:title />
      </cc:Work>
    </rdf:RDF>
  </metadata>
  <g
     inkscape:label="Layer 1"
     inkscape:groupmode="layer"
     id="layer1"
     transform="translate(0,-552.36218)">
    <g
       id="g4183">
      <path
         inkscape:connector-curvature="0"
         id="path3364"
         d="m 97.040974,1029.8357 336.888376,-1.1739 1.17377,-363.88639 -88.03697,-89.21086 -250.025176,0 z"
         style="fill:#f2f2f2;fill-rule:evenodd;stroke:#afafaf;stroke-width:5.03546047;stroke-linecap:butt;stroke-linejoin:miter;stroke-miterlimit:4;stroke-dasharray:none;stroke-opacity:1" />
      <path
         inkscape:connector-curvature="0"
         id="rect4228"
         d="m 97.041016,907.86724 0,121.96756 336.888674,-1.0485 0.4375,-120.91906 -337.326174,0 z"
         style="fill:#394050;fill-opacity:1;stroke:none;stroke-width:5;stroke-miterlimit:4;stroke-dasharray:none;stroke-opacity:1" />
      <g
         id="g4189"
         transform="translate(-0.19627477,-146.16234)">
        <g
           id="g892"
           transform="matrix(1.6097691,-0.42629163,-0.42629163,-1.6097691,297.93511,1023.2773)">
          <path
             d="m 0,0 c -41.446,0 -75.045,33.599 -75.045,75.045 0,41.446 33.599,75.045 75.045,75.045 L 0,80.131 c -2.809,0 -5.086,-2.277 -5.086,-5.086 0,-2.81 2.277,-5.086 5.086,-5.086 L 0,0 Z m 0,150.09 c 41.447,0 75.045,-33.599 75.045,-75.045 C 75.045,33.599 41.447,0 0,0 l 0,69.959 c 2.809,0 5.086,2.276 5.086,5.086 0,2.809 -2.277,5.086 -5.086,5.086 l 0,69.959 z"
             style="fill:#999999;fill-opacity:1;fill-rule:evenodd;stroke:none"
             id="path894"
             inkscape:connector-curvature="0" />
        </g>
        <g
           id="g1694"
           transform="matrix(1.6097691,-0.42629163,-0.42629163,-1.6097691,297.93511,1023.2773)"
           style="fill:#cfcfcf;fill-opacity:1">
          <path
             d="m 0,0 c -41.446,0 -75.045,33.599 -75.045,75.045 0,41.446 33.599,75.045 75.045,75.045 L 0,80.131 c -2.809,0 -5.086,-2.277 -5.086,-5.086 0,-2.81 2.277,-5.086 5.086,-5.086 L 0,0 Z m 0,150.09 c 41.447,0 75.045,-33.599 75.045,-75.045 C 75.045,33.599 41.447,0 0,0 l 0,69.959 c 2.809,0 5.086,2.276 5.086,5.086 0,2.809 -2.277,5.086 -5.086,5.086 l 0,69.959 z"
             style="fill:#cfcfcf;fill-opacity:1;fill-rule:evenodd;stroke:none"
             id="path1696"
             inkscape:connector-curvature="0" />
        </g>
        <g
           id="g2418"
           transform="matrix(1.6097691,-0.42629163,-0.42629163,-1.6097691,277.37403,945.63429)"
           style="fill:#394050;fill-opacity:1">
          <path
             d="m 0,0 c -14.808,0 -26.812,12.005 -26.812,26.813 0,14.808 12.004,26.812 26.812,26.812 L 0,31.898 c -2.809,0 -5.086,-2.277 -5.086,-5.085 0,-2.81 2.277,-5.086 5.086,-5.086 L 0,0 Z m 0,53.625 c 14.808,0 26.813,-12.004 26.813,-26.812 C 26.813,12.005 14.808,0 0,0 l 0,21.727 c 2.809,0 5.086,2.276 5.086,5.086 0,2.808 -2.277,5.085 -5.086,5.085 l 0,21.727 z"
             style="fill:#394050;fill-opacity:1;fill-rule:evenodd;stroke:none"
             id="path2420"
             inkscape:connector-curvature="0" />
        </g>
        <g
           id="g2422"
           transform="matrix(1.6097691,-0.42629163,-0.42629163,-1.6097691,275.53486,938.68904)"
           style="fill:#ababab;fill-opacity:1">
          <path
             d="m 0,0 c -12.425,0 -22.498,10.073 -22.498,22.498 0,12.426 10.073,22.498 22.498,22.498 L 0,27.584 c -2.809,0 -5.086,-2.277 -5.086,-5.086 0,-2.81 2.277,-5.086 5.086,-5.086 L 0,0 Z m 0,44.996 c 12.425,0 22.498,-10.072 22.498,-22.498 C 22.498,10.073 12.425,0 0,0 l 0,17.412 c 2.809,0 5.086,2.276 5.086,5.086 0,2.809 -2.277,5.086 -5.086,5.086 l 0,17.412 z"
             style="fill:#ababab;fill-opacity:1;fill-rule:evenodd;stroke:none"
             id="path2424"
             inkscape:connector-curvature="0" />
        </g>
        <g
           id="g2426"
           transform="matrix(1.6097691,-0.42629163,-0.42629163,-1.6097691,269.97844,917.70704)"
           style="fill:#394050;fill-opacity:1">
          <path
             d="m 0,0 c -5.227,0 -9.464,4.237 -9.464,9.464 0,5.226 4.237,9.464 9.464,9.464 L 0,14.55 c -2.809,0 -5.086,-2.278 -5.086,-5.086 0,-2.81 2.277,-5.086 5.086,-5.086 L 0,0 Z m 0,18.928 c 5.227,0 9.464,-4.238 9.464,-9.464 C 9.464,4.237 5.227,0 0,0 l 0,4.378 c 2.809,0 5.086,2.276 5.086,5.086 0,2.808 -2.277,5.086 -5.086,5.086 l 0,4.378 z"
             style="fill:#394050;fill-opacity:1;fill-rule:evenodd;stroke:none"
             id="path2428"
             inkscape:connector-curvature="0" />
        </g>
      </g>
      <g
         id="flowRoot4168"
         style="font-style:normal;font-weight:normal;font-size:40px;line-height:125%;font-family:sans-serif;letter-spacing:0px;word-spacing:0px;fill:#ffffff;fill-opacity:1;stroke:none;stroke-width:1px;stroke-linecap:butt;stroke-linejoin:miter;stroke-opacity:1"
         transform="matrix(2.1154295,0,0,2.1154295,-128.45043,113.9135)">
        <path
           inkscape:connector-curvature="0"
           id="path4177"
           style="font-style:normal;font-variant:normal;font-weight:bold;font-stretch:normal;font-size:50px;font-family:sans-serif;-inkscape-font-specification:'sans-serif Bold';fill:#ffffff"
           d="m 133.9668,385.17633 9.39941,0 0,36.45019 -9.39941,0 0,-36.45019 z" />
        <path
           inkscape:connector-curvature="0"
           id="path4179"
           style="font-style:normal;font-variant:normal;font-weight:bold;font-stretch:normal;font-size:50px;font-family:sans-serif;-inkscape-font-specification:'sans-serif Bold';fill:#ffffff"
           d="m 152.61914,385.17633 11.96289,0 8.30078,19.50683 8.34961,-19.50683 11.93848,0 0,36.45019 -8.88672,0 0,-26.66016 -8.39844,19.65332 -5.95703,0 -8.39844,-19.65332 0,26.66016 -8.91113,0 0,-36.45019 z" />
        <path
           inkscape:connector-curvature="0"
           id="path4181"
           style="font-style:normal;font-variant:normal;font-weight:bold;font-stretch:normal;font-size:50px;font-family:sans-serif;-inkscape-font-specification:'sans-serif Bold';fill:#ffffff"
           d="m 235.1875,418.91656 q -3.51563,1.70898 -7.2998,2.56348 -3.78418,0.85449 -7.8125,0.85449 -9.10645,0 -14.42872,-5.07813 -5.32226,-5.10254 -5.32226,-13.81836 0,-8.81347 5.41992,-13.86718 5.41992,-5.05371 14.84375,-5.05371 3.6377,0 6.95801,0.68359 3.34472,0.68359 6.29883,2.02637 l 0,7.54394 q -3.05176,-1.7334 -6.07911,-2.58789 -3.00292,-0.85449 -6.03027,-0.85449 -5.61523,0 -8.66699,3.14941 -3.02734,3.125 -3.02734,8.95996 0,5.78614 2.92968,8.93555 2.92969,3.14941 8.3252,3.14941 1.46484,0 2.70996,-0.17089 1.26953,-0.19532 2.27051,-0.58594 l 0,-7.08008 -5.73731,0 0,-6.29883 14.64844,0 0,17.5293 z" />
      </g>
    </g>
  </g>
</svg>
