<?xml version="1.0" encoding="UTF-8" standalone="no"?>
<!-- Created with Inkscape (http://www.inkscape.org/) -->

<svg
   xmlns:dc="http://purl.org/dc/elements/1.1/"
   xmlns:cc="http://creativecommons.org/ns#"
   xmlns:rdf="http://www.w3.org/1999/02/22-rdf-syntax-ns#"
   xmlns:svg="http://www.w3.org/2000/svg"
   xmlns="http://www.w3.org/2000/svg"
   xmlns:sodipodi="http://sodipodi.sourceforge.net/DTD/sodipodi-0.dtd"
   xmlns:inkscape="http://www.inkscape.org/namespaces/inkscape"
   width="500"
   height="500"
   id="svg2"
   version="1.1"
   inkscape:version="0.91 r13725"
   sodipodi:docname="application-vnd.oasis.opendocument.image.svg">
  <defs
     id="defs4" />
  <sodipodi:namedview
     id="base"
     pagecolor="#ffffff"
     bordercolor="#666666"
     borderopacity="1.0"
     inkscape:pageopacity="0.0"
     inkscape:pageshadow="2"
     inkscape:zoom="0.60666665"
     inkscape:cx="172.97971"
     inkscape:cy="107.62395"
     inkscape:document-units="px"
     inkscape:current-layer="layer1"
     showgrid="false"
     inkscape:window-width="1366"
     inkscape:window-height="715"
     inkscape:window-x="0"
     inkscape:window-y="24"
     inkscape:window-maximized="1" />
  <metadata
     id="metadata7">
    <rdf:RDF>
      <cc:Work
         rdf:about="">
        <dc:format>image/svg+xml</dc:format>
        <dc:type
           rdf:resource="http://purl.org/dc/dcmitype/StillImage" />
        <dc:title />
      </cc:Work>
    </rdf:RDF>
  </metadata>
  <g
     inkscape:label="Layer 1"
     inkscape:groupmode="layer"
     id="layer1"
     transform="translate(0,-552.36218)">
    <g
       id="g4175">
      <path
         inkscape:connector-curvature="0"
         id="path3364"
         d="m 97.040974,1029.8357 336.888376,-1.1739 1.17377,-363.88639 -88.03697,-89.21086 -250.025176,0 z"
         style="fill:#f2f2f2;fill-rule:evenodd;stroke:#afafaf;stroke-width:5.03546047;stroke-linecap:butt;stroke-linejoin:miter;stroke-miterlimit:4;stroke-dasharray:none;stroke-opacity:1" />
      <path
         inkscape:connector-curvature="0"
         id="rect4228"
         d="m 97.041016,907.86724 0,121.96756 336.888674,-1.0485 0.4375,-120.91906 -337.326174,0 z"
         style="fill:#ffcc00;fill-opacity:1;stroke:none;stroke-width:5;stroke-miterlimit:4;stroke-dasharray:none;stroke-opacity:1" />
      <g
         transform="translate(-16.483517,11.538462)"
         id="g4174">
        <circle
           style="fill:#ff6600;fill-opacity:1;stroke:none"
           id="path3018"
           cx="235.66255"
           cy="705.25287"
           r="80.804726" />
        <rect
           style="fill:#deb200;fill-opacity:1;stroke:none"
           id="rect3788"
           width="148.142"
           height="134.67456"
           x="274.52286"
           y="683.85376" />
        <path
           style="fill:#ffcc00;stroke:none"
           d="m 166.90214,861.58446 161.60945,0 -80.4477,-139.53792 z"
           id="path3790"
           inkscape:connector-curvature="0"
           sodipodi:nodetypes="cccc" />
        <rect
           style="fill:#45d03f;fill-opacity:1;stroke:none"
           id="rect3792"
           width="24.241419"
           height="24.241419"
           x="235.96896"
           y="708.32147" />
        <rect
           style="fill:#45d03f;fill-opacity:1;stroke:none"
           id="rect3792-3"
           width="24.241419"
           height="24.241419"
           x="147.66484"
           y="846.14471" />
        <rect
           style="fill:#45d03f;fill-opacity:1;stroke:none"
           id="rect3792-6"
           width="24.241419"
           height="24.241419"
           x="324.79138"
           y="844.24023" />
      </g>
      <g
         id="flowRoot4160"
         style="font-style:normal;font-weight:normal;font-size:40px;line-height:125%;font-family:sans-serif;letter-spacing:0px;word-spacing:0px;fill:#ffffff;fill-opacity:1;stroke:none;stroke-width:1px;stroke-linecap:butt;stroke-linejoin:miter;stroke-opacity:1"
         transform="matrix(1.3221434,0,0,1.3221434,16.20119,426.37318)">
        <path
           inkscape:connector-curvature="0"
           id="path4169"
           style="font-style:normal;font-variant:normal;font-weight:bold;font-stretch:normal;font-size:80px;font-family:sans-serif;-inkscape-font-specification:'sans-serif Bold';fill:#ffffff"
           d="m 141.12695,391.154 q -6.875,0 -10.66406,5.07812 -3.78906,5.07813 -3.78906,14.29688 0,9.17968 3.78906,14.25781 3.78906,5.07812 10.66406,5.07812 6.91407,0 10.70313,-5.07812 3.78906,-5.07813 3.78906,-14.25781 0,-9.21875 -3.78906,-14.29688 -3.78906,-5.07812 -10.70313,-5.07812 z m 0,-10.89844 q 14.0625,0 22.03125,8.04687 7.96875,8.04688 7.96875,22.22657 0,14.14062 -7.96875,22.1875 -7.96875,8.04687 -22.03125,8.04687 -14.02343,0 -22.03125,-8.04687 -7.96875,-8.04688 -7.96875,-22.1875 0,-14.17969 7.96875,-22.22657 8.00782,-8.04687 22.03125,-8.04687 z" />
        <path
           inkscape:connector-curvature="0"
           id="path4171"
           style="font-style:normal;font-variant:normal;font-weight:bold;font-stretch:normal;font-size:80px;font-family:sans-serif;-inkscape-font-specification:'sans-serif Bold';fill:#ffffff"
           d="m 197.49414,392.67743 0,35.58594 5.39063,0 q 9.21875,0 14.0625,-4.57031 4.88281,-4.57031 4.88281,-13.28125 0,-8.67188 -4.84375,-13.20313 -4.84375,-4.53125 -14.10156,-4.53125 l -5.39063,0 z m -15.03906,-11.36718 15.85937,0 q 13.28125,0 19.76563,1.91406 6.52344,1.875 11.17187,6.40625 4.10157,3.94531 6.09375,9.10156 1.99219,5.15625 1.99219,11.67969 0,6.60156 -1.99219,11.79687 -1.99218,5.15625 -6.09375,9.10157 -4.6875,4.53125 -11.25,6.44531 -6.5625,1.875 -19.6875,1.875 l -15.85937,0 0,-58.32031 z" />
        <path
           inkscape:connector-curvature="0"
           id="path4173"
           style="font-style:normal;font-variant:normal;font-weight:bold;font-stretch:normal;font-size:80px;font-family:sans-serif;-inkscape-font-specification:'sans-serif Bold';fill:#ffffff"
           d="m 248.86133,381.31025 15.03906,0 0,58.32031 -15.03906,0 0,-58.32031 z" />
      </g>
    </g>
  </g>
</svg>
