<?xml version="1.0" encoding="UTF-8" standalone="no"?>
<!-- Created with Inkscape (http://www.inkscape.org/) -->

<svg
   xmlns:dc="http://purl.org/dc/elements/1.1/"
   xmlns:cc="http://creativecommons.org/ns#"
   xmlns:rdf="http://www.w3.org/1999/02/22-rdf-syntax-ns#"
   xmlns:svg="http://www.w3.org/2000/svg"
   xmlns="http://www.w3.org/2000/svg"
   xmlns:sodipodi="http://sodipodi.sourceforge.net/DTD/sodipodi-0.dtd"
   xmlns:inkscape="http://www.inkscape.org/namespaces/inkscape"
   width="500"
   height="500"
   id="svg2"
   version="1.1"
   inkscape:version="0.91 r13725"
   sodipodi:docname="application-rss+xml.svg">
  <defs
     id="defs4" />
  <sodipodi:namedview
     id="base"
     pagecolor="#ffffff"
     bordercolor="#666666"
     borderopacity="1.0"
     inkscape:pageopacity="0.0"
     inkscape:pageshadow="2"
     inkscape:zoom="0.60666664"
     inkscape:cx="-14.15336"
     inkscape:cy="203.79118"
     inkscape:document-units="px"
     inkscape:current-layer="layer1"
     showgrid="false"
     inkscape:window-width="1366"
     inkscape:window-height="715"
     inkscape:window-x="0"
     inkscape:window-y="24"
     inkscape:window-maximized="1" />
  <metadata
     id="metadata7">
    <rdf:RDF>
      <cc:Work
         rdf:about="">
        <dc:format>image/svg+xml</dc:format>
        <dc:type
           rdf:resource="http://purl.org/dc/dcmitype/StillImage" />
        <dc:title />
      </cc:Work>
    </rdf:RDF>
  </metadata>
  <g
     inkscape:label="Layer 1"
     inkscape:groupmode="layer"
     id="layer1"
     transform="translate(0,-552.36218)">
    <g
       id="g4165">
      <path
         inkscape:connector-curvature="0"
         id="path3364"
         d="m 97.040974,1029.8357 336.888376,-1.1739 1.17377,-363.88639 -88.03697,-89.21086 -250.025176,0 z"
         style="fill:#f2f2f2;fill-rule:evenodd;stroke:#afafaf;stroke-width:5.03546047;stroke-linecap:butt;stroke-linejoin:miter;stroke-miterlimit:4;stroke-dasharray:none;stroke-opacity:1" />
      <path
         inkscape:connector-curvature="0"
         id="rect4228"
         d="m 97.041016,907.86724 0,121.96756 336.888674,-1.0485 0.4375,-120.91906 -337.326174,0 z"
         style="fill:#ff6600;fill-opacity:1;stroke:none;stroke-width:5;stroke-miterlimit:4;stroke-dasharray:none;stroke-opacity:1" />
      <path
         inkscape:connector-curvature="0"
         style="fill:#ff6600;fill-opacity:1;stroke:none"
         d="m 137.77479,621.45563 0,49.39552 49.39558,0 c 82.0954,0 148.18675,66.09143 148.18675,148.18684 l 0,49.39555 49.39557,0 0,-49.39555 c 0,-109.46053 -88.12174,-197.58236 -197.58232,-197.58236 l -49.39558,0 z m 0,98.79123 0,49.39558 49.39558,0 c 27.3651,0 49.3956,22.03048 49.3956,49.39555 l 0,49.39555 49.3956,0 0,-49.39555 c 0,-54.7303 -44.06094,-98.79113 -98.7912,-98.79113 l -49.39558,0 z m 28.81412,90.5585 c -15.96305,0 -28.81412,12.85112 -28.81412,28.81416 0,15.96308 12.85107,28.81402 28.81412,28.81402 15.96297,0 28.81404,-12.85094 28.81404,-28.81402 0,-15.96304 -12.85107,-28.81416 -28.81404,-28.81416 z"
         id="rect4116-7-3" />
      <g
         id="flowRoot4150"
         style="font-style:normal;font-weight:normal;font-size:40px;line-height:125%;font-family:sans-serif;letter-spacing:0px;word-spacing:0px;fill:#ffffff;fill-opacity:1;stroke:none;stroke-width:1px;stroke-linecap:butt;stroke-linejoin:miter;stroke-opacity:1"
         transform="matrix(2.6442863,0,0,2.6442863,-157.7632,-71.44255)">
        <path
           inkscape:connector-curvature="0"
           id="path4159"
           style="font-style:normal;font-variant:normal;font-weight:bold;font-stretch:normal;font-family:sans-serif;-inkscape-font-specification:'sans-serif Bold';fill:#ffffff"
           d="m 129.74023,391.77231 q 2.36329,0 3.37891,-0.87891 1.03516,-0.8789 1.03516,-2.89062 0,-1.99219 -1.03516,-2.85156 -1.01562,-0.85938 -3.37891,-0.85938 l -3.16406,0 0,7.48047 3.16406,0 z m -3.16406,5.19531 0,11.03516 -7.51953,0 0,-29.16016 11.48438,0 q 5.76171,0 8.4375,1.9336 2.69531,1.93359 2.69531,6.11328 0,2.89062 -1.40625,4.74609 -1.38672,1.85547 -4.19922,2.73438 1.54297,0.35156 2.75391,1.60156 1.23046,1.23047 2.48046,3.75 l 4.08204,8.28125 -8.00782,0 -3.55468,-7.24609 q -1.07422,-2.1875 -2.1875,-2.98829 -1.09375,-0.80078 -2.92969,-0.80078 l -2.12891,0 z" />
        <path
           inkscape:connector-curvature="0"
           id="path4161"
           style="font-style:normal;font-variant:normal;font-weight:bold;font-stretch:normal;font-family:sans-serif;-inkscape-font-specification:'sans-serif Bold';fill:#ffffff"
           d="m 170.13086,379.76059 0,6.17188 q -2.40234,-1.07422 -4.6875,-1.6211 -2.28516,-0.54687 -4.31641,-0.54687 -2.69531,0 -3.98437,0.74219 -1.28906,0.74218 -1.28906,2.30468 0,1.17188 0.85937,1.83594 0.87891,0.64453 3.16406,1.11328 l 3.20313,0.64453 q 4.86328,0.97657 6.91406,2.96875 2.05078,1.99219 2.05078,5.66407 0,4.82421 -2.87109,7.1875 -2.85156,2.34375 -8.73047,2.34375 -2.77344,0 -5.56641,-0.52735 -2.79297,-0.52734 -5.58593,-1.5625 l 0,-6.34765 q 2.79296,1.48437 5.39062,2.24609 2.61719,0.74219 5.03906,0.74219 2.46094,0 3.76953,-0.82032 1.3086,-0.82031 1.3086,-2.34375 0,-1.36718 -0.89844,-2.10937 -0.87891,-0.74219 -3.53516,-1.32813 l -2.91015,-0.64453 q -4.375,-0.9375 -6.40625,-2.98828 -2.01172,-2.05078 -2.01172,-5.52734 0,-4.35547 2.8125,-6.69922 2.8125,-2.34375 8.08594,-2.34375 2.40234,0 4.9414,0.37109 2.53907,0.35157 5.25391,1.07422 z" />
        <path
           inkscape:connector-curvature="0"
           id="path4163"
           style="font-style:normal;font-variant:normal;font-weight:bold;font-stretch:normal;font-family:sans-serif;-inkscape-font-specification:'sans-serif Bold';fill:#ffffff"
           d="m 197.16211,379.76059 0,6.17188 q -2.40234,-1.07422 -4.6875,-1.6211 -2.28516,-0.54687 -4.31641,-0.54687 -2.69531,0 -3.98437,0.74219 -1.28906,0.74218 -1.28906,2.30468 0,1.17188 0.85937,1.83594 0.87891,0.64453 3.16406,1.11328 l 3.20313,0.64453 q 4.86328,0.97657 6.91406,2.96875 2.05078,1.99219 2.05078,5.66407 0,4.82421 -2.87109,7.1875 -2.85156,2.34375 -8.73047,2.34375 -2.77344,0 -5.56641,-0.52735 -2.79297,-0.52734 -5.58593,-1.5625 l 0,-6.34765 q 2.79296,1.48437 5.39062,2.24609 2.61719,0.74219 5.03906,0.74219 2.46094,0 3.76953,-0.82032 1.3086,-0.82031 1.3086,-2.34375 0,-1.36718 -0.89844,-2.10937 -0.87891,-0.74219 -3.53516,-1.32813 l -2.91015,-0.64453 q -4.375,-0.9375 -6.40625,-2.98828 -2.01172,-2.05078 -2.01172,-5.52734 0,-4.35547 2.8125,-6.69922 2.8125,-2.34375 8.08594,-2.34375 2.40234,0 4.9414,0.37109 2.53907,0.35157 5.25391,1.07422 z" />
      </g>
    </g>
  </g>
</svg>
