<?xml version="1.0" encoding="UTF-8" standalone="no"?>
<!-- Created with Inkscape (http://www.inkscape.org/) -->

<svg
   xmlns:dc="http://purl.org/dc/elements/1.1/"
   xmlns:cc="http://creativecommons.org/ns#"
   xmlns:rdf="http://www.w3.org/1999/02/22-rdf-syntax-ns#"
   xmlns:svg="http://www.w3.org/2000/svg"
   xmlns="http://www.w3.org/2000/svg"
   xmlns:sodipodi="http://sodipodi.sourceforge.net/DTD/sodipodi-0.dtd"
   xmlns:inkscape="http://www.inkscape.org/namespaces/inkscape"
   width="500"
   height="500"
   id="svg2"
   version="1.1"
   inkscape:version="0.91 r13725"
   sodipodi:docname="application-x-desktop.svg">
  <defs
     id="defs4">
    <radialGradient
       id="polygon413_1_-3"
       cx="7976.3457"
       cy="-10508.842"
       r="13293.867"
       gradientTransform="matrix(0.00792857,0,0,-0.00885714,197.51568,815.04932)"
       gradientUnits="userSpaceOnUse">
      <stop
         offset="0"
         style="stop-color:#80FF80"
         id="stop388-6" />
      <stop
         offset="1"
         style="stop-color:#0f0"
         id="stop390-7" />
    </radialGradient>
  </defs>
  <sodipodi:namedview
     id="base"
     pagecolor="#ffffff"
     bordercolor="#666666"
     borderopacity="1.0"
     inkscape:pageopacity="0.0"
     inkscape:pageshadow="2"
     inkscape:zoom="0.85795618"
     inkscape:cx="314.49907"
     inkscape:cy="313.34111"
     inkscape:document-units="px"
     inkscape:current-layer="layer1"
     showgrid="false"
     inkscape:window-width="1366"
     inkscape:window-height="715"
     inkscape:window-x="0"
     inkscape:window-y="24"
     inkscape:window-maximized="1" />
  <metadata
     id="metadata7">
    <rdf:RDF>
      <cc:Work
         rdf:about="">
        <dc:format>image/svg+xml</dc:format>
        <dc:type
           rdf:resource="http://purl.org/dc/dcmitype/StillImage" />
        <dc:title />
      </cc:Work>
    </rdf:RDF>
  </metadata>
  <g
     inkscape:label="Layer 1"
     inkscape:groupmode="layer"
     id="layer1"
     transform="translate(0,-552.36218)">
    <path
       style="fill:#f2f2f2;fill-rule:evenodd;stroke:#afafaf;stroke-width:5.03546047;stroke-linecap:butt;stroke-linejoin:miter;stroke-miterlimit:4;stroke-dasharray:none;stroke-opacity:1"
       d="m 97.040974,1029.8357 336.888376,-1.1739 1.17377,-363.88639 -88.03697,-89.21086 -250.025176,0 z"
       id="path3364"
       inkscape:connector-curvature="0" />
    <path
       style="fill:#00bbf2;fill-opacity:1;stroke:none;stroke-width:5;stroke-miterlimit:4;stroke-dasharray:none;stroke-opacity:1"
       d="m 97.041016,907.86724 0,121.96756 336.888674,-1.0485 0.4375,-120.91906 -337.326174,0 z"
       id="rect4228"
       inkscape:connector-curvature="0" />
    <g
       transform="matrix(1.0127152,0,0,1.0127152,0.54853769,-183.95648)"
       id="g4203">
      <path
         id="path9"
         d="m 399.71485,847.14497 c 0.007,0 0.14802,0.0907 0.14802,0.0985 l 0,166.93193 -274.66829,0 0,-166.93193 c 0,-0.007 0.0976,-0.0985 0.10546,-0.0985 l 274.41481,0 0,0 z"
         style="fill:#00bbf2;fill-opacity:1"
         inkscape:connector-curvature="0" />
      <path
         sodipodi:nodetypes="cccczzc"
         inkscape:connector-curvature="0"
         id="path3787"
         d="m 125.867,936.10789 -0.43642,66.50821 274.36782,-0.168 -0.72535,-55.03163 c 0,0 -38.74154,10.60629 -72.24822,7.32386 -33.50667,-3.28242 -84.59008,-36.18846 -120.2467,-37.42955 -35.65657,-1.24107 -80.71113,18.79711 -80.71113,18.79711 z"
         style="fill:#0077d7;fill-opacity:1;stroke:none;stroke-width:0.55641943px;stroke-linecap:butt;stroke-linejoin:miter;stroke-opacity:1" />
      <path
         inkscape:connector-curvature="0"
         id="path2996"
         d="m 135.69374,855.56953 10.68188,0.008 0.17946,0.0804 0.0884,0.17144 0,8.98638 1.00981,1.03391 0.008,4.65525 -0.25446,0.1741 -11.71848,0.0857 z"
         style="fill:#ffb800;stroke:none" />
      <path
         sodipodi:nodetypes="cccccccc"
         inkscape:connector-curvature="0"
         id="path3766"
         d="m 135.69374,855.56994 4.07587,3.341 0.0151,9.31843 -0.3182,0.48486 0.007,4.70467 -0.25759,0.14395 -3.52909,-2.80211 z"
         style="fill:#faec6d;stroke:none" />
      <path
         inkscape:connector-curvature="0"
         id="path3768"
         d="m 136.08479,870.54507 0.0215,-14.01395"
         style="fill:none;stroke:#ffb800;stroke-width:0.08485079px;stroke-linecap:round;stroke-linejoin:miter;stroke-opacity:1" />
      <path
         inkscape:connector-curvature="0"
         id="path3768-3"
         d="m 136.36865,870.749 0.0215,-14.01395"
         style="fill:none;stroke:#ffb800;stroke-width:0.08485079px;stroke-linecap:round;stroke-linejoin:miter;stroke-opacity:1" />
      <path
         style="fill:#cccccc;fill-opacity:0.58823529;stroke-width:0.78468841"
         d="m 140.6143,887.12517 c -2.22794,-0.11108 -4.28673,-0.72813 -5.17578,-1.55123 -0.22562,-0.20886 -0.40548,-0.50684 -0.40485,-0.67066 9.2e-4,-0.27729 0.34203,-0.69165 0.82037,-0.99695 2.04718,-1.30656 6.28352,-1.65449 9.38901,-0.77112 1.0727,0.30514 1.88322,0.7209 2.33096,1.19568 0.30271,0.32099 0.35979,0.52469 0.22823,0.81447 -0.3091,0.68085 -1.68555,1.37404 -3.41744,1.72109 -0.69712,0.1397 -1.36078,0.21902 -2.18302,0.26087 -0.71973,0.0367 -0.81092,0.0366 -1.58748,-0.003 z"
         id="path3340"
         inkscape:connector-curvature="0" />
      <path
         style="fill:#cccccc;fill-opacity:0.58823529;stroke-width:0.78468841"
         d="m 140.83856,898.63513 c -1.70939,-0.0852 -3.28901,-0.55864 -3.97114,-1.19017 -0.17311,-0.16028 -0.3111,-0.38888 -0.31062,-0.51457 6e-4,-0.21275 0.26243,-0.53069 0.62943,-0.76492 1.5707,-1.00247 4.82107,-1.26941 7.20376,-0.59166 0.82304,0.23414 1.44491,0.55313 1.78844,0.91741 0.23227,0.24627 0.27606,0.40257 0.17511,0.6249 -0.23716,0.52239 -1.29324,1.05422 -2.62205,1.32052 -0.53487,0.10717 -1.04406,0.16801 -1.67493,0.20016 -0.55221,0.0281 -0.62217,0.0281 -1.218,-0.003 z"
         id="path3340-3"
         inkscape:connector-curvature="0" />
      <path
         style="fill:#969696;fill-opacity:0.58823529;stroke-width:0.78468841"
         d="m 140.72483,898.6397 c -1.83078,-0.12552 -3.32129,-0.62549 -3.9653,-1.33013 -0.2293,-0.2509 -0.29136,-0.38525 -0.35932,-0.77793 -0.18754,-1.0837 -2.03022,-10.9978 -2.0784,-11.18239 -0.32992,-1.26372 1.01625,-2.40831 3.56995,-3.03536 0.58483,-0.1436 1.47347,-0.28581 2.17865,-0.34865 0.63313,-0.0565 2.10264,-0.0565 2.73577,0 3.08932,0.2753 5.40193,1.34018 5.7504,2.6479 0.0673,0.25252 0.0615,0.44553 -0.0237,0.79469 -0.0921,0.37769 -2.07908,11.14736 -2.07908,11.269 0,0.0493 -0.0503,0.19047 -0.11184,0.31357 -0.31214,0.62465 -1.35877,1.17823 -2.77228,1.46628 -0.78675,0.16033 -2.0193,0.23963 -2.84494,0.18302 z"
         id="path3348"
         inkscape:connector-curvature="0" />
      <g
         style="fill:#006680;stroke:#006680;stroke-opacity:1"
         id="g20"
         transform="matrix(0.17529528,0,0,0.17529528,130.30603,878.03231)">
        <linearGradient
           y2="89.454102"
           x2="81.225601"
           y1="89.454102"
           x1="64.779297"
           gradientUnits="userSpaceOnUse"
           id="SVGID_2_">
          <stop
             id="stop23"
             style="stop-color:#80C11B"
             offset="0" />
          <stop
             id="stop25"
             style="stop-color:#80E21B"
             offset="1" />
        </linearGradient>
        <path
           style="fill:#006680;stroke:#006680;stroke-opacity:1"
           id="path27"
           d="m 68.818,87.321 -4.039,7.105 4.105,7.037 -0.016,-3.096 3.416,-0.063 c 2.135,-0.059 3.303,-1.699 3.303,-1.699 l 5.166,-8.844 c 1.104,-2.484 -0.076,-4.172 -0.076,-4.172 l -3.594,-6.146 -7.104,4.107 4.563,7.889 c 0.168,0.416 -0.1,0.754 -0.596,0.746 l -5.107,0.035 -0.021,-2.899 0,0 z"
           inkscape:connector-curvature="0" />
        <linearGradient
           y2="88.808601"
           x2="62.918499"
           y1="88.808601"
           x1="46.181198"
           gradientUnits="userSpaceOnUse"
           id="SVGID_3_">
          <stop
             id="stop30"
             style="stop-color:#80C11B"
             offset="0" />
          <stop
             id="stop32"
             style="stop-color:#80E21B"
             offset="1" />
        </linearGradient>
        <path
           style="fill:#006680;stroke:#006680;stroke-opacity:1"
           id="path34"
           d="m 58.476,86.259 -4.15,-7.043 -8.145,0.055 2.689,1.529 -1.651,2.99 c -1.013,1.881 -0.17,3.711 -0.17,3.711 l 5.096,8.885 c 1.604,2.197 3.656,2.011 3.656,2.011 l 7.118,-0.05 -0.024,-8.207 -9.112,0.027 C 53.34,90.104 53.179,89.706 53.432,89.278 l 2.515,-4.447 2.529,1.428 0,0 z"
           inkscape:connector-curvature="0" />
        <linearGradient
           y2="73.499001"
           x2="76.783203"
           y1="73.499001"
           x1="51.8843"
           gradientUnits="userSpaceOnUse"
           id="SVGID_4_">
          <stop
             id="stop37"
             style="stop-color:#80C11B"
             offset="0" />
          <stop
             id="stop39"
             style="stop-color:#80E21B"
             offset="1" />
        </linearGradient>
        <path
           style="fill:#006680;stroke:#006680;stroke-opacity:1"
           id="path41"
           d="m 64.572,77.841 8.174,-0.063 4.037,-7.074 -2.672,1.561 -1.762,-2.928 C 71.232,67.519 69.224,67.329 69.224,67.329 L 58.981,67.282 c -2.707,0.287 -3.573,2.154 -3.573,2.154 l -3.524,6.188 7.111,4.092 4.546,-7.896 c 0.276,-0.354 0.701,-0.291 0.944,0.145 l 2.588,4.402 -2.501,1.474 0,0 z"
           inkscape:connector-curvature="0" />
      </g>
      <rect
         y="1002.162"
         x="124.94504"
         height="11.965826"
         width="275"
         id="rect4164"
         style="fill:#1a1a1a;fill-opacity:1;stroke:none;stroke-opacity:1" />
      <path
         sodipodi:open="true"
         sodipodi:end="6.2786747"
         sodipodi:start="6.2787571"
         d="m 140.9646,1008.2823 a 5.1371002,4.9104633 0 0 1 -5.1142,4.9321 5.1371002,4.9104633 0 0 1 -5.1599,-4.8884 5.1371002,4.9104633 0 0 1 5.11398,-4.9324 5.1371002,4.9104633 0 0 1 5.16011,4.8883"
         sodipodi:ry="4.9104633"
         sodipodi:rx="5.1371002"
         sodipodi:cy="1008.304"
         sodipodi:cx="135.82755"
         id="path3832"
         style="fill:#ffffff;fill-opacity:1;stroke:none"
         sodipodi:type="arc" />
      <rect
         y="1004.6193"
         x="391.78818"
         height="7.0512819"
         width="3.8461537"
         id="rect3852"
         style="fill:#71c837;fill-opacity:0.58823529;stroke:none" />
      <rect
         y="1004.5516"
         x="386.39523"
         height="7.0512819"
         width="1.1642851"
         id="rect3852-6"
         style="fill:#ffffff;fill-opacity:1;stroke:none" />
      <rect
         y="1005.8358"
         x="384.44992"
         height="5.8803253"
         width="1.1642851"
         id="rect3852-6-7"
         style="fill:#ffffff;fill-opacity:1;stroke:none" />
      <rect
         y="1007.0255"
         x="382.44797"
         height="4.6338229"
         width="1.1642851"
         id="rect3852-6-7-5"
         style="fill:#ffffff;fill-opacity:1;stroke:none" />
      <rect
         y="1008.4044"
         x="380.59708"
         height="3.3495476"
         width="1.1642851"
         id="rect3852-6-7-5-3"
         style="fill:#ffffff;fill-opacity:1;stroke:none" />
      <path
         sodipodi:open="true"
         sodipodi:end="6.2784904"
         sodipodi:start="0"
         transform="matrix(0.89137186,-0.45327278,0.45327278,0.89137186,0,0)"
         d="m -63.399138,945.17932 a 13.545701,13.29012 0 0 1 -13.529803,13.29011 13.545701,13.29012 0 0 1 -13.561562,-13.25891 13.545701,13.29012 0 0 1 13.497967,-13.32124 13.545701,13.29012 0 0 1 13.593248,13.22765"
         sodipodi:ry="13.29012"
         sodipodi:rx="13.545701"
         sodipodi:cy="945.17932"
         sodipodi:cx="-76.944839"
         id="path3767"
         style="fill:#faec6d;fill-opacity:1;stroke:none"
         sodipodi:type="arc" />
    </g>
    <g
       transform="matrix(1.5157736,0,0,1.5157736,598.99173,693.39356)"
       style="font-style:normal;font-weight:normal;font-size:40px;line-height:125%;font-family:sans-serif;letter-spacing:0px;word-spacing:0px;fill:#ffffff;fill-opacity:1;stroke:none;stroke-width:1px;stroke-linecap:butt;stroke-linejoin:miter;stroke-opacity:1"
       id="flowRoot3380">
      <path
         d="m -314,172.55356 0,17.79297 2.69531,0 q 4.60938,0 7.03125,-2.28516 2.44141,-2.28515 2.44141,-6.64062 0,-4.33594 -2.42188,-6.60156 -2.42187,-2.26563 -7.05078,-2.26563 l -2.69531,0 z m -7.51953,-5.68359 7.92969,0 q 6.64062,0 9.88281,0.95703 3.26172,0.9375 5.58594,3.20312 2.05078,1.97266 3.04687,4.55078 0.9961,2.57813 0.9961,5.83985 0,3.30078 -0.9961,5.89844 -0.99609,2.57812 -3.04687,4.55078 -2.34375,2.26562 -5.625,3.22265 -3.28125,0.9375 -9.84375,0.9375 l -7.92969,0 0,-29.16015 z"
         style="font-style:normal;font-variant:normal;font-weight:bold;font-stretch:normal;font-family:sans-serif;-inkscape-font-specification:'sans-serif Bold';fill:#ffffff"
         id="path3389"
         inkscape:connector-curvature="0" />
      <path
         d="m -288.31641,166.86997 20.29297,0 0,5.68359 -12.77343,0 0,5.42969 12.01171,0 0,5.68359 -12.01171,0 0,6.67969 13.20312,0 0,5.68359 -20.72266,0 0,-29.16015 z"
         style="font-style:normal;font-variant:normal;font-weight:bold;font-stretch:normal;font-family:sans-serif;-inkscape-font-specification:'sans-serif Bold';fill:#ffffff"
         id="path3391"
         inkscape:connector-curvature="0" />
      <path
         d="m -240.67969,167.78794 0,6.17187 q -2.40234,-1.07422 -4.6875,-1.62109 -2.28515,-0.54688 -4.3164,-0.54688 -2.69532,0 -3.98438,0.74219 -1.28906,0.74219 -1.28906,2.30469 0,1.17187 0.85937,1.83593 0.87891,0.64454 3.16407,1.11329 l 3.20312,0.64453 q 4.86328,0.97656 6.91406,2.96875 2.05079,1.99218 2.05079,5.66406 0,4.82422 -2.8711,7.1875 -2.85156,2.34375 -8.73047,2.34375 -2.77343,0 -5.5664,-0.52734 -2.79297,-0.52735 -5.58594,-1.5625 l 0,-6.34766 q 2.79297,1.48437 5.39062,2.24609 2.61719,0.74219 5.03907,0.74219 2.46093,0 3.76953,-0.82031 1.30859,-0.82031 1.30859,-2.34375 0,-1.36719 -0.89844,-2.10938 -0.8789,-0.74218 -3.53515,-1.32812 l -2.91016,-0.64453 q -4.375,-0.9375 -6.40625,-2.98828 -2.01172,-2.05079 -2.01172,-5.52735 0,-4.35547 2.8125,-6.69922 2.8125,-2.34375 8.08594,-2.34375 2.40234,0 4.94141,0.3711 2.53906,0.35156 5.2539,1.07422 z"
         style="font-style:normal;font-variant:normal;font-weight:bold;font-stretch:normal;font-family:sans-serif;-inkscape-font-specification:'sans-serif Bold';fill:#ffffff"
         id="path3393"
         inkscape:connector-curvature="0" />
      <path
         d="m -232.14453,166.86997 7.51953,0 0,10.64453 10.83984,-10.64453 8.73047,0 -14.04297,13.80859 15.48829,15.35156 -9.41407,0 -11.60156,-11.48437 0,11.48437 -7.51953,0 0,-29.16015 z"
         style="font-style:normal;font-variant:normal;font-weight:bold;font-stretch:normal;font-family:sans-serif;-inkscape-font-specification:'sans-serif Bold';fill:#ffffff"
         id="path3395"
         inkscape:connector-curvature="0" />
      <path
         d="m -204.60547,166.86997 26.875,0 0,5.68359 -9.66797,0 0,23.47656 -7.51953,0 0,-23.47656 -9.6875,0 0,-5.68359 z"
         style="font-style:normal;font-variant:normal;font-weight:bold;font-stretch:normal;font-family:sans-serif;-inkscape-font-specification:'sans-serif Bold';fill:#ffffff"
         id="path3397"
         inkscape:connector-curvature="0" />
      <path
         d="m -160.54297,171.79184 q -3.4375,0 -5.33203,2.53906 -1.89453,2.53907 -1.89453,7.14844 0,4.58985 1.89453,7.12891 1.89453,2.53906 5.33203,2.53906 3.45703,0 5.35156,-2.53906 1.89454,-2.53906 1.89454,-7.12891 0,-4.60937 -1.89454,-7.14844 -1.89453,-2.53906 -5.35156,-2.53906 z m 0,-5.44922 q 7.03125,0 11.01563,4.02344 3.98437,4.02344 3.98437,11.11328 0,7.07031 -3.98437,11.09375 -3.98438,4.02344 -11.01563,4.02344 -7.01172,0 -11.01562,-4.02344 -3.98438,-4.02344 -3.98438,-11.09375 0,-7.08984 3.98438,-11.11328 4.0039,-4.02344 11.01562,-4.02344 z"
         style="font-style:normal;font-variant:normal;font-weight:bold;font-stretch:normal;font-family:sans-serif;-inkscape-font-specification:'sans-serif Bold';fill:#ffffff"
         id="path3399"
         inkscape:connector-curvature="0" />
      <path
         d="m -139.87891,166.86997 12.48047,0 q 5.56641,0 8.53516,2.48047 2.98828,2.46093 2.98828,7.03125 0,4.58984 -2.98828,7.07031 -2.96875,2.46094 -8.53516,2.46094 l -4.96093,0 0,10.11718 -7.51954,0 0,-29.16015 z m 7.51954,5.44922 0,8.14453 4.16015,0 q 2.1875,0 3.37891,-1.05469 1.1914,-1.07422 1.1914,-3.02734 0,-1.95313 -1.1914,-3.00782 -1.19141,-1.05468 -3.37891,-1.05468 l -4.16015,0 z"
         style="font-style:normal;font-variant:normal;font-weight:bold;font-stretch:normal;font-family:sans-serif;-inkscape-font-specification:'sans-serif Bold';fill:#ffffff"
         id="path3401"
         inkscape:connector-curvature="0" />
    </g>
  </g>
</svg>
