<?xml version="1.0" encoding="UTF-8" standalone="no"?>
<!-- Created with Inkscape (http://www.inkscape.org/) -->

<svg
   xmlns:dc="http://purl.org/dc/elements/1.1/"
   xmlns:cc="http://creativecommons.org/ns#"
   xmlns:rdf="http://www.w3.org/1999/02/22-rdf-syntax-ns#"
   xmlns:svg="http://www.w3.org/2000/svg"
   xmlns="http://www.w3.org/2000/svg"
   xmlns:sodipodi="http://sodipodi.sourceforge.net/DTD/sodipodi-0.dtd"
   xmlns:inkscape="http://www.inkscape.org/namespaces/inkscape"
   width="500"
   height="500"
   id="svg2"
   version="1.1"
   inkscape:version="0.91 r13725"
   sodipodi:docname="application-vnd.stardivision.math.svg">
  <defs
     id="defs4" />
  <sodipodi:namedview
     id="base"
     pagecolor="#ffffff"
     bordercolor="#666666"
     borderopacity="1.0"
     inkscape:pageopacity="0.0"
     inkscape:pageshadow="2"
     inkscape:zoom="0.4289781"
     inkscape:cx="152.16177"
     inkscape:cy="187.11809"
     inkscape:document-units="px"
     inkscape:current-layer="layer1"
     showgrid="false"
     inkscape:window-width="1366"
     inkscape:window-height="715"
     inkscape:window-x="0"
     inkscape:window-y="24"
     inkscape:window-maximized="1" />
  <metadata
     id="metadata7">
    <rdf:RDF>
      <cc:Work
         rdf:about="">
        <dc:format>image/svg+xml</dc:format>
        <dc:type
           rdf:resource="http://purl.org/dc/dcmitype/StillImage" />
        <dc:title />
      </cc:Work>
    </rdf:RDF>
  </metadata>
  <g
     inkscape:label="Layer 1"
     inkscape:groupmode="layer"
     id="layer1"
     transform="translate(0,-552.36218)">
    <g
       id="g4169">
      <path
         inkscape:connector-curvature="0"
         id="path3364"
         d="m 97.040974,1029.8357 336.888376,-1.1739 1.17377,-363.88639 -88.03697,-89.21086 -250.025176,0 z"
         style="fill:#f2f2f2;fill-rule:evenodd;stroke:#afafaf;stroke-width:5.03546047;stroke-linecap:butt;stroke-linejoin:miter;stroke-miterlimit:4;stroke-dasharray:none;stroke-opacity:1" />
      <path
         inkscape:connector-curvature="0"
         id="rect4228"
         d="m 97.041016,907.86724 0,121.96756 336.888674,-1.0485 0.4375,-120.91906 -337.326174,0 z"
         style="fill:#394050;fill-opacity:1;stroke:none;stroke-width:5;stroke-miterlimit:4;stroke-dasharray:none;stroke-opacity:1" />
      <g
         id="g4156"
         transform="translate(-4.661751,-146.86067)">
        <path
           style="color:#000000;font-style:normal;font-variant:normal;font-weight:normal;font-stretch:normal;font-size:medium;line-height:normal;font-family:sans-serif;text-indent:0;text-align:start;text-decoration:none;text-decoration-line:none;text-decoration-style:solid;text-decoration-color:#000000;letter-spacing:normal;word-spacing:normal;text-transform:none;direction:ltr;block-progression:tb;writing-mode:lr-tb;baseline-shift:baseline;text-anchor:start;white-space:normal;clip-rule:nonzero;display:inline;overflow:visible;visibility:visible;opacity:1;isolation:auto;mix-blend-mode:normal;color-interpolation:sRGB;color-interpolation-filters:linearRGB;solid-color:#000000;solid-opacity:1;fill:#394050;fill-opacity:1;fill-rule:nonzero;stroke:none;stroke-width:24.22398758;stroke-linecap:butt;stroke-linejoin:miter;stroke-miterlimit:4;stroke-dasharray:none;stroke-dashoffset:0;stroke-opacity:1;color-rendering:auto;image-rendering:auto;shape-rendering:auto;text-rendering:auto;enable-background:accumulate"
           d="m 208.4082,811.39258 -25.76367,158.65234 -16.60351,-55.66992 -53.5625,0 0,24.22461 35.50976,0 26.53906,88.98439 23.5625,-1.5195 30.85938,-190.02934 147.19336,2.97461 0,39.51757 24.22461,0 0,-63.25781 -191.95899,-3.87695 z"
           id="path3005"
           inkscape:connector-curvature="0" />
        <path
           style="color:#000000;font-style:normal;font-variant:normal;font-weight:normal;font-stretch:normal;font-size:medium;line-height:normal;font-family:sans-serif;text-indent:0;text-align:start;text-decoration:none;text-decoration-line:none;text-decoration-style:solid;text-decoration-color:#000000;letter-spacing:normal;word-spacing:normal;text-transform:none;direction:ltr;block-progression:tb;writing-mode:lr-tb;baseline-shift:baseline;text-anchor:start;white-space:normal;clip-rule:nonzero;display:inline;overflow:visible;visibility:visible;opacity:1;isolation:auto;mix-blend-mode:normal;color-interpolation:sRGB;color-interpolation-filters:linearRGB;solid-color:#000000;solid-opacity:1;fill:#394050;fill-opacity:1;fill-rule:nonzero;stroke:none;stroke-width:24.22398758;stroke-linecap:round;stroke-linejoin:miter;stroke-miterlimit:4;stroke-dasharray:none;stroke-dashoffset:0;stroke-opacity:1;color-rendering:auto;image-rendering:auto;shape-rendering:auto;text-rendering:auto;enable-background:accumulate"
           d="m 259.45117,879.98828 a 12.113205,12.113205 0 0 0 -8.89844,20.07813 l 95.92188,113.05079 a 12.113205,12.113205 0 1 0 18.4707,-15.67189 L 269.02344,884.39453 a 12.113205,12.113205 0 0 0 -9.57227,-4.40625 z"
           id="path3775"
           inkscape:connector-curvature="0" />
        <path
           style="color:#000000;font-style:normal;font-variant:normal;font-weight:normal;font-stretch:normal;font-size:medium;line-height:normal;font-family:sans-serif;text-indent:0;text-align:start;text-decoration:none;text-decoration-line:none;text-decoration-style:solid;text-decoration-color:#000000;letter-spacing:normal;word-spacing:normal;text-transform:none;direction:ltr;block-progression:tb;writing-mode:lr-tb;baseline-shift:baseline;text-anchor:start;white-space:normal;clip-rule:nonzero;display:inline;overflow:visible;visibility:visible;opacity:1;isolation:auto;mix-blend-mode:normal;color-interpolation:sRGB;color-interpolation-filters:linearRGB;solid-color:#000000;solid-opacity:1;fill:#394050;fill-opacity:1;fill-rule:nonzero;stroke:none;stroke-width:24.22398758;stroke-linecap:round;stroke-linejoin:miter;stroke-miterlimit:4;stroke-dasharray:none;stroke-dashoffset:0;stroke-opacity:1;color-rendering:auto;image-rendering:auto;shape-rendering:auto;text-rendering:auto;enable-background:accumulate"
           d="m 355.68164,881.69922 a 12.113205,12.113205 0 0 0 -9.20703,4.4082 L 250.55273,999.1582 a 12.113205,12.113205 0 1 0 18.47071,15.6719 l 95.92187,-113.0508 a 12.113205,12.113205 0 0 0 -9.26367,-20.08008 z"
           id="path3775-3"
           inkscape:connector-curvature="0" />
      </g>
      <g
         id="flowRoot4154"
         style="font-style:normal;font-weight:normal;font-size:40px;line-height:125%;font-family:sans-serif;letter-spacing:0px;word-spacing:0px;fill:#ffffff;fill-opacity:1;stroke:none;stroke-width:1px;stroke-linecap:butt;stroke-linejoin:miter;stroke-opacity:1"
         transform="matrix(1.3221432,0,0,1.3221432,50.903333,404.80957)">
        <path
           inkscape:connector-curvature="0"
           id="path4163"
           style="font-style:normal;font-variant:normal;font-weight:bold;font-stretch:normal;font-size:80px;font-family:sans-serif;-inkscape-font-specification:'sans-serif Bold';fill:#ffffff"
           d="m 108.53906,397.3747 0,12.34375 q -4.80468,-2.14844 -9.374998,-3.24219 -4.570312,-1.09375 -8.632812,-1.09375 -5.390625,0 -7.96875,1.48438 -2.578125,1.48437 -2.578125,4.60937 0,2.34375 1.71875,3.67188 1.757812,1.28906 6.328125,2.22656 l 6.40625,1.28906 q 9.72656,1.95313 13.82813,5.9375 4.10156,3.98438 4.10156,11.32813 0,9.64843 -5.74219,14.375 -5.70312,4.6875 -17.460938,4.6875 -5.546875,0 -11.132812,-1.05469 -5.585938,-1.05469 -11.171875,-3.125 l 0,-12.69531 q 5.585937,2.96875 10.78125,4.49218 5.234375,1.48438 10.078125,1.48438 4.921875,0 7.539062,-1.64063 2.617188,-1.64062 2.617188,-4.6875 0,-2.73437 -1.796875,-4.21875 -1.757813,-1.48437 -7.070313,-2.65625 L 83.1875,429.60126 q -8.75,-1.875 -12.8125,-5.97656 -4.023438,-4.10156 -4.023438,-11.05469 0,-8.71094 5.625,-13.39844 5.625,-4.6875 16.171875,-4.6875 4.804688,0 9.882813,0.74219 5.07813,0.70313 10.50781,2.14844 z" />
        <path
           inkscape:connector-curvature="0"
           id="path4165"
           style="font-style:normal;font-variant:normal;font-weight:bold;font-stretch:normal;font-size:80px;font-family:sans-serif;-inkscape-font-specification:'sans-serif Bold';fill:#ffffff"
           d="m 125.60938,395.53876 19.14062,0 13.28125,31.21094 13.35937,-31.21094 19.10157,0 0,58.32031 -14.21875,0 0,-42.65625 -13.4375,31.44532 -9.53125,0 -13.4375,-31.44532 0,42.65625 -14.25781,0 0,-58.32031 z" />
        <path
           inkscape:connector-curvature="0"
           id="path4167"
           style="font-style:normal;font-variant:normal;font-weight:bold;font-stretch:normal;font-size:80px;font-family:sans-serif;-inkscape-font-specification:'sans-serif Bold';fill:#ffffff"
           d="m 205.29687,395.53876 40.58594,0 0,11.36719 -25.54687,0 0,10.85937 24.02343,0 0,11.36719 -24.02343,0 0,24.72656 -15.03907,0 0,-58.32031 z" />
      </g>
    </g>
  </g>
</svg>
