<?xml version="1.0" encoding="UTF-8" standalone="no"?>
<!-- Created with Inkscape (http://www.inkscape.org/) -->

<svg
   xmlns:dc="http://purl.org/dc/elements/1.1/"
   xmlns:cc="http://creativecommons.org/ns#"
   xmlns:rdf="http://www.w3.org/1999/02/22-rdf-syntax-ns#"
   xmlns:svg="http://www.w3.org/2000/svg"
   xmlns="http://www.w3.org/2000/svg"
   xmlns:sodipodi="http://sodipodi.sourceforge.net/DTD/sodipodi-0.dtd"
   xmlns:inkscape="http://www.inkscape.org/namespaces/inkscape"
   width="500"
   height="500"
   id="svg2"
   version="1.1"
   inkscape:version="0.91 r13725"
   sodipodi:docname="application-vnd.openxmlformats-officedocument.spreadsheetml.sheet.svg">
  <defs
     id="defs4" />
  <sodipodi:namedview
     id="base"
     pagecolor="#ffffff"
     bordercolor="#666666"
     borderopacity="1.0"
     inkscape:pageopacity="0.0"
     inkscape:pageshadow="2"
     inkscape:zoom="0.60666665"
     inkscape:cx="-69.065057"
     inkscape:cy="234.41145"
     inkscape:document-units="px"
     inkscape:current-layer="layer1"
     showgrid="false"
     inkscape:window-width="1366"
     inkscape:window-height="715"
     inkscape:window-x="0"
     inkscape:window-y="24"
     inkscape:window-maximized="1" />
  <metadata
     id="metadata7">
    <rdf:RDF>
      <cc:Work
         rdf:about="">
        <dc:format>image/svg+xml</dc:format>
        <dc:type
           rdf:resource="http://purl.org/dc/dcmitype/StillImage" />
        <dc:title />
      </cc:Work>
    </rdf:RDF>
  </metadata>
  <g
     inkscape:label="Layer 1"
     inkscape:groupmode="layer"
     id="layer1"
     transform="translate(0,-552.36218)">
    <g
       id="g4172">
      <path
         inkscape:connector-curvature="0"
         id="path3364"
         d="m 97.040974,1029.8357 336.888376,-1.1739 1.17377,-363.88639 -88.03697,-89.21086 -250.025176,0 z"
         style="fill:#f2f2f2;fill-rule:evenodd;stroke:#afafaf;stroke-width:5.03546047;stroke-linecap:butt;stroke-linejoin:miter;stroke-miterlimit:4;stroke-dasharray:none;stroke-opacity:1" />
      <path
         inkscape:connector-curvature="0"
         id="rect4228"
         d="m 97.041016,907.86724 0,121.96756 336.888674,-1.0485 0.4375,-120.91906 -337.326174,0 z"
         style="fill:#45d03f;fill-opacity:1;stroke:none;stroke-width:5;stroke-miterlimit:4;stroke-dasharray:none;stroke-opacity:1" />
      <g
         id="g4235"
         transform="translate(-4.9450569,-141.75828)">
        <rect
           style="fill:#e6e6e6;fill-opacity:1;stroke:#45d03f;stroke-width:10.27064514;stroke-linecap:butt;stroke-linejoin:round;stroke-miterlimit:4;stroke-dasharray:none;stroke-opacity:1"
           id="rect4192"
           width="172.76912"
           height="199.35089"
           x="223.33183"
           y="796.21863" />
        <rect
           style="fill:#45d03f;fill-opacity:1;stroke:none;stroke-width:8.59799957;stroke-linecap:butt;stroke-linejoin:round;stroke-miterlimit:4;stroke-dasharray:none;stroke-opacity:1"
           id="rect4194-51-9"
           width="106.16345"
           height="21.120604"
           x="266.69852"
           y="820.09857" />
        <rect
           style="fill:#45d03f;fill-opacity:1;stroke:none;stroke-width:8.59799957;stroke-linecap:butt;stroke-linejoin:round;stroke-miterlimit:4;stroke-dasharray:none;stroke-opacity:1"
           id="rect4194-51"
           width="106.16345"
           height="21.120604"
           x="265.7258"
           y="950.56372" />
        <rect
           style="fill:#45d03f;fill-opacity:1;stroke:none;stroke-width:8.59799957;stroke-linecap:butt;stroke-linejoin:round;stroke-miterlimit:4;stroke-dasharray:none;stroke-opacity:1"
           id="rect4194-51-7"
           width="106.16345"
           height="21.120604"
           x="265.87433"
           y="918.17554" />
        <g
           id="g4315"
           style="fill:#45d03f;fill-opacity:1">
          <rect
             y="885.74316"
             x="267.44843"
             height="21.120604"
             width="106.16345"
             id="rect4194-51-8"
             style="fill:#45d03f;fill-opacity:1;stroke:none;stroke-width:8.59799957;stroke-linecap:butt;stroke-linejoin:round;stroke-miterlimit:4;stroke-dasharray:none;stroke-opacity:1" />
          <rect
             y="853.35498"
             x="267.59695"
             height="21.120604"
             width="106.16345"
             id="rect4194-51-7-0"
             style="fill:#45d03f;fill-opacity:1;stroke:none;stroke-width:8.59799957;stroke-linecap:butt;stroke-linejoin:round;stroke-miterlimit:4;stroke-dasharray:none;stroke-opacity:1" />
        </g>
        <rect
           style="fill:#1a1a1a;fill-opacity:0.39207076;stroke:none;stroke-width:8.59799957;stroke-linecap:butt;stroke-linejoin:round;stroke-miterlimit:4;stroke-dasharray:none;stroke-opacity:1"
           id="rect4244"
           width="61.039627"
           height="209.29285"
           x="251.52184"
           y="791.56708" />
        <path
           style="fill:#45d03f;fill-opacity:1;fill-rule:evenodd;stroke:none;stroke-width:1px;stroke-linecap:butt;stroke-linejoin:miter;stroke-opacity:1"
           d="m 284.53851,760.30159 -158.30223,30.4763 0.28836,202.8526 157.52162,31.01211 z"
           id="path3390-3"
           inkscape:connector-curvature="0"
           sodipodi:nodetypes="ccccc" />
        <rect
           style="fill:#e6e6e6;fill-opacity:1;stroke:none;stroke-width:8.59799957;stroke-linecap:butt;stroke-linejoin:round;stroke-miterlimit:4;stroke-dasharray:none;stroke-opacity:1"
           id="rect4194-8"
           width="160.53528"
           height="12.87895"
           x="812.91486"
           y="-333.27847"
           transform="matrix(-0.00236116,0.99999721,-0.99998543,-0.00539902,0,0)" />
        <path
           style="fill:#ffffff;fill-opacity:1;fill-rule:evenodd;stroke:none;stroke-width:1px;stroke-linecap:butt;stroke-linejoin:miter;stroke-opacity:1"
           d="m 220.98004,948.40982 26.21887,2.01682 -29.61565,-55.72832 29.0849,-54.98529 -24.73278,1.59224 -17.19617,41.6105 -15.17934,-39.16907 -23.24668,1.48609 24.52048,49.89013 -26.40667,49.34924 22.51765,1.95153 16.9633,-39.93129 z"
           id="path4345"
           inkscape:connector-curvature="0" />
      </g>
      <g
         id="flowRoot4170"
         style="font-style:normal;font-weight:normal;font-size:40px;line-height:125%;font-family:sans-serif;letter-spacing:0px;word-spacing:0px;fill:#ffffff;fill-opacity:1;stroke:none;stroke-width:1px;stroke-linecap:butt;stroke-linejoin:miter;stroke-opacity:1"
         transform="matrix(2.3504773,0,0,2.3504773,-112.94897,54.705785)">
        <path
           inkscape:connector-curvature="0"
           id="path4179"
           style="font-style:normal;font-variant:normal;font-weight:bold;font-stretch:normal;font-size:45px;font-family:sans-serif;-inkscape-font-specification:'sans-serif Bold';fill:#ffffff"
           d="m 118.01563,388.00117 11.38183,16.74317 -8.81103,0 -7.66846,-11.20606 -7.60254,11.20606 -8.854981,0 11.381841,-16.74317 -10.942388,-16.06201 8.833008,0 7.18506,10.56885 7.16308,-10.56885 8.87696,0 -10.94238,16.06201 z" />
        <path
           inkscape:connector-curvature="0"
           id="path4181"
           style="font-style:normal;font-variant:normal;font-weight:bold;font-stretch:normal;font-size:45px;font-family:sans-serif;-inkscape-font-specification:'sans-serif Bold';fill:#ffffff"
           d="m 134.45117,371.93916 8.45947,0 0,26.41113 14.85352,0 0,6.39405 -23.31299,0 0,-32.80518 z" />
        <path
           inkscape:connector-curvature="0"
           id="path4183"
           style="font-style:normal;font-variant:normal;font-weight:bold;font-stretch:normal;font-size:45px;font-family:sans-serif;-inkscape-font-specification:'sans-serif Bold';fill:#ffffff"
           d="m 185.93311,372.97188 0,6.94336 q -2.70264,-1.2085 -5.27344,-1.82373 -2.5708,-0.61524 -4.85596,-0.61524 -3.03223,0 -4.48242,0.83496 -1.4502,0.83496 -1.4502,2.59278 0,1.31835 0.9668,2.06542 0.98877,0.7251 3.55957,1.25245 l 3.60352,0.72509 q 5.47119,1.09864 7.77832,3.33985 2.30713,2.24121 2.30713,6.37207 0,5.42724 -3.22998,8.08594 -3.20801,2.63671 -9.82178,2.63671 -3.12012,0 -6.26221,-0.59326 -3.14209,-0.59326 -6.28418,-1.75781 l 0,-7.14111 q 3.14209,1.66992 6.06445,2.52685 2.94434,0.83496 5.66895,0.83496 2.76855,0 4.24072,-0.92285 1.47217,-0.92285 1.47217,-2.63672 0,-1.53808 -1.01074,-2.37304 -0.98877,-0.83496 -3.97705,-1.49414 l -3.27393,-0.7251 q -4.92187,-1.05469 -7.20703,-3.36182 -2.26318,-2.30713 -2.26318,-6.21826 0,-4.8999 3.16406,-7.53662 3.16406,-2.63672 9.09668,-2.63672 2.70264,0 5.55908,0.41748 2.85645,0.39551 5.91065,1.2085 z" />
        <path
           inkscape:connector-curvature="0"
           id="path4185"
           style="font-style:normal;font-variant:normal;font-weight:bold;font-stretch:normal;font-size:45px;font-family:sans-serif;-inkscape-font-specification:'sans-serif Bold';fill:#ffffff"
           d="m 213.81641,388.00117 11.38183,16.74317 -8.81103,0 -7.66846,-11.20606 -7.60254,11.20606 -8.85498,0 11.38184,-16.74317 -10.94239,-16.06201 8.83301,0 7.18506,10.56885 7.16309,-10.56885 8.87695,0 -10.94238,16.06201 z" />
      </g>
    </g>
  </g>
</svg>
