<?xml version="1.0" encoding="UTF-8" standalone="no"?>
<!-- Created with Inkscape (http://www.inkscape.org/) -->

<svg
   xmlns:dc="http://purl.org/dc/elements/1.1/"
   xmlns:cc="http://creativecommons.org/ns#"
   xmlns:rdf="http://www.w3.org/1999/02/22-rdf-syntax-ns#"
   xmlns:svg="http://www.w3.org/2000/svg"
   xmlns="http://www.w3.org/2000/svg"
   xmlns:sodipodi="http://sodipodi.sourceforge.net/DTD/sodipodi-0.dtd"
   xmlns:inkscape="http://www.inkscape.org/namespaces/inkscape"
   width="500"
   height="500"
   id="svg2"
   version="1.1"
   inkscape:version="0.91 r13725"
   sodipodi:docname="application-vnd.wordperfect.svg">
  <defs
     id="defs4" />
  <sodipodi:namedview
     id="base"
     pagecolor="#ffffff"
     bordercolor="#666666"
     borderopacity="1.0"
     inkscape:pageopacity="0.0"
     inkscape:pageshadow="2"
     inkscape:zoom="0.60666664"
     inkscape:cx="85.696362"
     inkscape:cy="285.68327"
     inkscape:document-units="px"
     inkscape:current-layer="layer1"
     showgrid="false"
     inkscape:window-width="1366"
     inkscape:window-height="715"
     inkscape:window-x="0"
     inkscape:window-y="24"
     inkscape:window-maximized="1" />
  <metadata
     id="metadata7">
    <rdf:RDF>
      <cc:Work
         rdf:about="">
        <dc:format>image/svg+xml</dc:format>
        <dc:type
           rdf:resource="http://purl.org/dc/dcmitype/StillImage" />
        <dc:title />
      </cc:Work>
    </rdf:RDF>
  </metadata>
  <g
     inkscape:label="Layer 1"
     inkscape:groupmode="layer"
     id="layer1"
     transform="translate(0,-552.36218)">
    <g
       id="g4181">
      <path
         inkscape:connector-curvature="0"
         id="path3364"
         d="m 97.040974,1029.8357 336.888376,-1.1739 1.17377,-363.88639 -88.03697,-89.21086 -250.025176,0 z"
         style="fill:#f2f2f2;fill-rule:evenodd;stroke:#afafaf;stroke-width:5.03546047;stroke-linecap:butt;stroke-linejoin:miter;stroke-miterlimit:4;stroke-dasharray:none;stroke-opacity:1" />
      <path
         inkscape:connector-curvature="0"
         id="rect4228"
         d="m 97.041016,907.86724 0,121.96756 336.888674,-1.0485 0.4375,-120.91906 -337.326174,0 z"
         style="fill:#00bbf2;fill-opacity:1;stroke:none;stroke-width:5;stroke-miterlimit:4;stroke-dasharray:none;stroke-opacity:1" />
      <rect
         transform="scale(-1,1)"
         y="790.37714"
         x="-412.08792"
         height="12.142574"
         width="297.32489"
         id="rect2990-3"
         style="fill:#00bbf2;fill-opacity:1;stroke:none" />
      <rect
         transform="scale(-1,1)"
         y="820.8111"
         x="-412.08792"
         height="12.142574"
         width="297.77072"
         id="rect2990-3-7"
         style="fill:#00bbf2;fill-opacity:1;stroke:none" />
      <rect
         transform="scale(-1,1)"
         y="848.5545"
         x="-412.08792"
         height="12.142574"
         width="300"
         id="rect2990-3-5"
         style="fill:#00bbf2;fill-opacity:1;stroke:none" />
      <rect
         transform="scale(-1,1)"
         y="875.03656"
         x="-412.08792"
         height="12.142578"
         width="299.8844"
         id="rect2990-3-35"
         style="fill:#00bbf2;fill-opacity:1;stroke:none" />
      <rect
         transform="matrix(-0.99999986,5.2631278e-4,6.6188717e-4,0.99999978,0,0)"
         y="662.72858"
         x="-263.43182"
         height="109.42197"
         width="147.70581"
         id="rect2997"
         style="fill:#00bbf2;fill-opacity:1;stroke:#00bbf2;stroke-width:4.50626516;stroke-linecap:round;stroke-linejoin:round;stroke-miterlimit:4;stroke-dasharray:none;stroke-opacity:1" />
      <path
         sodipodi:open="true"
         sodipodi:end="6.2784904"
         sodipodi:start="0"
         transform="matrix(-0.99999982,6.0156637e-4,5.7908376e-4,0.99999983,0,0)"
         d="m -128.92672,694.72125 a 15.328697,15.328696 0 0 1 -15.31071,15.32869 15.328697,15.328696 0 0 1 -15.34664,-15.2927 15.328697,15.328696 0 0 1 15.27468,-15.36459 15.328697,15.328696 0 0 1 15.3825,15.25664"
         sodipodi:ry="15.328696"
         sodipodi:rx="15.328697"
         sodipodi:cy="694.72125"
         sodipodi:cx="-144.25542"
         id="path3767"
         style="fill:#ffcc00;fill-opacity:1;stroke:none"
         sodipodi:type="arc" />
      <path
         sodipodi:nodetypes="cccczzc"
         inkscape:connector-curvature="0"
         id="path3787"
         d="m 261.53626,729.4783 0.22761,40.47737 -143.40942,-0.10377 0.37954,-33.49274 c 0,0 20.24976,6.45531 37.76339,4.45771 17.51365,-1.99742 44.2147,-22.02408 62.85208,-22.77924 18.63736,-0.75514 42.1868,11.44046 42.1868,11.44046 z"
         style="fill:#004455;fill-opacity:1;stroke:none;stroke-width:0.18776105px;stroke-linecap:butt;stroke-linejoin:miter;stroke-opacity:1" />
      <rect
         transform="scale(-1,1)"
         y="761.77332"
         x="-412.08792"
         height="12.142574"
         width="130.73882"
         id="rect2990-3-35-6"
         style="fill:#00bbf2;fill-opacity:1;stroke:none" />
      <rect
         transform="scale(-1,1)"
         y="734.03015"
         x="-412.08792"
         height="12.142574"
         width="130.73882"
         id="rect2990-3-35-6-2"
         style="fill:#00bbf2;fill-opacity:1;stroke:none" />
      <rect
         transform="scale(-1,1)"
         y="707.54797"
         x="-412.08792"
         height="12.142574"
         width="130.73882"
         id="rect2990-3-35-6-9"
         style="fill:#00bbf2;fill-opacity:1;stroke:none" />
      <rect
         transform="scale(-1,1)"
         y="681.69629"
         x="-412.08792"
         height="12.142574"
         width="130.73882"
         id="rect2990-3-35-6-1"
         style="fill:#00bbf2;fill-opacity:1;stroke:none" />
      <g
         id="flowRoot4168"
         style="font-style:normal;font-weight:normal;font-size:40px;line-height:125%;font-family:sans-serif;letter-spacing:0px;word-spacing:0px;fill:#ffffff;fill-opacity:1;stroke:none;stroke-width:1px;stroke-linecap:butt;stroke-linejoin:miter;stroke-opacity:1"
         transform="matrix(2.7434692,0,0,2.7434692,-159.54442,-37.169911)">
        <path
           inkscape:connector-curvature="0"
           id="path4177"
           style="font-style:normal;font-variant:normal;font-weight:bold;font-stretch:normal;font-family:sans-serif;-inkscape-font-specification:'sans-serif Bold';fill:#ffffff"
           d="m 119.87305,352.46762 7.20703,0 5.03906,21.19141 5,-21.19141 7.24609,0 5,21.19141 5.03907,-21.19141 7.14843,0 -6.875,29.16016 -8.67187,0 -5.29297,-22.16797 -5.23437,22.16797 -8.67188,0 -6.93359,-29.16016 z" />
        <path
           inkscape:connector-curvature="0"
           id="path4179"
           style="font-style:normal;font-variant:normal;font-weight:bold;font-stretch:normal;font-family:sans-serif;-inkscape-font-specification:'sans-serif Bold';fill:#ffffff"
           d="m 166.49414,352.46762 12.48047,0 q 5.56641,0 8.53516,2.48047 2.98828,2.46094 2.98828,7.03125 0,4.58985 -2.98828,7.07031 -2.96875,2.46094 -8.53516,2.46094 l -4.96094,0 0,10.11719 -7.51953,0 0,-29.16016 z m 7.51953,5.44922 0,8.14453 4.16016,0 q 2.1875,0 3.3789,-1.05468 1.19141,-1.07422 1.19141,-3.02735 0,-1.95312 -1.19141,-3.00781 -1.1914,-1.05469 -3.3789,-1.05469 l -4.16016,0 z" />
      </g>
    </g>
  </g>
</svg>
