<?xml version="1.0" encoding="UTF-8" standalone="no"?>
<!-- Created with Inkscape (http://www.inkscape.org/) -->

<svg
   xmlns:dc="http://purl.org/dc/elements/1.1/"
   xmlns:cc="http://creativecommons.org/ns#"
   xmlns:rdf="http://www.w3.org/1999/02/22-rdf-syntax-ns#"
   xmlns:svg="http://www.w3.org/2000/svg"
   xmlns="http://www.w3.org/2000/svg"
   xmlns:sodipodi="http://sodipodi.sourceforge.net/DTD/sodipodi-0.dtd"
   xmlns:inkscape="http://www.inkscape.org/namespaces/inkscape"
   width="500"
   height="500"
   id="svg2"
   version="1.1"
   inkscape:version="0.91 r13725"
   sodipodi:docname="application-x-python.svg">
  <defs
     id="defs4" />
  <sodipodi:namedview
     id="base"
     pagecolor="#ffffff"
     bordercolor="#666666"
     borderopacity="1.0"
     inkscape:pageopacity="0.0"
     inkscape:pageshadow="2"
     inkscape:zoom="0.60666665"
     inkscape:cx="-2.1906672"
     inkscape:cy="295.55203"
     inkscape:document-units="px"
     inkscape:current-layer="layer1"
     showgrid="false"
     inkscape:window-width="1366"
     inkscape:window-height="715"
     inkscape:window-x="0"
     inkscape:window-y="24"
     inkscape:window-maximized="1" />
  <metadata
     id="metadata7">
    <rdf:RDF>
      <cc:Work
         rdf:about="">
        <dc:format>image/svg+xml</dc:format>
        <dc:type
           rdf:resource="http://purl.org/dc/dcmitype/StillImage" />
        <dc:title />
      </cc:Work>
    </rdf:RDF>
  </metadata>
  <g
     inkscape:label="Layer 1"
     inkscape:groupmode="layer"
     id="layer1"
     transform="translate(0,-552.36218)">
    <g
       id="g4165">
      <path
         inkscape:connector-curvature="0"
         id="path3364"
         d="m 97.040974,1029.8357 336.888376,-1.1739 1.17377,-363.88639 -88.03697,-89.21086 -250.025176,0 z"
         style="fill:#f2f2f2;fill-rule:evenodd;stroke:#afafaf;stroke-width:5.03546047;stroke-linecap:butt;stroke-linejoin:miter;stroke-miterlimit:4;stroke-dasharray:none;stroke-opacity:1" />
      <path
         inkscape:connector-curvature="0"
         id="rect4228"
         d="m 97.041016,907.86724 0,121.96756 336.888674,-1.0485 0.4375,-120.91906 -337.326174,0 z"
         style="fill:#00bbf2;fill-opacity:1;stroke:none;stroke-width:5;stroke-miterlimit:4;stroke-dasharray:none;stroke-opacity:1" />
      <g
         id="g4169"
         transform="translate(5.5270027,-132.45234)">
        <path
           style="fill:#00bbf2;fill-opacity:1;fill-rule:nonzero;stroke:none"
           inkscape:connector-curvature="0"
           id="path61"
           d="m 258.35597,774.68445 c -10.28907,0.0417 -20.14077,0.93726 -28.80526,2.4369 -25.50403,4.47804 -30.14869,13.78819 -30.14869,31.00264 l 0,22.74429 60.28695,0 0,7.57101 -82.90628,0 c -17.53726,0 -32.86676,10.41406 -37.66762,30.22158 -5.52987,22.70265 -5.82146,36.897 0,60.56814 4.26976,17.65183 14.48594,30.2216 32.01278,30.2216 l 17.73514,0 0,-30.17995 c 0,-19.6513 17.24567,-36.89698 37.70929,-36.89698 l 63.10918,0 c 16.75622,0 32.62724,-13.67365 32.62724,-30.30491 l 0,-53.81982 c 0,-16.15221 -16.23552,-28.31582 -32.62724,-31.00264 -10.33074,-1.70791 -21.06765,-2.47855 -31.3463,-2.4369 m -32.58559,18.1413 c 6.22761,0 11.30967,5.12371 11.30967,11.43461 0,6.26927 -5.08206,11.30967 -11.30967,11.30967 -6.26926,0 -11.35132,-5.0404 -11.35132,-11.30967 0,-6.30048 5.0404,-11.43461 11.35132,-11.43461 m 0,0" />
        <path
           style="fill:#ffcc00;fill-opacity:1;fill-rule:nonzero;stroke:none"
           inkscape:connector-curvature="0"
           id="path65"
           d="m 330.88988,838.41848 0,26.48294 c 0,20.50525 -17.61018,35.3557 -37.66764,35.3557 l -66.15007,0 c -16.47505,0 -30.1487,16.43338 -30.1487,32.75221 l 0,56.78782 c 0,16.15225 14.19436,25.62905 30.1487,30.26335 19.07854,5.5298 39.86499,6.5921 62.6926,0 15.17327,-4.3531 30.14868,-13.101 30.14868,-30.26335 l 0,-22.7443 -60.20364,0 0,-7.571 90.39401,0 c 17.4956,0 24.04604,-12.12196 30.14868,-30.22158 6.30052,-18.67242 5.97768,-36.65749 0,-60.56815 -4.35307,-17.28734 -12.61142,-30.22159 -30.14868,-30.22159 m -56.50668,143.76601 c 6.22761,0 11.30966,5.04043 11.30966,11.30967 0,6.26927 -5.0404,11.43469 -11.30966,11.43469 -6.26925,0 -11.35133,-5.16542 -11.35133,-11.43469 0,-6.26924 5.08208,-11.30967 11.35133,-11.30967 m 0,0" />
      </g>
      <g
         id="flowRoot4152"
         style="font-style:normal;font-weight:normal;font-size:40px;line-height:125%;font-family:sans-serif;letter-spacing:0px;word-spacing:0px;fill:#ffffff;fill-opacity:1;stroke:none;stroke-width:1px;stroke-linecap:butt;stroke-linejoin:miter;stroke-opacity:1"
         transform="matrix(2.7434692,0,0,2.7434692,364.0459,556.88607)">
        <path
           inkscape:connector-curvature="0"
           id="path4161"
           style="font-style:normal;font-variant:normal;font-weight:bold;font-stretch:normal;font-family:sans-serif;-inkscape-font-specification:'sans-serif Bold';fill:#ffffff"
           d="m -62.261719,136.53403 12.480469,0 q 5.566406,0 8.535156,2.48047 2.988282,2.46094 2.988282,7.03125 0,4.58984 -2.988282,7.07031 -2.96875,2.46094 -8.535156,2.46094 l -4.960937,0 0,10.11719 -7.519532,0 0,-29.16016 z m 7.519532,5.44922 0,8.14453 4.160156,0 q 2.1875,0 3.378906,-1.05469 1.191406,-1.07422 1.191406,-3.02734 0,-1.95313 -1.191406,-3.00781 -1.191406,-1.05469 -3.378906,-1.05469 l -4.160156,0 z" />
        <path
           inkscape:connector-curvature="0"
           id="path4163"
           style="font-style:normal;font-variant:normal;font-weight:bold;font-stretch:normal;font-family:sans-serif;-inkscape-font-specification:'sans-serif Bold';fill:#ffffff"
           d="m -37.027344,136.53403 8.222657,0 6.640625,10.39062 6.640624,-10.39062 8.242188,0 -11.113281,16.875 0,12.28516 -7.519531,0 0,-12.28516 -11.113282,-16.875 z" />
      </g>
    </g>
  </g>
</svg>
