<?xml version="1.0" encoding="UTF-8" standalone="no"?>
<!-- Created with Inkscape (http://www.inkscape.org/) -->

<svg
   xmlns:dc="http://purl.org/dc/elements/1.1/"
   xmlns:cc="http://creativecommons.org/ns#"
   xmlns:rdf="http://www.w3.org/1999/02/22-rdf-syntax-ns#"
   xmlns:svg="http://www.w3.org/2000/svg"
   xmlns="http://www.w3.org/2000/svg"
   xmlns:sodipodi="http://sodipodi.sourceforge.net/DTD/sodipodi-0.dtd"
   xmlns:inkscape="http://www.inkscape.org/namespaces/inkscape"
   width="500"
   height="500"
   id="svg2"
   version="1.1"
   inkscape:version="0.91 r13725"
   sodipodi:docname="application-archive-zip.svg">
  <defs
     id="defs4" />
  <sodipodi:namedview
     id="base"
     pagecolor="#ffffff"
     bordercolor="#666666"
     borderopacity="1.0"
     inkscape:pageopacity="0.0"
     inkscape:pageshadow="2"
     inkscape:zoom="0.21448905"
     inkscape:cx="-542.03599"
     inkscape:cy="322.93199"
     inkscape:document-units="px"
     inkscape:current-layer="layer1"
     showgrid="false"
     inkscape:window-width="1366"
     inkscape:window-height="715"
     inkscape:window-x="0"
     inkscape:window-y="24"
     inkscape:window-maximized="1" />
  <metadata
     id="metadata7">
    <rdf:RDF>
      <cc:Work
         rdf:about="">
        <dc:format>image/svg+xml</dc:format>
        <dc:type
           rdf:resource="http://purl.org/dc/dcmitype/StillImage" />
        <dc:title />
      </cc:Work>
    </rdf:RDF>
  </metadata>
  <g
     inkscape:label="Layer 1"
     inkscape:groupmode="layer"
     id="layer1"
     transform="translate(0,-552.36218)">
    <g
       id="g4166">
      <path
         inkscape:connector-curvature="0"
         id="path3364"
         d="m 97.040974,1029.8357 336.888376,-1.1739 1.17377,-363.88639 -88.03697,-89.21086 -250.025176,0 z"
         style="fill:#f2f2f2;fill-rule:evenodd;stroke:#afafaf;stroke-width:5.03546047;stroke-linecap:butt;stroke-linejoin:miter;stroke-miterlimit:4;stroke-dasharray:none;stroke-opacity:1" />
      <path
         inkscape:connector-curvature="0"
         id="rect4228"
         d="m 97.041016,907.86724 0,121.96756 336.888674,-1.0485 0.4375,-120.91906 -337.326174,0 z"
         style="fill:#394050;fill-opacity:1;stroke:none;stroke-width:5;stroke-miterlimit:4;stroke-dasharray:none;stroke-opacity:1" />
      <g
         id="g4142"
         transform="matrix(0.53333333,0,0,0.53333333,131.14654,322.07614)">
        <path
           style="fill:#4f576d;fill-opacity:1;stroke:none"
           d="m 323.78153,666.84953 18.03389,6.21168 0,8.01507 -15.429,4.40827 0,24.8467 33.46288,-9.21731 -19.03577,9.81845 0.40075,18.63502 -14.42711,4.60866 0,23.64443 31.05838,-7.61429 -16.03013,9.4177 0,17.8335 -15.82975,5.41018 1.00189,22.44218 33.66327,-9.21732 -18.83541,10.82032 -0.40075,17.43277 -14.82786,4.40829 0.40075,22.2418 32.66138,-8.41582 -20.63879,13.02448 -0.60114,7.21356 52.09793,0 -0.60114,-24.44595 15.02825,-3.20602 -0.40075,-24.24557 -35.26629,7.81468 20.43843,-8.61618 0.20041,-17.2324 15.62938,-4.60866 0,-24.64632 -27.25122,7.81468 11.0207,-7.21354 0.20041,-18.03391 14.6275,-4.20791 0,-24.8467 -32.06027,7.8147 16.23052,-8.41581 0.8015,-20.23805 14.82786,-2.20413 0.8015,-24.44596 -29.45536,6.61243 15.22863,-11.82222 0,-7.61432 -65.32276,1.80341 z"
           id="path3941"
           inkscape:connector-curvature="0" />
        <path
           style="fill:#4f576d;fill-opacity:1;stroke:none"
           d="m 327.69161,916.28877 0.28338,51.00755 -14.73551,0 0,18.4194 -26.35392,0.56675 -0.28336,-16.1524 -34.85517,0.28338 -0.56676,56.95845 35.70529,0 0,-14.7355 26.63729,-0.2834 0,18.4194 105.13224,-0.2834 0.28337,-17.8526 27.77079,0 0,15.5856 34.00504,0 -0.28338,-58.94204 -33.72166,0.28336 0,17.28591 -28.05416,0 -1.13351,-20.11966 -12.18514,0.28338 0,-51.29093 z"
           id="path3943"
           inkscape:connector-curvature="0" />
        <path
           style="fill:#394050;stroke:none"
           d="m 91.935038,898.50154 -0.8015,14.02636 31.659502,29.65575 165.91182,1.60302 21.64068,-24.0452 113.41317,-1.20225 0,-66.52504 -111.00865,0 -44.08286,46.88813 z"
           id="path3921"
           inkscape:connector-curvature="0" />
        <path
           style="fill:#394050;stroke:none"
           d="m 92.038481,626.4715 -0.8015,-14.02636 31.659499,-29.65575 165.91182,-1.60302 21.64068,24.0452 113.41317,1.20225 0,66.52504 -111.00864,0 -44.08286,-46.88813 z"
           id="path3921-3"
           inkscape:connector-curvature="0" />
        <rect
           style="fill:#ffcc00;fill-opacity:1;stroke:none"
           id="rect3945"
           width="238.03526"
           height="272.60706"
           x="30.714285"
           y="626.11243" />
        <rect
           style="fill:#ffe270;fill-opacity:1;stroke:none"
           id="rect3945-6"
           width="199.56294"
           height="105.0922"
           x="48.470131"
           y="650.37122" />
        <rect
           style="fill:#ffe270;fill-opacity:1;stroke:none"
           id="rect3945-6-7"
           width="199.56294"
           height="105.0922"
           x="50.073128"
           y="772.60095" />
        <rect
           style="fill:#394050;fill-opacity:1;stroke:none"
           id="rect3945-6-7-5"
           width="80.138489"
           height="25.743069"
           x="110.98764"
           y="691.6488" />
        <rect
           style="fill:#394050;fill-opacity:1;stroke:none"
           id="rect3945-6-7-5-3"
           width="80.138489"
           height="25.743069"
           x="110.58685"
           y="810.67249" />
      </g>
      <g
         id="flowRoot4154"
         style="font-style:normal;font-weight:normal;font-size:40px;line-height:125%;font-family:sans-serif;letter-spacing:0px;word-spacing:0px;fill:#ffffff;fill-opacity:1;stroke:none;stroke-width:1px;stroke-linecap:butt;stroke-linejoin:miter;stroke-opacity:1"
         transform="matrix(2.7434701,0,0,2.7434701,-290.88117,-120.63714)">
        <path
           id="path4163"
           style="font-style:normal;font-variant:normal;font-weight:bold;font-stretch:normal;font-family:sans-serif;-inkscape-font-specification:'sans-serif Bold';fill:#ffffff"
           d="m 170.08594,383.66294 24.51172,0 0,4.55078 -15.64454,18.92578 16.09375,0 0,5.68359 -25.41015,0 0,-4.55078 15.64453,-18.92578 -15.19531,0 0,-5.68359 z"
           inkscape:connector-curvature="0" />
        <path
           id="path4165"
           style="font-style:normal;font-variant:normal;font-weight:bold;font-stretch:normal;font-family:sans-serif;-inkscape-font-specification:'sans-serif Bold';fill:#ffffff"
           d="m 200.49609,383.66294 7.51953,0 0,29.16015 -7.51953,0 0,-29.16015 z"
           inkscape:connector-curvature="0" />
        <path
           id="path4167"
           style="font-style:normal;font-variant:normal;font-weight:bold;font-stretch:normal;font-family:sans-serif;-inkscape-font-specification:'sans-serif Bold';fill:#ffffff"
           d="m 215.41797,383.66294 12.48047,0 q 5.5664,0 8.53515,2.48046 2.98828,2.46094 2.98828,7.03125 0,4.58985 -2.98828,7.07032 -2.96875,2.46093 -8.53515,2.46093 l -4.96094,0 0,10.11719 -7.51953,0 0,-29.16015 z m 7.51953,5.44921 0,8.14454 4.16016,0 q 2.1875,0 3.3789,-1.05469 1.19141,-1.07422 1.19141,-3.02735 0,-1.95312 -1.19141,-3.00781 -1.1914,-1.05469 -3.3789,-1.05469 l -4.16016,0 z"
           inkscape:connector-curvature="0" />
      </g>
    </g>
  </g>
</svg>
