<?xml version="1.0" encoding="UTF-8" standalone="no"?>
<!-- Created with Inkscape (http://www.inkscape.org/) -->

<svg
   xmlns:dc="http://purl.org/dc/elements/1.1/"
   xmlns:cc="http://creativecommons.org/ns#"
   xmlns:rdf="http://www.w3.org/1999/02/22-rdf-syntax-ns#"
   xmlns:svg="http://www.w3.org/2000/svg"
   xmlns="http://www.w3.org/2000/svg"
   xmlns:sodipodi="http://sodipodi.sourceforge.net/DTD/sodipodi-0.dtd"
   xmlns:inkscape="http://www.inkscape.org/namespaces/inkscape"
   width="500"
   height="500"
   id="svg2"
   version="1.1"
   inkscape:version="0.91 r13725"
   sodipodi:docname="application-vnd.openxmlformats-officedocument.presentationml.presentation.svg">
  <defs
     id="defs4" />
  <sodipodi:namedview
     id="base"
     pagecolor="#ffffff"
     bordercolor="#666666"
     borderopacity="1.0"
     inkscape:pageopacity="0.0"
     inkscape:pageshadow="2"
     inkscape:zoom="0.60666663"
     inkscape:cx="130.6758"
     inkscape:cy="286.39513"
     inkscape:document-units="px"
     inkscape:current-layer="layer1"
     showgrid="false"
     inkscape:window-width="1366"
     inkscape:window-height="715"
     inkscape:window-x="0"
     inkscape:window-y="24"
     inkscape:window-maximized="1" />
  <metadata
     id="metadata7">
    <rdf:RDF>
      <cc:Work
         rdf:about="">
        <dc:format>image/svg+xml</dc:format>
        <dc:type
           rdf:resource="http://purl.org/dc/dcmitype/StillImage" />
        <dc:title />
      </cc:Work>
    </rdf:RDF>
  </metadata>
  <g
     inkscape:label="Layer 1"
     inkscape:groupmode="layer"
     id="layer1"
     transform="translate(0,-552.36218)">
    <g
       id="g4183">
      <path
         inkscape:connector-curvature="0"
         id="path3364"
         d="m 97.040974,1029.8357 336.888376,-1.1739 1.17377,-363.88639 -88.03697,-89.21086 -250.025176,0 z"
         style="fill:#f2f2f2;fill-rule:evenodd;stroke:#afafaf;stroke-width:5.03546047;stroke-linecap:butt;stroke-linejoin:miter;stroke-miterlimit:4;stroke-dasharray:none;stroke-opacity:1" />
      <path
         inkscape:connector-curvature="0"
         id="rect4228"
         d="m 97.041016,907.86724 0,121.96756 336.888674,-1.0485 0.4375,-120.91906 -337.326174,0 z"
         style="fill:#ff6600;fill-opacity:1;stroke:none;stroke-width:5;stroke-miterlimit:4;stroke-dasharray:none;stroke-opacity:1" />
      <g
         id="g3370"
         transform="translate(-2.6506853,-126.50004)">
        <rect
           style="fill:#e6e6e6;fill-opacity:1;stroke:#ff6600;stroke-width:10.27064514;stroke-linecap:butt;stroke-linejoin:round;stroke-miterlimit:4;stroke-dasharray:none;stroke-opacity:1"
           id="rect4192"
           width="172.76912"
           height="199.35089"
           x="223.33183"
           y="791.21851" />
        <rect
           style="fill:#ff6600;fill-opacity:1;stroke:none;stroke-width:8.59799957;stroke-linecap:butt;stroke-linejoin:round;stroke-miterlimit:4;stroke-dasharray:none;stroke-opacity:1"
           id="rect4194-51"
           width="106.16345"
           height="21.120604"
           x="265.7258"
           y="945.5636" />
        <rect
           style="fill:#ff6600;fill-opacity:1;stroke:none;stroke-width:8.59799957;stroke-linecap:butt;stroke-linejoin:round;stroke-miterlimit:4;stroke-dasharray:none;stroke-opacity:1"
           id="rect4194-51-7"
           width="106.16345"
           height="21.120604"
           x="265.87433"
           y="913.17542" />
        <rect
           style="fill:#1a1a1a;fill-opacity:0.39207076;stroke:none;stroke-width:8.59799957;stroke-linecap:butt;stroke-linejoin:round;stroke-miterlimit:4;stroke-dasharray:none;stroke-opacity:1"
           id="rect4244"
           width="61.039627"
           height="209.29285"
           x="251.52184"
           y="786.56696" />
        <path
           style="fill:#ff6600;fill-opacity:1;fill-rule:evenodd;stroke:none;stroke-width:1px;stroke-linecap:butt;stroke-linejoin:miter;stroke-opacity:1"
           d="m 284.53851,755.30151 -158.30223,30.4763 0.28836,202.8526 157.52162,31.01219 z"
           id="path3390-3"
           inkscape:connector-curvature="0"
           sodipodi:nodetypes="ccccc" />
        <rect
           style="fill:#e6e6e6;fill-opacity:1;stroke:none;stroke-width:8.59799957;stroke-linecap:butt;stroke-linejoin:round;stroke-miterlimit:4;stroke-dasharray:none;stroke-opacity:1"
           id="rect4194-8"
           width="160.53528"
           height="12.87895"
           x="807.91479"
           y="-333.26669"
           transform="matrix(-0.00236116,0.99999721,-0.99998543,-0.00539902,0,0)" />
        <path
           style="fill:#ff6600;fill-opacity:1;stroke:none;stroke-width:8.47900009;stroke-linecap:butt;stroke-linejoin:bevel;stroke-miterlimit:4;stroke-dasharray:none;stroke-opacity:1"
           id="path4200"
           sodipodi:type="arc"
           sodipodi:cx="323.72284"
           sodipodi:cy="861.33081"
           sodipodi:rx="45"
           sodipodi:ry="45.000893"
           sodipodi:start="0"
           sodipodi:end="4.7034763"
           d="m 368.72284,861.33081 a 45,45.000893 0 0 1 -44.86631,45.00069 45,45.000893 0 0 1 -45.1329,-44.73331 45,45.000893 0 0 1 44.59814,-45.26648 l 0.40107,44.9991 z" />
        <path
           style="fill:#ff6600;fill-opacity:1;stroke:none;stroke-width:8.47900009;stroke-linecap:butt;stroke-linejoin:bevel;stroke-miterlimit:4;stroke-dasharray:none;stroke-opacity:1"
           id="path4200-4"
           sodipodi:type="arc"
           sodipodi:cx="854.97162"
           sodipodi:cy="-329.17627"
           sodipodi:rx="45"
           sodipodi:ry="45.000893"
           sodipodi:start="3.1415927"
           sodipodi:end="4.7034763"
           d="m 809.97162,-329.17627 a 45,45.000893 0 0 1 44.59893,-44.9991 l 0.40107,44.9991 z"
           transform="matrix(0,1,-1,0,0,0)" />
        <path
           style="fill:#ffffff;fill-opacity:1;fill-rule:evenodd;stroke:none;stroke-width:1px;stroke-linecap:butt;stroke-linejoin:miter;stroke-opacity:1"
           d="m 171.84066,926.05724 0.20605,-84.478 26.57967,-1.8544 c 0,0 27.9328,-3.9077 28.22802,28.8461 0.29522,32.7538 -39.14835,29.2583 -39.14835,29.2583 l 0.20604,-15.2473 c 0,0 20.13551,4.9674 19.98627,-13.3928 -0.14924,-18.3602 -19.98627,-13.805 -19.98627,-13.805 l -0.20604,72.3214 z"
           id="path4228"
           inkscape:connector-curvature="0"
           sodipodi:nodetypes="ccczcczccc" />
      </g>
      <g
         id="flowRoot4166"
         style="font-style:normal;font-weight:normal;font-size:40px;line-height:125%;font-family:sans-serif;letter-spacing:0px;word-spacing:0px;fill:#ffffff;fill-opacity:1;stroke:none;stroke-width:1px;stroke-linecap:butt;stroke-linejoin:miter;stroke-opacity:1"
         transform="matrix(2.7434692,0,0,2.7434692,-198.94959,-110.97809)">
        <path
           inkscape:connector-curvature="0"
           id="path4175"
           style="font-style:normal;font-variant:normal;font-weight:bold;font-stretch:normal;font-family:sans-serif;-inkscape-font-specification:'sans-serif Bold';fill:#ffffff"
           d="m 114.11133,378.84262 12.48047,0 q 5.5664,0 8.53515,2.48047 2.98828,2.46094 2.98828,7.03125 0,4.58985 -2.98828,7.07031 -2.96875,2.46094 -8.53515,2.46094 l -4.96094,0 0,10.11719 -7.51953,0 0,-29.16016 z m 7.51953,5.44922 0,8.14453 4.16016,0 q 2.1875,0 3.3789,-1.05468 1.19141,-1.07422 1.19141,-3.02735 0,-1.95312 -1.19141,-3.00781 -1.1914,-1.05469 -3.3789,-1.05469 l -4.16016,0 z" />
        <path
           inkscape:connector-curvature="0"
           id="path4177"
           style="font-style:normal;font-variant:normal;font-weight:bold;font-stretch:normal;font-family:sans-serif;-inkscape-font-specification:'sans-serif Bold';fill:#ffffff"
           d="m 143.4082,378.84262 12.48047,0 q 5.56641,0 8.53516,2.48047 2.98828,2.46094 2.98828,7.03125 0,4.58985 -2.98828,7.07031 -2.96875,2.46094 -8.53516,2.46094 l -4.96094,0 0,10.11719 -7.51953,0 0,-29.16016 z m 7.51953,5.44922 0,8.14453 4.16016,0 q 2.1875,0 3.37891,-1.05468 1.1914,-1.07422 1.1914,-3.02735 0,-1.95312 -1.1914,-3.00781 -1.19141,-1.05469 -3.37891,-1.05469 l -4.16016,0 z" />
        <path
           inkscape:connector-curvature="0"
           id="path4179"
           style="font-style:normal;font-variant:normal;font-weight:bold;font-stretch:normal;font-family:sans-serif;-inkscape-font-specification:'sans-serif Bold';fill:#ffffff"
           d="m 169.22852,378.84262 26.875,0 0,5.6836 -9.66797,0 0,23.47656 -7.51953,0 0,-23.47656 -9.6875,0 0,-5.6836 z" />
        <path
           inkscape:connector-curvature="0"
           id="path4181"
           style="font-style:normal;font-variant:normal;font-weight:bold;font-stretch:normal;font-family:sans-serif;-inkscape-font-specification:'sans-serif Bold';fill:#ffffff"
           d="m 216.2207,393.11997 10.11719,14.88281 -7.83203,0 -6.81641,-9.96094 -6.75781,9.96094 -7.87109,0 10.11718,-14.88281 -9.72656,-14.27735 7.85156,0 6.38672,9.39453 6.36719,-9.39453 7.89063,0 -9.72657,14.27735 z" />
      </g>
    </g>
  </g>
</svg>
