<?xml version="1.0" encoding="UTF-8" standalone="no"?>
<!-- Created with Inkscape (http://www.inkscape.org/) -->

<svg
   xmlns:dc="http://purl.org/dc/elements/1.1/"
   xmlns:cc="http://creativecommons.org/ns#"
   xmlns:rdf="http://www.w3.org/1999/02/22-rdf-syntax-ns#"
   xmlns:svg="http://www.w3.org/2000/svg"
   xmlns="http://www.w3.org/2000/svg"
   xmlns:sodipodi="http://sodipodi.sourceforge.net/DTD/sodipodi-0.dtd"
   xmlns:inkscape="http://www.inkscape.org/namespaces/inkscape"
   width="500"
   height="500"
   id="svg2"
   version="1.1"
   inkscape:version="0.91 r13725"
   sodipodi:docname="application-atom+xml.svg">
  <defs
     id="defs4" />
  <sodipodi:namedview
     id="base"
     pagecolor="#ffffff"
     bordercolor="#666666"
     borderopacity="1.0"
     inkscape:pageopacity="0.0"
     inkscape:pageshadow="2"
     inkscape:zoom="0.60666664"
     inkscape:cx="-59.483032"
     inkscape:cy="203.79118"
     inkscape:document-units="px"
     inkscape:current-layer="layer1"
     showgrid="false"
     inkscape:window-width="1366"
     inkscape:window-height="715"
     inkscape:window-x="0"
     inkscape:window-y="24"
     inkscape:window-maximized="1" />
  <metadata
     id="metadata7">
    <rdf:RDF>
      <cc:Work
         rdf:about="">
        <dc:format>image/svg+xml</dc:format>
        <dc:type
           rdf:resource="http://purl.org/dc/dcmitype/StillImage" />
        <dc:title />
      </cc:Work>
    </rdf:RDF>
  </metadata>
  <g
     inkscape:label="Layer 1"
     inkscape:groupmode="layer"
     id="layer1"
     transform="translate(0,-552.36218)">
    <g
       id="g4171">
      <path
         inkscape:connector-curvature="0"
         id="path3364"
         d="m 97.040974,1029.8357 336.888376,-1.1739 1.17377,-363.88639 -88.03697,-89.21086 -250.025176,0 z"
         style="fill:#f2f2f2;fill-rule:evenodd;stroke:#afafaf;stroke-width:5.03546047;stroke-linecap:butt;stroke-linejoin:miter;stroke-miterlimit:4;stroke-dasharray:none;stroke-opacity:1" />
      <path
         inkscape:connector-curvature="0"
         id="rect4228"
         d="m 97.041016,907.86724 0,121.96756 336.888674,-1.0485 0.4375,-120.91906 -337.326174,0 z"
         style="fill:#ff6600;fill-opacity:1;stroke:none;stroke-width:5;stroke-miterlimit:4;stroke-dasharray:none;stroke-opacity:1" />
      <path
         inkscape:connector-curvature="0"
         style="fill:#ff6600;fill-opacity:1;stroke:none"
         d="m 137.77479,621.45563 0,49.39552 49.39558,0 c 82.0954,0 148.18675,66.09143 148.18675,148.18684 l 0,49.39555 49.39557,0 0,-49.39555 c 0,-109.46053 -88.12174,-197.58236 -197.58232,-197.58236 l -49.39558,0 z m 0,98.79123 0,49.39558 49.39558,0 c 27.3651,0 49.3956,22.03048 49.3956,49.39555 l 0,49.39555 49.3956,0 0,-49.39555 c 0,-54.7303 -44.06094,-98.79113 -98.7912,-98.79113 l -49.39558,0 z m 28.81412,90.5585 c -15.96305,0 -28.81412,12.85112 -28.81412,28.81416 0,15.96308 12.85107,28.81402 28.81412,28.81402 15.96297,0 28.81404,-12.85094 28.81404,-28.81402 0,-15.96304 -12.85107,-28.81416 -28.81404,-28.81416 z"
         id="rect4116-7-3" />
      <g
         id="flowRoot4154"
         style="font-style:normal;font-weight:normal;font-size:40px;line-height:125%;font-family:sans-serif;letter-spacing:0px;word-spacing:0px;fill:#000000;fill-opacity:1;stroke:none;stroke-width:1px;stroke-linecap:butt;stroke-linejoin:miter;stroke-opacity:1"
         transform="matrix(2.3718667,0,0,2.3718667,-148.47946,30.809759)">
        <path
           inkscape:connector-curvature="0"
           id="path4163"
           style="font-style:normal;font-variant:normal;font-weight:bold;font-stretch:normal;font-family:sans-serif;-inkscape-font-specification:'sans-serif Bold';fill:#ffffff"
           d="m 131.80664,404.33676 -11.75781,0 -1.85547,5.3125 -7.55859,0 10.80078,-29.16015 8.96484,0 10.80078,29.16015 -7.55859,0 -1.83594,-5.3125 z m -9.88281,-5.41015 7.98828,0 -3.98438,-11.60157 -4.0039,11.60157 z" />
        <path
           inkscape:connector-curvature="0"
           id="path4165"
           style="font-style:normal;font-variant:normal;font-weight:bold;font-stretch:normal;font-family:sans-serif;-inkscape-font-specification:'sans-serif Bold';fill:#ffffff"
           d="m 138.44727,380.48911 26.875,0 0,5.68359 -9.66797,0 0,23.47656 -7.51953,0 0,-23.47656 -9.6875,0 0,-5.68359 z" />
        <path
           inkscape:connector-curvature="0"
           id="path4167"
           style="font-style:normal;font-variant:normal;font-weight:bold;font-stretch:normal;font-family:sans-serif;-inkscape-font-specification:'sans-serif Bold';fill:#ffffff"
           d="m 182.50977,385.41098 q -3.4375,0 -5.33204,2.53906 -1.89453,2.53907 -1.89453,7.14844 0,4.58985 1.89453,7.12891 1.89454,2.53906 5.33204,2.53906 3.45703,0 5.35156,-2.53906 1.89453,-2.53906 1.89453,-7.12891 0,-4.60937 -1.89453,-7.14844 -1.89453,-2.53906 -5.35156,-2.53906 z m 0,-5.44922 q 7.03125,0 11.01562,4.02344 3.98438,4.02344 3.98438,11.11328 0,7.07031 -3.98438,11.09375 -3.98437,4.02344 -11.01562,4.02344 -7.01172,0 -11.01563,-4.02344 -3.98437,-4.02344 -3.98437,-11.09375 0,-7.08984 3.98437,-11.11328 4.00391,-4.02344 11.01563,-4.02344 z" />
        <path
           inkscape:connector-curvature="0"
           id="path4169"
           style="font-style:normal;font-variant:normal;font-weight:bold;font-stretch:normal;font-family:sans-serif;-inkscape-font-specification:'sans-serif Bold';fill:#ffffff"
           d="m 203.17383,380.48911 9.57031,0 6.64063,15.60547 6.67968,-15.60547 9.55078,0 0,29.16015 -7.10937,0 0,-21.32812 -6.71875,15.72265 -4.76563,0 -6.71875,-15.72265 0,21.32812 -7.1289,0 0,-29.16015 z" />
      </g>
    </g>
  </g>
</svg>
