<?xml version="1.0" encoding="UTF-8" standalone="no"?>
<!-- Created with Inkscape (http://www.inkscape.org/) -->

<svg
   xmlns:dc="http://purl.org/dc/elements/1.1/"
   xmlns:cc="http://creativecommons.org/ns#"
   xmlns:rdf="http://www.w3.org/1999/02/22-rdf-syntax-ns#"
   xmlns:svg="http://www.w3.org/2000/svg"
   xmlns="http://www.w3.org/2000/svg"
   xmlns:sodipodi="http://sodipodi.sourceforge.net/DTD/sodipodi-0.dtd"
   xmlns:inkscape="http://www.inkscape.org/namespaces/inkscape"
   width="500"
   height="500"
   id="svg2"
   version="1.1"
   inkscape:version="0.91 r13725"
   sodipodi:docname="application-vnd.oasis.opendocument.presentation-template.svg">
  <defs
     id="defs4" />
  <sodipodi:namedview
     id="base"
     pagecolor="#ffffff"
     bordercolor="#666666"
     borderopacity="1.0"
     inkscape:pageopacity="0.0"
     inkscape:pageshadow="2"
     inkscape:zoom="0.60666664"
     inkscape:cx="81.87107"
     inkscape:cy="184.26528"
     inkscape:document-units="px"
     inkscape:current-layer="layer1"
     showgrid="false"
     inkscape:window-width="1366"
     inkscape:window-height="715"
     inkscape:window-x="0"
     inkscape:window-y="24"
     inkscape:window-maximized="1" />
  <metadata
     id="metadata7">
    <rdf:RDF>
      <cc:Work
         rdf:about="">
        <dc:format>image/svg+xml</dc:format>
        <dc:type
           rdf:resource="http://purl.org/dc/dcmitype/StillImage" />
        <dc:title />
      </cc:Work>
    </rdf:RDF>
  </metadata>
  <g
     inkscape:label="Layer 1"
     inkscape:groupmode="layer"
     id="layer1"
     transform="translate(0,-552.36218)">
    <g
       id="g3460">
      <path
         inkscape:connector-curvature="0"
         id="path3364"
         d="m 97.040974,1029.8357 336.888376,-1.1739 1.17377,-363.88639 -88.03697,-89.21086 -250.025176,0 z"
         style="fill:#f2f2f2;fill-rule:evenodd;stroke:#afafaf;stroke-width:5.03546047;stroke-linecap:butt;stroke-linejoin:miter;stroke-miterlimit:4;stroke-dasharray:none;stroke-opacity:1" />
      <path
         inkscape:connector-curvature="0"
         id="rect4228"
         d="m 97.041016,907.86724 0,121.96756 336.888674,-1.0485 0.4375,-120.91906 -337.326174,0 z"
         style="fill:#ff6600;fill-opacity:1;stroke:none;stroke-width:5;stroke-miterlimit:4;stroke-dasharray:none;stroke-opacity:1" />
      <g
         id="flowRoot3364"
         style="font-style:normal;font-weight:normal;font-size:40px;line-height:125%;font-family:sans-serif;letter-spacing:0px;word-spacing:0px;fill:#ffffff;fill-opacity:1;stroke:none;stroke-width:1px;stroke-linecap:butt;stroke-linejoin:miter;stroke-opacity:1"
         transform="matrix(1.3221433,0,0,1.3221433,39.912594,809.08624)">
        <path
           id="path3373"
           style="font-style:normal;font-variant:normal;font-weight:bold;font-stretch:normal;font-size:80px;font-family:sans-serif;-inkscape-font-specification:'sans-serif Bold';fill:#ffffff"
           d="m 112.07617,101.17157 q -6.875,0 -10.66406,5.07813 -3.789063,5.07812 -3.789063,14.29687 0,9.17969 3.789063,14.25782 3.78906,5.07812 10.66406,5.07812 6.91406,0 10.70313,-5.07812 3.78906,-5.07813 3.78906,-14.25782 0,-9.21875 -3.78906,-14.29687 -3.78907,-5.07813 -10.70313,-5.07813 z m 0,-10.898434 q 14.0625,0 22.03125,8.046875 7.96875,8.046879 7.96875,22.226559 0,14.14063 -7.96875,22.1875 -7.96875,8.04688 -22.03125,8.04688 -14.023436,0 -22.031248,-8.04688 -7.96875,-8.04687 -7.96875,-22.1875 0,-14.17968 7.96875,-22.226559 8.007812,-8.046875 22.031248,-8.046875 z"
           inkscape:connector-curvature="0" />
        <path
           id="path3375"
           style="font-style:normal;font-variant:normal;font-weight:bold;font-stretch:normal;font-size:80px;font-family:sans-serif;-inkscape-font-specification:'sans-serif Bold';fill:#ffffff"
           d="m 146.45117,91.327824 53.75,0 0,11.367186 -19.33594,0 0,46.95313 -15.03906,0 0,-46.95313 -19.375,0 0,-11.367186 z"
           inkscape:connector-curvature="0" />
        <path
           id="path3377"
           style="font-style:normal;font-variant:normal;font-weight:bold;font-stretch:normal;font-size:80px;font-family:sans-serif;-inkscape-font-specification:'sans-serif Bold';fill:#ffffff"
           d="m 207.93555,91.327824 24.96093,0 q 11.13282,0 17.07032,4.960937 5.97656,4.921879 5.97656,14.062499 0,9.17969 -5.97656,14.14063 -5.9375,4.92187 -17.07032,4.92187 l -9.92187,0 0,20.23438 -15.03906,0 0,-58.320316 z m 15.03906,10.898436 0,16.28906 8.32031,0 q 4.375,0 6.75781,-2.10937 2.38282,-2.14844 2.38282,-6.05469 0,-3.90625 -2.38282,-6.01562 -2.38281,-2.10938 -6.75781,-2.10938 l -8.32031,0 z"
           inkscape:connector-curvature="0" />
      </g>
      <rect
         y="650.0423"
         x="144.23022"
         height="12.292208"
         width="241.27188"
         id="rect2990-3"
         style="fill:#ff6600;fill-opacity:1;stroke:none" />
      <rect
         y="728.57629"
         x="171.56758"
         height="12.292208"
         width="72.270981"
         id="rect2990-3-6-7"
         style="fill:#ff6600;fill-opacity:1;stroke:none" />
      <rect
         y="728.57629"
         x="148.8123"
         height="12.292208"
         width="12.693478"
         id="rect2990-3-6-7-5"
         style="fill:#ff6600;fill-opacity:1;stroke:none" />
      <rect
         y="749.3382"
         x="170.94699"
         height="12.292208"
         width="72.270981"
         id="rect2990-3-6-7-3"
         style="fill:#ff6600;fill-opacity:1;stroke:none" />
      <rect
         y="749.3382"
         x="148.19171"
         height="12.292208"
         width="12.693478"
         id="rect2990-3-6-7-5-5"
         style="fill:#ff6600;fill-opacity:1;stroke:none" />
      <rect
         y="770.55139"
         x="170.94699"
         height="12.292208"
         width="72.270981"
         id="rect2990-3-6-7-6"
         style="fill:#ff6600;fill-opacity:1;stroke:none" />
      <rect
         y="770.55139"
         x="148.19171"
         height="12.292208"
         width="12.693478"
         id="rect2990-3-6-7-5-2"
         style="fill:#ff6600;fill-opacity:1;stroke:none" />
      <rect
         y="793.11865"
         x="170.94699"
         height="12.292208"
         width="72.270981"
         id="rect2990-3-6-7-9"
         style="fill:#ff6600;fill-opacity:1;stroke:none" />
      <rect
         y="793.11865"
         x="148.19171"
         height="12.292208"
         width="12.693478"
         id="rect2990-3-6-7-5-1"
         style="fill:#ff6600;fill-opacity:1;stroke:none" />
      <rect
         y="717.87042"
         x="276.17233"
         height="94.468086"
         width="113.70193"
         id="rect2990-2"
         style="fill:#ffffff;fill-opacity:1;stroke:none" />
      <path
         inkscape:connector-curvature="0"
         id="path17"
         d="m 337.14595,808.26689 -8.99142,0 c -1.24138,0 -2.24798,-1.098 -2.24798,-2.4523 l 0,-39.2357 c 0,-1.3541 1.0066,-2.45233 2.24798,-2.45233 l 8.99142,0 c 1.24137,0 2.24797,1.09823 2.24797,2.45233 l 0,39.2357 c 0,1.3543 -1.0066,2.4523 -2.24797,2.4523 z"
         style="fill:#ffcc00" />
      <path
         inkscape:connector-curvature="0"
         id="path21"
         d="m 316.91513,808.26689 -8.99141,0 c -1.24138,0 -2.24799,-1.098 -2.24799,-2.4523 l 0,-26.97453 c 0,-1.35427 1.00661,-2.45233 2.24799,-2.45233 l 8.99141,0 c 1.24138,0 2.24799,1.09806 2.24799,2.45233 l 0,26.97453 c 0,1.3543 -1.00661,2.4523 -2.24799,2.4523 z"
         style="fill:#f03916;fill-opacity:1" />
      <path
         inkscape:connector-curvature="0"
         id="path25"
         d="m 296.68432,808.26689 -8.99141,0 c -1.24138,0 -2.24798,-1.098 -2.24798,-2.4523 l 0,-14.71353 c 0,-1.35427 1.0066,-2.45233 2.24798,-2.45233 l 8.99141,0 c 1.2414,0 2.24798,1.09806 2.24798,2.45233 l 0,14.71353 c -2.4e-4,1.3543 -1.00658,2.4523 -2.24798,2.4523 z"
         style="fill:#004455" />
      <path
         inkscape:connector-curvature="0"
         id="path29"
         d="m 357.37676,808.26689 -8.9914,0 c -1.24139,0 -2.24799,-1.098 -2.24799,-2.4523 l 0,-26.97453 c 0,-1.35427 1.0066,-2.45233 2.24799,-2.45233 l 8.9914,0 c 1.24137,0 2.24797,1.09806 2.24797,2.45233 l 0,26.97453 c 0,1.3543 -1.0066,2.4523 -2.24797,2.4523 z"
         style="fill:#45d03f;fill-opacity:1" />
      <path
         inkscape:connector-curvature="0"
         id="path33"
         d="m 377.60783,808.26689 -8.99144,0 c -1.24136,0 -2.24797,-1.098 -2.24797,-2.4523 l 0,-53.9492 c 0,-1.3541 1.00661,-2.45233 2.24797,-2.45233 l 8.99144,0 c 1.24137,0 2.24797,1.09823 2.24797,2.45233 l 0,53.9492 c -2.3e-4,1.3543 -1.0066,2.4523 -2.24797,2.4523 z"
         style="fill:#00bbf2;fill-opacity:1" />
      <path
         inkscape:connector-curvature="0"
         id="path37"
         d="m 384.35126,810.71859 -103.40203,0 c -1.24138,0 -2.24799,-1.098 -2.24799,-2.4523 l 0,0 c 0,-1.3543 1.00661,-2.4523 2.24799,-2.4523 l 103.40228,0 c 1.24137,0 2.24799,1.098 2.24799,2.4523 l 0,0 c -2.5e-4,1.3549 -1.00662,2.4523 -2.24824,2.4523 z"
         style="fill:#394050" />
      <path
         inkscape:connector-curvature="0"
         id="path2998"
         d="m 284.39252,783.91634 50.49853,-29.59352 17.52843,17.30083 22.32786,-48.71538"
         style="fill:none;stroke:#394050;stroke-width:2.50435662;stroke-linecap:butt;stroke-linejoin:miter;stroke-miterlimit:4;stroke-dasharray:none;stroke-opacity:1" />
      <path
         inkscape:connector-curvature="0"
         id="path3768"
         d="m 375.60698,722.24214 -8.99746,4.26399"
         style="fill:none;stroke:#394050;stroke-width:2.50435662;stroke-linecap:butt;stroke-linejoin:miter;stroke-miterlimit:4;stroke-dasharray:none;stroke-opacity:1" />
      <path
         inkscape:connector-curvature="0"
         id="path3770-3"
         d="m 378.06672,731.59014 -4.03778,-10.01249"
         style="fill:none;stroke:#394050;stroke-width:2.50435662;stroke-linecap:butt;stroke-linejoin:miter;stroke-miterlimit:4;stroke-dasharray:none;stroke-opacity:1" />
      <rect
         transform="scale(1,-1)"
         y="-875.86877"
         x="148.34575"
         height="12.292208"
         width="241.27188"
         id="rect2990-3-9"
         style="fill:#ff6600;fill-opacity:1;stroke:none" />
      <rect
         style="fill:#ff6600;fill-opacity:1;stroke:none"
         id="rect3456"
         width="241.27188"
         height="12.292208"
         x="144.23022"
         y="672.0423" />
      <rect
         style="fill:#ff6600;fill-opacity:1;stroke:none"
         id="rect3458"
         width="241.27188"
         height="12.292208"
         x="148.34575"
         y="-853.86877"
         transform="scale(1,-1)" />
    </g>
  </g>
</svg>
