<?xml version="1.0" encoding="UTF-8" standalone="no"?>
<!-- Created with Inkscape (http://www.inkscape.org/) -->

<svg
   xmlns:dc="http://purl.org/dc/elements/1.1/"
   xmlns:cc="http://creativecommons.org/ns#"
   xmlns:rdf="http://www.w3.org/1999/02/22-rdf-syntax-ns#"
   xmlns:svg="http://www.w3.org/2000/svg"
   xmlns="http://www.w3.org/2000/svg"
   xmlns:sodipodi="http://sodipodi.sourceforge.net/DTD/sodipodi-0.dtd"
   xmlns:inkscape="http://www.inkscape.org/namespaces/inkscape"
   width="500"
   height="500"
   id="svg2"
   version="1.1"
   inkscape:version="0.91 r13725"
   sodipodi:docname="application-x-tgif.svg">
  <defs
     id="defs4" />
  <sodipodi:namedview
     id="base"
     pagecolor="#ffffff"
     bordercolor="#666666"
     borderopacity="1.0"
     inkscape:pageopacity="0.0"
     inkscape:pageshadow="2"
     inkscape:zoom="0.60666665"
     inkscape:cx="111.16652"
     inkscape:cy="129.51196"
     inkscape:document-units="px"
     inkscape:current-layer="layer1"
     showgrid="false"
     inkscape:window-width="1366"
     inkscape:window-height="715"
     inkscape:window-x="0"
     inkscape:window-y="24"
     inkscape:window-maximized="1" />
  <metadata
     id="metadata7">
    <rdf:RDF>
      <cc:Work
         rdf:about="">
        <dc:format>image/svg+xml</dc:format>
        <dc:type
           rdf:resource="http://purl.org/dc/dcmitype/StillImage" />
        <dc:title />
      </cc:Work>
    </rdf:RDF>
  </metadata>
  <g
     inkscape:label="Layer 1"
     inkscape:groupmode="layer"
     id="layer1"
     transform="translate(0,-552.36218)">
    <g
       id="g4175">
      <path
         inkscape:connector-curvature="0"
         id="path3364"
         d="m 97.040974,1029.8357 336.888376,-1.1739 1.17377,-363.88639 -88.03697,-89.21086 -250.025176,0 z"
         style="fill:#f2f2f2;fill-rule:evenodd;stroke:#afafaf;stroke-width:5.03546047;stroke-linecap:butt;stroke-linejoin:miter;stroke-miterlimit:4;stroke-dasharray:none;stroke-opacity:1" />
      <path
         inkscape:connector-curvature="0"
         id="rect4228"
         d="m 97.041016,907.86724 0,121.96756 336.888674,-1.0485 0.4375,-120.91906 -337.326174,0 z"
         style="fill:#ffcc00;fill-opacity:1;stroke:none;stroke-width:5;stroke-miterlimit:4;stroke-dasharray:none;stroke-opacity:1" />
      <g
         transform="translate(-16.483517,11.538462)"
         id="g4174">
        <circle
           style="fill:#ff6600;fill-opacity:1;stroke:none"
           id="path3018"
           cx="235.66255"
           cy="705.25287"
           r="80.804726" />
        <rect
           style="fill:#deb200;fill-opacity:1;stroke:none"
           id="rect3788"
           width="148.142"
           height="134.67456"
           x="274.52286"
           y="683.85376" />
        <path
           style="fill:#ffcc00;stroke:none"
           d="m 166.90214,861.58446 161.60945,0 -80.4477,-139.53792 z"
           id="path3790"
           inkscape:connector-curvature="0"
           sodipodi:nodetypes="cccc" />
        <rect
           style="fill:#45d03f;fill-opacity:1;stroke:none"
           id="rect3792"
           width="24.241419"
           height="24.241419"
           x="235.96896"
           y="708.32147" />
        <rect
           style="fill:#45d03f;fill-opacity:1;stroke:none"
           id="rect3792-3"
           width="24.241419"
           height="24.241419"
           x="147.66484"
           y="846.14471" />
        <rect
           style="fill:#45d03f;fill-opacity:1;stroke:none"
           id="rect3792-6"
           width="24.241419"
           height="24.241419"
           x="324.79138"
           y="844.24023" />
      </g>
      <g
         id="flowRoot4160"
         style="font-style:normal;font-weight:normal;font-size:40px;line-height:125%;font-family:sans-serif;letter-spacing:0px;word-spacing:0px;fill:#ffffff;fill-opacity:1;stroke:none;stroke-width:1px;stroke-linecap:butt;stroke-linejoin:miter;stroke-opacity:1"
         transform="matrix(2.5698832,0,0,2.5698832,-272.73028,-111.48125)">
        <path
           inkscape:connector-curvature="0"
           id="path4169"
           style="font-style:normal;font-variant:normal;font-weight:bold;font-stretch:normal;font-family:sans-serif;-inkscape-font-specification:'sans-serif Bold';fill:#ffffff"
           d="m 183.47656,408.48911 q -3.4375,0 -5.33203,2.53906 -1.89453,2.53906 -1.89453,7.14844 0,4.58984 1.89453,7.1289 1.89453,2.53907 5.33203,2.53907 3.45703,0 5.35156,-2.53907 1.89454,-2.53906 1.89454,-7.1289 0,-4.60938 -1.89454,-7.14844 -1.89453,-2.53906 -5.35156,-2.53906 z m 0,-5.44922 q 7.03125,0 11.01563,4.02344 3.98437,4.02343 3.98437,11.11328 0,7.07031 -3.98437,11.09375 -3.98438,4.02343 -11.01563,4.02343 -7.01172,0 -11.01562,-4.02343 -3.98438,-4.02344 -3.98438,-11.09375 0,-7.08985 3.98438,-11.11328 4.0039,-4.02344 11.01562,-4.02344 z" />
        <path
           inkscape:connector-curvature="0"
           id="path4171"
           style="font-style:normal;font-variant:normal;font-weight:bold;font-stretch:normal;font-family:sans-serif;-inkscape-font-specification:'sans-serif Bold';fill:#ffffff"
           d="m 215.82031,414.85629 q 1.77735,0 2.69531,-0.78125 0.91797,-0.78125 0.91797,-2.30468 0,-1.50391 -0.91797,-2.28516 -0.91796,-0.80078 -2.69531,-0.80078 l -4.16015,0 0,6.17187 4.16015,0 z m 0.25391,12.75391 q 2.26562,0 3.39844,-0.95703 1.15234,-0.95703 1.15234,-2.89063 0,-1.89453 -1.13281,-2.83203 -1.13282,-0.95703 -3.41797,-0.95703 l -4.41406,0 0,7.63672 4.41406,0 z m 6.99219,-10.48828 q 2.42187,0.70312 3.75,2.59766 1.32812,1.89453 1.32812,4.64843 0,4.21875 -2.85156,6.28907 -2.85156,2.07031 -8.67188,2.07031 l -12.48047,0 0,-29.16016 11.28907,0 q 6.07422,0 8.78906,1.83594 2.73437,1.83594 2.73437,5.87891 0,2.1289 -0.99609,3.63281 -0.99609,1.48437 -2.89062,2.20703 z" />
        <path
           inkscape:connector-curvature="0"
           id="path4173"
           style="font-style:normal;font-variant:normal;font-weight:bold;font-stretch:normal;font-family:sans-serif;-inkscape-font-specification:'sans-serif Bold';fill:#ffffff"
           d="m 234.60937,403.56723 7.51954,0 0,26.32813 q 0,5.44922 -2.96875,8.14453 -2.94922,2.69531 -8.94532,2.69531 l -1.52343,0 0,-5.68359 1.17187,0 q 2.34375,0 3.53516,-1.3086 1.21093,-1.30859 1.21093,-3.84765 l 0,-26.32813 z" />
      </g>
    </g>
  </g>
</svg>
