<?xml version="1.0" encoding="UTF-8" standalone="no"?>
<!-- Created with Inkscape (http://www.inkscape.org/) -->

<svg
   xmlns:dc="http://purl.org/dc/elements/1.1/"
   xmlns:cc="http://creativecommons.org/ns#"
   xmlns:rdf="http://www.w3.org/1999/02/22-rdf-syntax-ns#"
   xmlns:svg="http://www.w3.org/2000/svg"
   xmlns="http://www.w3.org/2000/svg"
   xmlns:sodipodi="http://sodipodi.sourceforge.net/DTD/sodipodi-0.dtd"
   xmlns:inkscape="http://www.inkscape.org/namespaces/inkscape"
   width="500"
   height="500"
   id="svg2"
   version="1.1"
   inkscape:version="0.91 r13725"
   sodipodi:docname="application-pgp-signature.svg">
  <defs
     id="defs4" />
  <sodipodi:namedview
     id="base"
     pagecolor="#ffffff"
     bordercolor="#666666"
     borderopacity="1.0"
     inkscape:pageopacity="0.0"
     inkscape:pageshadow="2"
     inkscape:zoom="0.42897809"
     inkscape:cx="-44.164513"
     inkscape:cy="303.37159"
     inkscape:document-units="px"
     inkscape:current-layer="layer1"
     showgrid="false"
     inkscape:window-width="1366"
     inkscape:window-height="715"
     inkscape:window-x="0"
     inkscape:window-y="24"
     inkscape:window-maximized="1" />
  <metadata
     id="metadata7">
    <rdf:RDF>
      <cc:Work
         rdf:about="">
        <dc:format>image/svg+xml</dc:format>
        <dc:type
           rdf:resource="http://purl.org/dc/dcmitype/StillImage" />
        <dc:title />
      </cc:Work>
    </rdf:RDF>
  </metadata>
  <g
     inkscape:label="Layer 1"
     inkscape:groupmode="layer"
     id="layer1"
     transform="translate(0,-552.36218)">
    <g
       id="g4173">
      <path
         inkscape:connector-curvature="0"
         id="path3364"
         d="m 97.040974,1029.8357 336.888376,-1.1739 1.17377,-363.88639 -88.03697,-89.21086 -250.025176,0 z"
         style="fill:#f2f2f2;fill-rule:evenodd;stroke:#afafaf;stroke-width:5.03546047;stroke-linecap:butt;stroke-linejoin:miter;stroke-miterlimit:4;stroke-dasharray:none;stroke-opacity:1" />
      <path
         inkscape:connector-curvature="0"
         id="rect4228"
         d="m 97.041016,907.86724 0,121.96756 336.888674,-1.0485 0.4375,-120.91906 -337.326174,0 z"
         style="fill:#c87137;fill-opacity:1;stroke:none;stroke-width:5;stroke-miterlimit:4;stroke-dasharray:none;stroke-opacity:1" />
      <g
         id="flowRoot4158"
         style="font-style:normal;font-weight:normal;font-size:40px;line-height:125%;font-family:sans-serif;letter-spacing:0px;word-spacing:0px;fill:#ffffff;fill-opacity:1;stroke:none;stroke-width:1px;stroke-linecap:butt;stroke-linejoin:miter;stroke-opacity:1"
         transform="matrix(2.6442863,0,0,2.6442863,2432.3852,282.52339)">
        <path
           inkscape:connector-curvature="0"
           id="path4167"
           style="font-style:normal;font-variant:normal;font-weight:bold;font-stretch:normal;font-family:sans-serif;-inkscape-font-specification:'sans-serif Bold';fill:#ffffff"
           d="m -861.17383,244.96176 12.48047,0 q 5.56641,0 8.53516,2.48047 2.98828,2.46094 2.98828,7.03125 0,4.58985 -2.98828,7.07031 -2.96875,2.46094 -8.53516,2.46094 l -4.96094,0 0,10.11719 -7.51953,0 0,-29.16016 z m 7.51953,5.44922 0,8.14453 4.16016,0 q 2.1875,0 3.37891,-1.05468 1.1914,-1.07422 1.1914,-3.02735 0,-1.95312 -1.1914,-3.00781 -1.19141,-1.05469 -3.37891,-1.05469 l -4.16016,0 z" />
        <path
           inkscape:connector-curvature="0"
           id="path4169"
           style="font-style:normal;font-variant:normal;font-weight:bold;font-stretch:normal;font-family:sans-serif;-inkscape-font-specification:'sans-serif Bold';fill:#ffffff"
           d="m -808.75195,272.52036 q -2.07032,1.07422 -4.31641,1.62109 -2.24609,0.54688 -4.6875,0.54688 -7.28516,0 -11.54297,-4.0625 -4.25781,-4.08204 -4.25781,-11.05469 0,-6.99219 4.25781,-11.05469 4.25781,-4.08203 11.54297,-4.08203 2.44141,0 4.6875,0.54687 2.24609,0.54688 4.31641,1.6211 l 0,6.03515 q -2.08985,-1.42578 -4.1211,-2.08984 -2.03125,-0.66406 -4.27734,-0.66406 -4.02344,0 -6.32813,2.57812 -2.30468,2.57813 -2.30468,7.10938 0,4.51172 2.30468,7.08984 2.30469,2.57813 6.32813,2.57813 2.24609,0 4.27734,-0.66407 2.03125,-0.66406 4.1211,-2.08984 l 0,6.03516 z" />
        <path
           inkscape:connector-curvature="0"
           id="path4171"
           style="font-style:normal;font-variant:normal;font-weight:bold;font-stretch:normal;font-family:sans-serif;-inkscape-font-specification:'sans-serif Bold';fill:#ffffff"
           d="m -781.42773,245.87973 0,6.17188 q -2.40235,-1.07422 -4.6875,-1.6211 -2.28516,-0.54687 -4.31641,-0.54687 -2.69531,0 -3.98438,0.74219 -1.28906,0.74218 -1.28906,2.30468 0,1.17188 0.85938,1.83594 0.8789,0.64453 3.16406,1.11328 l 3.20312,0.64453 q 4.86329,0.97657 6.91407,2.96875 2.05078,1.99219 2.05078,5.66407 0,4.82421 -2.8711,7.1875 -2.85156,2.34375 -8.73046,2.34375 -2.77344,0 -5.56641,-0.52735 -2.79297,-0.52734 -5.58594,-1.5625 l 0,-6.34765 q 2.79297,1.48437 5.39063,2.24609 2.61718,0.74219 5.03906,0.74219 2.46094,0 3.76953,-0.82032 1.30859,-0.82031 1.30859,-2.34375 0,-1.36718 -0.89843,-2.10937 -0.87891,-0.74219 -3.53516,-1.32813 l -2.91016,-0.64453 q -4.375,-0.9375 -6.40625,-2.98828 -2.01171,-2.05078 -2.01171,-5.52734 0,-4.35547 2.8125,-6.69922 2.8125,-2.34375 8.08593,-2.34375 2.40235,0 4.94141,0.37109 2.53906,0.35157 5.25391,1.07422 z" />
      </g>
      <g
         id="g4188"
         transform="matrix(0.92370877,0,0,0.92370877,16.665746,-80.990347)">
        <path
           style="fill:#b3b3b3;fill-opacity:1;stroke:none"
           d="m 184.52509,905.30611 c 0,0 -1.0282,-76.71526 0,-84.52906 1.02819,-7.81375 10.33379,-71.01324 80.54598,-70.36707 70.21211,0.64616 78.25791,59.96467 79.66083,67.71172 1.40292,7.74705 1.32764,86.29928 1.32764,86.29928 l -33.63458,0.88513 -0.44255,-75.23528 c 0,0 -4.9192,-43.87585 -48.68161,-42.92835 -43.76244,0.9475 -44.69857,43.37092 -44.69857,43.37092 l -0.44256,74.35014 z"
           id="path3767"
           inkscape:connector-curvature="0"
           sodipodi:nodetypes="czzzccczccc" />
        <path
           style="fill:#c87137;fill-opacity:1;stroke:none"
           d="m 158.97751,1025.0921 213.42331,0.313 -0.31297,-130.49492 -213.11034,0 z"
           id="path2997"
           inkscape:connector-curvature="0"
           sodipodi:nodetypes="ccccc" />
        <path
           sodipodi:type="arc"
           style="fill:#ebebeb;fill-opacity:1;stroke:none"
           id="path3769"
           sodipodi:cx="265.51361"
           sodipodi:cy="964.16656"
           sodipodi:rx="43.370911"
           sodipodi:ry="42.928352"
           d="m 308.88452,964.16656 a 43.370911,42.928352 0 0 1 -43.32,42.92834 43.370911,42.928352 0 0 1 -43.4217,-42.82756 43.370911,42.928352 0 0 1 43.21807,-43.02886 43.370911,42.928352 0 0 1 43.52315,42.72654"
           sodipodi:start="0"
           sodipodi:end="6.2784904"
           sodipodi:open="true" />
        <path
           sodipodi:type="arc"
           style="fill:#394050;fill-opacity:1;stroke:none"
           id="path3771"
           sodipodi:cx="265.88165"
           sodipodi:cy="953.1358"
           sodipodi:rx="8.2094946"
           sodipodi:ry="7.9328942"
           d="m 274.09115,953.1358 a 8.2094946,7.9328942 0 0 1 -8.19986,7.93289 8.2094946,7.9328942 0 0 1 -8.21911,-7.91426 8.2094946,7.9328942 0 0 1 8.18057,-7.95147 8.2094946,7.9328942 0 0 1 8.23831,7.8956"
           sodipodi:start="0"
           sodipodi:end="6.2784904"
           sodipodi:open="true" />
        <path
           style="fill:#394050;stroke:#394050;stroke-width:6.19584465;stroke-linecap:round;stroke-linejoin:miter;stroke-miterlimit:4;stroke-dasharray:none;stroke-opacity:1"
           d="m 266.21358,955.07205 0.22125,32.30689"
           id="path3773"
           inkscape:connector-curvature="0" />
      </g>
    </g>
  </g>
</svg>
