<?xml version="1.0" encoding="UTF-8" standalone="no"?>
<!-- Created with Inkscape (http://www.inkscape.org/) -->

<svg
   xmlns:dc="http://purl.org/dc/elements/1.1/"
   xmlns:cc="http://creativecommons.org/ns#"
   xmlns:rdf="http://www.w3.org/1999/02/22-rdf-syntax-ns#"
   xmlns:svg="http://www.w3.org/2000/svg"
   xmlns="http://www.w3.org/2000/svg"
   xmlns:sodipodi="http://sodipodi.sourceforge.net/DTD/sodipodi-0.dtd"
   xmlns:inkscape="http://www.inkscape.org/namespaces/inkscape"
   width="500"
   height="500"
   id="svg2"
   version="1.1"
   inkscape:version="0.91 r13725"
   sodipodi:docname="zzzz.svg">
  <defs
     id="defs4" />
  <sodipodi:namedview
     id="base"
     pagecolor="#ffffff"
     bordercolor="#666666"
     borderopacity="1.0"
     inkscape:pageopacity="0.0"
     inkscape:pageshadow="2"
     inkscape:zoom="0.4289781"
     inkscape:cx="520.07407"
     inkscape:cy="205.29739"
     inkscape:document-units="px"
     inkscape:current-layer="layer1"
     showgrid="false"
     inkscape:window-width="1366"
     inkscape:window-height="715"
     inkscape:window-x="0"
     inkscape:window-y="24"
     inkscape:window-maximized="1" />
  <metadata
     id="metadata7">
    <rdf:RDF>
      <cc:Work
         rdf:about="">
        <dc:format>image/svg+xml</dc:format>
        <dc:type
           rdf:resource="http://purl.org/dc/dcmitype/StillImage" />
        <dc:title />
      </cc:Work>
    </rdf:RDF>
  </metadata>
  <g
     inkscape:label="Layer 1"
     inkscape:groupmode="layer"
     id="layer1"
     transform="translate(0,-552.36218)">
    <g
       id="g3371">
      <path
         inkscape:connector-curvature="0"
         id="path3364"
         d="m 97.040974,1029.8357 336.888376,-1.1739 1.17377,-363.88639 -88.03697,-89.21086 -250.025176,0 z"
         style="fill:#f2f2f2;fill-rule:evenodd;stroke:#afafaf;stroke-width:5.03546047;stroke-linecap:butt;stroke-linejoin:miter;stroke-miterlimit:4;stroke-dasharray:none;stroke-opacity:1" />
      <path
         inkscape:connector-curvature="0"
         id="rect4228"
         d="m 97.041016,907.86724 0,121.96756 336.888674,-1.0485 0.4375,-120.91906 -337.326174,0 z"
         style="fill:#45d03f;fill-opacity:1;stroke:none;stroke-width:5;stroke-miterlimit:4;stroke-dasharray:none;stroke-opacity:1" />
      <g
         id="flowRoot3348"
         style="font-style:normal;font-weight:normal;font-size:53.82391739px;line-height:125%;font-family:sans-serif;letter-spacing:0px;word-spacing:0px;fill:#ffffff;fill-opacity:1;stroke:none;stroke-width:1px;stroke-linecap:butt;stroke-linejoin:miter;stroke-opacity:1"
         transform="matrix(0.95011923,0,0,0.95011923,16.619696,55.065249)">
        <path
           id="path3357"
           style="font-style:normal;font-variant:normal;font-weight:bold;font-stretch:normal;font-size:107.64783478px;font-family:sans-serif;-inkscape-font-specification:'sans-serif Bold';fill:#ffffff"
           d="m 109.54189,923.01556 54.61235,0 0,15.29566 -34.37582,0 0,14.61235 32.32589,0 0,15.29567 -32.32589,0 0,17.97634 35.5322,0 0,15.29562 -55.76873,0 0,-78.47564 z" />
        <path
           id="path3359"
           style="font-style:normal;font-variant:normal;font-weight:bold;font-stretch:normal;font-size:107.64783478px;font-family:sans-serif;-inkscape-font-specification:'sans-serif Bold';fill:#ffffff"
           d="m 183.12928,923.01556 33.58738,0 q 14.98029,0 22.96978,6.67542 8.04205,6.62287 8.04205,18.92247 0,12.35217 -8.04205,19.0276 -7.98949,6.62287 -22.96978,6.62287 l -13.35085,0 0,27.22728 -20.23653,0 0,-78.47564 z m 20.23653,14.66491 0,21.91853 11.19579,0 q 5.887,0 9.0933,-2.83837 3.20631,-2.89093 3.20631,-8.14718 0,-5.25624 -3.20631,-8.09461 -3.2063,-2.83837 -9.0933,-2.83837 l -11.19579,0 z" />
        <path
           id="path3361"
           style="font-style:normal;font-variant:normal;font-weight:bold;font-stretch:normal;font-size:107.64783478px;font-family:sans-serif;-inkscape-font-specification:'sans-serif Bold';fill:#ffffff"
           d="m 261.97291,923.01556 20.23653,0 0,47.04336 q 0,9.72405 3.15374,13.92904 3.20631,4.15243 10.40736,4.15243 7.25362,0 10.40736,-4.15243 3.20631,-4.20499 3.20631,-13.92904 l 0,-47.04336 20.23653,0 0,47.04336 q 0,16.66229 -8.35742,24.80946 -8.35743,8.14722 -25.49278,8.14722 -17.08278,0 -25.44021,-8.14722 -8.35742,-8.14717 -8.35742,-24.80946 l 0,-47.04336 z" />
        <path
           id="path3363"
           style="font-style:normal;font-variant:normal;font-weight:bold;font-stretch:normal;font-size:107.64783478px;font-family:sans-serif;-inkscape-font-specification:'sans-serif Bold';fill:#ffffff"
           d="m 380.8691,953.39663 q 4.78318,0 7.25361,-2.10249 2.47044,-2.1025 2.47044,-6.20237 0,-4.0473 -2.47044,-6.1498 -2.47043,-2.15506 -7.25361,-2.15506 l -11.1958,0 0,16.60972 11.1958,0 z m 0.68331,34.32326 q 6.09724,0 9.14586,-2.57555 3.10119,-2.57556 3.10119,-7.77924 0,-5.09856 -3.04863,-7.62155 -3.04862,-2.57556 -9.19842,-2.57556 l -11.87911,0 0,20.5519 11.87911,0 z m 18.81735,-28.22601 q 6.51774,1.89224 10.09198,6.9908 3.57425,5.09855 3.57425,12.50985 0,11.35349 -7.67412,16.9251 -7.67411,5.57157 -23.33771,5.57157 l -33.58739,0 0,-78.47564 30.38108,0 q 16.34691,0 23.65309,4.94086 7.35874,4.94087 7.35874,15.82129 0,5.72931 -2.68068,9.77661 -2.68069,3.99475 -7.77924,5.93956 z" />
      </g>
      <path
         inkscape:connector-curvature="0"
         id="path3402"
         d="m 263.32567,622.31947 a 17.62016,17.62016 0 0 0 -11.7273,5.09724 L 147.27954,730.91525 a 17.62016,17.62016 0 0 0 -0.0973,24.91618 l 105.14085,105.96288 a 17.62016,17.62016 0 0 0 25.1369,-0.12688 l 115.8202,-119.10482 -25.26377,-24.56513 -103.31431,106.24615 -80.0978,-80.72343 79.64942,-79.02205 27.26755,25.99021 -52.4479,53.77565 25.22553,24.60163 64.89123,-66.53354 a 17.62016,17.62016 0 0 0 -0.45707,-25.05521 l -52.56955,-50.10696 a 17.62016,17.62016 0 0 0 -12.83783,-4.85046 z"
         style="color:#000000;font-style:normal;font-variant:normal;font-weight:normal;font-stretch:normal;font-size:medium;line-height:normal;font-family:sans-serif;text-indent:0;text-align:start;text-decoration:none;text-decoration-line:none;text-decoration-style:solid;text-decoration-color:#000000;letter-spacing:normal;word-spacing:normal;text-transform:none;direction:ltr;block-progression:tb;writing-mode:lr-tb;baseline-shift:baseline;text-anchor:start;white-space:normal;clip-rule:nonzero;display:inline;overflow:visible;visibility:visible;opacity:1;isolation:auto;mix-blend-mode:normal;color-interpolation:sRGB;color-interpolation-filters:linearRGB;solid-color:#000000;solid-opacity:1;fill:#45d03f;fill-opacity:1;fill-rule:evenodd;stroke:none;stroke-width:39.60072708;stroke-linecap:butt;stroke-linejoin:round;stroke-miterlimit:4;stroke-dasharray:none;stroke-dashoffset:0;stroke-opacity:1;color-rendering:auto;image-rendering:auto;shape-rendering:auto;text-rendering:auto;enable-background:accumulate" />
    </g>
  </g>
</svg>
