<?xml version="1.0" encoding="UTF-8" standalone="no"?>
<!-- Created with Inkscape (http://www.inkscape.org/) -->

<svg
   xmlns:dc="http://purl.org/dc/elements/1.1/"
   xmlns:cc="http://creativecommons.org/ns#"
   xmlns:rdf="http://www.w3.org/1999/02/22-rdf-syntax-ns#"
   xmlns:svg="http://www.w3.org/2000/svg"
   xmlns="http://www.w3.org/2000/svg"
   xmlns:sodipodi="http://sodipodi.sourceforge.net/DTD/sodipodi-0.dtd"
   xmlns:inkscape="http://www.inkscape.org/namespaces/inkscape"
   width="500"
   height="500"
   id="svg2"
   version="1.1"
   inkscape:version="0.91 r13725"
   sodipodi:docname="application-vnd.sun.xml.math.svg">
  <defs
     id="defs4" />
  <sodipodi:namedview
     id="base"
     pagecolor="#ffffff"
     bordercolor="#666666"
     borderopacity="1.0"
     inkscape:pageopacity="0.0"
     inkscape:pageshadow="2"
     inkscape:zoom="0.4289781"
     inkscape:cx="216.26761"
     inkscape:cy="230.92112"
     inkscape:document-units="px"
     inkscape:current-layer="layer1"
     showgrid="false"
     inkscape:window-width="1366"
     inkscape:window-height="715"
     inkscape:window-x="0"
     inkscape:window-y="24"
     inkscape:window-maximized="1" />
  <metadata
     id="metadata7">
    <rdf:RDF>
      <cc:Work
         rdf:about="">
        <dc:format>image/svg+xml</dc:format>
        <dc:type
           rdf:resource="http://purl.org/dc/dcmitype/StillImage" />
        <dc:title />
      </cc:Work>
    </rdf:RDF>
  </metadata>
  <g
     inkscape:label="Layer 1"
     inkscape:groupmode="layer"
     id="layer1"
     transform="translate(0,-552.36218)">
    <g
       id="g4169">
      <path
         inkscape:connector-curvature="0"
         id="path3364"
         d="m 97.040974,1029.8357 336.888376,-1.1739 1.17377,-363.88639 -88.03697,-89.21086 -250.025176,0 z"
         style="fill:#f2f2f2;fill-rule:evenodd;stroke:#afafaf;stroke-width:5.03546047;stroke-linecap:butt;stroke-linejoin:miter;stroke-miterlimit:4;stroke-dasharray:none;stroke-opacity:1" />
      <path
         inkscape:connector-curvature="0"
         id="rect4228"
         d="m 97.041016,907.86724 0,121.96756 336.888674,-1.0485 0.4375,-120.91906 -337.326174,0 z"
         style="fill:#394050;fill-opacity:1;stroke:none;stroke-width:5;stroke-miterlimit:4;stroke-dasharray:none;stroke-opacity:1" />
      <g
         id="g4156"
         transform="translate(-4.661751,-146.86067)">
        <path
           style="color:#000000;font-style:normal;font-variant:normal;font-weight:normal;font-stretch:normal;font-size:medium;line-height:normal;font-family:sans-serif;text-indent:0;text-align:start;text-decoration:none;text-decoration-line:none;text-decoration-style:solid;text-decoration-color:#000000;letter-spacing:normal;word-spacing:normal;text-transform:none;direction:ltr;block-progression:tb;writing-mode:lr-tb;baseline-shift:baseline;text-anchor:start;white-space:normal;clip-rule:nonzero;display:inline;overflow:visible;visibility:visible;opacity:1;isolation:auto;mix-blend-mode:normal;color-interpolation:sRGB;color-interpolation-filters:linearRGB;solid-color:#000000;solid-opacity:1;fill:#394050;fill-opacity:1;fill-rule:nonzero;stroke:none;stroke-width:24.22398758;stroke-linecap:butt;stroke-linejoin:miter;stroke-miterlimit:4;stroke-dasharray:none;stroke-dashoffset:0;stroke-opacity:1;color-rendering:auto;image-rendering:auto;shape-rendering:auto;text-rendering:auto;enable-background:accumulate"
           d="m 208.4082,811.39258 -25.76367,158.65234 -16.60351,-55.66992 -53.5625,0 0,24.22461 35.50976,0 26.53906,88.98439 23.5625,-1.5195 30.85938,-190.02934 147.19336,2.97461 0,39.51757 24.22461,0 0,-63.25781 -191.95899,-3.87695 z"
           id="path3005"
           inkscape:connector-curvature="0" />
        <path
           style="color:#000000;font-style:normal;font-variant:normal;font-weight:normal;font-stretch:normal;font-size:medium;line-height:normal;font-family:sans-serif;text-indent:0;text-align:start;text-decoration:none;text-decoration-line:none;text-decoration-style:solid;text-decoration-color:#000000;letter-spacing:normal;word-spacing:normal;text-transform:none;direction:ltr;block-progression:tb;writing-mode:lr-tb;baseline-shift:baseline;text-anchor:start;white-space:normal;clip-rule:nonzero;display:inline;overflow:visible;visibility:visible;opacity:1;isolation:auto;mix-blend-mode:normal;color-interpolation:sRGB;color-interpolation-filters:linearRGB;solid-color:#000000;solid-opacity:1;fill:#394050;fill-opacity:1;fill-rule:nonzero;stroke:none;stroke-width:24.22398758;stroke-linecap:round;stroke-linejoin:miter;stroke-miterlimit:4;stroke-dasharray:none;stroke-dashoffset:0;stroke-opacity:1;color-rendering:auto;image-rendering:auto;shape-rendering:auto;text-rendering:auto;enable-background:accumulate"
           d="m 259.45117,879.98828 a 12.113205,12.113205 0 0 0 -8.89844,20.07813 l 95.92188,113.05079 a 12.113205,12.113205 0 1 0 18.4707,-15.67189 L 269.02344,884.39453 a 12.113205,12.113205 0 0 0 -9.57227,-4.40625 z"
           id="path3775"
           inkscape:connector-curvature="0" />
        <path
           style="color:#000000;font-style:normal;font-variant:normal;font-weight:normal;font-stretch:normal;font-size:medium;line-height:normal;font-family:sans-serif;text-indent:0;text-align:start;text-decoration:none;text-decoration-line:none;text-decoration-style:solid;text-decoration-color:#000000;letter-spacing:normal;word-spacing:normal;text-transform:none;direction:ltr;block-progression:tb;writing-mode:lr-tb;baseline-shift:baseline;text-anchor:start;white-space:normal;clip-rule:nonzero;display:inline;overflow:visible;visibility:visible;opacity:1;isolation:auto;mix-blend-mode:normal;color-interpolation:sRGB;color-interpolation-filters:linearRGB;solid-color:#000000;solid-opacity:1;fill:#394050;fill-opacity:1;fill-rule:nonzero;stroke:none;stroke-width:24.22398758;stroke-linecap:round;stroke-linejoin:miter;stroke-miterlimit:4;stroke-dasharray:none;stroke-dashoffset:0;stroke-opacity:1;color-rendering:auto;image-rendering:auto;shape-rendering:auto;text-rendering:auto;enable-background:accumulate"
           d="m 355.68164,881.69922 a 12.113205,12.113205 0 0 0 -9.20703,4.4082 L 250.55273,999.1582 a 12.113205,12.113205 0 1 0 18.47071,15.6719 l 95.92187,-113.0508 a 12.113205,12.113205 0 0 0 -9.26367,-20.08008 z"
           id="path3775-3"
           inkscape:connector-curvature="0" />
      </g>
      <g
         id="flowRoot4154"
         style="font-style:normal;font-weight:normal;font-size:40px;line-height:125%;font-family:sans-serif;letter-spacing:0px;word-spacing:0px;fill:#ffffff;fill-opacity:1;stroke:none;stroke-width:1px;stroke-linecap:butt;stroke-linejoin:miter;stroke-opacity:1"
         transform="matrix(2.6442863,0,0,2.6442863,979.63467,-613.9427)">
        <path
           inkscape:connector-curvature="0"
           id="path4163"
           style="font-style:normal;font-variant:normal;font-weight:bold;font-stretch:normal;font-family:sans-serif;-inkscape-font-specification:'sans-serif Bold';fill:#ffffff"
           d="m -295.39844,583.8934 0,6.17188 q -2.40234,-1.07422 -4.6875,-1.62109 -2.28515,-0.54688 -4.3164,-0.54688 -2.69532,0 -3.98438,0.74219 -1.28906,0.74219 -1.28906,2.30469 0,1.17187 0.85937,1.83593 0.87891,0.64453 3.16407,1.11328 l 3.20312,0.64454 q 4.86328,0.97656 6.91406,2.96875 2.05079,1.99218 2.05079,5.66406 0,4.82422 -2.8711,7.1875 -2.85156,2.34375 -8.73047,2.34375 -2.77343,0 -5.5664,-0.52735 -2.79297,-0.52734 -5.58594,-1.5625 l 0,-6.34765 q 2.79297,1.48437 5.39062,2.24609 2.61719,0.74219 5.03907,0.74219 2.46093,0 3.76953,-0.82031 1.30859,-0.82032 1.30859,-2.34375 0,-1.36719 -0.89844,-2.10938 -0.8789,-0.74219 -3.53515,-1.32812 l -2.91016,-0.64453 q -4.375,-0.9375 -6.40625,-2.98829 -2.01172,-2.05078 -2.01172,-5.52734 0,-4.35547 2.8125,-6.69922 2.8125,-2.34375 8.08594,-2.34375 2.40234,0 4.94141,0.3711 2.53906,0.35156 5.2539,1.07421 z" />
        <path
           inkscape:connector-curvature="0"
           id="path4165"
           style="font-style:normal;font-variant:normal;font-weight:bold;font-stretch:normal;font-family:sans-serif;-inkscape-font-specification:'sans-serif Bold';fill:#ffffff"
           d="m -270.61328,597.25278 10.11719,14.88281 -7.83203,0 -6.81641,-9.96094 -6.75781,9.96094 -7.8711,0 10.11719,-14.88281 -9.72656,-14.27734 7.85156,0 6.38672,9.39453 6.36719,-9.39453 7.89062,0 -9.72656,14.27734 z" />
        <path
           inkscape:connector-curvature="0"
           id="path4167"
           style="font-style:normal;font-variant:normal;font-weight:bold;font-stretch:normal;font-family:sans-serif;-inkscape-font-specification:'sans-serif Bold';fill:#ffffff"
           d="m -256.00391,582.97544 9.57032,0 6.64062,15.60546 6.67969,-15.60546 9.55078,0 0,29.16015 -7.10937,0 0,-21.32812 -6.71875,15.72265 -4.76563,0 -6.71875,-15.72265 0,21.32812 -7.12891,0 0,-29.16015 z" />
      </g>
    </g>
  </g>
</svg>
