<?xml version="1.0" encoding="UTF-8" standalone="no"?>
<!-- Created with Inkscape (http://www.inkscape.org/) -->

<svg
   xmlns:dc="http://purl.org/dc/elements/1.1/"
   xmlns:cc="http://creativecommons.org/ns#"
   xmlns:rdf="http://www.w3.org/1999/02/22-rdf-syntax-ns#"
   xmlns:svg="http://www.w3.org/2000/svg"
   xmlns="http://www.w3.org/2000/svg"
   xmlns:sodipodi="http://sodipodi.sourceforge.net/DTD/sodipodi-0.dtd"
   xmlns:inkscape="http://www.inkscape.org/namespaces/inkscape"
   width="500"
   height="500"
   id="svg2"
   version="1.1"
   inkscape:version="0.91 r13725"
   sodipodi:docname="application-vnd.sun.xml.draw.svg">
  <defs
     id="defs4" />
  <sodipodi:namedview
     id="base"
     pagecolor="#ffffff"
     bordercolor="#666666"
     borderopacity="1.0"
     inkscape:pageopacity="0.0"
     inkscape:pageshadow="2"
     inkscape:zoom="0.60666665"
     inkscape:cx="-66.031287"
     inkscape:cy="129.51196"
     inkscape:document-units="px"
     inkscape:current-layer="layer1"
     showgrid="false"
     inkscape:window-width="1366"
     inkscape:window-height="715"
     inkscape:window-x="0"
     inkscape:window-y="24"
     inkscape:window-maximized="1" />
  <metadata
     id="metadata7">
    <rdf:RDF>
      <cc:Work
         rdf:about="">
        <dc:format>image/svg+xml</dc:format>
        <dc:type
           rdf:resource="http://purl.org/dc/dcmitype/StillImage" />
        <dc:title />
      </cc:Work>
    </rdf:RDF>
  </metadata>
  <g
     inkscape:label="Layer 1"
     inkscape:groupmode="layer"
     id="layer1"
     transform="translate(0,-552.36218)">
    <g
       id="g4175">
      <path
         inkscape:connector-curvature="0"
         id="path3364"
         d="m 97.040974,1029.8357 336.888376,-1.1739 1.17377,-363.88639 -88.03697,-89.21086 -250.025176,0 z"
         style="fill:#f2f2f2;fill-rule:evenodd;stroke:#afafaf;stroke-width:5.03546047;stroke-linecap:butt;stroke-linejoin:miter;stroke-miterlimit:4;stroke-dasharray:none;stroke-opacity:1" />
      <path
         inkscape:connector-curvature="0"
         id="rect4228"
         d="m 97.041016,907.86724 0,121.96756 336.888674,-1.0485 0.4375,-120.91906 -337.326174,0 z"
         style="fill:#ffcc00;fill-opacity:1;stroke:none;stroke-width:5;stroke-miterlimit:4;stroke-dasharray:none;stroke-opacity:1" />
      <g
         transform="translate(-16.483517,11.538462)"
         id="g4174">
        <circle
           style="fill:#ff6600;fill-opacity:1;stroke:none"
           id="path3018"
           cx="235.66255"
           cy="705.25287"
           r="80.804726" />
        <rect
           style="fill:#deb200;fill-opacity:1;stroke:none"
           id="rect3788"
           width="148.142"
           height="134.67456"
           x="274.52286"
           y="683.85376" />
        <path
           style="fill:#ffcc00;stroke:none"
           d="m 166.90214,861.58446 161.60945,0 -80.4477,-139.53792 z"
           id="path3790"
           inkscape:connector-curvature="0"
           sodipodi:nodetypes="cccc" />
        <rect
           style="fill:#45d03f;fill-opacity:1;stroke:none"
           id="rect3792"
           width="24.241419"
           height="24.241419"
           x="235.96896"
           y="708.32147" />
        <rect
           style="fill:#45d03f;fill-opacity:1;stroke:none"
           id="rect3792-3"
           width="24.241419"
           height="24.241419"
           x="147.66484"
           y="846.14471" />
        <rect
           style="fill:#45d03f;fill-opacity:1;stroke:none"
           id="rect3792-6"
           width="24.241419"
           height="24.241419"
           x="324.79138"
           y="844.24023" />
      </g>
      <g
         id="flowRoot4160"
         style="font-style:normal;font-weight:normal;font-size:40px;line-height:125%;font-family:sans-serif;letter-spacing:0px;word-spacing:0px;fill:#ffffff;fill-opacity:1;stroke:none;stroke-width:1px;stroke-linecap:butt;stroke-linejoin:miter;stroke-opacity:1"
         transform="matrix(2.6442863,0,0,2.6442863,922.89503,39.327822)">
        <path
           inkscape:connector-curvature="0"
           id="path4169"
           style="font-style:normal;font-variant:normal;font-weight:bold;font-stretch:normal;font-family:sans-serif;-inkscape-font-specification:'sans-serif Bold';fill:#ffffff"
           d="m -271.08984,338.55161 0,6.17187 q -2.40235,-1.07422 -4.6875,-1.62109 -2.28516,-0.54688 -4.31641,-0.54688 -2.69531,0 -3.98437,0.74219 -1.28907,0.74219 -1.28907,2.30469 0,1.17187 0.85938,1.83594 0.8789,0.64453 3.16406,1.11328 l 3.20313,0.64453 q 4.86328,0.97656 6.91406,2.96875 2.05078,1.99219 2.05078,5.66406 0,4.82422 -2.87109,7.1875 -2.85157,2.34375 -8.73047,2.34375 -2.77344,0 -5.56641,-0.52734 -2.79297,-0.52735 -5.58594,-1.5625 l 0,-6.34766 q 2.79297,1.48438 5.39063,2.24609 2.61719,0.74219 5.03906,0.74219 2.46094,0 3.76953,-0.82031 1.3086,-0.82031 1.3086,-2.34375 0,-1.36719 -0.89844,-2.10938 -0.87891,-0.74218 -3.53516,-1.32812 l -2.91015,-0.64453 q -4.375,-0.9375 -6.40625,-2.98828 -2.01172,-2.05078 -2.01172,-5.52735 0,-4.35547 2.8125,-6.69922 2.8125,-2.34375 8.08593,-2.34375 2.40235,0 4.94141,0.3711 2.53906,0.35156 5.25391,1.07422 z" />
        <path
           inkscape:connector-curvature="0"
           id="path4171"
           style="font-style:normal;font-variant:normal;font-weight:bold;font-stretch:normal;font-family:sans-serif;-inkscape-font-specification:'sans-serif Bold';fill:#ffffff"
           d="m -246.30469,351.91098 10.11719,14.88281 -7.83203,0 -6.81641,-9.96093 -6.75781,9.96093 -7.87109,0 10.11718,-14.88281 -9.72656,-14.27734 7.85156,0 6.38672,9.39453 6.36719,-9.39453 7.89063,0 -9.72657,14.27734 z" />
        <path
           inkscape:connector-curvature="0"
           id="path4173"
           style="font-style:normal;font-variant:normal;font-weight:bold;font-stretch:normal;font-family:sans-serif;-inkscape-font-specification:'sans-serif Bold';fill:#ffffff"
           d="m -224.17578,343.31723 0,17.79297 2.69531,0 q 4.60938,0 7.03125,-2.28516 2.44141,-2.28515 2.44141,-6.64062 0,-4.33594 -2.42188,-6.60156 -2.42187,-2.26563 -7.05078,-2.26563 l -2.69531,0 z m -7.51953,-5.68359 7.92969,0 q 6.64062,0 9.88281,0.95703 3.26172,0.9375 5.58594,3.20312 2.05078,1.97266 3.04687,4.55079 0.99609,2.57812 0.99609,5.83984 0,3.30078 -0.99609,5.89844 -0.99609,2.57812 -3.04687,4.55078 -2.34375,2.26562 -5.625,3.22265 -3.28125,0.9375 -9.84375,0.9375 l -7.92969,0 0,-29.16015 z" />
      </g>
    </g>
  </g>
</svg>
