<?xml version="1.0" encoding="UTF-8" standalone="no"?>
<!-- Created with Inkscape (http://www.inkscape.org/) -->

<svg
   xmlns:dc="http://purl.org/dc/elements/1.1/"
   xmlns:cc="http://creativecommons.org/ns#"
   xmlns:rdf="http://www.w3.org/1999/02/22-rdf-syntax-ns#"
   xmlns:svg="http://www.w3.org/2000/svg"
   xmlns="http://www.w3.org/2000/svg"
   xmlns:sodipodi="http://sodipodi.sourceforge.net/DTD/sodipodi-0.dtd"
   xmlns:inkscape="http://www.inkscape.org/namespaces/inkscape"
   width="500"
   height="500"
   id="svg2"
   version="1.1"
   inkscape:version="0.91 r13725"
   sodipodi:docname="application-vnd.iccprofile.svg">
  <defs
     id="defs4" />
  <sodipodi:namedview
     id="base"
     pagecolor="#ffffff"
     bordercolor="#666666"
     borderopacity="1.0"
     inkscape:pageopacity="0.0"
     inkscape:pageshadow="2"
     inkscape:zoom="0.42897809"
     inkscape:cx="385.34957"
     inkscape:cy="252.61294"
     inkscape:document-units="px"
     inkscape:current-layer="layer1"
     showgrid="false"
     inkscape:window-width="1366"
     inkscape:window-height="715"
     inkscape:window-x="0"
     inkscape:window-y="24"
     inkscape:window-maximized="1" />
  <metadata
     id="metadata7">
    <rdf:RDF>
      <cc:Work
         rdf:about="">
        <dc:format>image/svg+xml</dc:format>
        <dc:type
           rdf:resource="http://purl.org/dc/dcmitype/StillImage" />
        <dc:title />
      </cc:Work>
    </rdf:RDF>
  </metadata>
  <g
     inkscape:label="Layer 1"
     inkscape:groupmode="layer"
     id="layer1"
     transform="translate(0,-552.36218)">
    <g
       id="g4194">
      <path
         inkscape:connector-curvature="0"
         id="path3364"
         d="m 97.040974,1029.8357 336.888376,-1.1739 1.17377,-363.88639 -88.03697,-89.21086 -250.025176,0 z"
         style="fill:#f2f2f2;fill-rule:evenodd;stroke:#afafaf;stroke-width:5.03546047;stroke-linecap:butt;stroke-linejoin:miter;stroke-miterlimit:4;stroke-dasharray:none;stroke-opacity:1" />
      <path
         inkscape:connector-curvature="0"
         id="rect4228"
         d="m 97.041016,907.86724 0,121.96756 336.888674,-1.0485 0.4375,-120.91906 -337.326174,0 z"
         style="fill:#00bbf2;fill-opacity:1;stroke:none;stroke-width:5;stroke-miterlimit:4;stroke-dasharray:none;stroke-opacity:1" />
      <g
         transform="matrix(1.0652714,0,0,1.0652714,-37.933928,-17.639734)"
         id="g4178">
        <path
           sodipodi:nodetypes="ccccsccccssccccc"
           id="path895"
           d="m 282.17463,591.6823 c -1.56541,4.1621 -3.32767,8.37557 -5.1274,12.40105 -0.15034,0.34932 -0.3868,0.64429 -0.5403,0.98991 -1.66037,3.66855 -3.30568,7.10795 -5.12738,10.6683 -0.37808,0.7359 -0.69523,1.50018 -1.07957,2.22834 -1.64613,3.1455 -3.38135,6.3629 -5.12742,9.42427 -0.60675,1.06716 -1.27231,2.17465 -1.88946,3.22516 -15.61816,26.15055 -36.14239,53.46453 -52.35352,76.38867 -12.84505,17.2471 -20.23168,35.8625 -22.39869,53.82067 0,44.59879 41.88306,80.85203 93.64274,80.85203 51.75958,0 93.64262,-36.25324 93.64262,-80.85203 0,-28.09981 -22.41906,-56.97383 -48.30563,-93.99851 -8.19376,-11.50049 -16.10109,-23.59657 -23.20825,-34.97169 -3.85755,-6.22896 -7.62914,-12.6421 -11.33425,-19.34346 -1.15746,-2.09195 -2.37329,-4.30683 -3.50826,-6.44789 -2.45314,-4.63957 -4.96591,-9.5072 -7.28623,-14.38642 z"
           style="fill:#00bbf2;fill-opacity:1;fill-rule:nonzero;stroke:none"
           inkscape:connector-curvature="0" />
        <path
           sodipodi:nodetypes="ccscssc"
           id="path895-3"
           d="m 210.71382,707.008 c -12.84504,17.2471 -20.23167,35.8625 -22.39869,53.82067 0,44.59879 41.88307,80.85203 93.64275,80.85203 51.75957,0 93.64262,-36.25324 93.64262,-80.85203 -174.1098,52.07369 -148.55768,-63.44027 -79.8999,-43.7013 75.56598,21.72504 32.67843,-31.19942 -16.83518,-36.79172 -39.90991,-4.5076 -68.1516,26.67235 -68.1516,26.67235 z"
           style="fill:#0092bc;fill-opacity:1;fill-rule:nonzero;stroke:none"
           inkscape:connector-curvature="0" />
      </g>
      <g
         id="flowRoot4144"
         style="font-style:normal;font-weight:normal;font-size:40px;line-height:125%;font-family:sans-serif;letter-spacing:0px;word-spacing:0px;fill:#ffffff;fill-opacity:1;stroke:none;stroke-width:1px;stroke-linecap:butt;stroke-linejoin:miter;stroke-opacity:1"
         transform="matrix(1.3221433,0,0,1.3221433,26.164333,815.148)">
        <path
           inkscape:connector-curvature="0"
           id="path4153"
           style="font-style:normal;font-variant:normal;font-weight:bold;font-stretch:normal;font-size:80px;font-family:sans-serif;-inkscape-font-specification:'sans-serif Bold';fill:#ffffff"
           d="m 114.57617,86.665714 15.03906,0 0,58.320316 -15.03906,0 0,-58.320316 z" />
        <path
           inkscape:connector-curvature="0"
           id="path4155"
           style="font-style:normal;font-variant:normal;font-weight:bold;font-stretch:normal;font-size:80px;font-family:sans-serif;-inkscape-font-specification:'sans-serif Bold';fill:#ffffff"
           d="m 190.66992,141.7829 q -4.14062,2.14844 -8.63281,3.24219 -4.49219,1.09375 -9.375,1.09375 -14.57031,0 -23.08594,-8.125 -8.51562,-8.16406 -8.51562,-22.10938 0,-13.98437 8.51562,-22.109371 8.51563,-8.164062 23.08594,-8.164062 4.88281,0 9.375,1.09375 4.49219,1.09375 8.63281,3.242187 l 0,12.070316 q -4.17969,-2.851566 -8.24219,-4.179691 -4.0625,-1.328125 -8.55468,-1.328125 -8.04688,0 -12.65625,5.156246 -4.60938,5.15625 -4.60938,14.21875 0,9.02344 4.60938,14.17969 4.60937,5.15625 12.65625,5.15625 4.49218,0 8.55468,-1.32812 4.0625,-1.32813 8.24219,-4.17969 l 0,12.07031 z" />
        <path
           inkscape:connector-curvature="0"
           id="path4157"
           style="font-style:normal;font-variant:normal;font-weight:bold;font-stretch:normal;font-size:80px;font-family:sans-serif;-inkscape-font-specification:'sans-serif Bold';fill:#ffffff"
           d="m 249.41992,141.7829 q -4.14062,2.14844 -8.63281,3.24219 -4.49219,1.09375 -9.375,1.09375 -14.57031,0 -23.08594,-8.125 -8.51562,-8.16406 -8.51562,-22.10938 0,-13.98437 8.51562,-22.109371 8.51563,-8.164062 23.08594,-8.164062 4.88281,0 9.375,1.09375 4.49219,1.09375 8.63281,3.242187 l 0,12.070316 q -4.17969,-2.851566 -8.24219,-4.179691 -4.0625,-1.328125 -8.55468,-1.328125 -8.04688,0 -12.65625,5.156246 -4.60938,5.15625 -4.60938,14.21875 0,9.02344 4.60938,14.17969 4.60937,5.15625 12.65625,5.15625 4.49218,0 8.55468,-1.32812 4.0625,-1.32813 8.24219,-4.17969 l 0,12.07031 z" />
      </g>
    </g>
  </g>
</svg>
