<?xml version="1.0" encoding="UTF-8" standalone="no"?>
<!-- Created with Inkscape (http://www.inkscape.org/) -->

<svg
   xmlns:dc="http://purl.org/dc/elements/1.1/"
   xmlns:cc="http://creativecommons.org/ns#"
   xmlns:rdf="http://www.w3.org/1999/02/22-rdf-syntax-ns#"
   xmlns:svg="http://www.w3.org/2000/svg"
   xmlns="http://www.w3.org/2000/svg"
   xmlns:sodipodi="http://sodipodi.sourceforge.net/DTD/sodipodi-0.dtd"
   xmlns:inkscape="http://www.inkscape.org/namespaces/inkscape"
   width="500"
   height="500"
   id="svg2"
   version="1.1"
   inkscape:version="0.91 r13725"
   sodipodi:docname="application-vnd.ms-excel.svg">
  <defs
     id="defs4" />
  <sodipodi:namedview
     id="base"
     pagecolor="#ffffff"
     bordercolor="#666666"
     borderopacity="1.0"
     inkscape:pageopacity="0.0"
     inkscape:pageshadow="2"
     inkscape:zoom="0.21448905"
     inkscape:cx="275.40783"
     inkscape:cy="-10.960582"
     inkscape:document-units="px"
     inkscape:current-layer="layer1"
     showgrid="false"
     inkscape:window-width="1366"
     inkscape:window-height="715"
     inkscape:window-x="0"
     inkscape:window-y="24"
     inkscape:window-maximized="1" />
  <metadata
     id="metadata7">
    <rdf:RDF>
      <cc:Work
         rdf:about="">
        <dc:format>image/svg+xml</dc:format>
        <dc:type
           rdf:resource="http://purl.org/dc/dcmitype/StillImage" />
        <dc:title />
      </cc:Work>
    </rdf:RDF>
  </metadata>
  <g
     inkscape:label="Layer 1"
     inkscape:groupmode="layer"
     id="layer1"
     transform="translate(0,-552.36218)">
    <g
       id="g4187">
      <path
         inkscape:connector-curvature="0"
         id="path3364"
         d="m 97.040974,1029.8357 336.888376,-1.1739 1.17377,-363.88639 -88.03697,-89.21086 -250.025176,0 z"
         style="fill:#f2f2f2;fill-rule:evenodd;stroke:#afafaf;stroke-width:5.03546047;stroke-linecap:butt;stroke-linejoin:miter;stroke-miterlimit:4;stroke-dasharray:none;stroke-opacity:1" />
      <path
         inkscape:connector-curvature="0"
         id="rect4228"
         d="m 97.041016,907.86724 0,121.96756 336.888674,-1.0485 0.4375,-120.91906 -337.326174,0 z"
         style="fill:#45d03f;fill-opacity:1;stroke:none;stroke-width:5;stroke-miterlimit:4;stroke-dasharray:none;stroke-opacity:1" />
      <g
         id="g4235"
         transform="translate(-4.9450569,-141.75828)">
        <rect
           style="fill:#e6e6e6;fill-opacity:1;stroke:#45d03f;stroke-width:10.27064514;stroke-linecap:butt;stroke-linejoin:round;stroke-miterlimit:4;stroke-dasharray:none;stroke-opacity:1"
           id="rect4192"
           width="172.76912"
           height="199.35089"
           x="223.33183"
           y="796.21863" />
        <rect
           style="fill:#45d03f;fill-opacity:1;stroke:none;stroke-width:8.59799957;stroke-linecap:butt;stroke-linejoin:round;stroke-miterlimit:4;stroke-dasharray:none;stroke-opacity:1"
           id="rect4194-51-9"
           width="106.16345"
           height="21.120604"
           x="266.69852"
           y="820.09857" />
        <rect
           style="fill:#45d03f;fill-opacity:1;stroke:none;stroke-width:8.59799957;stroke-linecap:butt;stroke-linejoin:round;stroke-miterlimit:4;stroke-dasharray:none;stroke-opacity:1"
           id="rect4194-51"
           width="106.16345"
           height="21.120604"
           x="265.7258"
           y="950.56372" />
        <rect
           style="fill:#45d03f;fill-opacity:1;stroke:none;stroke-width:8.59799957;stroke-linecap:butt;stroke-linejoin:round;stroke-miterlimit:4;stroke-dasharray:none;stroke-opacity:1"
           id="rect4194-51-7"
           width="106.16345"
           height="21.120604"
           x="265.87433"
           y="918.17554" />
        <g
           id="g4315"
           style="fill:#45d03f;fill-opacity:1">
          <rect
             y="885.74316"
             x="267.44843"
             height="21.120604"
             width="106.16345"
             id="rect4194-51-8"
             style="fill:#45d03f;fill-opacity:1;stroke:none;stroke-width:8.59799957;stroke-linecap:butt;stroke-linejoin:round;stroke-miterlimit:4;stroke-dasharray:none;stroke-opacity:1" />
          <rect
             y="853.35498"
             x="267.59695"
             height="21.120604"
             width="106.16345"
             id="rect4194-51-7-0"
             style="fill:#45d03f;fill-opacity:1;stroke:none;stroke-width:8.59799957;stroke-linecap:butt;stroke-linejoin:round;stroke-miterlimit:4;stroke-dasharray:none;stroke-opacity:1" />
        </g>
        <rect
           style="fill:#1a1a1a;fill-opacity:0.39207076;stroke:none;stroke-width:8.59799957;stroke-linecap:butt;stroke-linejoin:round;stroke-miterlimit:4;stroke-dasharray:none;stroke-opacity:1"
           id="rect4244"
           width="61.039627"
           height="209.29285"
           x="251.52184"
           y="791.56708" />
        <path
           style="fill:#45d03f;fill-opacity:1;fill-rule:evenodd;stroke:none;stroke-width:1px;stroke-linecap:butt;stroke-linejoin:miter;stroke-opacity:1"
           d="m 284.53851,760.30159 -158.30223,30.4763 0.28836,202.8526 157.52162,31.01211 z"
           id="path3390-3"
           inkscape:connector-curvature="0"
           sodipodi:nodetypes="ccccc" />
        <rect
           style="fill:#e6e6e6;fill-opacity:1;stroke:none;stroke-width:8.59799957;stroke-linecap:butt;stroke-linejoin:round;stroke-miterlimit:4;stroke-dasharray:none;stroke-opacity:1"
           id="rect4194-8"
           width="160.53528"
           height="12.87895"
           x="812.91486"
           y="-333.27847"
           transform="matrix(-0.00236116,0.99999721,-0.99998543,-0.00539902,0,0)" />
        <path
           style="fill:#ffffff;fill-opacity:1;fill-rule:evenodd;stroke:none;stroke-width:1px;stroke-linecap:butt;stroke-linejoin:miter;stroke-opacity:1"
           d="m 220.98004,948.40982 26.21887,2.01682 -29.61565,-55.72832 29.0849,-54.98529 -24.73278,1.59224 -17.19617,41.6105 -15.17934,-39.16907 -23.24668,1.48609 24.52048,49.89013 -26.40667,49.34924 22.51765,1.95153 16.9633,-39.93129 z"
           id="path4345"
           inkscape:connector-curvature="0" />
      </g>
      <g
         id="flowRoot4172"
         style="font-style:normal;font-weight:normal;font-size:40px;line-height:125%;font-family:sans-serif;letter-spacing:0px;word-spacing:0px;fill:#ffffff;fill-opacity:1;stroke:none;stroke-width:1px;stroke-linecap:butt;stroke-linejoin:miter;stroke-opacity:1"
         transform="matrix(7.051434,0,0,7.051434,3263.298,-1018.8005)">
        <path
           inkscape:connector-curvature="0"
           id="path4181"
           style="font-style:normal;font-variant:normal;font-weight:bold;font-stretch:normal;font-size:15px;font-family:sans-serif;-inkscape-font-specification:'sans-serif Bold';fill:#ffffff"
           d="m -434.28711,281.89753 3.79395,5.58105 -2.93702,0 -2.55615,-3.73535 -2.53418,3.73535 -2.95166,0 3.79395,-5.58105 -3.64746,-5.35401 2.94433,0 2.39502,3.52295 2.3877,-3.52295 2.95898,0 -3.64746,5.35401 z" />
        <path
           inkscape:connector-curvature="0"
           id="path4183"
           style="font-style:normal;font-variant:normal;font-weight:bold;font-stretch:normal;font-size:15px;font-family:sans-serif;-inkscape-font-specification:'sans-serif Bold';fill:#ffffff"
           d="m -428.80859,276.54352 2.81982,0 0,8.80371 4.95117,0 0,2.13135 -7.77099,0 0,-10.93506 z" />
        <path
           inkscape:connector-curvature="0"
           id="path4185"
           style="font-style:normal;font-variant:normal;font-weight:bold;font-stretch:normal;font-size:15px;font-family:sans-serif;-inkscape-font-specification:'sans-serif Bold';fill:#ffffff"
           d="m -411.64795,276.88776 0,2.31445 q -0.90088,-0.40283 -1.75781,-0.60791 -0.85694,-0.20507 -1.61865,-0.20507 -1.01075,0 -1.49414,0.27832 -0.4834,0.27832 -0.4834,0.86425 0,0.43946 0.32226,0.68848 0.32959,0.2417 1.18653,0.41748 l 1.20117,0.2417 q 1.82373,0.36621 2.59277,1.11328 0.76904,0.74707 0.76904,2.12402 0,1.80909 -1.07666,2.69532 -1.06933,0.8789 -3.27392,0.8789 -1.04004,0 -2.0874,-0.19775 -1.04737,-0.19775 -2.09473,-0.58594 l 0,-2.38037 q 1.04736,0.55664 2.02148,0.84229 0.98145,0.27832 1.88965,0.27832 0.92285,0 1.41358,-0.30762 0.49072,-0.30762 0.49072,-0.87891 0,-0.51269 -0.33691,-0.79101 -0.32959,-0.27832 -1.32569,-0.49805 l -1.09131,-0.2417 q -1.64062,-0.35156 -2.40234,-1.1206 -0.7544,-0.76905 -0.7544,-2.07276 0,-1.6333 1.05469,-2.51221 1.05469,-0.8789 3.03223,-0.8789 0.90088,0 1.85303,0.13916 0.95214,0.13183 1.97021,0.40283 z" />
      </g>
    </g>
  </g>
</svg>
