<?xml version="1.0" encoding="UTF-8" standalone="no"?>
<!-- Created with Inkscape (http://www.inkscape.org/) -->

<svg
   xmlns:dc="http://purl.org/dc/elements/1.1/"
   xmlns:cc="http://creativecommons.org/ns#"
   xmlns:rdf="http://www.w3.org/1999/02/22-rdf-syntax-ns#"
   xmlns:svg="http://www.w3.org/2000/svg"
   xmlns="http://www.w3.org/2000/svg"
   xmlns:sodipodi="http://sodipodi.sourceforge.net/DTD/sodipodi-0.dtd"
   xmlns:inkscape="http://www.inkscape.org/namespaces/inkscape"
   width="500"
   height="500"
   id="svg2"
   version="1.1"
   inkscape:version="0.91 r13725"
   sodipodi:docname="application-postscript.svg">
  <defs
     id="defs4" />
  <sodipodi:namedview
     id="base"
     pagecolor="#ffffff"
     bordercolor="#666666"
     borderopacity="1.0"
     inkscape:pageopacity="0.0"
     inkscape:pageshadow="2"
     inkscape:zoom="0.60666665"
     inkscape:cx="157.60248"
     inkscape:cy="164.41567"
     inkscape:document-units="px"
     inkscape:current-layer="layer1"
     showgrid="false"
     inkscape:window-width="1366"
     inkscape:window-height="715"
     inkscape:window-x="0"
     inkscape:window-y="24"
     inkscape:window-maximized="1" />
  <metadata
     id="metadata7">
    <rdf:RDF>
      <cc:Work
         rdf:about="">
        <dc:format>image/svg+xml</dc:format>
        <dc:type
           rdf:resource="http://purl.org/dc/dcmitype/StillImage" />
        <dc:title />
      </cc:Work>
    </rdf:RDF>
  </metadata>
  <g
     inkscape:label="Layer 1"
     inkscape:groupmode="layer"
     id="layer1"
     transform="translate(0,-552.36218)">
    <g
       id="g4195">
      <path
         inkscape:connector-curvature="0"
         id="path3364"
         d="m 97.040974,1029.8357 336.888376,-1.1739 1.17377,-363.88639 -88.03697,-89.21086 -250.025176,0 z"
         style="fill:#f2f2f2;fill-rule:evenodd;stroke:#afafaf;stroke-width:5.03546047;stroke-linecap:butt;stroke-linejoin:miter;stroke-miterlimit:4;stroke-dasharray:none;stroke-opacity:1" />
      <path
         inkscape:connector-curvature="0"
         id="rect4228"
         d="m 97.041016,907.86724 0,121.96756 336.888674,-1.0485 0.4375,-120.91906 -337.326174,0 z"
         style="fill:#394050;fill-opacity:1;stroke:none;stroke-width:5;stroke-miterlimit:4;stroke-dasharray:none;stroke-opacity:1" />
      <g
         id="g4144"
         transform="matrix(0.55720243,0,0,0.55720243,125.37579,301.07271)">
        <rect
           style="fill:#b3b3b3;fill-opacity:1;stroke:none"
           id="rect2997-36"
           width="401.3519"
           height="96.2145"
           x="50.687302"
           y="812.25421" />
        <rect
           style="fill:#394050;fill-opacity:1;stroke:none"
           id="rect2997-3-6-75"
           width="313.3844"
           height="125.07886"
           x="92.609268"
           y="652.12567" />
        <path
           style="fill:#e6e6e6;stroke:none"
           d="m 117.37236,699.82323 0,-71.92157 61.23053,-49.5676 201.18603,-0.97191 0.97194,123.43298 z"
           id="path3841-3"
           inkscape:connector-curvature="0"
           sodipodi:nodetypes="cccccc" />
        <rect
           style="fill:#394050;fill-opacity:1;stroke:none"
           id="rect2997-3-5"
           width="401.3519"
           height="125.07886"
           x="50"
           y="691.29865" />
        <rect
           style="fill:#e6e6e6;fill-opacity:1;stroke:none"
           id="rect2997-3-6-5-6"
           width="313.3844"
           height="153.94321"
           x="99.481766"
           y="873.41895" />
        <rect
           style="fill:#394050;fill-opacity:1;stroke:none"
           id="rect2997-3-6-7-2"
           width="313.3844"
           height="31.613338"
           x="99.481766"
           y="844.55475" />
        <path
           sodipodi:type="arc"
           style="fill:#45d03f;fill-opacity:1;stroke:none"
           id="path3053-9"
           sodipodi:cx="704.07635"
           sodipodi:cy="228.90475"
           sodipodi:rx="8.0812206"
           sodipodi:ry="8.3337584"
           d="m 712.15758,228.90475 a 8.0812206,8.3337584 0 0 1 -8.07174,8.33376 8.0812206,8.3337584 0 0 1 -8.09068,-8.31419 8.0812206,8.3337584 0 0 1 8.05274,-8.35327 8.0812206,8.3337584 0 0 1 8.10959,8.29458"
           transform="matrix(1.9379362,0,0,1.9379362,-953.79631,285.83818)"
           sodipodi:start="0"
           sodipodi:end="6.2784904"
           sodipodi:open="true" />
        <path
           style="fill:#cccccc;stroke:none"
           d="m 117.00789,628.26612 61.595,0 0.12132,-50.17503 z"
           id="path3843-1"
           inkscape:connector-curvature="0"
           sodipodi:nodetypes="cccc" />
        <rect
           style="fill:#b3b3b3;fill-opacity:1;stroke:none"
           id="rect2997-3-6-7-3-2"
           width="274.84592"
           height="15.090812"
           x="119.10197"
           y="892.97791" />
        <rect
           style="fill:#b3b3b3;fill-opacity:1;stroke:none"
           id="rect2997-3-6-7-3-5-7"
           width="274.84592"
           height="15.090812"
           x="116.98921"
           y="967.32928" />
        <rect
           style="fill:#b3b3b3;fill-opacity:1;stroke:none"
           id="rect2997-3-6-7-3-6-0"
           width="274.84592"
           height="15.090812"
           x="116.98912"
           y="928.45276" />
      </g>
      <g
         id="flowRoot4182"
         style="font-style:normal;font-weight:normal;font-size:40px;line-height:125%;font-family:sans-serif;letter-spacing:0px;word-spacing:0px;fill:#ffffff;fill-opacity:1;stroke:none;stroke-width:1px;stroke-linecap:butt;stroke-linejoin:miter;stroke-opacity:1"
         transform="matrix(2.6442863,0,0,2.6442863,792.67389,262.68515)">
        <path
           inkscape:connector-curvature="0"
           id="path4191"
           style="font-style:normal;font-variant:normal;font-weight:bold;font-stretch:normal;font-family:sans-serif;-inkscape-font-specification:'sans-serif Bold';fill:#ffffff"
           d="m -223.80078,251.91879 12.48047,0 q 5.5664,0 8.53515,2.48047 2.98829,2.46094 2.98829,7.03125 0,4.58985 -2.98829,7.07032 -2.96875,2.46093 -8.53515,2.46093 l -4.96094,0 0,10.11719 -7.51953,0 0,-29.16016 z m 7.51953,5.44922 0,8.14453 4.16016,0 q 2.1875,0 3.3789,-1.05468 1.19141,-1.07422 1.19141,-3.02735 0,-1.95312 -1.19141,-3.00781 -1.1914,-1.05469 -3.3789,-1.05469 l -4.16016,0 z" />
        <path
           inkscape:connector-curvature="0"
           id="path4193"
           style="font-style:normal;font-variant:normal;font-weight:bold;font-stretch:normal;font-family:sans-serif;-inkscape-font-specification:'sans-serif Bold';fill:#ffffff"
           d="m -174.21094,252.83676 0,6.17188 q -2.40234,-1.07422 -4.6875,-1.6211 -2.28515,-0.54687 -4.3164,-0.54687 -2.69532,0 -3.98438,0.74219 -1.28906,0.74218 -1.28906,2.30468 0,1.17188 0.85937,1.83594 0.87891,0.64453 3.16407,1.11328 l 3.20312,0.64453 q 4.86328,0.97657 6.91406,2.96875 2.05079,1.99219 2.05079,5.66407 0,4.82422 -2.8711,7.1875 -2.85156,2.34375 -8.73047,2.34375 -2.77343,0 -5.5664,-0.52735 -2.79297,-0.52734 -5.58594,-1.5625 l 0,-6.34765 q 2.79297,1.48437 5.39062,2.24609 2.61719,0.74219 5.03907,0.74219 2.46093,0 3.76953,-0.82031 1.30859,-0.82032 1.30859,-2.34375 0,-1.36719 -0.89844,-2.10938 -0.8789,-0.74219 -3.53515,-1.32812 l -2.91016,-0.64454 q -4.375,-0.9375 -6.40625,-2.98828 -2.01172,-2.05078 -2.01172,-5.52734 0,-4.35547 2.8125,-6.69922 2.8125,-2.34375 8.08594,-2.34375 2.40234,0 4.94141,0.37109 2.53906,0.35157 5.2539,1.07422 z" />
      </g>
    </g>
  </g>
</svg>
