<?xml version="1.0" encoding="UTF-8" standalone="no"?>
<!-- Created with Inkscape (http://www.inkscape.org/) -->

<svg
   xmlns:dc="http://purl.org/dc/elements/1.1/"
   xmlns:cc="http://creativecommons.org/ns#"
   xmlns:rdf="http://www.w3.org/1999/02/22-rdf-syntax-ns#"
   xmlns:svg="http://www.w3.org/2000/svg"
   xmlns="http://www.w3.org/2000/svg"
   xmlns:sodipodi="http://sodipodi.sourceforge.net/DTD/sodipodi-0.dtd"
   xmlns:inkscape="http://www.inkscape.org/namespaces/inkscape"
   width="500"
   height="500"
   id="svg2"
   version="1.1"
   inkscape:version="0.91 r13725"
   sodipodi:docname="application-x-ruby.svg">
  <defs
     id="defs4" />
  <sodipodi:namedview
     id="base"
     pagecolor="#ffffff"
     bordercolor="#666666"
     borderopacity="1.0"
     inkscape:pageopacity="0.0"
     inkscape:pageshadow="2"
     inkscape:zoom="0.60666665"
     inkscape:cx="533.74358"
     inkscape:cy="222.7804"
     inkscape:document-units="px"
     inkscape:current-layer="layer1"
     showgrid="false"
     inkscape:window-width="1366"
     inkscape:window-height="715"
     inkscape:window-x="0"
     inkscape:window-y="24"
     inkscape:window-maximized="1" />
  <metadata
     id="metadata7">
    <rdf:RDF>
      <cc:Work
         rdf:about="">
        <dc:format>image/svg+xml</dc:format>
        <dc:type
           rdf:resource="http://purl.org/dc/dcmitype/StillImage" />
        <dc:title />
      </cc:Work>
    </rdf:RDF>
  </metadata>
  <g
     inkscape:label="Layer 1"
     inkscape:groupmode="layer"
     id="layer1"
     transform="translate(0,-552.36218)">
    <g
       id="g3384">
      <path
         inkscape:connector-curvature="0"
         id="path3364"
         d="m 97.040974,1029.8357 336.888376,-1.1739 1.17377,-363.88639 -88.03697,-89.21086 -250.025176,0 z"
         style="fill:#f2f2f2;fill-rule:evenodd;stroke:#afafaf;stroke-width:5.03546047;stroke-linecap:butt;stroke-linejoin:miter;stroke-miterlimit:4;stroke-dasharray:none;stroke-opacity:1" />
      <path
         inkscape:connector-curvature="0"
         id="rect4228"
         d="m 97.041016,907.86724 0,121.96756 336.888674,-1.0485 0.4375,-120.91906 -337.326174,0 z"
         style="fill:#f03916;fill-opacity:1;stroke:none;stroke-width:5;stroke-miterlimit:4;stroke-dasharray:none;stroke-opacity:1" />
      <g
         id="g4270"
         transform="translate(2.1604208,-142.50762)">
        <path
           style="fill:#f03916;stroke:none"
           d="m 261.48122,824.93311 26.20654,43.74042 -51.84753,-0.37706 z"
           id="path3954"
           inkscape:connector-curvature="0" />
        <path
           style="fill:#ad250b;fill-opacity:1;stroke:none"
           d="m 215.18099,867.16933 93.72064,0 -47.19357,157.44537 z"
           id="path3896"
           inkscape:connector-curvature="0" />
        <path
           style="fill:#f03916;stroke:none"
           d="M 136.57585,874.32962 261.57547,1024.4988 217.55221,867.16524 144.02303,866.97671 Z"
           id="path3108"
           inkscape:connector-curvature="0" />
        <path
           style="fill:#f03916;stroke:none"
           d="M 386.57585,874.32666 261.5762,1024.4958 305.59947,867.16228 379.1286,866.97374 Z"
           id="path3108-3"
           inkscape:connector-curvature="0" />
        <path
           style="fill:#c02a0c;fill-opacity:1;stroke:none"
           d="m 143.8573,867.13029 73.69491,0.12922 -10.50346,-42.79013 -20.53055,0 z"
           id="path3898"
           inkscape:connector-curvature="0"
           sodipodi:nodetypes="ccccc" />
        <path
           style="fill:#c02a0c;fill-opacity:1;stroke:none"
           d="m 379.30557,867.15994 -73.69494,0.12922 10.50345,-42.79013 20.53061,0 z"
           id="path3898-6"
           inkscape:connector-curvature="0"
           sodipodi:nodetypes="ccccc" />
        <path
           style="fill:#ad250b;fill-opacity:1;stroke:none"
           d="m 262.50669,824.78331 -55.78392,-0.31775 10.50345,42.79014 20.53066,0 z"
           id="path3898-7"
           inkscape:connector-curvature="0"
           sodipodi:nodetypes="ccccc" />
        <path
           style="fill:#ad250b;fill-opacity:1;stroke:none"
           d="m 260.62805,824.78332 55.78387,-0.31775 -10.50345,42.79014 -20.53061,0 z"
           id="path3898-7-5"
           inkscape:connector-curvature="0"
           sodipodi:nodetypes="ccccc" />
      </g>
      <g
         id="flowRoot4257"
         style="font-style:normal;font-weight:normal;font-size:40px;line-height:125%;font-family:sans-serif;letter-spacing:0px;word-spacing:0px;fill:#ffffff;fill-opacity:1;stroke:none;stroke-width:1px;stroke-linecap:butt;stroke-linejoin:miter;stroke-opacity:1"
         transform="matrix(1.3717348,0,0,1.3717348,18.421219,797.97655)">
        <path
           inkscape:connector-curvature="0"
           id="path4266"
           style="font-style:normal;font-variant:normal;font-weight:bold;font-stretch:normal;font-size:80px;font-family:sans-serif;-inkscape-font-specification:'sans-serif Bold';fill:#ffffff"
           d="m 145.26758,120.68329 q 4.72656,0 6.75781,-1.75781 2.07031,-1.75781 2.07031,-5.78125 0,-3.98438 -2.07031,-5.70313 -2.03125,-1.71875 -6.75781,-1.71875 l -6.32813,0 0,14.96094 6.32813,0 z m -6.32813,10.39063 0,22.07031 -15.03906,0 0,-58.320313 22.96875,0 q 11.52344,0 16.875,3.867188 5.39063,3.867185 5.39063,12.226565 0,5.78125 -2.8125,9.49218 -2.77344,3.71094 -8.39844,5.46875 3.08594,0.70313 5.50781,3.20313 2.46094,2.46094 4.96094,7.5 l 8.16406,16.5625 -16.01562,0 -7.10938,-14.49219 q -2.14844,-4.375 -4.375,-5.97656 -2.1875,-1.60156 -5.85937,-1.60156 l -4.25782,0 z" />
        <path
           inkscape:connector-curvature="0"
           id="path4268"
           style="font-style:normal;font-variant:normal;font-weight:bold;font-stretch:normal;font-size:80px;font-family:sans-serif;-inkscape-font-specification:'sans-serif Bold';fill:#ffffff"
           d="m 208.82227,117.40204 q 3.55468,0 5.39062,-1.5625 1.83594,-1.5625 1.83594,-4.60937 0,-3.00782 -1.83594,-4.57032 -1.83594,-1.60156 -5.39062,-1.60156 l -8.32032,0 0,12.34375 8.32032,0 z m 0.50781,25.50781 q 4.53125,0 6.79687,-1.91406 2.30469,-1.91406 2.30469,-5.78125 0,-3.78906 -2.26562,-5.66406 -2.26563,-1.91406 -6.83594,-1.91406 l -8.82813,0 0,15.27343 8.82813,0 z m 13.98437,-20.97656 q 4.84375,1.40625 7.5,5.19531 2.65625,3.78907 2.65625,9.29688 0,8.4375 -5.70312,12.57812 -5.70313,4.14063 -17.34375,4.14063 l -24.96094,0 0,-58.320313 22.57813,0 q 12.14843,0 17.57812,3.671875 5.46875,3.671878 5.46875,11.757808 0,4.25782 -1.99219,7.26563 -1.99218,2.96875 -5.78125,4.41406 z" />
      </g>
    </g>
  </g>
</svg>
