<?xml version="1.0" encoding="UTF-8" standalone="no"?>
<!-- Created with Inkscape (http://www.inkscape.org/) -->

<svg
   xmlns:dc="http://purl.org/dc/elements/1.1/"
   xmlns:cc="http://creativecommons.org/ns#"
   xmlns:rdf="http://www.w3.org/1999/02/22-rdf-syntax-ns#"
   xmlns:svg="http://www.w3.org/2000/svg"
   xmlns="http://www.w3.org/2000/svg"
   xmlns:sodipodi="http://sodipodi.sourceforge.net/DTD/sodipodi-0.dtd"
   xmlns:inkscape="http://www.inkscape.org/namespaces/inkscape"
   width="500"
   height="500"
   id="svg2"
   version="1.1"
   inkscape:version="0.91 r13725"
   sodipodi:docname="audio-mp2.svg">
  <defs
     id="defs4" />
  <sodipodi:namedview
     id="base"
     pagecolor="#ffffff"
     bordercolor="#666666"
     borderopacity="1.0"
     inkscape:pageopacity="0.0"
     inkscape:pageshadow="2"
     inkscape:zoom="0.4289781"
     inkscape:cx="23.950093"
     inkscape:cy="187.11809"
     inkscape:document-units="px"
     inkscape:current-layer="layer1"
     showgrid="false"
     inkscape:window-width="1366"
     inkscape:window-height="715"
     inkscape:window-x="0"
     inkscape:window-y="24"
     inkscape:window-maximized="1" />
  <metadata
     id="metadata7">
    <rdf:RDF>
      <cc:Work
         rdf:about="">
        <dc:format>image/svg+xml</dc:format>
        <dc:type
           rdf:resource="http://purl.org/dc/dcmitype/StillImage" />
        <dc:title />
      </cc:Work>
    </rdf:RDF>
  </metadata>
  <g
     inkscape:label="Layer 1"
     inkscape:groupmode="layer"
     id="layer1"
     transform="translate(0,-552.36218)">
    <g
       id="g3361">
      <path
         inkscape:connector-curvature="0"
         id="path3364"
         d="m 97.040974,1029.8357 336.888376,-1.1739 1.17377,-363.88639 -88.03697,-89.21086 -250.025176,0 z"
         style="fill:#f2f2f2;fill-rule:evenodd;stroke:#afafaf;stroke-width:5.03546047;stroke-linecap:butt;stroke-linejoin:miter;stroke-miterlimit:4;stroke-dasharray:none;stroke-opacity:1" />
      <path
         inkscape:connector-curvature="0"
         id="rect4228"
         d="m 97.041016,907.86724 0,121.96756 336.888674,-1.0485 0.4375,-120.91906 -337.326174,0 z"
         style="fill:#394050;fill-opacity:1;stroke:none;stroke-width:5;stroke-miterlimit:4;stroke-dasharray:none;stroke-opacity:1" />
      <g
         style="fill:#394050;fill-opacity:1"
         id="g4190"
         transform="matrix(0.80678544,0,0,0.80678544,-32.099731,66.317814)">
        <path
           style="fill:#394050;fill-opacity:1;fill-rule:evenodd;stroke:none"
           d="m 305.20897,716.29583 0,204.12903 c -8.66636,-8.07428 -19.96756,-13.29483 -31.84948,-13.29314 -24.99165,0 -47.69622,22.72874 -47.69622,47.70815 0,24.97834 22.70457,47.70853 47.69622,47.71043 24.99183,0 47.7586,-22.72835 47.7586,-47.71043 l 0,-168.81352 0,-68.92312 0,-0.80578 -0.0637,0 -15.84693,0 z"
           id="path4112"
           inkscape:connector-curvature="0"
           sodipodi:nodetypes="cccscscccccc" />
        <path
           style="fill:#394050;fill-opacity:1;fill-rule:evenodd;stroke:none"
           d="m 462.39582,698.02641 0,204.12903 c -8.66636,-8.07428 -19.96756,-13.29483 -31.84948,-13.29314 -24.99165,0 -47.69622,22.72874 -47.69622,47.70815 0,24.97834 22.70457,47.70853 47.69622,47.71043 24.99183,0 47.7586,-22.72835 47.7586,-47.71043 l 0,-168.81352 0,-68.92312 0,-0.80578 -0.0637,0 -15.84693,0 z"
           id="path4112-3"
           inkscape:connector-curvature="0"
           sodipodi:nodetypes="cccscscccccc" />
        <rect
           style="fill:#394050;fill-opacity:1;stroke:none;stroke-opacity:1"
           id="rect4188"
           width="171.4557"
           height="18.468454"
           x="219.51505"
           y="747.4649"
           transform="matrix(0.99307685,-0.11746649,0.11746649,0.99307685,0,0)"
           inkscape:transform-center-x="-79.159264"
           inkscape:transform-center-y="-9.4361839" />
      </g>
      <g
         id="flowRoot3354"
         style="font-style:normal;font-weight:normal;font-size:107.78947449px;line-height:125%;font-family:sans-serif;letter-spacing:0px;word-spacing:0px;fill:#ffffff;fill-opacity:1;stroke:none;stroke-width:1px;stroke-linecap:butt;stroke-linejoin:miter;stroke-opacity:1"
         transform="translate(38,42)">
        <path
           id="path3355"
           style="font-style:normal;font-variant:normal;font-weight:bold;font-stretch:normal;font-family:sans-serif;-inkscape-font-specification:'sans-serif Bold';fill:#ffffff"
           d="m 108.57247,887.77223 25.78948,0 17.89473,42.05263 18,-42.05263 25.73684,0 0,78.57895 -19.15789,0 0,-57.47369 -18.10526,42.36842 -12.84211,0 -18.10526,-42.36842 0,57.47369 -19.21053,0 0,-78.57895 z" />
        <path
           id="path3357"
           style="font-style:normal;font-variant:normal;font-weight:bold;font-stretch:normal;font-family:sans-serif;-inkscape-font-specification:'sans-serif Bold';fill:#ffffff"
           d="m 215.94089,887.77223 33.63158,0 q 15,0 23,6.68421 8.05264,6.63158 8.05264,18.94737 0,12.36842 -8.05264,19.05263 -8,6.63158 -23,6.63158 l -13.36842,0 0,27.26316 -20.26316,0 0,-78.57895 z m 20.26316,14.68421 0,21.94737 11.21053,0 q 5.89474,0 9.10526,-2.84211 3.21053,-2.89473 3.21053,-8.15789 0,-5.26316 -3.21053,-8.10526 -3.21052,-2.84211 -9.10526,-2.84211 l -11.21053,0 z" />
        <path
           id="path3359"
           style="font-style:normal;font-variant:normal;font-weight:bold;font-stretch:normal;font-family:sans-serif;-inkscape-font-specification:'sans-serif Bold';fill:#ffffff"
           d="m 316.04616,951.45644 34.57895,0 0,14.89474 -57.10526,0 0,-14.89474 28.68421,-25.31579 q 3.8421,-3.47368 5.68421,-6.78947 1.8421,-3.31579 1.8421,-6.89474 0,-5.52632 -3.73684,-8.89474 -3.68421,-3.36842 -9.8421,-3.36842 -4.73685,0 -10.36843,2.05263 -5.63157,2 -12.05263,6 l 0,-17.26315 q 6.84211,-2.26316 13.52632,-3.42106 6.68421,-1.21052 13.10526,-1.21052 14.10526,0 21.89474,6.21052 7.8421,6.21053 7.8421,17.31579 0,6.42106 -3.31579,12 -3.31579,5.52632 -13.94736,14.84211 l -16.78948,14.73684 z" />
      </g>
    </g>
  </g>
</svg>
