<?xml version="1.0" encoding="UTF-8" standalone="no"?>
<!-- Created with Inkscape (http://www.inkscape.org/) -->

<svg
   xmlns:dc="http://purl.org/dc/elements/1.1/"
   xmlns:cc="http://creativecommons.org/ns#"
   xmlns:rdf="http://www.w3.org/1999/02/22-rdf-syntax-ns#"
   xmlns:svg="http://www.w3.org/2000/svg"
   xmlns="http://www.w3.org/2000/svg"
   xmlns:sodipodi="http://sodipodi.sourceforge.net/DTD/sodipodi-0.dtd"
   xmlns:inkscape="http://www.inkscape.org/namespaces/inkscape"
   width="500"
   height="500"
   id="svg2"
   version="1.1"
   inkscape:version="0.91 r13725"
   sodipodi:docname="audio-vn.rn-realmedia.svg">
  <defs
     id="defs4" />
  <sodipodi:namedview
     id="base"
     pagecolor="#ffffff"
     bordercolor="#666666"
     borderopacity="1.0"
     inkscape:pageopacity="0.0"
     inkscape:pageshadow="2"
     inkscape:zoom="0.60666665"
     inkscape:cx="624.90685"
     inkscape:cy="223.80579"
     inkscape:document-units="px"
     inkscape:current-layer="layer1"
     showgrid="false"
     inkscape:window-width="1366"
     inkscape:window-height="715"
     inkscape:window-x="0"
     inkscape:window-y="24"
     inkscape:window-maximized="1" />
  <metadata
     id="metadata7">
    <rdf:RDF>
      <cc:Work
         rdf:about="">
        <dc:format>image/svg+xml</dc:format>
        <dc:type
           rdf:resource="http://purl.org/dc/dcmitype/StillImage" />
        <dc:title />
      </cc:Work>
    </rdf:RDF>
  </metadata>
  <g
     inkscape:label="Layer 1"
     inkscape:groupmode="layer"
     id="layer1"
     transform="translate(0,-552.36218)">
    <g
       id="g4184">
      <g
         id="g4170">
        <path
           style="fill:#f2f2f2;fill-rule:evenodd;stroke:#afafaf;stroke-width:5.03546047;stroke-linecap:butt;stroke-linejoin:miter;stroke-miterlimit:4;stroke-dasharray:none;stroke-opacity:1"
           d="m 97.040974,1029.8357 336.888376,-1.1739 1.17377,-363.88639 -88.03697,-89.21086 -250.025176,0 z"
           id="path3364"
           inkscape:connector-curvature="0" />
        <path
           style="fill:#004455;fill-opacity:1;stroke:none;stroke-width:5;stroke-miterlimit:4;stroke-dasharray:none;stroke-opacity:1"
           d="m 97.041016,907.86724 0,121.96756 336.888674,-1.0485 0.4375,-120.91906 -337.326174,0 z"
           id="rect4228"
           inkscape:connector-curvature="0" />
        <g
           transform="translate(3.2332194,-152.9048)"
           id="g4171">
          <path
             id="rect4197-3"
             d="m 146.46594,793.49695 0,233.76635 233.76623,0 0,-233.76635 -233.76623,0 z m 17.53247,17.53246 17.53247,0 0,17.53247 -17.53247,0 0,-17.53247 z m 181.16883,0 17.53247,0 0,17.53247 -17.53247,0 0,-17.53247 z m -181.16883,43.83117 17.53247,0 0,17.53247 -17.53247,0 0,-17.53247 z m 181.16883,0 17.53247,0 0,17.53247 -17.53247,0 0,-17.53247 z m -181.16883,46.75325 17.53247,0 0,17.53247 -17.53247,0 0,-17.53247 z m 181.16883,0 17.53247,0 0,17.53247 -17.53247,0 0,-17.53247 z m -181.16883,46.75325 17.53247,0 0,17.53251 -17.53247,0 0,-17.53251 z m 181.16883,0 17.53247,0 0,17.53251 -17.53247,0 0,-17.53251 z m -181.16883,43.83121 17.53247,0 0,17.53251 -17.53247,0 0,-17.53251 z m 181.16883,0 17.53247,0 0,17.53251 -17.53247,0 0,-17.53251 z"
             style="fill:#004455;fill-opacity:1;stroke:none"
             inkscape:connector-curvature="0" />
          <rect
             y="811.47137"
             x="199.68207"
             height="90.584404"
             width="128.57137"
             id="rect4323-6"
             style="fill:#00bbf2;fill-opacity:1;stroke:none" />
          <rect
             y="919.1463"
             x="199.06335"
             height="90.584419"
             width="128.57137"
             id="rect4325-7"
             style="fill:#00bbf2;fill-opacity:1;stroke:none" />
          <path
             sodipodi:nodetypes="czccc"
             inkscape:connector-curvature="0"
             id="path4167"
             d="m 247.35651,1010.0512 c 0,0 2.86215,-30.71269 26.16295,-50.91177 23.3008,-20.19908 54.44722,-13.43503 54.44722,-13.43503 l -0.29289,64.5968 z"
             style="fill:#f03916;fill-opacity:0.94117647;fill-rule:evenodd;stroke:none;stroke-width:1px;stroke-linecap:butt;stroke-linejoin:miter;stroke-opacity:1" />
          <path
             sodipodi:nodetypes="czcccczcc"
             inkscape:connector-curvature="0"
             id="path4169"
             d="m 229.09906,811.13007 c 0,0 -0.28499,9.08166 7.25,18.25 7.53499,9.16834 15.73483,10.7045 15.73483,10.7045 l -0.23483,20.2955 9,0 0.25,-20.25 c 0,0 7.08078,-0.72073 15.25,-9.25 8.16922,-8.52927 7.5,-20 7.5,-20 z"
             style="fill:#f03916;fill-opacity:0.94117647;fill-rule:evenodd;stroke:none;stroke-width:1px;stroke-linecap:butt;stroke-linejoin:miter;stroke-opacity:1" />
          <rect
             y="863.07642"
             x="251.59915"
             height="7.0710678"
             width="9.1923885"
             id="rect4171"
             style="fill:#d45500;fill-opacity:0.94117647;stroke:none;stroke-opacity:1" />
        </g>
        <g
           transform="matrix(1.3717347,0,0,1.3717347,22.087825,794.94852)"
           style="font-style:normal;font-weight:normal;font-size:40px;line-height:125%;font-family:sans-serif;letter-spacing:0px;word-spacing:0px;fill:#ffffff;fill-opacity:1;stroke:none;stroke-width:1px;stroke-linecap:butt;stroke-linejoin:miter;stroke-opacity:1"
           id="flowRoot4164">
          <path
             d="m 134.77734,121.84931 q 4.72657,0 6.75782,-1.75781 2.07031,-1.75782 2.07031,-5.78125 0,-3.98438 -2.07031,-5.70313 -2.03125,-1.71875 -6.75782,-1.71875 l -6.32812,0 0,14.96094 6.32812,0 z m -6.32812,10.39062 0,22.07032 -15.03906,0 0,-58.320317 22.96875,0 q 11.52343,0 16.875,3.867187 5.39062,3.86719 5.39062,12.22656 0,5.78125 -2.8125,9.49219 -2.77344,3.71094 -8.39844,5.46875 3.08594,0.70313 5.50782,3.20313 2.46093,2.46093 4.96093,7.5 l 8.16407,16.5625 -16.01563,0 -7.10937,-14.49219 q -2.14844,-4.375 -4.375,-5.97656 -2.1875,-1.60157 -5.85938,-1.60157 l -4.25781,0 z"
             style="font-style:normal;font-variant:normal;font-weight:bold;font-stretch:normal;font-size:80px;font-family:sans-serif;-inkscape-font-specification:'sans-serif Bold';fill:#ffffff"
             id="path4173"
             inkscape:connector-curvature="0" />
          <path
             d="m 174.97266,95.989933 19.14062,0 13.28125,31.210937 13.35938,-31.210937 19.10156,0 0,58.320317 -14.21875,0 0,-42.65625 -13.4375,31.44531 -9.53125,0 -13.4375,-31.44531 0,42.65625 -14.25781,0 0,-58.320317 z"
             style="font-style:normal;font-variant:normal;font-weight:bold;font-stretch:normal;font-size:80px;font-family:sans-serif;-inkscape-font-specification:'sans-serif Bold';fill:#ffffff"
             id="path4175"
             inkscape:connector-curvature="0" />
        </g>
      </g>
    </g>
  </g>
</svg>
