<?xml version="1.0" encoding="UTF-8" standalone="no"?>
<!-- Created with Inkscape (http://www.inkscape.org/) -->

<svg
   xmlns:dc="http://purl.org/dc/elements/1.1/"
   xmlns:cc="http://creativecommons.org/ns#"
   xmlns:rdf="http://www.w3.org/1999/02/22-rdf-syntax-ns#"
   xmlns:svg="http://www.w3.org/2000/svg"
   xmlns="http://www.w3.org/2000/svg"
   xmlns:sodipodi="http://sodipodi.sourceforge.net/DTD/sodipodi-0.dtd"
   xmlns:inkscape="http://www.inkscape.org/namespaces/inkscape"
   width="500"
   height="500"
   id="svg2"
   version="1.1"
   inkscape:version="0.91 r13725"
   sodipodi:docname="zzzz.svg">
  <defs
     id="defs4" />
  <sodipodi:namedview
     id="base"
     pagecolor="#ffffff"
     bordercolor="#666666"
     borderopacity="1.0"
     inkscape:pageopacity="0.0"
     inkscape:pageshadow="2"
     inkscape:zoom="0.4289781"
     inkscape:cx="-329.73325"
     inkscape:cy="84.250125"
     inkscape:document-units="px"
     inkscape:current-layer="layer1"
     showgrid="false"
     inkscape:window-width="1366"
     inkscape:window-height="715"
     inkscape:window-x="0"
     inkscape:window-y="24"
     inkscape:window-maximized="1" />
  <metadata
     id="metadata7">
    <rdf:RDF>
      <cc:Work
         rdf:about="">
        <dc:format>image/svg+xml</dc:format>
        <dc:type
           rdf:resource="http://purl.org/dc/dcmitype/StillImage" />
        <dc:title />
      </cc:Work>
    </rdf:RDF>
  </metadata>
  <g
     inkscape:label="Layer 1"
     inkscape:groupmode="layer"
     id="layer1"
     transform="translate(0,-552.36218)">
    <g
       id="g3355">
      <g
         id="g3354">
        <path
           style="fill:#f2f2f2;fill-rule:evenodd;stroke:#afafaf;stroke-width:5.03546047;stroke-linecap:butt;stroke-linejoin:miter;stroke-miterlimit:4;stroke-dasharray:none;stroke-opacity:1"
           d="m 97.040974,1029.8357 336.888376,-1.1739 1.17377,-363.88639 -88.03697,-89.21086 -250.025176,0 z"
           id="path3364"
           inkscape:connector-curvature="0" />
        <path
           style="fill:#394050;fill-opacity:1;stroke:none;stroke-width:5;stroke-miterlimit:4;stroke-dasharray:none;stroke-opacity:1"
           d="m 97.041016,907.86724 0,121.96756 336.888674,-1.0485 0.4375,-120.91906 -337.326174,0 z"
           id="rect4228"
           inkscape:connector-curvature="0" />
        <g
           transform="matrix(0.80678544,0,0,0.80678544,-32.099731,66.317814)"
           id="g4190"
           style="fill:#394050;fill-opacity:1">
          <path
             sodipodi:nodetypes="cccscscccccc"
             inkscape:connector-curvature="0"
             id="path4112"
             d="m 305.20897,716.29583 0,204.12903 c -8.66636,-8.07428 -19.96756,-13.29483 -31.84948,-13.29314 -24.99165,0 -47.69622,22.72874 -47.69622,47.70815 0,24.97834 22.70457,47.70853 47.69622,47.71043 24.99183,0 47.7586,-22.72835 47.7586,-47.71043 l 0,-168.81352 0,-68.92312 0,-0.80578 -0.0637,0 -15.84693,0 z"
             style="fill:#394050;fill-opacity:1;fill-rule:evenodd;stroke:none" />
          <path
             sodipodi:nodetypes="cccscscccccc"
             inkscape:connector-curvature="0"
             id="path4112-3"
             d="m 462.39582,698.02641 0,204.12903 c -8.66636,-8.07428 -19.96756,-13.29483 -31.84948,-13.29314 -24.99165,0 -47.69622,22.72874 -47.69622,47.70815 0,24.97834 22.70457,47.70853 47.69622,47.71043 24.99183,0 47.7586,-22.72835 47.7586,-47.71043 l 0,-168.81352 0,-68.92312 0,-0.80578 -0.0637,0 -15.84693,0 z"
             style="fill:#394050;fill-opacity:1;fill-rule:evenodd;stroke:none" />
          <rect
             inkscape:transform-center-y="-9.4361839"
             inkscape:transform-center-x="-79.159264"
             transform="matrix(0.99307685,-0.11746649,0.11746649,0.99307685,0,0)"
             y="747.4649"
             x="219.51505"
             height="18.468454"
             width="171.4557"
             id="rect4188"
             style="fill:#394050;fill-opacity:1;stroke:none;stroke-opacity:1" />
        </g>
      </g>
      <g
         id="flowRoot3340"
         style="font-style:normal;font-weight:normal;font-size:40px;line-height:125%;font-family:sans-serif;letter-spacing:0px;word-spacing:0px;fill:#ffffff;fill-opacity:1;stroke:none;stroke-width:1px;stroke-linecap:butt;stroke-linejoin:miter;stroke-opacity:1"
         transform="matrix(2.7434701,0,0,2.7434701,3355.3488,276.79084)">
        <path
           inkscape:connector-curvature="0"
           id="path3349"
           style="font-style:normal;font-variant:normal;font-weight:bold;font-stretch:normal;font-family:sans-serif;-inkscape-font-specification:'sans-serif Bold';fill:#ffffff"
           d="m -1175.7324,237.08286 7.207,0 5.0391,21.1914 5,-21.1914 7.2461,0 5,21.1914 5.039,-21.1914 7.1485,0 -6.875,29.16015 -8.6719,0 -5.293,-22.16797 -5.2344,22.16797 -8.6718,0 -6.9336,-29.16015 z" />
        <path
           inkscape:connector-curvature="0"
           id="path3351"
           style="font-style:normal;font-variant:normal;font-weight:bold;font-stretch:normal;font-family:sans-serif;-inkscape-font-specification:'sans-serif Bold';fill:#ffffff"
           d="m -1113.2129,260.93051 -11.7578,0 -1.8555,5.3125 -7.5586,0 10.8008,-29.16015 8.9649,0 10.8007,29.16015 -7.5586,0 -1.8359,-5.3125 z m -9.8828,-5.41015 7.9883,0 -3.9844,-11.60157 -4.0039,11.60157 z" />
        <path
           inkscape:connector-curvature="0"
           id="path3353"
           style="font-style:normal;font-variant:normal;font-weight:bold;font-stretch:normal;font-family:sans-serif;-inkscape-font-specification:'sans-serif Bold';fill:#ffffff"
           d="m -1106.1816,237.08286 7.5586,0 7.7343,21.52343 7.7149,-21.52343 7.5586,0 -10.8008,29.16015 -8.9649,0 -10.8007,-29.16015 z" />
      </g>
    </g>
  </g>
</svg>
