<?xml version="1.0" encoding="UTF-8" standalone="no"?>
<!-- Created with Inkscape (http://www.inkscape.org/) -->

<svg
   xmlns:dc="http://purl.org/dc/elements/1.1/"
   xmlns:cc="http://creativecommons.org/ns#"
   xmlns:rdf="http://www.w3.org/1999/02/22-rdf-syntax-ns#"
   xmlns:svg="http://www.w3.org/2000/svg"
   xmlns="http://www.w3.org/2000/svg"
   xmlns:sodipodi="http://sodipodi.sourceforge.net/DTD/sodipodi-0.dtd"
   xmlns:inkscape="http://www.inkscape.org/namespaces/inkscape"
   width="500"
   height="500"
   id="svg2"
   version="1.1"
   inkscape:version="0.91 r13725"
   sodipodi:docname="audio-mp3.svg">
  <defs
     id="defs4" />
  <sodipodi:namedview
     id="base"
     pagecolor="#ffffff"
     bordercolor="#666666"
     borderopacity="1.0"
     inkscape:pageopacity="0.0"
     inkscape:pageshadow="2"
     inkscape:zoom="0.4289781"
     inkscape:cx="23.950093"
     inkscape:cy="187.11809"
     inkscape:document-units="px"
     inkscape:current-layer="layer1"
     showgrid="false"
     inkscape:window-width="1366"
     inkscape:window-height="715"
     inkscape:window-x="0"
     inkscape:window-y="24"
     inkscape:window-maximized="1" />
  <metadata
     id="metadata7">
    <rdf:RDF>
      <cc:Work
         rdf:about="">
        <dc:format>image/svg+xml</dc:format>
        <dc:type
           rdf:resource="http://purl.org/dc/dcmitype/StillImage" />
        <dc:title />
      </cc:Work>
    </rdf:RDF>
  </metadata>
  <g
     inkscape:label="Layer 1"
     inkscape:groupmode="layer"
     id="layer1"
     transform="translate(0,-552.36218)">
    <g
       id="g3371">
      <path
         inkscape:connector-curvature="0"
         id="path3364"
         d="m 97.040974,1029.8357 336.888376,-1.1739 1.17377,-363.88639 -88.03697,-89.21086 -250.025176,0 z"
         style="fill:#f2f2f2;fill-rule:evenodd;stroke:#afafaf;stroke-width:5.03546047;stroke-linecap:butt;stroke-linejoin:miter;stroke-miterlimit:4;stroke-dasharray:none;stroke-opacity:1" />
      <path
         inkscape:connector-curvature="0"
         id="rect4228"
         d="m 97.041016,907.86724 0,121.96756 336.888674,-1.0485 0.4375,-120.91906 -337.326174,0 z"
         style="fill:#394050;fill-opacity:1;stroke:none;stroke-width:5;stroke-miterlimit:4;stroke-dasharray:none;stroke-opacity:1" />
      <g
         style="fill:#394050;fill-opacity:1"
         id="g4190"
         transform="matrix(0.80678544,0,0,0.80678544,-32.099731,66.317814)">
        <path
           style="fill:#394050;fill-opacity:1;fill-rule:evenodd;stroke:none"
           d="m 305.20897,716.29583 0,204.12903 c -8.66636,-8.07428 -19.96756,-13.29483 -31.84948,-13.29314 -24.99165,0 -47.69622,22.72874 -47.69622,47.70815 0,24.97834 22.70457,47.70853 47.69622,47.71043 24.99183,0 47.7586,-22.72835 47.7586,-47.71043 l 0,-168.81352 0,-68.92312 0,-0.80578 -0.0637,0 -15.84693,0 z"
           id="path4112"
           inkscape:connector-curvature="0"
           sodipodi:nodetypes="cccscscccccc" />
        <path
           style="fill:#394050;fill-opacity:1;fill-rule:evenodd;stroke:none"
           d="m 462.39582,698.02641 0,204.12903 c -8.66636,-8.07428 -19.96756,-13.29483 -31.84948,-13.29314 -24.99165,0 -47.69622,22.72874 -47.69622,47.70815 0,24.97834 22.70457,47.70853 47.69622,47.71043 24.99183,0 47.7586,-22.72835 47.7586,-47.71043 l 0,-168.81352 0,-68.92312 0,-0.80578 -0.0637,0 -15.84693,0 z"
           id="path4112-3"
           inkscape:connector-curvature="0"
           sodipodi:nodetypes="cccscscccccc" />
        <rect
           style="fill:#394050;fill-opacity:1;stroke:none;stroke-opacity:1"
           id="rect4188"
           width="171.4557"
           height="18.468454"
           x="219.51505"
           y="747.4649"
           transform="matrix(0.99307685,-0.11746649,0.11746649,0.99307685,0,0)"
           inkscape:transform-center-x="-79.159264"
           inkscape:transform-center-y="-9.4361839" />
      </g>
      <g
         id="flowRoot3355"
         style="font-style:normal;font-weight:normal;font-size:40px;line-height:125%;font-family:sans-serif;letter-spacing:0px;word-spacing:0px;fill:#ffffff;fill-opacity:1;stroke:none;stroke-width:1px;stroke-linecap:butt;stroke-linejoin:miter;stroke-opacity:1"
         transform="matrix(2.6442863,0,0,2.6442863,2031.2178,42.452029)">
        <path
           inkscape:connector-curvature="0"
           id="path3365"
           style="font-style:normal;font-variant:normal;font-weight:bold;font-stretch:normal;font-family:sans-serif;-inkscape-font-specification:'sans-serif Bold';fill:#ffffff"
           d="m -711.98242,335.87583 9.57031,0 6.64063,15.60546 6.67968,-15.60546 9.55078,0 0,29.16015 -7.10937,0 0,-21.32812 -6.71875,15.72265 -4.76563,0 -6.71875,-15.72265 0,21.32812 -7.1289,0 0,-29.16015 z" />
        <path
           inkscape:connector-curvature="0"
           id="path3367"
           style="font-style:normal;font-variant:normal;font-weight:bold;font-stretch:normal;font-family:sans-serif;-inkscape-font-specification:'sans-serif Bold';fill:#ffffff"
           d="m -672.13867,335.87583 12.48047,0 q 5.5664,0 8.53515,2.48046 2.98828,2.46094 2.98828,7.03125 0,4.58985 -2.98828,7.07032 -2.96875,2.46093 -8.53515,2.46093 l -4.96094,0 0,10.11719 -7.51953,0 0,-29.16015 z m 7.51953,5.44921 0,8.14454 4.16016,0 q 2.1875,0 3.3789,-1.05469 1.19141,-1.07422 1.19141,-3.02735 0,-1.95312 -1.19141,-3.00781 -1.1914,-1.05469 -3.3789,-1.05469 l -4.16016,0 z" />
        <path
           inkscape:connector-curvature="0"
           id="path3369"
           style="font-style:normal;font-variant:normal;font-weight:bold;font-stretch:normal;font-family:sans-serif;-inkscape-font-specification:'sans-serif Bold';fill:#ffffff"
           d="m -627.88086,349.31333 q 2.94922,0.76171 4.47266,2.65625 1.54297,1.875 1.54297,4.78515 0,4.33594 -3.32032,6.60156 -3.32031,2.2461 -9.6875,2.2461 -2.24609,0 -4.51172,-0.3711 -2.24609,-0.35156 -4.45312,-1.07421 l 0,-5.80079 q 2.10937,1.05469 4.17969,1.60157 2.08984,0.52734 4.10156,0.52734 2.98828,0 4.57031,-1.03516 1.60156,-1.03515 1.60156,-2.96875 0,-1.99218 -1.64062,-3.00781 -1.62109,-1.03515 -4.80469,-1.03515 l -3.00781,0 0,-4.84375 3.16406,0 q 2.83203,0 4.21875,-0.87891 1.38672,-0.89844 1.38672,-2.71484 0,-1.67969 -1.34766,-2.59766 -1.34765,-0.91797 -3.80859,-0.91797 -1.81641,0 -3.67187,0.41016 -1.85547,0.41015 -3.69141,1.21093 l 0,-5.50781 q 2.22656,-0.625 4.41406,-0.9375 2.1875,-0.3125 4.29688,-0.3125 5.68359,0 8.49609,1.875 2.83203,1.85547 2.83203,5.60547 0,2.55859 -1.34765,4.19922 -1.34766,1.62109 -3.98438,2.28516 z" />
      </g>
    </g>
  </g>
</svg>
