<?xml version="1.0" encoding="UTF-8" standalone="no"?>
<!-- Created with Inkscape (http://www.inkscape.org/) -->

<svg
   xmlns:dc="http://purl.org/dc/elements/1.1/"
   xmlns:cc="http://creativecommons.org/ns#"
   xmlns:rdf="http://www.w3.org/1999/02/22-rdf-syntax-ns#"
   xmlns:svg="http://www.w3.org/2000/svg"
   xmlns="http://www.w3.org/2000/svg"
   xmlns:sodipodi="http://sodipodi.sourceforge.net/DTD/sodipodi-0.dtd"
   xmlns:inkscape="http://www.inkscape.org/namespaces/inkscape"
   width="500"
   height="500"
   id="svg2"
   version="1.1"
   inkscape:version="0.91 r13725"
   sodipodi:docname="image-tiff.svg">
  <defs
     id="defs4" />
  <sodipodi:namedview
     id="base"
     pagecolor="#ffffff"
     bordercolor="#666666"
     borderopacity="1.0"
     inkscape:pageopacity="0.0"
     inkscape:pageshadow="2"
     inkscape:zoom="0.60666664"
     inkscape:cx="277.18186"
     inkscape:cy="218.68162"
     inkscape:document-units="px"
     inkscape:current-layer="layer1"
     showgrid="false"
     inkscape:window-width="1366"
     inkscape:window-height="715"
     inkscape:window-x="0"
     inkscape:window-y="24"
     inkscape:window-maximized="1" />
  <metadata
     id="metadata7">
    <rdf:RDF>
      <cc:Work
         rdf:about="">
        <dc:format>image/svg+xml</dc:format>
        <dc:type
           rdf:resource="http://purl.org/dc/dcmitype/StillImage" />
        <dc:title />
      </cc:Work>
    </rdf:RDF>
  </metadata>
  <g
     inkscape:label="Layer 1"
     inkscape:groupmode="layer"
     id="layer1"
     transform="translate(0,-552.36218)">
    <g
       id="g3371">
      <path
         inkscape:connector-curvature="0"
         id="path3364"
         d="m 97.040974,1029.8357 336.888376,-1.1739 1.17377,-363.88639 -88.03697,-89.21086 -250.025176,0 z"
         style="fill:#f2f2f2;fill-rule:evenodd;stroke:#afafaf;stroke-width:5.03546047;stroke-linecap:butt;stroke-linejoin:miter;stroke-miterlimit:4;stroke-dasharray:none;stroke-opacity:1" />
      <path
         inkscape:connector-curvature="0"
         id="rect4228"
         d="m 97.041016,907.86724 0,121.96756 336.888674,-1.0485 0.4375,-120.91906 -337.326174,0 z"
         style="fill:#c87137;fill-opacity:1;stroke:none;stroke-width:5;stroke-miterlimit:4;stroke-dasharray:none;stroke-opacity:1" />
      <g
         id="g4219"
         transform="translate(-1.1459488,-135.56542)">
        <rect
           style="fill:#00bbf2;fill-opacity:1;stroke:#ffffff;stroke-width:7.27156973;stroke-linecap:round;stroke-linejoin:round;stroke-miterlimit:4;stroke-dasharray:none;stroke-opacity:1"
           id="rect2997-3"
           width="225.0724"
           height="186.98323"
           x="134.99518"
           y="793.63092"
           transform="matrix(0.99991031,-0.01339323,0.01339323,0.99991031,0,0)" />
        <rect
           style="fill:#ffcc00;fill-opacity:1;stroke:#ffffff;stroke-width:7.27156973;stroke-linecap:round;stroke-linejoin:round;stroke-miterlimit:4;stroke-dasharray:none;stroke-opacity:1"
           id="rect2997"
           width="225.0724"
           height="186.98325"
           x="-271.50455"
           y="814.41022"
           transform="matrix(0.89137186,-0.45327278,0.45327278,0.89137186,0,0)" />
        <path
           sodipodi:type="arc"
           style="fill:#ffffff;fill-opacity:1;stroke:none"
           id="path3767"
           sodipodi:cx="-223.46025"
           sodipodi:cy="868.9469"
           sodipodi:rx="22.940073"
           sodipodi:ry="22.50724"
           d="m -200.52018,868.9469 a 22.940073,22.50724 0 0 1 -22.91315,22.50722 22.940073,22.50724 0 0 1 -22.96693,-22.45439 22.940073,22.50724 0 0 1 22.85923,-22.55993 22.940073,22.50724 0 0 1 23.0206,22.40143"
           transform="matrix(0.89137185,-0.45327279,0.45327278,0.89137186,0,0)"
           sodipodi:start="0"
           sodipodi:end="6.2784904"
           sodipodi:open="true" />
        <path
           style="fill:#c87137;fill-opacity:1;stroke:none;stroke-width:0.46588865px;stroke-linecap:butt;stroke-linejoin:miter;stroke-opacity:1"
           d="m 182.17764,949.248 31.07967,61.7941 194.64875,-99.32444 -26.48773,-50.7383 c 0,0 -22.49038,23.83228 -47.82038,32.9011 -25.32998,9.06883 -77.11604,-2.96297 -103.00847,8.77474 -25.89241,11.73773 -48.41184,46.5928 -48.41184,46.5928 z"
           id="path3787"
           inkscape:connector-curvature="0"
           sodipodi:nodetypes="cccczzc" />
      </g>
      <g
         id="flowRoot3356"
         style="font-style:normal;font-weight:normal;font-size:40px;line-height:125%;font-family:sans-serif;letter-spacing:0px;word-spacing:0px;fill:#ffffff;fill-opacity:1;stroke:none;stroke-width:1px;stroke-linecap:butt;stroke-linejoin:miter;stroke-opacity:1"
         transform="matrix(2.7434692,0,0,2.7434692,609.31984,-214.83152)">
        <path
           inkscape:connector-curvature="0"
           id="path3365"
           style="font-style:normal;font-variant:normal;font-weight:bold;font-stretch:normal;font-family:sans-serif;-inkscape-font-specification:'sans-serif Bold';fill:#ffffff"
           d="m -161.34375,416.75278 26.875,0 0,5.68359 -9.66797,0 0,23.47657 -7.51953,0 0,-23.47657 -9.6875,0 0,-5.68359 z" />
        <path
           inkscape:connector-curvature="0"
           id="path3367"
           style="font-style:normal;font-variant:normal;font-weight:bold;font-stretch:normal;font-family:sans-serif;-inkscape-font-specification:'sans-serif Bold';fill:#ffffff"
           d="m -130.60156,416.75278 7.51953,0 0,29.16016 -7.51953,0 0,-29.16016 z" />
        <path
           inkscape:connector-curvature="0"
           id="path3369"
           style="font-style:normal;font-variant:normal;font-weight:bold;font-stretch:normal;font-family:sans-serif;-inkscape-font-specification:'sans-serif Bold';fill:#ffffff"
           d="m -115.67969,416.75278 20.292971,0 0,5.68359 -12.773441,0 0,5.42969 12.011723,0 0,5.68359 -12.011723,0 0,12.36329 -7.51953,0 0,-29.16016 z" />
      </g>
    </g>
  </g>
</svg>
