<?xml version="1.0" encoding="UTF-8" standalone="no"?>
<!-- Created with Inkscape (http://www.inkscape.org/) -->

<svg
   xmlns:dc="http://purl.org/dc/elements/1.1/"
   xmlns:cc="http://creativecommons.org/ns#"
   xmlns:rdf="http://www.w3.org/1999/02/22-rdf-syntax-ns#"
   xmlns:svg="http://www.w3.org/2000/svg"
   xmlns="http://www.w3.org/2000/svg"
   xmlns:sodipodi="http://sodipodi.sourceforge.net/DTD/sodipodi-0.dtd"
   xmlns:inkscape="http://www.inkscape.org/namespaces/inkscape"
   width="500"
   height="500"
   id="svg2"
   version="1.1"
   inkscape:version="0.91 r13725"
   sodipodi:docname="image-png.svg">
  <defs
     id="defs4" />
  <sodipodi:namedview
     id="base"
     pagecolor="#ffffff"
     bordercolor="#666666"
     borderopacity="1.0"
     inkscape:pageopacity="0.0"
     inkscape:pageshadow="2"
     inkscape:zoom="0.60666664"
     inkscape:cx="277.18186"
     inkscape:cy="158.04722"
     inkscape:document-units="px"
     inkscape:current-layer="layer1"
     showgrid="false"
     inkscape:window-width="1366"
     inkscape:window-height="715"
     inkscape:window-x="0"
     inkscape:window-y="24"
     inkscape:window-maximized="1" />
  <metadata
     id="metadata7">
    <rdf:RDF>
      <cc:Work
         rdf:about="">
        <dc:format>image/svg+xml</dc:format>
        <dc:type
           rdf:resource="http://purl.org/dc/dcmitype/StillImage" />
        <dc:title />
      </cc:Work>
    </rdf:RDF>
  </metadata>
  <g
     inkscape:label="Layer 1"
     inkscape:groupmode="layer"
     id="layer1"
     transform="translate(0,-552.36218)">
    <g
       id="g3373">
      <path
         inkscape:connector-curvature="0"
         id="path3364"
         d="m 97.040974,1029.8357 336.888376,-1.1739 1.17377,-363.88639 -88.03697,-89.21086 -250.025176,0 z"
         style="fill:#f2f2f2;fill-rule:evenodd;stroke:#afafaf;stroke-width:5.03546047;stroke-linecap:butt;stroke-linejoin:miter;stroke-miterlimit:4;stroke-dasharray:none;stroke-opacity:1" />
      <path
         inkscape:connector-curvature="0"
         id="rect4228"
         d="m 97.041016,907.86724 0,121.96756 336.888674,-1.0485 0.4375,-120.91906 -337.326174,0 z"
         style="fill:#c87137;fill-opacity:1;stroke:none;stroke-width:5;stroke-miterlimit:4;stroke-dasharray:none;stroke-opacity:1" />
      <g
         id="g4219"
         transform="translate(-1.1459488,-135.56542)">
        <rect
           style="fill:#00bbf2;fill-opacity:1;stroke:#ffffff;stroke-width:7.27156973;stroke-linecap:round;stroke-linejoin:round;stroke-miterlimit:4;stroke-dasharray:none;stroke-opacity:1"
           id="rect2997-3"
           width="225.0724"
           height="186.98323"
           x="134.99518"
           y="793.63092"
           transform="matrix(0.99991031,-0.01339323,0.01339323,0.99991031,0,0)" />
        <rect
           style="fill:#ffcc00;fill-opacity:1;stroke:#ffffff;stroke-width:7.27156973;stroke-linecap:round;stroke-linejoin:round;stroke-miterlimit:4;stroke-dasharray:none;stroke-opacity:1"
           id="rect2997"
           width="225.0724"
           height="186.98325"
           x="-271.50455"
           y="814.41022"
           transform="matrix(0.89137186,-0.45327278,0.45327278,0.89137186,0,0)" />
        <path
           sodipodi:type="arc"
           style="fill:#ffffff;fill-opacity:1;stroke:none"
           id="path3767"
           sodipodi:cx="-223.46025"
           sodipodi:cy="868.9469"
           sodipodi:rx="22.940073"
           sodipodi:ry="22.50724"
           d="m -200.52018,868.9469 a 22.940073,22.50724 0 0 1 -22.91315,22.50722 22.940073,22.50724 0 0 1 -22.96693,-22.45439 22.940073,22.50724 0 0 1 22.85923,-22.55993 22.940073,22.50724 0 0 1 23.0206,22.40143"
           transform="matrix(0.89137185,-0.45327279,0.45327278,0.89137186,0,0)"
           sodipodi:start="0"
           sodipodi:end="6.2784904"
           sodipodi:open="true" />
        <path
           style="fill:#c87137;fill-opacity:1;stroke:none;stroke-width:0.46588865px;stroke-linecap:butt;stroke-linejoin:miter;stroke-opacity:1"
           d="m 182.17764,949.248 31.07967,61.7941 194.64875,-99.32444 -26.48773,-50.7383 c 0,0 -22.49038,23.83228 -47.82038,32.9011 -25.32998,9.06883 -77.11604,-2.96297 -103.00847,8.77474 -25.89241,11.73773 -48.41184,46.5928 -48.41184,46.5928 z"
           id="path3787"
           inkscape:connector-curvature="0"
           sodipodi:nodetypes="cccczzc" />
      </g>
      <g
         id="flowRoot3358"
         style="font-style:normal;font-weight:normal;font-size:40px;line-height:125%;font-family:sans-serif;letter-spacing:0px;word-spacing:0px;fill:#ffffff;fill-opacity:1;stroke:none;stroke-width:1px;stroke-linecap:butt;stroke-linejoin:miter;stroke-opacity:1"
         transform="matrix(1.3221434,0,0,1.3221434,-53.625178,405.59451)">
        <path
           inkscape:connector-curvature="0"
           id="path3367"
           style="font-style:normal;font-variant:normal;font-weight:bold;font-stretch:normal;font-size:80px;font-family:sans-serif;-inkscape-font-specification:'sans-serif Bold';fill:#ffffff"
           d="m 154.04687,396.14423 24.96094,0 q 11.13281,0 17.07031,4.96094 5.97657,4.92187 5.97657,14.0625 0,9.17968 -5.97657,14.14062 -5.9375,4.92188 -17.07031,4.92188 l -9.92187,0 0,20.23437 -15.03907,0 0,-58.32031 z m 15.03907,10.89844 0,16.28906 8.32031,0 q 4.375,0 6.75781,-2.10938 2.38281,-2.14843 2.38281,-6.05468 0,-3.90625 -2.38281,-6.01563 -2.38281,-2.10937 -6.75781,-2.10937 l -8.32031,0 z" />
        <path
           inkscape:connector-curvature="0"
           id="path3369"
           style="font-style:normal;font-variant:normal;font-weight:bold;font-stretch:normal;font-size:80px;font-family:sans-serif;-inkscape-font-specification:'sans-serif Bold';fill:#ffffff"
           d="m 212.64062,396.14423 16.79688,0 21.21094,40 0,-40 14.25781,0 0,58.32031 -16.79688,0 -21.21093,-40 0,40 -14.25782,0 0,-58.32031 z" />
        <path
           inkscape:connector-curvature="0"
           id="path3371"
           style="font-style:normal;font-variant:normal;font-weight:bold;font-stretch:normal;font-size:80px;font-family:sans-serif;-inkscape-font-specification:'sans-serif Bold';fill:#ffffff"
           d="m 332.09375,450.1286 q -5.625,2.73438 -11.67969,4.10157 -6.05469,1.36718 -12.5,1.36718 -14.57031,0 -23.08594,-8.125 -8.51562,-8.16406 -8.51562,-22.10937 0,-14.10156 8.67187,-22.1875 8.67188,-8.08594 23.75,-8.08594 5.82032,0 11.13282,1.09375 5.35156,1.09375 10.07812,3.24219 l 0,12.07031 q -4.88281,-2.77344 -9.72656,-4.14062 -4.80469,-1.36719 -9.64844,-1.36719 -8.98437,0 -13.86719,5.03906 -4.84375,5 -4.84375,14.33594 0,9.25781 4.6875,14.29687 4.6875,5.03907 13.32032,5.03907 2.34375,0 4.33593,-0.27344 2.03125,-0.3125 3.63282,-0.9375 l 0,-11.32813 -9.17969,0 0,-10.07812 23.4375,0 0,28.04687 z" />
      </g>
    </g>
  </g>
</svg>
