<?xml version="1.0" encoding="UTF-8" standalone="no"?>
<!-- Created with Inkscape (http://www.inkscape.org/) -->

<svg
   xmlns:dc="http://purl.org/dc/elements/1.1/"
   xmlns:cc="http://creativecommons.org/ns#"
   xmlns:rdf="http://www.w3.org/1999/02/22-rdf-syntax-ns#"
   xmlns:svg="http://www.w3.org/2000/svg"
   xmlns="http://www.w3.org/2000/svg"
   xmlns:sodipodi="http://sodipodi.sourceforge.net/DTD/sodipodi-0.dtd"
   xmlns:inkscape="http://www.inkscape.org/namespaces/inkscape"
   width="500"
   height="500"
   id="svg2"
   version="1.1"
   inkscape:version="0.91 r13725"
   sodipodi:docname="image-x-compressed-xcf.svg">
  <defs
     id="defs4" />
  <sodipodi:namedview
     id="base"
     pagecolor="#ffffff"
     bordercolor="#666666"
     borderopacity="1.0"
     inkscape:pageopacity="0.0"
     inkscape:pageshadow="2"
     inkscape:zoom="0.4289781"
     inkscape:cx="-287.2987"
     inkscape:cy="436.47674"
     inkscape:document-units="px"
     inkscape:current-layer="layer1"
     showgrid="false"
     inkscape:window-width="1366"
     inkscape:window-height="715"
     inkscape:window-x="0"
     inkscape:window-y="24"
     inkscape:window-maximized="1" />
  <metadata
     id="metadata7">
    <rdf:RDF>
      <cc:Work
         rdf:about="">
        <dc:format>image/svg+xml</dc:format>
        <dc:type
           rdf:resource="http://purl.org/dc/dcmitype/StillImage" />
        <dc:title />
      </cc:Work>
    </rdf:RDF>
  </metadata>
  <g
     inkscape:label="Layer 1"
     inkscape:groupmode="layer"
     id="layer1"
     transform="translate(0,-552.36218)">
    <g
       id="g4190">
      <path
         inkscape:connector-curvature="0"
         id="path3364"
         d="m 97.040974,1029.8357 336.888376,-1.1739 1.17377,-363.88639 -88.03697,-89.21086 -250.025176,0 z"
         style="fill:#f2f2f2;fill-rule:evenodd;stroke:#afafaf;stroke-width:5.03546047;stroke-linecap:butt;stroke-linejoin:miter;stroke-miterlimit:4;stroke-dasharray:none;stroke-opacity:1" />
      <path
         inkscape:connector-curvature="0"
         id="rect4228"
         d="m 97.041016,907.86724 0,121.96756 336.888674,-1.0485 0.4375,-120.91906 -337.326174,0 z"
         style="fill:#c87137;fill-opacity:1;stroke:none;stroke-width:5;stroke-miterlimit:4;stroke-dasharray:none;stroke-opacity:1" />
      <g
         transform="translate(5.9519117,-127.04615)"
         id="g4288">
        <path
           style="fill:#4f576d;fill-opacity:1;stroke:none"
           d="m 323.27751,819.08707 9.99233,3.44181 0,4.44104 -8.549,2.44256 0,13.76723 18.54134,-5.10719 -10.54747,5.44027 0.22205,10.32542 -7.99387,2.55359 0,13.10106 17.20903,-4.21897 -8.88208,5.21822 0,9.8813 -8.77105,2.99771 0.55514,12.43491 18.65236,-5.10719 -10.43645,5.99539 -0.22205,9.65927 -8.21591,2.44257 0.22205,12.32389 18.09723,-4.6631 -11.43568,7.21669 -0.33308,3.99694 28.86676,0 -0.33308,-13.54517 8.32695,-1.77642 -0.22205,-13.43414 -19.54058,4.33001 11.32466,-4.77411 0.11105,-9.54824 8.66003,-2.5536 0,-13.6562 -15.09954,4.33001 6.10642,-3.99692 0.11105,-9.99235 8.1049,-2.33155 0,-13.76722 -17.76417,4.33002 8.99312,-4.66309 0.4441,-11.21363 8.21592,-1.22128 0.4441,-13.54518 -16.32082,3.66386 8.43798,-6.55053 0,-4.219 -36.19447,0.99925 z"
           id="path3941-3"
           inkscape:connector-curvature="0" />
        <path
           style="fill:#4f576d;fill-opacity:1;stroke:none"
           d="m 325.44403,957.29801 0.15702,28.2626 -8.16475,0 0,10.20594 -14.60236,0.31403 -0.157,-8.94983 -19.31278,0.15702 -0.31404,31.55993 19.78382,0 0,-8.1648 14.75937,-0.157 0,10.206 58.25237,-0.1571 0.15701,-9.8919 15.38742,0 0,8.6358 18.84174,0 -0.15702,-32.65898 -18.68472,0.157 0,9.57789 -15.54443,0 -0.62807,-11.14803 -6.75162,0.15702 0,-28.41962 z"
           id="path3943-6"
           inkscape:connector-curvature="0" />
        <path
           style="fill:#394050;stroke:none"
           d="m 194.81447,947.44234 -0.4441,7.77182 17.54211,16.43186 91.92951,0.88821 11.99082,-13.32313 62.84071,-0.66615 0,-36.86063 -61.5084,0 -24.42572,25.98008 z"
           id="path3921-7"
           inkscape:connector-curvature="0" />
        <path
           style="fill:#394050;stroke:none"
           d="m 194.87179,796.71414 -0.4441,-7.77181 17.5421,-16.43186 91.92952,-0.88821 11.99081,13.32312 62.84072,0.66615 0,36.86064 -61.5084,0 -24.42572,-25.98009 z"
           id="path3921-3-5"
           inkscape:connector-curvature="0" />
        <g
           transform="matrix(0.71029399,0.36115434,-0.36115434,0.71029399,330.90547,149.32927)"
           id="g4156">
          <rect
             transform="matrix(0.89137186,-0.45327278,0.45327278,0.89137186,0,0)"
             y="814.41022"
             x="-271.50455"
             height="186.98325"
             width="225.0724"
             id="rect2997"
             style="fill:#ffcc00;fill-opacity:1;stroke:#ffffff;stroke-width:7.27156973;stroke-linecap:round;stroke-linejoin:round;stroke-miterlimit:4;stroke-dasharray:none;stroke-opacity:1" />
          <path
             sodipodi:open="true"
             sodipodi:end="6.2784904"
             sodipodi:start="0"
             transform="matrix(0.89137185,-0.45327279,0.45327278,0.89137186,0,0)"
             d="m -200.52018,868.9469 a 22.940073,22.50724 0 0 1 -22.91315,22.50722 22.940073,22.50724 0 0 1 -22.96693,-22.45439 22.940073,22.50724 0 0 1 22.85923,-22.55993 22.940073,22.50724 0 0 1 23.0206,22.40143"
             sodipodi:ry="22.50724"
             sodipodi:rx="22.940073"
             sodipodi:cy="868.9469"
             sodipodi:cx="-223.46025"
             id="path3767"
             style="fill:#ffffff;fill-opacity:1;stroke:none"
             sodipodi:type="arc" />
          <path
             sodipodi:nodetypes="cccczzc"
             inkscape:connector-curvature="0"
             id="path3787"
             d="m 182.17764,949.248 31.07967,61.7941 194.64875,-99.32444 -26.48773,-50.7383 c 0,0 -22.49038,23.83228 -47.82038,32.9011 -25.32998,9.06883 -77.11604,-2.96297 -103.00847,8.77474 -25.89241,11.73773 -48.41184,46.5928 -48.41184,46.5928 z"
             style="fill:#c87137;fill-opacity:1;stroke:none;stroke-width:0.46588865px;stroke-linecap:butt;stroke-linejoin:miter;stroke-opacity:1" />
        </g>
      </g>
      <g
         id="flowRoot4220"
         style="font-style:normal;font-weight:normal;font-size:40px;line-height:125%;font-family:sans-serif;letter-spacing:0px;word-spacing:0px;fill:#ffffff;fill-opacity:1;stroke:none;stroke-width:1px;stroke-linecap:butt;stroke-linejoin:miter;stroke-opacity:1"
         transform="matrix(1.6772892,0,0,1.6772892,-0.67150272,815.37455)">
        <path
           inkscape:connector-curvature="0"
           id="path4229"
           style="font-style:normal;font-variant:normal;font-weight:bold;font-stretch:normal;font-family:sans-serif;-inkscape-font-specification:'sans-serif Bold';fill:#ffffff"
           d="m 84.027344,90.233248 10.117187,14.882812 -7.832031,0 -6.816406,-9.960937 -6.757813,9.960937 -7.871094,0 10.117188,-14.882812 -9.726563,-14.277344 7.851563,0 6.386719,9.394531 6.367187,-9.394531 7.890625,0 -9.726562,14.277344 z" />
        <path
           inkscape:connector-curvature="0"
           id="path4231"
           style="font-style:normal;font-variant:normal;font-weight:bold;font-stretch:normal;font-family:sans-serif;-inkscape-font-specification:'sans-serif Bold';fill:#ffffff"
           d="m 98.636719,75.955904 20.292971,0 0,5.683594 -12.77344,0 0,5.429687 12.01172,0 0,5.683594 -12.01172,0 0,12.363281 -7.519531,0 0,-29.160156 z" />
        <path
           inkscape:connector-curvature="0"
           id="path4233"
           style="font-style:normal;font-variant:normal;font-weight:bold;font-stretch:normal;font-family:sans-serif;-inkscape-font-specification:'sans-serif Bold';fill:#ffffff"
           d="m 149.10547,103.5145 q -2.07031,1.07422 -4.31641,1.62109 -2.24609,0.54688 -4.6875,0.54688 -7.28515,0 -11.54297,-4.0625 -4.25781,-4.082035 -4.25781,-11.054691 0,-6.992188 4.25781,-11.054688 4.25782,-4.082031 11.54297,-4.082031 2.44141,0 4.6875,0.546875 2.2461,0.546875 4.31641,1.621094 l 0,6.035156 q -2.08985,-1.425781 -4.1211,-2.089844 -2.03125,-0.664062 -4.27734,-0.664062 -4.02344,0 -6.32812,2.578125 -2.30469,2.578125 -2.30469,7.109375 0,4.511719 2.30469,7.089844 2.30468,2.578127 6.32812,2.578127 2.24609,0 4.27734,-0.664065 2.03125,-0.664062 4.1211,-2.089844 l 0,6.035159 z" />
        <path
           inkscape:connector-curvature="0"
           id="path4235"
           style="font-style:normal;font-variant:normal;font-weight:bold;font-stretch:normal;font-family:sans-serif;-inkscape-font-specification:'sans-serif Bold';fill:#ffffff"
           d="m 155.76562,97.557466 7.03125,0 0,7.558594 -7.03125,0 0,-7.558594 z" />
        <path
           inkscape:connector-curvature="0"
           id="path4237"
           style="font-style:normal;font-variant:normal;font-weight:bold;font-stretch:normal;font-family:sans-serif;-inkscape-font-specification:'sans-serif Bold';fill:#ffffff"
           d="m 182.26953,87.244966 q 1.77734,0 2.69531,-0.78125 0.91797,-0.78125 0.91797,-2.304687 0,-1.503906 -0.91797,-2.285156 -0.91797,-0.800782 -2.69531,-0.800782 l -4.16016,0 0,6.171875 4.16016,0 z m 0.25391,12.753907 q 2.26562,0 3.39843,-0.957032 1.15235,-0.957031 1.15235,-2.890625 0,-1.894531 -1.13281,-2.832031 -1.13282,-0.957031 -3.41797,-0.957031 l -4.41407,0 0,7.636719 4.41407,0 z m 6.99218,-10.488282 q 2.42188,0.703125 3.75,2.597657 1.32813,1.894531 1.32813,4.648437 0,4.218755 -2.85156,6.289065 -2.85157,2.07031 -8.67188,2.07031 l -12.48047,0 0,-29.160156 11.28907,0 q 6.07421,0 8.78906,1.835937 2.73437,1.835938 2.73437,5.878907 0,2.128906 -0.99609,3.632812 -0.99609,1.484375 -2.89063,2.207031 z" />
        <path
           inkscape:connector-curvature="0"
           id="path4239"
           style="font-style:normal;font-variant:normal;font-weight:bold;font-stretch:normal;font-family:sans-serif;-inkscape-font-specification:'sans-serif Bold';fill:#ffffff"
           d="m 199.63281,75.955904 24.51172,0 0,4.550781 -15.64453,18.925781 16.09375,0 0,5.683594 -25.41016,0 0,-4.55078 15.64453,-18.925782 -15.19531,0 0,-5.683594 z" />
        <path
           inkscape:connector-curvature="0"
           id="path4241"
           style="font-style:normal;font-variant:normal;font-weight:bold;font-stretch:normal;font-family:sans-serif;-inkscape-font-specification:'sans-serif Bold';fill:#ffffff"
           d="m 237.89453,99.588716 12.83203,0 0,5.527344 -21.1914,0 0,-5.527344 10.64453,-9.394531 q 1.42578,-1.289062 2.10937,-2.519531 0.6836,-1.230469 0.6836,-2.558594 0,-2.050781 -1.38672,-3.300781 -1.36719,-1.25 -3.65235,-1.25 -1.75781,0 -3.84765,0.761719 -2.08985,0.742187 -4.47266,2.226562 l 0,-6.40625 q 2.53906,-0.839844 5.01953,-1.269531 2.48047,-0.449219 4.86328,-0.449219 5.23438,0 8.125,2.304688 2.91016,2.304687 2.91016,6.425781 0,2.382812 -1.23047,4.453125 -1.23047,2.050781 -5.17578,5.507812 l -6.23047,5.46875 z" />
      </g>
    </g>
  </g>
</svg>
