<?xml version="1.0" encoding="UTF-8" standalone="no"?>
<!-- Created with Inkscape (http://www.inkscape.org/) -->

<svg
   xmlns:dc="http://purl.org/dc/elements/1.1/"
   xmlns:cc="http://creativecommons.org/ns#"
   xmlns:rdf="http://www.w3.org/1999/02/22-rdf-syntax-ns#"
   xmlns:svg="http://www.w3.org/2000/svg"
   xmlns="http://www.w3.org/2000/svg"
   xmlns:sodipodi="http://sodipodi.sourceforge.net/DTD/sodipodi-0.dtd"
   xmlns:inkscape="http://www.inkscape.org/namespaces/inkscape"
   width="500"
   height="500"
   id="svg2"
   version="1.1"
   inkscape:version="0.91 r13725"
   sodipodi:docname="image-bmp.svg">
  <defs
     id="defs4" />
  <sodipodi:namedview
     id="base"
     pagecolor="#ffffff"
     bordercolor="#666666"
     borderopacity="1.0"
     inkscape:pageopacity="0.0"
     inkscape:pageshadow="2"
     inkscape:zoom="0.60666664"
     inkscape:cx="-7.1588118"
     inkscape:cy="158.04722"
     inkscape:document-units="px"
     inkscape:current-layer="layer1"
     showgrid="false"
     inkscape:window-width="1366"
     inkscape:window-height="715"
     inkscape:window-x="0"
     inkscape:window-y="24"
     inkscape:window-maximized="1" />
  <metadata
     id="metadata7">
    <rdf:RDF>
      <cc:Work
         rdf:about="">
        <dc:format>image/svg+xml</dc:format>
        <dc:type
           rdf:resource="http://purl.org/dc/dcmitype/StillImage" />
        <dc:title />
      </cc:Work>
    </rdf:RDF>
  </metadata>
  <g
     inkscape:label="Layer 1"
     inkscape:groupmode="layer"
     id="layer1"
     transform="translate(0,-552.36218)">
    <g
       id="g4163">
      <path
         inkscape:connector-curvature="0"
         id="path3364"
         d="m 97.040974,1029.8357 336.888376,-1.1739 1.17377,-363.88639 -88.03697,-89.21086 -250.025176,0 z"
         style="fill:#f2f2f2;fill-rule:evenodd;stroke:#afafaf;stroke-width:5.03546047;stroke-linecap:butt;stroke-linejoin:miter;stroke-miterlimit:4;stroke-dasharray:none;stroke-opacity:1" />
      <path
         inkscape:connector-curvature="0"
         id="rect4228"
         d="m 97.041016,907.86724 0,121.96756 336.888674,-1.0485 0.4375,-120.91906 -337.326174,0 z"
         style="fill:#00bbf2;fill-opacity:1;stroke:none;stroke-width:5;stroke-miterlimit:4;stroke-dasharray:none;stroke-opacity:1" />
      <rect
         transform="matrix(0.99991031,-0.01339323,0.01339323,0.99991031,0,0)"
         y="658.06232"
         x="135.66499"
         height="186.98323"
         width="225.0724"
         id="rect2997-3"
         style="fill:#ff6600;fill-opacity:1;stroke:#ffffff;stroke-width:7.27156973;stroke-linecap:round;stroke-linejoin:round;stroke-miterlimit:4;stroke-dasharray:none;stroke-opacity:1" />
      <rect
         transform="matrix(0.89137186,-0.45327278,0.45327278,0.89137186,0,0)"
         y="693.05157"
         x="-211.0779"
         height="186.98325"
         width="225.0724"
         id="rect2997"
         style="fill:#00bbf2;fill-opacity:1;stroke:#ffffff;stroke-width:7.27156973;stroke-linecap:round;stroke-linejoin:round;stroke-miterlimit:4;stroke-dasharray:none;stroke-opacity:1" />
      <path
         sodipodi:open="true"
         sodipodi:end="6.2784904"
         sodipodi:start="0"
         transform="matrix(0.89137185,-0.45327279,0.45327278,0.89137186,0,0)"
         d="m -140.09353,747.58826 a 22.940073,22.50724 0 0 1 -22.91314,22.50722 22.940073,22.50724 0 0 1 -22.96694,-22.45439 22.940073,22.50724 0 0 1 22.85923,-22.55993 22.940073,22.50724 0 0 1 23.0206,22.40143"
         sodipodi:ry="22.50724"
         sodipodi:rx="22.940073"
         sodipodi:cy="747.58826"
         sodipodi:cx="-163.0336"
         id="path3767"
         style="fill:#ffffff;fill-opacity:1;stroke:none"
         sodipodi:type="arc" />
      <path
         sodipodi:nodetypes="cccczzc"
         inkscape:connector-curvature="0"
         id="path3787"
         d="m 181.03169,813.68258 31.07967,61.7941 194.64875,-99.32444 -26.48773,-50.7383 c 0,0 -22.49038,23.83228 -47.82038,32.9011 -25.32998,9.06883 -77.11604,-2.96297 -103.00847,8.77474 -25.89241,11.73773 -48.41184,46.5928 -48.41184,46.5928 z"
         style="fill:#004455;fill-opacity:1;stroke:none;stroke-width:0.46588865px;stroke-linecap:butt;stroke-linejoin:miter;stroke-opacity:1" />
      <path
         d="m 172.16603,959.10892 q 4.8761,0 7.39452,-2.14334 2.51841,-2.14333 2.51841,-6.32284 0,-4.12592 -2.51841,-6.26926 -2.51842,-2.19692 -7.39452,-2.19692 l -11.41325,0 0,16.93236 11.41325,0 z m 0.69659,34.98995 q 6.21567,0 9.32351,-2.62558 3.16143,-2.6256 3.16143,-7.93034 0,-5.1976 -3.10785,-7.7696 -3.10783,-2.62559 -9.37709,-2.62559 l -12.10984,0 0,20.95111 12.10984,0 z m 19.18286,-28.77428 q 6.64434,1.92901 10.28801,7.12659 3.64367,5.19759 3.64367,12.75284 0,11.57402 -7.82318,17.25388 -7.82317,5.6798 -23.79103,5.6798 l -34.23978,0 0,-79.99999 30.9712,0 q 16.66444,0 24.11253,5.03684 7.50168,5.03684 7.50168,16.12861 0,5.84058 -2.73276,9.9665 -2.73276,4.07234 -7.93034,6.05493 z"
         style="font-style:normal;font-variant:normal;font-weight:bold;font-stretch:normal;font-size:80px;line-height:125%;font-family:sans-serif;-inkscape-font-specification:'sans-serif Bold';letter-spacing:0px;word-spacing:0px;fill:#ffffff;fill-opacity:1;stroke:none;stroke-width:1px;stroke-linecap:butt;stroke-linejoin:miter;stroke-opacity:1"
         id="path3371"
         inkscape:connector-curvature="0" />
      <path
         d="m 223.71327,928.13771 26.25585,0 18.21836,42.81314 18.32553,-42.81314 26.20227,0 0,79.99999 -19.50435,0 0,-58.51305 -18.43269,43.13464 -13.07435,0 -18.43269,-43.13464 0,58.51305 -19.55793,0 0,-79.99999 z"
         style="font-style:normal;font-variant:normal;font-weight:bold;font-stretch:normal;font-size:80px;line-height:125%;font-family:sans-serif;-inkscape-font-specification:'sans-serif Bold';letter-spacing:0px;word-spacing:0px;fill:#ffffff;fill-opacity:1;stroke:none;stroke-width:1px;stroke-linecap:butt;stroke-linejoin:miter;stroke-opacity:1"
         id="path3373"
         inkscape:connector-curvature="0" />
      <path
         d="m 333.02339,928.13771 34.23978,0 q 15.27128,0 23.41595,6.8051 8.19826,6.7515 8.19826,19.29002 0,12.5921 -8.19826,19.39718 -8.14467,6.75151 -23.41595,6.75151 l -13.61017,0 0,27.75618 -20.62961,0 0,-79.99999 z m 20.62961,14.94977 0,22.34427 11.41326,0 q 6.00134,0 9.26992,-2.89349 3.2686,-2.94709 3.2686,-8.30543 0,-5.35834 -3.2686,-8.25185 -3.26858,-2.8935 -9.26992,-2.8935 l -11.41326,0 z"
         style="font-style:normal;font-variant:normal;font-weight:bold;font-stretch:normal;font-size:80px;line-height:125%;font-family:sans-serif;-inkscape-font-specification:'sans-serif Bold';letter-spacing:0px;word-spacing:0px;fill:#ffffff;fill-opacity:1;stroke:none;stroke-width:1px;stroke-linecap:butt;stroke-linejoin:miter;stroke-opacity:1"
         id="path3375"
         inkscape:connector-curvature="0" />
    </g>
  </g>
</svg>
