<?xml version="1.0" encoding="UTF-8" standalone="no"?>
<!-- Created with Inkscape (http://www.inkscape.org/) -->

<svg
   xmlns:dc="http://purl.org/dc/elements/1.1/"
   xmlns:cc="http://creativecommons.org/ns#"
   xmlns:rdf="http://www.w3.org/1999/02/22-rdf-syntax-ns#"
   xmlns:svg="http://www.w3.org/2000/svg"
   xmlns="http://www.w3.org/2000/svg"
   xmlns:sodipodi="http://sodipodi.sourceforge.net/DTD/sodipodi-0.dtd"
   xmlns:inkscape="http://www.inkscape.org/namespaces/inkscape"
   width="500"
   height="500"
   id="svg2"
   version="1.1"
   inkscape:version="0.91 r13725"
   sodipodi:docname="image-jpeg.svg">
  <defs
     id="defs4" />
  <sodipodi:namedview
     id="base"
     pagecolor="#ffffff"
     bordercolor="#666666"
     borderopacity="1.0"
     inkscape:pageopacity="0.0"
     inkscape:pageshadow="2"
     inkscape:zoom="0.60666664"
     inkscape:cx="-7.1588118"
     inkscape:cy="158.04722"
     inkscape:document-units="px"
     inkscape:current-layer="layer1"
     showgrid="false"
     inkscape:window-width="1366"
     inkscape:window-height="715"
     inkscape:window-x="0"
     inkscape:window-y="24"
     inkscape:window-maximized="1" />
  <metadata
     id="metadata7">
    <rdf:RDF>
      <cc:Work
         rdf:about="">
        <dc:format>image/svg+xml</dc:format>
        <dc:type
           rdf:resource="http://purl.org/dc/dcmitype/StillImage" />
        <dc:title />
      </cc:Work>
    </rdf:RDF>
  </metadata>
  <g
     inkscape:label="Layer 1"
     inkscape:groupmode="layer"
     id="layer1"
     transform="translate(0,-552.36218)">
    <g
       id="g4166">
      <path
         inkscape:connector-curvature="0"
         id="path3364"
         d="m 97.040974,1029.8357 336.888376,-1.1739 1.17377,-363.88639 -88.03697,-89.21086 -250.025176,0 z"
         style="fill:#f2f2f2;fill-rule:evenodd;stroke:#afafaf;stroke-width:5.03546047;stroke-linecap:butt;stroke-linejoin:miter;stroke-miterlimit:4;stroke-dasharray:none;stroke-opacity:1" />
      <path
         inkscape:connector-curvature="0"
         id="rect4228"
         d="m 97.041016,907.86724 0,121.96756 336.888674,-1.0485 0.4375,-120.91906 -337.326174,0 z"
         style="fill:#00bbf2;fill-opacity:1;stroke:none;stroke-width:5;stroke-miterlimit:4;stroke-dasharray:none;stroke-opacity:1" />
      <rect
         transform="matrix(0.99991031,-0.01339323,0.01339323,0.99991031,0,0)"
         y="658.06232"
         x="135.66499"
         height="186.98323"
         width="225.0724"
         id="rect2997-3"
         style="fill:#ff6600;fill-opacity:1;stroke:#ffffff;stroke-width:7.27156973;stroke-linecap:round;stroke-linejoin:round;stroke-miterlimit:4;stroke-dasharray:none;stroke-opacity:1" />
      <rect
         transform="matrix(0.89137186,-0.45327278,0.45327278,0.89137186,0,0)"
         y="693.05157"
         x="-211.0779"
         height="186.98325"
         width="225.0724"
         id="rect2997"
         style="fill:#00bbf2;fill-opacity:1;stroke:#ffffff;stroke-width:7.27156973;stroke-linecap:round;stroke-linejoin:round;stroke-miterlimit:4;stroke-dasharray:none;stroke-opacity:1" />
      <path
         sodipodi:open="true"
         sodipodi:end="6.2784904"
         sodipodi:start="0"
         transform="matrix(0.89137185,-0.45327279,0.45327278,0.89137186,0,0)"
         d="m -140.09353,747.58826 a 22.940073,22.50724 0 0 1 -22.91314,22.50722 22.940073,22.50724 0 0 1 -22.96694,-22.45439 22.940073,22.50724 0 0 1 22.85923,-22.55993 22.940073,22.50724 0 0 1 23.0206,22.40143"
         sodipodi:ry="22.50724"
         sodipodi:rx="22.940073"
         sodipodi:cy="747.58826"
         sodipodi:cx="-163.0336"
         id="path3767"
         style="fill:#ffffff;fill-opacity:1;stroke:none"
         sodipodi:type="arc" />
      <path
         sodipodi:nodetypes="cccczzc"
         inkscape:connector-curvature="0"
         id="path3787"
         d="m 181.03169,813.68258 31.07967,61.7941 194.64875,-99.32444 -26.48773,-50.7383 c 0,0 -22.49038,23.83228 -47.82038,32.9011 -25.32998,9.06883 -77.11604,-2.96297 -103.00847,8.77474 -25.89241,11.73773 -48.41184,46.5928 -48.41184,46.5928 z"
         style="fill:#004455;fill-opacity:1;stroke:none;stroke-width:0.46588865px;stroke-linecap:butt;stroke-linejoin:miter;stroke-opacity:1" />
      <path
         d="m 163.25811,936.98661 15.95855,0 0,55.87567 q 0,11.56472 -6.30052,17.28492 -6.25907,5.7203 -18.98445,5.7203 l -3.23317,0 0,-12.0622 2.48704,0 q 4.97409,0 7.50259,-2.7772 2.56996,-2.77723 2.56996,-8.16582 l 0,-55.87567 z"
         style="font-style:normal;font-variant:normal;font-weight:bold;font-stretch:normal;font-size:medium;line-height:125%;font-family:sans-serif;-inkscape-font-specification:'sans-serif Bold';letter-spacing:0px;word-spacing:0px;fill:#ffffff;fill-opacity:1;stroke:none;stroke-width:1px;stroke-linecap:butt;stroke-linejoin:miter;stroke-opacity:1"
         id="path3365"
         inkscape:connector-curvature="0" />
      <path
         d="m 194.92649,936.98661 26.48705,0 q 11.81348,0 18.114,5.26426 6.34197,5.2228 6.34197,14.92228 0,9.74092 -6.34197,15.00517 -6.30052,5.22281 -18.114,5.22281 l -10.5285,0 0,21.47151 -15.95855,0 0,-61.88603 z m 15.95855,11.56477 0,17.28498 8.82902,0 q 4.64249,0 7.171,-2.23835 2.52848,-2.27977 2.52848,-6.42486 0,-4.14507 -2.52848,-6.38342 -2.52851,-2.23835 -7.171,-2.23835 l -8.82902,0 z"
         style="font-style:normal;font-variant:normal;font-weight:bold;font-stretch:normal;font-size:medium;line-height:125%;font-family:sans-serif;-inkscape-font-specification:'sans-serif Bold';letter-spacing:0px;word-spacing:0px;fill:#ffffff;fill-opacity:1;stroke:none;stroke-width:1px;stroke-linecap:butt;stroke-linejoin:miter;stroke-opacity:1"
         id="path3367"
         inkscape:connector-curvature="0" />
      <path
         d="m 257.10267,936.98661 43.06736,0 0,12.06219 -27.10881,0 0,11.52331 25.49223,0 0,12.06219 -25.49223,0 0,14.17615 28.02072,0 0,12.06219 -43.97927,0 0,-61.88603 z"
         style="font-style:normal;font-variant:normal;font-weight:bold;font-stretch:normal;font-size:medium;line-height:125%;font-family:sans-serif;-inkscape-font-specification:'sans-serif Bold';letter-spacing:0px;word-spacing:0px;fill:#ffffff;fill-opacity:1;stroke:none;stroke-width:1px;stroke-linecap:butt;stroke-linejoin:miter;stroke-opacity:1"
         id="path3369"
         inkscape:connector-curvature="0" />
      <path
         d="m 370.76069,994.2716 q -5.96891,2.90156 -12.39377,4.35233 -6.42486,1.45077 -13.26425,1.45077 -15.46115,0 -24.49741,-8.62177 -9.03627,-8.66321 -9.03627,-23.46112 0,-14.96373 9.20208,-23.54404 9.20206,-8.58032 25.20207,-8.58032 6.17616,0 11.81346,1.16061 5.67876,1.16063 10.69432,3.44043 l 0,12.80828 q -5.18136,-2.94301 -10.32126,-4.39378 -5.09844,-1.45077 -10.23833,-1.45077 -9.53368,0 -14.71504,5.34715 -5.13988,5.3057 -5.13988,15.21244 0,9.82382 4.97409,15.17097 4.97409,5.34717 14.1347,5.34717 2.48706,0 4.60104,-0.29016 2.15545,-0.33161 3.85493,-0.99482 l 0,-12.02074 -9.74094,0 0,-10.6943 24.87046,0 0,29.76167 z"
         style="font-style:normal;font-variant:normal;font-weight:bold;font-stretch:normal;font-size:medium;line-height:125%;font-family:sans-serif;-inkscape-font-specification:'sans-serif Bold';letter-spacing:0px;word-spacing:0px;fill:#ffffff;fill-opacity:1;stroke:none;stroke-width:1px;stroke-linecap:butt;stroke-linejoin:miter;stroke-opacity:1"
         id="path3371"
         inkscape:connector-curvature="0" />
    </g>
  </g>
</svg>
