<?xml version="1.0" encoding="UTF-8" standalone="no"?>
<!-- Created with Inkscape (http://www.inkscape.org/) -->

<svg
   xmlns:dc="http://purl.org/dc/elements/1.1/"
   xmlns:cc="http://creativecommons.org/ns#"
   xmlns:rdf="http://www.w3.org/1999/02/22-rdf-syntax-ns#"
   xmlns:svg="http://www.w3.org/2000/svg"
   xmlns="http://www.w3.org/2000/svg"
   xmlns:sodipodi="http://sodipodi.sourceforge.net/DTD/sodipodi-0.dtd"
   xmlns:inkscape="http://www.inkscape.org/namespaces/inkscape"
   width="500"
   height="500"
   id="svg2"
   version="1.1"
   inkscape:version="0.91 r13725"
   sodipodi:docname="image-x-win-bitmap.svg">
  <defs
     id="defs4" />
  <sodipodi:namedview
     id="base"
     pagecolor="#ffffff"
     bordercolor="#666666"
     borderopacity="1.0"
     inkscape:pageopacity="0.0"
     inkscape:pageshadow="2"
     inkscape:zoom="0.85795619"
     inkscape:cx="84.737093"
     inkscape:cy="206.2899"
     inkscape:document-units="px"
     inkscape:current-layer="layer1"
     showgrid="false"
     inkscape:window-width="1366"
     inkscape:window-height="715"
     inkscape:window-x="0"
     inkscape:window-y="24"
     inkscape:window-maximized="1" />
  <metadata
     id="metadata7">
    <rdf:RDF>
      <cc:Work
         rdf:about="">
        <dc:format>image/svg+xml</dc:format>
        <dc:type
           rdf:resource="http://purl.org/dc/dcmitype/StillImage" />
        <dc:title />
      </cc:Work>
    </rdf:RDF>
  </metadata>
  <g
     inkscape:label="Layer 1"
     inkscape:groupmode="layer"
     id="layer1"
     transform="translate(0,-552.36218)">
    <g
       id="g4172">
      <path
         inkscape:connector-curvature="0"
         id="path3364"
         d="m 97.040974,1029.8357 336.888376,-1.1739 1.17377,-363.88639 -88.03697,-89.21086 -250.025176,0 z"
         style="fill:#f2f2f2;fill-rule:evenodd;stroke:#afafaf;stroke-width:5.03546047;stroke-linecap:butt;stroke-linejoin:miter;stroke-miterlimit:4;stroke-dasharray:none;stroke-opacity:1" />
      <path
         inkscape:connector-curvature="0"
         id="rect4228"
         d="m 97.041016,907.86724 0,121.96756 336.888674,-1.0485 0.4375,-120.91906 -337.326174,0 z"
         style="fill:#00bbf2;fill-opacity:1;stroke:none;stroke-width:5;stroke-miterlimit:4;stroke-dasharray:none;stroke-opacity:1" />
      <rect
         transform="matrix(0.99991031,-0.01339323,0.01339323,0.99991031,0,0)"
         y="658.06232"
         x="135.66499"
         height="186.98323"
         width="225.0724"
         id="rect2997-3"
         style="fill:#ff6600;fill-opacity:1;stroke:#ffffff;stroke-width:7.27156973;stroke-linecap:round;stroke-linejoin:round;stroke-miterlimit:4;stroke-dasharray:none;stroke-opacity:1" />
      <rect
         transform="matrix(0.89137186,-0.45327278,0.45327278,0.89137186,0,0)"
         y="693.05157"
         x="-211.0779"
         height="186.98325"
         width="225.0724"
         id="rect2997"
         style="fill:#00bbf2;fill-opacity:1;stroke:#ffffff;stroke-width:7.27156973;stroke-linecap:round;stroke-linejoin:round;stroke-miterlimit:4;stroke-dasharray:none;stroke-opacity:1" />
      <path
         sodipodi:open="true"
         sodipodi:end="6.2784904"
         sodipodi:start="0"
         transform="matrix(0.89137185,-0.45327279,0.45327278,0.89137186,0,0)"
         d="m -140.09353,747.58826 a 22.940073,22.50724 0 0 1 -22.91314,22.50722 22.940073,22.50724 0 0 1 -22.96694,-22.45439 22.940073,22.50724 0 0 1 22.85923,-22.55993 22.940073,22.50724 0 0 1 23.0206,22.40143"
         sodipodi:ry="22.50724"
         sodipodi:rx="22.940073"
         sodipodi:cy="747.58826"
         sodipodi:cx="-163.0336"
         id="path3767"
         style="fill:#ffffff;fill-opacity:1;stroke:none"
         sodipodi:type="arc" />
      <path
         sodipodi:nodetypes="cccczzc"
         inkscape:connector-curvature="0"
         id="path3787"
         d="m 181.03169,813.68258 31.07967,61.7941 194.64875,-99.32444 -26.48773,-50.7383 c 0,0 -22.49038,23.83228 -47.82038,32.9011 -25.32998,9.06883 -77.11604,-2.96297 -103.00847,8.77474 -25.89241,11.73773 -48.41184,46.5928 -48.41184,46.5928 z"
         style="fill:#004455;fill-opacity:1;stroke:none;stroke-width:0.46588865px;stroke-linecap:butt;stroke-linejoin:miter;stroke-opacity:1" />
      <path
         d="m 213.75478,1003.1713 q -5.47449,2.8405 -11.41382,4.2867 -5.93931,1.446 -12.3951,1.446 -19.26403,0 -30.52293,-10.74238 -11.25887,-10.79406 -11.25887,-29.23178 0,-18.48933 11.25887,-29.23175 11.2589,-10.79406 30.52293,-10.79406 6.45579,0 12.3951,1.44608 5.93933,1.44611 11.41382,4.28663 l 0,15.9587 q -5.52613,-3.77017 -10.89734,-5.52614 -5.37121,-1.75599 -11.31054,-1.75599 -10.63913,0 -16.73337,6.81731 -6.09426,6.81729 -6.09426,18.79922 0,11.93028 6.09426,18.7476 6.09424,6.81729 16.73337,6.81729 5.93933,0 11.31054,-1.75597 5.37121,-1.75596 10.89734,-5.52613 l 0,15.95867 z"
         style="font-style:normal;font-variant:normal;font-weight:bold;font-stretch:normal;font-size:medium;line-height:125%;font-family:sans-serif;-inkscape-font-specification:'sans-serif Bold';letter-spacing:0px;word-spacing:0px;fill:#ffffff;fill-opacity:1;stroke:none;stroke-width:1px;stroke-linecap:butt;stroke-linejoin:miter;stroke-opacity:1"
         id="path3350"
         inkscape:connector-curvature="0" />
      <path
         d="m 230.28158,930.29847 19.8838,0 0,46.22338 q 0,9.55455 3.09878,13.68625 3.15041,4.08006 10.22594,4.08006 7.1272,0 10.22596,-4.08006 3.15043,-4.1317 3.15043,-13.68625 l 0,-46.22338 19.8838,0 0,46.22338 q 0,16.37184 -8.21176,24.37705 -8.21175,8.0051 -25.04843,8.0051 -16.78501,0 -24.99677,-8.0051 -8.21175,-8.00521 -8.21175,-24.37705 l 0,-46.22338 z"
         style="font-style:normal;font-variant:normal;font-weight:bold;font-stretch:normal;font-size:medium;line-height:125%;font-family:sans-serif;-inkscape-font-specification:'sans-serif Bold';letter-spacing:0px;word-spacing:0px;fill:#ffffff;fill-opacity:1;stroke:none;stroke-width:1px;stroke-linecap:butt;stroke-linejoin:miter;stroke-opacity:1"
         id="path3352"
         inkscape:connector-curvature="0" />
      <path
         d="m 344.47139,964.48828 q 6.24919,0 8.93481,-2.32409 2.73726,-2.32409 2.73726,-7.64363 0,-5.26792 -2.73726,-7.54037 -2.68562,-2.27242 -8.93481,-2.27242 l -8.36668,0 0,19.78051 8.36668,0 z m -8.36668,13.7379 0,29.18012 -19.8838,0 0,-77.10783 30.36798,0 q 15.23564,0 22.31117,5.11297 7.1272,5.11299 7.1272,16.16527 0,7.64365 -3.71853,12.55005 -3.66689,4.90639 -11.10394,7.23046 4.08005,0.92965 7.2821,4.23501 3.25372,3.25369 6.55907,9.91607 l 10.79406,21.898 -21.17495,0 -9.39962,-19.16076 q -2.84052,-5.78438 -5.78437,-7.90187 -2.89219,-2.11749 -7.74692,-2.11749 l -5.62945,0 z"
         style="font-style:normal;font-variant:normal;font-weight:bold;font-stretch:normal;font-size:medium;line-height:125%;font-family:sans-serif;-inkscape-font-specification:'sans-serif Bold';letter-spacing:0px;word-spacing:0px;fill:#ffffff;fill-opacity:1;stroke:none;stroke-width:1px;stroke-linecap:butt;stroke-linejoin:miter;stroke-opacity:1"
         id="path3354"
         inkscape:connector-curvature="0" />
    </g>
  </g>
</svg>
