<?xml version="1.0" encoding="UTF-8" standalone="no"?>
<!-- Created with Inkscape (http://www.inkscape.org/) -->

<svg
   xmlns:dc="http://purl.org/dc/elements/1.1/"
   xmlns:cc="http://creativecommons.org/ns#"
   xmlns:rdf="http://www.w3.org/1999/02/22-rdf-syntax-ns#"
   xmlns:svg="http://www.w3.org/2000/svg"
   xmlns="http://www.w3.org/2000/svg"
   xmlns:sodipodi="http://sodipodi.sourceforge.net/DTD/sodipodi-0.dtd"
   xmlns:inkscape="http://www.inkscape.org/namespaces/inkscape"
   width="500"
   height="500"
   id="svg2"
   version="1.1"
   inkscape:version="0.91 r13725"
   sodipodi:docname="image-x-adobe-dng.svg">
  <defs
     id="defs4" />
  <sodipodi:namedview
     id="base"
     pagecolor="#ffffff"
     bordercolor="#666666"
     borderopacity="1.0"
     inkscape:pageopacity="0.0"
     inkscape:pageshadow="2"
     inkscape:zoom="0.30333332"
     inkscape:cx="434.54082"
     inkscape:cy="209.04432"
     inkscape:document-units="px"
     inkscape:current-layer="layer1"
     showgrid="false"
     inkscape:window-width="1366"
     inkscape:window-height="715"
     inkscape:window-x="0"
     inkscape:window-y="24"
     inkscape:window-maximized="1" />
  <metadata
     id="metadata7">
    <rdf:RDF>
      <cc:Work
         rdf:about="">
        <dc:format>image/svg+xml</dc:format>
        <dc:type
           rdf:resource="http://purl.org/dc/dcmitype/StillImage" />
        <dc:title />
      </cc:Work>
    </rdf:RDF>
  </metadata>
  <g
     inkscape:label="Layer 1"
     inkscape:groupmode="layer"
     id="layer1"
     transform="translate(0,-552.36218)">
    <g
       id="g4163">
      <path
         inkscape:connector-curvature="0"
         id="path3364"
         d="m 97.040974,1029.8357 336.888376,-1.1739 1.17377,-363.88639 -88.03697,-89.21086 -250.025176,0 z"
         style="fill:#f2f2f2;fill-rule:evenodd;stroke:#afafaf;stroke-width:5.03546047;stroke-linecap:butt;stroke-linejoin:miter;stroke-miterlimit:4;stroke-dasharray:none;stroke-opacity:1" />
      <path
         inkscape:connector-curvature="0"
         id="rect4228"
         d="m 97.041016,907.86724 0,121.96756 336.888674,-1.0485 0.4375,-120.91906 -337.326174,0 z"
         style="fill:#00bbf2;fill-opacity:1;stroke:none;stroke-width:5;stroke-miterlimit:4;stroke-dasharray:none;stroke-opacity:1" />
      <path
         id="path4166"
         d="m 242.68764,631.22691 0,48.4515 48.45154,0 0,-48.4515 -48.45154,0 z m 12.11288,12.1129 24.22578,0 0,24.22565 -24.22578,0 0,-24.22565 z m -20.15657,15.23566 -23.39774,6.2694 3.14656,11.71067 23.39774,-6.26929 -3.14656,-11.71078 z m -36.33866,12.11285 -23.39775,6.2694 3.14657,11.71078 23.39774,-6.2694 -3.14656,-11.71078 z m 104.94678,3.33574 0,12.5389 74.40438,19.91996 -74.40438,21.24481 0,12.51503 0,90.04243 0,12.53869 0,42.37159 0,12.515 0.35491,0 96.54818,-27.58524 0,-0.68561 0,-0.66248 0,-11.23772 0,-144.88144 0,-0.14177 0,-12.72799 -96.90309,-25.76352 z m -145.35466,5.65435 a 12.112888,12.112888 0 0 0 -12.11288,12.11296 12.112888,12.112888 0 0 0 12.11288,12.11274 12.112888,12.112888 0 0 0 12.11289,-12.11274 12.112888,12.112888 0 0 0 -12.11289,-12.11296 z m -24.22577,24.2257 0,169.58056 145.35466,24.2258 0,-169.58045 -145.35466,-24.22591 z m 254.37065,12.20761 0,136.90889 -72.67734,-19.49434 0,-96.6428 72.67734,-20.77175 z m -72.67734,129.95335 64.46807,17.27026 -64.46807,18.40584 0,-35.6761 z"
         style="fill:#00bbf2;fill-opacity:1;fill-rule:evenodd;stroke:none"
         inkscape:connector-curvature="0" />
      <g
         id="flowRoot4148"
         style="font-style:normal;font-weight:normal;font-size:40px;line-height:125%;font-family:sans-serif;letter-spacing:0px;word-spacing:0px;fill:#ffffff;fill-opacity:1;stroke:none;stroke-width:1px;stroke-linecap:butt;stroke-linejoin:miter;stroke-opacity:1"
         transform="matrix(2.6442863,0,0,2.6442863,-152.27247,-48.28825)">
        <path
           inkscape:connector-curvature="0"
           id="path4157"
           style="font-style:normal;font-variant:normal;font-weight:bold;font-stretch:normal;font-family:sans-serif;-inkscape-font-specification:'sans-serif Bold';fill:#ffffff"
           d="m 119.58789,376.52622 0,17.79297 2.69531,0 q 4.60938,0 7.03125,-2.28516 2.44141,-2.28516 2.44141,-6.64063 0,-4.33593 -2.42188,-6.60156 -2.42187,-2.26562 -7.05078,-2.26562 l -2.69531,0 z m -7.51953,-5.6836 7.92969,0 q 6.64062,0 9.88281,0.95703 3.26172,0.9375 5.58594,3.20313 2.05078,1.97266 3.04687,4.55078 0.9961,2.57813 0.9961,5.83984 0,3.30079 -0.9961,5.89844 -0.99609,2.57813 -3.04687,4.55078 -2.34375,2.26563 -5.625,3.22266 -3.28125,0.9375 -9.84375,0.9375 l -7.92969,0 0,-29.16016 z" />
        <path
           inkscape:connector-curvature="0"
           id="path4159"
           style="font-style:normal;font-variant:normal;font-weight:bold;font-stretch:normal;font-family:sans-serif;-inkscape-font-specification:'sans-serif Bold';fill:#ffffff"
           d="m 145.27148,370.84262 8.39844,0 10.60547,20 0,-20 7.12891,0 0,29.16016 -8.39844,0 -10.60547,-20 0,20 -7.12891,0 0,-29.16016 z" />
        <path
           inkscape:connector-curvature="0"
           id="path4161"
           style="font-style:normal;font-variant:normal;font-weight:bold;font-stretch:normal;font-family:sans-serif;-inkscape-font-specification:'sans-serif Bold';fill:#ffffff"
           d="m 204.99805,397.83481 q -2.8125,1.36719 -5.83985,2.05078 -3.02734,0.6836 -6.25,0.6836 -7.28515,0 -11.54297,-4.0625 -4.25781,-4.08204 -4.25781,-11.05469 0,-7.05078 4.33594,-11.09375 4.33594,-4.04297 11.875,-4.04297 2.91016,0 5.56641,0.54687 2.67578,0.54688 5.03906,1.6211 l 0,6.03515 q -2.44141,-1.38671 -4.86328,-2.07031 -2.40235,-0.68359 -4.82422,-0.68359 -4.49219,0 -6.9336,2.51953 -2.42187,2.5 -2.42187,7.16797 0,4.6289 2.34375,7.14844 2.34375,2.51953 6.66016,2.51953 1.17187,0 2.16796,-0.13672 1.01563,-0.15625 1.81641,-0.46875 l 0,-5.66406 -4.58984,0 0,-5.03907 11.71875,0 0,14.02344 z" />
      </g>
    </g>
  </g>
</svg>
