<?xml version="1.0" encoding="UTF-8" standalone="no"?>
<!-- Created with Inkscape (http://www.inkscape.org/) -->

<svg
   xmlns:dc="http://purl.org/dc/elements/1.1/"
   xmlns:cc="http://creativecommons.org/ns#"
   xmlns:rdf="http://www.w3.org/1999/02/22-rdf-syntax-ns#"
   xmlns:svg="http://www.w3.org/2000/svg"
   xmlns="http://www.w3.org/2000/svg"
   xmlns:sodipodi="http://sodipodi.sourceforge.net/DTD/sodipodi-0.dtd"
   xmlns:inkscape="http://www.inkscape.org/namespaces/inkscape"
   width="500"
   height="500"
   id="svg2"
   version="1.1"
   inkscape:version="0.91 r13725"
   sodipodi:docname="image-x-win-bmp.svg">
  <defs
     id="defs4" />
  <sodipodi:namedview
     id="base"
     pagecolor="#ffffff"
     bordercolor="#666666"
     borderopacity="1.0"
     inkscape:pageopacity="0.0"
     inkscape:pageshadow="2"
     inkscape:zoom="0.60666665"
     inkscape:cx="207.17014"
     inkscape:cy="192.57618"
     inkscape:document-units="px"
     inkscape:current-layer="layer1"
     showgrid="false"
     inkscape:window-width="1366"
     inkscape:window-height="715"
     inkscape:window-x="0"
     inkscape:window-y="24"
     inkscape:window-maximized="1" />
  <metadata
     id="metadata7">
    <rdf:RDF>
      <cc:Work
         rdf:about="">
        <dc:format>image/svg+xml</dc:format>
        <dc:type
           rdf:resource="http://purl.org/dc/dcmitype/StillImage" />
        <dc:title />
      </cc:Work>
    </rdf:RDF>
  </metadata>
  <g
     inkscape:label="Layer 1"
     inkscape:groupmode="layer"
     id="layer1"
     transform="translate(0,-552.36218)">
    <g
       id="g4172">
      <path
         inkscape:connector-curvature="0"
         id="path3364"
         d="m 97.040974,1029.8357 336.888376,-1.1739 1.17377,-363.88639 -88.03697,-89.21086 -250.025176,0 z"
         style="fill:#f2f2f2;fill-rule:evenodd;stroke:#afafaf;stroke-width:5.03546047;stroke-linecap:butt;stroke-linejoin:miter;stroke-miterlimit:4;stroke-dasharray:none;stroke-opacity:1" />
      <path
         inkscape:connector-curvature="0"
         id="rect4228"
         d="m 97.041016,907.86724 0,121.96756 336.888674,-1.0485 0.4375,-120.91906 -337.326174,0 z"
         style="fill:#00bbf2;fill-opacity:1;stroke:none;stroke-width:5;stroke-miterlimit:4;stroke-dasharray:none;stroke-opacity:1" />
      <rect
         transform="matrix(0.99991031,-0.01339323,0.01339323,0.99991031,0,0)"
         y="658.06232"
         x="135.66499"
         height="186.98323"
         width="225.0724"
         id="rect2997-3"
         style="fill:#ff6600;fill-opacity:1;stroke:#ffffff;stroke-width:7.27156973;stroke-linecap:round;stroke-linejoin:round;stroke-miterlimit:4;stroke-dasharray:none;stroke-opacity:1" />
      <rect
         transform="matrix(0.89137186,-0.45327278,0.45327278,0.89137186,0,0)"
         y="693.05157"
         x="-211.0779"
         height="186.98325"
         width="225.0724"
         id="rect2997"
         style="fill:#00bbf2;fill-opacity:1;stroke:#ffffff;stroke-width:7.27156973;stroke-linecap:round;stroke-linejoin:round;stroke-miterlimit:4;stroke-dasharray:none;stroke-opacity:1" />
      <path
         sodipodi:open="true"
         sodipodi:end="6.2784904"
         sodipodi:start="0"
         transform="matrix(0.89137185,-0.45327279,0.45327278,0.89137186,0,0)"
         d="m -140.09353,747.58826 a 22.940073,22.50724 0 0 1 -22.91314,22.50722 22.940073,22.50724 0 0 1 -22.96694,-22.45439 22.940073,22.50724 0 0 1 22.85923,-22.55993 22.940073,22.50724 0 0 1 23.0206,22.40143"
         sodipodi:ry="22.50724"
         sodipodi:rx="22.940073"
         sodipodi:cy="747.58826"
         sodipodi:cx="-163.0336"
         id="path3767"
         style="fill:#ffffff;fill-opacity:1;stroke:none"
         sodipodi:type="arc" />
      <path
         sodipodi:nodetypes="cccczzc"
         inkscape:connector-curvature="0"
         id="path3787"
         d="m 181.03169,813.68258 31.07967,61.7941 194.64875,-99.32444 -26.48773,-50.7383 c 0,0 -22.49038,23.83228 -47.82038,32.9011 -25.32998,9.06883 -77.11604,-2.96297 -103.00847,8.77474 -25.89241,11.73773 -48.41184,46.5928 -48.41184,46.5928 z"
         style="fill:#004455;fill-opacity:1;stroke:none;stroke-width:0.46588865px;stroke-linecap:butt;stroke-linejoin:miter;stroke-opacity:1" />
      <path
         d="m 169.74012,957.65452 q 4.87611,0 7.39453,-2.14333 2.51839,-2.14334 2.51839,-6.32282 0,-4.12593 -2.51839,-6.26927 -2.51842,-2.19691 -7.39453,-2.19691 l -11.41324,0 0,16.93233 11.41324,0 z m 0.69659,34.98996 q 6.21566,0 9.32352,-2.62558 3.16141,-2.62558 3.16141,-7.93035 0,-5.19759 -3.10783,-7.76959 -3.10783,-2.62558 -9.3771,-2.62558 l -12.10983,0 0,20.9511 12.10983,0 z m 19.18286,-28.77427 q 6.64433,1.92899 10.28801,7.1266 3.64366,5.19758 3.64366,12.75282 0,11.57401 -7.82317,17.25387 -7.82317,5.6798 -23.79103,5.6798 l -34.23976,0 0,-79.99997 30.97119,0 q 16.66443,0 24.11251,5.03685 7.50169,5.03684 7.50169,16.12861 0,5.84057 -2.73277,9.9665 -2.73274,4.07232 -7.93033,6.05492 z"
         style="font-style:normal;font-variant:normal;font-weight:bold;font-stretch:normal;font-size:medium;line-height:125%;font-family:sans-serif;-inkscape-font-specification:'sans-serif Bold';letter-spacing:0px;word-spacing:0px;fill:#ffffff;fill-opacity:1;stroke:none;stroke-width:1px;stroke-linecap:butt;stroke-linejoin:miter;stroke-opacity:1"
         id="path3350"
         inkscape:connector-curvature="0" />
      <path
         d="m 221.28736,926.68333 26.25585,0 18.21833,42.81313 18.32553,-42.81313 26.20227,0 0,79.99997 -19.50434,0 0,-58.51303 -18.43268,43.13463 -13.07436,0 -18.43269,-43.13463 0,58.51303 -19.55791,0 0,-79.99997 z"
         style="font-style:normal;font-variant:normal;font-weight:bold;font-stretch:normal;font-size:medium;line-height:125%;font-family:sans-serif;-inkscape-font-specification:'sans-serif Bold';letter-spacing:0px;word-spacing:0px;fill:#ffffff;fill-opacity:1;stroke:none;stroke-width:1px;stroke-linecap:butt;stroke-linejoin:miter;stroke-opacity:1"
         id="path3352"
         inkscape:connector-curvature="0" />
      <path
         d="m 330.59746,926.68333 34.23975,0 q 15.27128,0 23.41595,6.8051 8.19826,6.75151 8.19826,19.29001 0,12.59209 -8.19826,19.39718 -8.14467,6.75152 -23.41595,6.75152 l -13.61015,0 0,27.75616 -20.6296,0 0,-79.99997 z m 20.6296,14.94977 0,22.34427 11.41324,0 q 6.00134,0 9.26993,-2.89351 3.2686,-2.94706 3.2686,-8.30542 0,-5.35832 -3.2686,-8.25183 -3.26859,-2.89351 -9.26993,-2.89351 l -11.41324,0 z"
         style="font-style:normal;font-variant:normal;font-weight:bold;font-stretch:normal;font-size:medium;line-height:125%;font-family:sans-serif;-inkscape-font-specification:'sans-serif Bold';letter-spacing:0px;word-spacing:0px;fill:#ffffff;fill-opacity:1;stroke:none;stroke-width:1px;stroke-linecap:butt;stroke-linejoin:miter;stroke-opacity:1"
         id="path3354"
         inkscape:connector-curvature="0" />
    </g>
  </g>
</svg>
