<?xml version="1.0" encoding="UTF-8" standalone="no"?>
<!-- Created with Inkscape (http://www.inkscape.org/) -->

<svg
   xmlns:dc="http://purl.org/dc/elements/1.1/"
   xmlns:cc="http://creativecommons.org/ns#"
   xmlns:rdf="http://www.w3.org/1999/02/22-rdf-syntax-ns#"
   xmlns:svg="http://www.w3.org/2000/svg"
   xmlns="http://www.w3.org/2000/svg"
   xmlns:sodipodi="http://sodipodi.sourceforge.net/DTD/sodipodi-0.dtd"
   xmlns:inkscape="http://www.inkscape.org/namespaces/inkscape"
   width="500"
   height="500"
   id="svg2"
   version="1.1"
   inkscape:version="0.91 r13725"
   sodipodi:docname="text-x-vcard.svg">
  <defs
     id="defs4" />
  <sodipodi:namedview
     id="base"
     pagecolor="#ffffff"
     bordercolor="#666666"
     borderopacity="1.0"
     inkscape:pageopacity="0.0"
     inkscape:pageshadow="2"
     inkscape:zoom="0.60666665"
     inkscape:cx="216.85643"
     inkscape:cy="304.24108"
     inkscape:document-units="px"
     inkscape:current-layer="layer1"
     showgrid="false"
     inkscape:window-width="1366"
     inkscape:window-height="715"
     inkscape:window-x="0"
     inkscape:window-y="24"
     inkscape:window-maximized="1" />
  <metadata
     id="metadata7">
    <rdf:RDF>
      <cc:Work
         rdf:about="">
        <dc:format>image/svg+xml</dc:format>
        <dc:type
           rdf:resource="http://purl.org/dc/dcmitype/StillImage" />
        <dc:title />
      </cc:Work>
    </rdf:RDF>
  </metadata>
  <g
     inkscape:label="Layer 1"
     inkscape:groupmode="layer"
     id="layer1"
     transform="translate(0,-552.36218)">
    <g
       id="g4171">
      <g
         id="g4160">
        <path
           style="fill:#f2f2f2;fill-rule:evenodd;stroke:#afafaf;stroke-width:5.03546047;stroke-linecap:butt;stroke-linejoin:miter;stroke-miterlimit:4;stroke-dasharray:none;stroke-opacity:1"
           d="m 97.040974,1029.8357 336.888376,-1.1739 1.17377,-363.88639 -88.03697,-89.21086 -250.025176,0 z"
           id="path3364"
           inkscape:connector-curvature="0" />
        <path
           style="fill:#394050;fill-opacity:1;stroke:none;stroke-width:5;stroke-miterlimit:4;stroke-dasharray:none;stroke-opacity:1"
           d="m 97.041016,907.86724 0,121.96756 336.888674,-1.0485 0.4375,-120.91906 -337.326174,0 z"
           id="rect4228"
           inkscape:connector-curvature="0" />
        <g
           id="g4140"
           transform="matrix(1.1647958,0,0,1.1647958,-38.670799,-295.23145)">
          <rect
             transform="matrix(0.68145507,0.73185996,-0.73185996,0.68145507,0,0)"
             ry="10.715013"
             rx="11.882594"
             y="336.48981"
             x="748.75116"
             height="172.77954"
             width="172.77954"
             id="rect2988"
             style="fill:#ffcc00;fill-opacity:1;stroke:#394050;stroke-width:15.2186861;stroke-miterlimit:4;stroke-dasharray:none;stroke-opacity:1" />
          <path
             sodipodi:nodetypes="zccczcccccczcccccczcccccczcccz"
             inkscape:connector-curvature="0"
             id="path3758"
             d="m 256.48134,858.39218 c -8.33564,1.16481 -12.99309,10.19278 -12.99309,10.19278 l -9.55589,13.33232 -14.63797,7.94933 c 0,0 -3.64731,1.62527 -2.4642,4.92837 1.18311,3.30309 4.03232,2.46421 4.03232,2.46421 l 17.02528,-6.94455 8.96076,-8.73667 8.06465,25.53797 -15.68121,18.14541 0,37.41091 c 0,0 0.69437,4.29364 4.70437,4.25631 4.00987,-0.0373 5.3764,-3.36026 5.3764,-3.36026 l 1.79217,-32.70653 12.19245,-9.93404 3.48488,0 4.35611,13.22674 15.13727,28.74179 c 0,0 3.18102,3.47221 6.94452,1.3441 3.76349,-2.12811 3.13625,-6.04848 3.13625,-6.04848 l -14.33715,-27.33011 -1.12002,-28.22618 -5.8245,-26.88208 7.39262,2.24018 5.15234,16.57727 c 0,0 1.64753,4.33814 5.12751,3.26512 3.4801,-1.073 2.71311,-5.28127 2.71311,-5.28127 l -5.37641,-20.83361 -19.48948,-11.20088 c 0,0 -5.77747,-3.29296 -14.11309,-2.12815 z"
             style="fill:#394050;stroke:none" />
          <path
             sodipodi:open="true"
             sodipodi:end="6.2784904"
             sodipodi:start="0"
             d="m 268.42452,843.41815 a 11.872919,11.648902 0 0 1 -11.85898,11.6489 11.872919,11.648902 0 0 1 -11.88682,-11.62155 11.872919,11.648902 0 0 1 11.83108,-11.67618 11.872919,11.648902 0 0 1 11.91459,11.59414"
             sodipodi:ry="11.648902"
             sodipodi:rx="11.872919"
             sodipodi:cy="843.41815"
             sodipodi:cx="256.55161"
             id="path3760"
             style="fill:#394050;fill-opacity:1;stroke:none"
             sodipodi:type="arc" />
        </g>
      </g>
      <g
         id="flowRoot4156"
         style="font-style:normal;font-weight:normal;font-size:40px;line-height:125%;font-family:sans-serif;letter-spacing:0px;word-spacing:0px;fill:#ffffff;fill-opacity:1;stroke:none;stroke-width:1px;stroke-linecap:butt;stroke-linejoin:miter;stroke-opacity:1"
         transform="matrix(2.6442872,0,0,2.6442872,1045.9188,209.4076)">
        <path
           inkscape:connector-curvature="0"
           id="path4165"
           style="font-style:normal;font-variant:normal;font-weight:bold;font-stretch:normal;font-family:sans-serif;-inkscape-font-specification:'sans-serif Bold';fill:#ffffff"
           d="m -337.7168,273.34653 7.5586,0 7.73437,21.52344 7.71485,-21.52344 7.55859,0 -10.80078,29.16016 -8.96485,0 -10.80078,-29.16016 z" />
        <path
           inkscape:connector-curvature="0"
           id="path4167"
           style="font-style:normal;font-variant:normal;font-weight:bold;font-stretch:normal;font-family:sans-serif;-inkscape-font-specification:'sans-serif Bold';fill:#ffffff"
           d="m -280.17773,300.90512 q -2.07032,1.07422 -4.31641,1.6211 -2.24609,0.54687 -4.6875,0.54687 -7.28516,0 -11.54297,-4.0625 -4.25781,-4.08203 -4.25781,-11.05469 0,-6.99218 4.25781,-11.05468 4.25781,-4.08203 11.54297,-4.08203 2.44141,0 4.6875,0.54687 2.24609,0.54688 4.31641,1.62109 l 0,6.03516 q -2.08985,-1.42578 -4.1211,-2.08984 -2.03125,-0.66407 -4.27734,-0.66407 -4.02344,0 -6.32813,2.57813 -2.30468,2.57812 -2.30468,7.10937 0,4.51172 2.30468,7.08985 2.30469,2.57812 6.32813,2.57812 2.24609,0 4.27734,-0.66406 2.03125,-0.66406 4.1211,-2.08984 l 0,6.03515 z" />
        <path
           inkscape:connector-curvature="0"
           id="path4169"
           style="font-style:normal;font-variant:normal;font-weight:bold;font-stretch:normal;font-family:sans-serif;-inkscape-font-specification:'sans-serif Bold';fill:#ffffff"
           d="m -273.92773,273.34653 20.29296,0 0,5.68359 -12.77343,0 0,5.42969 12.01172,0 0,5.68359 -12.01172,0 0,12.36329 -7.51953,0 0,-29.16016 z" />
      </g>
    </g>
  </g>
</svg>
