<?xml version="1.0" encoding="UTF-8" standalone="no"?>
<!-- Created with Inkscape (http://www.inkscape.org/) -->

<svg
   xmlns:dc="http://purl.org/dc/elements/1.1/"
   xmlns:cc="http://creativecommons.org/ns#"
   xmlns:rdf="http://www.w3.org/1999/02/22-rdf-syntax-ns#"
   xmlns:svg="http://www.w3.org/2000/svg"
   xmlns="http://www.w3.org/2000/svg"
   xmlns:sodipodi="http://sodipodi.sourceforge.net/DTD/sodipodi-0.dtd"
   xmlns:inkscape="http://www.inkscape.org/namespaces/inkscape"
   width="500"
   height="500"
   id="svg2"
   version="1.1"
   inkscape:version="0.91 r13725"
   sodipodi:docname="text-sgml.svg">
  <defs
     id="defs4" />
  <sodipodi:namedview
     id="base"
     pagecolor="#ffffff"
     bordercolor="#666666"
     borderopacity="1.0"
     inkscape:pageopacity="0.0"
     inkscape:pageshadow="2"
     inkscape:zoom="0.60666664"
     inkscape:cx="478.39375"
     inkscape:cy="228.3333"
     inkscape:document-units="px"
     inkscape:current-layer="layer1"
     showgrid="false"
     inkscape:window-width="1366"
     inkscape:window-height="715"
     inkscape:window-x="0"
     inkscape:window-y="24"
     inkscape:window-maximized="1" />
  <metadata
     id="metadata7">
    <rdf:RDF>
      <cc:Work
         rdf:about="">
        <dc:format>image/svg+xml</dc:format>
        <dc:type
           rdf:resource="http://purl.org/dc/dcmitype/StillImage" />
        <dc:title />
      </cc:Work>
    </rdf:RDF>
  </metadata>
  <g
     inkscape:label="Layer 1"
     inkscape:groupmode="layer"
     id="layer1"
     transform="translate(0,-552.36218)">
    <g
       id="g3355">
      <g
         id="g3354">
        <path
           style="fill:#f2f2f2;fill-rule:evenodd;stroke:#afafaf;stroke-width:5.03546047;stroke-linecap:butt;stroke-linejoin:miter;stroke-miterlimit:4;stroke-dasharray:none;stroke-opacity:1"
           d="m 97.040974,1029.8357 336.888376,-1.1739 1.17377,-363.88639 -88.03697,-89.21086 -250.025176,0 z"
           id="path3364"
           inkscape:connector-curvature="0" />
        <path
           style="fill:#ff6600;fill-opacity:1;stroke:none;stroke-width:5;stroke-miterlimit:4;stroke-dasharray:none;stroke-opacity:1"
           d="m 97.041016,907.86724 0,121.96756 336.888674,-1.0485 0.4375,-120.91906 -337.326174,0 z"
           id="rect4228"
           inkscape:connector-curvature="0" />
        <g
           id="g4173"
           transform="matrix(1.1614293,0,0,1.1614293,-36.416163,-299.88614)">
          <path
             sodipodi:nodetypes="ccccc"
             inkscape:connector-curvature="0"
             id="path2985"
             d="m 274.98633,802.74414 -60.10352,223.67966 21.78125,-0.1465 60.10352,-223.6816 z"
             style="color:#000000;font-style:normal;font-variant:normal;font-weight:normal;font-stretch:normal;font-size:medium;line-height:normal;font-family:sans-serif;text-indent:0;text-align:start;text-decoration:none;text-decoration-line:none;text-decoration-style:solid;text-decoration-color:#000000;letter-spacing:normal;word-spacing:normal;text-transform:none;direction:ltr;block-progression:tb;writing-mode:lr-tb;baseline-shift:baseline;text-anchor:start;white-space:normal;clip-rule:nonzero;display:inline;overflow:visible;visibility:visible;opacity:1;isolation:auto;mix-blend-mode:normal;color-interpolation:sRGB;color-interpolation-filters:linearRGB;solid-color:#000000;solid-opacity:1;fill:#ff6600;fill-opacity:1;fill-rule:nonzero;stroke:none;stroke-width:22.55397034;stroke-linecap:butt;stroke-linejoin:miter;stroke-miterlimit:4;stroke-dasharray:none;stroke-dashoffset:0;stroke-opacity:1;color-rendering:auto;image-rendering:auto;shape-rendering:auto;text-rendering:auto;enable-background:accumulate" />
          <path
             inkscape:connector-curvature="0"
             id="path3755"
             d="m 208.4249,970.0637 -57.62415,-58.24377 58.24377,-57.62415"
             style="fill:none;stroke:#ff6600;stroke-width:22.55397034;stroke-linecap:butt;stroke-linejoin:miter;stroke-miterlimit:4;stroke-dasharray:none;stroke-opacity:1" />
          <path
             inkscape:connector-curvature="0"
             id="path3755-3"
             d="M 311.28092,968.51466 368.90508,910.27089 310.6613,852.64674"
             style="fill:none;stroke:#ff6600;stroke-width:22.55397034;stroke-linecap:butt;stroke-linejoin:miter;stroke-miterlimit:4;stroke-dasharray:none;stroke-opacity:1" />
        </g>
      </g>
      <g
         id="flowRoot3340"
         style="font-style:normal;font-weight:normal;font-size:40px;line-height:125%;font-family:sans-serif;letter-spacing:0px;word-spacing:0px;fill:#ffffff;fill-opacity:1;stroke:none;stroke-width:1px;stroke-linecap:butt;stroke-linejoin:miter;stroke-opacity:1"
         transform="matrix(2.6442863,0,0,2.6442863,-222.25882,-78.86034)">
        <path
           inkscape:connector-curvature="0"
           id="path3349"
           style="font-style:normal;font-variant:normal;font-weight:bold;font-stretch:normal;font-family:sans-serif;-inkscape-font-specification:'sans-serif Bold';fill:#ffffff"
           d="m 157.48047,383.05551 0,6.17188 q -2.40235,-1.07422 -4.6875,-1.6211 -2.28516,-0.54687 -4.31641,-0.54687 -2.69531,0 -3.98437,0.74219 -1.28907,0.74218 -1.28907,2.30468 0,1.17188 0.85938,1.83594 0.87891,0.64453 3.16406,1.11328 l 3.20313,0.64453 q 4.86328,0.97657 6.91406,2.96875 2.05078,1.99219 2.05078,5.66407 0,4.82422 -2.87109,7.1875 -2.85157,2.34375 -8.73047,2.34375 -2.77344,0 -5.56641,-0.52735 -2.79297,-0.52734 -5.58594,-1.5625 l 0,-6.34765 q 2.79297,1.48437 5.39063,2.24609 2.61719,0.74219 5.03906,0.74219 2.46094,0 3.76953,-0.82031 1.3086,-0.82032 1.3086,-2.34375 0,-1.36719 -0.89844,-2.10938 -0.87891,-0.74219 -3.53516,-1.32812 l -2.91015,-0.64454 q -4.375,-0.9375 -6.40625,-2.98828 -2.01172,-2.05078 -2.01172,-5.52734 0,-4.35547 2.8125,-6.69922 2.8125,-2.34375 8.08594,-2.34375 2.40234,0 4.9414,0.37109 2.53906,0.35157 5.25391,1.07422 z" />
        <path
           inkscape:connector-curvature="0"
           id="path3351"
           style="font-style:normal;font-variant:normal;font-weight:bold;font-stretch:normal;font-family:sans-serif;-inkscape-font-specification:'sans-serif Bold';fill:#ffffff"
           d="m 192.22656,409.12973 q -2.8125,1.36719 -5.83984,2.05078 -3.02735,0.6836 -6.25,0.6836 -7.28516,0 -11.54297,-4.0625 -4.25781,-4.08203 -4.25781,-11.05469 0,-7.05078 4.33593,-11.09375 4.33594,-4.04297 11.875,-4.04297 2.91016,0 5.56641,0.54688 2.67578,0.54687 5.03906,1.62109 l 0,6.03516 q -2.4414,-1.38672 -4.86328,-2.07032 -2.40234,-0.68359 -4.82422,-0.68359 -4.49218,0 -6.93359,2.51953 -2.42188,2.5 -2.42188,7.16797 0,4.62891 2.34375,7.14844 2.34375,2.51953 6.66016,2.51953 1.17188,0 2.16797,-0.13672 1.01562,-0.15625 1.81641,-0.46875 l 0,-5.66406 -4.58985,0 0,-5.03907 11.71875,0 0,14.02344 z" />
        <path
           inkscape:connector-curvature="0"
           id="path3353"
           style="font-style:normal;font-variant:normal;font-weight:bold;font-stretch:normal;font-family:sans-serif;-inkscape-font-specification:'sans-serif Bold';fill:#ffffff"
           d="m 198.82812,382.13754 9.57032,0 6.64062,15.60547 6.67969,-15.60547 9.55078,0 0,29.16016 -7.10937,0 0,-21.32812 -6.71875,15.72265 -4.76563,0 -6.71875,-15.72265 0,21.32812 -7.12891,0 0,-29.16016 z" />
      </g>
    </g>
  </g>
</svg>
