<?xml version="1.0" encoding="UTF-8" standalone="no"?>
<!-- Created with Inkscape (http://www.inkscape.org/) -->

<svg
   xmlns:dc="http://purl.org/dc/elements/1.1/"
   xmlns:cc="http://creativecommons.org/ns#"
   xmlns:rdf="http://www.w3.org/1999/02/22-rdf-syntax-ns#"
   xmlns:svg="http://www.w3.org/2000/svg"
   xmlns="http://www.w3.org/2000/svg"
   xmlns:sodipodi="http://sodipodi.sourceforge.net/DTD/sodipodi-0.dtd"
   xmlns:inkscape="http://www.inkscape.org/namespaces/inkscape"
   width="500"
   height="500"
   id="svg2"
   version="1.1"
   inkscape:version="0.91 r13725"
   sodipodi:docname="text-vnd.abc.svg">
  <defs
     id="defs4" />
  <sodipodi:namedview
     id="base"
     pagecolor="#ffffff"
     bordercolor="#666666"
     borderopacity="1.0"
     inkscape:pageopacity="0.0"
     inkscape:pageshadow="2"
     inkscape:zoom="0.60666665"
     inkscape:cx="410.53776"
     inkscape:cy="304.24108"
     inkscape:document-units="px"
     inkscape:current-layer="layer1"
     showgrid="false"
     inkscape:window-width="1366"
     inkscape:window-height="715"
     inkscape:window-x="0"
     inkscape:window-y="24"
     inkscape:window-maximized="1" />
  <metadata
     id="metadata7">
    <rdf:RDF>
      <cc:Work
         rdf:about="">
        <dc:format>image/svg+xml</dc:format>
        <dc:type
           rdf:resource="http://purl.org/dc/dcmitype/StillImage" />
        <dc:title />
      </cc:Work>
    </rdf:RDF>
  </metadata>
  <g
     inkscape:label="Layer 1"
     inkscape:groupmode="layer"
     id="layer1"
     transform="translate(0,-552.36218)">
    <g
       id="g3356">
      <g
         id="g3358">
        <path
           style="fill:#f2f2f2;fill-rule:evenodd;stroke:#afafaf;stroke-width:5.03546047;stroke-linecap:butt;stroke-linejoin:miter;stroke-miterlimit:4;stroke-dasharray:none;stroke-opacity:1"
           d="m 97.040974,1029.8357 336.888376,-1.1739 1.17377,-363.88639 -88.03697,-89.21086 -250.025176,0 z"
           id="path3364"
           inkscape:connector-curvature="0" />
        <path
           style="fill:#394050;fill-opacity:1;stroke:none;stroke-width:5;stroke-miterlimit:4;stroke-dasharray:none;stroke-opacity:1"
           d="m 97.041016,907.86724 0,121.96756 336.888674,-1.0485 0.4375,-120.91906 -337.326174,0 z"
           id="rect4228"
           inkscape:connector-curvature="0" />
        <rect
           style="fill:#394050;fill-opacity:1;stroke:none"
           id="rect2990-3"
           width="276.15112"
           height="11.27785"
           x="126.6499"
           y="-775.77173"
           transform="scale(1,-1)" />
        <rect
           style="fill:#394050;fill-opacity:1;stroke:none"
           id="rect2990-3-7"
           width="276.56522"
           height="11.27785"
           x="127.73244"
           y="-726.93652"
           transform="scale(1,-1)" />
        <rect
           style="fill:#394050;fill-opacity:1;stroke:none"
           id="rect2990-3-35"
           width="189.36089"
           height="11.27785"
           x="127.73244"
           y="-676.57263"
           transform="scale(1,-1)" />
        <rect
           style="fill:#394050;fill-opacity:1;stroke:none"
           id="rect2990-3-2"
           width="276.15112"
           height="11.27785"
           x="124.82326"
           y="-872.95764"
           transform="scale(1,-1)" />
        <rect
           style="fill:#394050;fill-opacity:1;stroke:none"
           id="rect2990-3-7-2"
           width="276.56522"
           height="11.27785"
           x="125.90581"
           y="-824.1225"
           transform="scale(1,-1)" />
      </g>
      <g
         id="flowRoot3341"
         style="font-style:normal;font-weight:normal;font-size:105.77146912px;line-height:125%;font-family:sans-serif;letter-spacing:0px;word-spacing:0px;fill:#ffffff;fill-opacity:1;stroke:none;stroke-width:1px;stroke-linecap:butt;stroke-linejoin:miter;stroke-opacity:1"
         transform="translate(25.076924,46.505496)">
        <path
           id="path3350"
           style="font-style:normal;font-variant:normal;font-weight:bold;font-stretch:normal;font-family:sans-serif;-inkscape-font-specification:'sans-serif Bold';fill:#ffffff"
           d="m 176.31542,947.03415 -31.09102,0 -4.9064,14.04777 -19.98708,0 28.56036,-77.10781 23.70562,0 28.56036,77.10781 -19.98709,0 -4.85475,-14.04777 z m -26.13299,-14.30601 21.12331,0 -10.53583,-30.67786 -10.58748,30.67786 z" />
        <path
           id="path3352"
           style="font-style:normal;font-variant:normal;font-weight:bold;font-stretch:normal;font-family:sans-serif;-inkscape-font-specification:'sans-serif Bold';fill:#ffffff"
           d="m 242.216,913.82562 q 4.69981,0 7.12718,-2.06585 2.42737,-2.06584 2.42737,-6.09425 0,-3.97676 -2.42737,-6.04261 -2.42737,-2.11749 -7.12718,-2.11749 l -11.00064,0 0,16.3202 11.00064,0 z m 0.6714,33.72499 q 5.99097,0 8.98645,-2.53067 3.04712,-2.53066 3.04712,-7.64364 0,-5.00968 -2.99548,-7.4887 -2.99548,-2.53067 -9.03809,-2.53067 l -11.67204,0 0,20.19368 11.67204,0 z m 18.48935,-27.73402 q 6.40413,1.85926 9.91608,6.86894 3.51194,5.00969 3.51194,12.29181 0,11.15558 -7.54035,16.63008 -7.54035,5.4745 -22.93092,5.4745 l -33.00194,0 0,-77.10781 29.85152,0 q 16.06197,0 23.2408,4.85474 7.23047,4.85475 7.23047,15.54551 0,5.62944 -2.63396,9.6062 -2.63395,3.92512 -7.64364,5.83603 z" />
        <path
           id="path3354"
           style="font-style:normal;font-variant:normal;font-weight:bold;font-stretch:normal;font-family:sans-serif;-inkscape-font-specification:'sans-serif Bold';fill:#ffffff"
           d="m 353.04881,956.84693 q -5.4745,2.84054 -11.41382,4.28664 -5.93932,1.44609 -12.39509,1.44609 -19.26405,0 -30.52292,-10.74241 -11.25888,-10.79407 -11.25888,-29.23177 0,-18.48935 11.25888,-29.23176 11.25887,-10.79406 30.52292,-10.79406 6.45577,0 12.39509,1.44609 5.93932,1.4461 11.41382,4.28664 l 0,15.95868 q -5.52615,-3.77017 -10.89736,-5.52614 -5.3712,-1.75598 -11.31052,-1.75598 -10.63912,0 -16.73338,6.81731 -6.09425,6.8173 -6.09425,18.79922 0,11.93028 6.09425,18.74758 6.09426,6.8173 16.73338,6.8173 5.93932,0 11.31052,-1.75597 5.37121,-1.75597 10.89736,-5.52614 l 0,15.95868 z" />
      </g>
    </g>
  </g>
</svg>
