<?xml version="1.0" encoding="UTF-8" standalone="no"?>
<!-- Created with Inkscape (http://www.inkscape.org/) -->

<svg
   xmlns:dc="http://purl.org/dc/elements/1.1/"
   xmlns:cc="http://creativecommons.org/ns#"
   xmlns:rdf="http://www.w3.org/1999/02/22-rdf-syntax-ns#"
   xmlns:svg="http://www.w3.org/2000/svg"
   xmlns="http://www.w3.org/2000/svg"
   xmlns:sodipodi="http://sodipodi.sourceforge.net/DTD/sodipodi-0.dtd"
   xmlns:inkscape="http://www.inkscape.org/namespaces/inkscape"
   width="500"
   height="500"
   id="svg2"
   version="1.1"
   inkscape:version="0.91 r13725"
   sodipodi:docname="text-x-tex.svg">
  <defs
     id="defs4" />
  <sodipodi:namedview
     id="base"
     pagecolor="#ffffff"
     bordercolor="#666666"
     borderopacity="1.0"
     inkscape:pageopacity="0.0"
     inkscape:pageshadow="2"
     inkscape:zoom="0.4289781"
     inkscape:cx="99.964747"
     inkscape:cy="425.42158"
     inkscape:document-units="px"
     inkscape:current-layer="layer1"
     showgrid="false"
     inkscape:window-width="1366"
     inkscape:window-height="715"
     inkscape:window-x="0"
     inkscape:window-y="24"
     inkscape:window-maximized="1" />
  <metadata
     id="metadata7">
    <rdf:RDF>
      <cc:Work
         rdf:about="">
        <dc:format>image/svg+xml</dc:format>
        <dc:type
           rdf:resource="http://purl.org/dc/dcmitype/StillImage" />
        <dc:title />
      </cc:Work>
    </rdf:RDF>
  </metadata>
  <g
     inkscape:label="Layer 1"
     inkscape:groupmode="layer"
     id="layer1"
     transform="translate(0,-552.36218)">
    <g
       id="g4165">
      <path
         inkscape:connector-curvature="0"
         id="path3364"
         d="m 97.040974,1029.8357 336.888376,-1.1739 1.17377,-363.88639 -88.03697,-89.21086 -250.025176,0 z"
         style="fill:#f2f2f2;fill-rule:evenodd;stroke:#afafaf;stroke-width:5.03546047;stroke-linecap:butt;stroke-linejoin:miter;stroke-miterlimit:4;stroke-dasharray:none;stroke-opacity:1" />
      <path
         inkscape:connector-curvature="0"
         id="rect4228"
         d="m 97.041016,907.86724 0,121.96756 336.888674,-1.0485 0.4375,-120.91906 -337.326174,0 z"
         style="fill:#892ca0;fill-opacity:1;stroke:none;stroke-width:5;stroke-miterlimit:4;stroke-dasharray:none;stroke-opacity:1" />
      <path
         sodipodi:nodetypes="ccccccccccccccccccccccccccccccccccccc"
         id="rect4274"
         d="m 143.68133,638.90061 0,11.36364 0,11.36363 248.44348,0 0,-11.36363 0,-11.36364 z m 0,56.81818 0,11.36363 79.0502,0 0,-11.36363 z m 0,34.0909 0,11.36364 101.63597,0 0,-11.36364 z m 0,34.09091 0,11.36364 124.22175,0 0,-11.36364 z m 0,34.09091 0,11.36363 124.22175,0 0,-11.36363 z m 0,34.0909 0,11.36365 101.63597,0 0,-11.36365 z m 0,34.09095 0,11.3637 67.75731,0 0,-11.3637 z"
         style="fill:#394050;fill-opacity:1;stroke:none"
         inkscape:connector-curvature="0" />
      <path
         sodipodi:nodetypes="cccccccccscccsscccc"
         id="rect4274-3"
         d="m 240.87504,684.35512 0.35234,9.94318 67.75731,92.32955 -73.40375,90.90921 0,11.3636 158.10039,0 0,-56.81828 -11.29289,0 c 0,11.36364 2.92836,18.40943 -6.70516,25.21304 -10.56142,7.45874 -24.4702,8.87794 -36.70187,8.87794 l -58.22893,0 56.46443,-79.54551 -56.46443,-90.90909 33.17285,0 c 23.53539,0 57.03302,-2.18648 66.3457,26.27841 1.59195,4.86579 1.71663,14.06703 2.11741,19.17612 l 11.29289,0 0,-56.81817 z"
         style="fill:#892ca0;fill-opacity:1;stroke:none"
         inkscape:connector-curvature="0" />
      <g
         id="flowRoot4150"
         style="font-style:normal;font-weight:normal;font-size:40px;line-height:125%;font-family:sans-serif;letter-spacing:0px;word-spacing:0px;fill:#ffffff;fill-opacity:1;stroke:none;stroke-width:1px;stroke-linecap:butt;stroke-linejoin:miter;stroke-opacity:1"
         transform="matrix(2.6442863,0,0,2.6442863,-247.68411,-80.885918)">
        <path
           inkscape:connector-curvature="0"
           id="path4159"
           style="font-style:normal;font-variant:normal;font-weight:bold;font-stretch:normal;font-family:sans-serif;-inkscape-font-specification:'sans-serif Bold';fill:#ffffff"
           d="m 178.44531,410.52036 q -2.07031,1.07422 -4.3164,1.62109 -2.2461,0.54688 -4.6875,0.54688 -7.28516,0 -11.54297,-4.0625 -4.25782,-4.08204 -4.25782,-11.05469 0,-6.99219 4.25782,-11.05469 4.25781,-4.08203 11.54297,-4.08203 2.4414,0 4.6875,0.54687 2.24609,0.54688 4.3164,1.6211 l 0,6.03515 q -2.08984,-1.42578 -4.12109,-2.08984 -2.03125,-0.66406 -4.27735,-0.66406 -4.02343,0 -6.32812,2.57812 -2.30469,2.57813 -2.30469,7.10938 0,4.51172 2.30469,7.08984 2.30469,2.57813 6.32812,2.57813 2.2461,0 4.27735,-0.66407 2.03125,-0.66406 4.12109,-2.08984 l 0,6.03516 z" />
        <path
           inkscape:connector-curvature="0"
           id="path4161"
           style="font-style:normal;font-variant:normal;font-weight:bold;font-stretch:normal;font-family:sans-serif;-inkscape-font-specification:'sans-serif Bold';fill:#ffffff"
           d="m 184.69531,382.96176 7.51953,0 0,23.47657 13.20313,0 0,5.68359 -20.72266,0 0,-29.16016 z" />
        <path
           inkscape:connector-curvature="0"
           id="path4163"
           style="font-style:normal;font-variant:normal;font-weight:bold;font-stretch:normal;font-family:sans-serif;-inkscape-font-specification:'sans-serif Bold';fill:#ffffff"
           d="m 230.45703,383.87973 0,6.17188 q -2.40234,-1.07422 -4.6875,-1.6211 -2.28516,-0.54687 -4.31641,-0.54687 -2.69531,0 -3.98437,0.74219 -1.28906,0.74218 -1.28906,2.30468 0,1.17188 0.85937,1.83594 0.87891,0.64453 3.16406,1.11328 l 3.20313,0.64453 q 4.86328,0.97657 6.91406,2.96875 2.05078,1.99219 2.05078,5.66407 0,4.82421 -2.87109,7.1875 -2.85156,2.34375 -8.73047,2.34375 -2.77344,0 -5.56641,-0.52735 -2.79296,-0.52734 -5.58593,-1.5625 l 0,-6.34765 q 2.79297,1.48437 5.39062,2.24609 2.61719,0.74219 5.03906,0.74219 2.46094,0 3.76954,-0.82032 1.30859,-0.82031 1.30859,-2.34375 0,-1.36718 -0.89844,-2.10937 -0.8789,-0.74219 -3.53515,-1.32813 l -2.91016,-0.64453 q -4.375,-0.9375 -6.40625,-2.98828 -2.01172,-2.05078 -2.01172,-5.52734 0,-4.35547 2.8125,-6.69922 2.8125,-2.34375 8.08594,-2.34375 2.40234,0 4.9414,0.37109 2.53907,0.35157 5.25391,1.07422 z" />
      </g>
    </g>
  </g>
</svg>
