<?xml version="1.0" encoding="UTF-8" standalone="no"?>
<!-- Created with Inkscape (http://www.inkscape.org/) -->

<svg
   xmlns:dc="http://purl.org/dc/elements/1.1/"
   xmlns:cc="http://creativecommons.org/ns#"
   xmlns:rdf="http://www.w3.org/1999/02/22-rdf-syntax-ns#"
   xmlns:svg="http://www.w3.org/2000/svg"
   xmlns="http://www.w3.org/2000/svg"
   xmlns:sodipodi="http://sodipodi.sourceforge.net/DTD/sodipodi-0.dtd"
   xmlns:inkscape="http://www.inkscape.org/namespaces/inkscape"
   width="500"
   height="500"
   id="svg2"
   version="1.1"
   inkscape:version="0.91 r13725"
   sodipodi:docname="text-x-log.svg">
  <defs
     id="defs4" />
  <sodipodi:namedview
     id="base"
     pagecolor="#ffffff"
     bordercolor="#666666"
     borderopacity="1.0"
     inkscape:pageopacity="0.0"
     inkscape:pageshadow="2"
     inkscape:zoom="0.60666665"
     inkscape:cx="410.53776"
     inkscape:cy="304.12089"
     inkscape:document-units="px"
     inkscape:current-layer="layer1"
     showgrid="false"
     inkscape:window-width="1366"
     inkscape:window-height="715"
     inkscape:window-x="0"
     inkscape:window-y="24"
     inkscape:window-maximized="1" />
  <metadata
     id="metadata7">
    <rdf:RDF>
      <cc:Work
         rdf:about="">
        <dc:format>image/svg+xml</dc:format>
        <dc:type
           rdf:resource="http://purl.org/dc/dcmitype/StillImage" />
        <dc:title />
      </cc:Work>
    </rdf:RDF>
  </metadata>
  <g
     inkscape:label="Layer 1"
     inkscape:groupmode="layer"
     id="layer1"
     transform="translate(0,-552.36218)">
    <g
       id="g3356">
      <g
         id="g3358">
        <path
           style="fill:#f2f2f2;fill-rule:evenodd;stroke:#afafaf;stroke-width:5.03546047;stroke-linecap:butt;stroke-linejoin:miter;stroke-miterlimit:4;stroke-dasharray:none;stroke-opacity:1"
           d="m 97.040974,1029.8357 336.888376,-1.1739 1.17377,-363.88639 -88.03697,-89.21086 -250.025176,0 z"
           id="path3364"
           inkscape:connector-curvature="0" />
        <path
           style="fill:#394050;fill-opacity:1;stroke:none;stroke-width:5;stroke-miterlimit:4;stroke-dasharray:none;stroke-opacity:1"
           d="m 97.041016,907.86724 0,121.96756 336.888674,-1.0485 0.4375,-120.91906 -337.326174,0 z"
           id="rect4228"
           inkscape:connector-curvature="0" />
        <rect
           style="fill:#394050;fill-opacity:1;stroke:none"
           id="rect2990-3"
           width="276.15112"
           height="11.27785"
           x="126.6499"
           y="-775.77173"
           transform="scale(1,-1)" />
        <rect
           style="fill:#394050;fill-opacity:1;stroke:none"
           id="rect2990-3-7"
           width="276.56522"
           height="11.27785"
           x="127.73244"
           y="-726.93652"
           transform="scale(1,-1)" />
        <rect
           style="fill:#394050;fill-opacity:1;stroke:none"
           id="rect2990-3-35"
           width="189.36089"
           height="11.27785"
           x="127.73244"
           y="-676.57263"
           transform="scale(1,-1)" />
        <rect
           style="fill:#394050;fill-opacity:1;stroke:none"
           id="rect2990-3-2"
           width="276.15112"
           height="11.27785"
           x="124.82326"
           y="-872.95764"
           transform="scale(1,-1)" />
        <rect
           style="fill:#394050;fill-opacity:1;stroke:none"
           id="rect2990-3-7-2"
           width="276.56522"
           height="11.27785"
           x="125.90581"
           y="-824.1225"
           transform="scale(1,-1)" />
      </g>
      <g
         id="flowRoot3341"
         style="font-style:normal;font-weight:normal;font-size:40px;line-height:125%;font-family:sans-serif;letter-spacing:0px;word-spacing:0px;fill:#ffffff;fill-opacity:1;stroke:none;stroke-width:1px;stroke-linecap:butt;stroke-linejoin:miter;stroke-opacity:1"
         transform="matrix(1.3221434,0,0,1.3221434,623.03028,467.73335)">
        <path
           inkscape:connector-curvature="0"
           id="path3350"
           style="font-style:normal;font-variant:normal;font-weight:bold;font-stretch:normal;font-size:80px;font-family:sans-serif;-inkscape-font-specification:'sans-serif Bold';fill:#ffffff"
           d="m -356.94141,351.64032 15.03907,0 0,46.95313 26.40625,0 0,11.36719 -41.44532,0 0,-58.32032 z" />
        <path
           inkscape:connector-curvature="0"
           id="path3352"
           style="font-style:normal;font-variant:normal;font-weight:bold;font-stretch:normal;font-size:80px;font-family:sans-serif;-inkscape-font-specification:'sans-serif Bold';fill:#ffffff"
           d="m -282.17578,361.48407 q -6.875,0 -10.66406,5.07813 -3.78907,5.07812 -3.78907,14.29687 0,9.17969 3.78907,14.25782 3.78906,5.07812 10.66406,5.07812 6.91406,0 10.70312,-5.07812 3.78907,-5.07813 3.78907,-14.25782 0,-9.21875 -3.78907,-14.29687 -3.78906,-5.07813 -10.70312,-5.07813 z m 0,-10.89843 q 14.0625,0 22.03125,8.04687 7.96875,8.04688 7.96875,22.22656 0,14.14063 -7.96875,22.1875 -7.96875,8.04688 -22.03125,8.04688 -14.02344,0 -22.03125,-8.04688 -7.96875,-8.04687 -7.96875,-22.1875 0,-14.17968 7.96875,-22.22656 8.00781,-8.04687 22.03125,-8.04687 z" />
        <path
           inkscape:connector-curvature="0"
           id="path3354"
           style="font-style:normal;font-variant:normal;font-weight:bold;font-stretch:normal;font-size:80px;font-family:sans-serif;-inkscape-font-specification:'sans-serif Bold';fill:#ffffff"
           d="m -188.42578,405.6247 q -5.625,2.73437 -11.67969,4.10156 -6.05469,1.36719 -12.5,1.36719 -14.57031,0 -23.08594,-8.125 -8.51562,-8.16406 -8.51562,-22.10938 0,-14.10156 8.67187,-22.1875 8.67188,-8.08593 23.75,-8.08593 5.82032,0 11.13282,1.09375 5.35156,1.09375 10.07812,3.24218 l 0,12.07032 q -4.88281,-2.77344 -9.72656,-4.14063 -4.80469,-1.36719 -9.64844,-1.36719 -8.98437,0 -13.86719,5.03907 -4.84375,5 -4.84375,14.33593 0,9.25782 4.6875,14.29688 4.6875,5.03906 13.32032,5.03906 2.34375,0 4.33593,-0.27344 2.03125,-0.3125 3.63282,-0.9375 l 0,-11.32812 -9.17969,0 0,-10.07813 23.4375,0 0,28.04688 z" />
      </g>
    </g>
  </g>
</svg>
