<?xml version="1.0" encoding="UTF-8" standalone="no"?>
<!-- Created with Inkscape (http://www.inkscape.org/) -->

<svg
   xmlns:dc="http://purl.org/dc/elements/1.1/"
   xmlns:cc="http://creativecommons.org/ns#"
   xmlns:rdf="http://www.w3.org/1999/02/22-rdf-syntax-ns#"
   xmlns:svg="http://www.w3.org/2000/svg"
   xmlns="http://www.w3.org/2000/svg"
   xmlns:sodipodi="http://sodipodi.sourceforge.net/DTD/sodipodi-0.dtd"
   xmlns:inkscape="http://www.inkscape.org/namespaces/inkscape"
   width="500"
   height="500"
   id="svg2"
   version="1.1"
   inkscape:version="0.91 r13725"
   sodipodi:docname="text-css.svg">
  <defs
     id="defs4" />
  <sodipodi:namedview
     id="base"
     pagecolor="#ffffff"
     bordercolor="#666666"
     borderopacity="1.0"
     inkscape:pageopacity="0.0"
     inkscape:pageshadow="2"
     inkscape:zoom="0.60666664"
     inkscape:cx="31.176308"
     inkscape:cy="203.79118"
     inkscape:document-units="px"
     inkscape:current-layer="layer1"
     showgrid="false"
     inkscape:window-width="1366"
     inkscape:window-height="715"
     inkscape:window-x="0"
     inkscape:window-y="24"
     inkscape:window-maximized="1" />
  <metadata
     id="metadata7">
    <rdf:RDF>
      <cc:Work
         rdf:about="">
        <dc:format>image/svg+xml</dc:format>
        <dc:type
           rdf:resource="http://purl.org/dc/dcmitype/StillImage" />
        <dc:title />
      </cc:Work>
    </rdf:RDF>
  </metadata>
  <g
     inkscape:label="Layer 1"
     inkscape:groupmode="layer"
     id="layer1"
     transform="translate(0,-552.36218)">
    <g
       id="g4156">
      <g
         id="g3364">
        <path
           style="fill:#f2f2f2;fill-rule:evenodd;stroke:#afafaf;stroke-width:5.03546047;stroke-linecap:butt;stroke-linejoin:miter;stroke-miterlimit:4;stroke-dasharray:none;stroke-opacity:1"
           d="m 97.040974,1029.8357 336.888376,-1.1739 1.17377,-363.88639 -88.03697,-89.21086 -250.025176,0 z"
           id="path3364"
           inkscape:connector-curvature="0" />
        <path
           style="fill:#ff6600;fill-opacity:1;stroke:none;stroke-width:5;stroke-miterlimit:4;stroke-dasharray:none;stroke-opacity:1"
           d="m 97.041016,907.86724 0,121.96756 336.888674,-1.0485 0.4375,-120.91906 -337.326174,0 z"
           id="rect4228"
           inkscape:connector-curvature="0" />
        <g
           transform="translate(-1.284765,-147.28867)"
           id="g4149">
          <path
             inkscape:connector-curvature="0"
             id="path2994"
             d="m 164.50391,898.92383 c -1.38604,-0.0458 -2.18555,0.01 -2.18555,0.01 l 1.25781,19.06836 c 0,0 6.28874,-0.37605 12.73438,4.03516 6.44563,4.41121 13.88646,13.42294 12.73047,39.01172 -1.35711,30.04045 9.65915,47.64323 22.09179,55.75973 12.43265,8.1165 25.47461,7.2187 25.47461,7.2187 l -1.20117,-19.0722 c 0,0 -6.92358,0.3611 -13.82813,-4.1465 -6.90454,-4.50753 -14.59865,-13.40956 -13.44726,-38.89645 1.3525,-29.93855 -9.02675,-47.43361 -21.02734,-55.64649 -9.00045,-6.15965 -18.44149,-7.20449 -22.59961,-7.34179 z"
             style="color:#000000;font-style:normal;font-variant:normal;font-weight:normal;font-stretch:normal;font-size:medium;line-height:normal;font-family:sans-serif;text-indent:0;text-align:start;text-decoration:none;text-decoration-line:none;text-decoration-style:solid;text-decoration-color:#000000;letter-spacing:normal;word-spacing:normal;text-transform:none;direction:ltr;block-progression:tb;writing-mode:lr-tb;baseline-shift:baseline;text-anchor:start;white-space:normal;clip-rule:nonzero;display:inline;overflow:visible;visibility:visible;opacity:1;isolation:auto;mix-blend-mode:normal;color-interpolation:sRGB;color-interpolation-filters:linearRGB;solid-color:#000000;solid-opacity:1;fill:#ff6600;fill-opacity:1;fill-rule:nonzero;stroke:none;stroke-width:19.11001396;stroke-linecap:butt;stroke-linejoin:miter;stroke-miterlimit:4;stroke-dasharray:none;stroke-dashoffset:0;stroke-opacity:1;color-rendering:auto;image-rendering:auto;shape-rendering:auto;text-rendering:auto;enable-background:accumulate" />
          <path
             inkscape:connector-curvature="0"
             id="path2994-3"
             d="m 234.375,774.07422 c -4.2509,0.12785 -13.91771,1.14307 -23.24219,7.23047 -12.43264,8.11652 -23.4489,25.72127 -22.09179,55.76172 1.15599,25.58877 -6.28484,34.6005 -12.73047,39.01171 -6.44564,4.41122 -12.73438,4.03516 -12.73438,4.03516 l -1.25781,19.06836 c 0,0 12.78456,0.88085 24.78516,-7.33203 12.00059,-8.21288 22.37984,-25.70794 21.02734,-55.64649 -1.15139,-25.48688 6.54272,-34.38892 13.44726,-38.89648 6.90455,-4.50756 13.82813,-4.14844 13.82813,-4.14844 l 1.20117,-19.07226 c 0,0 -0.81545,-0.0543 -2.23242,-0.0117 z"
             style="color:#000000;font-style:normal;font-variant:normal;font-weight:normal;font-stretch:normal;font-size:medium;line-height:normal;font-family:sans-serif;text-indent:0;text-align:start;text-decoration:none;text-decoration-line:none;text-decoration-style:solid;text-decoration-color:#000000;letter-spacing:normal;word-spacing:normal;text-transform:none;direction:ltr;block-progression:tb;writing-mode:lr-tb;baseline-shift:baseline;text-anchor:start;white-space:normal;clip-rule:nonzero;display:inline;overflow:visible;visibility:visible;opacity:1;isolation:auto;mix-blend-mode:normal;color-interpolation:sRGB;color-interpolation-filters:linearRGB;solid-color:#000000;solid-opacity:1;fill:#ff6600;fill-opacity:1;fill-rule:nonzero;stroke:none;stroke-width:19.11001396;stroke-linecap:butt;stroke-linejoin:miter;stroke-miterlimit:4;stroke-dasharray:none;stroke-dashoffset:0;stroke-opacity:1;color-rendering:auto;image-rendering:auto;shape-rendering:auto;text-rendering:auto;enable-background:accumulate" />
          <path
             inkscape:connector-curvature="0"
             id="path2994-6"
             d="m 373.14258,898.92383 c -4.15812,0.1373 -13.59916,1.18214 -22.59961,7.34179 -12.0006,8.21288 -22.37985,25.70599 -21.02735,55.64454 1.1514,25.48693 -6.54272,34.39087 -13.44726,38.89844 -6.90454,4.5076 -13.82813,4.1465 -13.82813,4.1465 l -1.20117,19.0722 c 0,0 13.04197,0.8978 25.47461,-7.2187 12.43265,-8.1165 23.4489,-25.71928 22.0918,-55.75977 -1.156,-25.58878 6.28484,-34.60051 12.73047,-39.01172 6.44563,-4.41121 12.73437,-4.03516 12.73437,-4.03516 l 1.25781,-19.06836 c 0,0 -0.7995,-0.0555 -2.18554,-0.01 z"
             style="color:#000000;font-style:normal;font-variant:normal;font-weight:normal;font-stretch:normal;font-size:medium;line-height:normal;font-family:sans-serif;text-indent:0;text-align:start;text-decoration:none;text-decoration-line:none;text-decoration-style:solid;text-decoration-color:#000000;letter-spacing:normal;word-spacing:normal;text-transform:none;direction:ltr;block-progression:tb;writing-mode:lr-tb;baseline-shift:baseline;text-anchor:start;white-space:normal;clip-rule:nonzero;display:inline;overflow:visible;visibility:visible;opacity:1;isolation:auto;mix-blend-mode:normal;color-interpolation:sRGB;color-interpolation-filters:linearRGB;solid-color:#000000;solid-opacity:1;fill:#ff6600;fill-opacity:1;fill-rule:nonzero;stroke:none;stroke-width:19.11001396;stroke-linecap:butt;stroke-linejoin:miter;stroke-miterlimit:4;stroke-dasharray:none;stroke-dashoffset:0;stroke-opacity:1;color-rendering:auto;image-rendering:auto;shape-rendering:auto;text-rendering:auto;enable-background:accumulate" />
          <path
             inkscape:connector-curvature="0"
             id="path2994-3-7"
             d="m 303.27148,774.07422 c -1.41696,-0.0426 -2.23242,0.0117 -2.23242,0.0117 l 1.20117,19.07226 c 0,0 6.92359,-0.35912 13.82813,4.14844 6.90454,4.50756 14.59866,13.40961 13.44726,38.89648 -1.3525,29.93855 9.02675,47.43361 21.02735,55.64649 12.0006,8.21288 24.78515,7.33203 24.78515,7.33203 l -1.25781,-19.06836 c 0,0 -6.28874,0.37606 -12.73437,-4.03516 -6.44563,-4.41121 -13.88647,-13.42294 -12.73047,-39.01171 1.3571,-30.04045 -9.65916,-47.6452 -22.0918,-55.76172 -9.32448,-6.0874 -18.99128,-7.10262 -23.24219,-7.23047 z"
             style="color:#000000;font-style:normal;font-variant:normal;font-weight:normal;font-stretch:normal;font-size:medium;line-height:normal;font-family:sans-serif;text-indent:0;text-align:start;text-decoration:none;text-decoration-line:none;text-decoration-style:solid;text-decoration-color:#000000;letter-spacing:normal;word-spacing:normal;text-transform:none;direction:ltr;block-progression:tb;writing-mode:lr-tb;baseline-shift:baseline;text-anchor:start;white-space:normal;clip-rule:nonzero;display:inline;overflow:visible;visibility:visible;opacity:1;isolation:auto;mix-blend-mode:normal;color-interpolation:sRGB;color-interpolation-filters:linearRGB;solid-color:#000000;solid-opacity:1;fill:#ff6600;fill-opacity:1;fill-rule:nonzero;stroke:none;stroke-width:19.11001396;stroke-linecap:butt;stroke-linejoin:miter;stroke-miterlimit:4;stroke-dasharray:none;stroke-dashoffset:0;stroke-opacity:1;color-rendering:auto;image-rendering:auto;shape-rendering:auto;text-rendering:auto;enable-background:accumulate" />
        </g>
      </g>
      <g
         id="flowRoot4141"
         style="font-style:normal;font-weight:normal;font-size:40px;line-height:125%;font-family:sans-serif;letter-spacing:0px;word-spacing:0px;fill:#ffffff;fill-opacity:1;stroke:none;stroke-width:1px;stroke-linecap:butt;stroke-linejoin:miter;stroke-opacity:1"
         transform="matrix(2.6442872,0,0,2.6442872,-260.05032,-85.57119)">
        <path
           inkscape:connector-curvature="0"
           id="path4150"
           style="font-style:normal;font-variant:normal;font-weight:bold;font-stretch:normal;font-family:sans-serif;-inkscape-font-specification:'sans-serif Bold';fill:#ffffff"
           d="m 181.74219,411.34458 q -2.07032,1.07421 -4.31641,1.62109 -2.24609,0.54687 -4.6875,0.54687 -7.28516,0 -11.54297,-4.0625 -4.25781,-4.08203 -4.25781,-11.05468 0,-6.99219 4.25781,-11.05469 4.25781,-4.08203 11.54297,-4.08203 2.44141,0 4.6875,0.54687 2.24609,0.54688 4.31641,1.6211 l 0,6.03515 q -2.08985,-1.42578 -4.1211,-2.08984 -2.03125,-0.66406 -4.27734,-0.66406 -4.02344,0 -6.32813,2.57812 -2.30468,2.57813 -2.30468,7.10938 0,4.51172 2.30468,7.08984 2.30469,2.57813 6.32813,2.57813 2.24609,0 4.27734,-0.66407 2.03125,-0.66406 4.1211,-2.08984 l 0,6.03516 z" />
        <path
           inkscape:connector-curvature="0"
           id="path4152"
           style="font-style:normal;font-variant:normal;font-weight:bold;font-stretch:normal;font-family:sans-serif;-inkscape-font-specification:'sans-serif Bold';fill:#ffffff"
           d="m 209.06641,384.70395 0,6.17188 q -2.40235,-1.07422 -4.6875,-1.6211 -2.28516,-0.54687 -4.31641,-0.54687 -2.69531,0 -3.98438,0.74218 -1.28906,0.74219 -1.28906,2.30469 0,1.17188 0.85938,1.83594 0.8789,0.64453 3.16406,1.11328 l 3.20312,0.64453 q 4.86329,0.97656 6.91407,2.96875 2.05078,1.99219 2.05078,5.66406 0,4.82422 -2.8711,7.1875 -2.85156,2.34375 -8.73046,2.34375 -2.77344,0 -5.56641,-0.52734 -2.79297,-0.52734 -5.58594,-1.5625 l 0,-6.34766 q 2.79297,1.48438 5.39063,2.2461 2.61718,0.74219 5.03906,0.74219 2.46094,0 3.76953,-0.82032 1.30859,-0.82031 1.30859,-2.34375 0,-1.36718 -0.89843,-2.10937 -0.87891,-0.74219 -3.53516,-1.32813 l -2.91016,-0.64453 q -4.375,-0.9375 -6.40625,-2.98828 -2.01171,-2.05078 -2.01171,-5.52734 0,-4.35547 2.8125,-6.69922 2.8125,-2.34375 8.08593,-2.34375 2.40235,0 4.94141,0.37109 2.53906,0.35156 5.25391,1.07422 z" />
        <path
           inkscape:connector-curvature="0"
           id="path4154"
           style="font-style:normal;font-variant:normal;font-weight:bold;font-stretch:normal;font-family:sans-serif;-inkscape-font-specification:'sans-serif Bold';fill:#ffffff"
           d="m 236.09766,384.70395 0,6.17188 q -2.40235,-1.07422 -4.6875,-1.6211 -2.28516,-0.54687 -4.31641,-0.54687 -2.69531,0 -3.98438,0.74218 -1.28906,0.74219 -1.28906,2.30469 0,1.17188 0.85938,1.83594 0.8789,0.64453 3.16406,1.11328 l 3.20312,0.64453 q 4.86329,0.97656 6.91407,2.96875 2.05078,1.99219 2.05078,5.66406 0,4.82422 -2.8711,7.1875 -2.85156,2.34375 -8.73046,2.34375 -2.77344,0 -5.56641,-0.52734 -2.79297,-0.52734 -5.58594,-1.5625 l 0,-6.34766 q 2.79297,1.48438 5.39063,2.2461 2.61718,0.74219 5.03906,0.74219 2.46094,0 3.76953,-0.82032 1.30859,-0.82031 1.30859,-2.34375 0,-1.36718 -0.89843,-2.10937 -0.87891,-0.74219 -3.53516,-1.32813 l -2.91016,-0.64453 q -4.375,-0.9375 -6.40625,-2.98828 -2.01171,-2.05078 -2.01171,-5.52734 0,-4.35547 2.8125,-6.69922 2.8125,-2.34375 8.08593,-2.34375 2.40235,0 4.94141,0.37109 2.53906,0.35156 5.25391,1.07422 z" />
      </g>
    </g>
  </g>
</svg>
