<?xml version="1.0" encoding="UTF-8" standalone="no"?>
<!-- Created with Inkscape (http://www.inkscape.org/) -->

<svg
   xmlns:dc="http://purl.org/dc/elements/1.1/"
   xmlns:cc="http://creativecommons.org/ns#"
   xmlns:rdf="http://www.w3.org/1999/02/22-rdf-syntax-ns#"
   xmlns:svg="http://www.w3.org/2000/svg"
   xmlns="http://www.w3.org/2000/svg"
   xmlns:sodipodi="http://sodipodi.sourceforge.net/DTD/sodipodi-0.dtd"
   xmlns:inkscape="http://www.inkscape.org/namespaces/inkscape"
   width="500"
   height="500"
   id="svg2"
   version="1.1"
   inkscape:version="0.91 r13725"
   sodipodi:docname="text-x-changelog.svg">
  <defs
     id="defs4" />
  <sodipodi:namedview
     id="base"
     pagecolor="#ffffff"
     bordercolor="#666666"
     borderopacity="1.0"
     inkscape:pageopacity="0.0"
     inkscape:pageshadow="2"
     inkscape:zoom="0.60666665"
     inkscape:cx="447.83499"
     inkscape:cy="267.61859"
     inkscape:document-units="px"
     inkscape:current-layer="layer1"
     showgrid="false"
     inkscape:window-width="1366"
     inkscape:window-height="715"
     inkscape:window-x="0"
     inkscape:window-y="24"
     inkscape:window-maximized="1" />
  <metadata
     id="metadata7">
    <rdf:RDF>
      <cc:Work
         rdf:about="">
        <dc:format>image/svg+xml</dc:format>
        <dc:type
           rdf:resource="http://purl.org/dc/dcmitype/StillImage" />
        <dc:title />
      </cc:Work>
    </rdf:RDF>
  </metadata>
  <g
     inkscape:label="Layer 1"
     inkscape:groupmode="layer"
     id="layer1"
     transform="translate(0,-552.36218)">
    <g
       id="g4193">
      <path
         inkscape:connector-curvature="0"
         id="path3364"
         d="m 97.040974,1029.8357 336.888376,-1.1739 1.17377,-363.88639 -88.03697,-89.21086 -250.025176,0 z"
         style="fill:#f2f2f2;fill-rule:evenodd;stroke:#afafaf;stroke-width:5.03546047;stroke-linecap:butt;stroke-linejoin:miter;stroke-miterlimit:4;stroke-dasharray:none;stroke-opacity:1" />
      <path
         inkscape:connector-curvature="0"
         id="rect4228"
         d="m 97.041016,907.86724 0,121.96756 336.888674,-1.0485 0.4375,-120.91906 -337.326174,0 z"
         style="fill:#394050;fill-opacity:1;stroke:none;stroke-width:5;stroke-miterlimit:4;stroke-dasharray:none;stroke-opacity:1" />
      <g
         id="g4170">
        <rect
           style="fill:#b3b3b3;fill-opacity:1;stroke:none"
           id="rect2990-3"
           width="297.32489"
           height="12.142574"
           x="114.64906"
           y="759.47931" />
        <rect
           style="fill:#b3b3b3;fill-opacity:1;stroke:none"
           id="rect2990-3-7"
           width="297.77072"
           height="12.142574"
           x="115.8147"
           y="812.0589" />
        <rect
           style="fill:#b3b3b3;fill-opacity:1;stroke:none"
           id="rect2990-3-35"
           width="203.88005"
           height="12.142574"
           x="115.8147"
           y="-666.98425"
           transform="scale(1,-1)" />
        <rect
           style="fill:#b3b3b3;fill-opacity:1;stroke:none"
           id="rect2990-3-2"
           width="297.32489"
           height="12.142574"
           x="112.68238"
           y="-878.427"
           transform="scale(1,-1)" />
        <rect
           style="fill:#b3b3b3;fill-opacity:1;stroke:none"
           id="rect2990-3-7-2"
           width="297.77072"
           height="12.142574"
           x="113.84791"
           y="707.42126" />
        <g
           transform="matrix(0.87907857,0,0,0.87907857,26.505986,482.86801)"
           id="g4162">
          <circle
             style="fill:#c8c8c8;fill-opacity:0.72727272;stroke:#394050;stroke-width:31.38378906;stroke-miterlimit:4;stroke-dasharray:none;stroke-opacity:1"
             id="path3806-4"
             transform="matrix(0.92919746,0.36958367,-0.36958367,0.92919746,0,0)"
             cx="393.03189"
             cy="117.23139"
             r="92.646629" />
          <rect
             style="fill:#394050;fill-opacity:1;fill-rule:evenodd;stroke:none"
             id="rect3808-0"
             width="34.283337"
             height="156.72382"
             x="140.95195"
             y="452.7851"
             ry="15.727224"
             transform="matrix(0.88303557,-0.46930606,0.46930606,0.88303557,0,0)" />
          <path
             sodipodi:nodetypes="sscscss"
             inkscape:connector-curvature="0"
             id="path4343"
             d="m 290.01555,192.8159 c -28.51802,13.99061 -46.59135,50.89099 -32.81239,78.97757 2.14572,4.37381 11.02556,-1.58606 11.35157,-7.48573 5.13976,-25.43933 7.33959,-36.934 33.95901,-49.9932 24.07701,-11.8119 46.20674,-14.01181 64.15131,2.4753 4.13748,2.62566 7.52872,-2.39118 7.0058,-4.61713 -7.1547,-30.45531 -55.13732,-33.34744 -83.6553,-19.35681 z"
             style="fill:#cccccc;fill-opacity:0.34545509;fill-rule:nonzero;stroke:none" />
        </g>
      </g>
      <g
         id="flowRoot4181"
         style="font-style:normal;font-weight:normal;font-size:40px;line-height:125%;font-family:sans-serif;letter-spacing:0px;word-spacing:0px;fill:#ffffff;fill-opacity:1;stroke:none;stroke-width:1px;stroke-linecap:butt;stroke-linejoin:miter;stroke-opacity:1"
         transform="matrix(1.3221434,0,0,1.3221434,222.35843,741.04132)">
        <path
           inkscape:connector-curvature="0"
           id="path4190"
           style="font-style:normal;font-variant:normal;font-weight:bold;font-stretch:normal;font-size:80px;font-family:sans-serif;-inkscape-font-specification:'sans-serif Bold';fill:#ffffff"
           d="m -50.933594,141.44696 15.039063,0 0,46.95313 26.4062497,0 0,11.36719 -41.4453127,0 0,-58.32032 z" />
        <path
           inkscape:connector-curvature="0"
           id="path4192"
           style="font-style:normal;font-variant:normal;font-weight:bold;font-stretch:normal;font-size:80px;font-family:sans-serif;-inkscape-font-specification:'sans-serif Bold';fill:#ffffff"
           d="m 23.832031,151.29071 q -6.875,0 -10.664062,5.07813 -3.7890627,5.07812 -3.7890627,14.29687 0,9.17969 3.7890627,14.25782 3.789062,5.07812 10.664062,5.07812 6.914063,0 10.703125,-5.07812 3.789063,-5.07813 3.789063,-14.25782 0,-9.21875 -3.789063,-14.29687 -3.789062,-5.07813 -10.703125,-5.07813 z m 0,-10.89843 q 14.0625,0 22.03125,8.04687 7.96875,8.04688 7.96875,22.22656 0,14.14063 -7.96875,22.1875 -7.96875,8.04688 -22.03125,8.04688 -14.0234372,0 -22.0312498,-8.04688 -7.9687499,-8.04687 -7.9687499,-22.1875 0,-14.17968 7.9687499,-22.22656 8.0078126,-8.04687 22.0312498,-8.04687 z" />
        <path
           inkscape:connector-curvature="0"
           id="path4194"
           style="font-style:normal;font-variant:normal;font-weight:bold;font-stretch:normal;font-size:80px;font-family:sans-serif;-inkscape-font-specification:'sans-serif Bold';fill:#ffffff"
           d="m 117.58203,195.43134 q -5.625,2.73437 -11.67969,4.10156 -6.054684,1.36719 -12.499996,1.36719 -14.570313,0 -23.085938,-8.125 -8.515625,-8.16406 -8.515625,-22.10938 0,-14.10156 8.671875,-22.1875 8.671875,-8.08593 23.75,-8.08593 5.820314,0 11.132814,1.09375 5.35156,1.09375 10.07812,3.24218 l 0,12.07032 q -4.88281,-2.77344 -9.72656,-4.14063 -4.80469,-1.36719 -9.648436,-1.36719 -8.984375,0 -13.867188,5.03907 -4.84375,5 -4.84375,14.33593 0,9.25782 4.6875,14.29688 4.6875,5.03906 13.320313,5.03906 2.34375,0 4.335937,-0.27344 2.031254,-0.3125 3.632814,-0.9375 l 0,-11.32812 -9.179689,0 0,-10.07813 23.437499,0 0,28.04688 z" />
      </g>
    </g>
  </g>
</svg>
