<?xml version="1.0" encoding="UTF-8" standalone="no"?>
<!-- Created with Inkscape (http://www.inkscape.org/) -->

<svg
   xmlns:dc="http://purl.org/dc/elements/1.1/"
   xmlns:cc="http://creativecommons.org/ns#"
   xmlns:rdf="http://www.w3.org/1999/02/22-rdf-syntax-ns#"
   xmlns:svg="http://www.w3.org/2000/svg"
   xmlns="http://www.w3.org/2000/svg"
   xmlns:sodipodi="http://sodipodi.sourceforge.net/DTD/sodipodi-0.dtd"
   xmlns:inkscape="http://www.inkscape.org/namespaces/inkscape"
   width="500"
   height="500"
   id="svg2"
   version="1.1"
   inkscape:version="0.91 r13725"
   sodipodi:docname="video-x-wmv.svg">
  <defs
     id="defs4" />
  <sodipodi:namedview
     id="base"
     pagecolor="#ffffff"
     bordercolor="#666666"
     borderopacity="1.0"
     inkscape:pageopacity="0.0"
     inkscape:pageshadow="2"
     inkscape:zoom="0.60666665"
     inkscape:cx="87.127041"
     inkscape:cy="174.58953"
     inkscape:document-units="px"
     inkscape:current-layer="layer1"
     showgrid="false"
     inkscape:window-width="1366"
     inkscape:window-height="715"
     inkscape:window-x="0"
     inkscape:window-y="24"
     inkscape:window-maximized="1" />
  <metadata
     id="metadata7">
    <rdf:RDF>
      <cc:Work
         rdf:about="">
        <dc:format>image/svg+xml</dc:format>
        <dc:type
           rdf:resource="http://purl.org/dc/dcmitype/StillImage" />
        <dc:title />
      </cc:Work>
    </rdf:RDF>
  </metadata>
  <g
     inkscape:label="Layer 1"
     inkscape:groupmode="layer"
     id="layer1"
     transform="translate(0,-552.36218)">
    <g
       id="g4177">
      <g
         id="g4158">
        <path
           style="fill:#f2f2f2;fill-rule:evenodd;stroke:#afafaf;stroke-width:5.03546047;stroke-linecap:butt;stroke-linejoin:miter;stroke-miterlimit:4;stroke-dasharray:none;stroke-opacity:1"
           d="m 97.040974,1029.8357 336.888376,-1.1739 1.17377,-363.88639 -88.03697,-89.21086 -250.025176,0 z"
           id="path3364"
           inkscape:connector-curvature="0" />
        <path
           style="fill:#004455;fill-opacity:1;stroke:none;stroke-width:5;stroke-miterlimit:4;stroke-dasharray:none;stroke-opacity:1"
           d="m 97.041016,907.86724 0,121.96756 336.888674,-1.0485 0.4375,-120.91906 -337.326174,0 z"
           id="rect4228"
           inkscape:connector-curvature="0" />
        <g
           transform="translate(3.2332194,-152.9048)"
           id="g4171">
          <path
             id="rect4197-3"
             d="m 146.46594,793.49695 0,233.76635 233.76623,0 0,-233.76635 -233.76623,0 z m 17.53247,17.53246 17.53247,0 0,17.53247 -17.53247,0 0,-17.53247 z m 181.16883,0 17.53247,0 0,17.53247 -17.53247,0 0,-17.53247 z m -181.16883,43.83117 17.53247,0 0,17.53247 -17.53247,0 0,-17.53247 z m 181.16883,0 17.53247,0 0,17.53247 -17.53247,0 0,-17.53247 z m -181.16883,46.75325 17.53247,0 0,17.53247 -17.53247,0 0,-17.53247 z m 181.16883,0 17.53247,0 0,17.53247 -17.53247,0 0,-17.53247 z m -181.16883,46.75325 17.53247,0 0,17.53251 -17.53247,0 0,-17.53251 z m 181.16883,0 17.53247,0 0,17.53251 -17.53247,0 0,-17.53251 z m -181.16883,43.83121 17.53247,0 0,17.53251 -17.53247,0 0,-17.53251 z m 181.16883,0 17.53247,0 0,17.53251 -17.53247,0 0,-17.53251 z"
             style="fill:#004455;fill-opacity:1;stroke:none"
             inkscape:connector-curvature="0" />
          <rect
             y="811.47137"
             x="199.68207"
             height="90.584404"
             width="128.57137"
             id="rect4323-6"
             style="fill:#00bbf2;fill-opacity:1;stroke:none" />
          <rect
             y="919.1463"
             x="199.06335"
             height="90.584419"
             width="128.57137"
             id="rect4325-7"
             style="fill:#00bbf2;fill-opacity:1;stroke:none" />
          <path
             sodipodi:nodetypes="czccc"
             inkscape:connector-curvature="0"
             id="path4167"
             d="m 247.35651,1010.0512 c 0,0 2.86215,-30.71269 26.16295,-50.91177 23.3008,-20.19908 54.44722,-13.43503 54.44722,-13.43503 l -0.29289,64.5968 z"
             style="fill:#f03916;fill-opacity:0.94117647;fill-rule:evenodd;stroke:none;stroke-width:1px;stroke-linecap:butt;stroke-linejoin:miter;stroke-opacity:1" />
          <path
             sodipodi:nodetypes="czcccczcc"
             inkscape:connector-curvature="0"
             id="path4169"
             d="m 229.09906,811.13007 c 0,0 -0.28499,9.08166 7.25,18.25 7.53499,9.16834 15.73483,10.7045 15.73483,10.7045 l -0.23483,20.2955 9,0 0.25,-20.25 c 0,0 7.08078,-0.72073 15.25,-9.25 8.16922,-8.52927 7.5,-20 7.5,-20 z"
             style="fill:#f03916;fill-opacity:0.94117647;fill-rule:evenodd;stroke:none;stroke-width:1px;stroke-linecap:butt;stroke-linejoin:miter;stroke-opacity:1" />
          <rect
             y="863.07642"
             x="251.59915"
             height="7.0710678"
             width="9.1923885"
             id="rect4171"
             style="fill:#d45500;fill-opacity:0.94117647;stroke:none;stroke-opacity:1" />
        </g>
      </g>
      <g
         id="flowRoot4162"
         style="font-style:normal;font-weight:normal;font-size:40px;line-height:125%;font-family:sans-serif;letter-spacing:0px;word-spacing:0px;fill:#ffffff;fill-opacity:1;stroke:none;stroke-width:1px;stroke-linecap:butt;stroke-linejoin:miter;stroke-opacity:1"
         transform="matrix(2.7434701,0,0,2.7434701,759.62674,39.332712)">
        <path
           inkscape:connector-curvature="0"
           id="path4171"
           style="font-style:normal;font-variant:normal;font-weight:bold;font-stretch:normal;font-family:sans-serif;-inkscape-font-specification:'sans-serif Bold';fill:#ffffff"
           d="m -236.17187,324.44614 7.20703,0 5.03906,21.1914 5,-21.1914 7.24609,0 5,21.1914 5.03907,-21.1914 7.14843,0 -6.875,29.16015 -8.67187,0 -5.29297,-22.16796 -5.23438,22.16796 -8.67187,0 -6.93359,-29.16015 z" />
        <path
           inkscape:connector-curvature="0"
           id="path4173"
           style="font-style:normal;font-variant:normal;font-weight:bold;font-stretch:normal;font-family:sans-serif;-inkscape-font-specification:'sans-serif Bold';fill:#ffffff"
           d="m -189.55078,324.44614 9.57031,0 6.64063,15.60547 6.67968,-15.60547 9.55079,0 0,29.16015 -7.10938,0 0,-21.32812 -6.71875,15.72266 -4.76562,0 -6.71875,-15.72266 0,21.32812 -7.12891,0 0,-29.16015 z" />
        <path
           inkscape:connector-curvature="0"
           id="path4175"
           style="font-style:normal;font-variant:normal;font-weight:bold;font-stretch:normal;font-family:sans-serif;-inkscape-font-specification:'sans-serif Bold';fill:#ffffff"
           d="m -153.18359,324.44614 7.55859,0 7.73438,21.52344 7.71484,-21.52344 7.55859,0 -10.80078,29.16015 -8.96484,0 -10.80078,-29.16015 z" />
      </g>
    </g>
  </g>
</svg>
