<?xml version="1.0" encoding="UTF-8" standalone="no"?>
<!-- Created with Inkscape (http://www.inkscape.org/) -->

<svg
   xmlns:dc="http://purl.org/dc/elements/1.1/"
   xmlns:cc="http://creativecommons.org/ns#"
   xmlns:rdf="http://www.w3.org/1999/02/22-rdf-syntax-ns#"
   xmlns:svg="http://www.w3.org/2000/svg"
   xmlns="http://www.w3.org/2000/svg"
   xmlns:sodipodi="http://sodipodi.sourceforge.net/DTD/sodipodi-0.dtd"
   xmlns:inkscape="http://www.inkscape.org/namespaces/inkscape"
   width="500"
   height="500"
   id="svg2"
   version="1.1"
   inkscape:version="0.91 r13725"
   sodipodi:docname="video-webm.svg">
  <defs
     id="defs4" />
  <sodipodi:namedview
     id="base"
     pagecolor="#ffffff"
     bordercolor="#666666"
     borderopacity="1.0"
     inkscape:pageopacity="0.0"
     inkscape:pageshadow="2"
     inkscape:zoom="0.60666665"
     inkscape:cx="-70.405547"
     inkscape:cy="174.46162"
     inkscape:document-units="px"
     inkscape:current-layer="layer1"
     showgrid="false"
     inkscape:window-width="1366"
     inkscape:window-height="715"
     inkscape:window-x="0"
     inkscape:window-y="24"
     inkscape:window-maximized="1" />
  <metadata
     id="metadata7">
    <rdf:RDF>
      <cc:Work
         rdf:about="">
        <dc:format>image/svg+xml</dc:format>
        <dc:type
           rdf:resource="http://purl.org/dc/dcmitype/StillImage" />
        <dc:title />
      </cc:Work>
    </rdf:RDF>
  </metadata>
  <g
     inkscape:label="Layer 1"
     inkscape:groupmode="layer"
     id="layer1"
     transform="translate(0,-552.36218)">
    <g
       id="g4157">
      <g
         id="g4158">
        <path
           style="fill:#f2f2f2;fill-rule:evenodd;stroke:#afafaf;stroke-width:5.03546047;stroke-linecap:butt;stroke-linejoin:miter;stroke-miterlimit:4;stroke-dasharray:none;stroke-opacity:1"
           d="m 97.040974,1029.8357 336.888376,-1.1739 1.17377,-363.88639 -88.03697,-89.21086 -250.025176,0 z"
           id="path3364"
           inkscape:connector-curvature="0" />
        <path
           style="fill:#004455;fill-opacity:1;stroke:none;stroke-width:5;stroke-miterlimit:4;stroke-dasharray:none;stroke-opacity:1"
           d="m 97.041016,907.86724 0,121.96756 336.888674,-1.0485 0.4375,-120.91906 -337.326174,0 z"
           id="rect4228"
           inkscape:connector-curvature="0" />
        <g
           transform="translate(3.2332194,-152.9048)"
           id="g4171">
          <path
             id="rect4197-3"
             d="m 146.46594,793.49695 0,233.76635 233.76623,0 0,-233.76635 -233.76623,0 z m 17.53247,17.53246 17.53247,0 0,17.53247 -17.53247,0 0,-17.53247 z m 181.16883,0 17.53247,0 0,17.53247 -17.53247,0 0,-17.53247 z m -181.16883,43.83117 17.53247,0 0,17.53247 -17.53247,0 0,-17.53247 z m 181.16883,0 17.53247,0 0,17.53247 -17.53247,0 0,-17.53247 z m -181.16883,46.75325 17.53247,0 0,17.53247 -17.53247,0 0,-17.53247 z m 181.16883,0 17.53247,0 0,17.53247 -17.53247,0 0,-17.53247 z m -181.16883,46.75325 17.53247,0 0,17.53251 -17.53247,0 0,-17.53251 z m 181.16883,0 17.53247,0 0,17.53251 -17.53247,0 0,-17.53251 z m -181.16883,43.83121 17.53247,0 0,17.53251 -17.53247,0 0,-17.53251 z m 181.16883,0 17.53247,0 0,17.53251 -17.53247,0 0,-17.53251 z"
             style="fill:#004455;fill-opacity:1;stroke:none"
             inkscape:connector-curvature="0" />
          <rect
             y="811.47137"
             x="199.68207"
             height="90.584404"
             width="128.57137"
             id="rect4323-6"
             style="fill:#00bbf2;fill-opacity:1;stroke:none" />
          <rect
             y="919.1463"
             x="199.06335"
             height="90.584419"
             width="128.57137"
             id="rect4325-7"
             style="fill:#00bbf2;fill-opacity:1;stroke:none" />
          <path
             sodipodi:nodetypes="czccc"
             inkscape:connector-curvature="0"
             id="path4167"
             d="m 247.35651,1010.0512 c 0,0 2.86215,-30.71269 26.16295,-50.91177 23.3008,-20.19908 54.44722,-13.43503 54.44722,-13.43503 l -0.29289,64.5968 z"
             style="fill:#f03916;fill-opacity:0.94117647;fill-rule:evenodd;stroke:none;stroke-width:1px;stroke-linecap:butt;stroke-linejoin:miter;stroke-opacity:1" />
          <path
             sodipodi:nodetypes="czcccczcc"
             inkscape:connector-curvature="0"
             id="path4169"
             d="m 229.09906,811.13007 c 0,0 -0.28499,9.08166 7.25,18.25 7.53499,9.16834 15.73483,10.7045 15.73483,10.7045 l -0.23483,20.2955 9,0 0.25,-20.25 c 0,0 7.08078,-0.72073 15.25,-9.25 8.16922,-8.52927 7.5,-20 7.5,-20 z"
             style="fill:#f03916;fill-opacity:0.94117647;fill-rule:evenodd;stroke:none;stroke-width:1px;stroke-linecap:butt;stroke-linejoin:miter;stroke-opacity:1" />
          <rect
             y="863.07642"
             x="251.59915"
             height="7.0710678"
             width="9.1923885"
             id="rect4171"
             style="fill:#d45500;fill-opacity:0.94117647;stroke:none;stroke-opacity:1" />
        </g>
      </g>
      <g
         id="flowRoot4145"
         style="font-style:normal;font-weight:normal;font-size:40px;line-height:125%;font-family:sans-serif;letter-spacing:0px;word-spacing:0px;fill:#ffffff;fill-opacity:1;stroke:none;stroke-width:1px;stroke-linecap:butt;stroke-linejoin:miter;stroke-opacity:1"
         transform="matrix(1.0993527,0,0,1.0993527,424.20561,887.48725)">
        <path
           inkscape:connector-curvature="0"
           id="path4154"
           style="font-style:normal;font-variant:normal;font-weight:bold;font-stretch:normal;font-size:80px;font-family:sans-serif;-inkscape-font-specification:'sans-serif Bold';fill:#ffffff"
           d="m -281.13281,43.398136 14.41406,0 10.07813,42.382813 10,-42.382813 14.49218,0 10,42.382813 10.07813,-42.382813 14.29687,0 -13.75,58.320314 -17.34375,0 -10.58593,-44.335939 -10.46875,44.335939 -17.34375,0 -13.86719,-58.320314 z" />
        <path
           inkscape:connector-curvature="0"
           id="path4156"
           style="font-style:normal;font-variant:normal;font-weight:bold;font-stretch:normal;font-size:80px;font-family:sans-serif;-inkscape-font-specification:'sans-serif Bold';fill:#ffffff"
           d="m -187.89062,43.398136 40.58593,0 0,11.367188 -25.54687,0 0,10.859375 24.02344,0 0,11.367187 -24.02344,0 0,13.359375 26.40625,0 0,11.367189 -41.44531,0 0,-58.320314 z" />
        <path
           inkscape:connector-curvature="0"
           id="path4158"
           style="font-style:normal;font-variant:normal;font-weight:bold;font-stretch:normal;font-size:80px;font-family:sans-serif;-inkscape-font-specification:'sans-serif Bold';fill:#ffffff"
           d="m -109.84375,65.976261 q 3.55469,0 5.39062,-1.5625 1.83594,-1.5625 1.83594,-4.609375 0,-3.007812 -1.83594,-4.570312 -1.83593,-1.601563 -5.39062,-1.601563 l -8.32031,0 0,12.34375 8.32031,0 z m 0.50781,25.507813 q 4.53125,0 6.79688,-1.914063 2.30468,-1.914062 2.30468,-5.78125 0,-3.789062 -2.26562,-5.664062 -2.26563,-1.914063 -6.83594,-1.914063 l -8.82812,0 0,15.273438 8.82812,0 z m 13.984378,-20.976563 q 4.84375,1.40625 7.5,5.195313 2.65625,3.789062 2.65625,9.296875 0,8.4375 -5.703125,12.578125 -5.703125,4.140626 -17.343753,4.140626 l -24.96093,0 0,-58.320314 22.57812,0 q 12.148438,0 17.578125,3.671875 5.46875,3.671875 5.46875,11.757813 0,4.257812 -1.992187,7.265625 -1.992188,2.96875 -5.78125,4.414062 z" />
        <path
           inkscape:connector-curvature="0"
           id="path4160"
           style="font-style:normal;font-variant:normal;font-weight:bold;font-stretch:normal;font-size:80px;font-family:sans-serif;-inkscape-font-specification:'sans-serif Bold';fill:#ffffff"
           d="m -72.265625,43.398136 19.140625,0 13.28125,31.210938 13.359375,-31.210938 19.1015625,0 0,58.320314 -14.2187495,0 0,-42.656251 -13.4375,31.445312 -9.53125,0 -13.4375,-31.445312 0,42.656251 -14.257813,0 0,-58.320314 z" />
      </g>
    </g>
  </g>
</svg>
