<?xml version="1.0" encoding="UTF-8" standalone="no"?>
<!-- Created with Inkscape (http://www.inkscape.org/) -->

<svg
   xmlns:dc="http://purl.org/dc/elements/1.1/"
   xmlns:cc="http://creativecommons.org/ns#"
   xmlns:rdf="http://www.w3.org/1999/02/22-rdf-syntax-ns#"
   xmlns:svg="http://www.w3.org/2000/svg"
   xmlns="http://www.w3.org/2000/svg"
   xmlns:sodipodi="http://sodipodi.sourceforge.net/DTD/sodipodi-0.dtd"
   xmlns:inkscape="http://www.inkscape.org/namespaces/inkscape"
   width="512"
   height="512"
   id="svg2"
   version="1.1"
   inkscape:version="0.91 r13725"
   sodipodi:docname="folder-videos.svg">
  <defs
     id="defs4" />
  <sodipodi:namedview
     id="base"
     pagecolor="#ffffff"
     bordercolor="#666666"
     borderopacity="1.0"
     inkscape:pageopacity="0.0"
     inkscape:pageshadow="2"
     inkscape:zoom="0.70710678"
     inkscape:cx="835.16319"
     inkscape:cy="152.7233"
     inkscape:document-units="px"
     inkscape:current-layer="layer1"
     showgrid="false"
     inkscape:window-width="1366"
     inkscape:window-height="713"
     inkscape:window-x="0"
     inkscape:window-y="0"
     inkscape:window-maximized="1" />
  <metadata
     id="metadata7">
    <rdf:RDF>
      <cc:Work
         rdf:about="">
        <dc:format>image/svg+xml</dc:format>
        <dc:type
           rdf:resource="http://purl.org/dc/dcmitype/StillImage" />
        <dc:title />
      </cc:Work>
    </rdf:RDF>
  </metadata>
  <g
     inkscape:label="Layer 1"
     inkscape:groupmode="layer"
     id="layer1"
     transform="translate(0,-540.36218)">
    <path
       style="fill:#ffb800;stroke:none"
       d="m 101.80608,553.25212 290.12324,0.21824 4.8742,2.18248 2.40071,4.65595 0,244.07306 27.42639,28.08115 0.21825,126.43787 -6.91116,4.72868 -318.27714,2.32798 z"
       id="path2996"
       inkscape:connector-curvature="0" />
    <path
       style="fill:#faec6d;stroke:none"
       d="m 101.80633,553.26299 110.70179,90.74256 0.41153,253.09145 -8.64215,13.16899 0.2058,127.78031 -6.99604,3.9095 -95.85137,-76.10605 z"
       id="path3766"
       inkscape:connector-curvature="0"
       sodipodi:nodetypes="cccccccc" />
    <path
       style="fill:none;stroke:#ffb800;stroke-width:2.30457258px;stroke-linecap:round;stroke-linejoin:miter;stroke-opacity:1"
       d="m 112.42744,959.9921 0.582,-380.62306"
       id="path3768"
       inkscape:connector-curvature="0" />
    <path
       style="fill:none;stroke:#ffb800;stroke-width:2.30457258px;stroke-linecap:round;stroke-linejoin:miter;stroke-opacity:1"
       d="m 120.13709,965.53087 0.582,-380.62308"
       id="path3768-3"
       inkscape:connector-curvature="0" />
    <path
       inkscape:connector-curvature="0"
       style="fill:#004d8b;fill-opacity:1;stroke:none"
       d="m 243.11688,773.47906 0,233.76624 233.76623,0 0,-233.76624 -233.76623,0 z m 17.53247,17.53246 17.53247,0 0,17.53247 -17.53247,0 0,-17.53247 z m 181.16883,0 17.53247,0 0,17.53247 -17.53247,0 0,-17.53247 z m -181.16883,43.83117 17.53247,0 0,17.53247 -17.53247,0 0,-17.53247 z m 181.16883,0 17.53247,0 0,17.53247 -17.53247,0 0,-17.53247 z m -181.16883,46.75325 17.53247,0 0,17.53247 -17.53247,0 0,-17.53247 z m 181.16883,0 17.53247,0 0,17.53247 -17.53247,0 0,-17.53247 z m -181.16883,46.75325 17.53247,0 0,17.53251 -17.53247,0 0,-17.53251 z m 181.16883,0 17.53247,0 0,17.53251 -17.53247,0 0,-17.53251 z m -181.16883,43.83121 17.53247,0 0,17.5324 -17.53247,0 0,-17.5324 z m 181.16883,0 17.53247,0 0,17.5324 -17.53247,0 0,-17.5324 z"
       id="rect4197-3" />
    <rect
       style="fill:#68eaff;fill-opacity:1;stroke:none"
       id="rect4323-6"
       width="128.57137"
       height="90.584404"
       x="296.33301"
       y="791.45349" />
    <rect
       style="fill:#68eaff;fill-opacity:1;stroke:none"
       id="rect4325-7"
       width="128.57137"
       height="90.584419"
       x="295.71429"
       y="899.12842" />
    <path
       style="fill:#f03916;fill-opacity:1;fill-rule:evenodd;stroke:none;stroke-width:1px;stroke-linecap:butt;stroke-linejoin:miter;stroke-opacity:1"
       d="m 344.00745,990.03323 c 0,0 2.86215,-30.71261 26.16295,-50.91169 23.3008,-20.19908 54.44722,-13.43503 54.44722,-13.43503 l -0.29289,64.59672 z"
       id="path4167"
       inkscape:connector-curvature="0"
       sodipodi:nodetypes="czccc" />
    <path
       style="fill:#f03916;fill-opacity:1;fill-rule:evenodd;stroke:none;stroke-width:1px;stroke-linecap:butt;stroke-linejoin:miter;stroke-opacity:1"
       d="m 325.75,791.11218 c 0,0 -0.28499,9.08166 7.25,18.25 7.53499,9.16834 15.73483,10.7045 15.73483,10.7045 l -0.23483,20.2955 9,0 0.25,-20.25 c 0,0 7.08078,-0.72073 15.25,-9.25 8.16922,-8.52927 7.5,-20 7.5,-20 z"
       id="path4169"
       inkscape:connector-curvature="0"
       sodipodi:nodetypes="czcccczcc" />
    <rect
       style="fill:#d45500;fill-opacity:0.94117647;stroke:none;stroke-opacity:1"
       id="rect4171"
       width="9.1923885"
       height="7.0710678"
       x="348.25009"
       y="843.05853" />
  </g>
</svg>
