<?xml version="1.0" encoding="UTF-8" standalone="no"?>
<!-- Created with Inkscape (http://www.inkscape.org/) -->

<svg
   xmlns:dc="http://purl.org/dc/elements/1.1/"
   xmlns:cc="http://creativecommons.org/ns#"
   xmlns:rdf="http://www.w3.org/1999/02/22-rdf-syntax-ns#"
   xmlns:svg="http://www.w3.org/2000/svg"
   xmlns="http://www.w3.org/2000/svg"
   xmlns:sodipodi="http://sodipodi.sourceforge.net/DTD/sodipodi-0.dtd"
   xmlns:inkscape="http://www.inkscape.org/namespaces/inkscape"
   width="512"
   height="512"
   id="svg2"
   version="1.1"
   inkscape:version="0.48.5 r10040"
   sodipodi:docname="folder-locked.svg">
  <defs
     id="defs4" />
  <sodipodi:namedview
     id="base"
     pagecolor="#ffffff"
     bordercolor="#666666"
     borderopacity="1.0"
     inkscape:pageopacity="0.0"
     inkscape:pageshadow="2"
     inkscape:zoom="0.5"
     inkscape:cx="1225.6299"
     inkscape:cy="151.86116"
     inkscape:document-units="px"
     inkscape:current-layer="layer1"
     showgrid="false"
     inkscape:window-width="1366"
     inkscape:window-height="716"
     inkscape:window-x="0"
     inkscape:window-y="0"
     inkscape:window-maximized="1" />
  <metadata
     id="metadata7">
    <rdf:RDF>
      <cc:Work
         rdf:about="">
        <dc:format>image/svg+xml</dc:format>
        <dc:type
           rdf:resource="http://purl.org/dc/dcmitype/StillImage" />
        <dc:title />
      </cc:Work>
    </rdf:RDF>
  </metadata>
  <g
     inkscape:label="Layer 1"
     inkscape:groupmode="layer"
     id="layer1"
     transform="translate(0,-540.36218)">
    <path
       style="fill:#ffb800;stroke:none"
       d="m 101.80608,553.25212 290.12324,0.21824 4.8742,2.18248 2.40071,4.65595 0,244.07306 27.42639,28.08115 0.21825,126.43787 -6.91116,4.72868 -318.27714,2.32798 z"
       id="path2996"
       inkscape:connector-curvature="0" />
    <path
       style="fill:#faec6d;stroke:none"
       d="m 101.80633,553.26299 110.70179,90.74256 0.41153,253.09145 -8.64215,13.16899 0.2058,127.78031 -6.99604,3.9095 -95.85137,-76.10605 z"
       id="path3766"
       inkscape:connector-curvature="0"
       sodipodi:nodetypes="cccccccc" />
    <path
       style="fill:none;stroke:#ffb800;stroke-width:2.30457258px;stroke-linecap:round;stroke-linejoin:miter;stroke-opacity:1"
       d="m 112.42744,959.9921 0.582,-380.62306"
       id="path3768"
       inkscape:connector-curvature="0" />
    <path
       style="fill:none;stroke:#ffb800;stroke-width:2.30457258px;stroke-linecap:round;stroke-linejoin:miter;stroke-opacity:1"
       d="m 120.13709,965.53087 0.582,-380.62308"
       id="path3768-3"
       inkscape:connector-curvature="0" />
    <path
       style="fill:#999999;stroke:none"
       d="m 244.83705,907.16186 c 0,0 -0.89401,-66.70279 0,-73.49677 0.894,-6.79395 8.98508,-61.74498 70.03355,-61.18314 61.04841,0.56182 68.04412,52.1384 69.26393,58.87434 1.21982,6.73596 1.15437,75.03597 1.15437,75.03597 l -29.24478,0.7696 -0.38479,-65.41596 c 0,0 -4.27717,-38.14942 -42.32796,-37.32558 -38.0508,0.82384 -38.86475,37.71038 -38.86475,37.71038 l -0.3848,64.64635 z"
       id="path3767"
       inkscape:connector-curvature="0"
       sodipodi:nodetypes="czzzccczccc" />
    <path
       style="fill:#502d16;stroke:none"
       d="m 222.6238,1011.314 185.56845,0.2722 -0.27212,-113.46345 -185.29633,0 z"
       id="path2997"
       inkscape:connector-curvature="0"
       sodipodi:nodetypes="ccccc" />
    <path
       sodipodi:type="arc"
       style="fill:#cccccc;fill-opacity:1;stroke:none"
       id="path3769"
       sodipodi:cx="744.28571"
       sodipodi:cy="341.28571"
       sodipodi:rx="70"
       sodipodi:ry="69.285713"
       d="m 814.28571,341.28571 a 70,69.285713 0 1 1 -7.8e-4,-0.32529"
       transform="matrix(0.53871964,0,0,0.53871964,-85.705965,774.48291)"
       sodipodi:start="0"
       sodipodi:end="6.2784904"
       sodipodi:open="true" />
    <path
       sodipodi:type="arc"
       style="fill:#394050;fill-opacity:1;stroke:none"
       id="path3771"
       sodipodi:cx="743.57141"
       sodipodi:cy="319.67856"
       sodipodi:rx="10"
       sodipodi:ry="10.178572"
       d="m 753.57141,319.67856 a 10,10.178572 0 1 1 -1.1e-4,-0.0478"
       transform="matrix(0.71380353,0,0,0.67765259,-215.1885,732.11808)"
       sodipodi:start="0"
       sodipodi:end="6.2784904"
       sodipodi:open="true" />
    <path
       style="fill:#394050;stroke:#394050;stroke-width:5.38719654;stroke-linecap:round;stroke-linejoin:miter;stroke-miterlimit:4;stroke-opacity:1;stroke-dasharray:none"
       d="m 315.864,950.43259 0.19237,28.09038"
       id="path3773"
       inkscape:connector-curvature="0" />
    <g
       id="g3776"
       transform="matrix(-0.25718922,-0.44036018,-0.44036018,0.25718922,1122.0578,1000.8227)">
      <path
         sodipodi:nodetypes="cczccczccccccccccczcczzzc"
         inkscape:connector-curvature="0"
         id="path3002"
         d="m 763.18647,1035.8662 15.55635,-13.0815 c 0,0 4.03316,-2.6463 7.38173,0.25 3.34857,2.8963 2.87132,5.7604 2.87132,5.7604 l 0,13.7886 136.82516,0 c 0,0 6.47383,1.3806 13.08148,6.7175 6.60765,5.3369 8.83883,11.3137 8.83883,11.3137 l -27.93071,28.2843 -16.97057,1.0607 -13.43503,-11.3138 -15.55635,17.3242 -13.43502,0.7071 -16.26346,-17.3241 -18.73833,20.5061 -14.49569,-15.2028 -20.5061,0.3535 0.35356,20.1526 c 0,0 0.20378,3.1625 -1.41422,4.9497 -1.618,1.7872 -4.94974,1.0607 -4.94974,1.0607 l -20.15255,-11.6673 c 0,0 -23.06512,46.2216 -65.76093,46.3155 -42.69581,0.094 -72.60688,-36.3122 -71.77134,-79.196 0.83554,-42.8837 30.26672,-74.63331 71.77134,-74.95329 41.50462,-0.31998 64.70027,44.19419 64.70027,44.19419 z"
         style="fill:#999999;stroke:none" />
      <path
         sodipodi:nodetypes="ccccc"
         inkscape:connector-curvature="0"
         id="path3772"
         d="m 777.15184,1072.6358 -18.56156,-5.6569 183.49421,-0.4419 -6.18718,6.0987 z"
         style="fill:#666666;stroke:none" />
      <path
         sodipodi:open="true"
         sodipodi:end="6.2784904"
         sodipodi:start="0"
         transform="matrix(1,0,0,1.0769231,-10.960155,490.39816)"
         d="m 697.20732,534.62744 c 0,10.15363 -8.86431,18.38478 -19.79899,18.38478 -10.93469,0 -19.799,-8.23115 -19.799,-18.38478 0,-10.15363 8.86431,-18.38478 19.799,-18.38478 10.89839,0 19.7476,8.17864 19.79877,18.29847"
         sodipodi:ry="18.384777"
         sodipodi:rx="19.79899"
         sodipodi:cy="534.62744"
         sodipodi:cx="677.40833"
         id="path3774"
         style="fill:#ffffff;fill-opacity:1;stroke:none"
         sodipodi:type="arc" />
    </g>
  </g>
</svg>
