<?xml version="1.0" encoding="UTF-8" standalone="no"?>
<!-- Created with Inkscape (http://www.inkscape.org/) -->

<svg
   xmlns:dc="http://purl.org/dc/elements/1.1/"
   xmlns:cc="http://creativecommons.org/ns#"
   xmlns:rdf="http://www.w3.org/1999/02/22-rdf-syntax-ns#"
   xmlns:svg="http://www.w3.org/2000/svg"
   xmlns="http://www.w3.org/2000/svg"
   xmlns:sodipodi="http://sodipodi.sourceforge.net/DTD/sodipodi-0.dtd"
   xmlns:inkscape="http://www.inkscape.org/namespaces/inkscape"
   width="512"
   height="512"
   id="svg2"
   version="1.1"
   inkscape:version="0.48.5 r10040"
   sodipodi:docname="folder-development.svg">
  <defs
     id="defs4" />
  <sodipodi:namedview
     id="base"
     pagecolor="#ffffff"
     bordercolor="#666666"
     borderopacity="1.0"
     inkscape:pageopacity="0.0"
     inkscape:pageshadow="2"
     inkscape:zoom="0.7"
     inkscape:cx="214.70337"
     inkscape:cy="219.4222"
     inkscape:document-units="px"
     inkscape:current-layer="layer1"
     showgrid="false"
     inkscape:window-width="1366"
     inkscape:window-height="716"
     inkscape:window-x="0"
     inkscape:window-y="0"
     inkscape:window-maximized="1" />
  <metadata
     id="metadata7">
    <rdf:RDF>
      <cc:Work
         rdf:about="">
        <dc:format>image/svg+xml</dc:format>
        <dc:type
           rdf:resource="http://purl.org/dc/dcmitype/StillImage" />
        <dc:title />
      </cc:Work>
    </rdf:RDF>
  </metadata>
  <g
     inkscape:label="Layer 1"
     inkscape:groupmode="layer"
     id="layer1"
     transform="translate(0,-540.36218)">
    <path
       style="fill:#ffb800;stroke:none"
       d="m 101.80608,553.25212 290.12324,0.21824 4.8742,2.18248 2.40071,4.65595 0,244.07306 27.42639,28.08115 0.21825,126.43787 -6.91116,4.72868 -318.27714,2.32798 z"
       id="path2996"
       inkscape:connector-curvature="0" />
    <path
       style="fill:#faec6d;stroke:none"
       d="m 101.80633,553.26299 110.70179,90.74256 0.41153,253.09145 -8.64215,13.16899 0.2058,127.78031 -6.99604,3.9095 -95.85137,-76.10605 z"
       id="path3766"
       inkscape:connector-curvature="0"
       sodipodi:nodetypes="cccccccc" />
    <path
       style="fill:none;stroke:#ffb800;stroke-width:2.30457258px;stroke-linecap:round;stroke-linejoin:miter;stroke-opacity:1"
       d="m 112.42744,959.9921 0.582,-380.62306"
       id="path3768"
       inkscape:connector-curvature="0" />
    <path
       style="fill:none;stroke:#ffb800;stroke-width:2.30457258px;stroke-linecap:round;stroke-linejoin:miter;stroke-opacity:1"
       d="m 120.13709,965.53087 0.582,-380.62308"
       id="path3768-3"
       inkscape:connector-curvature="0" />
    <path
       style="fill:#999999;stroke:none"
       d="m 440.58215,782.88706 16.79969,10.70979 31.28944,-18.05965 c 0,0 1.46033,20.24202 -9.44985,34.43934 -10.91015,14.19732 -22.25959,21.6296 -22.25959,21.6296 l -20.57961,-44.72915 z"
       id="path3773"
       inkscape:connector-curvature="0"
       sodipodi:nodetypes="ccczccc" />
    <path
       style="fill:#ebebeb;stroke:none"
       d="m 376.5097,833.60419 c 0,0 6.72513,-5.5778 10.70979,-15.53971 3.98466,-9.96191 1.65654,-29.99295 4.76403,-39.59351 3.10749,-9.60058 0.84828,-16.0939 24.00543,-30.96515 23.15715,-14.87125 59.11079,-0.57904 59.11079,-0.57904 l -31.81131,16.74873 -2.51995,20.36962 27.92947,52.28901 c 0,0 -19.60937,0.2525 -27.92947,2.09996 -8.3201,1.84746 -15.60887,4.90669 -21.62959,8.18985 -6.02073,3.28315 -14.48973,10.70979 -14.48973,10.70979 z"
       id="path3771"
       inkscape:connector-curvature="0"
       sodipodi:nodetypes="czzzcccczzcc" />
    <path
       style="fill:#00bbf2;stroke:none;fill-opacity:1"
       d="m 240.03486,1015.018 c -15.96028,-15.0129 -6.41779,-28.91633 -4.75167,-32.66758 1.66613,-3.75126 45.7578,-53.59789 63.55355,-72.46292 17.79576,-18.86502 28.32482,-27.85366 42.17106,-41.57709 13.84624,-13.72342 40.90888,-40.7604 40.90888,-40.7604 0,0 11.68791,5.64111 16.5566,9.87457 4.86869,4.23346 12.17614,15.14593 12.17614,15.14593 0,0 -33.09174,41.62384 -48.25912,60.88075 -15.16739,19.2569 -28.68568,37.52826 -42.76501,54.64418 -14.07933,17.11589 -37.94678,45.46386 -41.57709,48.11056 -3.63032,2.6466 -22.05307,13.825 -38.01334,-1.188 z"
       id="path3769"
       inkscape:connector-curvature="0"
       sodipodi:nodetypes="zzzzczczzzz" />
    <path
       style="fill:#ffffff;stroke:none"
       d="m 405.27916,816.59451 11.96977,22.25959 24.56954,-11.96979 -11.54979,-23.51955 z"
       id="path3775"
       inkscape:connector-curvature="0" />
    <path
       style="fill:#808080;stroke:none"
       d="m 409.93762,813.71587 0.44547,2.96979 2.52432,1.03943 -0.89094,4.00922 3.56376,1.63338 -0.29698,4.30621 4.30619,2.07885 -0.59396,4.90016 2.82131,2.07885 17.37328,-8.16693 0.89094,-3.41526 -2.52432,-1.63339 0,-4.90015 -3.26677,-0.89094 -0.1485,-4.60317 -2.96979,-1.63339 -0.29698,-5.19714 -3.49709,-1.44045 z"
       id="path3777"
       inkscape:connector-curvature="0"
       sodipodi:nodetypes="ccccccccccccccccccc" />
    <path
       sodipodi:type="arc"
       style="fill:#ffffff;fill-opacity:1;stroke:none"
       id="path3779"
       sodipodi:cx="639.42657"
       sodipodi:cy="483.21066"
       sodipodi:rx="11.111678"
       sodipodi:ry="11.616755"
       d="m 650.53825,483.21066 a 11.111678,11.616755 0 1 1 -1.2e-4,-0.0545"
       transform="matrix(0.93311276,0,0,0.93311276,-336.07824,544.30077)"
       sodipodi:start="0"
       sodipodi:end="6.2784904"
       sodipodi:open="true" />
    <path
       style="fill:#394050;stroke:none;fill-opacity:0.39215687"
       d="m 280.74667,970.00775 c -11.17457,-9.01123 -2.60409,-20.76605 -2.60409,-20.76605 0,0 43.45509,-48.13053 58.89564,-63.45237 15.44054,-15.32183 32.43609,-29.644 32.43609,-29.644 0,0 4.41376,-4.995 10.09939,0.20767 5.68564,5.20267 2.82214,10.1617 2.82214,10.1617 0,0 -16.64658,24.61764 -30.16045,41.81519 -13.51387,17.19755 -51.76376,60.56791 -51.76376,60.56791 0,0 -8.55038,10.12119 -19.72496,1.10995 z"
       id="path2994"
       inkscape:connector-curvature="0"
       sodipodi:nodetypes="zczczczcz" />
    <path
       style="fill:#ebebeb;stroke:none"
       d="m 341.7442,878.65921 -94.4982,-93.23823 -14.6997,-8.81983 -18.0597,-23.51955 11.7598,-12.59977 26.4595,17.63967 5.8799,14.27973 94.4982,94.91819"
       id="path3767"
       inkscape:connector-curvature="0" />
    <path
       style="fill:#f03916;stroke:none"
       d="m 324.6125,890.19046 16.7997,16.58968 8.3998,1.04999 c 0,0 6.918,3.53553 13.8597,10.91979 6.9418,7.38425 17.042,25.5552 24.5696,35.48932 7.5275,9.93412 8.5657,12.81516 20.1596,24.35955 11.5938,11.54438 51.449,42.20921 51.449,42.20921 0,0 13.493,4.8982 26.8795,-9.2399 13.3865,-14.13797 11.1298,-28.3494 11.1298,-28.3494 0,0 -25.2778,-34.17634 -36.7493,-45.98913 -11.4715,-11.81279 -20.5842,-18.55546 -30.4494,-25.82951 -9.8653,-7.27406 -20.8399,-11.70105 -28.3495,-18.05966 -7.5096,-6.35861 -17.0097,-18.89964 -17.0097,-18.89964 l -1.2599,-7.13987 -16.7997,-17.84966 -9.2398,-0.41999 -32.3394,32.12939 z"
       id="path2997"
       inkscape:connector-curvature="0"
       sodipodi:nodetypes="ccczzzczczzzcccccc" />
    <path
       style="fill:#394050;stroke:none;fill-opacity:0.39215687"
       d="m 337.823,874.5679 12.3743,-12.87945 20.7082,19.1929 -13.132,13.13198 z"
       id="path3764"
       inkscape:connector-curvature="0"
       sodipodi:nodetypes="ccccc" />
    <path
       style="fill:#394050;stroke:none;fill-opacity:0.39215687"
       d="m 388.4729,916.51951 c 2.2429,7.77151 14.8955,25.70206 24.261,37.3131 9.3655,11.61105 23.2277,25.13726 31.677,31.95797 8.4494,6.82072 11.744,9.17803 16.9857,10.85074 5.2416,1.67272 9.8858,3.31149 12.8414,0.63397 2.9556,-2.67752 2.3031,-6.88345 0.903,-12.12939 -1.4,-5.24595 -4.7324,-9.82502 -11.6219,-18.09508 -6.8895,-8.27005 -19.8561,-20.15775 -31.4435,-29.44339 -11.5874,-9.28565 -30.2849,-22.14156 -38.3734,-24.85753 -4.7318,-1.63823 -6.5431,-0.77116 -5.2293,3.76961 z"
       id="path3770"
       inkscape:connector-curvature="0"
       sodipodi:nodetypes="czzzzzzzcc" />
  </g>
</svg>
