<?xml version="1.0" encoding="UTF-8" standalone="no"?>
<!-- Created with Inkscape (http://www.inkscape.org/) -->

<svg
   xmlns:dc="http://purl.org/dc/elements/1.1/"
   xmlns:cc="http://creativecommons.org/ns#"
   xmlns:rdf="http://www.w3.org/1999/02/22-rdf-syntax-ns#"
   xmlns:svg="http://www.w3.org/2000/svg"
   xmlns="http://www.w3.org/2000/svg"
   xmlns:sodipodi="http://sodipodi.sourceforge.net/DTD/sodipodi-0.dtd"
   xmlns:inkscape="http://www.inkscape.org/namespaces/inkscape"
   width="512"
   height="512"
   id="svg2"
   version="1.1"
   inkscape:version="0.48.5 r10040"
   sodipodi:docname="network-server.svg">
  <defs
     id="defs4" />
  <sodipodi:namedview
     id="base"
     pagecolor="#ffffff"
     bordercolor="#666666"
     borderopacity="1.0"
     inkscape:pageopacity="0.0"
     inkscape:pageshadow="2"
     inkscape:zoom="0.49497475"
     inkscape:cx="439.25585"
     inkscape:cy="200.78093"
     inkscape:document-units="px"
     inkscape:current-layer="layer1"
     showgrid="false"
     inkscape:window-width="1366"
     inkscape:window-height="716"
     inkscape:window-x="0"
     inkscape:window-y="0"
     inkscape:window-maximized="1" />
  <metadata
     id="metadata7">
    <rdf:RDF>
      <cc:Work
         rdf:about="">
        <dc:format>image/svg+xml</dc:format>
        <dc:type
           rdf:resource="http://purl.org/dc/dcmitype/StillImage" />
        <dc:title />
      </cc:Work>
    </rdf:RDF>
  </metadata>
  <g
     inkscape:label="Layer 1"
     inkscape:groupmode="layer"
     id="layer1"
     transform="translate(0,-540.36218)">
    <path
       style="fill:#decd87;stroke:none"
       d="m 101.80608,553.25212 290.12324,0.21824 4.8742,2.18248 2.40071,4.65595 0,244.07306 27.42639,28.08115 0.21825,126.43787 -6.91116,4.72868 -318.27714,2.32798 z"
       id="path2996"
       inkscape:connector-curvature="0" />
    <path
       style="fill:#ffe680;stroke:none"
       d="m 101.80633,553.26299 110.70179,90.74256 0.41153,253.09145 -8.64215,13.16899 0.2058,127.78031 -6.99604,3.9095 -95.85137,-76.10605 z"
       id="path3766"
       inkscape:connector-curvature="0"
       sodipodi:nodetypes="cccccccc" />
    <path
       style="fill:none;stroke:#decd87;stroke-width:2.30457258px;stroke-linecap:round;stroke-linejoin:miter;stroke-opacity:1"
       d="m 112.42744,959.9921 0.582,-380.62306"
       id="path3768"
       inkscape:connector-curvature="0" />
    <path
       style="fill:none;stroke:#decd87;stroke-width:2.30457258px;stroke-linecap:round;stroke-linejoin:miter;stroke-opacity:1"
       d="m 120.13709,965.53087 0.582,-380.62308"
       id="path3768-3"
       inkscape:connector-curvature="0" />
    <g
       id="Calque.__202"
       transform="matrix(0.23304619,0,0,0.237709,237.59943,719.77797)">
      <g
         id="shape">
        <path
           id="path"
           d="M 919.15,109.8 Q 918.7,89.9 904.5,75.7 C 894.75,65.95 882.95,61.05 869.15,61.05 l -674.2,0 c -13.8,0 -25.6,4.9 -35.35,14.65 -9.45,9.45 -14.35,20.85 -14.65,34.1 l 0,843.25 c 0,13.8 4.9,25.6 14.65,35.35 9.75,9.75 21.55,14.65 35.35,14.65 l 674.2,0 c 13.8,0 25.6,-4.9 35.35,-14.65 9.75,-9.75 14.65,-21.55 14.65,-35.35 l 0,-843.25 z"
           inkscape:connector-curvature="0"
           style="fill:#000000;fill-opacity:0.09803922" />
      </g>
    </g>
    <path
       id="path1"
       d="m 450.27141,737.14402 c -2.31766,-2.31766 -5.12263,-3.48243 -8.40301,-3.48243 l -160.26341,0 c -3.28037,0 -6.08535,1.16477 -8.40301,3.48243 -2.24635,2.24635 -3.41113,4.95625 -3.48243,8.10589 l 0,-0.006 0,172.23804 q 0.1089,4.72032 3.48243,8.09402 c 2.31766,2.31759 5.12264,3.48238 8.40301,3.48238 l 160.26341,0 c 3.28038,0 6.08535,-1.16479 8.40301,-3.48238 2.24636,-2.24642 3.41113,-4.94439 3.48244,-8.09402 l 0,-172.23804 0,0.006 c -0.0713,-3.14964 -1.23609,-5.85954 -3.48244,-8.10589 z"
       inkscape:connector-curvature="0"
       style="fill:#b3b3b3;fill-opacity:1" />
    <path
       id="path2"
       d="m 273.20198,925.57596 q -3.37357,-3.37359 -3.48243,-8.09402 l 0,28.2161 c 0,3.28031 1.16476,6.08531 3.48243,8.40301 2.31766,2.31759 5.12264,3.48238 8.40301,3.48238 l 160.26342,0 c 3.28039,0 6.08534,-1.16479 8.40301,-3.48238 2.31767,-2.3177 3.48243,-5.1227 3.48243,-8.40301 l 0,-28.2161 c -0.0713,3.14974 -1.23608,5.84771 -3.48243,8.09402 -2.31767,2.31759 -5.12262,3.48238 -8.40301,3.48238 l -160.26342,0 c -3.28037,0 -6.08535,-1.16479 -8.40301,-3.48238 z"
       inkscape:connector-curvature="0"
       style="fill:#4d4d4d;fill-opacity:0.98823529" />
    <g
       transform="matrix(0.237709,0,0,0.237709,236.92354,719.77797)"
       id="Calque.__204"
       style="fill:#1a1a1a">
      <g
         id="Symbole.__2026_1"
         overflow="visible"
         style="fill:#1a1a1a;overflow:visible">
        <g
           id="Calque.__208"
           style="fill:#1a1a1a">
          <g
             id="shape17"
             style="fill:#1a1a1a">
            <path
               inkscape:connector-curvature="0"
               id="path11"
               d="m 518,918 q 0,-8.3 -5.85,-14.15 C 508.25,899.95 503.55,898 498,898 l -302,0 c -5.55,0 -10.25,1.95 -14.15,5.85 -3.9,3.9 -5.85,8.6 -5.85,14.15 l 0,8.2 c 0,5.55 1.95,10.25 5.85,14.15 3.9,3.9 8.6,5.85 14.15,5.85 l 302,0 c 5.55,0 10.25,-1.95 14.15,-5.85 3.9,-3.9 5.85,-8.6 5.85,-14.15 l 0,-8.2 z"
               style="fill:#1a1a1a;fill-opacity:1" />
          </g>
        </g>
      </g>
    </g>
    <g
       transform="matrix(0.237709,0,0,0.237709,236.92354,719.77797)"
       id="Calque.__205">
      <g
         id="shape6">
        <path
           style="fill:#000000;fill-opacity:0.2"
           inkscape:connector-curvature="0"
           id="path3"
           d="M 849.65,912.15 Q 843.1,905.6 833.8,905.6 c -6.2,0 -11.5,2.2 -15.9,6.55 -4.35,4.4 -6.55,9.7 -6.55,15.9 0,6.2 2.2,11.5 6.55,15.85 4.4,4.4 9.7,6.6 15.9,6.6 6.2,0 11.5,-2.2 15.85,-6.6 4.4,-4.35 6.6,-9.65 6.6,-15.85 0,-6.2 -2.2,-11.5 -6.6,-15.9 z m -64.85,15.9 c 0,-6.2 -2.2,-11.5 -6.6,-15.9 -4.35,-4.35 -9.65,-6.55 -15.85,-6.55 -6.2,0 -11.5,2.2 -15.9,6.55 -4.35,4.4 -6.55,9.7 -6.55,15.9 0,6.2 2.2,11.5 6.55,15.85 4.4,4.4 9.7,6.6 15.9,6.6 6.2,0 11.5,-2.2 15.85,-6.6 4.4,-4.35 6.6,-9.65 6.6,-15.85 z" />
      </g>
    </g>
    <path
       id="path6"
       d="m 404.12807,872.38715 q 18.83843,-18.83844 18.83843,-45.48562 c 0,-17.76873 -6.2755,-32.92269 -18.83843,-45.48562 -12.56292,-12.56291 -27.71687,-18.83843 -45.48562,-18.83843 -17.76874,0 -32.9227,6.27552 -45.48562,18.83843 -12.56293,12.56293 -18.83843,27.71689 -18.83843,45.48562 0,17.76875 6.2755,32.92271 18.83843,45.48562 12.56292,12.56293 27.71688,18.83845 45.48562,18.83845 17.76875,0 32.9227,-6.27552 45.48562,-18.83845 z"
       inkscape:connector-curvature="0"
       style="fill:#ffffff;fill-opacity:0.09803922" />
    <path
       id="path7"
       d="m 433.99621,943.34327 c 1.47379,0 2.73365,-0.52294 3.76769,-1.56893 1.04591,-1.034 1.56888,-2.29383 1.56888,-3.76761 0,-1.47378 -0.52297,-2.73372 -1.56888,-3.7796 -1.03404,-1.034 -2.2939,-1.55694 -3.76769,-1.55694 -1.4738,0 -2.73365,0.52294 -3.77959,1.55694 -1.03402,1.04588 -1.55698,2.30582 -1.55698,3.7796 0,1.47378 0.52296,2.73361 1.55698,3.76761 1.04593,1.04599 2.30579,1.56893 3.77959,1.56893 z m -11.64775,-5.33654 c 0,-1.47378 -0.52296,-2.73372 -1.56888,-3.7796 -1.03403,-1.034 -2.29388,-1.55694 -3.76768,-1.55694 -1.4738,0 -2.73365,0.52294 -3.77957,1.55694 -1.03404,1.04588 -1.557,2.30582 -1.557,3.7796 0,1.47378 0.52296,2.73361 1.557,3.76761 1.04592,1.04599 2.30577,1.56893 3.77957,1.56893 1.4738,0 2.73366,-0.52294 3.76768,-1.56893 1.04592,-1.034 1.56888,-2.29383 1.56888,-3.76761 z"
       inkscape:connector-curvature="0"
       style="fill:#ffcc00;fill-opacity:1" />
    <path
       id="path2-3"
       d="m 273.18494,943.36692 q -3.37357,-3.37359 -3.48243,-8.09391 l 0,28.21599 c 0,3.28042 1.16476,6.08531 3.48243,8.40301 2.31766,2.3177 5.12263,3.48238 8.40301,3.48238 l 160.26341,0 c 3.2804,0 6.08535,-1.16468 8.40301,-3.48238 2.31767,-2.3177 3.48243,-5.12259 3.48243,-8.40301 l 0,-28.21599 c -0.0713,3.14963 -1.23607,5.8476 -3.48243,8.09391 -2.31766,2.3177 -5.12261,3.48238 -8.40301,3.48238 l -160.26341,0 c -3.28038,0 -6.08535,-1.16468 -8.40301,-3.48238 z"
       inkscape:connector-curvature="0"
       style="fill:#4d4d4d;fill-opacity:0.98823529" />
    <g
       transform="matrix(0.237709,0,0,0.237709,236.90652,737.56896)"
       id="Calque.__204-6"
       style="fill:#1a1a1a">
      <g
         id="Symbole.__2026_1-7"
         overflow="visible"
         style="fill:#1a1a1a;overflow:visible">
        <g
           id="Calque.__208-5"
           style="fill:#1a1a1a">
          <g
             id="shape17-3"
             style="fill:#1a1a1a">
            <path
               inkscape:connector-curvature="0"
               id="path11-5"
               d="m 518,918 q 0,-8.3 -5.85,-14.15 C 508.25,899.95 503.55,898 498,898 l -302,0 c -5.55,0 -10.25,1.95 -14.15,5.85 -3.9,3.9 -5.85,8.6 -5.85,14.15 l 0,8.2 c 0,5.55 1.95,10.25 5.85,14.15 3.9,3.9 8.6,5.85 14.15,5.85 l 302,0 c 5.55,0 10.25,-1.95 14.15,-5.85 3.9,-3.9 5.85,-8.6 5.85,-14.15 l 0,-8.2 z"
               style="fill:#1a1a1a;fill-opacity:1" />
          </g>
        </g>
      </g>
    </g>
    <g
       transform="matrix(0.237709,0,0,0.237709,236.90652,737.56896)"
       id="Calque.__205-6">
      <g
         id="shape6-2">
        <path
           style="fill:#000000;fill-opacity:0.2"
           inkscape:connector-curvature="0"
           id="path3-9"
           d="M 849.65,912.15 Q 843.1,905.6 833.8,905.6 c -6.2,0 -11.5,2.2 -15.9,6.55 -4.35,4.4 -6.55,9.7 -6.55,15.9 0,6.2 2.2,11.5 6.55,15.85 4.4,4.4 9.7,6.6 15.9,6.6 6.2,0 11.5,-2.2 15.85,-6.6 4.4,-4.35 6.6,-9.65 6.6,-15.85 0,-6.2 -2.2,-11.5 -6.6,-15.9 z m -64.85,15.9 c 0,-6.2 -2.2,-11.5 -6.6,-15.9 -4.35,-4.35 -9.65,-6.55 -15.85,-6.55 -6.2,0 -11.5,2.2 -15.9,6.55 -4.35,4.4 -6.55,9.7 -6.55,15.9 0,6.2 2.2,11.5 6.55,15.85 4.4,4.4 9.7,6.6 15.9,6.6 6.2,0 11.5,-2.2 15.85,-6.6 4.4,-4.35 6.6,-9.65 6.6,-15.85 z" />
      </g>
    </g>
    <path
       id="path7-1"
       d="m 433.97916,961.13423 c 1.47379,0 2.73366,-0.52294 3.76769,-1.56882 1.04592,-1.034 1.56888,-2.29383 1.56888,-3.76772 0,-1.47378 -0.52296,-2.73361 -1.56888,-3.7796 -1.03403,-1.034 -2.2939,-1.55694 -3.76769,-1.55694 -1.4738,0 -2.73365,0.52294 -3.77956,1.55694 -1.03404,1.04599 -1.55701,2.30582 -1.55701,3.7796 0,1.47389 0.52296,2.73372 1.55701,3.76772 1.04591,1.04588 2.30577,1.56882 3.77956,1.56882 z m -11.64773,-5.33654 c 0,-1.47378 -0.52296,-2.73361 -1.56889,-3.7796 -1.03402,-1.034 -2.29388,-1.55694 -3.76767,-1.55694 -1.47381,0 -2.73367,0.52294 -3.77958,1.55694 -1.03404,1.04599 -1.557,2.30582 -1.557,3.7796 0,1.47389 0.52296,2.73372 1.557,3.76772 1.04591,1.04588 2.30577,1.56882 3.77958,1.56882 1.47379,0 2.73365,-0.52294 3.76767,-1.56882 1.04593,-1.034 1.56889,-2.29383 1.56889,-3.76772 z"
       inkscape:connector-curvature="0"
       style="fill:#ffcc00;fill-opacity:1" />
    <path
       id="path2-2"
       d="m 272.81914,960.55926 q -3.37357,-3.37359 -3.48243,-8.09402 l 0,28.21599 c 0,3.28042 1.16477,6.08539 3.48243,8.40298 2.31767,2.31772 5.12264,3.48253 8.40302,3.48253 l 160.26341,0 c 3.28039,0 6.08535,-1.16481 8.40302,-3.48253 2.31766,-2.31759 3.48243,-5.12256 3.48243,-8.40298 l 0,-28.21599 c -0.0713,3.14963 -1.23608,5.8476 -3.48243,8.09402 -2.31767,2.31759 -5.12263,3.48238 -8.40302,3.48238 l -160.26341,0 c -3.28038,0 -6.08535,-1.16479 -8.40302,-3.48238 z"
       inkscape:connector-curvature="0"
       style="fill:#4d4d4d;fill-opacity:0.98823529" />
    <g
       transform="matrix(0.237709,0,0,0.237709,236.54073,754.76123)"
       id="Calque.__204-7"
       style="fill:#1a1a1a">
      <g
         id="Symbole.__2026_1-0"
         overflow="visible"
         style="fill:#1a1a1a;overflow:visible">
        <g
           id="Calque.__208-9"
           style="fill:#1a1a1a">
          <g
             id="shape17-36"
             style="fill:#1a1a1a">
            <path
               inkscape:connector-curvature="0"
               id="path11-0"
               d="m 518,918 q 0,-8.3 -5.85,-14.15 C 508.25,899.95 503.55,898 498,898 l -302,0 c -5.55,0 -10.25,1.95 -14.15,5.85 -3.9,3.9 -5.85,8.6 -5.85,14.15 l 0,8.2 c 0,5.55 1.95,10.25 5.85,14.15 3.9,3.9 8.6,5.85 14.15,5.85 l 302,0 c 5.55,0 10.25,-1.95 14.15,-5.85 3.9,-3.9 5.85,-8.6 5.85,-14.15 l 0,-8.2 z"
               style="fill:#1a1a1a;fill-opacity:1" />
          </g>
        </g>
      </g>
    </g>
    <g
       transform="matrix(0.237709,0,0,0.237709,236.54073,754.76123)"
       id="Calque.__205-62">
      <g
         id="shape6-6">
        <path
           style="fill:#000000;fill-opacity:0.2"
           inkscape:connector-curvature="0"
           id="path3-1"
           d="M 849.65,912.15 Q 843.1,905.6 833.8,905.6 c -6.2,0 -11.5,2.2 -15.9,6.55 -4.35,4.4 -6.55,9.7 -6.55,15.9 0,6.2 2.2,11.5 6.55,15.85 4.4,4.4 9.7,6.6 15.9,6.6 6.2,0 11.5,-2.2 15.85,-6.6 4.4,-4.35 6.6,-9.65 6.6,-15.85 0,-6.2 -2.2,-11.5 -6.6,-15.9 z m -64.85,15.9 c 0,-6.2 -2.2,-11.5 -6.6,-15.9 -4.35,-4.35 -9.65,-6.55 -15.85,-6.55 -6.2,0 -11.5,2.2 -15.9,6.55 -4.35,4.4 -6.55,9.7 -6.55,15.9 0,6.2 2.2,11.5 6.55,15.85 4.4,4.4 9.7,6.6 15.9,6.6 6.2,0 11.5,-2.2 15.85,-6.6 4.4,-4.35 6.6,-9.65 6.6,-15.85 z" />
      </g>
    </g>
    <path
       id="path7-8"
       d="m 433.61338,978.32657 c 1.47379,0 2.73365,-0.52294 3.76768,-1.56893 1.04592,-1.034 1.56888,-2.29383 1.56888,-3.76761 0,-1.47389 -0.52296,-2.73372 -1.56888,-3.7796 -1.03403,-1.034 -2.29389,-1.55705 -3.76768,-1.55705 -1.4738,0 -2.73366,0.52305 -3.77958,1.55705 -1.03403,1.04588 -1.55699,2.30571 -1.55699,3.7796 0,1.47378 0.52296,2.73361 1.55699,3.76761 1.04592,1.04599 2.30579,1.56893 3.77958,1.56893 z m -11.64775,-5.33654 c 0,-1.47389 -0.52296,-2.73372 -1.56887,-3.7796 -1.03405,-1.034 -2.2939,-1.55705 -3.76769,-1.55705 -1.4738,0 -2.73365,0.52305 -3.77958,1.55705 -1.03403,1.04588 -1.55698,2.30571 -1.55698,3.7796 0,1.47378 0.52295,2.73361 1.55698,3.76761 1.04592,1.04599 2.30578,1.56893 3.77958,1.56893 1.47379,0 2.73364,-0.52294 3.76769,-1.56893 1.04591,-1.034 1.56887,-2.29383 1.56887,-3.76761 z"
       inkscape:connector-curvature="0"
       style="fill:#ffcc00;fill-opacity:1" />
    <path
       id="path2-7"
       d="m 272.81914,976.65413 q -3.37357,-3.37359 -3.48243,-8.09402 l 0,28.21608 c 0,3.28031 1.16477,6.08531 3.48243,8.40301 2.31767,2.3176 5.12264,3.4824 8.40302,3.4824 l 160.26341,0 c 3.28039,0 6.08535,-1.1648 8.40302,-3.4824 2.31766,-2.3177 3.48243,-5.1227 3.48243,-8.40301 l 0,-28.21608 c -0.0713,3.14963 -1.23608,5.84771 -3.48243,8.09402 -2.31767,2.31759 -5.12263,3.48238 -8.40302,3.48238 l -160.26341,0 c -3.28038,0 -6.08535,-1.16479 -8.40302,-3.48238 z"
       inkscape:connector-curvature="0"
       style="fill:#4d4d4d;fill-opacity:0.98823529" />
    <g
       transform="matrix(0.237709,0,0,0.237709,236.54073,770.85614)"
       id="Calque.__204-9"
       style="fill:#1a1a1a">
      <g
         id="Symbole.__2026_1-2"
         overflow="visible"
         style="fill:#1a1a1a;overflow:visible">
        <g
           id="Calque.__208-0"
           style="fill:#1a1a1a">
          <g
             id="shape17-2"
             style="fill:#1a1a1a">
            <path
               inkscape:connector-curvature="0"
               id="path11-3"
               d="m 518,918 q 0,-8.3 -5.85,-14.15 C 508.25,899.95 503.55,898 498,898 l -302,0 c -5.55,0 -10.25,1.95 -14.15,5.85 -3.9,3.9 -5.85,8.6 -5.85,14.15 l 0,8.2 c 0,5.55 1.95,10.25 5.85,14.15 3.9,3.9 8.6,5.85 14.15,5.85 l 302,0 c 5.55,0 10.25,-1.95 14.15,-5.85 3.9,-3.9 5.85,-8.6 5.85,-14.15 l 0,-8.2 z"
               style="fill:#1a1a1a;fill-opacity:1" />
          </g>
        </g>
      </g>
    </g>
    <g
       transform="matrix(0.237709,0,0,0.237709,236.54073,770.85614)"
       id="Calque.__205-7">
      <g
         id="shape6-5">
        <path
           style="fill:#000000;fill-opacity:0.2"
           inkscape:connector-curvature="0"
           id="path3-92"
           d="M 849.65,912.15 Q 843.1,905.6 833.8,905.6 c -6.2,0 -11.5,2.2 -15.9,6.55 -4.35,4.4 -6.55,9.7 -6.55,15.9 0,6.2 2.2,11.5 6.55,15.85 4.4,4.4 9.7,6.6 15.9,6.6 6.2,0 11.5,-2.2 15.85,-6.6 4.4,-4.35 6.6,-9.65 6.6,-15.85 0,-6.2 -2.2,-11.5 -6.6,-15.9 z m -64.85,15.9 c 0,-6.2 -2.2,-11.5 -6.6,-15.9 -4.35,-4.35 -9.65,-6.55 -15.85,-6.55 -6.2,0 -11.5,2.2 -15.9,6.55 -4.35,4.4 -6.55,9.7 -6.55,15.9 0,6.2 2.2,11.5 6.55,15.85 4.4,4.4 9.7,6.6 15.9,6.6 6.2,0 11.5,-2.2 15.85,-6.6 4.4,-4.35 6.6,-9.65 6.6,-15.85 z" />
      </g>
    </g>
    <path
       id="path7-2"
       d="m 433.61338,994.42143 c 1.47379,0 2.73365,-0.52296 3.76768,-1.56887 1.04592,-1.0341 1.56888,-2.29387 1.56888,-3.76769 0,-1.47378 -0.52296,-2.73372 -1.56888,-3.77957 -1.03403,-1.034 -2.29389,-1.55694 -3.76768,-1.55694 -1.4738,0 -2.73366,0.52294 -3.77958,1.55694 -1.03403,1.04585 -1.55699,2.30579 -1.55699,3.77957 0,1.47382 0.52296,2.73359 1.55699,3.76769 1.04592,1.04591 2.30579,1.56887 3.77958,1.56887 z m -11.64775,-5.33656 c 0,-1.47378 -0.52296,-2.73372 -1.56887,-3.77957 -1.03405,-1.034 -2.2939,-1.55694 -3.76769,-1.55694 -1.4738,0 -2.73365,0.52294 -3.77958,1.55694 -1.03403,1.04585 -1.55698,2.30579 -1.55698,3.77957 0,1.47382 0.52295,2.73359 1.55698,3.76769 1.04592,1.04591 2.30578,1.56887 3.77958,1.56887 1.47379,0 2.73364,-0.52296 3.76769,-1.56887 1.04591,-1.0341 1.56887,-2.29387 1.56887,-3.76769 z"
       inkscape:connector-curvature="0"
       style="fill:#ffcc00;fill-opacity:1" />
  </g>
</svg>
