<?xml version="1.0" encoding="UTF-8" standalone="no"?>
<!-- Created with Inkscape (http://www.inkscape.org/) -->

<svg
   xmlns:dc="http://purl.org/dc/elements/1.1/"
   xmlns:cc="http://creativecommons.org/ns#"
   xmlns:rdf="http://www.w3.org/1999/02/22-rdf-syntax-ns#"
   xmlns:svg="http://www.w3.org/2000/svg"
   xmlns="http://www.w3.org/2000/svg"
   xmlns:sodipodi="http://sodipodi.sourceforge.net/DTD/sodipodi-0.dtd"
   xmlns:inkscape="http://www.inkscape.org/namespaces/inkscape"
   width="512"
   height="512"
   id="svg2"
   version="1.1"
   inkscape:version="0.91 r13725"
   sodipodi:docname="user-home.svg">
  <defs
     id="defs4" />
  <sodipodi:namedview
     id="base"
     pagecolor="#ffffff"
     bordercolor="#666666"
     borderopacity="1.0"
     inkscape:pageopacity="0.0"
     inkscape:pageshadow="2"
     inkscape:zoom="0.24748737"
     inkscape:cx="245.55259"
     inkscape:cy="642.98018"
     inkscape:document-units="px"
     inkscape:current-layer="layer1"
     showgrid="false"
     inkscape:window-width="1366"
     inkscape:window-height="713"
     inkscape:window-x="0"
     inkscape:window-y="0"
     inkscape:window-maximized="1" />
  <metadata
     id="metadata7">
    <rdf:RDF>
      <cc:Work
         rdf:about="">
        <dc:format>image/svg+xml</dc:format>
        <dc:type
           rdf:resource="http://purl.org/dc/dcmitype/StillImage" />
        <dc:title />
      </cc:Work>
    </rdf:RDF>
  </metadata>
  <g
     inkscape:label="Layer 1"
     inkscape:groupmode="layer"
     id="layer1"
     transform="translate(0,-540.36218)">
    <path
       style="fill:#ffb800;stroke:none"
       d="m 101.80608,553.25212 290.12324,0.21824 4.8742,2.18248 2.40071,4.65595 0,244.07306 27.42639,28.08115 0.21825,126.43787 -6.91116,4.72868 -318.27714,2.32798 z"
       id="path2996"
       inkscape:connector-curvature="0" />
    <path
       style="fill:#faec6d;stroke:none"
       d="m 101.80633,553.26299 110.70179,90.74256 0.41153,253.09145 -8.64215,13.16899 0.2058,127.78031 -6.99604,3.9095 -95.85137,-76.10605 z"
       id="path3766"
       inkscape:connector-curvature="0"
       sodipodi:nodetypes="cccccccc" />
    <path
       style="fill:none;stroke:#ffb800;stroke-width:2.30457258px;stroke-linecap:round;stroke-linejoin:miter;stroke-opacity:1"
       d="m 112.42744,959.9921 0.582,-380.62306"
       id="path3768"
       inkscape:connector-curvature="0" />
    <path
       style="fill:none;stroke:#ffb800;stroke-width:2.30457258px;stroke-linecap:round;stroke-linejoin:miter;stroke-opacity:1"
       d="m 120.13709,965.53087 0.582,-380.62308"
       id="path3768-3"
       inkscape:connector-curvature="0" />
    <path
       d="m 321.36114,992.67637 -39.61483,0 0,-84.91753 39.61483,0 0,84.91753 z"
       style="fill:#a57c52;fill-opacity:1;fill-rule:nonzero;stroke:none"
       id="path546"
       inkscape:connector-curvature="0" />
    <g
       id="g548"
       transform="matrix(1.4742596,0,0,-1.25,279.50558,905.85684)">
      <path
         d="m 0,0 0,-70.977 3.044,0 0,3.042 -0.002,0 0,64.893 23.827,0 0,-64.893 -0.016,0 0,-3.042 3.059,0 L 29.912,0 0,0 Z"
         style="fill:#754c24;fill-opacity:1;fill-rule:nonzero;stroke:none"
         id="path550"
         inkscape:connector-curvature="0" />
    </g>
    <path
       d="m 326.78052,1000.1763 -50.44916,0 0,-7.49993 50.44916,0 0,7.49993 z"
       style="fill:#754c24;fill-opacity:1;fill-rule:nonzero;stroke:none"
       id="path552"
       inkscape:connector-curvature="0" />
    <g
       id="g554"
       transform="matrix(1.4742596,0,0,-1.25,314.82088,942.95647)">
      <path
         d="m 0,0 -0.147,5.672 -0.12,5.671 -0.155,11.344 0.422,-0.422 -17.998,-0.084 0.506,0.506 C -17.547,15.125 -17.512,7.562 -17.642,0 l -0.356,0.356 8.999,-0.135 C -6,0.149 -3,0.101 0,0 m 0,0 c -3,-0.101 -6,-0.149 -8.999,-0.221 l -8.999,-0.135 -0.35,-0.005 L -18.354,0 c -0.13,7.562 -0.095,15.125 -0.15,22.687 l -0.004,0.509 0.51,-0.003 L 0,23.109 0.428,23.107 0.422,22.687 0.267,11.343 0.147,5.672 0,0 Z"
         style="fill:#c59b6d;fill-opacity:1;fill-rule:nonzero;stroke:none"
         id="path556"
         inkscape:connector-curvature="0" />
    </g>
    <g
       id="g558"
       transform="matrix(1.4742596,0,0,-1.25,314.82088,985.62497)">
      <path
         d="m 0,0 -0.147,5.671 -0.12,5.671 -0.155,11.343 0.422,-0.422 -17.998,-0.084 0.506,0.506 C -17.547,15.124 -17.512,7.562 -17.642,0 l -0.356,0.356 8.999,-0.135 C -6,0.149 -3,0.101 0,0 m 0,0 c -3,-0.101 -6,-0.149 -8.999,-0.221 l -8.999,-0.135 -0.35,-0.005 L -18.354,0 c -0.13,7.562 -0.095,15.124 -0.15,22.685 l -0.004,0.509 0.51,-0.003 L 0,23.107 0.428,23.105 0.422,22.685 0.267,11.342 0.147,5.671 0,0 Z"
         style="fill:#c59b6d;fill-opacity:1;fill-rule:nonzero;stroke:none"
         id="path560"
         inkscape:connector-curvature="0" />
    </g>
    <g
       id="g562"
       transform="matrix(1.4742596,0,0,-1.25,316.10157,951.51297)">
      <path
         d="m 0,0 c 0,-0.831 -0.671,-1.502 -1.502,-1.502 -0.829,0 -1.502,0.671 -1.502,1.502 0,0.829 0.673,1.503 1.502,1.503 C -0.671,1.503 0,0.829 0,0"
         style="fill:#1a1a1a;fill-opacity:1;fill-rule:nonzero;stroke:none"
         id="path564"
         inkscape:connector-curvature="0" />
    </g>
    <path
       d="m 401.49599,992.67637 39.61483,0 0,-84.91753 -39.61483,0 0,84.91753 z"
       style="fill:#7b708b;fill-opacity:1;fill-rule:nonzero;stroke:none"
       id="path624"
       inkscape:connector-curvature="0" />
    <g
       id="g626"
       transform="matrix(1.4742596,0,0,-1.25,443.35213,905.85684)">
      <path
         d="m 0,0 0,-70.977 -3.045,0 0,3.042 0.003,0 0,64.893 -23.828,0 0,-64.893 0.016,0 0,-3.042 -3.058,0 0,70.977 L 0,0 Z"
         style="fill:#1a1a1a;fill-opacity:1;fill-rule:nonzero;stroke:none"
         id="path628"
         inkscape:connector-curvature="0" />
    </g>
    <path
       d="m 396.07662,1000.1763 50.44916,0 0,-7.49993 -50.44916,0 0,7.49993 z"
       style="fill:#1a1a1a;fill-opacity:1;fill-rule:nonzero;stroke:none"
       id="path630"
       inkscape:connector-curvature="0" />
    <g
       id="g632"
       transform="matrix(1.4742596,0,0,-1.25,408.0361,942.95647)">
      <path
         d="m 0,0 -0.147,5.672 -0.12,5.671 -0.155,11.344 -0.006,0.42 0.428,0.002 17.998,0.084 0.51,0.003 -0.004,-0.509 C 18.449,15.125 18.484,7.562 18.354,0 l -0.006,-0.361 -0.35,0.005 -8.999,0.135 C 6,-0.149 3,-0.101 0,0 M 0,0 C 3,0.101 6,0.149 8.999,0.221 L 17.998,0.356 17.642,0 c -0.13,7.562 -0.095,15.125 -0.15,22.687 L 17.998,22.181 0,22.265 0.422,22.687 0.267,11.343 0.147,5.672 0,0 Z"
         style="fill:#662d90;fill-opacity:1;fill-rule:nonzero;stroke:none"
         id="path634"
         inkscape:connector-curvature="0" />
    </g>
    <g
       id="g636"
       transform="matrix(1.4742596,0,0,-1.25,408.0361,985.62497)">
      <path
         d="m 0,0 -0.147,5.671 -0.12,5.671 -0.155,11.343 -0.006,0.42 0.428,0.002 17.998,0.084 0.51,0.003 -0.004,-0.509 C 18.449,15.124 18.484,7.562 18.354,0 l -0.006,-0.361 -0.35,0.005 -8.999,0.135 C 6,-0.149 3,-0.101 0,0 M 0,0 C 3,0.101 6,0.149 8.999,0.221 L 17.998,0.356 17.642,0 c -0.13,7.562 -0.095,15.124 -0.15,22.685 L 17.998,22.179 0,22.263 0.422,22.685 0.267,11.342 0.147,5.671 0,0 Z"
         style="fill:#662d90;fill-opacity:1;fill-rule:nonzero;stroke:none"
         id="path638"
         inkscape:connector-curvature="0" />
    </g>
    <g
       id="g640"
       transform="matrix(1.4742596,0,0,-1.25,406.75556,951.51297)">
      <path
         d="m 0,0 c 0,-0.831 0.671,-1.502 1.502,-1.502 0.829,0 1.502,0.671 1.502,1.502 0,0.829 -0.673,1.503 -1.502,1.503 C 0.671,1.503 0,0.829 0,0"
         style="fill:#1a1a1a;fill-opacity:1;fill-rule:nonzero;stroke:none"
         id="path642"
         inkscape:connector-curvature="0" />
    </g>
    <path
       d="m 420.44318,823.96384 22.62104,0 0,-33.73 -22.62104,0 0,33.73 z"
       style="fill:#f03916;fill-opacity:1;fill-rule:nonzero;stroke:none"
       id="path648"
       inkscape:connector-curvature="0" />
    <g
       id="g650"
       transform="matrix(1.4742596,0,0,-1.25,250.90303,866.68884)"
       style="fill:#e6e6e6;fill-opacity:1">
      <path
         d="M 0,0 74.97,73.337 149.941,0 l 0,-99.762 L 0,-99.762 0,0 Z"
         style="fill:#e6e6e6;fill-opacity:1;fill-rule:nonzero;stroke:none"
         id="path652"
         inkscape:connector-curvature="0" />
    </g>
    <path
       inkscape:connector-curvature="0"
       id="path660"
       style="fill:#45d03f;fill-opacity:1;fill-rule:nonzero;stroke:none"
       d="m 245.21255,1000.1756 0,-4.72863 c 0,-2.24 2.35144,-4.055 5.25278,-4.055 l 221.92766,0 c 2.90135,0 5.25279,1.815 5.25279,4.055 l 0,4.72863 -232.43323,0 z" />
    <path
       d="m 444.78025,940.88887 -39.60451,0 0,-46.04504 39.60451,0 0,46.04504 z"
       style="fill:#ffffff;fill-opacity:1;fill-rule:nonzero;stroke:none"
       id="path664"
       inkscape:connector-curvature="0" />
    <path
       d="m 405.17574,894.84384 39.60451,0 0,46.04503 -39.60451,0 0,-46.04503 z m -5.25278,50.49873 50.11008,0 0,-54.95248 -50.11008,0 0,54.95248 z"
       style="fill:#1a1a1a;fill-opacity:1;fill-rule:nonzero;stroke:none"
       id="path666"
       inkscape:connector-curvature="0" />
    <path
       d="m 399.92296,940.88887 -39.60304,0 0,-46.04504 39.60304,0 0,46.04504 z"
       style="fill:#ffffff;fill-opacity:1;fill-rule:nonzero;stroke:none"
       id="path700"
       inkscape:connector-curvature="0" />
    <path
       d="m 360.31992,894.84384 39.60304,0 0,46.04503 -39.60304,0 0,-46.04503 z m -5.25278,50.49873 50.1086,0 0,-54.95248 -50.1086,0 0,54.95248 z"
       style="fill:#1a1a1a;fill-opacity:1;fill-rule:nonzero;stroke:none"
       id="path702"
       inkscape:connector-curvature="0" />
    <path
       d="m 285.35835,991.51764 59.17358,0 0,-99.46504 -59.17358,0 0,99.46504 z"
       style="fill:#502d16;fill-opacity:1;fill-rule:nonzero;stroke:none"
       id="path736"
       inkscape:connector-curvature="0" />
    <path
       d="m 285.48356,1000.1763 59.09275,0 0,-8.78373 -59.09275,0 0,8.78373 z"
       style="fill:#1a1a1a;fill-opacity:1;fill-rule:nonzero;stroke:none"
       id="path742"
       inkscape:connector-curvature="0" />
    <path
       inkscape:connector-curvature="0"
       id="path758"
       style="fill:#f03916;fill-opacity:1;fill-rule:nonzero;stroke:none"
       d="m 361.42857,753.11946 136.13312,115.425 -25.25554,0 -110.87758,-91.30125 -110.87759,91.30125 -25.25554,0 136.13313,-115.425 z" />
    <g
       id="g760"
       transform="matrix(1.4742596,0,0,-1.25,414.61056,788.98651)"
       style="fill:#f03916;fill-opacity:1;stroke:none;stroke-opacity:1">
      <path
         d="m 0,0 c 0,-1.967 1.595,-3.563 3.563,-3.563 l 16.131,0 c 1.968,0 3.563,1.596 3.563,3.563 l 0,5.938 c 0,1.968 -1.595,3.563 -3.563,3.563 l -16.131,0 C 1.595,9.501 0,7.906 0,5.938 L 0,0 Z"
         style="fill:#f03916;fill-opacity:1;fill-rule:nonzero;stroke:none;stroke-opacity:1"
         id="path762"
         inkscape:connector-curvature="0" />
    </g>
  </g>
</svg>
