<?xml version="1.0" encoding="UTF-8" standalone="no"?>
<!-- Created with Inkscape (http://www.inkscape.org/) -->

<svg
   xmlns:dc="http://purl.org/dc/elements/1.1/"
   xmlns:cc="http://creativecommons.org/ns#"
   xmlns:rdf="http://www.w3.org/1999/02/22-rdf-syntax-ns#"
   xmlns:svg="http://www.w3.org/2000/svg"
   xmlns="http://www.w3.org/2000/svg"
   xmlns:sodipodi="http://sodipodi.sourceforge.net/DTD/sodipodi-0.dtd"
   xmlns:inkscape="http://www.inkscape.org/namespaces/inkscape"
   width="512"
   height="512"
   id="svg2"
   version="1.1"
   inkscape:version="0.48.5 r10040"
   sodipodi:docname="folder.svg">
  <defs
     id="defs4" />
  <sodipodi:namedview
     id="base"
     pagecolor="#ffffff"
     bordercolor="#666666"
     borderopacity="1.0"
     inkscape:pageopacity="0.0"
     inkscape:pageshadow="2"
     inkscape:zoom="0.35"
     inkscape:cx="993.1445"
     inkscape:cy="621.07366"
     inkscape:document-units="px"
     inkscape:current-layer="layer1"
     showgrid="false"
     inkscape:window-width="1366"
     inkscape:window-height="716"
     inkscape:window-x="0"
     inkscape:window-y="0"
     inkscape:window-maximized="1" />
  <metadata
     id="metadata7">
    <rdf:RDF>
      <cc:Work
         rdf:about="">
        <dc:format>image/svg+xml</dc:format>
        <dc:type
           rdf:resource="http://purl.org/dc/dcmitype/StillImage" />
        <dc:title></dc:title>
      </cc:Work>
    </rdf:RDF>
  </metadata>
  <g
     inkscape:label="Layer 1"
     inkscape:groupmode="layer"
     id="layer1"
     transform="translate(0,-540.36218)">
    <path
       style="fill:#decd87;stroke:none"
       d="m 101.80608,553.25212 290.12324,0.21824 4.8742,2.18248 2.40071,4.65595 0,244.07306 27.42639,28.08115 0.21825,126.43787 -6.91116,4.72868 -318.27714,2.32798 z"
       id="path2996"
       inkscape:connector-curvature="0" />
    <path
       style="fill:#ffe680;stroke:none"
       d="m 101.80633,553.26299 110.70179,90.74256 0.41153,253.09145 -8.64215,13.16899 0.2058,127.78031 -6.99604,3.9095 -95.85137,-76.10605 z"
       id="path3766"
       inkscape:connector-curvature="0"
       sodipodi:nodetypes="cccccccc" />
    <path
       style="fill:none;stroke:#decd87;stroke-width:2.30457258px;stroke-linecap:round;stroke-linejoin:miter;stroke-opacity:1"
       d="m 112.42744,959.9921 0.582,-380.62306"
       id="path3768"
       inkscape:connector-curvature="0" />
    <path
       style="fill:none;stroke:#decd87;stroke-width:2.30457258px;stroke-linecap:round;stroke-linejoin:miter;stroke-opacity:1"
       d="m 120.13709,965.53087 0.582,-380.62308"
       id="path3768-3"
       inkscape:connector-curvature="0" />
    <path
       d="m 324.09256,974.44133 -39.61483,0 0,-84.91749 39.61483,0 0,84.91749 z"
       style="fill:#a57c52;fill-opacity:1;fill-rule:nonzero;stroke:none"
       id="path546"
       inkscape:connector-curvature="0" />
    <g
       id="g548"
       transform="matrix(1.4742596,0,0,-1.25,282.237,887.62184)">
      <path
         d="m 0,0 0,-70.977 3.044,0 0,3.042 -0.002,0 0,64.893 23.827,0 0,-64.893 -0.016,0 0,-3.042 3.059,0 L 29.912,0 0,0 z"
         style="fill:#754c24;fill-opacity:1;fill-rule:nonzero;stroke:none"
         id="path550"
         inkscape:connector-curvature="0" />
    </g>
    <path
       d="m 329.51194,981.94133 -50.44916,0 0,-7.5 50.44916,0 0,7.5 z"
       style="fill:#754c24;fill-opacity:1;fill-rule:nonzero;stroke:none"
       id="path552"
       inkscape:connector-curvature="0" />
    <g
       id="g554"
       transform="matrix(1.4742596,0,0,-1.25,317.5523,924.72146)">
      <path
         d="m 0,0 -0.147,5.672 -0.12,5.671 -0.155,11.344 0.422,-0.422 -17.998,-0.084 0.506,0.506 C -17.547,15.125 -17.512,7.562 -17.642,0 l -0.356,0.356 8.999,-0.135 C -6,0.149 -3,0.101 0,0 m 0,0 c -3,-0.101 -6,-0.149 -8.999,-0.221 l -8.999,-0.135 -0.35,-0.005 L -18.354,0 c -0.13,7.562 -0.095,15.125 -0.15,22.687 l -0.004,0.509 0.51,-0.003 L 0,23.109 0.428,23.107 0.422,22.687 0.267,11.343 0.147,5.672 0,0 z"
         style="fill:#c59b6d;fill-opacity:1;fill-rule:nonzero;stroke:none"
         id="path556"
         inkscape:connector-curvature="0" />
    </g>
    <g
       id="g558"
       transform="matrix(1.4742596,0,0,-1.25,317.5523,967.38995)">
      <path
         d="m 0,0 -0.147,5.671 -0.12,5.671 -0.155,11.343 0.422,-0.422 -17.998,-0.084 0.506,0.506 C -17.547,15.124 -17.512,7.562 -17.642,0 l -0.356,0.356 8.999,-0.135 C -6,0.149 -3,0.101 0,0 m 0,0 c -3,-0.101 -6,-0.149 -8.999,-0.221 l -8.999,-0.135 -0.35,-0.005 L -18.354,0 c -0.13,7.562 -0.095,15.124 -0.15,22.685 l -0.004,0.509 0.51,-0.003 L 0,23.107 0.428,23.105 0.422,22.685 0.267,11.342 0.147,5.671 0,0 z"
         style="fill:#c59b6d;fill-opacity:1;fill-rule:nonzero;stroke:none"
         id="path560"
         inkscape:connector-curvature="0" />
    </g>
    <g
       id="g562"
       transform="matrix(1.4742596,0,0,-1.25,318.83299,933.27796)">
      <path
         d="m 0,0 c 0,-0.831 -0.671,-1.502 -1.502,-1.502 -0.829,0 -1.502,0.671 -1.502,1.502 0,0.829 0.673,1.503 1.502,1.503 C -0.671,1.503 0,0.829 0,0"
         style="fill:#1a1a1a;fill-opacity:1;fill-rule:nonzero;stroke:none"
         id="path564"
         inkscape:connector-curvature="0" />
    </g>
    <path
       d="m 404.22741,974.44133 39.61483,0 0,-84.91749 -39.61483,0 0,84.91749 z"
       style="fill:#7b708b;fill-opacity:1;fill-rule:nonzero;stroke:none"
       id="path624"
       inkscape:connector-curvature="0" />
    <g
       id="g626"
       transform="matrix(1.4742596,0,0,-1.25,446.08355,887.62184)">
      <path
         d="m 0,0 0,-70.977 -3.045,0 0,3.042 0.003,0 0,64.893 -23.828,0 0,-64.893 0.016,0 0,-3.042 -3.058,0 0,70.977 L 0,0 z"
         style="fill:#1a1a1a;fill-opacity:1;fill-rule:nonzero;stroke:none"
         id="path628"
         inkscape:connector-curvature="0" />
    </g>
    <path
       d="m 398.80804,981.94133 50.44916,0 0,-7.5 -50.44916,0 0,7.5 z"
       style="fill:#1a1a1a;fill-opacity:1;fill-rule:nonzero;stroke:none"
       id="path630"
       inkscape:connector-curvature="0" />
    <g
       id="g632"
       transform="matrix(1.4742596,0,0,-1.25,410.76752,924.72146)">
      <path
         d="m 0,0 -0.147,5.672 -0.12,5.671 -0.155,11.344 -0.006,0.42 0.428,0.002 17.998,0.084 0.51,0.003 -0.004,-0.509 C 18.449,15.125 18.484,7.562 18.354,0 l -0.006,-0.361 -0.35,0.005 -8.999,0.135 C 6,-0.149 3,-0.101 0,0 M 0,0 C 3,0.101 6,0.149 8.999,0.221 L 17.998,0.356 17.642,0 c -0.13,7.562 -0.095,15.125 -0.15,22.687 L 17.998,22.181 0,22.265 0.422,22.687 0.267,11.343 0.147,5.672 0,0 z"
         style="fill:#662d90;fill-opacity:1;fill-rule:nonzero;stroke:none"
         id="path634"
         inkscape:connector-curvature="0" />
    </g>
    <g
       id="g636"
       transform="matrix(1.4742596,0,0,-1.25,410.76752,967.38995)">
      <path
         d="m 0,0 -0.147,5.671 -0.12,5.671 -0.155,11.343 -0.006,0.42 0.428,0.002 17.998,0.084 0.51,0.003 -0.004,-0.509 C 18.449,15.124 18.484,7.562 18.354,0 l -0.006,-0.361 -0.35,0.005 -8.999,0.135 C 6,-0.149 3,-0.101 0,0 M 0,0 C 3,0.101 6,0.149 8.999,0.221 L 17.998,0.356 17.642,0 c -0.13,7.562 -0.095,15.124 -0.15,22.685 L 17.998,22.179 0,22.263 0.422,22.685 0.267,11.342 0.147,5.671 0,0 z"
         style="fill:#662d90;fill-opacity:1;fill-rule:nonzero;stroke:none"
         id="path638"
         inkscape:connector-curvature="0" />
    </g>
    <g
       id="g640"
       transform="matrix(1.4742596,0,0,-1.25,409.48698,933.27796)">
      <path
         d="m 0,0 c 0,-0.831 0.671,-1.502 1.502,-1.502 0.829,0 1.502,0.671 1.502,1.502 0,0.829 -0.673,1.503 -1.502,1.503 C 0.671,1.503 0,0.829 0,0"
         style="fill:#1a1a1a;fill-opacity:1;fill-rule:nonzero;stroke:none"
         id="path642"
         inkscape:connector-curvature="0" />
    </g>
    <path
       d="m 423.1746,805.72884 22.62104,0 0,-33.73 -22.62104,0 0,33.73 z"
       style="fill:#800000;fill-opacity:1;fill-rule:nonzero;stroke:none"
       id="path648"
       inkscape:connector-curvature="0" />
    <g
       id="g650"
       transform="matrix(1.4742596,0,0,-1.25,253.63445,848.45384)"
       style="fill:#e6e6e6">
      <path
         d="M 0,0 74.97,73.337 149.941,0 l 0,-99.762 L 0,-99.762 0,0 z"
         style="fill:#e6e6e6;fill-opacity:1;fill-rule:nonzero;stroke:none"
         id="path652"
         inkscape:connector-curvature="0" />
    </g>
    <g
       id="g654"
       transform="matrix(1.4742596,0,0,-1.25,253.63445,859.10196)">
      <path
         d="M 0,0 0,8.519 74.97,81.856 149.941,8.519 149.941,0 74.97,73.542 0,0 z"
         style="fill:#cbcbcb;fill-opacity:1;fill-rule:nonzero;stroke:none"
         id="path656"
         inkscape:connector-curvature="0" />
    </g>
    <path
       inkscape:connector-curvature="0"
       id="path660"
       style="fill:#447821;fill-opacity:1;fill-rule:nonzero;stroke:none"
       d="m 247.94397,981.9407 0,-4.72875 c 0,-2.24 2.35144,-4.055 5.25278,-4.055 l 221.92766,0 c 2.90135,0 5.25279,1.815 5.25279,4.055 l 0,4.72875 -232.43323,0 z" />
    <path
       d="m 447.51167,922.65383 -39.60451,0 0,-46.045 39.60451,0 0,46.045 z"
       style="fill:#2c89a0;fill-opacity:1;fill-rule:nonzero;stroke:none"
       id="path664"
       inkscape:connector-curvature="0" />
    <path
       d="m 407.90716,876.60884 39.60451,0 0,46.045 -39.60451,0 0,-46.045 z m -5.25278,50.49875 50.11008,0 0,-54.9525 -50.11008,0 0,54.9525 z"
       style="fill:#1a1a1a;fill-opacity:1;fill-rule:nonzero;stroke:none"
       id="path666"
       inkscape:connector-curvature="0" />
    <path
       d="m 402.65438,922.65383 -39.60304,0 0,-46.045 39.60304,0 0,46.045 z"
       style="fill:#2c89a0;fill-opacity:1;fill-rule:nonzero;stroke:none"
       id="path700"
       inkscape:connector-curvature="0" />
    <path
       d="m 363.05134,876.60884 39.60304,0 0,46.045 -39.60304,0 0,-46.045 z m -5.25278,50.49875 50.1086,0 0,-54.9525 -50.1086,0 0,54.9525 z"
       style="fill:#1a1a1a;fill-opacity:1;fill-rule:nonzero;stroke:none"
       id="path702"
       inkscape:connector-curvature="0" />
    <path
       d="m 294.56167,973.15634 46.39937,0 0,-99.46501 -46.39937,0 0,99.46501 z"
       style="fill:#502d16;fill-opacity:1;fill-rule:nonzero;stroke:none"
       id="path736"
       inkscape:connector-curvature="0" />
    <g
       id="g738"
       transform="matrix(1.4742596,0,0,-1.25,343.58654,871.46408)"
       style="fill:#1a1a1a">
      <path
         d="m 0,0 0,-83.136 -3.565,0 0,3.563 0.002,0 0,76.01 -27.91,0 0,-76.01 0.02,0 0,-3.563 -3.583,0 0,83.136 L 0,0 z"
         style="fill:#1a1a1a;fill-opacity:1;fill-rule:nonzero;stroke:none"
         id="path740"
         inkscape:connector-curvature="0" />
    </g>
    <path
       d="m 288.21498,981.94133 59.09275,0 0,-8.78375 -59.09275,0 0,8.78375 z"
       style="fill:#1a1a1a;fill-opacity:1;fill-rule:nonzero;stroke:none"
       id="path742"
       inkscape:connector-curvature="0" />
    <g
       id="g744"
       transform="matrix(1.4742596,0,0,-1.25,302.22163,914.91808)"
       style="fill:#28170b">
      <path
         d="M 0,0 -0.173,6.643 -0.312,13.286 -0.495,26.572 -0.501,27.064 0,27.067 21.081,27.166 21.677,27.168 21.674,26.572 21.614,13.286 21.584,6.643 21.499,0 21.493,-0.424 21.081,-0.417 c -3.514,0.054 -7.027,0.081 -10.54,0.158 C 7.027,-0.175 3.514,-0.118 0,0 m 0,0 c 3.514,0.118 7.027,0.175 10.541,0.259 3.513,0.077 7.026,0.104 10.54,0.158 L 20.664,0 20.578,6.643 20.548,13.286 20.488,26.572 21.081,25.979 0,26.078 0.495,26.572 0.312,13.286 0.173,6.643 0,0 z"
         style="fill:#28170b;fill-opacity:1;fill-rule:nonzero;stroke:none"
         id="path746"
         inkscape:connector-curvature="0" />
    </g>
    <g
       id="g748"
       transform="matrix(1.4742596,0,0,-1.25,302.22163,964.89733)"
       style="fill:#28170b">
      <path
         d="M 0,0 -0.173,6.643 -0.312,13.286 -0.495,26.571 -0.501,27.063 0,27.066 21.081,27.165 21.677,27.167 21.674,26.571 21.614,13.286 21.584,6.643 21.499,0 21.493,-0.424 21.081,-0.417 c -3.514,0.054 -7.027,0.081 -10.54,0.158 C 7.027,-0.175 3.514,-0.118 0,0 m 0,0 c 3.514,0.118 7.027,0.175 10.541,0.259 3.513,0.077 7.026,0.104 10.54,0.158 L 20.664,0 20.578,6.643 20.548,13.286 20.488,26.571 21.081,25.978 0,26.077 0.495,26.571 0.312,13.286 0.173,6.643 0,0 z"
         style="fill:#28170b;fill-opacity:1;fill-rule:nonzero;stroke:none"
         id="path750"
         inkscape:connector-curvature="0" />
    </g>
    <g
       id="g752"
       transform="matrix(1.4742596,0,0,-1.25,300.72068,924.94183)">
      <path
         d="m 0,0 c 0,-0.972 0.787,-1.758 1.759,-1.758 0.972,0 1.76,0.786 1.76,1.758 0,0.972 -0.788,1.761 -1.76,1.761 C 0.787,1.761 0,0.972 0,0"
         style="fill:#1a1a1a;fill-opacity:1;fill-rule:nonzero;stroke:none"
         id="path754"
         inkscape:connector-curvature="0" />
    </g>
    <path
       inkscape:connector-curvature="0"
       id="path758"
       style="fill:#aa0000;fill-opacity:1;fill-rule:nonzero;stroke:none"
       d="m 364.15999,734.88446 136.13312,115.425 -25.25554,0 -110.87758,-91.30125 -110.87759,91.30125 -25.25554,0 136.13313,-115.425 z" />
    <g
       id="g760"
       transform="matrix(1.4742596,0,0,-1.25,417.34198,771.25659)">
      <path
         d="m 0,0 c 0,-1.967 1.595,-3.563 3.563,-3.563 l 16.131,0 c 1.968,0 3.563,1.596 3.563,3.563 l 0,5.938 c 0,1.968 -1.595,3.563 -3.563,3.563 l -16.131,0 C 1.595,9.501 0,7.906 0,5.938 L 0,0 z"
         style="fill:#aa0000;fill-opacity:1;fill-rule:nonzero;stroke:none"
         id="path762"
         inkscape:connector-curvature="0" />
    </g>
  </g>
</svg>
